<svg id="kity_svg_6" xmlns="http://www.w3.org/2000/svg" xmlns:xlink="http://www.w3.org/1999/xlink" version="1.1" width="2569" height="2781" style="background: rgb(251, 251, 251); visibility: visible;" viewBox="0 0 2569 2781"><defs id="kity_defs_7"><linearGradient id="kity_linearGradient_17" x1="0" y1="0" x2="0" y2="1"><stop id="kity_stop_18" offset="0" stop-color="rgb(255, 255, 255)"></stop><stop id="kity_stop_19" offset="1" stop-color="rgb(204, 204, 204)"></stop></linearGradient><marker id="kity_marker_2" orient="auto" refX="6" refY="0" viewBox="-7 -7 14 14" markerWidth="7" markerHeight="7" markerUnits="userSpaceOnUse"><path id="kity_path_3" fill="rgb(115, 161, 191)" stroke="none" d="M6,0A6,6,0,1,1,-6,0A6,6,0,1,1,6,0"></path></marker></defs><g id="kity_g_8"><g id="minder1" text-rendering="geometricPrecision"><g id="minder_connect_group1"><path id="kity_path_31" fill="none" stroke="rgb(115, 161, 191)" stroke-width="1" d="M101.49998926371336,1609.500002719462A300,1371,0,0,1,401.49998926371336,238.50000271946192"></path><path id="kity_path_65" fill="none" stroke="rgb(115, 161, 191)" stroke-width="1" d="M101.49998926371336,1609.500002719462A688,45,0,0,0,789.4999892637134,1654.500002719462"></path><path id="kity_path_143" fill="none" stroke="rgb(115, 161, 191)" stroke-width="1" d="M101.49998926371336,1609.500002719462A98,1138,0,0,0,199.49998926371336,2747.500002719462"></path><path id="kity_path_145" fill="none" stroke="rgb(115, 161, 191)" stroke-width="1" d="M101.49998926371336,1609.500002719462A135,913,0,0,0,236.49998926371336,2522.500002719462"></path><path id="kity_path_528" fill="none" stroke="rgb(115, 161, 191)" stroke-width="1" d="M379.49998926371336,2522.500002719462C394.99998926371336,2522.500002719462,394.99998926371336,2458.500002719462,410.49998926371336,2458.500002719462L478.49998926371336,2458.500002719462"></path><path id="kity_path_529" fill="none" stroke="rgb(115, 161, 191)" stroke-width="1" d="M379.49998926371336,2522.500002719462C396.49998926371336,2522.500002719462,396.49998926371336,2534.500002719462,413.49998926371336,2534.500002719462L496.49998926371336,2534.500002719462"></path><path id="kity_path_530" fill="none" stroke="rgb(115, 161, 191)" stroke-width="1" d="M379.49998926371336,2522.500002719462C391.99998926371336,2522.500002719462,391.99998926371336,2589.500002719462,404.49998926371336,2589.500002719462L539.4999892637134,2589.500002719462"></path><path id="kity_path_642" fill="none" stroke="rgb(115, 161, 191)" stroke-width="1" d="M524.4999892637134,238.50000271946192C539.4999892637134,238.50000271946192,539.4999892637134,44.50000271946192,554.4999892637134,44.50000271946192L642.4999892637134,44.50000271946192"></path><path id="kity_path_643" fill="none" stroke="rgb(115, 161, 191)" stroke-width="1" d="M679.4999892637134,148.50000271946192C694.4999892637134,148.50000271946192,694.4999892637134,96.50000271946192,709.4999892637134,96.50000271946192L799.4999892637134,96.50000271946192"></path><path id="kity_path_644" fill="none" stroke="rgb(115, 161, 191)" stroke-width="1" d="M679.4999892637134,148.50000271946192C694.4999892637134,148.50000271946192,694.4999892637134,148.50000271946192,709.4999892637134,148.50000271946192L798.4999892637134,148.50000271946192"></path><path id="kity_path_645" fill="none" stroke="rgb(115, 161, 191)" stroke-width="1" d="M679.4999892637134,148.50000271946192C694.4999892637134,148.50000271946192,694.4999892637134,200.50000271946192,709.4999892637134,200.50000271946192L877.4999892637134,200.50000271946192"></path><path id="kity_path_646" fill="none" stroke="rgb(115, 161, 191)" stroke-width="1" d="M524.4999892637134,238.50000271946192C539.4999892637134,238.50000271946192,539.4999892637134,148.50000271946192,554.4999892637134,148.50000271946192L679.4999892637134,148.50000271946192"></path><path id="kity_path_647" fill="none" stroke="rgb(115, 161, 191)" stroke-width="1" d="M704.4999892637134,252.50000271946192C719.4999892637134,252.50000271946192,719.4999892637134,252.50000271946192,734.4999892637134,252.50000271946192L814.4999892637134,252.50000271946192"></path><path id="kity_path_648" fill="none" stroke="rgb(115, 161, 191)" stroke-width="1" d="M524.4999892637134,238.50000271946192C539.4999892637134,238.50000271946192,539.4999892637134,252.50000271946192,554.4999892637134,252.50000271946192L704.4999892637134,252.50000271946192"></path><path id="kity_path_649" fill="none" stroke="rgb(115, 161, 191)" stroke-width="1" d="M657.4999892637134,304.5000027194619C672.4999892637134,304.5000027194619,672.4999892637134,304.5000027194619,687.4999892637134,304.5000027194619L751.4999892637134,304.5000027194619"></path><path id="kity_path_650" fill="none" stroke="rgb(115, 161, 191)" stroke-width="1" d="M524.4999892637134,238.50000271946192C539.4999892637134,238.50000271946192,539.4999892637134,304.5000027194619,554.4999892637134,304.5000027194619L657.4999892637134,304.5000027194619"></path><path id="kity_path_651" fill="none" stroke="rgb(115, 161, 191)" stroke-width="1" d="M658.4999892637134,460.5000027194619C673.4999892637134,460.5000027194619,673.4999892637134,356.5000027194619,688.4999892637134,356.5000027194619L743.4999892637134,356.5000027194619"></path><path id="kity_path_652" fill="none" stroke="rgb(115, 161, 191)" stroke-width="1" d="M739.4999892637134,460.5000027194619C754.4999892637134,460.5000027194619,754.4999892637134,408.5000027194619,769.4999892637134,408.5000027194619L832.4999892637134,408.5000027194619"></path><path id="kity_path_653" fill="none" stroke="rgb(115, 161, 191)" stroke-width="1" d="M739.4999892637134,460.5000027194619C754.4999892637134,460.5000027194619,754.4999892637134,460.5000027194619,769.4999892637134,460.5000027194619L844.4999892637134,460.5000027194619"></path><path id="kity_path_654" fill="none" stroke="rgb(115, 161, 191)" stroke-width="1" d="M739.4999892637134,460.5000027194619C754.4999892637134,460.5000027194619,754.4999892637134,512.5000027194619,769.4999892637134,512.5000027194619L840.4999892637134,512.5000027194619"></path><path id="kity_path_655" fill="none" stroke="rgb(115, 161, 191)" stroke-width="1" d="M658.4999892637134,460.5000027194619C673.4999892637134,460.5000027194619,673.4999892637134,460.5000027194619,688.4999892637134,460.5000027194619L739.4999892637134,460.5000027194619"></path><path id="kity_path_656" fill="none" stroke="rgb(115, 161, 191)" stroke-width="1" d="M658.4999892637134,460.5000027194619C673.4999892637134,460.5000027194619,673.4999892637134,564.5000027194619,688.4999892637134,564.5000027194619L732.4999892637134,564.5000027194619"></path><path id="kity_path_657" fill="none" stroke="rgb(115, 161, 191)" stroke-width="1" d="M524.4999892637134,238.50000271946192C539.4999892637134,238.50000271946192,539.4999892637134,460.5000027194619,554.4999892637134,460.5000027194619L658.4999892637134,460.5000027194619"></path><path id="kity_path_761" fill="none" stroke="rgb(115, 161, 191)" stroke-width="1" d="M1653.4999892637134,874.5000027194619C1668.4999892637134,874.5000027194619,1668.4999892637134,835.5000027194619,1683.4999892637134,835.5000027194619L1751.4999892637134,835.5000027194619"></path><path id="kity_path_762" fill="none" stroke="rgb(115, 161, 191)" stroke-width="1" d="M1794.4999892637134,913.5000027194619C1809.4999892637134,913.5000027194619,1809.4999892637134,887.5000027194619,1824.4999892637134,887.5000027194619L1882.4999892637134,887.5000027194619"></path><path id="kity_path_763" fill="none" stroke="rgb(115, 161, 191)" stroke-width="1" d="M1794.4999892637134,913.5000027194619C1809.4999892637134,913.5000027194619,1809.4999892637134,939.5000027194619,1824.4999892637134,939.5000027194619L1904.4999892637134,939.5000027194619"></path><path id="kity_path_764" fill="none" stroke="rgb(115, 161, 191)" stroke-width="1" d="M1653.4999892637134,874.5000027194619C1668.4999892637134,874.5000027194619,1668.4999892637134,913.5000027194619,1683.4999892637134,913.5000027194619L1794.4999892637134,913.5000027194619"></path><path id="kity_path_765" fill="none" stroke="rgb(115, 161, 191)" stroke-width="1" d="M1579.4999892637134,958.5000027194619C1594.4999892637134,958.5000027194619,1594.4999892637134,874.5000027194619,1609.4999892637134,874.5000027194619L1653.4999892637134,874.5000027194619"></path><path id="kity_path_766" fill="none" stroke="rgb(115, 161, 191)" stroke-width="1" d="M1653.4999892637134,1043.500002719462C1668.4999892637134,1043.500002719462,1668.4999892637134,991.5000027194619,1683.4999892637134,991.5000027194619L1784.4999892637134,991.5000027194619"></path><path id="kity_path_767" fill="none" stroke="rgb(115, 161, 191)" stroke-width="1" d="M1653.4999892637134,1043.500002719462C1668.4999892637134,1043.500002719462,1668.4999892637134,1043.500002719462,1683.4999892637134,1043.500002719462L1768.4999892637134,1043.500002719462"></path><path id="kity_path_768" fill="none" stroke="rgb(115, 161, 191)" stroke-width="1" d="M1653.4999892637134,1043.500002719462C1668.4999892637134,1043.500002719462,1668.4999892637134,1095.500002719462,1683.4999892637134,1095.500002719462L1888.4999892637134,1095.500002719462"></path><path id="kity_path_769" fill="none" stroke="rgb(115, 161, 191)" stroke-width="1" d="M1579.4999892637134,958.5000027194619C1594.4999892637134,958.5000027194619,1594.4999892637134,1043.500002719462,1609.4999892637134,1043.500002719462L1653.4999892637134,1043.500002719462"></path><path id="kity_path_770" fill="none" stroke="rgb(115, 161, 191)" stroke-width="1" d="M1021.4999892637134,1654.500002719462C1220.9999892637134,1654.500002719462,1220.9999892637134,958.5000027194619,1420.4999892637134,958.5000027194619L1579.4999892637134,958.5000027194619"></path><path id="kity_path_771" fill="none" stroke="rgb(115, 161, 191)" stroke-width="1" d="M1602.4999892637134,1400.500002719462C1617.4999892637134,1400.500002719462,1617.4999892637134,1256.500002719462,1632.4999892637134,1256.500002719462L1790.4999892637134,1256.500002719462"></path><path id="kity_path_772" fill="none" stroke="rgb(115, 161, 191)" stroke-width="1" d="M1602.4999892637134,1400.500002719462C1617.4999892637134,1400.500002719462,1617.4999892637134,1308.500002719462,1632.4999892637134,1308.500002719462L1745.4999892637134,1308.500002719462"></path><path id="kity_path_773" fill="none" stroke="rgb(115, 161, 191)" stroke-width="1" d="M1734.4999892637134,1369.500002719462C1749.4999892637134,1369.500002719462,1749.4999892637134,1378.500002719462,1764.4999892637134,1378.500002719462L2082.4999892637134,1378.500002719462"></path><path id="kity_path_774" fill="none" stroke="rgb(115, 161, 191)" stroke-width="1" d="M1602.4999892637134,1400.500002719462C1617.4999892637134,1400.500002719462,1617.4999892637134,1369.500002719462,1632.4999892637134,1369.500002719462L1734.4999892637134,1369.500002719462"></path><path id="kity_path_775" fill="none" stroke="rgb(115, 161, 191)" stroke-width="1" d="M1737.4999892637134,1448.500002719462C1752.4999892637134,1448.500002719462,1752.4999892637134,1466.500002719462,1767.4999892637134,1466.500002719462L2085.4999892637134,1466.500002719462"></path><path id="kity_path_776" fill="none" stroke="rgb(115, 161, 191)" stroke-width="1" d="M1602.4999892637134,1400.500002719462C1617.4999892637134,1400.500002719462,1617.4999892637134,1448.500002719462,1632.4999892637134,1448.500002719462L1737.4999892637134,1448.500002719462"></path><path id="kity_path_777" fill="none" stroke="rgb(115, 161, 191)" stroke-width="1" d="M1859.4999892637134,1544.500002719462C1874.4999892637134,1544.500002719462,1874.4999892637134,1518.500002719462,1889.4999892637134,1518.500002719462L1969.4999892637134,1518.500002719462"></path><path id="kity_path_778" fill="none" stroke="rgb(115, 161, 191)" stroke-width="1" d="M1859.4999892637134,1544.500002719462C1874.4999892637134,1544.500002719462,1874.4999892637134,1570.500002719462,1889.4999892637134,1570.500002719462L1969.4999892637134,1570.500002719462"></path><path id="kity_path_779" fill="none" stroke="rgb(115, 161, 191)" stroke-width="1" d="M1602.4999892637134,1400.500002719462C1617.4999892637134,1400.500002719462,1617.4999892637134,1544.500002719462,1632.4999892637134,1544.500002719462L1859.4999892637134,1544.500002719462"></path><path id="kity_path_780" fill="none" stroke="rgb(115, 161, 191)" stroke-width="1" d="M1021.4999892637134,1654.500002719462C1260.4999892637134,1654.500002719462,1260.4999892637134,1400.500002719462,1499.4999892637134,1400.500002719462L1602.4999892637134,1400.500002719462"></path><path id="kity_path_781" fill="none" stroke="rgb(115, 161, 191)" stroke-width="1" d="M1345.4999892637134,1715.500002719462C1356.4999892637134,1715.500002719462,1356.4999892637134,1657.500002719462,1367.4999892637134,1657.500002719462L1610.4999892637134,1657.500002719462"></path><path id="kity_path_782" fill="none" stroke="rgb(115, 161, 191)" stroke-width="1" d="M1345.4999892637134,1715.500002719462C1360.4999892637134,1715.500002719462,1360.4999892637134,1733.500002719462,1375.4999892637134,1733.500002719462L1545.4999892637134,1733.500002719462"></path><path id="kity_path_783" fill="none" stroke="rgb(115, 161, 191)" stroke-width="1" d="M1345.4999892637134,1715.500002719462C1360.4999892637134,1715.500002719462,1360.4999892637134,1785.500002719462,1375.4999892637134,1785.500002719462L1455.4999892637134,1785.500002719462"></path><path id="kity_path_784" fill="none" stroke="rgb(115, 161, 191)" stroke-width="1" d="M1188.4999892637134,1938.500002719462C1203.4999892637134,1938.500002719462,1203.4999892637134,1715.500002719462,1218.4999892637134,1715.500002719462L1345.4999892637134,1715.500002719462"></path><path id="kity_path_785" fill="none" stroke="rgb(115, 161, 191)" stroke-width="1" d="M1432.4999892637134,2232.500002719462C1447.4999892637134,2232.500002719462,1447.4999892637134,2206.500002719462,1462.4999892637134,2206.500002719462L1752.4999892637134,2206.500002719462"></path><path id="kity_path_786" fill="none" stroke="rgb(115, 161, 191)" stroke-width="1" d="M1432.4999892637134,2232.500002719462C1447.4999892637134,2232.500002719462,1447.4999892637134,2258.500002719462,1462.4999892637134,2258.500002719462L1553.4999892637134,2258.500002719462"></path><path id="kity_path_787" fill="none" stroke="rgb(115, 161, 191)" stroke-width="1" d="M1188.4999892637134,1938.500002719462C1230.9999892637134,1938.500002719462,1230.9999892637134,2232.500002719462,1273.4999892637134,2232.500002719462L1432.4999892637134,2232.500002719462"></path><path id="kity_path_788" fill="none" stroke="rgb(115, 161, 191)" stroke-width="1" d="M1188.4999892637134,1938.500002719462C1215.4999892637134,1938.500002719462,1215.4999892637134,2320.500002719462,1242.4999892637134,2320.500002719462L1389.4999892637134,2320.500002719462"></path><path id="kity_path_789" fill="none" stroke="rgb(115, 161, 191)" stroke-width="1" d="M1362.4999892637134,1901.500002719462C1377.4999892637134,1901.500002719462,1377.4999892637134,1946.500002719462,1392.4999892637134,1946.500002719462L1505.4999892637134,1946.500002719462"></path><path id="kity_path_790" fill="none" stroke="rgb(115, 161, 191)" stroke-width="1" d="M1188.4999892637134,1938.500002719462C1223.4999892637134,1938.500002719462,1223.4999892637134,1901.500002719462,1258.4999892637134,1901.500002719462L1362.4999892637134,1901.500002719462"></path><path id="kity_path_791" fill="none" stroke="rgb(115, 161, 191)" stroke-width="1" d="M1566.4999892637134,2085.500002719462C1581.4999892637134,2085.500002719462,1581.4999892637134,2059.500002719462,1596.4999892637134,2059.500002719462L1676.4999892637134,2059.500002719462"></path><path id="kity_path_792" fill="none" stroke="rgb(115, 161, 191)" stroke-width="1" d="M1566.4999892637134,2085.500002719462C1581.4999892637134,2085.500002719462,1581.4999892637134,2111.500002719462,1596.4999892637134,2111.500002719462L1755.4999892637134,2111.500002719462"></path><path id="kity_path_793" fill="none" stroke="rgb(115, 161, 191)" stroke-width="1" d="M1188.4999892637134,1938.500002719462C1219.9999892637134,1938.500002719462,1219.9999892637134,2085.500002719462,1251.4999892637134,2085.500002719462L1566.4999892637134,2085.500002719462"></path><path id="kity_path_794" fill="none" stroke="rgb(115, 161, 191)" stroke-width="1" d="M1021.4999892637134,1654.500002719462C1065.4999892637134,1654.500002719462,1065.4999892637134,1938.500002719462,1109.4999892637134,1938.500002719462L1188.4999892637134,1938.500002719462"></path><path id="kity_path_805" fill="none" stroke="rgb(115, 161, 191)" stroke-width="1" d="M1021.4999892637134,1654.500002719462C1227.9999892637134,1654.500002719462,1227.9999892637134,446.5000027194619,1434.4999892637134,446.5000027194619L1481.4999892637134,446.5000027194619"></path><path id="kity_path_822" fill="none" stroke="rgb(115, 161, 191)" stroke-width="1" d="M1611.4999892637134,196.50000271946192C1626.4999892637134,196.50000271946192,1626.4999892637134,144.50000271946192,1641.4999892637134,144.50000271946192L1721.4999892637134,144.50000271946192"></path><path id="kity_path_823" fill="none" stroke="rgb(115, 161, 191)" stroke-width="1" d="M1611.4999892637134,196.50000271946192C1626.4999892637134,196.50000271946192,1626.4999892637134,196.50000271946192,1641.4999892637134,196.50000271946192L1720.4999892637134,196.50000271946192"></path><path id="kity_path_824" fill="none" stroke="rgb(115, 161, 191)" stroke-width="1" d="M1611.4999892637134,196.50000271946192C1626.4999892637134,196.50000271946192,1626.4999892637134,248.50000271946192,1641.4999892637134,248.50000271946192L1721.4999892637134,248.50000271946192"></path><path id="kity_path_825" fill="none" stroke="rgb(115, 161, 191)" stroke-width="1" d="M1481.4999892637134,446.5000027194619C1496.4999892637134,446.5000027194619,1496.4999892637134,196.50000271946192,1511.4999892637134,196.50000271946192L1611.4999892637134,196.50000271946192"></path><path id="kity_path_833" fill="none" stroke="rgb(115, 161, 191)" stroke-width="1" d="M1481.4999892637134,446.5000027194619C1512.4999892637134,446.5000027194619,1512.4999892637134,441.5000027194619,1543.4999892637134,441.5000027194619L1703.4999892637134,441.5000027194619"></path><path id="kity_path_835" fill="none" stroke="rgb(115, 161, 191)" stroke-width="1" d="M1481.4999892637134,446.5000027194619C1497.4999892637134,446.5000027194619,1497.4999892637134,710.5000027194619,1513.4999892637134,710.5000027194619L1804.4999892637134,710.5000027194619"></path><path id="kity_path_858" fill="none" stroke="rgb(115, 161, 191)" stroke-width="1" d="M1903.4999892637134,333.5000027194619C1918.4999892637134,333.5000027194619,1918.4999892637134,281.5000027194619,1933.4999892637134,281.5000027194619L2180.4999892637134,281.5000027194619"></path><path id="kity_path_859" fill="none" stroke="rgb(115, 161, 191)" stroke-width="1" d="M1903.4999892637134,333.5000027194619C1918.4999892637134,333.5000027194619,1918.4999892637134,333.5000027194619,1933.4999892637134,333.5000027194619L2181.4999892637134,333.5000027194619"></path><path id="kity_path_860" fill="none" stroke="rgb(115, 161, 191)" stroke-width="1" d="M1903.4999892637134,333.5000027194619C1918.4999892637134,333.5000027194619,1918.4999892637134,385.5000027194619,1933.4999892637134,385.5000027194619L2549.4999892637134,385.5000027194619"></path><path id="kity_path_861" fill="none" stroke="rgb(115, 161, 191)" stroke-width="1" d="M1703.4999892637134,441.5000027194619C1718.4999892637134,441.5000027194619,1718.4999892637134,333.5000027194619,1733.4999892637134,333.5000027194619L1903.4999892637134,333.5000027194619"></path><path id="kity_path_862" fill="none" stroke="rgb(115, 161, 191)" stroke-width="1" d="M1818.4999892637134,437.5000027194619C1833.4999892637134,437.5000027194619,1833.4999892637134,437.5000027194619,1848.4999892637134,437.5000027194619L2374.4999892637134,437.5000027194619"></path><path id="kity_path_863" fill="none" stroke="rgb(115, 161, 191)" stroke-width="1" d="M1703.4999892637134,441.5000027194619C1718.4999892637134,441.5000027194619,1718.4999892637134,437.5000027194619,1733.4999892637134,437.5000027194619L1818.4999892637134,437.5000027194619"></path><path id="kity_path_864" fill="none" stroke="rgb(115, 161, 191)" stroke-width="1" d="M1703.4999892637134,441.5000027194619C1718.4999892637134,441.5000027194619,1718.4999892637134,489.5000027194619,1733.4999892637134,489.5000027194619L2028.4999892637134,489.5000027194619"></path><path id="kity_path_866" fill="none" stroke="rgb(115, 161, 191)" stroke-width="1" d="M1703.4999892637134,441.5000027194619C1718.4999892637134,441.5000027194619,1718.4999892637134,550.5000027194619,1733.4999892637134,550.5000027194619L1834.4999892637134,550.5000027194619"></path><path id="kity_path_874" fill="none" stroke="rgb(115, 161, 191)" stroke-width="1" d="M1834.4999892637134,550.5000027194619C1849.4999892637134,550.5000027194619,1849.4999892637134,559.5000027194619,1864.4999892637134,559.5000027194619L2177.4999892637134,559.5000027194619"></path><path id="kity_path_882" fill="none" stroke="rgb(115, 161, 191)" stroke-width="1" d="M1804.4999892637134,710.5000027194619C1819.4999892637134,710.5000027194619,1819.4999892637134,662.5000027194619,1834.4999892637134,662.5000027194619L1901.4999892637134,662.5000027194619"></path><path id="kity_path_883" fill="none" stroke="rgb(115, 161, 191)" stroke-width="1" d="M1804.4999892637134,710.5000027194619C1819.4999892637134,710.5000027194619,1819.4999892637134,758.5000027194619,1834.4999892637134,758.5000027194619L1914.4999892637134,758.5000027194619"></path><path id="kity_path_885" fill="none" stroke="rgb(115, 161, 191)" stroke-width="1" d="M1914.4999892637134,758.5000027194619C1929.4999892637134,758.5000027194619,1929.4999892637134,732.5000027194619,1944.4999892637134,732.5000027194619L2004.4999892637134,732.5000027194619"></path><path id="kity_path_893" fill="none" stroke="rgb(115, 161, 191)" stroke-width="1" d="M1914.4999892637134,758.5000027194619C1929.4999892637134,758.5000027194619,1929.4999892637134,784.5000027194619,1944.4999892637134,784.5000027194619L2006.4999892637134,784.5000027194619"></path><path id="kity_path_901" fill="none" stroke="rgb(115, 161, 191)" stroke-width="1" d="M1901.4999892637134,662.5000027194619C1916.4999892637134,662.5000027194619,1916.4999892637134,680.5000027194619,1931.4999892637134,680.5000027194619L2023.4999892637134,680.5000027194619"></path></g><g id="minder_node1"><path id="node_outline1" fill="rgb(115, 161, 191)" stroke="rgb(115, 161, 191)" d="M25.49998926371336,1589.500002719462h152a5,5,0,0,1,5,5v30a5,5,0,0,1,-5,5h-152a5,5,0,0,1,-5,-5v-30a5,5,0,0,1,5,-5z" stroke-width="3"></path><g id="node_text1" fill="white"><text id="kity_text_22" text-rendering="inherit" font-size="16" dy=".8em" y="1599.1000026836991" x="44.49998926371336">JVM总体知识点</text></g></g><g id="kity_g_14" display="none"><path id="kity_path_15" fill="rgba(0, 92, 153, 0.5)" stroke="none" d="M653.4999892637134,1124.500002719462h37v15h-37z"></path><path id="kity_path_16" fill="none" stroke="rgb(0, 76, 128)" d="M653.4999892637134,1139.500002719462L690.4999892637134,1139.500002719462" stroke-width="1"></path></g><g id="minder_node2" opacity="1"><g id="node_expander17" style="cursor: pointer;"><path id="kity_path_394" fill="white" stroke="gray" d="M402.4999945089221,238.49998228996992A6,6,0,1,1,390.4999945089221,238.49998228996992A6,6,0,1,1,402.4999945089221,238.49998228996992"></path><path id="kity_path_395" fill="none" stroke="gray" d="M391.9999945089221,238.49998228996992L400.9999945089221,238.49998228996992"></path></g><path id="node_outline18" fill="rgb(238, 243, 246)" stroke="rgb(115, 161, 191)" d="M406.49999491125345,225.49998228996992h115a3,3,0,0,1,3,3v20a3,3,0,0,1,-3,3h-115a3,3,0,0,1,-3,-3v-20a3,3,0,0,1,3,-3z" stroke-width="1"></path><g id="node_text18" fill="black"><text id="kity_text_185" text-rendering="inherit" font-size="14" dy=".8em" y="229.39998225867748" x="423.49999491125345">ClassLoader</text></g></g><g id="minder_node19" opacity="1"><g id="node_expander56" style="cursor: pointer;"><path id="kity_path_511" fill="white" stroke="gray" d="M790.5000002905726,1654.5000033900142A6,6,0,1,1,778.5000002905726,1654.5000033900142A6,6,0,1,1,790.5000002905726,1654.5000033900142"></path><path id="kity_path_512" fill="none" stroke="gray" d="M780.0000002905726,1654.5000033900142L789.0000002905726,1654.5000033900142"></path></g><path id="node_outline57" fill="rgb(238, 243, 246)" stroke="rgb(115, 161, 191)" d="M794.500000692904,1641.5000033900142h224a3,3,0,0,1,3,3v20a3,3,0,0,1,-3,3h-224a3,3,0,0,1,-3,-3v-20a3,3,0,0,1,3,-3z" stroke-width="1"></path><g id="node_text57" fill="black"><text id="kity_text_273" text-rendering="inherit" font-size="14" dy=".8em" y="1645.4000033587217" x="811.500000692904">Runtime Area(JVM Memory)</text></g></g><g id="minder_node58" opacity="1"><g id="node_expander57" style="cursor: pointer;" display="none"><path id="kity_path_514" fill="white" stroke="gray" d="M420.499994777143,2747.5000196769834A6,6,0,1,1,408.499994777143,2747.5000196769834A6,6,0,1,1,420.499994777143,2747.5000196769834"></path><path id="kity_path_515" fill="none" stroke="gray"></path></g><path id="node_outline58" fill="rgb(238, 243, 246)" stroke="rgb(115, 161, 191)" d="M204.4999919012189,2734.5000196769834h200a3,3,0,0,1,3,3v20a3,3,0,0,1,-3,3h-200a3,3,0,0,1,-3,-3v-20a3,3,0,0,1,3,-3z" stroke-width="1"></path><g id="node_text58" fill="black"><text id="kity_text_275" text-rendering="inherit" font-size="14" dy=".8em" y="2738.400019645691" x="221.4999919012189">Native Interface/Method</text></g></g><g id="minder_node59" opacity="1"><g id="node_expander61" style="cursor: pointer;"><path id="kity_path_526" fill="white" stroke="gray" d="M392.4999943599105,2522.500016324222A6,6,0,1,1,380.4999943599105,2522.500016324222A6,6,0,1,1,392.4999943599105,2522.500016324222"></path><path id="kity_path_527" fill="none" stroke="gray" d="M381.9999943599105,2522.500016324222L390.9999943599105,2522.500016324222"></path></g><path id="node_outline62" fill="rgb(238, 243, 246)" stroke="rgb(115, 161, 191)" d="M241.49999245256186,2509.500016324222h135a3,3,0,0,1,3,3v20a3,3,0,0,1,-3,3h-135a3,3,0,0,1,-3,-3v-20a3,3,0,0,1,3,-3z" stroke-width="1"></path><g id="node_text62" fill="black"><text id="kity_text_283" text-rendering="inherit" font-size="14" dy=".8em" y="2513.4000162929296" x="258.49999245256186">Execute Engine</text></g></g><g id="minder_node60"><g id="node_expander58" style="cursor: pointer;" display="none"><path id="kity_path_517" fill="white" stroke="gray" d="M420.499994777143,2444.5000151619315A6,6,0,1,1,408.499994777143,2444.5000151619315A6,6,0,1,1,420.499994777143,2444.5000151619315"></path><path id="kity_path_518" fill="none" stroke="gray"></path></g><path id="node_outline59" fill="none" stroke="none" d="M425.4999950155616,2433.5000151619315h48a5,5,0,0,1,5,5v12a5,5,0,0,1,-5,5h-48a5,5,0,0,1,-5,-5v-12a5,5,0,0,1,5,-5z"></path><g id="node_text59" fill="black"><text id="kity_text_277" text-rendering="inherit" font-size="12" dy=".8em" y="2436.7000151351094" x="430.4999950155616">解释器</text></g></g><g id="minder_node61"><g id="node_expander59" style="cursor: pointer;" display="none"><path id="kity_path_520" fill="white" stroke="gray" d="M423.4999948218465,2520.5000162944198A6,6,0,1,1,411.4999948218465,2520.5000162944198A6,6,0,1,1,423.4999948218465,2520.5000162944198"></path><path id="kity_path_521" fill="none" stroke="gray"></path></g><path id="node_outline60" fill="none" stroke="none" d="M428.49999506026506,2509.5000162944198h63a5,5,0,0,1,5,5v12a5,5,0,0,1,-5,5h-63a5,5,0,0,1,-5,-5v-12a5,5,0,0,1,5,-5z"></path><g id="node_text60" fill="black"><text id="kity_text_279" text-rendering="inherit" font-size="12" dy=".8em" y="2512.7000162675977" x="433.49999506026506">jit 编译器</text></g></g><g id="minder_node62"><g id="node_expander60" style="cursor: pointer;" display="none"><path id="kity_path_523" fill="white" stroke="gray" d="M414.49999468773603,2575.5000171139836A6,6,0,1,1,402.49999468773603,2575.5000171139836A6,6,0,1,1,414.49999468773603,2575.5000171139836"></path><path id="kity_path_524" fill="none" stroke="gray"></path></g><path id="node_outline61" fill="none" stroke="none" d="M419.4999949261546,2564.5000171139836h115a5,5,0,0,1,5,5v12a5,5,0,0,1,-5,5h-115a5,5,0,0,1,-5,-5v-12a5,5,0,0,1,5,-5z"></path><g id="node_text61" fill="black"><text id="kity_text_281" text-rendering="inherit" font-size="12" dy=".8em" y="2567.7000170871615" x="424.4999949261546">GC 实现等其他部分</text></g></g><g id="kity_g_12" display="none"><path id="kity_path_13" fill="none" stroke="rgb(66, 94, 112)" d="M658.4999892637134,1144.500002719462h27a5,5,0,0,1,5,5v12a5,5,0,0,1,-5,5h-27a5,5,0,0,1,-5,-5v-12a5,5,0,0,1,5,-5z" stroke-width="5"></path></g><g id="minder_node3"><g id="node_expander1" style="cursor: pointer;" display="none"><path id="kity_path_346" fill="white" stroke="gray" d="M564.4999969229102,30.499979190528393A6,6,0,1,1,552.4999969229102,30.499979190528393A6,6,0,1,1,564.4999969229102,30.499979190528393"></path><path id="kity_path_347" fill="none" stroke="gray"></path></g><path id="node_outline2" fill="none" stroke="none" d="M569.4999971613288,19.499979190528393h68a5,5,0,0,1,5,5v12a5,5,0,0,1,-5,5h-68a5,5,0,0,1,-5,-5v-12a5,5,0,0,1,5,-5z"></path><g id="node_text2" fill="black"><text id="kity_text_153" text-rendering="inherit" font-size="12" dy=".8em" y="22.699979163706303" x="574.4999971613288">.class 文件</text></g></g><g id="minder_node5"><g id="node_expander2" style="cursor: pointer;" display="none"><path id="kity_path_349" fill="white" stroke="gray" d="M719.4999992325902,82.49997996538877A6,6,0,1,1,707.4999992325902,82.49997996538877A6,6,0,1,1,719.4999992325902,82.49997996538877"></path><path id="kity_path_350" fill="none" stroke="gray"></path></g><path id="node_outline3" fill="none" stroke="none" d="M724.4999994710088,71.49997996538877h70a5,5,0,0,1,5,5v12a5,5,0,0,1,-5,5h-70a5,5,0,0,1,-5,-5v-12a5,5,0,0,1,5,-5z"></path><g id="node_text3" fill="black"><text id="kity_text_155" text-rendering="inherit" font-size="12" dy=".8em" y="74.69997993856668" x="729.4999994710088">Bootstarp&#xa0;</text></g></g><g id="minder_node6"><g id="node_expander3" style="cursor: pointer;" display="none"><path id="kity_path_352" fill="white" stroke="gray" d="M719.4999992325902,134.49998074024916A6,6,0,1,1,707.4999992325902,134.49998074024916A6,6,0,1,1,719.4999992325902,134.49998074024916"></path><path id="kity_path_353" fill="none" stroke="gray"></path></g><path id="node_outline4" fill="none" stroke="none" d="M724.4999994710088,123.49998074024916h69a5,5,0,0,1,5,5v12a5,5,0,0,1,-5,5h-69a5,5,0,0,1,-5,-5v-12a5,5,0,0,1,5,-5z"></path><g id="node_text4" fill="black"><text id="kity_text_157" text-rendering="inherit" font-size="12" dy=".8em" y="126.69998071342707" x="729.4999994710088">Extension&#xa0;</text></g></g><g id="minder_node7"><g id="node_expander4" style="cursor: pointer;" display="none"><path id="kity_path_355" fill="white" stroke="gray" d="M719.4999992325902,186.49998151510954A6,6,0,1,1,707.4999992325902,186.49998151510954A6,6,0,1,1,719.4999992325902,186.49998151510954"></path><path id="kity_path_356" fill="none" stroke="gray"></path></g><path id="node_outline5" fill="none" stroke="none" d="M724.4999994710088,175.49998151510954h148a5,5,0,0,1,5,5v12a5,5,0,0,1,-5,5h-148a5,5,0,0,1,-5,-5v-12a5,5,0,0,1,5,-5z"></path><g id="node_text5" fill="black"><text id="kity_text_159" text-rendering="inherit" font-size="12" dy=".8em" y="178.69998148828745" x="729.4999994710088">Application ClassLoader</text></g></g><g id="minder_node4"><g id="node_expander5" style="cursor: pointer;"><path id="kity_path_358" fill="white" stroke="gray" d="M564.4999969229102,134.49998074024916A6,6,0,1,1,552.4999969229102,134.49998074024916A6,6,0,1,1,564.4999969229102,134.49998074024916"></path><path id="kity_path_359" fill="none" stroke="gray" d="M553.9999969229102,134.49998074024916L562.9999969229102,134.49998074024916"></path></g><path id="node_outline6" fill="none" stroke="none" d="M569.4999971613288,123.49998074024916h105a5,5,0,0,1,5,5v12a5,5,0,0,1,-5,5h-105a5,5,0,0,1,-5,-5v-12a5,5,0,0,1,5,-5z"></path><g id="node_text6" fill="black"><text id="kity_text_161" text-rendering="inherit" font-size="12" dy=".8em" y="126.69998071342707" x="574.4999971613288">classLoader 类型</text></g></g><g id="minder_node9"><g id="node_expander6" style="cursor: pointer;" display="none"><path id="kity_path_361" fill="white" stroke="gray" d="M744.4999996051192,238.49998228996992A6,6,0,1,1,732.4999996051192,238.49998228996992A6,6,0,1,1,744.4999996051192,238.49998228996992"></path><path id="kity_path_362" fill="none" stroke="gray"></path></g><path id="node_outline7" fill="none" stroke="none" d="M749.4999998435378,227.49998228996992h60a5,5,0,0,1,5,5v12a5,5,0,0,1,-5,5h-60a5,5,0,0,1,-5,-5v-12a5,5,0,0,1,5,-5z"></path><g id="node_text7" fill="black"><text id="kity_text_163" text-rendering="inherit" font-size="12" dy=".8em" y="230.69998226314783" x="754.4999998435378">双亲委派</text></g></g><g id="minder_node8"><g id="node_expander7" style="cursor: pointer;"><path id="kity_path_364" fill="white" stroke="gray" d="M564.4999969229102,238.49998228996992A6,6,0,1,1,552.4999969229102,238.49998228996992A6,6,0,1,1,564.4999969229102,238.49998228996992"></path><path id="kity_path_365" fill="none" stroke="gray" d="M553.9999969229102,238.49998228996992L562.9999969229102,238.49998228996992"></path></g><path id="node_outline8" fill="none" stroke="none" d="M569.4999971613288,227.49998228996992h130a5,5,0,0,1,5,5v12a5,5,0,0,1,-5,5h-130a5,5,0,0,1,-5,-5v-12a5,5,0,0,1,5,-5z" stroke-width="3"></path><g id="node_text8" fill="black"><text id="kity_text_165" text-rendering="inherit" font-size="12" dy=".8em" y="230.69998226314783" x="574.4999971613288">ClassLoader 加载顺序</text></g></g><g id="minder_node11"><g id="node_expander8" style="cursor: pointer;" display="none"><path id="kity_path_367" fill="white" stroke="gray" d="M697.4999989047647,290.4999830648303A6,6,0,1,1,685.4999989047647,290.4999830648303A6,6,0,1,1,697.4999989047647,290.4999830648303"></path><path id="kity_path_368" fill="none" stroke="gray"></path></g><path id="node_outline9" fill="none" stroke="none" d="M702.4999991431832,279.4999830648303h44a5,5,0,0,1,5,5v12a5,5,0,0,1,-5,5h-44a5,5,0,0,1,-5,-5v-12a5,5,0,0,1,5,-5z"></path><g id="node_text9" fill="black"><text id="kity_text_167" text-rendering="inherit" font-size="12" dy=".8em" y="282.6999830380082" x="707.4999991431832">SPI 等</text></g></g><g id="minder_node10"><g id="node_expander9" style="cursor: pointer;"><path id="kity_path_370" fill="white" stroke="gray" d="M564.4999969229102,290.4999830648303A6,6,0,1,1,552.4999969229102,290.4999830648303A6,6,0,1,1,564.4999969229102,290.4999830648303"></path><path id="kity_path_371" fill="none" stroke="gray" d="M553.9999969229102,290.4999830648303L562.9999969229102,290.4999830648303"></path></g><path id="node_outline10" fill="none" stroke="none" d="M569.4999971613288,279.4999830648303h83a5,5,0,0,1,5,5v12a5,5,0,0,1,-5,5h-83a5,5,0,0,1,-5,-5v-12a5,5,0,0,1,5,-5z" stroke-width="3"></path><g id="node_text10" fill="black"><text id="kity_text_169" text-rendering="inherit" font-size="12" dy=".8em" y="282.6999830380082" x="574.4999971613288">自定义加载器</text></g></g><g id="minder_node13"><g id="node_expander10" style="cursor: pointer;" display="none"><path id="kity_path_373" fill="white" stroke="gray" d="M698.4999989196658,342.4999838396907A6,6,0,1,1,686.4999989196658,342.4999838396907A6,6,0,1,1,698.4999989196658,342.4999838396907"></path><path id="kity_path_374" fill="none" stroke="gray"></path></g><path id="node_outline11" fill="none" stroke="none" d="M703.4999991580844,331.4999838396907h35a5,5,0,0,1,5,5v12a5,5,0,0,1,-5,5h-35a5,5,0,0,1,-5,-5v-12a5,5,0,0,1,5,-5z"></path><g id="node_text11" fill="black"><text id="kity_text_171" text-rendering="inherit" font-size="12" dy=".8em" y="334.6999838128686" x="708.4999991580844">load</text></g></g><g id="minder_node15"><g id="node_expander11" style="cursor: pointer;" display="none"><path id="kity_path_376" fill="white" stroke="gray" d="M779.5000001266599,394.49998461455107A6,6,0,1,1,767.5000001266599,394.49998461455107A6,6,0,1,1,779.5000001266599,394.49998461455107"></path><path id="kity_path_377" fill="none" stroke="gray"></path></g><path id="node_outline12" fill="none" stroke="none" d="M784.5000003650784,383.49998461455107h43a5,5,0,0,1,5,5v12a5,5,0,0,1,-5,5h-43a5,5,0,0,1,-5,-5v-12a5,5,0,0,1,5,-5z"></path><g id="node_text12" fill="black"><text id="kity_text_173" text-rendering="inherit" font-size="12" dy=".8em" y="386.699984587729" x="789.5000003650784">verify</text></g></g><g id="minder_node16"><g id="node_expander12" style="cursor: pointer;" display="none"><path id="kity_path_379" fill="white" stroke="gray" d="M779.5000001266599,446.49998538941145A6,6,0,1,1,767.5000001266599,446.49998538941145A6,6,0,1,1,779.5000001266599,446.49998538941145"></path><path id="kity_path_380" fill="none" stroke="gray"></path></g><path id="node_outline13" fill="none" stroke="none" d="M784.5000003650784,435.49998538941145h55a5,5,0,0,1,5,5v12a5,5,0,0,1,-5,5h-55a5,5,0,0,1,-5,-5v-12a5,5,0,0,1,5,-5z"></path><g id="node_text13" fill="black"><text id="kity_text_175" text-rendering="inherit" font-size="12" dy=".8em" y="438.69998536258936" x="789.5000003650784">prepare</text></g></g><g id="minder_node17"><g id="node_expander13" style="cursor: pointer;" display="none"><path id="kity_path_382" fill="white" stroke="gray" d="M779.5000001266599,498.49998616427183A6,6,0,1,1,767.5000001266599,498.49998616427183A6,6,0,1,1,779.5000001266599,498.49998616427183"></path><path id="kity_path_383" fill="none" stroke="gray"></path></g><path id="node_outline14" fill="none" stroke="none" d="M784.5000003650784,487.49998616427183h51a5,5,0,0,1,5,5v12a5,5,0,0,1,-5,5h-51a5,5,0,0,1,-5,-5v-12a5,5,0,0,1,5,-5z"></path><g id="node_text14" fill="black"><text id="kity_text_177" text-rendering="inherit" font-size="12" dy=".8em" y="490.69998613744974" x="789.5000003650784">resolve</text></g></g><g id="minder_node14"><g id="node_expander14" style="cursor: pointer;"><path id="kity_path_385" fill="white" stroke="gray" d="M698.4999989196658,446.49998538941145A6,6,0,1,1,686.4999989196658,446.49998538941145A6,6,0,1,1,698.4999989196658,446.49998538941145"></path><path id="kity_path_386" fill="none" stroke="gray" d="M687.9999989196658,446.49998538941145L696.9999989196658,446.49998538941145"></path></g><path id="node_outline15" fill="none" stroke="none" d="M703.4999991580844,435.49998538941145h31a5,5,0,0,1,5,5v12a5,5,0,0,1,-5,5h-31a5,5,0,0,1,-5,-5v-12a5,5,0,0,1,5,-5z"></path><g id="node_text15" fill="black"><text id="kity_text_179" text-rendering="inherit" font-size="12" dy=".8em" y="438.69998536258936" x="708.4999991580844">link</text></g></g><g id="minder_node18"><g id="node_expander15" style="cursor: pointer;" display="none"><path id="kity_path_388" fill="white" stroke="gray" d="M698.4999989196658,550.4999869391322A6,6,0,1,1,686.4999989196658,550.4999869391322A6,6,0,1,1,698.4999989196658,550.4999869391322"></path><path id="kity_path_389" fill="none" stroke="gray"></path></g><path id="node_outline16" fill="none" stroke="none" d="M703.4999991580844,539.4999869391322h24a5,5,0,0,1,5,5v12a5,5,0,0,1,-5,5h-24a5,5,0,0,1,-5,-5v-12a5,5,0,0,1,5,-5z"></path><g id="node_text16" fill="black"><text id="kity_text_181" text-rendering="inherit" font-size="12" dy=".8em" y="542.6999869123101" x="708.4999991580844">ini</text></g></g><g id="minder_node12"><g id="node_expander16" style="cursor: pointer;"><path id="kity_path_391" fill="white" stroke="gray" d="M564.4999969229102,446.49998538941145A6,6,0,1,1,552.4999969229102,446.49998538941145A6,6,0,1,1,564.4999969229102,446.49998538941145"></path><path id="kity_path_392" fill="none" stroke="gray" d="M553.9999969229102,446.49998538941145L562.9999969229102,446.49998538941145"></path></g><path id="node_outline17" fill="none" stroke="none" d="M569.4999971613288,435.49998538941145h84a5,5,0,0,1,5,5v12a5,5,0,0,1,-5,5h-84a5,5,0,0,1,-5,-5v-12a5,5,0,0,1,5,-5z"></path><g id="node_text17" fill="black"><text id="kity_text_183" text-rendering="inherit" font-size="12" dy=".8em" y="438.69998536258936" x="574.4999971613288">类加载的过程</text></g></g><g id="minder_node26"><g id="node_expander22" style="cursor: pointer;" display="none"><path id="kity_path_409" fill="white" stroke="gray" d="M1693.5000137463212,821.4999909773469A6,6,0,1,1,1681.5000137463212,821.4999909773469A6,6,0,1,1,1693.5000137463212,821.4999909773469"></path><path id="kity_path_410" fill="none" stroke="gray"></path></g><path id="node_outline23" fill="none" stroke="none" d="M1698.5000139847398,810.4999909773469h48a5,5,0,0,1,5,5v12a5,5,0,0,1,-5,5h-48a5,5,0,0,1,-5,-5v-12a5,5,0,0,1,5,-5z" stroke-width="3"></path><g id="node_text23" fill="black"><text id="kity_text_195" text-rendering="inherit" font-size="12" dy=".8em" y="813.6999909505248" x="1703.5000139847398">老年代</text></g></g><g id="minder_node28"><g id="node_expander23" style="cursor: pointer;" display="none"><path id="kity_path_412" fill="white" stroke="gray" d="M1834.500015847385,873.4999917522073A6,6,0,1,1,1822.500015847385,873.4999917522073A6,6,0,1,1,1834.500015847385,873.4999917522073"></path><path id="kity_path_413" fill="none" stroke="gray"></path></g><path id="node_outline24" fill="none" stroke="none" d="M1839.5000160858035,862.4999917522073h38a5,5,0,0,1,5,5v12a5,5,0,0,1,-5,5h-38a5,5,0,0,1,-5,-5v-12a5,5,0,0,1,5,-5z" stroke-width="3"></path><g id="node_text24" fill="black"><text id="kity_text_197" text-rendering="inherit" font-size="12" dy=".8em" y="865.6999917253852" x="1844.5000160858035">Eden</text></g></g><g id="minder_node29"><g id="node_expander24" style="cursor: pointer;" display="none"><path id="kity_path_415" fill="white" stroke="gray" d="M1834.500015847385,925.4999925270677A6,6,0,1,1,1822.500015847385,925.4999925270677A6,6,0,1,1,1834.500015847385,925.4999925270677"></path><path id="kity_path_416" fill="none" stroke="gray"></path></g><path id="node_outline25" fill="none" stroke="none" d="M1839.5000160858035,914.4999925270677h60a5,5,0,0,1,5,5v12a5,5,0,0,1,-5,5h-60a5,5,0,0,1,-5,-5v-12a5,5,0,0,1,5,-5z"></path><g id="node_text25" fill="black"><text id="kity_text_199" text-rendering="inherit" font-size="12" dy=".8em" y="917.6999925002456" x="1844.5000160858035">survivor&#xa0;</text></g></g><g id="minder_node27"><g id="node_expander25" style="cursor: pointer;"><path id="kity_path_418" fill="white" stroke="gray" d="M1693.5000137463212,899.4999921396375A6,6,0,1,1,1681.5000137463212,899.4999921396375A6,6,0,1,1,1693.5000137463212,899.4999921396375"></path><path id="kity_path_419" fill="none" stroke="gray" d="M1683.0000137463212,899.4999921396375L1692.0000137463212,899.4999921396375"></path></g><path id="node_outline26" fill="none" stroke="none" d="M1698.5000139847398,888.4999921396375h91a5,5,0,0,1,5,5v12a5,5,0,0,1,-5,5h-91a5,5,0,0,1,-5,-5v-12a5,5,0,0,1,5,-5z"></path><g id="node_text26" fill="black"><text id="kity_text_201" text-rendering="inherit" font-size="12" dy=".8em" y="891.6999921128154" x="1703.5000139847398">新生代(Young)</text></g></g><g id="minder_node25"><g id="node_expander26" style="cursor: pointer;"><path id="kity_path_421" fill="white" stroke="gray" d="M1619.5000126436353,860.4999915584922A6,6,0,1,1,1607.5000126436353,860.4999915584922A6,6,0,1,1,1619.5000126436353,860.4999915584922"></path><path id="kity_path_422" fill="none" stroke="gray" d="M1609.0000126436353,860.4999915584922L1618.0000126436353,860.4999915584922"></path></g><path id="node_outline27" fill="none" stroke="none" d="M1624.5000128820539,849.4999915584922h24a5,5,0,0,1,5,5v12a5,5,0,0,1,-5,5h-24a5,5,0,0,1,-5,-5v-12a5,5,0,0,1,5,-5z" stroke-width="3"></path><g id="node_text27" fill="black"><text id="kity_text_203" text-rendering="inherit" font-size="12" dy=".8em" y="852.6999915316701" x="1629.5000128820539">堆</text></g></g><g id="minder_node31"><g id="node_expander27" style="cursor: pointer;" display="none"><path id="kity_path_424" fill="white" stroke="gray" d="M1693.5000137463212,977.499993301928A6,6,0,1,1,1681.5000137463212,977.499993301928A6,6,0,1,1,1693.5000137463212,977.499993301928"></path><path id="kity_path_425" fill="none" stroke="gray"></path></g><path id="node_outline28" fill="none" stroke="none" d="M1698.5000139847398,966.499993301928h81a5,5,0,0,1,5,5v12a5,5,0,0,1,-5,5h-81a5,5,0,0,1,-5,-5v-12a5,5,0,0,1,5,-5z"></path><g id="node_text28" fill="black"><text id="kity_text_205" text-rendering="inherit" font-size="12" dy=".8em" y="969.699993275106" x="1703.5000139847398">Native Stack</text></g></g><g id="minder_node32"><g id="node_expander28" style="cursor: pointer;" display="none"><path id="kity_path_427" fill="white" stroke="gray" d="M1693.5000137463212,1029.4999940767884A6,6,0,1,1,1681.5000137463212,1029.4999940767884A6,6,0,1,1,1693.5000137463212,1029.4999940767884"></path><path id="kity_path_428" fill="none" stroke="gray"></path></g><path id="node_outline29" fill="none" stroke="none" d="M1698.5000139847398,1018.4999940767884h65a5,5,0,0,1,5,5v12a5,5,0,0,1,-5,5h-65a5,5,0,0,1,-5,-5v-12a5,5,0,0,1,5,-5z"></path><g id="node_text29" fill="black"><text id="kity_text_207" text-rendering="inherit" font-size="12" dy=".8em" y="1021.6999940499663" x="1703.5000139847398">VM Stack</text></g></g><g id="minder_node33"><g id="node_expander29" style="cursor: pointer;" display="none"><path id="kity_path_430" fill="white" stroke="gray" d="M1693.5000137463212,1081.4999948516488A6,6,0,1,1,1681.5000137463212,1081.4999948516488A6,6,0,1,1,1693.5000137463212,1081.4999948516488"></path><path id="kity_path_431" fill="none" stroke="gray"></path></g><path id="node_outline30" fill="none" stroke="none" d="M1698.5000139847398,1070.4999948516488h185a5,5,0,0,1,5,5v12a5,5,0,0,1,-5,5h-185a5,5,0,0,1,-5,-5v-12a5,5,0,0,1,5,-5z"></path><g id="node_text30" fill="black"><text id="kity_text_209" text-rendering="inherit" font-size="12" dy=".8em" y="1073.6999948248267" x="1703.5000139847398">PC count(唯一不会OOM的区域)</text></g></g><g id="minder_node30"><g id="node_expander30" style="cursor: pointer;"><path id="kity_path_433" fill="white" stroke="gray" d="M1619.5000126436353,1029.4999940767884A6,6,0,1,1,1607.5000126436353,1029.4999940767884A6,6,0,1,1,1619.5000126436353,1029.4999940767884"></path><path id="kity_path_434" fill="none" stroke="gray" d="M1609.0000126436353,1029.4999940767884L1618.0000126436353,1029.4999940767884"></path></g><path id="node_outline31" fill="none" stroke="none" d="M1624.5000128820539,1018.4999940767884h24a5,5,0,0,1,5,5v12a5,5,0,0,1,-5,5h-24a5,5,0,0,1,-5,-5v-12a5,5,0,0,1,5,-5z"></path><g id="node_text31" fill="black"><text id="kity_text_211" text-rendering="inherit" font-size="12" dy=".8em" y="1021.6999940499663" x="1629.5000128820539">栈</text></g></g><g id="minder_node24" opacity="1"><g id="node_expander31" style="cursor: pointer;"><path id="kity_path_436" fill="white" stroke="gray" d="M1430.5000098273158,944.4999928101897A6,6,0,1,1,1418.5000098273158,944.4999928101897A6,6,0,1,1,1430.5000098273158,944.4999928101897"></path><path id="kity_path_437" fill="none" stroke="gray" d="M1420.0000098273158,944.4999928101897L1429.0000098273158,944.4999928101897"></path></g><path id="node_outline32" fill="none" stroke="none" d="M1435.5000100657344,933.4999928101897h139a5,5,0,0,1,5,5v12a5,5,0,0,1,-5,5h-139a5,5,0,0,1,-5,-5v-12a5,5,0,0,1,5,-5z" stroke-width="3"></path><g id="node_text32" fill="black"><text id="kity_text_213" text-rendering="inherit" font-size="12" dy=".8em" y="936.6999927833676" x="1440.5000100657344">Hotspot CMS 内存模型</text></g></g><g id="minder_node35"><g id="node_expander32" style="cursor: pointer;" display="none"><path id="kity_path_439" fill="white" stroke="gray" d="M1642.500012986362,1242.4999972507358A6,6,0,1,1,1630.500012986362,1242.4999972507358A6,6,0,1,1,1642.500012986362,1242.4999972507358"></path><path id="kity_path_440" fill="none" stroke="gray"></path></g><path id="node_outline33" fill="none" stroke="none" d="M1647.5000132247806,1231.4999972507358h138a5,5,0,0,1,5,5v12a5,5,0,0,1,-5,5h-138a5,5,0,0,1,-5,-5v-12a5,5,0,0,1,5,-5z"></path><g id="node_text33" fill="black"><text id="kity_text_215" text-rendering="inherit" font-size="12" dy=".8em" y="1234.6999972239137" x="1652.5000132247806">内存泄漏(无法回收垃圾)</text></g></g><g id="minder_node36"><g id="node_expander33" style="cursor: pointer;" display="none"><path id="kity_path_442" fill="white" stroke="gray" d="M1642.500012986362,1294.4999980255961A6,6,0,1,1,1630.500012986362,1294.4999980255961A6,6,0,1,1,1642.500012986362,1294.4999980255961"></path><path id="kity_path_443" fill="none" stroke="gray"></path></g><path id="node_outline34" fill="none" stroke="none" d="M1647.5000132247806,1283.4999980255961h93a5,5,0,0,1,5,5v12a5,5,0,0,1,-5,5h-93a5,5,0,0,1,-5,-5v-12a5,5,0,0,1,5,-5z"></path><g id="node_text34" fill="black"><text id="kity_text_217" text-rendering="inherit" font-size="12" dy=".8em" y="1286.699997998774" x="1652.5000132247806">内存溢出(oom)</text></g></g><g id="minder_node38"><g id="node_expander34" style="cursor: pointer;" display="none"><path id="kity_path_445" fill="white" stroke="gray" d="M1774.5000149533153,1355.499998934567A6,6,0,1,1,1762.5000149533153,1355.499998934567A6,6,0,1,1,1774.5000149533153,1355.499998934567"></path><path id="kity_path_446" fill="none" stroke="gray"></path></g><path id="node_outline35" fill="none" stroke="none" d="M1779.5000151917338,1335.499998934567h298a5,5,0,0,1,5,5v30a5,5,0,0,1,-5,5h-298a5,5,0,0,1,-5,-5v-30a5,5,0,0,1,5,-5z"></path><g id="node_text35" fill="black"><text id="kity_text_219" text-rendering="inherit" font-size="12" dy=".8em" y="1338.6999989077449" x="1784.5000151917338">jvm在小于32G时，64位系统下会通过内存指针压缩减</text><text id="kity_text_220" text-rendering="inherit" font-size="12" dy=".8em" y="1356.6999989077449" x="1784.5000151917338">少内存的使用</text></g></g><g id="minder_node37"><g id="node_expander35" style="cursor: pointer;"><path id="kity_path_448" fill="white" stroke="gray" d="M1642.500012986362,1355.499998934567A6,6,0,1,1,1630.500012986362,1355.499998934567A6,6,0,1,1,1642.500012986362,1355.499998934567"></path><path id="kity_path_449" fill="none" stroke="gray" d="M1632.000012986362,1355.499998934567L1641.000012986362,1355.499998934567"></path></g><path id="node_outline36" fill="none" stroke="none" d="M1647.5000132247806,1344.499998934567h82a5,5,0,0,1,5,5v12a5,5,0,0,1,-5,5h-82a5,5,0,0,1,-5,-5v-12a5,5,0,0,1,5,-5z"></path><g id="node_text36" fill="black"><text id="kity_text_222" text-rendering="inherit" font-size="12" dy=".8em" y="1347.6999989077449" x="1652.5000132247806">内存指针压缩</text></g></g><g id="minder_node40"><g id="node_expander36" style="cursor: pointer;" display="none"><path id="kity_path_451" fill="white" stroke="gray" d="M1777.5000149980187,1434.5000001117587A6,6,0,1,1,1765.5000149980187,1434.5000001117587A6,6,0,1,1,1777.5000149980187,1434.5000001117587"></path><path id="kity_path_452" fill="none" stroke="gray"></path></g><path id="node_outline37" fill="none" stroke="none" d="M1782.5000152364373,1405.5000001117587h298a5,5,0,0,1,5,5v48a5,5,0,0,1,-5,5h-298a5,5,0,0,1,-5,-5v-48a5,5,0,0,1,5,-5z"></path><g id="node_text37" fill="black"><text id="kity_text_224" text-rendering="inherit" font-size="12" dy=".8em" y="1408.7000000849366" x="1787.5000152364373">GC 线程和用户线程并发执行，这个过程当然可能会因</text><text id="kity_text_225" text-rendering="inherit" font-size="12" dy=".8em" y="1426.7000000849366" x="1787.5000152364373">为线程的交替执行而导致新产生的垃圾（即浮动垃圾）</text><text id="kity_text_226" text-rendering="inherit" font-size="12" dy=".8em" y="1444.7000000849366" x="1787.5000152364373">没有被标记到；</text></g></g><g id="minder_node39"><g id="node_expander37" style="cursor: pointer;"><path id="kity_path_454" fill="white" stroke="gray" d="M1642.500012986362,1434.5000001117587A6,6,0,1,1,1630.500012986362,1434.5000001117587A6,6,0,1,1,1642.500012986362,1434.5000001117587"></path><path id="kity_path_455" fill="none" stroke="gray" d="M1632.000012986362,1434.5000001117587L1641.000012986362,1434.5000001117587"></path></g><path id="node_outline38" fill="none" stroke="none" d="M1647.5000132247806,1423.5000001117587h85a5,5,0,0,1,5,5v12a5,5,0,0,1,-5,5h-85a5,5,0,0,1,-5,-5v-12a5,5,0,0,1,5,-5z"></path><g id="node_text38" fill="black"><text id="kity_text_228" text-rendering="inherit" font-size="12" dy=".8em" y="1426.7000000849366" x="1652.5000132247806">cms 浮动垃圾</text></g></g><g id="minder_node42"><g id="node_expander38" style="cursor: pointer;" display="none"><path id="kity_path_457" fill="white" stroke="gray" d="M1899.5000168159604,1504.50000115484A6,6,0,1,1,1887.5000168159604,1504.50000115484A6,6,0,1,1,1899.5000168159604,1504.50000115484"></path><path id="kity_path_458" fill="none" stroke="gray"></path></g><path id="node_outline39" fill="none" stroke="none" d="M1904.500017054379,1493.50000115484h60a5,5,0,0,1,5,5v12a5,5,0,0,1,-5,5h-60a5,5,0,0,1,-5,-5v-12a5,5,0,0,1,5,-5z"></path><g id="node_text39" fill="black"><text id="kity_text_230" text-rendering="inherit" font-size="12" dy=".8em" y="1496.700001128018" x="1909.500017054379">空闲列表</text></g></g><g id="minder_node43"><g id="node_expander39" style="cursor: pointer;" display="none"><path id="kity_path_460" fill="white" stroke="gray" d="M1899.5000168159604,1556.5000019297004A6,6,0,1,1,1887.5000168159604,1556.5000019297004A6,6,0,1,1,1899.5000168159604,1556.5000019297004"></path><path id="kity_path_461" fill="none" stroke="gray"></path></g><path id="node_outline40" fill="none" stroke="none" d="M1904.500017054379,1545.5000019297004h60a5,5,0,0,1,5,5v12a5,5,0,0,1,-5,5h-60a5,5,0,0,1,-5,-5v-12a5,5,0,0,1,5,-5z"></path><g id="node_text40" fill="black"><text id="kity_text_232" text-rendering="inherit" font-size="12" dy=".8em" y="1548.7000019028783" x="1909.500017054379">指针碰撞</text></g></g><g id="minder_node41"><g id="node_expander40" style="cursor: pointer;"><path id="kity_path_463" fill="white" stroke="gray" d="M1642.500012986362,1530.5000015422702A6,6,0,1,1,1630.500012986362,1530.5000015422702A6,6,0,1,1,1642.500012986362,1530.5000015422702"></path><path id="kity_path_464" fill="none" stroke="gray" d="M1632.000012986362,1530.5000015422702L1641.000012986362,1530.5000015422702"></path></g><path id="node_outline41" fill="none" stroke="none" d="M1647.5000132247806,1519.5000015422702h207a5,5,0,0,1,5,5v12a5,5,0,0,1,-5,5h-207a5,5,0,0,1,-5,-5v-12a5,5,0,0,1,5,-5z" stroke-width="3"></path><g id="node_text41" fill="black"><text id="kity_text_234" text-rendering="inherit" font-size="12" dy=".8em" y="1522.700001515448" x="1652.5000132247806">内存分配算法(根据GC 特性进行选择)</text></g></g><g id="minder_node34" opacity="1"><g id="node_expander41" style="cursor: pointer;"><path id="kity_path_466" fill="white" stroke="gray" d="M1509.5000110045075,1386.499999396503A6,6,0,1,1,1497.5000110045075,1386.499999396503A6,6,0,1,1,1509.5000110045075,1386.499999396503"></path><path id="kity_path_467" fill="none" stroke="gray" d="M1499.0000110045075,1386.499999396503L1508.0000110045075,1386.499999396503"></path></g><path id="node_outline42" fill="none" stroke="none" d="M1514.5000112429261,1375.499999396503h83a5,5,0,0,1,5,5v12a5,5,0,0,1,-5,5h-83a5,5,0,0,1,-5,-5v-12a5,5,0,0,1,5,-5z" stroke-width="3"></path><g id="node_text42" fill="black"><text id="kity_text_236" text-rendering="inherit" font-size="12" dy=".8em" y="1378.6999993696809" x="1519.5000112429261">内存相关问题</text></g></g><g id="minder_node46"><g id="node_expander42" style="cursor: pointer;" display="none"><path id="kity_path_469" fill="white" stroke="gray" d="M1377.5000090375543,1625.5000029578805A6,6,0,1,1,1365.5000090375543,1625.5000029578805A6,6,0,1,1,1377.5000090375543,1625.5000029578805"></path><path id="kity_path_470" fill="none" stroke="gray"></path></g><path id="node_outline43" fill="none" stroke="none" d="M1382.5000092759728,1596.5000029578805h223a5,5,0,0,1,5,5v48a5,5,0,0,1,-5,5h-223a5,5,0,0,1,-5,-5v-48a5,5,0,0,1,5,-5z"></path><g id="node_text43" fill="black"><text id="kity_text_238" text-rendering="inherit" font-size="12" dy=".8em" y="1599.7000029310584" x="1387.5000092759728">对象头：</text><text id="kity_text_239" text-rendering="inherit" font-size="12" dy=".8em" y="1617.7000029310584" x="1387.5000092759728">1. 运行时数据 (GC分代，锁状态，hash)</text><text id="kity_text_240" text-rendering="inherit" font-size="12" dy=".8em" y="1635.7000029310584" x="1387.5000092759728">2. 类型指针(用于判定对象所属类)</text></g></g><g id="minder_node47"><g id="node_expander43" style="cursor: pointer;" display="none"><path id="kity_path_472" fill="white" stroke="gray" d="M1385.5000091567636,1719.5000043585896A6,6,0,1,1,1373.5000091567636,1719.5000043585896A6,6,0,1,1,1385.5000091567636,1719.5000043585896"></path><path id="kity_path_473" fill="none" stroke="gray"></path></g><path id="node_outline44" fill="none" stroke="none" d="M1390.5000093951821,1708.5000043585896h150a5,5,0,0,1,5,5v12a5,5,0,0,1,-5,5h-150a5,5,0,0,1,-5,-5v-12a5,5,0,0,1,5,-5z" stroke-width="3"></path><g id="node_text44" fill="black"><text id="kity_text_242" text-rendering="inherit" font-size="12" dy=".8em" y="1711.7000043317676" x="1395.5000093951821">实例数据(对象的真实数据)</text></g></g><g id="minder_node48"><g id="node_expander44" style="cursor: pointer;" display="none"><path id="kity_path_475" fill="white" stroke="gray" d="M1385.5000091567636,1771.50000513345A6,6,0,1,1,1373.5000091567636,1771.50000513345A6,6,0,1,1,1385.5000091567636,1771.50000513345"></path><path id="kity_path_476" fill="none" stroke="gray"></path></g><path id="node_outline45" fill="none" stroke="none" d="M1390.5000093951821,1760.50000513345h60a5,5,0,0,1,5,5v12a5,5,0,0,1,-5,5h-60a5,5,0,0,1,-5,-5v-12a5,5,0,0,1,5,-5z"></path><g id="node_text45" fill="black"><text id="kity_text_244" text-rendering="inherit" font-size="12" dy=".8em" y="1763.700005106628" x="1395.5000093951821">对齐填充</text></g></g><g id="minder_node45"><g id="node_expander45" style="cursor: pointer;"><path id="kity_path_478" fill="white" stroke="gray" d="M1228.5000068172812,1701.5000040903687A6,6,0,1,1,1216.5000068172812,1701.5000040903687A6,6,0,1,1,1228.5000068172812,1701.5000040903687"></path><path id="kity_path_479" fill="none" stroke="gray" d="M1218.0000068172812,1701.5000040903687L1227.0000068172812,1701.5000040903687"></path></g><path id="node_outline46" fill="none" stroke="none" d="M1233.5000070556998,1690.5000040903687h107a5,5,0,0,1,5,5v12a5,5,0,0,1,-5,5h-107a5,5,0,0,1,-5,-5v-12a5,5,0,0,1,5,-5z" stroke-width="3"></path><g id="node_text46" fill="black"><text id="kity_text_246" text-rendering="inherit" font-size="12" dy=".8em" y="1693.7000040635467" x="1238.5000070556998">对象在内存的布局</text></g></g><g id="minder_node50"><g id="node_expander46" style="cursor: pointer;" display="none"><path id="kity_path_481" fill="white" stroke="gray" d="M1472.5000104531646,2192.500011406839A6,6,0,1,1,1460.5000104531646,2192.500011406839A6,6,0,1,1,1472.5000104531646,2192.500011406839"></path><path id="kity_path_482" fill="none" stroke="gray"></path></g><path id="node_outline47" fill="none" stroke="none" d="M1477.5000106915832,2181.500011406839h270a5,5,0,0,1,5,5v12a5,5,0,0,1,-5,5h-270a5,5,0,0,1,-5,-5v-12a5,5,0,0,1,5,-5z"></path><g id="node_text47" fill="black"><text id="kity_text_248" text-rendering="inherit" font-size="12" dy=".8em" y="2184.700011380017" x="1482.5000106915832">引用计数(难点是循环引用，需要额外的机制解决)</text></g></g><g id="minder_node51"><g id="node_expander47" style="cursor: pointer;" display="none"><path id="kity_path_484" fill="white" stroke="gray" d="M1472.5000104531646,2244.5000121816993A6,6,0,1,1,1460.5000104531646,2244.5000121816993A6,6,0,1,1,1472.5000104531646,2244.5000121816993"></path><path id="kity_path_485" fill="none" stroke="gray"></path></g><path id="node_outline48" fill="none" stroke="none" d="M1477.5000106915832,2233.5000121816993h71a5,5,0,0,1,5,5v12a5,5,0,0,1,-5,5h-71a5,5,0,0,1,-5,-5v-12a5,5,0,0,1,5,-5z"></path><g id="node_text48" fill="black"><text id="kity_text_250" text-rendering="inherit" font-size="12" dy=".8em" y="2236.700012154877" x="1482.5000106915832">可达性分析</text></g></g><g id="minder_node49"><g id="node_expander48" style="cursor: pointer;"><path id="kity_path_487" fill="white" stroke="gray" d="M1283.500007636845,2218.500011794269A6,6,0,1,1,1271.500007636845,2218.500011794269A6,6,0,1,1,1283.500007636845,2218.500011794269"></path><path id="kity_path_488" fill="none" stroke="gray" d="M1273.000007636845,2218.500011794269L1282.000007636845,2218.500011794269"></path></g><path id="node_outline49" fill="none" stroke="none" d="M1288.5000078752637,2207.500011794269h139a5,5,0,0,1,5,5v12a5,5,0,0,1,-5,5h-139a5,5,0,0,1,-5,-5v-12a5,5,0,0,1,5,-5z"></path><g id="node_text49" fill="black"><text id="kity_text_252" text-rendering="inherit" font-size="12" dy=".8em" y="2210.700011767447" x="1293.5000078752637">对象存活(垃圾判定算法)</text></g></g><g id="minder_node52"><g id="node_expander49" style="cursor: pointer;" display="none"><path id="kity_path_490" fill="white" stroke="gray" d="M1252.5000071749091,2306.5000131055713A6,6,0,1,1,1240.5000071749091,2306.5000131055713A6,6,0,1,1,1252.5000071749091,2306.5000131055713"></path><path id="kity_path_491" fill="none" stroke="gray"></path></g><path id="node_outline50" fill="none" stroke="none" d="M1257.5000074133277,2295.5000131055713h127a5,5,0,0,1,5,5v12a5,5,0,0,1,-5,5h-127a5,5,0,0,1,-5,-5v-12a5,5,0,0,1,5,-5z"></path><g id="node_text50" fill="black"><text id="kity_text_254" text-rendering="inherit" font-size="12" dy=".8em" y="2298.700013078749" x="1262.5000074133277">对象不可达(死亡判定)</text></g></g><g id="minder_node54"><g id="node_expander50" style="cursor: pointer;" display="none"><path id="kity_path_493" fill="white" stroke="gray" d="M1402.5000094100833,1887.5000068619847A6,6,0,1,1,1390.5000094100833,1887.5000068619847A6,6,0,1,1,1402.5000094100833,1887.5000068619847"></path><path id="kity_path_494" fill="none" stroke="gray"></path></g><path id="node_outline51" fill="none" stroke="none" d="M1407.5000096485019,1831.5000068619847h93a5,5,0,0,1,5,5v102a5,5,0,0,1,-5,5h-93a5,5,0,0,1,-5,-5v-102a5,5,0,0,1,5,-5z"></path><g id="node_text51" fill="black"><text id="kity_text_256" text-rendering="inherit" font-size="12" dy=".8em" y="1834.7000068351626" x="1412.5000096485019">流程：</text><text id="kity_text_257" text-rendering="inherit" font-size="12" dy=".8em" y="1852.7000068351626" x="1412.5000096485019">1. 类加载流程</text><text id="kity_text_258" text-rendering="inherit" font-size="12" dy=".8em" y="1870.7000068351626" x="1412.5000096485019">2. 分配内存</text><text id="kity_text_259" text-rendering="inherit" font-size="12" dy=".8em" y="1888.7000068351626" x="1412.5000096485019">3. 初始化零值</text><text id="kity_text_260" text-rendering="inherit" font-size="12" dy=".8em" y="1906.7000068351626" x="1412.5000096485019">4. 设置对象头</text><text id="kity_text_261" text-rendering="inherit" font-size="12" dy=".8em" y="1924.7000068351626" x="1412.5000096485019">5. 执行 ini 方法</text></g></g><g id="minder_node53"><g id="node_expander51" style="cursor: pointer;"><path id="kity_path_496" fill="white" stroke="gray" d="M1268.5000074133277,1887.5000068619847A6,6,0,1,1,1256.5000074133277,1887.5000068619847A6,6,0,1,1,1268.5000074133277,1887.5000068619847"></path><path id="kity_path_497" fill="none" stroke="gray" d="M1258.0000074133277,1887.5000068619847L1267.0000074133277,1887.5000068619847"></path></g><path id="node_outline52" fill="none" stroke="none" d="M1273.5000076517463,1876.5000068619847h84a5,5,0,0,1,5,5v12a5,5,0,0,1,-5,5h-84a5,5,0,0,1,-5,-5v-12a5,5,0,0,1,5,-5z"></path><g id="node_text52" fill="black"><text id="kity_text_263" text-rendering="inherit" font-size="12" dy=".8em" y="1879.7000068351626" x="1278.5000076517463">对象创建流程</text></g></g><g id="minder_node56"><g id="node_expander52" style="cursor: pointer;" display="none"><path id="kity_path_499" fill="white" stroke="gray" d="M1606.5000124499202,2045.5000092163682A6,6,0,1,1,1594.5000124499202,2045.5000092163682A6,6,0,1,1,1606.5000124499202,2045.5000092163682"></path><path id="kity_path_500" fill="none" stroke="gray"></path></g><path id="node_outline53" fill="none" stroke="none" d="M1611.5000126883388,2034.5000092163682h60a5,5,0,0,1,5,5v12a5,5,0,0,1,-5,5h-60a5,5,0,0,1,-5,-5v-12a5,5,0,0,1,5,-5z"></path><g id="node_text53" fill="black"><text id="kity_text_265" text-rendering="inherit" font-size="12" dy=".8em" y="2037.700009189546" x="1616.5000126883388">使用句柄</text></g></g><g id="minder_node57"><g id="node_expander53" style="cursor: pointer;" display="none"><path id="kity_path_502" fill="white" stroke="gray" d="M1606.5000124499202,2097.5000099912286A6,6,0,1,1,1594.5000124499202,2097.5000099912286A6,6,0,1,1,1606.5000124499202,2097.5000099912286"></path><path id="kity_path_503" fill="none" stroke="gray"></path></g><path id="node_outline54" fill="none" stroke="none" d="M1611.5000126883388,2086.5000099912286h139a5,5,0,0,1,5,5v12a5,5,0,0,1,-5,5h-139a5,5,0,0,1,-5,-5v-12a5,5,0,0,1,5,-5z"></path><g id="node_text54" fill="black"><text id="kity_text_267" text-rendering="inherit" font-size="12" dy=".8em" y="2089.7000099644065" x="1616.5000126883388">直接指针(hotspot 实现)</text></g></g><g id="minder_node55"><g id="node_expander54" style="cursor: pointer;"><path id="kity_path_505" fill="white" stroke="gray" d="M1261.5000073090196,2071.5000096037984A6,6,0,1,1,1249.5000073090196,2071.5000096037984A6,6,0,1,1,1261.5000073090196,2071.5000096037984"></path><path id="kity_path_506" fill="none" stroke="gray" d="M1251.0000073090196,2071.5000096037984L1260.0000073090196,2071.5000096037984"></path></g><path id="node_outline55" fill="none" stroke="none" d="M1266.5000075474381,2060.5000096037984h295a5,5,0,0,1,5,5v12a5,5,0,0,1,-5,5h-295a5,5,0,0,1,-5,-5v-12a5,5,0,0,1,5,-5z"></path><g id="node_text55" fill="black"><text id="kity_text_269" text-rendering="inherit" font-size="12" dy=".8em" y="2063.7000095769763" x="1271.5000075474381">对象的访问定位方法(根据jvm 的使用不同有不同实现)</text></g></g><g id="minder_node44" opacity="1"><g id="node_expander55" style="cursor: pointer;"><path id="kity_path_508" fill="white" stroke="gray" d="M1119.5000051930547,1924.5000074133277A6,6,0,1,1,1107.5000051930547,1924.5000074133277A6,6,0,1,1,1119.5000051930547,1924.5000074133277"></path><path id="kity_path_509" fill="none" stroke="gray" d="M1109.0000051930547,1924.5000074133277L1118.0000051930547,1924.5000074133277"></path></g><path id="node_outline56" fill="none" stroke="none" d="M1124.5000054314733,1913.5000074133277h59a5,5,0,0,1,5,5v12a5,5,0,0,1,-5,5h-59a5,5,0,0,1,-5,-5v-12a5,5,0,0,1,5,-5z" stroke-width="3"></path><g id="node_text56" fill="black"><text id="kity_text_271" text-rendering="inherit" font-size="12" dy=".8em" y="1916.7000073865056" x="1129.5000054314733">对象相关</text></g></g><g id="minder_node63" opacity="1"><g id="node_expander62" style="cursor: pointer;"><path id="kity_path_589" fill="white" stroke="gray" d="M1444.500010035932,432.4999851807952A6,6,0,1,1,1432.500010035932,432.4999851807952A6,6,0,1,1,1444.500010035932,432.4999851807952"></path><path id="kity_path_590" fill="none" stroke="gray" d="M1434.000010035932,432.4999851807952L1443.000010035932,432.4999851807952"></path></g><path id="node_outline63" fill="none" stroke="none" d="M1449.5000102743506,421.4999851807952h27a5,5,0,0,1,5,5v12a5,5,0,0,1,-5,5h-27a5,5,0,0,1,-5,-5v-12a5,5,0,0,1,5,-5z" stroke-width="3"></path><g id="node_text63" fill="black"><text id="kity_text_586" text-rendering="inherit" font-size="12" dy=".8em" y="424.6999851539731" x="1454.5000102743506">GC</text></g></g><g id="minder_node21"><g id="node_expander18" style="cursor: pointer;" display="none"><path id="kity_path_397" fill="white" stroke="gray" d="M1651.5000131204724,130.4999806806445A6,6,0,1,1,1639.5000131204724,130.4999806806445A6,6,0,1,1,1651.5000131204724,130.4999806806445"></path><path id="kity_path_398" fill="none" stroke="gray"></path></g><path id="node_outline19" fill="none" stroke="none" d="M1656.500013358891,119.49998068064451h60a5,5,0,0,1,5,5v12a5,5,0,0,1,-5,5h-60a5,5,0,0,1,-5,-5v-12a5,5,0,0,1,5,-5z"></path><g id="node_text19" fill="black"><text id="kity_text_187" text-rendering="inherit" font-size="12" dy=".8em" y="122.69998065382242" x="1661.500013358891">标记清除</text></g></g><g id="minder_node22"><g id="node_expander19" style="cursor: pointer;" display="none"><path id="kity_path_400" fill="white" stroke="gray" d="M1651.5000131204724,182.4999814555049A6,6,0,1,1,1639.5000131204724,182.4999814555049A6,6,0,1,1,1651.5000131204724,182.4999814555049"></path><path id="kity_path_401" fill="none" stroke="gray"></path></g><path id="node_outline20" fill="none" stroke="none" d="M1656.500013358891,171.4999814555049h59a5,5,0,0,1,5,5v12a5,5,0,0,1,-5,5h-59a5,5,0,0,1,-5,-5v-12a5,5,0,0,1,5,-5z"></path><g id="node_text20" fill="black"><text id="kity_text_189" text-rendering="inherit" font-size="12" dy=".8em" y="174.6999814286828" x="1661.500013358891">标记压缩</text></g></g><g id="minder_node23"><g id="node_expander20" style="cursor: pointer;" display="none"><path id="kity_path_403" fill="white" stroke="gray" d="M1651.5000131204724,234.49998223036528A6,6,0,1,1,1639.5000131204724,234.49998223036528A6,6,0,1,1,1651.5000131204724,234.49998223036528"></path><path id="kity_path_404" fill="none" stroke="gray"></path></g><path id="node_outline21" fill="none" stroke="none" d="M1656.500013358891,223.49998223036528h60a5,5,0,0,1,5,5v12a5,5,0,0,1,-5,5h-60a5,5,0,0,1,-5,-5v-12a5,5,0,0,1,5,-5z"></path><g id="node_text21" fill="black"><text id="kity_text_191" text-rendering="inherit" font-size="12" dy=".8em" y="226.6999822035432" x="1661.500013358891">标记整理</text></g></g><g id="minder_node20" opacity="1"><g id="node_expander21" style="cursor: pointer;"><path id="kity_path_406" fill="white" stroke="gray" d="M1521.5000111833215,182.4999814555049A6,6,0,1,1,1509.5000111833215,182.4999814555049A6,6,0,1,1,1521.5000111833215,182.4999814555049"></path><path id="kity_path_407" fill="none" stroke="gray" d="M1511.0000111833215,182.4999814555049L1520.0000111833215,182.4999814555049"></path></g><path id="node_outline22" fill="none" stroke="none" d="M1526.50001142174,171.4999814555049h80a5,5,0,0,1,5,5v12a5,5,0,0,1,-5,5h-80a5,5,0,0,1,-5,-5v-12a5,5,0,0,1,5,-5z" stroke-width="3"></path><g id="node_text22" fill="black"><text id="kity_text_193" text-rendering="inherit" font-size="12" dy=".8em" y="174.6999814286828" x="1531.50001142174">GC 算法类型</text></g></g><g id="minder_node64" opacity="1"><g id="node_expander63" style="cursor: pointer;"><path id="kity_path_664" fill="white" stroke="gray" d="M1553.5000116601586,427.4999851062894A6,6,0,1,1,1541.5000116601586,427.4999851062894A6,6,0,1,1,1553.5000116601586,427.4999851062894"></path><path id="kity_path_665" fill="none" stroke="gray" d="M1543.0000116601586,427.4999851062894L1552.0000116601586,427.4999851062894"></path></g><path id="node_outline64" fill="none" stroke="none" d="M1558.5000118985772,416.4999851062894h140a5,5,0,0,1,5,5v12a5,5,0,0,1,-5,5h-140a5,5,0,0,1,-5,-5v-12a5,5,0,0,1,5,-5z" stroke-width="3"></path><g id="node_text64" fill="black"><text id="kity_text_661" text-rendering="inherit" font-size="12" dy=".8em" y="419.6999850794673" x="1563.5000118985772">GC 实现(CMS/G1/ZGC)</text></g></g><g id="minder_node72" opacity="1"><g id="node_expander71" style="cursor: pointer;"><path id="kity_path_840" fill="white" stroke="gray" d="M1523.5000112131238,696.4999891147017A6,6,0,1,1,1511.5000112131238,696.4999891147017A6,6,0,1,1,1523.5000112131238,696.4999891147017"></path><path id="kity_path_841" fill="none" stroke="gray" d="M1513.0000112131238,696.4999891147017L1522.0000112131238,696.4999891147017"></path></g><path id="node_outline72" fill="none" stroke="none" d="M1528.5000114515424,685.4999891147017h271a5,5,0,0,1,5,5v12a5,5,0,0,1,-5,5h-271a5,5,0,0,1,-5,-5v-12a5,5,0,0,1,5,-5z" stroke-width="3"></path><g id="node_text72" fill="black"><text id="kity_text_837" text-rendering="inherit" font-size="12" dy=".8em" y="688.6999890878797" x="1533.5000114515424">GC 安全点(GC的执行必须要所有线程达到安全点)</text></g></g><g id="minder_node66"><g id="node_expander65" style="cursor: pointer;" display="none"><path id="kity_path_680" fill="white" stroke="gray" d="M1943.5000174716115,267.4999827221036A6,6,0,1,1,1931.5000174716115,267.4999827221036A6,6,0,1,1,1943.5000174716115,267.4999827221036"></path><path id="kity_path_681" fill="none" stroke="gray"></path></g><path id="node_outline66" fill="none" stroke="none" d="M1948.50001771003,256.4999827221036h227a5,5,0,0,1,5,5v12a5,5,0,0,1,-5,5h-227a5,5,0,0,1,-5,-5v-12a5,5,0,0,1,5,-5z" stroke-width="3"></path><g id="node_text66" fill="black"><text id="kity_text_677" text-rendering="inherit" font-size="12" dy=".8em" y="259.6999826952815" x="1953.50001771003">白色：表示对象尚未被垃圾收集器访问过</text></g></g><g id="minder_node67"><g id="node_expander66" style="cursor: pointer;" display="none"><path id="kity_path_688" fill="white" stroke="gray" d="M1943.5000174716115,319.499983496964A6,6,0,1,1,1931.5000174716115,319.499983496964A6,6,0,1,1,1943.5000174716115,319.499983496964"></path><path id="kity_path_689" fill="none" stroke="gray"></path></g><path id="node_outline67" fill="none" stroke="none" d="M1948.50001771003,308.499983496964h228a5,5,0,0,1,5,5v12a5,5,0,0,1,-5,5h-228a5,5,0,0,1,-5,-5v-12a5,5,0,0,1,5,-5z" stroke-width="3"></path><g id="node_text67" fill="black"><text id="kity_text_685" text-rendering="inherit" font-size="12" dy=".8em" y="311.6999834701419" x="1953.50001771003">黑色：表示对象已经被垃圾收集器访问过</text></g></g><g id="minder_node68"><g id="node_expander67" style="cursor: pointer;" display="none"><path id="kity_path_696" fill="white" stroke="gray" d="M1943.5000174716115,371.49998427182436A6,6,0,1,1,1931.5000174716115,371.49998427182436A6,6,0,1,1,1943.5000174716115,371.49998427182436"></path><path id="kity_path_697" fill="none" stroke="gray"></path></g><path id="node_outline68" fill="none" stroke="none" d="M1948.50001771003,360.49998427182436h596a5,5,0,0,1,5,5v12a5,5,0,0,1,-5,5h-596a5,5,0,0,1,-5,-5v-12a5,5,0,0,1,5,-5z" stroke-width="3"></path><g id="node_text68" fill="black"><text id="kity_text_693" text-rendering="inherit" font-size="12" dy=".8em" y="363.69998424500227" x="1953.50001771003">灰色(表示扫描时有改变)：表示对象已经被垃圾收集器访问过，但这个对象上至少存在一个引用还没有被扫描过</text></g></g><g id="minder_node65"><g id="node_expander64" style="cursor: pointer;"><path id="kity_path_672" fill="white" stroke="gray" d="M1743.5000144913793,319.499983496964A6,6,0,1,1,1731.5000144913793,319.499983496964A6,6,0,1,1,1743.5000144913793,319.499983496964"></path><path id="kity_path_673" fill="none" stroke="gray" d="M1733.0000144913793,319.499983496964L1742.0000144913793,319.499983496964"></path></g><path id="node_outline65" fill="none" stroke="none" d="M1748.5000147297978,308.499983496964h150a5,5,0,0,1,5,5v12a5,5,0,0,1,-5,5h-150a5,5,0,0,1,-5,-5v-12a5,5,0,0,1,5,-5z" stroke-width="3"></path><g id="node_text65" fill="black"><text id="kity_text_669" text-rendering="inherit" font-size="12" dy=".8em" y="311.6999834701419" x="1753.5000147297978">三色标记法(减少停顿原理)</text></g></g><g id="minder_node70"><g id="node_expander69" style="cursor: pointer;" display="none"><path id="kity_path_812" fill="white" stroke="gray" d="M1858.5000162050128,423.49998504668474A6,6,0,1,1,1846.5000162050128,423.49998504668474A6,6,0,1,1,1858.5000162050128,423.49998504668474"></path><path id="kity_path_813" fill="none" stroke="gray"></path></g><path id="node_outline70" fill="none" stroke="none" d="M1863.5000164434314,412.49998504668474h506a5,5,0,0,1,5,5v12a5,5,0,0,1,-5,5h-506a5,5,0,0,1,-5,-5v-12a5,5,0,0,1,5,-5z" stroke-width="3"></path><g id="node_text70" fill="black"><text id="kity_text_809" text-rendering="inherit" font-size="12" dy=".8em" y="415.69998501986265" x="1868.5000164434314">标识所有 GCRoot 节点。通过GCRoot 节点初始化时都写入到 OOPMAP 这个特殊 Map 实现</text></g></g><g id="minder_node69"><g id="node_expander68" style="cursor: pointer;"><path id="kity_path_704" fill="white" stroke="gray" d="M1743.5000144913793,423.49998504668474A6,6,0,1,1,1731.5000144913793,423.49998504668474A6,6,0,1,1,1743.5000144913793,423.49998504668474"></path><path id="kity_path_705" fill="none" stroke="gray" d="M1733.0000144913793,423.49998504668474L1742.0000144913793,423.49998504668474"></path></g><path id="node_outline69" fill="none" stroke="none" d="M1748.5000147297978,412.49998504668474h65a5,5,0,0,1,5,5v12a5,5,0,0,1,-5,5h-65a5,5,0,0,1,-5,-5v-12a5,5,0,0,1,5,-5z" stroke-width="3"></path><g id="node_text69" fill="black"><text id="kity_text_701" text-rendering="inherit" font-size="12" dy=".8em" y="415.69998501986265" x="1753.5000147297978">OOPMAP</text></g></g><g id="minder_node71"><g id="node_expander70" style="cursor: pointer;" display="none"><path id="kity_path_820" fill="white" stroke="gray" d="M1743.5000144913793,475.4999858215451A6,6,0,1,1,1731.5000144913793,475.4999858215451A6,6,0,1,1,1743.5000144913793,475.4999858215451"></path><path id="kity_path_821" fill="none" stroke="gray"></path></g><path id="node_outline71" fill="none" stroke="none" d="M1748.5000147297978,464.4999858215451h275a5,5,0,0,1,5,5v12a5,5,0,0,1,-5,5h-275a5,5,0,0,1,-5,-5v-12a5,5,0,0,1,5,-5z" stroke-width="3"></path><g id="node_text71" fill="black"><text id="kity_text_817" text-rendering="inherit" font-size="12" dy=".8em" y="467.69998579472303" x="1753.5000147297978">card table 卡表（解决老年代引用新生代的问题）</text></g></g><g id="minder_node75"><g id="node_expander74" style="cursor: pointer;"><path id="kity_path_871" fill="white" stroke="gray" d="M1743.5000144913793,536.499986730516A6,6,0,1,1,1731.5000144913793,536.499986730516A6,6,0,1,1,1743.5000144913793,536.499986730516"></path><path id="kity_path_872" fill="none" stroke="gray" d="M1733.0000144913793,536.499986730516L1742.0000144913793,536.499986730516"></path></g><path id="node_outline75" fill="none" stroke="none" d="M1748.5000147297978,525.499986730516h81a5,5,0,0,1,5,5v12a5,5,0,0,1,-5,5h-81a5,5,0,0,1,-5,-5v-12a5,5,0,0,1,5,-5z" stroke-width="3"></path><g id="node_text75" fill="black"><text id="kity_text_868" text-rendering="inherit" font-size="12" dy=".8em" y="528.6999867036939" x="1753.5000147297978">write barrier</text></g></g><g id="minder_node76"><g id="node_expander75" style="cursor: pointer;" display="none"><path id="kity_path_879" fill="white" stroke="gray" d="M1874.5000164434314,536.499986730516A6,6,0,1,1,1862.5000164434314,536.499986730516A6,6,0,1,1,1874.5000164434314,536.499986730516"></path><path id="kity_path_880" fill="none" stroke="gray"></path></g><path id="node_outline76" fill="none" stroke="none" d="M1879.50001668185,516.499986730516h293a5,5,0,0,1,5,5v30a5,5,0,0,1,-5,5h-293a5,5,0,0,1,-5,-5v-30a5,5,0,0,1,5,-5z" stroke-width="3"></path><g id="node_text76" fill="black"><text id="kity_text_876" text-rendering="inherit" font-size="12" dy=".8em" y="519.6999867036939" x="1884.50001668185">对对象的引用指向特殊操作，实现GC标识并发标记阶</text><text id="kity_text_881" text-rendering="inherit" font-size="12" dy=".8em" y="537.6999867036939" x="1884.50001668185">段记录下工作线程修改的对象。</text></g></g><g id="minder_node73"><g id="node_expander72" style="cursor: pointer;"><path id="kity_path_848" fill="white" stroke="gray" d="M1844.5000159963965,648.499988399446A6,6,0,1,1,1832.5000159963965,648.499988399446A6,6,0,1,1,1844.5000159963965,648.499988399446"></path><path id="kity_path_849" fill="none" stroke="gray" d="M1834.0000159963965,648.499988399446L1843.0000159963965,648.499988399446"></path></g><path id="node_outline73" fill="none" stroke="none" d="M1849.5000162348151,637.499988399446h47a5,5,0,0,1,5,5v12a5,5,0,0,1,-5,5h-47a5,5,0,0,1,-5,-5v-12a5,5,0,0,1,5,-5z" stroke-width="3"></path><g id="node_text73" fill="black"><text id="kity_text_845" text-rendering="inherit" font-size="12" dy=".8em" y="640.6999883726239" x="1854.5000162348151">安全点</text></g></g><g id="minder_node74"><g id="node_expander73" style="cursor: pointer;"><path id="kity_path_856" fill="white" stroke="gray" d="M1844.5000159963965,744.4999898299575A6,6,0,1,1,1832.5000159963965,744.4999898299575A6,6,0,1,1,1844.5000159963965,744.4999898299575"></path><path id="kity_path_857" fill="none" stroke="gray" d="M1834.0000159963965,744.4999898299575L1843.0000159963965,744.4999898299575"></path></g><path id="node_outline74" fill="none" stroke="none" d="M1849.5000162348151,733.4999898299575h60a5,5,0,0,1,5,5v12a5,5,0,0,1,-5,5h-60a5,5,0,0,1,-5,-5v-12a5,5,0,0,1,5,-5z" stroke-width="3"></path><g id="node_text74" fill="black"><text id="kity_text_853" text-rendering="inherit" font-size="12" dy=".8em" y="736.6999898031354" x="1854.5000162348151">安全区域</text></g></g><g id="minder_node77"><g id="node_expander76" style="cursor: pointer;" display="none"><path id="kity_path_890" fill="white" stroke="gray" d="M1954.5000176355243,718.4999894425273A6,6,0,1,1,1942.5000176355243,718.4999894425273A6,6,0,1,1,1954.5000176355243,718.4999894425273"></path><path id="kity_path_891" fill="none" stroke="gray"></path></g><path id="node_outline77" fill="none" stroke="none" d="M1959.5000178739429,707.4999894425273h40a5,5,0,0,1,5,5v12a5,5,0,0,1,-5,5h-40a5,5,0,0,1,-5,-5v-12a5,5,0,0,1,5,-5z" stroke-width="3"></path><g id="node_text77" fill="black"><text id="kity_text_887" text-rendering="inherit" font-size="12" dy=".8em" y="710.6999894157052" x="1964.5000178739429">sleep</text></g></g><g id="minder_node78"><g id="node_expander77" style="cursor: pointer;" display="none"><path id="kity_path_898" fill="white" stroke="gray" d="M1954.5000176355243,770.4999902173877A6,6,0,1,1,1942.5000176355243,770.4999902173877A6,6,0,1,1,1954.5000176355243,770.4999902173877"></path><path id="kity_path_899" fill="none" stroke="gray"></path></g><path id="node_outline78" fill="none" stroke="none" d="M1959.5000178739429,759.4999902173877h42a5,5,0,0,1,5,5v12a5,5,0,0,1,-5,5h-42a5,5,0,0,1,-5,-5v-12a5,5,0,0,1,5,-5z" stroke-width="3"></path><g id="node_text78" fill="black"><text id="kity_text_895" text-rendering="inherit" font-size="12" dy=".8em" y="762.6999901905656" x="1964.5000178739429">block</text></g></g><g id="minder_node79"><g id="node_expander78" style="cursor: pointer;" display="none"><path id="kity_path_906" fill="white" stroke="gray" d="M1941.5000174418092,648.499988399446A6,6,0,1,1,1929.5000174418092,648.499988399446A6,6,0,1,1,1941.5000174418092,648.499988399446"></path><path id="kity_path_907" fill="none" stroke="gray"></path></g><path id="node_outline79" fill="none" stroke="none" d="M1946.5000176802278,619.499988399446h72a5,5,0,0,1,5,5v48a5,5,0,0,1,-5,5h-72a5,5,0,0,1,-5,-5v-48a5,5,0,0,1,5,-5z" stroke-width="3"></path><g id="node_text79" fill="black"><text id="kity_text_903" text-rendering="inherit" font-size="12" dy=".8em" y="622.6999883726239" x="1951.5000176802278">方法调用</text><text id="kity_text_908" text-rendering="inherit" font-size="12" dy=".8em" y="640.6999883726239" x="1951.5000176802278">循环的跳转</text><text id="kity_text_909" text-rendering="inherit" font-size="12" dy=".8em" y="658.6999883726239" x="1951.5000176802278">异常跳转等</text></g></g></g></g></svg>