<svg id="kity_svg_6" xmlns="http://www.w3.org/2000/svg" xmlns:xlink="http://www.w3.org/1999/xlink" version="1.1" width="2294" height="1196" style="background: rgb(251, 251, 251); visibility: visible;" viewBox="0 0 2294 1196"><defs id="kity_defs_7"><linearGradient id="kity_linearGradient_17" x1="0" y1="0" x2="0" y2="1"><stop id="kity_stop_18" offset="0" stop-color="rgb(255, 255, 255)"></stop><stop id="kity_stop_19" offset="1" stop-color="rgb(204, 204, 204)"></stop></linearGradient><marker id="kity_marker_2" orient="auto" refX="6" refY="0" viewBox="-7 -7 14 14" markerWidth="7" markerHeight="7" markerUnits="userSpaceOnUse"><path id="kity_path_3" fill="rgb(115, 161, 191)" stroke="none" d="M6,0A6,6,0,1,1,-6,0A6,6,0,1,1,6,0"></path></marker></defs><g id="kity_g_8"><g id="minder1" text-rendering="optimize-speed"><g id="minder_connect_group1"><path id="kity_path_31" fill="none" stroke="rgb(115, 161, 191)" stroke-width="1" d="M801.0000114366412,799.5000047013164A175.5,0,0,0,1,976.5000114366412,799.5000047013164"></path><path id="kity_path_33" fill="none" stroke="rgb(115, 161, 191)" stroke-width="1" d="M1110.5000114366412,799.5000047013164C1125.5000114366412,799.5000047013164,1125.5000114366412,451.50000470131636,1140.5000114366412,451.50000470131636L1248.5000114366412,451.50000470131636"></path><path id="kity_path_35" fill="none" stroke="rgb(115, 161, 191)" stroke-width="1" d="M1248.5000114366412,451.50000470131636C1263.5000114366412,451.50000470131636,1263.5000114366412,321.50000470131636,1278.5000114366412,321.50000470131636L1371.5000114366412,321.50000470131636"></path><path id="kity_path_37" fill="none" stroke="rgb(115, 161, 191)" stroke-width="1" d="M1371.5000114366412,321.50000470131636C1386.5000114366412,321.50000470131636,1386.5000114366412,200.50000470131636,1401.5000114366412,200.50000470131636L1481.5000114366412,200.50000470131636"></path><path id="kity_path_39" fill="none" stroke="rgb(115, 161, 191)" stroke-width="1" d="M1481.5000114366412,200.50000470131636C1496.5000114366412,200.50000470131636,1496.5000114366412,44.50000470131636,1511.5000114366412,44.50000470131636L1838.5000114366412,44.50000470131636"></path><path id="kity_path_41" fill="none" stroke="rgb(115, 161, 191)" stroke-width="1" d="M1481.5000114366412,200.50000470131636C1496.5000114366412,200.50000470131636,1496.5000114366412,96.50000470131636,1511.5000114366412,96.50000470131636L2274.500011436641,96.50000470131636"></path><path id="kity_path_43" fill="none" stroke="rgb(115, 161, 191)" stroke-width="1" d="M1481.5000114366412,200.50000470131636C1496.5000114366412,200.50000470131636,1496.5000114366412,148.50000470131636,1511.5000114366412,148.50000470131636L1969.5000114366412,148.50000470131636"></path><path id="kity_path_45" fill="none" stroke="rgb(115, 161, 191)" stroke-width="1" d="M1481.5000114366412,200.50000470131636C1496.5000114366412,200.50000470131636,1496.5000114366412,200.50000470131636,1511.5000114366412,200.50000470131636L1688.5000114366412,200.50000470131636"></path><path id="kity_path_47" fill="none" stroke="rgb(115, 161, 191)" stroke-width="1" d="M1481.5000114366412,200.50000470131636C1496.5000114366412,200.50000470131636,1496.5000114366412,252.50000470131636,1511.5000114366412,252.50000470131636L1946.5000114366412,252.50000470131636"></path><path id="kity_path_49" fill="none" stroke="rgb(115, 161, 191)" stroke-width="1" d="M1481.5000114366412,200.50000470131636C1496.5000114366412,200.50000470131636,1496.5000114366412,304.50000470131636,1511.5000114366412,304.50000470131636L1779.5000114366412,304.50000470131636"></path><path id="kity_path_51" fill="none" stroke="rgb(115, 161, 191)" stroke-width="1" d="M1481.5000114366412,200.50000470131636C1496.5000114366412,200.50000470131636,1496.5000114366412,356.50000470131636,1511.5000114366412,356.50000470131636L1784.5000114366412,356.50000470131636"></path><path id="kity_path_53" fill="none" stroke="rgb(115, 161, 191)" stroke-width="1" d="M1371.5000114366412,321.50000470131636C1386.5000114366412,321.50000470131636,1386.5000114366412,443.50000470131636,1401.5000114366412,443.50000470131636L1469.5000114366412,443.50000470131636"></path><path id="kity_path_55" fill="none" stroke="rgb(115, 161, 191)" stroke-width="1" d="M1469.5000114366412,443.50000470131636C1484.5000114366412,443.50000470131636,1484.5000114366412,408.50000470131636,1499.5000114366412,408.50000470131636L1720.5000114366412,408.50000470131636"></path><path id="kity_path_57" fill="none" stroke="rgb(115, 161, 191)" stroke-width="1" d="M1469.5000114366412,443.50000470131636C1484.5000114366412,443.50000470131636,1484.5000114366412,478.50000470131636,1499.5000114366412,478.50000470131636L2091.500011436641,478.50000470131636"></path><path id="kity_path_59" fill="none" stroke="rgb(115, 161, 191)" stroke-width="1" d="M1248.5000114366412,451.50000470131636C1263.5000114366412,451.50000470131636,1263.5000114366412,581.5000047013164,1278.5000114366412,581.5000047013164L1381.5000114366412,581.5000047013164"></path><path id="kity_path_61" fill="none" stroke="rgb(115, 161, 191)" stroke-width="1" d="M1381.5000114366412,581.5000047013164C1396.5000114366412,581.5000047013164,1396.5000114366412,529.5000047013164,1411.5000114366412,529.5000047013164L1467.5000114366412,529.5000047013164"></path><path id="kity_path_63" fill="none" stroke="rgb(115, 161, 191)" stroke-width="1" d="M1381.5000114366412,581.5000047013164C1396.5000114366412,581.5000047013164,1396.5000114366412,581.5000047013164,1411.5000114366412,581.5000047013164L1485.5000114366412,581.5000047013164"></path><path id="kity_path_65" fill="none" stroke="rgb(115, 161, 191)" stroke-width="1" d="M1381.5000114366412,581.5000047013164C1396.5000114366412,581.5000047013164,1396.5000114366412,633.5000047013164,1411.5000114366412,633.5000047013164L1485.5000114366412,633.5000047013164"></path><path id="kity_path_67" fill="none" stroke="rgb(115, 161, 191)" stroke-width="1" d="M1485.5000114366412,633.5000047013164C1500.5000114366412,633.5000047013164,1500.5000114366412,633.5000047013164,1515.5000114366412,633.5000047013164L1807.5000114366412,633.5000047013164"></path><path id="kity_path_69" fill="none" stroke="rgb(115, 161, 191)" stroke-width="1" d="M1110.5000114366412,799.5000047013164C1125.5000114366412,799.5000047013164,1125.5000114366412,789.5000047013164,1140.5000114366412,789.5000047013164L1216.5000114366412,789.5000047013164"></path><path id="kity_path_71" fill="none" stroke="rgb(115, 161, 191)" stroke-width="1" d="M1216.5000114366412,789.5000047013164C1231.5000114366412,789.5000047013164,1231.5000114366412,685.5000047013164,1246.5000114366412,685.5000047013164L1359.5000114366412,685.5000047013164"></path><path id="kity_path_73" fill="none" stroke="rgb(115, 161, 191)" stroke-width="1" d="M1216.5000114366412,789.5000047013164C1231.5000114366412,789.5000047013164,1231.5000114366412,737.5000047013164,1246.5000114366412,737.5000047013164L1359.5000114366412,737.5000047013164"></path><path id="kity_path_75" fill="none" stroke="rgb(115, 161, 191)" stroke-width="1" d="M1216.5000114366412,789.5000047013164C1231.5000114366412,789.5000047013164,1231.5000114366412,789.5000047013164,1246.5000114366412,789.5000047013164L1370.5000114366412,789.5000047013164"></path><path id="kity_path_77" fill="none" stroke="rgb(115, 161, 191)" stroke-width="1" d="M1216.5000114366412,789.5000047013164C1231.5000114366412,789.5000047013164,1231.5000114366412,841.5000047013164,1246.5000114366412,841.5000047013164L1391.5000114366412,841.5000047013164"></path><path id="kity_path_79" fill="none" stroke="rgb(115, 161, 191)" stroke-width="1" d="M1216.5000114366412,789.5000047013164C1231.5000114366412,789.5000047013164,1231.5000114366412,893.5000047013164,1246.5000114366412,893.5000047013164L1465.5000114366412,893.5000047013164"></path><path id="kity_path_81" fill="none" stroke="rgb(115, 161, 191)" stroke-width="1" d="M1110.5000114366412,799.5000047013164C1125.5000114366412,799.5000047013164,1125.5000114366412,1034.5000047013164,1140.5000114366412,1034.5000047013164L1254.5000114366412,1034.5000047013164"></path><path id="kity_path_83" fill="none" stroke="rgb(115, 161, 191)" stroke-width="1" d="M1254.5000114366412,1034.5000047013164C1269.5000114366412,1034.5000047013164,1269.5000114366412,999.5000047013164,1284.5000114366412,999.5000047013164L1651.5000114366412,999.5000047013164"></path><path id="kity_path_85" fill="none" stroke="rgb(115, 161, 191)" stroke-width="1" d="M1254.5000114366412,1034.5000047013164C1269.5000114366412,1034.5000047013164,1269.5000114366412,1123.5000047013164,1284.5000114366412,1123.5000047013164L1484.5000114366412,1123.5000047013164"></path><path id="kity_path_87" fill="none" stroke="rgb(115, 161, 191)" stroke-width="1" d="M1110.5000114366412,799.5000047013164C1125.5000114366412,799.5000047013164,1125.5000114366412,1175.5000047013164,1140.5000114366412,1175.5000047013164L1202.5000114366412,1175.5000047013164"></path><path id="kity_path_89" fill="none" stroke="rgb(115, 161, 191)" stroke-width="1" d="M801.0000114366412,799.5000047013164A175.5,0,0,0,1,625.5000114366412,799.5000047013164"></path><path id="kity_path_91" fill="none" stroke="rgb(115, 161, 191)" stroke-width="1" d="M497.5000114366412,799.5000047013164C482.5000114366412,799.5000047013164,482.5000114366412,813.5000047013164,467.5000114366412,813.5000047013164L20.500011436641216,813.5000047013164"></path></g><g id="minder_node1"><path id="node_outline1" fill="rgb(115, 161, 191)" stroke="rgb(57, 80, 96)" d="M748.5000114366412,779.5000047013164h105a5,5,0,0,1,5,5v30a5,5,0,0,1,-5,5h-105a5,5,0,0,1,-5,-5v-30a5,5,0,0,1,5,-5z" stroke-width="3"></path><g id="node_text1" fill="white"><text id="kity_text_22" text-rendering="inherit" font-size="16" dy=".8em" y="789.1000046655536" x="767.5000114366412">operator</text></g></g><g id="kity_g_12"><path id="kity_path_13" fill="none" stroke="none" d="M767.5000114366412,799.5000047013164h0v0h0z"></path></g><g id="kity_g_14"><path id="kity_path_15" fill="none" stroke="none" d="M767.5000114366412,799.5000047013164h0v0h0z"></path><path id="kity_path_16" fill="none" stroke="none"></path></g><g id="minder_node2"><g id="node_expander29" style="cursor: pointer;"><path id="kity_path_278" fill="white" stroke="gray" d="M977.5000144764781,799.5000047013164A6,6,0,1,1,965.5000144764781,799.5000047013164A6,6,0,1,1,977.5000144764781,799.5000047013164"></path><path id="kity_path_279" fill="none" stroke="gray" d="M967.0000144764781,799.5000047013164L976.0000144764781,799.5000047013164"></path></g><path id="node_outline30" fill="rgb(238, 243, 246)" stroke="rgb(115, 161, 191)" d="M981.5000148788095,786.5000047013164h126a3,3,0,0,1,3,3v20a3,3,0,0,1,-3,3h-126a3,3,0,0,1,-3,-3v-20a3,3,0,0,1,3,-3z" stroke-width="1"></path><g id="node_text30" fill="black"><text id="kity_text_157" text-rendering="inherit" font-size="14" dy=".8em" y="790.4000046700239" x="998.5000148788095">operator 分类</text></g></g><g id="minder_node3"><g id="node_expander18" style="cursor: pointer;"><path id="kity_path_245" fill="white" stroke="gray" d="M1150.500017054379,437.499999307096A6,6,0,1,1,1138.500017054379,437.499999307096A6,6,0,1,1,1150.500017054379,437.499999307096"></path><path id="kity_path_246" fill="none" stroke="gray" d="M1140.000017054379,437.499999307096L1149.000017054379,437.499999307096"></path></g><path id="node_outline19" fill="none" stroke="none" d="M1155.5000172927976,426.499999307096h88a5,5,0,0,1,5,5v12a5,5,0,0,1,-5,5h-88a5,5,0,0,1,-5,-5v-12a5,5,0,0,1,5,-5z"></path><g id="node_text19" fill="black"><text id="kity_text_128" text-rendering="inherit" font-size="12" dy=".8em" y="429.6999992802739" x="1160.5000172927976">常用 operator</text></g></g><g id="minder_node4"><g id="node_expander12" style="cursor: pointer;"><path id="kity_path_227" fill="white" stroke="gray" d="M1288.5000191107392,307.49999736994505A6,6,0,1,1,1276.5000191107392,307.49999736994505A6,6,0,1,1,1288.5000191107392,307.49999736994505"></path><path id="kity_path_228" fill="none" stroke="gray" d="M1278.0000191107392,307.49999736994505L1287.0000191107392,307.49999736994505"></path></g><path id="node_outline13" fill="none" stroke="none" d="M1293.5000193491578,296.49999736994505h73a5,5,0,0,1,5,5v12a5,5,0,0,1,-5,5h-73a5,5,0,0,1,-5,-5v-12a5,5,0,0,1,5,-5z"></path><g id="node_text13" fill="black"><text id="kity_text_116" text-rendering="inherit" font-size="12" dy=".8em" y="299.69999734312296" x="1298.5000193491578">stream控制</text></g></g><g id="minder_node5"><g id="node_expander8" style="cursor: pointer;"><path id="kity_path_215" fill="white" stroke="gray" d="M1411.500020943582,186.49999556690454A6,6,0,1,1,1399.500020943582,186.49999556690454A6,6,0,1,1,1411.500020943582,186.49999556690454"></path><path id="kity_path_216" fill="none" stroke="gray" d="M1401.000020943582,186.49999556690454L1410.000020943582,186.49999556690454"></path></g><path id="node_outline9" fill="none" stroke="none" d="M1416.5000211820006,175.49999556690454h60a5,5,0,0,1,5,5v12a5,5,0,0,1,-5,5h-60a5,5,0,0,1,-5,-5v-12a5,5,0,0,1,5,-5z"></path><g id="node_text9" fill="black"><text id="kity_text_107" text-rendering="inherit" font-size="12" dy=".8em" y="178.69999554008245" x="1421.5000211820006">数据交换</text></g></g><g id="minder_node6"><g id="node_expander1" display="none" style="cursor: pointer;"><path id="kity_path_194" fill="white" stroke="gray" d="M1521.5000225827098,30.4999932423234A6,6,0,1,1,1509.5000225827098,30.4999932423234A6,6,0,1,1,1521.5000225827098,30.4999932423234"></path><path id="kity_path_195" fill="none" stroke="gray"></path></g><path id="node_outline2" fill="none" stroke="none" d="M1526.5000228211284,19.4999932423234h307a5,5,0,0,1,5,5v12a5,5,0,0,1,-5,5h-307a5,5,0,0,1,-5,-5v-12a5,5,0,0,1,5,-5z"></path><g id="node_text2" fill="black"><text id="kity_text_93" text-rendering="inherit" font-size="12" dy=".8em" y="22.69999321550131" x="1531.5000228211284">forward（算子间数据没有交换，算子链的工作模式。）</text></g></g><g id="minder_node7"><g id="node_expander2" display="none" style="cursor: pointer;"><path id="kity_path_197" fill="white" stroke="gray" d="M1521.5000225827098,82.49999401718378A6,6,0,1,1,1509.5000225827098,82.49999401718378A6,6,0,1,1,1521.5000225827098,82.49999401718378"></path><path id="kity_path_198" fill="none" stroke="gray"></path></g><path id="node_outline3" fill="none" stroke="none" d="M1526.5000228211284,71.49999401718378h743a5,5,0,0,1,5,5v12a5,5,0,0,1,-5,5h-743a5,5,0,0,1,-5,-5v-12a5,5,0,0,1,5,-5z"></path><g id="node_text3" fill="black"><text id="kity_text_95" text-rendering="inherit" font-size="12" dy=".8em" y="74.69999399036169" x="1531.5000228211284">rebalance：Round-ribon算法，轮询发送到下游。(默认不同并行度算子的数据交换交换方式。StreamGraph.addEdgeInternal 方法控制)</text></g></g><g id="minder_node8"><g id="node_expander3" display="none" style="cursor: pointer;"><path id="kity_path_200" fill="white" stroke="gray" d="M1521.5000225827098,134.49999479204416A6,6,0,1,1,1509.5000225827098,134.49999479204416A6,6,0,1,1,1521.5000225827098,134.49999479204416"></path><path id="kity_path_201" fill="none" stroke="gray"></path></g><path id="node_outline4" fill="none" stroke="none" d="M1526.5000228211284,123.49999479204416h438a5,5,0,0,1,5,5v12a5,5,0,0,1,-5,5h-438a5,5,0,0,1,-5,-5v-12a5,5,0,0,1,5,-5z"></path><g id="node_text4" fill="black"><text id="kity_text_97" text-rendering="inherit" font-size="12" dy=".8em" y="126.69999476522207" x="1531.5000228211284">rescale：将数据均匀的轮询到下游，与reblance 区别是只在同slot 下轮询发送。</text></g></g><g id="minder_node9"><g id="node_expander4" display="none" style="cursor: pointer;"><path id="kity_path_203" fill="white" stroke="gray" d="M1521.5000225827098,186.49999556690454A6,6,0,1,1,1509.5000225827098,186.49999556690454A6,6,0,1,1,1521.5000225827098,186.49999556690454"></path><path id="kity_path_204" fill="none" stroke="gray"></path></g><path id="node_outline5" fill="none" stroke="none" d="M1526.5000228211284,175.49999556690454h157a5,5,0,0,1,5,5v12a5,5,0,0,1,-5,5h-157a5,5,0,0,1,-5,-5v-12a5,5,0,0,1,5,-5z"></path><g id="node_text5" fill="black"><text id="kity_text_99" text-rendering="inherit" font-size="12" dy=".8em" y="178.69999554008245" x="1531.5000228211284">shuffle：随机发送到下游。</text></g></g><g id="minder_node10"><g id="node_expander5" display="none" style="cursor: pointer;"><path id="kity_path_206" fill="white" stroke="gray" d="M1521.5000225827098,238.49999634176493A6,6,0,1,1,1509.5000225827098,238.49999634176493A6,6,0,1,1,1521.5000225827098,238.49999634176493"></path><path id="kity_path_207" fill="none" stroke="gray"></path></g><path id="node_outline6" fill="none" stroke="none" d="M1526.5000228211284,227.49999634176493h415a5,5,0,0,1,5,5v12a5,5,0,0,1,-5,5h-415a5,5,0,0,1,-5,-5v-12a5,5,0,0,1,5,-5z"></path><g id="node_text6" fill="black"><text id="kity_text_101" text-rendering="inherit" font-size="12" dy=".8em" y="230.69999631494284" x="1531.5000228211284">broadcast：广播，将数据广播到下游所有分区，所有分区接收一样的数据。</text></g></g><g id="minder_node11"><g id="node_expander6" display="none" style="cursor: pointer;"><path id="kity_path_209" fill="white" stroke="gray" d="M1521.5000225827098,290.4999971166253A6,6,0,1,1,1509.5000225827098,290.4999971166253A6,6,0,1,1,1521.5000225827098,290.4999971166253"></path><path id="kity_path_210" fill="none" stroke="gray"></path></g><path id="node_outline7" fill="none" stroke="none" d="M1526.5000228211284,279.4999971166253h248a5,5,0,0,1,5,5v12a5,5,0,0,1,-5,5h-248a5,5,0,0,1,-5,-5v-12a5,5,0,0,1,5,-5z"></path><g id="node_text7" fill="black"><text id="kity_text_103" text-rendering="inherit" font-size="12" dy=".8em" y="282.6999970898032" x="1531.5000228211284">partitionCustom：用户自定义数据交换方式</text></g></g><g id="minder_node12"><g id="node_expander7" display="none" style="cursor: pointer;"><path id="kity_path_212" fill="white" stroke="gray" d="M1521.5000225827098,342.4999978914857A6,6,0,1,1,1509.5000225827098,342.4999978914857A6,6,0,1,1,1521.5000225827098,342.4999978914857"></path><path id="kity_path_213" fill="none" stroke="gray"></path></g><path id="node_outline8" fill="none" stroke="none" d="M1526.5000228211284,331.4999978914857h253a5,5,0,0,1,5,5v12a5,5,0,0,1,-5,5h-253a5,5,0,0,1,-5,-5v-12a5,5,0,0,1,5,-5z"></path><g id="node_text8" fill="black"><text id="kity_text_105" text-rendering="inherit" font-size="12" dy=".8em" y="334.6999978646636" x="1531.5000228211284">global： 所有数据发送到下游的某一个实例上</text></g></g><g id="minder_node13"><g id="node_expander11" style="cursor: pointer;"><path id="kity_path_224" fill="white" stroke="gray" d="M1411.500020943582,429.4999991878867A6,6,0,1,1,1399.500020943582,429.4999991878867A6,6,0,1,1,1411.500020943582,429.4999991878867"></path><path id="kity_path_225" fill="none" stroke="gray" d="M1401.000020943582,429.4999991878867L1410.000020943582,429.4999991878867"></path></g><path id="node_outline12" fill="none" stroke="none" d="M1416.5000211820006,418.4999991878867h48a5,5,0,0,1,5,5v12a5,5,0,0,1,-5,5h-48a5,5,0,0,1,-5,-5v-12a5,5,0,0,1,5,-5z"></path><g id="node_text12" fill="black"><text id="kity_text_114" text-rendering="inherit" font-size="12" dy=".8em" y="421.6999991610646" x="1421.5000211820006">流合并</text></g></g><g id="minder_node14"><g id="node_expander9" display="none" style="cursor: pointer;"><path id="kity_path_218" fill="white" stroke="gray" d="M1509.5000224038959,394.4999986663461A6,6,0,1,1,1497.5000224038959,394.4999986663461A6,6,0,1,1,1509.5000224038959,394.4999986663461"></path><path id="kity_path_219" fill="none" stroke="gray"></path></g><path id="node_outline10" fill="none" stroke="none" d="M1514.5000226423144,383.4999986663461h201a5,5,0,0,1,5,5v12a5,5,0,0,1,-5,5h-201a5,5,0,0,1,-5,-5v-12a5,5,0,0,1,5,-5z"></path><g id="node_text10" fill="black"><text id="kity_text_109" text-rendering="inherit" font-size="12" dy=".8em" y="386.699998639524" x="1519.5000226423144">union ：多个同类型 stream 合并。</text></g></g><g id="minder_node15"><g id="node_expander10" display="none" style="cursor: pointer;"><path id="kity_path_221" fill="white" stroke="gray" d="M1509.5000224038959,455.4999995753169A6,6,0,1,1,1497.5000224038959,455.4999995753169A6,6,0,1,1,1509.5000224038959,455.4999995753169"></path><path id="kity_path_222" fill="none" stroke="gray"></path></g><path id="node_outline11" fill="none" stroke="none" d="M1514.5000226423144,435.4999995753169h572a5,5,0,0,1,5,5v30a5,5,0,0,1,-5,5h-572a5,5,0,0,1,-5,-5v-30a5,5,0,0,1,5,-5z"></path><g id="node_text11" fill="black"><text id="kity_text_111" text-rendering="inherit" font-size="12" dy=".8em" y="438.6999995484948" x="1519.5000226423144">connect：只能合并两个流，流的格式可以不一样。一般其中一条流相当于信号，用于控制，算法等场景。</text><text id="kity_text_112" text-rendering="inherit" font-size="12" dy=".8em" y="456.6999995484948" x="1519.5000226423144">算子数据交换策略：</text></g></g><g id="minder_node16"><g id="node_expander17" style="cursor: pointer;"><path id="kity_path_242" fill="white" stroke="gray" d="M1288.5000191107392,567.500001244247A6,6,0,1,1,1276.5000191107392,567.500001244247A6,6,0,1,1,1288.5000191107392,567.500001244247"></path><path id="kity_path_243" fill="none" stroke="gray" d="M1278.0000191107392,567.500001244247L1287.0000191107392,567.500001244247"></path></g><path id="node_outline18" fill="none" stroke="none" d="M1293.5000193491578,556.500001244247h83a5,5,0,0,1,5,5v12a5,5,0,0,1,-5,5h-83a5,5,0,0,1,-5,-5v-12a5,5,0,0,1,5,-5z"></path><g id="node_text18" fill="black"><text id="kity_text_126" text-rendering="inherit" font-size="12" dy=".8em" y="559.7000012174249" x="1298.5000193491578">处理逻辑相关</text></g></g><g id="minder_node17"><g id="node_expander13" display="none" style="cursor: pointer;"><path id="kity_path_230" fill="white" stroke="gray" d="M1421.5000210925937,515.5000004693866A6,6,0,1,1,1409.5000210925937,515.5000004693866A6,6,0,1,1,1421.5000210925937,515.5000004693866"></path><path id="kity_path_231" fill="none" stroke="gray"></path></g><path id="node_outline14" fill="none" stroke="none" d="M1426.5000213310122,504.5000004693866h36a5,5,0,0,1,5,5v12a5,5,0,0,1,-5,5h-36a5,5,0,0,1,-5,-5v-12a5,5,0,0,1,5,-5z"></path><g id="node_text14" fill="black"><text id="kity_text_118" text-rendering="inherit" font-size="12" dy=".8em" y="507.7000004425645" x="1431.5000213310122">map</text></g></g><g id="minder_node18"><g id="node_expander14" display="none" style="cursor: pointer;"><path id="kity_path_233" fill="white" stroke="gray" d="M1421.5000210925937,567.500001244247A6,6,0,1,1,1409.5000210925937,567.500001244247A6,6,0,1,1,1421.5000210925937,567.500001244247"></path><path id="kity_path_234" fill="none" stroke="gray"></path></g><path id="node_outline15" fill="none" stroke="none" d="M1426.5000213310122,556.500001244247h54a5,5,0,0,1,5,5v12a5,5,0,0,1,-5,5h-54a5,5,0,0,1,-5,-5v-12a5,5,0,0,1,5,-5z"></path><g id="node_text15" fill="black"><text id="kity_text_120" text-rendering="inherit" font-size="12" dy=".8em" y="559.7000012174249" x="1431.5000213310122">flatmap</text></g></g><g id="minder_node19"><g id="node_expander16" style="cursor: pointer;"><path id="kity_path_239" fill="white" stroke="gray" d="M1421.5000210925937,619.5000020191073A6,6,0,1,1,1409.5000210925937,619.5000020191073A6,6,0,1,1,1421.5000210925937,619.5000020191073"></path><path id="kity_path_240" fill="none" stroke="gray" d="M1411.0000210925937,619.5000020191073L1420.0000210925937,619.5000020191073"></path></g><path id="node_outline17" fill="none" stroke="none" d="M1426.5000213310122,608.5000020191073h54a5,5,0,0,1,5,5v12a5,5,0,0,1,-5,5h-54a5,5,0,0,1,-5,-5v-12a5,5,0,0,1,5,-5z"></path><g id="node_text17" fill="black"><text id="kity_text_124" text-rendering="inherit" font-size="12" dy=".8em" y="611.7000019922853" x="1431.5000213310122">process</text></g></g><g id="minder_node20"><g id="node_expander15" display="none" style="cursor: pointer;"><path id="kity_path_236" fill="white" stroke="gray" d="M1525.5000226423144,619.5000020191073A6,6,0,1,1,1513.5000226423144,619.5000020191073A6,6,0,1,1,1525.5000226423144,619.5000020191073"></path><path id="kity_path_237" fill="none" stroke="gray"></path></g><path id="node_outline16" fill="none" stroke="none" d="M1530.500022880733,608.5000020191073h272a5,5,0,0,1,5,5v12a5,5,0,0,1,-5,5h-272a5,5,0,0,1,-5,-5v-12a5,5,0,0,1,5,-5z"></path><g id="node_text16" fill="black"><text id="kity_text_122" text-rendering="inherit" font-size="12" dy=".8em" y="611.7000019922853" x="1535.500022880733">用户定义逻辑，通过实现ProcessFunction类实现</text></g></g><g id="minder_node21"><g id="node_expander24" style="cursor: pointer;"><path id="kity_path_263" fill="white" stroke="gray" d="M1150.500017054379,775.5000043436885A6,6,0,1,1,1138.500017054379,775.5000043436885A6,6,0,1,1,1150.500017054379,775.5000043436885"></path><path id="kity_path_264" fill="none" stroke="gray" d="M1140.000017054379,775.5000043436885L1149.000017054379,775.5000043436885"></path></g><path id="node_outline25" fill="none" stroke="none" d="M1155.5000172927976,764.5000043436885h56a5,5,0,0,1,5,5v12a5,5,0,0,1,-5,5h-56a5,5,0,0,1,-5,-5v-12a5,5,0,0,1,5,-5z"></path><g id="node_text25" fill="black"><text id="kity_text_140" text-rendering="inherit" font-size="12" dy=".8em" y="767.7000043168664" x="1160.5000172927976">window</text></g></g><g id="minder_node22"><g id="node_expander19" display="none" style="cursor: pointer;"><path id="kity_path_248" fill="white" stroke="gray" d="M1256.500018633902,671.5000027939677A6,6,0,1,1,1244.500018633902,671.5000027939677A6,6,0,1,1,1256.500018633902,671.5000027939677"></path><path id="kity_path_249" fill="none" stroke="gray"></path></g><path id="node_outline20" fill="none" stroke="none" d="M1261.5000188723207,660.5000027939677h93a5,5,0,0,1,5,5v12a5,5,0,0,1,-5,5h-93a5,5,0,0,1,-5,-5v-12a5,5,0,0,1,5,-5z"></path><g id="node_text20" fill="black"><text id="kity_text_130" text-rendering="inherit" font-size="12" dy=".8em" y="663.7000027671456" x="1266.5000188723207">trigger(触发器)</text></g></g><g id="minder_node23"><g id="node_expander20" display="none" style="cursor: pointer;"><path id="kity_path_251" fill="white" stroke="gray" d="M1256.500018633902,723.5000035688281A6,6,0,1,1,1244.500018633902,723.5000035688281A6,6,0,1,1,1256.500018633902,723.5000035688281"></path><path id="kity_path_252" fill="none" stroke="gray"></path></g><path id="node_outline21" fill="none" stroke="none" d="M1261.5000188723207,712.5000035688281h93a5,5,0,0,1,5,5v12a5,5,0,0,1,-5,5h-93a5,5,0,0,1,-5,-5v-12a5,5,0,0,1,5,-5z"></path><g id="node_text21" fill="black"><text id="kity_text_132" text-rendering="inherit" font-size="12" dy=".8em" y="715.700003542006" x="1266.5000188723207">evictor(清除器)</text></g></g><g id="minder_node24"><g id="node_expander21" display="none" style="cursor: pointer;"><path id="kity_path_254" fill="white" stroke="gray" d="M1256.500018633902,775.5000043436885A6,6,0,1,1,1244.500018633902,775.5000043436885A6,6,0,1,1,1256.500018633902,775.5000043436885"></path><path id="kity_path_255" fill="none" stroke="gray"></path></g><path id="node_outline22" fill="none" stroke="none" d="M1261.5000188723207,764.5000043436885h104a5,5,0,0,1,5,5v12a5,5,0,0,1,-5,5h-104a5,5,0,0,1,-5,-5v-12a5,5,0,0,1,5,-5z"></path><g id="node_text22" fill="black"><text id="kity_text_134" text-rendering="inherit" font-size="12" dy=".8em" y="767.7000043168664" x="1266.5000188723207">allowedLateness</text></g></g><g id="minder_node25"><g id="node_expander22" display="none" style="cursor: pointer;"><path id="kity_path_257" fill="white" stroke="gray" d="M1256.500018633902,827.5000051185489A6,6,0,1,1,1244.500018633902,827.5000051185489A6,6,0,1,1,1256.500018633902,827.5000051185489"></path><path id="kity_path_258" fill="none" stroke="gray"></path></g><path id="node_outline23" fill="none" stroke="none" d="M1261.5000188723207,816.5000051185489h125a5,5,0,0,1,5,5v12a5,5,0,0,1,-5,5h-125a5,5,0,0,1,-5,-5v-12a5,5,0,0,1,5,-5z"></path><g id="node_text23" fill="black"><text id="kity_text_136" text-rendering="inherit" font-size="12" dy=".8em" y="819.7000050917268" x="1266.5000188723207">sideOutputLateData</text></g></g><g id="minder_node26"><g id="node_expander23" display="none" style="cursor: pointer;"><path id="kity_path_260" fill="white" stroke="gray" d="M1256.500018633902,879.5000058934093A6,6,0,1,1,1244.500018633902,879.5000058934093A6,6,0,1,1,1256.500018633902,879.5000058934093"></path><path id="kity_path_261" fill="none" stroke="gray"></path></g><path id="node_outline24" fill="none" stroke="none" d="M1261.5000188723207,868.5000058934093h199a5,5,0,0,1,5,5v12a5,5,0,0,1,-5,5h-199a5,5,0,0,1,-5,-5v-12a5,5,0,0,1,5,-5z"></path><g id="node_text24" fill="black"><text id="kity_text_138" text-rendering="inherit" font-size="12" dy=".8em" y="871.7000058665872" x="1266.5000188723207">操作方法reduce/aggregate/apply</text></g></g><g id="minder_node27"><g id="node_expander27" style="cursor: pointer;"><path id="kity_path_272" fill="white" stroke="gray" d="M1150.500017054379,1020.500007994473A6,6,0,1,1,1138.500017054379,1020.500007994473A6,6,0,1,1,1150.500017054379,1020.500007994473"></path><path id="kity_path_273" fill="none" stroke="gray" d="M1140.000017054379,1020.500007994473L1149.000017054379,1020.500007994473"></path></g><path id="node_outline28" fill="none" stroke="none" d="M1155.5000172927976,1009.500007994473h94a5,5,0,0,1,5,5v12a5,5,0,0,1,-5,5h-94a5,5,0,0,1,-5,-5v-12a5,5,0,0,1,5,-5z"></path><g id="node_text28" fill="black"><text id="kity_text_153" text-rendering="inherit" font-size="12" dy=".8em" y="1012.7000079676509" x="1160.5000172927976">join/Cogroups </text></g></g><g id="minder_node28"><g id="node_expander25" display="none" style="cursor: pointer;"><path id="kity_path_266" fill="white" stroke="gray" d="M1294.5000192001462,958.500007070601A6,6,0,1,1,1282.5000192001462,958.500007070601A6,6,0,1,1,1294.5000192001462,958.500007070601"></path><path id="kity_path_267" fill="none" stroke="gray"></path></g><path id="node_outline26" fill="none" stroke="none" d="M1299.5000194385648,920.500007070601h347a5,5,0,0,1,5,5v66a5,5,0,0,1,-5,5h-347a5,5,0,0,1,-5,-5v-66a5,5,0,0,1,5,-5z"></path><g id="node_text26" fill="black"><text id="kity_text_142" text-rendering="inherit" font-size="12" dy=".8em" y="923.7000070437789" x="1304.5000194385648">dataStream.coGroup(otherStream)</text><text id="kity_text_143" text-rendering="inherit" font-size="12" dy=".8em" y="941.7000070437789" x="1304.5000194385648">.where(0).equalTo(1)</text><text id="kity_text_144" text-rendering="inherit" font-size="12" dy=".8em" y="959.7000070437789" x="1304.5000194385648">.window(TumblingEventTimeWindows.of(Time.seconds(3)))</text><text id="kity_text_145" text-rendering="inherit" font-size="12" dy=".8em" y="977.7000070437789" x="1304.5000194385648">.apply (new CoGroupFunction () {...});</text></g></g><g id="minder_node29"><g id="node_expander26" display="none" style="cursor: pointer;"><path id="kity_path_269" fill="white" stroke="gray" d="M1294.5000192001462,1073.5000087842345A6,6,0,1,1,1282.5000192001462,1073.5000087842345A6,6,0,1,1,1294.5000192001462,1073.5000087842345"></path><path id="kity_path_270" fill="none" stroke="gray"></path></g><path id="node_outline27" fill="none" stroke="none" d="M1299.5000194385648,1026.5000087842345h180a5,5,0,0,1,5,5v84a5,5,0,0,1,-5,5h-180a5,5,0,0,1,-5,-5v-84a5,5,0,0,1,5,-5z"></path><g id="node_text27" fill="black"><text id="kity_text_147" text-rendering="inherit" font-size="12" dy=".8em" y="1029.7000087574124" x="1304.5000194385648">stream.join(otherStream)</text><text id="kity_text_148" text-rendering="inherit" font-size="12" dy=".8em" y="1047.7000087574124" x="1304.5000194385648">.where(&lt;KeySelector&gt;)</text><text id="kity_text_149" text-rendering="inherit" font-size="12" dy=".8em" y="1065.7000087574124" x="1304.5000194385648">.equalTo(&lt;KeySelector&gt;)</text><text id="kity_text_150" text-rendering="inherit" font-size="12" dy=".8em" y="1083.7000087574124" x="1304.5000194385648">.window(&lt;WindowAssigner&gt;)</text><text id="kity_text_151" text-rendering="inherit" font-size="12" dy=".8em" y="1101.7000087574124" x="1304.5000194385648">.apply(&lt;JoinFunction&gt;)</text></g></g><g id="minder_node30"><g id="node_expander28" display="none" style="cursor: pointer;"><path id="kity_path_275" fill="white" stroke="gray" d="M1150.500017054379,1161.5000100955367A6,6,0,1,1,1138.500017054379,1161.5000100955367A6,6,0,1,1,1150.500017054379,1161.5000100955367"></path><path id="kity_path_276" fill="none" stroke="gray"></path></g><path id="node_outline29" fill="none" stroke="none" d="M1155.5000172927976,1150.5000100955367h42a5,5,0,0,1,5,5v12a5,5,0,0,1,-5,5h-42a5,5,0,0,1,-5,-5v-12a5,5,0,0,1,5,-5z"></path><g id="node_text29" fill="black"><text id="kity_text_155" text-rendering="inherit" font-size="12" dy=".8em" y="1153.7000100687146" x="1160.5000172927976">async</text></g></g><g id="minder_node31"><g id="node_expander31" style="cursor: pointer;"><path id="kity_path_284" fill="white" stroke="gray" d="M636.5000093951821,799.5000047013164A6,6,0,1,1,624.5000093951821,799.5000047013164A6,6,0,1,1,636.5000093951821,799.5000047013164"></path><path id="kity_path_285" fill="none" stroke="gray" d="M626.0000093951821,799.5000047013164L635.0000093951821,799.5000047013164"></path></g><path id="node_outline32" fill="rgb(238, 243, 246)" stroke="rgb(115, 161, 191)" d="M500.5000077113509,786.5000047013164h120a3,3,0,0,1,3,3v20a3,3,0,0,1,-3,3h-120a3,3,0,0,1,-3,-3v-20a3,3,0,0,1,3,-3z" stroke-width="1"></path><g id="node_text32" fill="black"><text id="kity_text_161" text-rendering="inherit" font-size="14" dy=".8em" y="790.4000046700239" x="517.5000077113509">operator作用</text></g></g><g id="minder_node32"><g id="node_expander30" display="none" style="cursor: pointer;"><path id="kity_path_281" fill="white" stroke="gray" d="M469.5000069066882,799.5000047013164A6,6,0,1,1,457.5000069066882,799.5000047013164A6,6,0,1,1,469.5000069066882,799.5000047013164"></path><path id="kity_path_282" fill="none" stroke="gray"></path></g><path id="node_outline31" fill="none" stroke="none" d="M25.500000454485416,788.5000047013164h427a5,5,0,0,1,5,5v12a5,5,0,0,1,-5,5h-427a5,5,0,0,1,-5,-5v-12a5,5,0,0,1,5,-5z"></path><g id="node_text31" fill="black"><text id="kity_text_159" text-rendering="inherit" font-size="12" dy=".8em" y="791.7000046744943" x="30.500000454485416">实现操作的同时改变流如：keyed实现分组，把 DataStream -&gt; KeyedStream</text></g></g></g></g></svg>