<svg id="kity_svg_6" xmlns="http://www.w3.org/2000/svg" xmlns:xlink="http://www.w3.org/1999/xlink" version="1.1" width="1454" height="585" style="background: rgb(251, 251, 251); visibility: visible;" viewBox="0 0 1454 585"><defs id="kity_defs_7"><linearGradient id="kity_linearGradient_17" x1="0" y1="0" x2="0" y2="1"><stop id="kity_stop_18" offset="0" stop-color="rgb(255, 255, 255)"></stop><stop id="kity_stop_19" offset="1" stop-color="rgb(204, 204, 204)"></stop></linearGradient><marker id="kity_marker_2" orient="auto" refX="6" refY="0" viewBox="-7 -7 14 14" markerWidth="7" markerHeight="7" markerUnits="userSpaceOnUse"><path id="kity_path_3" fill="rgb(115, 161, 191)" stroke="none" d="M6,0A6,6,0,1,1,-6,0A6,6,0,1,1,6,0"></path></marker></defs><g id="kity_g_8"><g id="minder1" text-rendering="optimize-speed"><g id="minder_connect_group1"><path id="kity_path_31" fill="none" stroke="rgb(115, 161, 191)" stroke-width="1" d="M141.99999874085188,330.5000064596534A239.5,0,0,0,1,381.4999987408519,330.5000064596534"></path><path id="kity_path_33" fill="none" stroke="rgb(115, 161, 191)" stroke-width="1" d="M734.4999987408519,330.5000064596534C749.4999987408519,330.5000064596534,749.4999987408519,123.50000645965338,764.4999987408519,123.50000645965338L861.4999987408519,123.50000645965338"></path><path id="kity_path_35" fill="none" stroke="rgb(115, 161, 191)" stroke-width="1" d="M861.4999987408519,123.50000645965338C876.4999987408519,123.50000645965338,876.4999987408519,45.50000645965338,891.4999987408519,45.50000645965338L1198.4999987408519,45.50000645965338"></path><path id="kity_path_37" fill="none" stroke="rgb(115, 161, 191)" stroke-width="1" d="M861.4999987408519,123.50000645965338C876.4999987408519,123.50000645965338,876.4999987408519,97.50000645965338,891.4999987408519,97.50000645965338L1070.4999987408519,97.50000645965338"></path><path id="kity_path_39" fill="none" stroke="rgb(115, 161, 191)" stroke-width="1" d="M861.4999987408519,123.50000645965338C876.4999987408519,123.50000645965338,876.4999987408519,149.50000645965338,891.4999987408519,149.50000645965338L1064.4999987408519,149.50000645965338"></path><path id="kity_path_41" fill="none" stroke="rgb(115, 161, 191)" stroke-width="1" d="M861.4999987408519,123.50000645965338C876.4999987408519,123.50000645965338,876.4999987408519,201.50000645965338,891.4999987408519,201.50000645965338L1088.4999987408519,201.50000645965338"></path><path id="kity_path_43" fill="none" stroke="rgb(115, 161, 191)" stroke-width="1" d="M734.4999987408519,330.5000064596534C749.4999987408519,330.5000064596534,749.4999987408519,279.5000064596534,764.4999987408519,279.5000064596534L864.4999987408519,279.5000064596534"></path><path id="kity_path_45" fill="none" stroke="rgb(115, 161, 191)" stroke-width="1" d="M864.4999987408519,279.5000064596534C879.4999987408519,279.5000064596534,879.4999987408519,253.50000645965338,894.4999987408519,253.50000645965338L1027.4999987408519,253.50000645965338"></path><path id="kity_path_47" fill="none" stroke="rgb(115, 161, 191)" stroke-width="1" d="M864.4999987408519,279.5000064596534C879.4999987408519,279.5000064596534,879.4999987408519,305.5000064596534,894.4999987408519,305.5000064596534L1434.4999987408519,305.5000064596534"></path><path id="kity_path_49" fill="none" stroke="rgb(115, 161, 191)" stroke-width="1" d="M734.4999987408519,330.5000064596534C749.4999987408519,330.5000064596534,749.4999987408519,357.5000064596534,764.4999987408519,357.5000064596534L1357.4999987408519,357.5000064596534"></path><path id="kity_path_51" fill="none" stroke="rgb(115, 161, 191)" stroke-width="1" d="M734.4999987408519,330.5000064596534C749.4999987408519,330.5000064596534,749.4999987408519,435.5000064596534,764.4999987408519,435.5000064596534L831.4999987408519,435.5000064596534"></path><path id="kity_path_53" fill="none" stroke="rgb(115, 161, 191)" stroke-width="1" d="M831.4999987408519,435.5000064596534C846.4999987408519,435.5000064596534,846.4999987408519,409.5000064596534,861.4999987408519,409.5000064596534L983.4999987408519,409.5000064596534"></path><path id="kity_path_55" fill="none" stroke="rgb(115, 161, 191)" stroke-width="1" d="M831.4999987408519,435.5000064596534C846.4999987408519,435.5000064596534,846.4999987408519,461.5000064596534,861.4999987408519,461.5000064596534L998.4999987408519,461.5000064596534"></path><path id="kity_path_57" fill="none" stroke="rgb(115, 161, 191)" stroke-width="1" d="M734.4999987408519,330.5000064596534C749.4999987408519,330.5000064596534,749.4999987408519,513.5000064596534,764.4999987408519,513.5000064596534L854.4999987408519,513.5000064596534"></path><path id="kity_path_59" fill="none" stroke="rgb(115, 161, 191)" stroke-width="1" d="M854.4999987408519,513.5000064596534C869.4999987408519,513.5000064596534,869.4999987408519,513.5000064596534,884.4999987408519,513.5000064596534L998.4999987408519,513.5000064596534"></path><path id="kity_path_61" fill="none" stroke="rgb(115, 161, 191)" stroke-width="1" d="M734.4999987408519,330.5000064596534C749.4999987408519,330.5000064596534,749.4999987408519,565.5000064596534,764.4999987408519,565.5000064596534L820.4999987408519,565.5000064596534"></path><path id="kity_path_63" fill="none" stroke="rgb(115, 161, 191)" stroke-width="1" d="M820.4999987408519,565.5000064596534C835.4999987408519,565.5000064596534,835.4999987408519,565.5000064596534,850.4999987408519,565.5000064596534L992.4999987408519,565.5000064596534"></path></g><g id="minder_node1"><path id="node_outline1" fill="rgb(115, 161, 191)" stroke="rgb(57, 80, 96)" d="M25.49999874085188,310.5000064596534h233a5,5,0,0,1,5,5v30a5,5,0,0,1,-5,5h-233a5,5,0,0,1,-5,-5v-30a5,5,0,0,1,5,-5z" stroke-width="3"></path><g id="node_text1" fill="white"><text id="kity_text_22" text-rendering="inherit" font-size="16" dy=".8em" y="320.1000064238906" x="44.49999874085188">stream(抽象概念的stream)</text></g></g><g id="kity_g_12"><path id="kity_path_13" fill="none" stroke="none" d="M44.49999874085188,330.5000064596534h0v0h0z"></path></g><g id="kity_g_14"><path id="kity_path_15" fill="none" stroke="none" d="M44.49999874085188,330.5000064596534h0v0h0z"></path><path id="kity_path_16" fill="none" stroke="none"></path></g><g id="minder_node2"><g id="node_expander17" style="cursor: pointer;"><path id="kity_path_164" fill="white" stroke="gray" d="M382.5000036880374,330.5000064596534A6,6,0,1,1,370.5000036880374,330.5000064596534A6,6,0,1,1,382.5000036880374,330.5000064596534"></path><path id="kity_path_165" fill="none" stroke="gray" d="M372.0000036880374,330.5000064596534L381.0000036880374,330.5000064596534"></path></g><path id="node_outline18" fill="rgb(238, 243, 246)" stroke="rgb(115, 161, 191)" d="M386.50000409036875,317.5000064596534h345a3,3,0,0,1,3,3v20a3,3,0,0,1,-3,3h-345a3,3,0,0,1,-3,-3v-20a3,3,0,0,1,3,-3z" stroke-width="1"></path><g id="node_text18" fill="black"><text id="kity_text_97" text-rendering="inherit" font-size="14" dy=".8em" y="321.40000642836094" x="403.50000409036875">org.apache.flink.streaming.api.datastream.XXX</text></g></g><g id="minder_node3"><g id="node_expander5" style="cursor: pointer;"><path id="kity_path_128" fill="white" stroke="gray" d="M774.5000095292926,109.50000316649675A6,6,0,1,1,762.5000095292926,109.50000316649675A6,6,0,1,1,774.5000095292926,109.50000316649675"></path><path id="kity_path_129" fill="none" stroke="gray" d="M764.0000095292926,109.50000316649675L773.0000095292926,109.50000316649675"></path></g><path id="node_outline6" fill="none" stroke="none" d="M779.5000097677112,98.50000316649675h77a5,5,0,0,1,5,5v12a5,5,0,0,1,-5,5h-77a5,5,0,0,1,-5,-5v-12a5,5,0,0,1,5,-5z"></path><g id="node_text6" fill="black"><text id="kity_text_73" text-rendering="inherit" font-size="12" dy=".8em" y="101.70000313967466" x="784.5000097677112">DataStream</text></g></g><g id="minder_node4"><g id="node_expander1" display="none" style="cursor: pointer;"><path id="kity_path_116" fill="white" stroke="gray" d="M901.50001142174,31.50000200420618A6,6,0,1,1,889.50001142174,31.50000200420618A6,6,0,1,1,901.50001142174,31.50000200420618"></path><path id="kity_path_117" fill="none" stroke="gray"></path></g><path id="node_outline2" fill="none" stroke="none" d="M906.5000116601586,20.50000200420618h287a5,5,0,0,1,5,5v12a5,5,0,0,1,-5,5h-287a5,5,0,0,1,-5,-5v-12a5,5,0,0,1,5,-5z"></path><g id="node_text2" fill="black"><text id="kity_text_65" text-rendering="inherit" font-size="12" dy=".8em" y="23.70000197738409" x="911.5000116601586">SingleOutputStreamOperator（单一数据类型流）</text></g></g><g id="minder_node5"><g id="node_expander2" display="none" style="cursor: pointer;"><path id="kity_path_119" fill="white" stroke="gray" d="M901.50001142174,83.50000277906656A6,6,0,1,1,889.50001142174,83.50000277906656A6,6,0,1,1,901.50001142174,83.50000277906656"></path><path id="kity_path_120" fill="none" stroke="gray"></path></g><path id="node_outline3" fill="none" stroke="none" d="M906.5000116601586,72.50000277906656h159a5,5,0,0,1,5,5v12a5,5,0,0,1,-5,5h-159a5,5,0,0,1,-5,-5v-12a5,5,0,0,1,5,-5z"></path><g id="node_text3" fill="black"><text id="kity_text_67" text-rendering="inherit" font-size="12" dy=".8em" y="75.70000275224447" x="911.5000116601586">JoinedStreams(双流join流)</text></g></g><g id="minder_node6"><g id="node_expander3" display="none" style="cursor: pointer;"><path id="kity_path_122" fill="white" stroke="gray" d="M901.50001142174,135.50000355392694A6,6,0,1,1,889.50001142174,135.50000355392694A6,6,0,1,1,901.50001142174,135.50000355392694"></path><path id="kity_path_123" fill="none" stroke="gray"></path></g><path id="node_outline4" fill="none" stroke="none" d="M906.5000116601586,124.50000355392694h153a5,5,0,0,1,5,5v12a5,5,0,0,1,-5,5h-153a5,5,0,0,1,-5,-5v-12a5,5,0,0,1,5,-5z"></path><g id="node_text4" fill="black"><text id="kity_text_69" text-rendering="inherit" font-size="12" dy=".8em" y="127.70000352710485" x="911.5000116601586">IterativeStream(特殊回调)</text></g></g><g id="minder_node7"><g id="node_expander4" display="none" style="cursor: pointer;"><path id="kity_path_125" fill="white" stroke="gray" d="M901.50001142174,187.50000432878733A6,6,0,1,1,889.50001142174,187.50000432878733A6,6,0,1,1,901.50001142174,187.50000432878733"></path><path id="kity_path_126" fill="none" stroke="gray"></path></g><path id="node_outline5" fill="none" stroke="none" d="M906.5000116601586,176.50000432878733h177a5,5,0,0,1,5,5v12a5,5,0,0,1,-5,5h-177a5,5,0,0,1,-5,-5v-12a5,5,0,0,1,5,-5z"></path><g id="node_text5" fill="black"><text id="kity_text_71" text-rendering="inherit" font-size="12" dy=".8em" y="179.70000430196524" x="911.5000116601586">KeyedStream(数据分组后的流)</text></g></g><g id="minder_node8"><g id="node_expander8" style="cursor: pointer;"><path id="kity_path_137" fill="white" stroke="gray" d="M774.5000095292926,265.5000054910779A6,6,0,1,1,762.5000095292926,265.5000054910779A6,6,0,1,1,774.5000095292926,265.5000054910779"></path><path id="kity_path_138" fill="none" stroke="gray" d="M764.0000095292926,265.5000054910779L773.0000095292926,265.5000054910779"></path></g><path id="node_outline9" fill="none" stroke="none" d="M779.5000097677112,254.5000054910779h80a5,5,0,0,1,5,5v12a5,5,0,0,1,-5,5h-80a5,5,0,0,1,-5,-5v-12a5,5,0,0,1,5,-5z"></path><g id="node_text9" fill="black"><text id="kity_text_79" text-rendering="inherit" font-size="12" dy=".8em" y="257.7000054642558" x="784.5000097677112">window相关</text></g></g><g id="minder_node9"><g id="node_expander6" display="none" style="cursor: pointer;"><path id="kity_path_131" fill="white" stroke="gray" d="M904.5000114664435,239.5000051036477A6,6,0,1,1,892.5000114664435,239.5000051036477A6,6,0,1,1,904.5000114664435,239.5000051036477"></path><path id="kity_path_132" fill="none" stroke="gray"></path></g><path id="node_outline7" fill="none" stroke="none" d="M909.5000117048621,228.5000051036477h113a5,5,0,0,1,5,5v12a5,5,0,0,1,-5,5h-113a5,5,0,0,1,-5,-5v-12a5,5,0,0,1,5,-5z"></path><g id="node_text7" fill="black"><text id="kity_text_75" text-rendering="inherit" font-size="12" dy=".8em" y="231.70000507682562" x="914.5000117048621">WindowedStream</text></g></g><g id="minder_node10"><g id="node_expander7" display="none" style="cursor: pointer;"><path id="kity_path_134" fill="white" stroke="gray" d="M904.5000114664435,291.5000058785081A6,6,0,1,1,892.5000114664435,291.5000058785081A6,6,0,1,1,904.5000114664435,291.5000058785081"></path><path id="kity_path_135" fill="none" stroke="gray"></path></g><path id="node_outline8" fill="none" stroke="none" d="M909.5000117048621,280.5000058785081h520a5,5,0,0,1,5,5v12a5,5,0,0,1,-5,5h-520a5,5,0,0,1,-5,-5v-12a5,5,0,0,1,5,-5z"></path><g id="node_text8" fill="black"><text id="kity_text_77" text-rendering="inherit" font-size="12" dy=".8em" y="283.700005851686" x="914.5000117048621">AllWindowedStream（所有数据不经过keyed 分组放入到一个窗口中，并行度只能为1的窗口）</text></g></g><g id="minder_node11"><g id="node_expander9" display="none" style="cursor: pointer;"><path id="kity_path_140" fill="white" stroke="gray" d="M774.5000095292926,343.5000066533685A6,6,0,1,1,762.5000095292926,343.5000066533685A6,6,0,1,1,774.5000095292926,343.5000066533685"></path><path id="kity_path_141" fill="none" stroke="gray"></path></g><path id="node_outline10" fill="none" stroke="none" d="M779.5000097677112,332.5000066533685h573a5,5,0,0,1,5,5v12a5,5,0,0,1,-5,5h-573a5,5,0,0,1,-5,-5v-12a5,5,0,0,1,5,-5z"></path><g id="node_text10" fill="black"><text id="kity_text_81" text-rendering="inherit" font-size="12" dy=".8em" y="335.7000066265464" x="784.5000097677112">keyedStream(虽然是 DataStream的子类，但是它是特殊的，涉及到状态，应该跟 DataStream 同一层次)</text></g></g><g id="minder_node12"><g id="node_expander12" style="cursor: pointer;"><path id="kity_path_149" fill="white" stroke="gray" d="M774.5000095292926,421.50000781565905A6,6,0,1,1,762.5000095292926,421.50000781565905A6,6,0,1,1,774.5000095292926,421.50000781565905"></path><path id="kity_path_150" fill="none" stroke="gray" d="M764.0000095292926,421.50000781565905L773.0000095292926,421.50000781565905"></path></g><path id="node_outline13" fill="none" stroke="none" d="M779.5000097677112,410.50000781565905h47a5,5,0,0,1,5,5v12a5,5,0,0,1,-5,5h-47a5,5,0,0,1,-5,-5v-12a5,5,0,0,1,5,-5z"></path><g id="node_text13" fill="black"><text id="kity_text_87" text-rendering="inherit" font-size="12" dy=".8em" y="413.70000778883696" x="784.5000097677112">源相关</text></g></g><g id="minder_node13"><g id="node_expander10" display="none" style="cursor: pointer;"><path id="kity_path_143" fill="white" stroke="gray" d="M871.5000109747052,395.50000742822886A6,6,0,1,1,859.5000109747052,395.50000742822886A6,6,0,1,1,871.5000109747052,395.50000742822886"></path><path id="kity_path_144" fill="none" stroke="gray"></path></g><path id="node_outline11" fill="none" stroke="none" d="M876.5000112131238,384.50000742822886h102a5,5,0,0,1,5,5v12a5,5,0,0,1,-5,5h-102a5,5,0,0,1,-5,-5v-12a5,5,0,0,1,5,-5z"></path><g id="node_text11" fill="black"><text id="kity_text_83" text-rendering="inherit" font-size="12" dy=".8em" y="387.70000740140676" x="881.5000112131238">DataStreamSink</text></g></g><g id="minder_node14"><g id="node_expander11" display="none" style="cursor: pointer;"><path id="kity_path_146" fill="white" stroke="gray" d="M871.5000109747052,447.50000820308924A6,6,0,1,1,859.5000109747052,447.50000820308924A6,6,0,1,1,871.5000109747052,447.50000820308924"></path><path id="kity_path_147" fill="none" stroke="gray"></path></g><path id="node_outline12" fill="none" stroke="none" d="M876.5000112131238,436.50000820308924h117a5,5,0,0,1,5,5v12a5,5,0,0,1,-5,5h-117a5,5,0,0,1,-5,-5v-12a5,5,0,0,1,5,-5z"></path><g id="node_text12" fill="black"><text id="kity_text_85" text-rendering="inherit" font-size="12" dy=".8em" y="439.70000817626715" x="881.5000112131238">DataStreamSource</text></g></g><g id="minder_node15"><g id="node_expander14" style="cursor: pointer;"><path id="kity_path_155" fill="white" stroke="gray" d="M774.5000095292926,499.5000089779496A6,6,0,1,1,762.5000095292926,499.5000089779496A6,6,0,1,1,774.5000095292926,499.5000089779496"></path><path id="kity_path_156" fill="none" stroke="gray" d="M764.0000095292926,499.5000089779496L773.0000095292926,499.5000089779496"></path></g><path id="node_outline15" fill="none" stroke="none" d="M779.5000097677112,488.5000089779496h70a5,5,0,0,1,5,5v12a5,5,0,0,1,-5,5h-70a5,5,0,0,1,-5,-5v-12a5,5,0,0,1,5,-5z"></path><g id="node_text15" fill="black"><text id="kity_text_91" text-rendering="inherit" font-size="12" dy=".8em" y="491.70000895112753" x="784.5000097677112">join后的流</text></g></g><g id="minder_node16"><g id="node_expander13" display="none" style="cursor: pointer;"><path id="kity_path_152" fill="white" stroke="gray" d="M894.5000113174319,499.5000089779496A6,6,0,1,1,882.5000113174319,499.5000089779496A6,6,0,1,1,894.5000113174319,499.5000089779496"></path><path id="kity_path_153" fill="none" stroke="gray"></path></g><path id="node_outline14" fill="none" stroke="none" d="M899.5000115558505,488.5000089779496h94a5,5,0,0,1,5,5v12a5,5,0,0,1,-5,5h-94a5,5,0,0,1,-5,-5v-12a5,5,0,0,1,5,-5z"></path><g id="node_text14" fill="black"><text id="kity_text_89" text-rendering="inherit" font-size="12" dy=".8em" y="491.70000895112753" x="904.5000115558505">JoinedStreams</text></g></g><g id="minder_node17"><g id="node_expander16" style="cursor: pointer;"><path id="kity_path_161" fill="white" stroke="gray" d="M774.5000095292926,551.50000975281A6,6,0,1,1,762.5000095292926,551.50000975281A6,6,0,1,1,774.5000095292926,551.50000975281"></path><path id="kity_path_162" fill="none" stroke="gray" d="M764.0000095292926,551.50000975281L773.0000095292926,551.50000975281"></path></g><path id="node_outline17" fill="none" stroke="none" d="M779.5000097677112,540.50000975281h36a5,5,0,0,1,5,5v12a5,5,0,0,1,-5,5h-36a5,5,0,0,1,-5,-5v-12a5,5,0,0,1,5,-5z"></path><g id="node_text17" fill="black"><text id="kity_text_95" text-rendering="inherit" font-size="12" dy=".8em" y="543.7000097259879" x="784.5000097677112">其他</text></g></g><g id="minder_node18"><g id="node_expander15" display="none" style="cursor: pointer;"><path id="kity_path_158" fill="white" stroke="gray" d="M860.5000108107924,551.50000975281A6,6,0,1,1,848.5000108107924,551.50000975281A6,6,0,1,1,860.5000108107924,551.50000975281"></path><path id="kity_path_159" fill="none" stroke="gray"></path></g><path id="node_outline16" fill="none" stroke="none" d="M865.500011049211,540.50000975281h122a5,5,0,0,1,5,5v12a5,5,0,0,1,-5,5h-122a5,5,0,0,1,-5,-5v-12a5,5,0,0,1,5,-5z"></path><g id="node_text16" fill="black"><text id="kity_text_93" text-rendering="inherit" font-size="12" dy=".8em" y="543.7000097259879" x="870.500011049211">CoGroupedStreams</text></g></g></g></g></svg>