<svg id="kity_svg_6" xmlns="http://www.w3.org/2000/svg" xmlns:xlink="http://www.w3.org/1999/xlink" version="1.1" width="2229" height="1807" style="background: rgb(251, 251, 251); visibility: visible;" viewBox="0 0 2229 1807"><defs id="kity_defs_7"><linearGradient id="kity_linearGradient_17" x1="0" y1="0" x2="0" y2="1"><stop id="kity_stop_18" offset="0" stop-color="rgb(255, 255, 255)"></stop><stop id="kity_stop_19" offset="1" stop-color="rgb(204, 204, 204)"></stop></linearGradient><marker id="kity_marker_2" orient="auto" refX="6" refY="0" viewBox="-7 -7 14 14" markerWidth="7" markerHeight="7" markerUnits="userSpaceOnUse"><path id="kity_path_3" fill="rgb(115, 161, 191)" stroke="none" d="M6,0A6,6,0,1,1,-6,0A6,6,0,1,1,6,0"></path></marker></defs><g id="kity_g_8"><g id="minder1" text-rendering="optimize-speed"><g id="minder_connect_group1"><path id="kity_path_31" fill="none" stroke="rgb(115, 161, 191)" stroke-width="1" d="M782.0000014650489,850.5000017556215A174.5,818,0,0,1,956.5000014650489,32.5000017556215"></path><path id="kity_path_35" fill="none" stroke="rgb(115, 161, 191)" stroke-width="1" d="M782.0000014650489,850.5000017556215A174.5,90,0,0,1,956.5000014650489,760.5000017556215"></path><path id="kity_path_37" fill="none" stroke="rgb(115, 161, 191)" stroke-width="1" d="M1068.5000014650489,760.5000017556215C1083.5000014650489,760.5000017556215,1083.5000014650489,110.5000017556215,1098.5000014650489,110.5000017556215L1190.5000014650489,110.5000017556215"></path><path id="kity_path_39" fill="none" stroke="rgb(115, 161, 191)" stroke-width="1" d="M1068.5000014650489,760.5000017556215C1083.5000014650489,760.5000017556215,1083.5000014650489,188.5000017556215,1098.5000014650489,188.5000017556215L1161.5000014650489,188.5000017556215"></path><path id="kity_path_41" fill="none" stroke="rgb(115, 161, 191)" stroke-width="1" d="M1161.5000014650489,188.5000017556215C1176.5000014650489,188.5000017556215,1176.5000014650489,162.5000017556215,1191.5000014650489,162.5000017556215L1380.5000014650489,162.5000017556215"></path><path id="kity_path_43" fill="none" stroke="rgb(115, 161, 191)" stroke-width="1" d="M1161.5000014650489,188.5000017556215C1176.5000014650489,188.5000017556215,1176.5000014650489,214.5000017556215,1191.5000014650489,214.5000017556215L1445.5000014650489,214.5000017556215"></path><path id="kity_path_45" fill="none" stroke="rgb(115, 161, 191)" stroke-width="1" d="M1068.5000014650489,760.5000017556215C1083.5000014650489,760.5000017556215,1083.5000014650489,617.5000017556215,1098.5000014650489,617.5000017556215L1248.5000014650489,617.5000017556215"></path><path id="kity_path_63" fill="none" stroke="rgb(115, 161, 191)" stroke-width="1" d="M1248.5000014650489,617.5000017556215C1263.5000014650489,617.5000017556215,1263.5000014650489,344.5000017556215,1278.5000014650489,344.5000017556215L1376.5000014650489,344.5000017556215"></path><path id="kity_path_65" fill="none" stroke="rgb(115, 161, 191)" stroke-width="1" d="M1376.5000014650489,344.5000017556215C1391.5000014650489,344.5000017556215,1391.5000014650489,266.5000017556215,1406.5000014650489,266.5000017556215L1455.5000014650489,266.5000017556215"></path><path id="kity_path_67" fill="none" stroke="rgb(115, 161, 191)" stroke-width="1" d="M1376.5000014650489,344.5000017556215C1391.5000014650489,344.5000017556215,1391.5000014650489,318.5000017556215,1406.5000014650489,318.5000017556215L1486.5000014650489,318.5000017556215"></path><path id="kity_path_69" fill="none" stroke="rgb(115, 161, 191)" stroke-width="1" d="M1376.5000014650489,344.5000017556215C1391.5000014650489,344.5000017556215,1391.5000014650489,370.5000017556215,1406.5000014650489,370.5000017556215L1470.5000014650489,370.5000017556215"></path><path id="kity_path_71" fill="none" stroke="rgb(115, 161, 191)" stroke-width="1" d="M1376.5000014650489,344.5000017556215C1391.5000014650489,344.5000017556215,1391.5000014650489,422.5000017556215,1406.5000014650489,422.5000017556215L1494.5000014650489,422.5000017556215"></path><path id="kity_path_73" fill="none" stroke="rgb(115, 161, 191)" stroke-width="1" d="M1248.5000014650489,617.5000017556215C1263.5000014650489,617.5000017556215,1263.5000014650489,578.5000017556215,1278.5000014650489,578.5000017556215L1375.5000014650489,578.5000017556215"></path><path id="kity_path_75" fill="none" stroke="rgb(115, 161, 191)" stroke-width="1" d="M1375.5000014650489,578.5000017556215C1390.5000014650489,578.5000017556215,1390.5000014650489,474.5000017556215,1405.5000014650489,474.5000017556215L1627.5000014650489,474.5000017556215"></path><path id="kity_path_77" fill="none" stroke="rgb(115, 161, 191)" stroke-width="1" d="M1375.5000014650489,578.5000017556215C1390.5000014650489,578.5000017556215,1390.5000014650489,526.5000017556215,1405.5000014650489,526.5000017556215L1895.5000014650489,526.5000017556215"></path><path id="kity_path_79" fill="none" stroke="rgb(115, 161, 191)" stroke-width="1" d="M1375.5000014650489,578.5000017556215C1390.5000014650489,578.5000017556215,1390.5000014650489,578.5000017556215,1405.5000014650489,578.5000017556215L1895.5000014650489,578.5000017556215"></path><path id="kity_path_81" fill="none" stroke="rgb(115, 161, 191)" stroke-width="1" d="M1375.5000014650489,578.5000017556215C1390.5000014650489,578.5000017556215,1390.5000014650489,630.5000017556215,1405.5000014650489,630.5000017556215L1765.5000014650489,630.5000017556215"></path><path id="kity_path_83" fill="none" stroke="rgb(115, 161, 191)" stroke-width="1" d="M1375.5000014650489,578.5000017556215C1390.5000014650489,578.5000017556215,1390.5000014650489,682.5000017556215,1405.5000014650489,682.5000017556215L1570.5000014650489,682.5000017556215"></path><path id="kity_path_85" fill="none" stroke="rgb(115, 161, 191)" stroke-width="1" d="M1248.5000014650489,617.5000017556215C1263.5000014650489,617.5000017556215,1263.5000014650489,890.5000017556215,1278.5000014650489,890.5000017556215L1396.5000014650489,890.5000017556215"></path><path id="kity_path_87" fill="none" stroke="rgb(115, 161, 191)" stroke-width="1" d="M1396.5000014650489,890.5000017556215C1411.5000014650489,890.5000017556215,1411.5000014650489,890.5000017556215,1426.5000014650489,890.5000017556215L1457.5000014650489,890.5000017556215"></path><path id="kity_path_89" fill="none" stroke="rgb(115, 161, 191)" stroke-width="1" d="M1457.5000014650489,890.5000017556215C1472.5000014650489,890.5000017556215,1472.5000014650489,734.5000017556215,1487.5000014650489,734.5000017556215L1881.5000014650489,734.5000017556215"></path><path id="kity_path_91" fill="none" stroke="rgb(115, 161, 191)" stroke-width="1" d="M1457.5000014650489,890.5000017556215C1472.5000014650489,890.5000017556215,1472.5000014650489,786.5000017556215,1487.5000014650489,786.5000017556215L1923.5000014650489,786.5000017556215"></path><path id="kity_path_93" fill="none" stroke="rgb(115, 161, 191)" stroke-width="1" d="M1457.5000014650489,890.5000017556215C1472.5000014650489,890.5000017556215,1472.5000014650489,838.5000017556215,1487.5000014650489,838.5000017556215L1820.5000014650489,838.5000017556215"></path><path id="kity_path_95" fill="none" stroke="rgb(115, 161, 191)" stroke-width="1" d="M1457.5000014650489,890.5000017556215C1472.5000014650489,890.5000017556215,1472.5000014650489,890.5000017556215,1487.5000014650489,890.5000017556215L2115.5000014650486,890.5000017556215"></path><path id="kity_path_97" fill="none" stroke="rgb(115, 161, 191)" stroke-width="1" d="M1457.5000014650489,890.5000017556215C1472.5000014650489,890.5000017556215,1472.5000014650489,942.5000017556215,1487.5000014650489,942.5000017556215L1929.5000014650489,942.5000017556215"></path><path id="kity_path_99" fill="none" stroke="rgb(115, 161, 191)" stroke-width="1" d="M1457.5000014650489,890.5000017556215C1472.5000014650489,890.5000017556215,1472.5000014650489,994.5000017556215,1487.5000014650489,994.5000017556215L2208.5000014650486,994.5000017556215"></path><path id="kity_path_101" fill="none" stroke="rgb(115, 161, 191)" stroke-width="1" d="M1457.5000014650489,890.5000017556215C1472.5000014650489,890.5000017556215,1472.5000014650489,1046.5000017556215,1487.5000014650489,1046.5000017556215L1990.5000014650489,1046.5000017556215"></path><path id="kity_path_103" fill="none" stroke="rgb(115, 161, 191)" stroke-width="1" d="M1068.5000014650489,760.5000017556215C1083.5000014650489,760.5000017556215,1083.5000014650489,1151.5000017556215,1098.5000014650489,1151.5000017556215L1177.5000014650489,1151.5000017556215"></path><path id="kity_path_105" fill="none" stroke="rgb(115, 161, 191)" stroke-width="1" d="M1177.5000014650489,1151.5000017556215C1192.5000014650489,1151.5000017556215,1192.5000014650489,1098.5000017556215,1207.5000014650489,1098.5000017556215L1673.5000014650489,1098.5000017556215"></path><path id="kity_path_107" fill="none" stroke="rgb(115, 161, 191)" stroke-width="1" d="M1177.5000014650489,1151.5000017556215C1192.5000014650489,1151.5000017556215,1192.5000014650489,1204.5000017556215,1207.5000014650489,1204.5000017556215L1384.5000014650489,1204.5000017556215"></path><path id="kity_path_109" fill="none" stroke="rgb(115, 161, 191)" stroke-width="1" d="M1068.5000014650489,760.5000017556215C1083.5000014650489,760.5000017556215,1083.5000014650489,1256.5000017556215,1098.5000014650489,1256.5000017556215L1232.5000014650489,1256.5000017556215"></path><path id="kity_path_111" fill="none" stroke="rgb(115, 161, 191)" stroke-width="1" d="M1068.5000014650489,760.5000017556215C1083.5000014650489,760.5000017556215,1083.5000014650489,1308.5000017556215,1098.5000014650489,1308.5000017556215L1365.5000014650489,1308.5000017556215"></path><path id="kity_path_121" fill="none" stroke="rgb(115, 161, 191)" stroke-width="1" d="M782.0000014650489,850.5000017556215A174.5,818,0,0,0,956.5000014650489,1668.5000017556215"></path><path id="kity_path_123" fill="none" stroke="rgb(115, 161, 191)" stroke-width="1" d="M1068.5000014650489,1668.5000017556215C1083.5000014650489,1668.5000017556215,1083.5000014650489,1578.5000017556215,1098.5000014650489,1578.5000017556215L1238.5000014650489,1578.5000017556215"></path><path id="kity_path_125" fill="none" stroke="rgb(115, 161, 191)" stroke-width="1" d="M1068.5000014650489,1668.5000017556215C1083.5000014650489,1668.5000017556215,1083.5000014650489,1630.5000017556215,1098.5000014650489,1630.5000017556215L1227.5000014650489,1630.5000017556215"></path><path id="kity_path_127" fill="none" stroke="rgb(115, 161, 191)" stroke-width="1" d="M1068.5000014650489,1668.5000017556215C1083.5000014650489,1668.5000017556215,1083.5000014650489,1682.5000017556215,1098.5000014650489,1682.5000017556215L1207.5000014650489,1682.5000017556215"></path><path id="kity_path_129" fill="none" stroke="rgb(115, 161, 191)" stroke-width="1" d="M1068.5000014650489,1668.5000017556215C1083.5000014650489,1668.5000017556215,1083.5000014650489,1734.5000017556215,1098.5000014650489,1734.5000017556215L1247.5000014650489,1734.5000017556215"></path><path id="kity_path_131" fill="none" stroke="rgb(115, 161, 191)" stroke-width="1" d="M1068.5000014650489,1668.5000017556215C1083.5000014650489,1668.5000017556215,1083.5000014650489,1786.5000017556215,1098.5000014650489,1786.5000017556215L1305.5000014650489,1786.5000017556215"></path><path id="kity_path_133" fill="none" stroke="rgb(115, 161, 191)" stroke-width="1" d="M782.0000014650489,850.5000017556215A174.5,307,0,0,0,607.5000014650489,543.5000017556215"></path><path id="kity_path_135" fill="none" stroke="rgb(115, 161, 191)" stroke-width="1" d="M782.0000014650489,850.5000017556215A174.5,13,0,0,1,607.5000014650489,863.5000017556215"></path><path id="kity_path_137" fill="none" stroke="rgb(115, 161, 191)" stroke-width="1" d="M481.50000146504885,863.5000017556215C466.50000146504885,863.5000017556215,466.50000146504885,763.5000017556215,451.50000146504885,763.5000017556215L289.50000146504885,763.5000017556215"></path><path id="kity_path_139" fill="none" stroke="rgb(115, 161, 191)" stroke-width="1" d="M289.50000146504885,763.5000017556215C274.50000146504885,763.5000017556215,274.50000146504885,835.5000017556215,259.50000146504885,835.5000017556215L19.500001465048854,835.5000017556215"></path><path id="kity_path_141" fill="none" stroke="rgb(115, 161, 191)" stroke-width="1" d="M481.50000146504885,863.5000017556215C466.50000146504885,863.5000017556215,466.50000146504885,887.5000017556215,451.50000146504885,887.5000017556215L361.50000146504885,887.5000017556215"></path><path id="kity_path_143" fill="none" stroke="rgb(115, 161, 191)" stroke-width="1" d="M361.50000146504885,887.5000017556215C346.50000146504885,887.5000017556215,346.50000146504885,887.5000017556215,331.50000146504885,887.5000017556215L121.50000146504885,887.5000017556215"></path><path id="kity_path_145" fill="none" stroke="rgb(115, 161, 191)" stroke-width="1" d="M782.0000014650489,850.5000017556215A174.5,308,0,0,1,607.5000014650489,1158.5000017556215"></path><path id="kity_path_147" fill="none" stroke="rgb(115, 161, 191)" stroke-width="1" d="M481.50000146504885,1158.5000017556215C466.50000146504885,1158.5000017556215,466.50000146504885,1133.5000017556215,451.50000146504885,1133.5000017556215L336.50000146504885,1133.5000017556215"></path><path id="kity_path_149" fill="none" stroke="rgb(115, 161, 191)" stroke-width="1" d="M336.50000146504885,1133.5000017556215C321.50000146504885,1133.5000017556215,321.50000146504885,1107.5000017556215,306.50000146504885,1107.5000017556215L237.50000146504885,1107.5000017556215"></path><path id="kity_path_151" fill="none" stroke="rgb(115, 161, 191)" stroke-width="1" d="M336.50000146504885,1133.5000017556215C321.50000146504885,1133.5000017556215,321.50000146504885,1159.5000017556215,306.50000146504885,1159.5000017556215L254.50000146504885,1159.5000017556215"></path><path id="kity_path_153" fill="none" stroke="rgb(115, 161, 191)" stroke-width="1" d="M481.50000146504885,1158.5000017556215C466.50000146504885,1158.5000017556215,466.50000146504885,1211.5000017556215,451.50000146504885,1211.5000017556215L348.50000146504885,1211.5000017556215"></path><path id="kity_path_155" fill="none" stroke="rgb(115, 161, 191)" stroke-width="1" d="M348.50000146504885,1211.5000017556215C333.50000146504885,1211.5000017556215,333.50000146504885,1211.5000017556215,318.50000146504885,1211.5000017556215L52.500001465048854,1211.5000017556215"></path><path id="kity_path_545" fill="none" stroke="rgb(115, 161, 191)" stroke-width="1" d="M1068.5000014650489,32.5000017556215C1083.5000014650489,32.5000017556215,1083.5000014650489,46.5000017556215,1098.5000014650489,46.5000017556215L1453.5000014650489,46.5000017556215"></path><path id="kity_path_547" fill="none" stroke="rgb(115, 161, 191)" stroke-width="1" d="M481.50000146504885,863.5000017556215C466.50000146504885,863.5000017556215,466.50000146504885,992.5000017556215,451.50000146504885,992.5000017556215L359.50000146504885,992.5000017556215"></path><path id="kity_path_555" fill="none" stroke="rgb(115, 161, 191)" stroke-width="1" d="M359.50000146504885,992.5000017556215C344.50000146504885,992.5000017556215,344.50000146504885,957.5000017556215,329.50000146504885,957.5000017556215L145.50000146504885,957.5000017556215"></path><path id="kity_path_563" fill="none" stroke="rgb(115, 161, 191)" stroke-width="1" d="M359.50000146504885,992.5000017556215C344.50000146504885,992.5000017556215,344.50000146504885,1045.5000017556215,329.50000146504885,1045.5000017556215L45.500001465048854,1045.5000017556215"></path><path id="kity_path_574" fill="none" stroke="rgb(115, 161, 191)" stroke-width="1" d="M388.50000146504885,543.5000017556215C373.50000146504885,543.5000017556215,373.50000146504885,629.5000017556215,358.50000146504885,629.5000017556215L38.500001465048854,629.5000017556215"></path><path id="kity_path_590" fill="none" stroke="rgb(115, 161, 191)" stroke-width="1" d="M1068.5000014650489,760.5000017556215C1083.5000014650489,760.5000017556215,1083.5000014650489,1438.5000017556215,1098.5000014650489,1438.5000017556215L1167.5000014650489,1438.5000017556215"></path><path id="kity_path_598" fill="none" stroke="rgb(115, 161, 191)" stroke-width="1" d="M1167.5000014650489,1438.5000017556215C1182.5000014650489,1438.5000017556215,1182.5000014650489,1386.5000017556215,1197.5000014650489,1386.5000017556215L1276.5000014650489,1386.5000017556215"></path><path id="kity_path_606" fill="none" stroke="rgb(115, 161, 191)" stroke-width="1" d="M1276.5000014650489,1386.5000017556215C1291.5000014650489,1386.5000017556215,1291.5000014650489,1360.5000017556215,1306.5000014650489,1360.5000017556215L1410.5000014650489,1360.5000017556215"></path><path id="kity_path_614" fill="none" stroke="rgb(115, 161, 191)" stroke-width="1" d="M1276.5000014650489,1386.5000017556215C1291.5000014650489,1386.5000017556215,1291.5000014650489,1412.5000017556215,1306.5000014650489,1412.5000017556215L1403.5000014650489,1412.5000017556215"></path><path id="kity_path_622" fill="none" stroke="rgb(115, 161, 191)" stroke-width="1" d="M1167.5000014650489,1438.5000017556215C1182.5000014650489,1438.5000017556215,1182.5000014650489,1490.5000017556215,1197.5000014650489,1490.5000017556215L1291.5000014650489,1490.5000017556215"></path><path id="kity_path_630" fill="none" stroke="rgb(115, 161, 191)" stroke-width="1" d="M1291.5000014650489,1490.5000017556215C1306.5000014650489,1490.5000017556215,1306.5000014650489,1464.5000017556215,1321.5000014650489,1464.5000017556215L1416.5000014650489,1464.5000017556215"></path><path id="kity_path_638" fill="none" stroke="rgb(115, 161, 191)" stroke-width="1" d="M1291.5000014650489,1490.5000017556215C1306.5000014650489,1490.5000017556215,1306.5000014650489,1516.5000017556215,1321.5000014650489,1516.5000017556215L1407.5000014650489,1516.5000017556215"></path></g><g id="minder_node1"><path id="node_outline1" fill="rgb(115, 161, 191)" stroke="rgb(115, 161, 191)" d="M730.5000014650489,830.5000017556215h103a5,5,0,0,1,5,5v30a5,5,0,0,1,-5,5h-103a5,5,0,0,1,-5,-5v-30a5,5,0,0,1,5,-5z" stroke-width="3"></path><g id="node_text1" fill="white"><text id="kity_text_22" text-rendering="inherit" font-size="16" dy=".8em" y="840.1000015688176" x="749.5000014650489">flink窗口</text></g></g><g id="kity_g_12" display="none"><path id="kity_path_13" fill="none" stroke="none" d="M749.5000014650489,850.5000017556215h0v0h0z"></path></g><g id="kity_g_14" display="none"><path id="kity_path_15" fill="none" stroke="none" d="M749.5000014650489,850.5000017556215h0v0h0z"></path><path id="kity_path_16" fill="none" stroke="none"></path></g><g id="minder_node2" opacity="1"><g id="node_expander2" style="cursor: pointer;"><path id="kity_path_360" fill="white" stroke="gray" d="M957.5000037627093,32.49999181290207A6,6,0,1,1,945.5000037627093,32.49999181290207A6,6,0,1,1,957.5000037627093,32.49999181290207"></path><path id="kity_path_361" fill="none" stroke="gray" d="M947.0000037627093,32.49999181290207L956.0000037627093,32.49999181290207"></path></g><path id="node_outline3" fill="rgb(238, 243, 246)" stroke="rgb(115, 161, 191)" d="M961.5000042485241,19.499991812902067h104a3,3,0,0,1,3,3v20a3,3,0,0,1,-3,3h-104a3,3,0,0,1,-3,-3v-20a3,3,0,0,1,3,-3z" stroke-width="1"></path><g id="node_text3" fill="black"><text id="kity_text_159" text-rendering="inherit" font-size="14" dy=".8em" y="23.399991866192806" x="978.5000042485241">什么是窗口</text></g></g><g id="minder_node4"><g id="node_expander41" style="cursor: pointer;"><path id="kity_path_477" fill="white" stroke="gray" d="M957.5000037627093,760.5000006616792A6,6,0,1,1,945.5000037627093,760.5000006616792A6,6,0,1,1,957.5000037627093,760.5000006616792"></path><path id="kity_path_478" fill="none" stroke="gray" d="M947.0000037627093,760.5000006616792L956.0000037627093,760.5000006616792"></path></g><path id="node_outline42" fill="rgb(238, 243, 246)" stroke="rgb(115, 161, 191)" d="M961.5000042485241,747.5000006616792h104a3,3,0,0,1,3,3v20a3,3,0,0,1,-3,3h-104a3,3,0,0,1,-3,-3v-20a3,3,0,0,1,3,-3z" stroke-width="1"></path><g id="node_text42" fill="black"><text id="kity_text_240" text-rendering="inherit" font-size="14" dy=".8em" y="751.40000071497" x="978.5000042485241">窗口的底层</text></g></g><g id="minder_node5"><g id="node_expander3" style="cursor: pointer;" display="none"><path id="kity_path_363" fill="white" stroke="gray" d="M1108.5000057557334,96.49999259081653A6,6,0,1,1,1096.5000057557334,96.49999259081653A6,6,0,1,1,1108.5000057557334,96.49999259081653"></path><path id="kity_path_364" fill="none" stroke="gray"></path></g><path id="node_outline4" fill="none" stroke="none" d="M1113.500005950212,85.49999259081653h72a5,5,0,0,1,5,5v12a5,5,0,0,1,-5,5h-72a5,5,0,0,1,-5,-5v-12a5,5,0,0,1,5,-5z"></path><g id="node_text4" fill="black"><text id="kity_text_161" text-rendering="inherit" font-size="12" dy=".8em" y="88.69999256893769" x="1118.500005950212">watermark</text></g></g><g id="minder_node6"><g id="node_expander6" style="cursor: pointer;"><path id="kity_path_372" fill="white" stroke="gray" d="M1108.5000057557334,174.49999353889984A6,6,0,1,1,1096.5000057557334,174.49999353889984A6,6,0,1,1,1108.5000057557334,174.49999353889984"></path><path id="kity_path_373" fill="none" stroke="gray" d="M1098.0000057557334,174.49999353889984L1107.0000057557334,174.49999353889984"></path></g><path id="node_outline7" fill="none" stroke="none" d="M1113.500005950212,163.49999353889984h43a5,5,0,0,1,5,5v12a5,5,0,0,1,-5,5h-43a5,5,0,0,1,-5,-5v-12a5,5,0,0,1,5,-5z"></path><g id="node_text7" fill="black"><text id="kity_text_167" text-rendering="inherit" font-size="12" dy=".8em" y="166.699993517021" x="1118.500005950212">Timer</text></g></g><g id="minder_node7"><g id="node_expander4" style="cursor: pointer;" display="none"><path id="kity_path_366" fill="white" stroke="gray" d="M1201.5000068861405,148.49999322287215A6,6,0,1,1,1189.5000068861405,148.49999322287215A6,6,0,1,1,1201.5000068861405,148.49999322287215"></path><path id="kity_path_367" fill="none" stroke="gray"></path></g><path id="node_outline5" fill="none" stroke="none" d="M1206.500007080619,137.49999322287215h169a5,5,0,0,1,5,5v12a5,5,0,0,1,-5,5h-169a5,5,0,0,1,-5,-5v-12a5,5,0,0,1,5,-5z"></path><g id="node_text5" fill="black"><text id="kity_text_163" text-rendering="inherit" font-size="12" dy=".8em" y="140.6999932009933" x="1211.500007080619">EventTime(WaterMark 触发)</text></g></g><g id="minder_node8"><g id="node_expander5" style="cursor: pointer;" display="none"><path id="kity_path_369" fill="white" stroke="gray" d="M1201.5000068861405,200.49999385492754A6,6,0,1,1,1189.5000068861405,200.49999385492754A6,6,0,1,1,1201.5000068861405,200.49999385492754"></path><path id="kity_path_370" fill="none" stroke="gray"></path></g><path id="node_outline6" fill="none" stroke="none" d="M1206.500007080619,189.49999385492754h234a5,5,0,0,1,5,5v12a5,5,0,0,1,-5,5h-234a5,5,0,0,1,-5,-5v-12a5,5,0,0,1,5,-5z"></path><g id="node_text6" fill="black"><text id="kity_text_165" text-rendering="inherit" font-size="12" dy=".8em" y="192.6999938330487" x="1211.500007080619">ProcessTime(定时线程发送mail事件触发)</text></g></g><g id="minder_node9"><g id="node_expander35" style="cursor: pointer;"><path id="kity_path_459" fill="white" stroke="gray" d="M1108.5000057557334,603.4999987533579A6,6,0,1,1,1096.5000057557334,603.4999987533579A6,6,0,1,1,1108.5000057557334,603.4999987533579"></path><path id="kity_path_460" fill="none" stroke="gray" d="M1098.0000057557334,603.4999987533579L1107.0000057557334,603.4999987533579"></path></g><path id="node_outline36" fill="none" stroke="none" d="M1113.500005950212,592.4999987533579h130a5,5,0,0,1,5,5v12a5,5,0,0,1,-5,5h-130a5,5,0,0,1,-5,-5v-12a5,5,0,0,1,5,-5z"></path><g id="node_text36" fill="black"><text id="kity_text_225" text-rendering="inherit" font-size="12" dy=".8em" y="595.699998731479" x="1118.500005950212">Trigger(窗口触发控制)</text></g></g><g id="minder_node18"><g id="node_expander19" style="cursor: pointer;"><path id="kity_path_411" fill="white" stroke="gray" d="M1288.500007943618,330.49999543506635A6,6,0,1,1,1276.500007943618,330.49999543506635A6,6,0,1,1,1288.500007943618,330.49999543506635"></path><path id="kity_path_412" fill="none" stroke="gray" d="M1278.000007943618,330.49999543506635L1287.000007943618,330.49999543506635"></path></g><path id="node_outline20" fill="none" stroke="none" d="M1293.5000081380965,319.49999543506635h78a5,5,0,0,1,5,5v12a5,5,0,0,1,-5,5h-78a5,5,0,0,1,-5,-5v-12a5,5,0,0,1,5,-5z" stroke-width="3"></path><g id="node_text20" fill="black"><text id="kity_text_193" text-rendering="inherit" font-size="12" dy=".8em" y="322.69999541318754" x="1298.5000081380965">Trigger 状态</text></g></g><g id="minder_node19"><g id="node_expander15" style="cursor: pointer;" display="none"><path id="kity_path_399" fill="white" stroke="gray" d="M1416.5000094994468,252.49999448698316A6,6,0,1,1,1404.5000094994468,252.49999448698316A6,6,0,1,1,1416.5000094994468,252.49999448698316"></path><path id="kity_path_400" fill="none" stroke="gray"></path></g><path id="node_outline16" fill="none" stroke="none" d="M1421.5000096939254,241.49999448698316h29a5,5,0,0,1,5,5v12a5,5,0,0,1,-5,5h-29a5,5,0,0,1,-5,-5v-12a5,5,0,0,1,5,-5z"></path><g id="node_text16" fill="black"><text id="kity_text_185" text-rendering="inherit" font-size="12" dy=".8em" y="244.6999944651043" x="1426.5000096939254">fire</text></g></g><g id="minder_node20"><g id="node_expander16" style="cursor: pointer;" display="none"><path id="kity_path_402" fill="white" stroke="gray" d="M1416.5000094994468,304.49999511903866A6,6,0,1,1,1404.5000094994468,304.49999511903866A6,6,0,1,1,1416.5000094994468,304.49999511903866"></path><path id="kity_path_403" fill="none" stroke="gray"></path></g><path id="node_outline17" fill="none" stroke="none" d="M1421.5000096939254,293.49999511903866h60a5,5,0,0,1,5,5v12a5,5,0,0,1,-5,5h-60a5,5,0,0,1,-5,-5v-12a5,5,0,0,1,5,-5z"></path><g id="node_text17" fill="black"><text id="kity_text_187" text-rendering="inherit" font-size="12" dy=".8em" y="296.69999509715984" x="1426.5000096939254">continue</text></g></g><g id="minder_node21"><g id="node_expander17" style="cursor: pointer;" display="none"><path id="kity_path_405" fill="white" stroke="gray" d="M1416.5000094994468,356.49999575109416A6,6,0,1,1,1404.5000094994468,356.49999575109416A6,6,0,1,1,1416.5000094994468,356.49999575109416"></path><path id="kity_path_406" fill="none" stroke="gray"></path></g><path id="node_outline18" fill="none" stroke="none" d="M1421.5000096939254,345.49999575109416h44a5,5,0,0,1,5,5v12a5,5,0,0,1,-5,5h-44a5,5,0,0,1,-5,-5v-12a5,5,0,0,1,5,-5z"></path><g id="node_text18" fill="black"><text id="kity_text_189" text-rendering="inherit" font-size="12" dy=".8em" y="348.69999572921535" x="1426.5000096939254">purge</text></g></g><g id="minder_node22"><g id="node_expander18" style="cursor: pointer;" display="none"><path id="kity_path_408" fill="white" stroke="gray" d="M1416.5000094994468,408.4999963831497A6,6,0,1,1,1404.5000094994468,408.4999963831497A6,6,0,1,1,1416.5000094994468,408.4999963831497"></path><path id="kity_path_409" fill="none" stroke="gray"></path></g><path id="node_outline19" fill="none" stroke="none" d="M1421.5000096939254,397.4999963831497h68a5,5,0,0,1,5,5v12a5,5,0,0,1,-5,5h-68a5,5,0,0,1,-5,-5v-12a5,5,0,0,1,5,-5z"></path><g id="node_text19" fill="black"><text id="kity_text_191" text-rendering="inherit" font-size="12" dy=".8em" y="400.6999963612709" x="1426.5000096939254">fire_purge</text></g></g><g id="minder_node23"><g id="node_expander25" style="cursor: pointer;"><path id="kity_path_429" fill="white" stroke="gray" d="M1288.500007943618,564.4999982793162A6,6,0,1,1,1276.500007943618,564.4999982793162A6,6,0,1,1,1288.500007943618,564.4999982793162"></path><path id="kity_path_430" fill="none" stroke="gray" d="M1278.000007943618,564.4999982793162L1287.000007943618,564.4999982793162"></path></g><path id="node_outline26" fill="none" stroke="none" d="M1293.5000081380965,553.4999982793162h77a5,5,0,0,1,5,5v12a5,5,0,0,1,-5,5h-77a5,5,0,0,1,-5,-5v-12a5,5,0,0,1,5,-5z"></path><g id="node_text26" fill="black"><text id="kity_text_205" text-rendering="inherit" font-size="12" dy=".8em" y="556.6999982574373" x="1298.5000081380965">trigger 方法</text></g></g><g id="minder_node24"><g id="node_expander20" style="cursor: pointer;" display="none"><path id="kity_path_414" fill="white" stroke="gray" d="M1415.5000094872917,460.49999701520517A6,6,0,1,1,1403.5000094872917,460.49999701520517A6,6,0,1,1,1415.5000094872917,460.49999701520517"></path><path id="kity_path_415" fill="none" stroke="gray"></path></g><path id="node_outline21" fill="none" stroke="none" d="M1420.5000096817703,449.49999701520517h202a5,5,0,0,1,5,5v12a5,5,0,0,1,-5,5h-202a5,5,0,0,1,-5,-5v-12a5,5,0,0,1,5,-5z"></path><g id="node_text21" fill="black"><text id="kity_text_195" text-rendering="inherit" font-size="12" dy=".8em" y="452.69999699332635" x="1425.5000096817703">onElement : 每一条数据执行的操作</text></g></g><g id="minder_node25"><g id="node_expander21" style="cursor: pointer;" display="none"><path id="kity_path_417" fill="white" stroke="gray" d="M1415.5000094872917,512.4999976472607A6,6,0,1,1,1403.5000094872917,512.4999976472607A6,6,0,1,1,1415.5000094872917,512.4999976472607"></path><path id="kity_path_418" fill="none" stroke="gray"></path></g><path id="node_outline22" fill="none" stroke="none" d="M1420.5000096817703,501.49999764726067h470a5,5,0,0,1,5,5v12a5,5,0,0,1,-5,5h-470a5,5,0,0,1,-5,-5v-12a5,5,0,0,1,5,-5z"></path><g id="node_text22" fill="black"><text id="kity_text_197" text-rendering="inherit" font-size="12" dy=".8em" y="504.69999762538185" x="1425.5000096817703">onEventTime：当定义使用`event time `的`Timer fire `时候执行的操作(触发行为类型)</text></g></g><g id="minder_node26"><g id="node_expander22" style="cursor: pointer;" display="none"><path id="kity_path_420" fill="white" stroke="gray" d="M1415.5000094872917,564.4999982793162A6,6,0,1,1,1403.5000094872917,564.4999982793162A6,6,0,1,1,1415.5000094872917,564.4999982793162"></path><path id="kity_path_421" fill="none" stroke="gray"></path></g><path id="node_outline23" fill="none" stroke="none" d="M1420.5000096817703,553.4999982793162h470a5,5,0,0,1,5,5v12a5,5,0,0,1,-5,5h-470a5,5,0,0,1,-5,-5v-12a5,5,0,0,1,5,-5z"></path><g id="node_text23" fill="black"><text id="kity_text_199" text-rendering="inherit" font-size="12" dy=".8em" y="556.6999982574373" x="1425.5000096817703">onProcessingTime：当定义使用process time的Timer fire 执行的操作(触发行为类型)</text></g></g><g id="minder_node27"><g id="node_expander23" style="cursor: pointer;" display="none"><path id="kity_path_423" fill="white" stroke="gray" d="M1415.5000094872917,616.4999989113717A6,6,0,1,1,1403.5000094872917,616.4999989113717A6,6,0,1,1,1415.5000094872917,616.4999989113717"></path><path id="kity_path_424" fill="none" stroke="gray"></path></g><path id="node_outline24" fill="none" stroke="none" d="M1420.5000096817703,605.4999989113717h340a5,5,0,0,1,5,5v12a5,5,0,0,1,-5,5h-340a5,5,0,0,1,-5,-5v-12a5,5,0,0,1,5,-5z"></path><g id="node_text24" fill="black"><text id="kity_text_201" text-rendering="inherit" font-size="12" dy=".8em" y="608.6999988894928" x="1425.5000096817703">onMerge： 两个窗口被合并时候触发。如： session window</text></g></g><g id="minder_node28"><g id="node_expander24" style="cursor: pointer;" display="none"><path id="kity_path_426" fill="white" stroke="gray" d="M1415.5000094872917,668.4999995434273A6,6,0,1,1,1403.5000094872917,668.4999995434273A6,6,0,1,1,1415.5000094872917,668.4999995434273"></path><path id="kity_path_427" fill="none" stroke="gray"></path></g><path id="node_outline25" fill="none" stroke="none" d="M1420.5000096817703,657.4999995434273h145a5,5,0,0,1,5,5v12a5,5,0,0,1,-5,5h-145a5,5,0,0,1,-5,-5v-12a5,5,0,0,1,5,-5z"></path><g id="node_text25" fill="black"><text id="kity_text_203" text-rendering="inherit" font-size="12" dy=".8em" y="660.6999995215484" x="1425.5000096817703">clear：窗口被清除时触发</text></g></g><g id="minder_node29"><g id="node_expander34" style="cursor: pointer;"><path id="kity_path_456" fill="white" stroke="gray" d="M1288.500007943618,876.5000020716493A6,6,0,1,1,1276.500007943618,876.5000020716493A6,6,0,1,1,1288.500007943618,876.5000020716493"></path><path id="kity_path_457" fill="none" stroke="gray" d="M1278.000007943618,876.5000020716493L1287.000007943618,876.5000020716493"></path></g><path id="node_outline35" fill="none" stroke="none" d="M1293.5000081380965,865.5000020716493h98a5,5,0,0,1,5,5v12a5,5,0,0,1,-5,5h-98a5,5,0,0,1,-5,-5v-12a5,5,0,0,1,5,-5z"></path><g id="node_text35" fill="black"><text id="kity_text_223" text-rendering="inherit" font-size="12" dy=".8em" y="868.7000020497704" x="1298.5000081380965">内置Trigger实现</text></g></g><g id="minder_node30"><g id="node_expander33" style="cursor: pointer;"><path id="kity_path_453" fill="white" stroke="gray" d="M1436.500009742545,876.5000020716493A6,6,0,1,1,1424.500009742545,876.5000020716493A6,6,0,1,1,1436.500009742545,876.5000020716493"></path><path id="kity_path_454" fill="none" stroke="gray" d="M1426.000009742545,876.5000020716493L1435.000009742545,876.5000020716493"></path></g><path id="node_outline34" fill="none" stroke="none" d="M1441.5000099370236,865.5000020716493h11a5,5,0,0,1,5,5v12a5,5,0,0,1,-5,5h-11a5,5,0,0,1,-5,-5v-12a5,5,0,0,1,5,-5z"></path><g id="node_text34" fill="black"><text id="kity_text_221" text-rendering="inherit" font-size="12" dy=".8em" y="868.7000020497704" x="1446.5000099370236"> </text></g></g><g id="minder_node31"><g id="node_expander26" style="cursor: pointer;" display="none"><path id="kity_path_432" fill="white" stroke="gray" d="M1497.5000104839946,720.5000001754827A6,6,0,1,1,1485.5000104839946,720.5000001754827A6,6,0,1,1,1497.5000104839946,720.5000001754827"></path><path id="kity_path_433" fill="none" stroke="gray"></path></g><path id="node_outline27" fill="none" stroke="none" d="M1502.5000106784732,709.5000001754827h374a5,5,0,0,1,5,5v12a5,5,0,0,1,-5,5h-374a5,5,0,0,1,-5,-5v-12a5,5,0,0,1,5,-5z"></path><g id="node_text27" fill="black"><text id="kity_text_207" text-rendering="inherit" font-size="12" dy=".8em" y="712.7000001536038" x="1507.5000106784732">EventTimeTrigger：当 event time 的watermark 大于窗口边界触发</text></g></g><g id="minder_node32"><g id="node_expander27" style="cursor: pointer;" display="none"><path id="kity_path_435" fill="white" stroke="gray" d="M1497.5000104839946,772.5000008075383A6,6,0,1,1,1485.5000104839946,772.5000008075383A6,6,0,1,1,1497.5000104839946,772.5000008075383"></path><path id="kity_path_436" fill="none" stroke="gray"></path></g><path id="node_outline28" fill="none" stroke="none" d="M1502.5000106784732,761.5000008075383h416a5,5,0,0,1,5,5v12a5,5,0,0,1,-5,5h-416a5,5,0,0,1,-5,-5v-12a5,5,0,0,1,5,-5z"></path><g id="node_text28" fill="black"><text id="kity_text_209" text-rendering="inherit" font-size="12" dy=".8em" y="764.7000007856594" x="1507.5000106784732">ProcessingTimeTrigger：当 process time 的watermark 大于窗口边界触发</text></g></g><g id="minder_node33"><g id="node_expander28" style="cursor: pointer;" display="none"><path id="kity_path_438" fill="white" stroke="gray" d="M1497.5000104839946,824.5000014395937A6,6,0,1,1,1485.5000104839946,824.5000014395937A6,6,0,1,1,1497.5000104839946,824.5000014395937"></path><path id="kity_path_439" fill="none" stroke="gray"></path></g><path id="node_outline29" fill="none" stroke="none" d="M1502.5000106784732,813.5000014395937h313a5,5,0,0,1,5,5v12a5,5,0,0,1,-5,5h-313a5,5,0,0,1,-5,-5v-12a5,5,0,0,1,5,-5z"></path><g id="node_text29" fill="black"><text id="kity_text_211" text-rendering="inherit" font-size="12" dy=".8em" y="816.7000014177148" x="1507.5000106784732">CountTrigger ：在Windows 中的数据达到一定量时触发</text></g></g><g id="minder_node34"><g id="node_expander29" style="cursor: pointer;" display="none"><path id="kity_path_441" fill="white" stroke="gray" d="M1497.5000104839946,876.5000020716493A6,6,0,1,1,1485.5000104839946,876.5000020716493A6,6,0,1,1,1497.5000104839946,876.5000020716493"></path><path id="kity_path_442" fill="none" stroke="gray"></path></g><path id="node_outline30" fill="none" stroke="none" d="M1502.5000106784732,865.5000020716493h608a5,5,0,0,1,5,5v12a5,5,0,0,1,-5,5h-608a5,5,0,0,1,-5,-5v-12a5,5,0,0,1,5,-5z"></path><g id="node_text30" fill="black"><text id="kity_text_213" text-rendering="inherit" font-size="12" dy=".8em" y="868.7000020497704" x="1507.5000106784732">DeltaTrigger：计算上次触发的数据点与当前到达的数据点之间的增量。如果 delta 高于指定的阈值，它就会触发</text></g></g><g id="minder_node35"><g id="node_expander30" style="cursor: pointer;" display="none"><path id="kity_path_444" fill="white" stroke="gray" d="M1497.5000104839946,928.5000027037047A6,6,0,1,1,1485.5000104839946,928.5000027037047A6,6,0,1,1,1497.5000104839946,928.5000027037047"></path><path id="kity_path_445" fill="none" stroke="gray"></path></g><path id="node_outline31" fill="none" stroke="none" d="M1502.5000106784732,917.5000027037047h422a5,5,0,0,1,5,5v12a5,5,0,0,1,-5,5h-422a5,5,0,0,1,-5,-5v-12a5,5,0,0,1,5,-5z"></path><g id="node_text31" fill="black"><text id="kity_text_215" text-rendering="inherit" font-size="12" dy=".8em" y="920.7000026818258" x="1507.5000106784732">NeverTrigger：永远不会触发的触发器，作为 GlobalWindows 的默认触发器</text></g></g><g id="minder_node36"><g id="node_expander31" style="cursor: pointer;" display="none"><path id="kity_path_447" fill="white" stroke="gray" d="M1497.5000104839946,980.5000033357603A6,6,0,1,1,1485.5000104839946,980.5000033357603A6,6,0,1,1,1497.5000104839946,980.5000033357603"></path><path id="kity_path_448" fill="none" stroke="gray"></path></g><path id="node_outline32" fill="none" stroke="none" d="M1502.5000106784732,969.5000033357603h701a5,5,0,0,1,5,5v12a5,5,0,0,1,-5,5h-701a5,5,0,0,1,-5,-5v-12a5,5,0,0,1,5,-5z"></path><g id="node_text32" fill="black"><text id="kity_text_217" text-rendering="inherit" font-size="12" dy=".8em" y="972.7000033138814" x="1507.5000106784732">&#xa0;ContinuousEventTimeTrigger：一定时间间隔内多次触发窗口，用于提前输出数据，**注意必须 watermark 流动才能触发窗口**</text></g></g><g id="minder_node37"><g id="node_expander32" style="cursor: pointer;" display="none"><path id="kity_path_450" fill="white" stroke="gray" d="M1497.5000104839946,1032.5000039678157A6,6,0,1,1,1485.5000104839946,1032.5000039678157A6,6,0,1,1,1497.5000104839946,1032.5000039678157"></path><path id="kity_path_451" fill="none" stroke="gray"></path></g><path id="node_outline33" fill="none" stroke="none" d="M1502.5000106784732,1021.5000039678157h483a5,5,0,0,1,5,5v12a5,5,0,0,1,-5,5h-483a5,5,0,0,1,-5,-5v-12a5,5,0,0,1,5,-5z"></path><g id="node_text33" fill="black"><text id="kity_text_219" text-rendering="inherit" font-size="12" dy=".8em" y="1024.700003945937" x="1507.5000106784732">ContinuousProcessingTimeTrigger：一定时间间隔内多次触发窗口，用于提前输出数据</text></g></g><g id="minder_node38"><g id="node_expander38" style="cursor: pointer;"><path id="kity_path_468" fill="white" stroke="gray" d="M1108.5000057557334,1137.5000052440816A6,6,0,1,1,1096.5000057557334,1137.5000052440816A6,6,0,1,1,1108.5000057557334,1137.5000052440816"></path><path id="kity_path_469" fill="none" stroke="gray" d="M1098.0000057557334,1137.5000052440816L1107.0000057557334,1137.5000052440816"></path></g><path id="node_outline39" fill="none" stroke="none" d="M1113.500005950212,1126.5000052440816h59a5,5,0,0,1,5,5v12a5,5,0,0,1,-5,5h-59a5,5,0,0,1,-5,-5v-12a5,5,0,0,1,5,-5z"></path><g id="node_text39" fill="black"><text id="kity_text_234" text-rendering="inherit" font-size="12" dy=".8em" y="1129.700005222203" x="1118.500005950212">Window</text></g></g><g id="minder_node39"><g id="node_expander36" style="cursor: pointer;" display="none"><path id="kity_path_462" fill="white" stroke="gray" d="M1217.500007080619,1084.5000045998713A6,6,0,1,1,1205.500007080619,1084.5000045998713A6,6,0,1,1,1217.500007080619,1084.5000045998713"></path><path id="kity_path_463" fill="none" stroke="gray"></path></g><path id="node_outline37" fill="none" stroke="none" d="M1222.5000072750977,1073.5000045998713h446a5,5,0,0,1,5,5v12a5,5,0,0,1,-5,5h-446a5,5,0,0,1,-5,-5v-12a5,5,0,0,1,5,-5z"></path><g id="node_text37" fill="black"><text id="kity_text_227" text-rendering="inherit" font-size="12" dy=".8em" y="1076.7000045779926" x="1227.5000072750977">一条数据可以放入到多个pane（window中），一个window激活的timer是唯一的</text></g></g><g id="minder_node40"><g id="node_expander37" style="cursor: pointer;" display="none"><path id="kity_path_465" fill="white" stroke="gray" d="M1217.500007080619,1163.5000055601095A6,6,0,1,1,1205.500007080619,1163.5000055601095A6,6,0,1,1,1217.500007080619,1163.5000055601095"></path><path id="kity_path_466" fill="none" stroke="gray"></path></g><path id="node_outline38" fill="none" stroke="none" d="M1222.5000072750977,1125.5000055601095h157a5,5,0,0,1,5,5v66a5,5,0,0,1,-5,5h-157a5,5,0,0,1,-5,-5v-66a5,5,0,0,1,5,-5z"></path><g id="node_text38" fill="black"><text id="kity_text_229" text-rendering="inherit" font-size="12" dy=".8em" y="1128.7000055382307" x="1227.5000072750977">window 源码核心概念</text><text id="kity_text_230" text-rendering="inherit" font-size="12" dy=".8em" y="1146.7000055382307" x="1227.5000072750977">start: 上界</text><text id="kity_text_231" text-rendering="inherit" font-size="12" dy=".8em" y="1164.7000055382307" x="1227.5000072750977">end: 下界</text><text id="kity_text_232" text-rendering="inherit" font-size="12" dy=".8em" y="1182.7000055382307" x="1227.5000072750977">maxTimestamp: 上界-1ms</text></g></g><g id="minder_node41"><g id="node_expander39" style="cursor: pointer;" display="none"><path id="kity_path_471" fill="white" stroke="gray" d="M1108.5000057557334,1242.5000065203476A6,6,0,1,1,1096.5000057557334,1242.5000065203476A6,6,0,1,1,1108.5000057557334,1242.5000065203476"></path><path id="kity_path_472" fill="none" stroke="gray"></path></g><path id="node_outline40" fill="none" stroke="none" d="M1113.500005950212,1231.5000065203476h114a5,5,0,0,1,5,5v12a5,5,0,0,1,-5,5h-114a5,5,0,0,1,-5,-5v-12a5,5,0,0,1,5,-5z"></path><g id="node_text40" fill="black"><text id="kity_text_236" text-rendering="inherit" font-size="12" dy=".8em" y="1234.7000064984688" x="1118.500005950212">WindowOperator&#xa0;</text></g></g><g id="minder_node42"><g id="node_expander40" style="cursor: pointer;" display="none"><path id="kity_path_474" fill="white" stroke="gray" d="M1108.5000057557334,1294.5000071524032A6,6,0,1,1,1096.5000057557334,1294.5000071524032A6,6,0,1,1,1108.5000057557334,1294.5000071524032"></path><path id="kity_path_475" fill="none" stroke="gray"></path></g><path id="node_outline41" fill="none" stroke="none" d="M1113.500005950212,1283.5000071524032h247a5,5,0,0,1,5,5v12a5,5,0,0,1,-5,5h-247a5,5,0,0,1,-5,-5v-12a5,5,0,0,1,5,-5z"></path><g id="node_text41" fill="black"><text id="kity_text_238" text-rendering="inherit" font-size="12" dy=".8em" y="1286.7000071305245" x="1118.500005950212">WindowAssigner(负责单条数据窗口的放入)</text></g></g><g id="minder_node47"><g id="node_expander51" style="cursor: pointer;"><path id="kity_path_507" fill="white" stroke="gray" d="M957.5000037627093,1668.5000116983408A6,6,0,1,1,945.5000037627093,1668.5000116983408A6,6,0,1,1,957.5000037627093,1668.5000116983408"></path><path id="kity_path_508" fill="none" stroke="gray" d="M947.0000037627093,1668.5000116983408L956.0000037627093,1668.5000116983408"></path></g><path id="node_outline52" fill="rgb(238, 243, 246)" stroke="rgb(115, 161, 191)" d="M961.5000042485241,1655.5000116983408h104a3,3,0,0,1,3,3v20a3,3,0,0,1,-3,3h-104a3,3,0,0,1,-3,-3v-20a3,3,0,0,1,3,-3z" stroke-width="1"></path><g id="node_text52" fill="black"><text id="kity_text_260" text-rendering="inherit" font-size="14" dy=".8em" y="1659.4000117516316" x="978.5000042485241">窗口的类型</text></g></g><g id="minder_node48"><g id="node_expander46" style="cursor: pointer;" display="none"><path id="kity_path_492" fill="white" stroke="gray" d="M1108.5000057557334,1564.5000104342298A6,6,0,1,1,1096.5000057557334,1564.5000104342298A6,6,0,1,1,1108.5000057557334,1564.5000104342298"></path><path id="kity_path_493" fill="none" stroke="gray"></path></g><path id="node_outline47" fill="none" stroke="none" d="M1113.500005950212,1553.5000104342298h120a5,5,0,0,1,5,5v12a5,5,0,0,1,-5,5h-120a5,5,0,0,1,-5,-5v-12a5,5,0,0,1,5,-5z"></path><g id="node_text47" fill="black"><text id="kity_text_250" text-rendering="inherit" font-size="12" dy=".8em" y="1556.700010412351" x="1118.500005950212">Tumbling(定时滚动)</text></g></g><g id="minder_node49"><g id="node_expander47" style="cursor: pointer;" display="none"><path id="kity_path_495" fill="white" stroke="gray" d="M1108.5000057557334,1616.5000110662852A6,6,0,1,1,1096.5000057557334,1616.5000110662852A6,6,0,1,1,1108.5000057557334,1616.5000110662852"></path><path id="kity_path_496" fill="none" stroke="gray"></path></g><path id="node_outline48" fill="none" stroke="none" d="M1113.500005950212,1605.5000110662852h109a5,5,0,0,1,5,5v12a5,5,0,0,1,-5,5h-109a5,5,0,0,1,-5,-5v-12a5,5,0,0,1,5,-5z"></path><g id="node_text48" fill="black"><text id="kity_text_252" text-rendering="inherit" font-size="12" dy=".8em" y="1608.7000110444064" x="1118.500005950212">Sliding (滑动窗口)</text></g></g><g id="minder_node50"><g id="node_expander48" style="cursor: pointer;" display="none"><path id="kity_path_498" fill="white" stroke="gray" d="M1108.5000057557334,1668.5000116983408A6,6,0,1,1,1096.5000057557334,1668.5000116983408A6,6,0,1,1,1108.5000057557334,1668.5000116983408"></path><path id="kity_path_499" fill="none" stroke="gray"></path></g><path id="node_outline49" fill="none" stroke="none" d="M1113.500005950212,1657.5000116983408h89a5,5,0,0,1,5,5v12a5,5,0,0,1,-5,5h-89a5,5,0,0,1,-5,-5v-12a5,5,0,0,1,5,-5z"></path><g id="node_text49" fill="black"><text id="kity_text_254" text-rendering="inherit" font-size="12" dy=".8em" y="1660.700011676462" x="1118.500005950212">Session (会话)</text></g></g><g id="minder_node51"><g id="node_expander49" style="cursor: pointer;" display="none"><path id="kity_path_501" fill="white" stroke="gray" d="M1108.5000057557334,1720.5000123303962A6,6,0,1,1,1096.5000057557334,1720.5000123303962A6,6,0,1,1,1108.5000057557334,1720.5000123303962"></path><path id="kity_path_502" fill="none" stroke="gray"></path></g><path id="node_outline50" fill="none" stroke="none" d="M1113.500005950212,1709.5000123303962h129a5,5,0,0,1,5,5v12a5,5,0,0,1,-5,5h-129a5,5,0,0,1,-5,-5v-12a5,5,0,0,1,5,-5z"></path><g id="node_text50" fill="black"><text id="kity_text_256" text-rendering="inherit" font-size="12" dy=".8em" y="1712.7000123085174" x="1118.500005950212">AllWindow(全局窗口)</text></g></g><g id="minder_node52"><g id="node_expander50" style="cursor: pointer;" display="none"><path id="kity_path_504" fill="white" stroke="gray" d="M1108.5000057557334,1772.5000129624518A6,6,0,1,1,1096.5000057557334,1772.5000129624518A6,6,0,1,1,1108.5000057557334,1772.5000129624518"></path><path id="kity_path_505" fill="none" stroke="gray"></path></g><path id="node_outline51" fill="none" stroke="none" d="M1113.500005950212,1761.5000129624518h187a5,5,0,0,1,5,5v12a5,5,0,0,1,-5,5h-187a5,5,0,0,1,-5,-5v-12a5,5,0,0,1,5,-5z"></path><g id="node_text51" fill="black"><text id="kity_text_258" text-rendering="inherit" font-size="12" dy=".8em" y="1764.700012940573" x="1118.500005950212">用户定义(重写WindowAssigner)</text></g></g><g id="minder_node53" opacity="1"><g id="node_expander52" style="cursor: pointer;"><path id="kity_path_510" fill="white" stroke="gray" d="M618.5000054745818,543.4999980240631A6,6,0,1,1,606.5000054745818,543.4999980240631A6,6,0,1,1,618.5000054745818,543.4999980240631"></path><path id="kity_path_511" fill="none" stroke="gray" d="M608.0000054745818,543.4999980240631L617.0000054745818,543.4999980240631"></path></g><path id="node_outline53" fill="rgb(238, 243, 246)" stroke="rgb(115, 161, 191)" d="M391.4999973202233,530.4999980240631h211a3,3,0,0,1,3,3v20a3,3,0,0,1,-3,3h-211a3,3,0,0,1,-3,-3v-20a3,3,0,0,1,3,-3z" stroke-width="1"></path><g id="node_text53" fill="black"><text id="kity_text_262" text-rendering="inherit" font-size="14" dy=".8em" y="534.3999980773538" x="408.4999973202233">WindowOperator 工作流程</text></g></g><g id="minder_node54"><g id="node_expander57" style="cursor: pointer;"><path id="kity_path_525" fill="white" stroke="gray" d="M618.500004371157,863.5000019136354A6,6,0,1,1,606.500004371157,863.5000019136354A6,6,0,1,1,618.500004371157,863.5000019136354"></path><path id="kity_path_526" fill="none" stroke="gray" d="M608.000004371157,863.5000019136354L617.000004371157,863.5000019136354"></path></g><path id="node_outline58" fill="rgb(238, 243, 246)" stroke="rgb(115, 161, 191)" d="M484.4999984506303,850.5000019136354h118a3,3,0,0,1,3,3v20a3,3,0,0,1,-3,3h-118a3,3,0,0,1,-3,-3v-20a3,3,0,0,1,3,-3z" stroke-width="1"></path><g id="node_text58" fill="black"><text id="kity_text_280" text-rendering="inherit" font-size="14" dy=".8em" y="854.4000019669261" x="501.4999984506303">窗口常见问题</text></g></g><g id="minder_node55"><g id="node_expander54" style="cursor: pointer;"><path id="kity_path_516" fill="white" stroke="gray" d="M453.4999971637365,749.5000005279752A6,6,0,1,1,441.4999971637365,749.5000005279752A6,6,0,1,1,453.4999971637365,749.5000005279752"></path><path id="kity_path_517" fill="none" stroke="gray" d="M442.9999971637365,749.5000005279752L451.9999971637365,749.5000005279752"></path></g><path id="node_outline55" fill="none" stroke="none" d="M294.49999599533777,738.5000005279752h142a5,5,0,0,1,5,5v12a5,5,0,0,1,-5,5h-142a5,5,0,0,1,-5,-5v-12a5,5,0,0,1,5,-5z"></path><g id="node_text55" fill="black"><text id="kity_text_274" text-rendering="inherit" font-size="12" dy=".8em" y="741.7000005060963" x="299.49999599533777">输出需要等待到时间达到</text></g></g><g id="minder_node56"><g id="node_expander53" style="cursor: pointer;" display="none"><path id="kity_path_513" fill="white" stroke="gray" d="M261.49999640631427,749.5000005279752A6,6,0,1,1,249.4999964063143,749.5000005279752A6,6,0,1,1,261.49999640631427,749.5000005279752"></path><path id="kity_path_514" fill="none" stroke="gray"></path></g><path id="node_outline54" fill="none" stroke="none" d="M24.49999271351112,666.5000005279752h220a5,5,0,0,1,5,5v156a5,5,0,0,1,-5,5h-220a5,5,0,0,1,-5,-5v-156a5,5,0,0,1,5,-5z" stroke-width="3"></path><g id="node_text54" fill="black"><text id="kity_text_264" text-rendering="inherit" font-size="12" dy=".8em" y="669.7000005060963" x="29.49999271351112">提前输出：</text><text id="kity_text_265" text-rendering="inherit" font-size="12" dy=".8em" y="687.7000005060963" x="29.49999271351112"></text><text id="kity_text_266" text-rendering="inherit" font-size="12" dy=".8em" y="705.7000005060963" x="29.49999271351112">- stream</text><text id="kity_text_267" text-rendering="inherit" font-size="12" dy=".8em" y="723.7000005060963" x="29.49999271351112">1. ContinuousEventTimeTrigger</text><text id="kity_text_268" text-rendering="inherit" font-size="12" dy=".8em" y="741.7000005060963" x="29.49999271351112">2. ContinuousProcessingTimeTrigger</text><text id="kity_text_269" text-rendering="inherit" font-size="12" dy=".8em" y="759.7000005060963" x="29.49999271351112"></text><text id="kity_text_270" text-rendering="inherit" font-size="12" dy=".8em" y="777.7000005060963" x="29.49999271351112">-sql</text><text id="kity_text_271" text-rendering="inherit" font-size="12" dy=".8em" y="795.7000005060963" x="29.49999271351112">1.&#xa0;table.exec.emit.early-fire.enabled</text><text id="kity_text_272" text-rendering="inherit" font-size="12" dy=".8em" y="813.7000005060963" x="29.49999271351112">2.&#xa0;table.exec.emit.early-fire.delay</text></g></g><g id="minder_node57"><g id="node_expander56" style="cursor: pointer;"><path id="kity_path_522" fill="white" stroke="gray" d="M453.49999842479343,873.5000020351845A6,6,0,1,1,441.49999842479343,873.5000020351845A6,6,0,1,1,453.49999842479343,873.5000020351845"></path><path id="kity_path_523" fill="none" stroke="gray" d="M442.99999842479343,873.5000020351845L451.99999842479343,873.5000020351845"></path></g><path id="node_outline57" fill="none" stroke="none" d="M366.49999687049154,862.5000020351845h70a5,5,0,0,1,5,5v12a5,5,0,0,1,-5,5h-70a5,5,0,0,1,-5,-5v-12a5,5,0,0,1,5,-5z"></path><g id="node_text57" fill="black"><text id="kity_text_278" text-rendering="inherit" font-size="12" dy=".8em" y="865.7000020133056" x="371.49999687049154">窗口的范围</text></g></g><g id="minder_node58"><g id="node_expander55" style="cursor: pointer;" display="none"><path id="kity_path_519" fill="white" stroke="gray" d="M333.4999982272607,873.5000020351845A6,6,0,1,1,321.4999982272607,873.5000020351845A6,6,0,1,1,333.4999982272607,873.5000020351845"></path><path id="kity_path_520" fill="none" stroke="gray"></path></g><path id="node_outline56" fill="none" stroke="none" d="M126.49999395331224,862.5000020351845h190a5,5,0,0,1,5,5v12a5,5,0,0,1,-5,5h-190a5,5,0,0,1,-5,-5v-12a5,5,0,0,1,5,-5z"></path><g id="node_text56" fill="black"><text id="kity_text_276" text-rendering="inherit" font-size="12" dy=".8em" y="865.7000020133056" x="131.49999395331224">计算包括下界，不包括上界！！！</text></g></g><g id="minder_node59"><g id="node_expander63" style="cursor: pointer;"><path id="kity_path_543" fill="white" stroke="gray" d="M618.500004371157,1158.5000054993347A6,6,0,1,1,606.500004371157,1158.5000054993347A6,6,0,1,1,618.500004371157,1158.5000054993347"></path><path id="kity_path_544" fill="none" stroke="gray" d="M608.000004371157,1158.5000054993347L617.000004371157,1158.5000054993347"></path></g><path id="node_outline64" fill="rgb(238, 243, 246)" stroke="rgb(115, 161, 191)" d="M484.4999984506303,1145.5000054993347h118a3,3,0,0,1,3,3v20a3,3,0,0,1,-3,3h-118a3,3,0,0,1,-3,-3v-20a3,3,0,0,1,3,-3z" stroke-width="1"></path><g id="node_text64" fill="black"><text id="kity_text_292" text-rendering="inherit" font-size="14" dy=".8em" y="1149.4000055526255" x="501.4999984506303">窗口常用算子</text></g></g><g id="minder_node60"><g id="node_expander60" style="cursor: pointer;"><path id="kity_path_534" fill="white" stroke="gray" d="M453.5000026808606,1119.5000050252934A6,6,0,1,1,441.5000026808606,1119.5000050252934A6,6,0,1,1,453.5000026808606,1119.5000050252934"></path><path id="kity_path_535" fill="none" stroke="gray" d="M443.0000026808606,1119.5000050252934L452.0000026808606,1119.5000050252934"></path></g><path id="node_outline61" fill="none" stroke="none" d="M341.49999656661873,1108.5000050252934h95a5,5,0,0,1,5,5v12a5,5,0,0,1,-5,5h-95a5,5,0,0,1,-5,-5v-12a5,5,0,0,1,5,-5z"></path><g id="node_text61" fill="black"><text id="kity_text_286" text-rendering="inherit" font-size="12" dy=".8em" y="1111.7000050034146" x="346.49999656661873">非保留状态算子</text></g></g><g id="minder_node61"><g id="node_expander58" style="cursor: pointer;" display="none"><path id="kity_path_528" fill="white" stroke="gray" d="M308.4999942978492,1093.5000047092656A6,6,0,1,1,296.4999942978492,1093.5000047092656A6,6,0,1,1,308.4999942978492,1093.5000047092656"></path><path id="kity_path_529" fill="none" stroke="gray"></path></g><path id="node_outline59" fill="none" stroke="none" d="M242.4999953632822,1082.5000047092656h49a5,5,0,0,1,5,5v12a5,5,0,0,1,-5,5h-49a5,5,0,0,1,-5,-5v-12a5,5,0,0,1,5,-5z"></path><g id="node_text59" fill="black"><text id="kity_text_282" text-rendering="inherit" font-size="12" dy=".8em" y="1085.7000046873868" x="247.4999953632822">reduce</text></g></g><g id="minder_node62"><g id="node_expander59" style="cursor: pointer;" display="none"><path id="kity_path_531" fill="white" stroke="gray" d="M308.49999634706666,1145.500005341321A6,6,0,1,1,296.49999634706666,1145.500005341321A6,6,0,1,1,308.49999634706666,1145.500005341321"></path><path id="kity_path_532" fill="none" stroke="gray"></path></g><path id="node_outline60" fill="none" stroke="none" d="M259.4999955699157,1134.500005341321h32a5,5,0,0,1,5,5v12a5,5,0,0,1,-5,5h-32a5,5,0,0,1,-5,-5v-12a5,5,0,0,1,5,-5z"></path><g id="node_text60" fill="black"><text id="kity_text_284" text-rendering="inherit" font-size="12" dy=".8em" y="1137.7000053194422" x="264.4999955699157">agg</text></g></g><g id="minder_node63"><g id="node_expander62" style="cursor: pointer;"><path id="kity_path_540" fill="white" stroke="gray" d="M453.4999970061044,1197.5000059733766A6,6,0,1,1,441.4999970061044,1197.5000059733766A6,6,0,1,1,453.4999970061044,1197.5000059733766"></path><path id="kity_path_541" fill="none" stroke="gray" d="M442.9999970061044,1197.5000059733766L451.9999970061044,1197.5000059733766"></path></g><path id="node_outline63" fill="none" stroke="none" d="M353.4999967124777,1186.5000059733766h83a5,5,0,0,1,5,5v12a5,5,0,0,1,-5,5h-83a5,5,0,0,1,-5,-5v-12a5,5,0,0,1,5,-5z"></path><g id="node_text63" fill="black"><text id="kity_text_290" text-rendering="inherit" font-size="12" dy=".8em" y="1189.7000059514978" x="358.4999967124777">保留状态算子</text></g></g><g id="minder_node64"><g id="node_expander61" style="cursor: pointer;" display="none"><path id="kity_path_537" fill="white" stroke="gray" d="M320.5000043745315,1197.5000059733766A6,6,0,1,1,308.5000043745315,1197.5000059733766A6,6,0,1,1,320.5000043745315,1197.5000059733766"></path><path id="kity_path_538" fill="none" stroke="gray"></path></g><path id="node_outline62" fill="none" stroke="none" d="M57.499993114623294,1186.5000059733766h246a5,5,0,0,1,5,5v12a5,5,0,0,1,-5,5h-246a5,5,0,0,1,-5,-5v-12a5,5,0,0,1,5,-5z"></path><g id="node_text62" fill="black"><text id="kity_text_288" text-rendering="inherit" font-size="12" dy=".8em" y="1189.7000059514978" x="62.499993114623294">ProcessWindowFunction&#xa0;(用户自定义窗口)</text></g></g><g id="minder_node3"><g id="node_expander1" style="cursor: pointer;" display="none"><path id="kity_path_357" fill="white" stroke="gray" d="M1108.5000057557334,32.49999181290207A6,6,0,1,1,1096.5000057557334,32.49999181290207A6,6,0,1,1,1108.5000057557334,32.49999181290207"></path><path id="kity_path_358" fill="none" stroke="gray"></path></g><path id="node_outline2" fill="none" stroke="none" d="M1113.500005950212,21.499991812902067h335a5,5,0,0,1,5,5v12a5,5,0,0,1,-5,5h-335a5,5,0,0,1,-5,-5v-12a5,5,0,0,1,5,-5z"></path><g id="node_text2" fill="black"><text id="kity_text_157" text-rendering="inherit" font-size="12" dy=".8em" y="24.69999179102323" x="1118.500005950212">将无限变为有界流，以窗口为切分单位，将数据执行特定计算</text></g></g><g id="minder_node65"><g id="node_expander64" style="cursor: pointer;"><path id="kity_path_552" fill="white" stroke="gray" d="M453.4999993705861,978.5000033114504A6,6,0,1,1,441.4999993705861,978.5000033114504A6,6,0,1,1,453.4999993705861,978.5000033114504"></path><path id="kity_path_553" fill="none" stroke="gray" d="M442.9999993705861,978.5000033114504L451.9999993705861,978.5000033114504"></path></g><path id="node_outline65" fill="none" stroke="none" d="M364.4999968461817,967.5000033114504h72a5,5,0,0,1,5,5v12a5,5,0,0,1,-5,5h-72a5,5,0,0,1,-5,-5v-12a5,5,0,0,1,5,-5z" stroke-width="3"></path><g id="node_text65" fill="black"><text id="kity_text_549" text-rendering="inherit" font-size="12" dy=".8em" y="970.7000032895716" x="369.4999968461817">窗口不触发</text></g></g><g id="minder_node66"><g id="node_expander65" style="cursor: pointer;" display="none"><path id="kity_path_560" fill="white" stroke="gray" d="M331.49999095187354,934.5000027766342A6,6,0,1,1,319.49999095187354,934.5000027766342A6,6,0,1,1,331.49999095187354,934.5000027766342"></path><path id="kity_path_561" fill="none" stroke="gray"></path></g><path id="node_outline66" fill="none" stroke="none" d="M150.49999424503017,914.5000027766342h164a5,5,0,0,1,5,5v30a5,5,0,0,1,-5,5h-164a5,5,0,0,1,-5,-5v-30a5,5,0,0,1,5,-5z" stroke-width="3"></path><g id="node_text66" fill="black"><text id="kity_text_557" text-rendering="inherit" font-size="12" dy=".8em" y="917.7000027547554" x="155.49999424503017">- Watermark 不更新</text><text id="kity_text_572" text-rendering="inherit" font-size="12" dy=".8em" y="935.7000027547554" x="155.49999424503017">1. TimestampAssigner 异常</text></g></g><g id="minder_node67"><g id="node_expander66" style="cursor: pointer;" display="none"><path id="kity_path_568" fill="white" stroke="gray" d="M331.4999877992313,1013.5000037368724A6,6,0,1,1,319.4999877992313,1013.5000037368724A6,6,0,1,1,331.4999877992313,1013.5000037368724"></path><path id="kity_path_569" fill="none" stroke="gray"></path></g><path id="node_outline67" fill="none" stroke="none" d="M50.499993029538814,984.5000037368724h264a5,5,0,0,1,5,5v48a5,5,0,0,1,-5,5h-264a5,5,0,0,1,-5,-5v-48a5,5,0,0,1,5,-5z" stroke-width="3"></path><g id="node_text67" fill="black"><text id="kity_text_565" text-rendering="inherit" font-size="12" dy=".8em" y="987.7000037149935" x="55.499993029538814">- Watermark 更新</text><text id="kity_text_570" text-rendering="inherit" font-size="12" dy=".8em" y="1005.7000037149935" x="55.499993029538814">1. watermark 一直没有达到关闭的下限</text><text id="kity_text_571" text-rendering="inherit" font-size="12" dy=".8em" y="1023.7000037149935" x="55.499993029538814">2. 窗口跨度过大，可以使用提前触发，输出结果</text></g></g><g id="minder_node68"><g id="node_expander67" style="cursor: pointer;" display="none"><path id="kity_path_579" fill="white" stroke="gray" d="M360.4999950875369,543.4999980240631A6,6,0,1,1,348.4999950875369,543.4999980240631A6,6,0,1,1,360.4999950875369,543.4999980240631"></path><path id="kity_path_580" fill="none" stroke="gray"></path></g><path id="node_outline68" fill="none" stroke="none" d="M43.49999294445445,460.4999980240631h300a5,5,0,0,1,5,5v156a5,5,0,0,1,-5,5h-300a5,5,0,0,1,-5,-5v-156a5,5,0,0,1,5,-5z" stroke-width="3"></path><g id="node_text68" fill="black"><text id="kity_text_576" text-rendering="inherit" font-size="12" dy=".8em" y="463.6999980021842" x="48.49999294445445">- 处理流程</text><text id="kity_text_581" text-rendering="inherit" font-size="12" dy=".8em" y="481.6999980021842" x="48.49999294445445">1. 利用 WindowAssigner 把数据划分到到对应 pane</text><text id="kity_text_582" text-rendering="inherit" font-size="12" dy=".8em" y="499.6999980021842" x="48.49999294445445">&#xa0;中, pane 就是逻辑上的窗口(pane 中的数据，windo</text><text id="kity_text_583" text-rendering="inherit" font-size="12" dy=".8em" y="517.6999980021842" x="48.49999294445445">w 和 key是一致的)。</text><text id="kity_text_584" text-rendering="inherit" font-size="12" dy=".8em" y="535.6999980021842" x="48.49999294445445">2. 数据放入到对应的 state 中。</text><text id="kity_text_585" text-rendering="inherit" font-size="12" dy=".8em" y="553.6999980021842" x="48.49999294445445">3. Trigger.onElement 调用窗口 triger 实现，确定是</text><text id="kity_text_586" text-rendering="inherit" font-size="12" dy=".8em" y="571.6999980021842" x="48.49999294445445">否触发窗口计算。</text><text id="kity_text_587" text-rendering="inherit" font-size="12" dy=".8em" y="589.6999980021842" x="48.49999294445445">4. 触发完成后逻辑处理完，清空对应的窗口状态。迟到</text><text id="kity_text_588" text-rendering="inherit" font-size="12" dy=".8em" y="607.6999980021842" x="48.49999294445445">数据可以 sideout 输出。</text></g></g><g id="minder_node69"><g id="node_expander68" style="cursor: pointer;"><path id="kity_path_595" fill="white" stroke="gray" d="M1108.5000057557334,1424.5000087325418A6,6,0,1,1,1096.5000057557334,1424.5000087325418A6,6,0,1,1,1108.5000057557334,1424.5000087325418"></path><path id="kity_path_596" fill="none" stroke="gray" d="M1098.0000057557334,1424.5000087325418L1107.0000057557334,1424.5000087325418"></path></g><path id="node_outline69" fill="none" stroke="none" d="M1113.500005950212,1413.5000087325418h49a5,5,0,0,1,5,5v12a5,5,0,0,1,-5,5h-49a5,5,0,0,1,-5,-5v-12a5,5,0,0,1,5,-5z" stroke-width="3"></path><g id="node_text69" fill="black"><text id="kity_text_592" text-rendering="inherit" font-size="12" dy=".8em" y="1416.700008710663" x="1118.500005950212">Evictor</text></g></g><g id="minder_node70"><g id="node_expander69" style="cursor: pointer;"><path id="kity_path_603" fill="white" stroke="gray" d="M1207.5000069590699,1372.5000081004864A6,6,0,1,1,1195.5000069590699,1372.5000081004864A6,6,0,1,1,1207.5000069590699,1372.5000081004864"></path><path id="kity_path_604" fill="none" stroke="gray" d="M1197.0000069590699,1372.5000081004864L1206.0000069590699,1372.5000081004864"></path></g><path id="node_outline70" fill="none" stroke="none" d="M1212.5000071535485,1361.5000081004864h59a5,5,0,0,1,5,5v12a5,5,0,0,1,-5,5h-59a5,5,0,0,1,-5,-5v-12a5,5,0,0,1,5,-5z" stroke-width="3"></path><g id="node_text70" fill="black"><text id="kity_text_600" text-rendering="inherit" font-size="12" dy=".8em" y="1364.7000080786077" x="1217.5000071535485">内置实现</text></g></g><g id="minder_node71"><g id="node_expander70" style="cursor: pointer;" display="none"><path id="kity_path_611" fill="white" stroke="gray" d="M1316.5000082839554,1346.5000077844586A6,6,0,1,1,1304.5000082839554,1346.5000077844586A6,6,0,1,1,1316.5000082839554,1346.5000077844586"></path><path id="kity_path_612" fill="none" stroke="gray"></path></g><path id="node_outline71" fill="none" stroke="none" d="M1321.500008478434,1335.5000077844586h84a5,5,0,0,1,5,5v12a5,5,0,0,1,-5,5h-84a5,5,0,0,1,-5,-5v-12a5,5,0,0,1,5,-5z" stroke-width="3"></path><g id="node_text71" fill="black"><text id="kity_text_608" text-rendering="inherit" font-size="12" dy=".8em" y="1338.7000077625798" x="1326.500008478434">CountEvictor</text></g></g><g id="minder_node72"><g id="node_expander71" style="cursor: pointer;" display="none"><path id="kity_path_619" fill="white" stroke="gray" d="M1316.5000082839554,1398.500008416514A6,6,0,1,1,1304.5000082839554,1398.500008416514A6,6,0,1,1,1316.5000082839554,1398.500008416514"></path><path id="kity_path_620" fill="none" stroke="gray"></path></g><path id="node_outline72" fill="none" stroke="none" d="M1321.500008478434,1387.500008416514h77a5,5,0,0,1,5,5v12a5,5,0,0,1,-5,5h-77a5,5,0,0,1,-5,-5v-12a5,5,0,0,1,5,-5z" stroke-width="3"></path><g id="node_text72" fill="black"><text id="kity_text_616" text-rendering="inherit" font-size="12" dy=".8em" y="1390.7000083946352" x="1326.500008478434">TimeEvictor</text></g></g><g id="minder_node73"><g id="node_expander72" style="cursor: pointer;"><path id="kity_path_627" fill="white" stroke="gray" d="M1207.5000069590699,1476.5000093645974A6,6,0,1,1,1195.5000069590699,1476.5000093645974A6,6,0,1,1,1207.5000069590699,1476.5000093645974"></path><path id="kity_path_628" fill="none" stroke="gray" d="M1197.0000069590699,1476.5000093645974L1206.0000069590699,1476.5000093645974"></path></g><path id="node_outline73" fill="none" stroke="none" d="M1212.5000071535485,1465.5000093645974h74a5,5,0,0,1,5,5v12a5,5,0,0,1,-5,5h-74a5,5,0,0,1,-5,-5v-12a5,5,0,0,1,5,-5z" stroke-width="3"></path><g id="node_text73" fill="black"><text id="kity_text_624" text-rendering="inherit" font-size="12" dy=".8em" y="1468.7000093427187" x="1217.5000071535485">Evictor方法</text></g></g><g id="minder_node74"><g id="node_expander73" style="cursor: pointer;" display="none"><path id="kity_path_635" fill="white" stroke="gray" d="M1331.5000084662793,1450.5000090485696A6,6,0,1,1,1319.5000084662793,1450.5000090485696A6,6,0,1,1,1331.5000084662793,1450.5000090485696"></path><path id="kity_path_636" fill="none" stroke="gray"></path></g><path id="node_outline74" fill="none" stroke="none" d="M1336.5000086607579,1439.5000090485696h75a5,5,0,0,1,5,5v12a5,5,0,0,1,-5,5h-75a5,5,0,0,1,-5,-5v-12a5,5,0,0,1,5,-5z" stroke-width="3"></path><g id="node_text74" fill="black"><text id="kity_text_632" text-rendering="inherit" font-size="12" dy=".8em" y="1442.7000090266909" x="1341.5000086607579">evictBefore</text></g></g><g id="minder_node75"><g id="node_expander74" style="cursor: pointer;" display="none"><path id="kity_path_643" fill="white" stroke="gray" d="M1331.5000084662793,1502.5000096806252A6,6,0,1,1,1319.5000084662793,1502.5000096806252A6,6,0,1,1,1331.5000084662793,1502.5000096806252"></path><path id="kity_path_644" fill="none" stroke="gray" d="M1321.0000084662793,1502.5000096806252L1330.0000084662793,1502.5000096806252"></path></g><path id="node_outline75" fill="none" stroke="none" d="M1336.5000086607579,1491.5000096806252h66a5,5,0,0,1,5,5v12a5,5,0,0,1,-5,5h-66a5,5,0,0,1,-5,-5v-12a5,5,0,0,1,5,-5z" stroke-width="3"></path><g id="node_text75" fill="black"><text id="kity_text_640" text-rendering="inherit" font-size="12" dy=".8em" y="1494.7000096587465" x="1341.5000086607579">evictAfter</text></g></g></g></g></svg>