<svg id="kity_svg_6" xmlns="http://www.w3.org/2000/svg" xmlns:xlink="http://www.w3.org/1999/xlink" version="1.1" width="705" height="406" style="background: rgb(251, 251, 251); visibility: visible;" viewBox="0 0 705 406"><defs id="kity_defs_7"><linearGradient id="kity_linearGradient_17" x1="0" y1="0" x2="0" y2="1"><stop id="kity_stop_18" offset="0" stop-color="rgb(255, 255, 255)"></stop><stop id="kity_stop_19" offset="1" stop-color="rgb(204, 204, 204)"></stop></linearGradient><marker id="kity_marker_2" orient="auto" refX="6" refY="0" viewBox="-7 -7 14 14" markerWidth="7" markerHeight="7" markerUnits="userSpaceOnUse"><path id="kity_path_3" fill="rgb(115, 161, 191)" stroke="none" d="M6,0A6,6,0,1,1,-6,0A6,6,0,1,1,6,0"></path></marker></defs><g id="kity_g_8"><g id="minder1" text-rendering="optimize-speed"><g id="minder_connect_group1"><path id="kity_path_31" fill="none" stroke="rgb(115, 161, 191)" stroke-width="1" d="M80.5000142000228,225.50000576924705A122,142,0,0,1,202.5000142000228,83.50000576924705"></path><path id="kity_path_39" fill="none" stroke="rgb(115, 161, 191)" stroke-width="1" d="M80.5000142000228,225.50000576924705A114,95,0,0,0,194.5000142000228,320.5000057692471"></path><path id="kity_path_100" fill="none" stroke="rgb(115, 161, 191)" stroke-width="1" d="M314.5000142000228,83.50000576924705C329.5000142000228,83.50000576924705,329.5000142000228,45.50000576924705,344.5000142000228,45.50000576924705L479.5000142000228,45.50000576924705"></path><path id="kity_path_101" fill="none" stroke="rgb(115, 161, 191)" stroke-width="1" d="M314.5000142000228,83.50000576924705C329.5000142000228,83.50000576924705,329.5000142000228,97.50000576924705,344.5000142000228,97.50000576924705L447.5000142000228,97.50000576924705"></path><path id="kity_path_102" fill="none" stroke="rgb(115, 161, 191)" stroke-width="1" d="M314.5000142000228,83.50000576924705C329.5000142000228,83.50000576924705,329.5000142000228,149.50000576924705,344.5000142000228,149.50000576924705L603.5000142000229,149.50000576924705"></path><path id="kity_path_103" fill="none" stroke="rgb(115, 161, 191)" stroke-width="1" d="M307.5000142000228,320.5000057692471C322.5000142000228,320.5000057692471,322.5000142000228,282.5000057692471,337.5000142000228,282.5000057692471L598.5000142000229,282.5000057692471"></path><path id="kity_path_104" fill="none" stroke="rgb(115, 161, 191)" stroke-width="1" d="M307.5000142000228,320.5000057692471C322.5000142000228,320.5000057692471,322.5000142000228,334.5000057692471,337.5000142000228,334.5000057692471L685.5000142000229,334.5000057692471"></path><path id="kity_path_105" fill="none" stroke="rgb(115, 161, 191)" stroke-width="1" d="M307.5000142000228,320.5000057692471C322.5000142000228,320.5000057692471,322.5000142000228,386.5000057692471,337.5000142000228,386.5000057692471L487.5000142000228,386.5000057692471"></path></g><g id="minder_node1"><path id="node_outline1" fill="rgb(115, 161, 191)" stroke="rgb(115, 161, 191)" d="M25.500014200022804,205.50000576924705h110a5,5,0,0,1,5,5v30a5,5,0,0,1,-5,5h-110a5,5,0,0,1,-5,-5v-30a5,5,0,0,1,5,-5z" stroke-width="3"></path><g id="node_text1" fill="white"><text id="kity_text_22" text-rendering="inherit" font-size="16" dy=".8em" y="215.10000567001654" x="44.500014200022804">Flink 监控</text></g></g><g id="kity_g_12" display="none"><path id="kity_path_13" fill="none" stroke="none" d="M44.500014200022804,225.50000576924705h0v0h0z"></path></g><g id="kity_g_14" display="none"><path id="kity_path_15" fill="none" stroke="none" d="M44.500014200022804,225.50000576924705h0v0h0z"></path><path id="kity_path_16" fill="none" stroke="none"></path></g><g id="minder_node2" opacity="1"><g id="node_expander4" style="cursor: pointer;"><path id="kity_path_80" fill="white" stroke="gray" d="M203.50001702303194,83.50000404324933A6,6,0,1,1,191.50001702303194,83.50000404324933A6,6,0,1,1,203.50001702303194,83.50000404324933"></path><path id="kity_path_81" fill="none" stroke="gray" d="M193.00001702303194,83.50000404324933L202.00001702303194,83.50000404324933"></path></g><path id="node_outline5" fill="rgb(238, 243, 246)" stroke="rgb(115, 161, 191)" d="M207.50001638790724,70.50000404324933h104a3,3,0,0,1,3,3v20a3,3,0,0,1,-3,3h-104a3,3,0,0,1,-3,-3v-20a3,3,0,0,1,3,-3z" stroke-width="1"></path><g id="node_text5" fill="black"><text id="kity_text_53" text-rendering="inherit" font-size="14" dy=".8em" y="74.40000413156943" x="224.50001638790724">监控的目的</text></g></g><g id="minder_node6" opacity="1"><g id="node_expander8" style="cursor: pointer;"><path id="kity_path_92" fill="white" stroke="gray" d="M320.5000229114001,320.50000692396384A6,6,0,1,1,308.5000229114001,320.50000692396384A6,6,0,1,1,320.5000229114001,320.50000692396384"></path><path id="kity_path_93" fill="none" stroke="gray" d="M310.0000229114001,320.50000692396384L319.0000229114001,320.50000692396384"></path></g><path id="node_outline9" fill="rgb(238, 243, 246)" stroke="rgb(115, 161, 191)" d="M199.50001629066793,307.50000692396384h105a3,3,0,0,1,3,3v20a3,3,0,0,1,-3,3h-105a3,3,0,0,1,-3,-3v-20a3,3,0,0,1,3,-3z" stroke-width="1"></path><g id="node_text9" fill="black"><text id="kity_text_61" text-rendering="inherit" font-size="14" dy=".8em" y="311.40000701228394" x="216.50001629066793">监控的手段</text></g></g><g id="minder_node3"><g id="node_expander1" style="cursor: pointer;" display="none"><path id="kity_path_71" fill="white" stroke="gray" d="M354.50001789511646,31.500003411193852A6,6,0,1,1,342.50001789511646,31.500003411193852A6,6,0,1,1,354.50001789511646,31.500003411193852"></path><path id="kity_path_72" fill="none" stroke="gray"></path></g><path id="node_outline2" fill="none" stroke="none" d="M359.5000180895951,20.50000341119386h115a5,5,0,0,1,5,5v12a5,5,0,0,1,-5,5h-115a5,5,0,0,1,-5,-5v-12a5,5,0,0,1,5,-5z"></path><g id="node_text2" fill="black"><text id="kity_text_47" text-rendering="inherit" font-size="12" dy=".8em" y="23.70000351191777" x="364.5000180895951">任务是否正常(监控)</text></g></g><g id="minder_node4"><g id="node_expander2" style="cursor: pointer;" display="none"><path id="kity_path_74" fill="white" stroke="gray" d="M354.50001789511646,83.50000404324933A6,6,0,1,1,342.50001789511646,83.50000404324933A6,6,0,1,1,354.50001789511646,83.50000404324933"></path><path id="kity_path_75" fill="none" stroke="gray"></path></g><path id="node_outline3" fill="none" stroke="none" d="M359.5000180895951,72.50000404324933h83a5,5,0,0,1,5,5v12a5,5,0,0,1,-5,5h-83a5,5,0,0,1,-5,-5v-12a5,5,0,0,1,5,-5z"></path><g id="node_text3" fill="black"><text id="kity_text_49" text-rendering="inherit" font-size="12" dy=".8em" y="75.70000414397325" x="364.5000180895951">任务总体延时</text></g></g><g id="minder_node5"><g id="node_expander3" style="cursor: pointer;" display="none"><path id="kity_path_77" fill="white" stroke="gray" d="M354.50001789511646,135.50000467530484A6,6,0,1,1,342.50001789511646,135.50000467530484A6,6,0,1,1,354.50001789511646,135.50000467530484"></path><path id="kity_path_78" fill="none" stroke="gray"></path></g><path id="node_outline4" fill="none" stroke="none" d="M359.5000180895951,124.50000467530484h239a5,5,0,0,1,5,5v12a5,5,0,0,1,-5,5h-239a5,5,0,0,1,-5,-5v-12a5,5,0,0,1,5,-5z"></path><g id="node_text4" fill="black"><text id="kity_text_51" text-rendering="inherit" font-size="12" dy=".8em" y="127.70000477602875" x="364.5000180895951">任务的瓶颈，是否存在资源使用不合理现象</text></g></g><g id="minder_node7"><g id="node_expander5" style="cursor: pointer;" display="none"><path id="kity_path_83" fill="white" stroke="gray" d="M347.5000178100321,268.50000629190833A6,6,0,1,1,335.5000178100321,268.50000629190833A6,6,0,1,1,347.5000178100321,268.50000629190833"></path><path id="kity_path_84" fill="none" stroke="gray"></path></g><path id="node_outline6" fill="none" stroke="none" d="M352.5000180045107,257.50000629190833h241a5,5,0,0,1,5,5v12a5,5,0,0,1,-5,5h-241a5,5,0,0,1,-5,-5v-12a5,5,0,0,1,5,-5z" stroke-width="3"></path><g id="node_text6" fill="black"><text id="kity_text_55" text-rendering="inherit" font-size="12" dy=".8em" y="260.70000639263225" x="357.5000180045107">主动查询(Rest Api, flink metric+集群信息)</text></g></g><g id="minder_node8"><g id="node_expander6" style="cursor: pointer;" display="none"><path id="kity_path_86" fill="white" stroke="gray" d="M347.5000178100321,320.50000692396384A6,6,0,1,1,335.5000178100321,320.50000692396384A6,6,0,1,1,347.5000178100321,320.50000692396384"></path><path id="kity_path_87" fill="none" stroke="gray"></path></g><path id="node_outline7" fill="none" stroke="none" d="M352.5000180045107,309.50000692396384h328a5,5,0,0,1,5,5v12a5,5,0,0,1,-5,5h-328a5,5,0,0,1,-5,-5v-12a5,5,0,0,1,5,-5z" stroke-width="3"></path><g id="node_text7" fill="black"><text id="kity_text_57" text-rendering="inherit" font-size="12" dy=".8em" y="312.70000702468775" x="357.5000180045107">数据采集(Flink metric 上报到jmx/influexDb/Prometheus)</text></g></g><g id="minder_node9"><g id="node_expander7" style="cursor: pointer;" display="none"><path id="kity_path_89" fill="white" stroke="gray" d="M347.5000178100321,372.50000755601934A6,6,0,1,1,335.5000178100321,372.50000755601934A6,6,0,1,1,347.5000178100321,372.50000755601934"></path><path id="kity_path_90" fill="none" stroke="gray"></path></g><path id="node_outline8" fill="none" stroke="none" d="M352.5000180045107,361.50000755601934h130a5,5,0,0,1,5,5v12a5,5,0,0,1,-5,5h-130a5,5,0,0,1,-5,-5v-12a5,5,0,0,1,5,-5z"></path><g id="node_text8" fill="black"><text id="kity_text_59" text-rendering="inherit" font-size="12" dy=".8em" y="364.70000765674325" x="357.5000180045107">物理机层面（io层面）</text></g></g></g></g></svg>