<svg id="kity_svg_6" xmlns="http://www.w3.org/2000/svg" xmlns:xlink="http://www.w3.org/1999/xlink" version="1.1" width="3444" height="753" style="background: rgb(251, 251, 251); visibility: visible;" viewBox="0 0 3444 753"><defs id="kity_defs_7"><linearGradient id="kity_linearGradient_17" x1="0" y1="0" x2="0" y2="1"><stop id="kity_stop_18" offset="0" stop-color="rgb(255, 255, 255)"></stop><stop id="kity_stop_19" offset="1" stop-color="rgb(204, 204, 204)"></stop></linearGradient><marker id="kity_marker_2" orient="auto" refX="6" refY="0" viewBox="-7 -7 14 14" markerWidth="7" markerHeight="7" markerUnits="userSpaceOnUse"><path id="kity_path_3" fill="rgb(115, 161, 191)" stroke="none" d="M6,0A6,6,0,1,1,-6,0A6,6,0,1,1,6,0"></path></marker></defs><g id="kity_g_8"><g id="minder1" text-rendering="optimize-speed"><g id="minder_connect_group1"><path id="kity_path_31" fill="none" stroke="rgb(115, 161, 191)" stroke-width="1" d="M1839.0000108405948,396.5000035688281A211.5,221,0,0,1,2050.5000108405948,175.5000035688281"></path><path id="kity_path_33" fill="none" stroke="rgb(115, 161, 191)" stroke-width="1" d="M1839.0000108405948,396.5000035688281A211.5,130,0,0,1,2050.5000108405948,266.5000035688281"></path><path id="kity_path_35" fill="none" stroke="rgb(115, 161, 191)" stroke-width="1" d="M1839.0000108405948,396.5000035688281A211.5,11,0,0,0,2050.5000108405948,407.5000035688281"></path><path id="kity_path_37" fill="none" stroke="rgb(115, 161, 191)" stroke-width="1" d="M1839.0000108405948,396.5000035688281A211.5,222,0,0,0,2050.5000108405948,618.5000035688281"></path><path id="kity_path_39" fill="none" stroke="rgb(115, 161, 191)" stroke-width="1" d="M1839.0000108405948,396.5000035688281A211.5,260,0,0,0,1627.5000108405948,136.5000035688281"></path><path id="kity_path_41" fill="none" stroke="rgb(115, 161, 191)" stroke-width="1" d="M1501.5000108405948,136.5000035688281C1486.5000108405948,136.5000035688281,1486.5000108405948,98.5000035688281,1471.5000108405948,98.5000035688281L1034.5000108405948,98.5000035688281"></path><path id="kity_path_43" fill="none" stroke="rgb(115, 161, 191)" stroke-width="1" d="M1501.5000108405948,136.5000035688281C1486.5000108405948,136.5000035688281,1486.5000108405948,204.5000035688281,1471.5000108405948,204.5000035688281L831.5000108405948,204.5000035688281"></path><path id="kity_path_45" fill="none" stroke="rgb(115, 161, 191)" stroke-width="1" d="M1501.5000108405948,136.5000035688281C1486.5000108405948,136.5000035688281,1486.5000108405948,256.5000035688281,1471.5000108405948,256.5000035688281L1071.5000108405948,256.5000035688281"></path><path id="kity_path_47" fill="none" stroke="rgb(115, 161, 191)" stroke-width="1" d="M1839.0000108405948,396.5000035688281A211.5,23,0,0,1,1627.5000108405948,419.5000035688281"></path><path id="kity_path_51" fill="none" stroke="rgb(115, 161, 191)" stroke-width="1" d="M1839.0000108405948,396.5000035688281A211.5,261,0,0,1,1627.5000108405948,657.5000035688281"></path><path id="kity_path_53" fill="none" stroke="rgb(115, 161, 191)" stroke-width="1" d="M1447.5000108405948,657.5000035688281C1432.5000108405948,657.5000035688281,1432.5000108405948,628.5000035688281,1417.5000108405948,628.5000035688281L805.5000108405948,628.5000035688281"></path><path id="kity_path_55" fill="none" stroke="rgb(115, 161, 191)" stroke-width="1" d="M1447.5000108405948,657.5000035688281C1432.5000108405948,657.5000035688281,1432.5000108405948,680.5000035688281,1417.5000108405948,680.5000035688281L1145.5000108405948,680.5000035688281"></path><path id="kity_path_57" fill="none" stroke="rgb(115, 161, 191)" stroke-width="1" d="M1447.5000108405948,657.5000035688281C1432.5000108405948,657.5000035688281,1432.5000108405948,732.5000035688281,1417.5000108405948,732.5000035688281L19.50001084059477,732.5000035688281"></path><path id="kity_path_150" fill="none" stroke="rgb(115, 161, 191)" stroke-width="1" d="M1504.5000108405948,419.5000035688281C1489.5000108405948,419.5000035688281,1489.5000108405948,444.5000035688281,1474.5000108405948,444.5000035688281L1066.5000108405948,444.5000035688281"></path><path id="kity_path_165" fill="none" stroke="rgb(115, 161, 191)" stroke-width="1" d="M1504.5000108405948,419.5000035688281C1489.5000108405948,419.5000035688281,1489.5000108405948,496.5000035688281,1474.5000108405948,496.5000035688281L834.5000108405948,496.5000035688281"></path><path id="kity_path_173" fill="none" stroke="rgb(115, 161, 191)" stroke-width="1" d="M1504.5000108405948,419.5000035688281C1489.5000108405948,419.5000035688281,1489.5000108405948,548.5000035688281,1474.5000108405948,548.5000035688281L559.5000108405948,548.5000035688281"></path><path id="kity_path_192" fill="none" stroke="rgb(115, 161, 191)" stroke-width="1" d="M2242.5000108405948,266.5000035688281C2257.5000108405948,266.5000035688281,2257.5000108405948,307.5000035688281,2272.5000108405948,307.5000035688281L2747.5000108405948,307.5000035688281"></path><path id="kity_path_203" fill="none" stroke="rgb(115, 161, 191)" stroke-width="1" d="M2191.5000108405948,407.5000035688281C2206.5000108405948,407.5000035688281,2206.5000108405948,369.5000035688281,2221.5000108405948,369.5000035688281L2670.5000108405948,369.5000035688281"></path><path id="kity_path_211" fill="none" stroke="rgb(115, 161, 191)" stroke-width="1" d="M2191.5000108405948,407.5000035688281C2206.5000108405948,407.5000035688281,2206.5000108405948,421.5000035688281,2221.5000108405948,421.5000035688281L2740.5000108405948,421.5000035688281"></path><path id="kity_path_219" fill="none" stroke="rgb(115, 161, 191)" stroke-width="1" d="M2191.5000108405948,407.5000035688281C2206.5000108405948,407.5000035688281,2206.5000108405948,473.5000035688281,2221.5000108405948,473.5000035688281L2674.5000108405948,473.5000035688281"></path><path id="kity_path_227" fill="none" stroke="rgb(115, 161, 191)" stroke-width="1" d="M2173.5000108405948,618.5000035688281C2188.5000108405948,618.5000035688281,2188.5000108405948,625.5000035688281,2203.5000108405948,625.5000035688281L2719.5000108405948,625.5000035688281"></path><path id="kity_path_240" fill="none" stroke="rgb(115, 161, 191)" stroke-width="1" d="M2173.5000108405948,618.5000035688281C2188.5000108405948,618.5000035688281,2188.5000108405948,677.5000035688281,2203.5000108405948,677.5000035688281L3423.5000108405948,677.5000035688281"></path><path id="kity_path_248" fill="none" stroke="rgb(115, 161, 191)" stroke-width="1" d="M2173.5000108405948,618.5000035688281C2188.5000108405948,618.5000035688281,2188.5000108405948,729.5000035688281,2203.5000108405948,729.5000035688281L2661.5000108405948,729.5000035688281"></path></g><g id="minder_node1"><path id="node_outline1" fill="rgb(115, 161, 191)" stroke="rgb(115, 161, 191)" d="M1750.5000108405948,376.5000035688281h177a5,5,0,0,1,5,5v30a5,5,0,0,1,-5,5h-177a5,5,0,0,1,-5,-5v-30a5,5,0,0,1,5,-5z" stroke-width="3"></path><g id="node_text1" fill="white"><text id="kity_text_22" text-rendering="inherit" font-size="16" dy=".8em" y="386.1000035330653" x="1769.5000108405948">ResourceManager</text></g></g><g id="kity_g_12" display="none"><path id="kity_path_13" fill="none" stroke="none" d="M1769.5000108405948,396.5000035688281h0v0h0z"></path></g><g id="kity_g_14" display="none"><path id="kity_path_15" fill="none" stroke="none" d="M1769.5000108405948,396.5000035688281h0v0h0z"></path><path id="kity_path_16" fill="none" stroke="none"></path></g><g id="minder_node2"><g id="node_expander1" style="cursor: pointer;" display="none"><path id="kity_path_106" fill="white" stroke="gray" d="M2051.5000149533153,175.50000027567148A6,6,0,1,1,2039.5000149533153,175.50000027567148A6,6,0,1,1,2051.5000149533153,175.50000027567148"></path><path id="kity_path_107" fill="none" stroke="gray"></path></g><path id="node_outline2" fill="rgb(238, 243, 246)" stroke="rgb(115, 161, 191)" d="M2055.5000153556466,162.50000027567148h90a3,3,0,0,1,3,3v20a3,3,0,0,1,-3,3h-90a3,3,0,0,1,-3,-3v-20a3,3,0,0,1,3,-3z" stroke-width="1"></path><g id="node_text2" fill="black"><text id="kity_text_59" text-rendering="inherit" font-size="14" dy=".8em" y="166.40000024437904" x="2072.5000153556466">安全控制</text></g></g><g id="minder_node3"><g id="node_expander2" style="cursor: pointer;"><path id="kity_path_109" fill="white" stroke="gray" d="M2051.5000149533153,266.50000163167715A6,6,0,1,1,2039.5000149533153,266.50000163167715A6,6,0,1,1,2051.5000149533153,266.50000163167715"></path><path id="kity_path_110" fill="none" stroke="gray" d="M2041.0000149533153,266.50000163167715L2050.0000149533153,266.50000163167715"></path></g><path id="node_outline3" fill="rgb(238, 243, 246)" stroke="rgb(115, 161, 191)" d="M2055.5000153556466,253.50000163167715h184a3,3,0,0,1,3,3v20a3,3,0,0,1,-3,3h-184a3,3,0,0,1,-3,-3v-20a3,3,0,0,1,3,-3z" stroke-width="1"></path><g id="node_text3" fill="black"><text id="kity_text_61" text-rendering="inherit" font-size="14" dy=".8em" y="257.4000016003847" x="2072.5000153556466">资源分配模块(调度模块)</text></g></g><g id="minder_node4"><g id="node_expander3" style="cursor: pointer;"><path id="kity_path_112" fill="white" stroke="gray" d="M2051.5000149533153,407.5000037327409A6,6,0,1,1,2039.5000149533153,407.5000037327409A6,6,0,1,1,2051.5000149533153,407.5000037327409"></path><path id="kity_path_113" fill="none" stroke="gray" d="M2041.0000149533153,407.5000037327409L2050.0000149533153,407.5000037327409"></path></g><path id="node_outline4" fill="rgb(238, 243, 246)" stroke="rgb(115, 161, 191)" d="M2055.5000153556466,394.5000037327409h133a3,3,0,0,1,3,3v20a3,3,0,0,1,-3,3h-133a3,3,0,0,1,-3,-3v-20a3,3,0,0,1,3,-3z" stroke-width="1"></path><g id="node_text4" fill="black"><text id="kity_text_63" text-rendering="inherit" font-size="14" dy=".8em" y="398.40000370144844" x="2072.5000153556466">状态机管理模块</text></g></g><g id="minder_node5"><g id="node_expander4" style="cursor: pointer;"><path id="kity_path_115" fill="white" stroke="gray" d="M2051.5000149533153,618.5000068768859A6,6,0,1,1,2039.5000149533153,618.5000068768859A6,6,0,1,1,2051.5000149533153,618.5000068768859"></path><path id="kity_path_116" fill="none" stroke="gray" d="M2041.0000149533153,618.5000068768859L2050.0000149533153,618.5000068768859"></path></g><path id="node_outline5" fill="rgb(238, 243, 246)" stroke="rgb(115, 161, 191)" d="M2055.5000153556466,605.5000068768859h115a3,3,0,0,1,3,3v20a3,3,0,0,1,-3,3h-115a3,3,0,0,1,-3,-3v-20a3,3,0,0,1,3,-3z" stroke-width="1"></path><g id="node_text5" fill="black"><text id="kity_text_65" text-rendering="inherit" font-size="14" dy=".8em" y="609.4000068455935" x="2072.5000153556466">AM管理模块</text></g></g><g id="minder_node6"><g id="node_expander8" style="cursor: pointer;"><path id="kity_path_127" fill="white" stroke="gray" d="M1638.5000087991357,136.4999996945262A6,6,0,1,1,1626.5000087991357,136.4999996945262A6,6,0,1,1,1638.5000087991357,136.4999996945262"></path><path id="kity_path_128" fill="none" stroke="gray" d="M1628.0000087991357,136.4999996945262L1637.0000087991357,136.4999996945262"></path></g><path id="node_outline9" fill="rgb(238, 243, 246)" stroke="rgb(115, 161, 191)" d="M1504.5000071451068,123.4999996945262h118a3,3,0,0,1,3,3v20a3,3,0,0,1,-3,3h-118a3,3,0,0,1,-3,-3v-20a3,3,0,0,1,3,-3z" stroke-width="1"></path><g id="node_text9" fill="black"><text id="kity_text_77" text-rendering="inherit" font-size="14" dy=".8em" y="127.39999966323376" x="1521.5000071451068">用户交互模块</text></g></g><g id="minder_node7"><g id="node_expander5" style="cursor: pointer;" display="none"><path id="kity_path_118" fill="white" stroke="gray" d="M1473.500006340444,57.49999851733446A6,6,0,1,1,1461.500006340444,57.49999851733446A6,6,0,1,1,1473.500006340444,57.49999851733446"></path><path id="kity_path_119" fill="none" stroke="gray"></path></g><path id="node_outline6" fill="none" stroke="none" d="M1039.500000037253,19.49999851733446h417a5,5,0,0,1,5,5v66a5,5,0,0,1,-5,5h-417a5,5,0,0,1,-5,-5v-66a5,5,0,0,1,5,-5z" stroke-width="3"></path><g id="node_text6" fill="black"><text id="kity_text_67" text-rendering="inherit" font-size="12" dy=".8em" y="22.69999849051237" x="1044.500000037253">ClientRMService:为普通用户提供服务，它处理来自客户端的各种RPC，比如</text><text id="kity_text_68" text-rendering="inherit" font-size="12" dy=".8em" y="40.69999849051237" x="1044.500000037253">应用提交</text><text id="kity_text_69" text-rendering="inherit" font-size="12" dy=".8em" y="58.69999849051237" x="1044.500000037253">终止应用</text><text id="kity_text_147" text-rendering="inherit" font-size="12" dy=".8em" y="76.69999849051237" x="1044.500000037253">获取应用状态等</text></g></g><g id="minder_node8"><g id="node_expander6" style="cursor: pointer;" display="none"><path id="kity_path_121" fill="white" stroke="gray" d="M1473.500006340444,163.50000009685755A6,6,0,1,1,1461.500006340444,163.50000009685755A6,6,0,1,1,1473.500006340444,163.50000009685755"></path><path id="kity_path_122" fill="none" stroke="gray"></path></g><path id="node_outline7" fill="none" stroke="none" d="M836.4999970123172,125.50000009685755h620a5,5,0,0,1,5,5v66a5,5,0,0,1,-5,5h-620a5,5,0,0,1,-5,-5v-66a5,5,0,0,1,5,-5z" stroke-width="3"></path><g id="node_text7" fill="black"><text id="kity_text_71" text-rendering="inherit" font-size="12" dy=".8em" y="128.70000007003546" x="841.4999970123172">AdminService:为管理员提供的独立接口，主要目的是为了防止大量普通用户请求阻塞管理员通道，提供如下功能：</text><text id="kity_text_72" text-rendering="inherit" font-size="12" dy=".8em" y="146.70000007003546" x="841.4999970123172">动态更新节点列表</text><text id="kity_text_73" text-rendering="inherit" font-size="12" dy=".8em" y="164.70000007003546" x="841.4999970123172">更新ACL列表</text><text id="kity_text_148" text-rendering="inherit" font-size="12" dy=".8em" y="182.70000007003546" x="841.4999970123172">更新队列信息等</text></g></g><g id="minder_node9"><g id="node_expander7" style="cursor: pointer;" display="none"><path id="kity_path_124" fill="white" stroke="gray" d="M1473.500006340444,242.50000127404928A6,6,0,1,1,1461.500006340444,242.50000127404928A6,6,0,1,1,1473.500006340444,242.50000127404928"></path><path id="kity_path_125" fill="none" stroke="gray"></path></g><path id="node_outline8" fill="none" stroke="none" d="M1076.5000005885959,231.50000127404928h380a5,5,0,0,1,5,5v12a5,5,0,0,1,-5,5h-380a5,5,0,0,1,-5,-5v-12a5,5,0,0,1,5,-5z" stroke-width="3"></path><g id="node_text8" fill="black"><text id="kity_text_75" text-rendering="inherit" font-size="12" dy=".8em" y="234.7000012472272" x="1081.5000005885959">WebApp:提供一个Web界面来让用户更友好的获知集群和应用的状态</text></g></g><g id="minder_node10"><g id="node_expander9" style="cursor: pointer;"><path id="kity_path_130" fill="white" stroke="gray" d="M1638.5000087991357,419.5000039115548A6,6,0,1,1,1626.5000087991357,419.5000039115548A6,6,0,1,1,1638.5000087991357,419.5000039115548"></path><path id="kity_path_131" fill="none" stroke="gray" d="M1628.0000087991357,419.5000039115548L1637.0000087991357,419.5000039115548"></path></g><path id="node_outline10" fill="rgb(238, 243, 246)" stroke="rgb(115, 161, 191)" d="M1507.5000071898103,406.5000039115548h115a3,3,0,0,1,3,3v20a3,3,0,0,1,-3,3h-115a3,3,0,0,1,-3,-3v-20a3,3,0,0,1,3,-3z" stroke-width="1"></path><g id="node_text10" fill="black"><text id="kity_text_79" text-rendering="inherit" font-size="14" dy=".8em" y="410.4000038802624" x="1524.5000071898103">NM管理模块</text></g></g><g id="minder_node12"><g id="node_expander14" style="cursor: pointer;"><path id="kity_path_145" fill="white" stroke="gray" d="M1638.5000087991357,657.5000074580312A6,6,0,1,1,1626.5000087991357,657.5000074580312A6,6,0,1,1,1638.5000087991357,657.5000074580312"></path><path id="kity_path_146" fill="none" stroke="gray" d="M1628.0000087991357,657.5000074580312L1637.0000087991357,657.5000074580312"></path></g><path id="node_outline15" fill="rgb(238, 243, 246)" stroke="rgb(115, 161, 191)" d="M1450.500006340444,644.5000074580312h172a3,3,0,0,1,3,3v20a3,3,0,0,1,-3,3h-172a3,3,0,0,1,-3,-3v-20a3,3,0,0,1,3,-3z" stroke-width="1"></path><g id="node_text15" fill="black"><text id="kity_text_90" text-rendering="inherit" font-size="14" dy=".8em" y="648.4000074267387" x="1467.500006340444">Application 管理模块</text></g></g><g id="minder_node13"><g id="node_expander11" style="cursor: pointer;" display="none"><path id="kity_path_136" fill="white" stroke="gray" d="M1419.5000055357814,605.5000066831708A6,6,0,1,1,1407.5000055357814,605.5000066831708A6,6,0,1,1,1419.5000055357814,605.5000066831708"></path><path id="kity_path_137" fill="none" stroke="gray"></path></g><path id="node_outline12" fill="none" stroke="none" d="M810.499996624887,585.5000066831708h592a5,5,0,0,1,5,5v30a5,5,0,0,1,-5,5h-592a5,5,0,0,1,-5,-5v-30a5,5,0,0,1,5,-5z" stroke-width="3"></path><g id="node_text12" fill="black"><text id="kity_text_83" text-rendering="inherit" font-size="12" dy=".8em" y="588.7000066563487" x="815.499996624887">ApplicationACLsManager:管理应用程序访问权限，包含两部分：查看权限：主要用于查看应用程序基本信息</text><text id="kity_text_84" text-rendering="inherit" font-size="12" dy=".8em" y="606.7000066563487" x="815.499996624887">修改权限：主要用于修改应用程序优先级、杀死应用程序等</text></g></g><g id="minder_node14"><g id="node_expander12" style="cursor: pointer;" display="none"><path id="kity_path_139" fill="white" stroke="gray" d="M1419.5000055357814,666.5000075921416A6,6,0,1,1,1407.5000055357814,666.5000075921416A6,6,0,1,1,1419.5000055357814,666.5000075921416"></path><path id="kity_path_140" fill="none" stroke="gray"></path></g><path id="node_outline13" fill="none" stroke="none" d="M1150.5000016912818,655.5000075921416h252a5,5,0,0,1,5,5v12a5,5,0,0,1,-5,5h-252a5,5,0,0,1,-5,-5v-12a5,5,0,0,1,5,-5z"></path><g id="node_text13" fill="black"><text id="kity_text_86" text-rendering="inherit" font-size="12" dy=".8em" y="658.7000075653195" x="1155.5000016912818">RMAppManager:管理应用程序的启动和关闭</text></g></g><g id="minder_node15"><g id="node_expander13" style="cursor: pointer;" display="none"><path id="kity_path_142" fill="white" stroke="gray" d="M1419.5000055357814,718.500008367002A6,6,0,1,1,1407.5000055357814,718.500008367002A6,6,0,1,1,1419.5000055357814,718.500008367002"></path><path id="kity_path_143" fill="none" stroke="gray"></path></g><path id="node_outline14" fill="none" stroke="none" d="M24.49998491257429,707.500008367002h1378a5,5,0,0,1,5,5v12a5,5,0,0,1,-5,5h-1378a5,5,0,0,1,-5,-5v-12a5,5,0,0,1,5,-5z"></path><g id="node_text14" fill="black"><text id="kity_text_88" text-rendering="inherit" font-size="12" dy=".8em" y="710.7000083401799" x="29.49998491257429">ContainerAllocationExpirer:当AM收到RM新分配的Container后，必须在一定时间(默认10m)内在对应的NM上启动该Container，否则RM将强制回收该Container，而一个已经分配的Container是否该被回收则是由ContainerAllocationExpirer决定和执行的</text></g></g><g id="minder_node16"><g id="node_expander15" style="cursor: pointer;" display="none"><path id="kity_path_155" fill="white" stroke="gray" d="M1476.5000063851476,367.50000313669443A6,6,0,1,1,1464.5000063851476,367.50000313669443A6,6,0,1,1,1476.5000063851476,367.50000313669443"></path><path id="kity_path_156" fill="none" stroke="gray"></path></g><path id="node_outline16" fill="none" stroke="none" d="M1071.50000051409,293.50000313669443h388a5,5,0,0,1,5,5v138a5,5,0,0,1,-5,5h-388a5,5,0,0,1,-5,-5v-138a5,5,0,0,1,5,-5z" stroke-width="3"></path><g id="node_text16" fill="black"><text id="kity_text_152" text-rendering="inherit" font-size="12" dy=".8em" y="296.70000310987234" x="1076.50000051409">ResourceTrackerService:处理来自NodeManager的请求，主要包括：</text><text id="kity_text_157" text-rendering="inherit" font-size="12" dy=".8em" y="314.70000310987234" x="1076.50000051409">- 注册：注册是NM启动时发生的行为，NM提供的信息包括：</text><text id="kity_text_158" text-rendering="inherit" font-size="12" dy=".8em" y="332.70000310987234" x="1076.50000051409">节点ID、可用资源上限信息等</text><text id="kity_text_159" text-rendering="inherit" font-size="12" dy=".8em" y="350.70000310987234" x="1076.50000051409">- 心跳：心跳是周期行为</text><text id="kity_text_160" text-rendering="inherit" font-size="12" dy=".8em" y="368.70000310987234" x="1076.50000051409">NM提供的信息包括：</text><text id="kity_text_161" text-rendering="inherit" font-size="12" dy=".8em" y="386.70000310987234" x="1076.50000051409">各个Container运行状态、运行的Application列表、节点健康状态等</text><text id="kity_text_162" text-rendering="inherit" font-size="12" dy=".8em" y="404.70000310987234" x="1076.50000051409">RM返回的信息包括：</text><text id="kity_text_163" text-rendering="inherit" font-size="12" dy=".8em" y="422.70000310987234" x="1076.50000051409">等待释放的Container列表、Application列表等</text></g></g><g id="minder_node17"><g id="node_expander16" style="cursor: pointer;" display="none"><path id="kity_path_170" fill="white" stroke="gray" d="M1476.5000063851476,482.50000485032797A6,6,0,1,1,1464.5000063851476,482.50000485032797A6,6,0,1,1,1476.5000063851476,482.50000485032797"></path><path id="kity_path_171" fill="none" stroke="gray"></path></g><path id="node_outline17" fill="none" stroke="none" d="M839.4999970570207,471.50000485032797h620a5,5,0,0,1,5,5v12a5,5,0,0,1,-5,5h-620a5,5,0,0,1,-5,-5v-12a5,5,0,0,1,5,-5z" stroke-width="3"></path><g id="node_text17" fill="black"><text id="kity_text_167" text-rendering="inherit" font-size="12" dy=".8em" y="474.7000048235059" x="844.4999970570207">NMLivelinessMonitor:监控NM是否活着，如果NM在一定时间(默认10m)内未上报心跳，则认为它死掉，需要移除</text></g></g><g id="minder_node18"><g id="node_expander17" style="cursor: pointer;" display="none"><path id="kity_path_178" fill="white" stroke="gray" d="M1476.5000063851476,534.5000056251884A6,6,0,1,1,1464.5000063851476,534.5000056251884A6,6,0,1,1,1476.5000063851476,534.5000056251884"></path><path id="kity_path_179" fill="none" stroke="gray"></path></g><path id="node_outline18" fill="none" stroke="none" d="M564.4999929592013,523.5000056251884h895a5,5,0,0,1,5,5v12a5,5,0,0,1,-5,5h-895a5,5,0,0,1,-5,-5v-12a5,5,0,0,1,5,-5z" stroke-width="3"></path><g id="node_text18" fill="black"><text id="kity_text_175" text-rendering="inherit" font-size="12" dy=".8em" y="526.7000055983663" x="569.4999929592013">NodesListManager:维护正常节点和异常节点列表，管理exclude(类似黑名单)和include(类似白名单)节点列表，这两个列表均是在配置文件中设置的，可以动态加载。</text></g></g><g id="minder_node20"><g id="node_expander19" style="cursor: pointer;" display="none"><path id="kity_path_197" fill="white" stroke="gray" d="M2282.5000183954835,266.50000163167715A6,6,0,1,1,2270.5000183954835,266.50000163167715A6,6,0,1,1,2282.5000183954835,266.50000163167715"></path><path id="kity_path_198" fill="none" stroke="gray"></path></g><path id="node_outline20" fill="none" stroke="none" d="M2287.500018633902,228.50000163167715h455a5,5,0,0,1,5,5v66a5,5,0,0,1,-5,5h-455a5,5,0,0,1,-5,-5v-66a5,5,0,0,1,5,-5z" stroke-width="3"></path><g id="node_text20" fill="black"><text id="kity_text_194" text-rendering="inherit" font-size="12" dy=".8em" y="231.70000160485506" x="2292.500018633902">ResourceScheduler是一个可插拔式的模块，自带三个调度器，用户可以自己定制。</text><text id="kity_text_199" text-rendering="inherit" font-size="12" dy=".8em" y="249.70000160485506" x="2292.500018633902">FIFO：先进先出，单用户</text><text id="kity_text_200" text-rendering="inherit" font-size="12" dy=".8em" y="267.70000160485506" x="2292.500018633902">Capacity Scheduler:容量调度器</text><text id="kity_text_201" text-rendering="inherit" font-size="12" dy=".8em" y="285.70000160485506" x="2292.500018633902">Fair Scheduler:公平调度器(FairScheduler基本上具备其它两种的所有功能)</text></g></g><g id="minder_node21"><g id="node_expander20" style="cursor: pointer;" display="none"><path id="kity_path_208" fill="white" stroke="gray" d="M2231.5000176355243,355.5000029578805A6,6,0,1,1,2219.5000176355243,355.5000029578805A6,6,0,1,1,2231.5000176355243,355.5000029578805"></path><path id="kity_path_209" fill="none" stroke="gray"></path></g><path id="node_outline21" fill="none" stroke="none" d="M2236.500017873943,344.5000029578805h429a5,5,0,0,1,5,5v12a5,5,0,0,1,-5,5h-429a5,5,0,0,1,-5,-5v-12a5,5,0,0,1,5,-5z" stroke-width="3"></path><g id="node_text21" fill="black"><text id="kity_text_205" text-rendering="inherit" font-size="12" dy=".8em" y="347.7000029310584" x="2241.500017873943">RMApp:维护一个应用程序的整个运行周期，包括从启动到运行结束的整个过程</text></g></g><g id="minder_node22"><g id="node_expander21" style="cursor: pointer;" display="none"><path id="kity_path_216" fill="white" stroke="gray" d="M2231.5000176355243,407.5000037327409A6,6,0,1,1,2219.5000176355243,407.5000037327409A6,6,0,1,1,2231.5000176355243,407.5000037327409"></path><path id="kity_path_217" fill="none" stroke="gray"></path></g><path id="node_outline22" fill="none" stroke="none" d="M2236.500017873943,396.5000037327409h499a5,5,0,0,1,5,5v12a5,5,0,0,1,-5,5h-499a5,5,0,0,1,-5,-5v-12a5,5,0,0,1,5,-5z" stroke-width="3"></path><g id="node_text22" fill="black"><text id="kity_text_213" text-rendering="inherit" font-size="12" dy=".8em" y="399.7000037059188" x="2241.500017873943">RMAppAttempt:一次应用程序的运行实例的整个生命周期，可以理解为APP的一次尝试运行</text></g></g><g id="minder_node23"><g id="node_expander22" style="cursor: pointer;" display="none"><path id="kity_path_224" fill="white" stroke="gray" d="M2231.5000176355243,459.50000450760126A6,6,0,1,1,2219.5000176355243,459.50000450760126A6,6,0,1,1,2231.5000176355243,459.50000450760126"></path><path id="kity_path_225" fill="none" stroke="gray"></path></g><path id="node_outline23" fill="none" stroke="none" d="M2236.500017873943,448.50000450760126h433a5,5,0,0,1,5,5v12a5,5,0,0,1,-5,5h-433a5,5,0,0,1,-5,-5v-12a5,5,0,0,1,5,-5z" stroke-width="3"></path><g id="node_text23" fill="black"><text id="kity_text_221" text-rendering="inherit" font-size="12" dy=".8em" y="451.70000448077917" x="2241.500017873943">RMContainer:一个Container的运行周期，包括从创建到运行结束的整个过程。</text></g></g><g id="minder_node24" opacity="1"><g id="node_expander23" style="cursor: pointer;" display="none"><path id="kity_path_232" fill="white" stroke="gray" d="M2213.5000173673034,566.5000061020255A6,6,0,1,1,2201.5000173673034,566.5000061020255A6,6,0,1,1,2213.5000173673034,566.5000061020255"></path><path id="kity_path_233" fill="none" stroke="gray"></path></g><path id="node_outline24" fill="none" stroke="none" d="M2218.500017605722,510.5000061020255h496a5,5,0,0,1,5,5v102a5,5,0,0,1,-5,5h-496a5,5,0,0,1,-5,-5v-102a5,5,0,0,1,5,-5z" stroke-width="3"></path><g id="node_text24" fill="black"><text id="kity_text_229" text-rendering="inherit" font-size="12" dy=".8em" y="513.7000060752034" x="2223.500017605722">ApplicationMasterService(AMS):处理来自AM的请求，包括：</text><text id="kity_text_234" text-rendering="inherit" font-size="12" dy=".8em" y="531.7000060752034" x="2223.500017605722">注册：是AM启动时发生的行为，信息包括：</text><text id="kity_text_235" text-rendering="inherit" font-size="12" dy=".8em" y="549.7000060752034" x="2223.500017605722">AM的启动节点、对外RPC端口、tracking URL等</text><text id="kity_text_236" text-rendering="inherit" font-size="12" dy=".8em" y="567.7000060752034" x="2223.500017605722">心跳：是周期行为</text><text id="kity_text_237" text-rendering="inherit" font-size="12" dy=".8em" y="585.7000060752034" x="2223.500017605722">AM提供的信息包括：所需资源的描述、待释放Container列表、黑名单列表等</text><text id="kity_text_238" text-rendering="inherit" font-size="12" dy=".8em" y="603.7000060752034" x="2223.500017605722">AMS返回的信息包括：新分配的Container、失败的Container、待抢占的Container列表等</text></g></g><g id="minder_node25"><g id="node_expander24" style="cursor: pointer;" display="none"><path id="kity_path_245" fill="white" stroke="gray" d="M2213.5000173673034,663.5000075474381A6,6,0,1,1,2201.5000173673034,663.5000075474381A6,6,0,1,1,2213.5000173673034,663.5000075474381"></path><path id="kity_path_246" fill="none" stroke="gray"></path></g><path id="node_outline25" fill="none" stroke="none" d="M2218.500017605722,652.5000075474381h1200a5,5,0,0,1,5,5v12a5,5,0,0,1,-5,5h-1200a5,5,0,0,1,-5,-5v-12a5,5,0,0,1,5,-5z" stroke-width="3"></path><g id="node_text25" fill="black"><text id="kity_text_242" text-rendering="inherit" font-size="12" dy=".8em" y="655.700007520616" x="2223.500017605722">AMLivelinessMonitor:监控AM是否活着，如果AM在一定时间(默认10m)内未上报心路，则认为它死掉，它上面正在运行的Container将会被置为失败状态，而AM本身会被分配到另一个节点上(用户可以指定重试次数，默认5)</text></g></g><g id="minder_node26"><g id="node_expander25" style="cursor: pointer;" display="none"><path id="kity_path_253" fill="white" stroke="gray" d="M2213.5000173673034,715.5000083222985A6,6,0,1,1,2201.5000173673034,715.5000083222985A6,6,0,1,1,2213.5000173673034,715.5000083222985"></path><path id="kity_path_254" fill="none" stroke="gray"></path></g><path id="node_outline26" fill="none" stroke="none" d="M2218.500017605722,704.5000083222985h438a5,5,0,0,1,5,5v12a5,5,0,0,1,-5,5h-438a5,5,0,0,1,-5,-5v-12a5,5,0,0,1,5,-5z" stroke-width="3"></path><g id="node_text26" fill="black"><text id="kity_text_250" text-rendering="inherit" font-size="12" dy=".8em" y="707.7000082954764" x="2223.500017605722">ApplicationMasterLauncher：与某个NM通信，要求它为某个应用程序启动AM</text></g></g></g></g></svg>