<svg id="kity_svg_6" xmlns="http://www.w3.org/2000/svg" xmlns:xlink="http://www.w3.org/1999/xlink" version="1.1" width="1786" height="759" style="background: rgb(251, 251, 251); visibility: visible;" viewBox="0 0 1786 759"><defs id="kity_defs_7"><linearGradient id="kity_linearGradient_17" x1="0" y1="0" x2="0" y2="1"><stop id="kity_stop_18" offset="0" stop-color="rgb(255, 255, 255)"></stop><stop id="kity_stop_19" offset="1" stop-color="rgb(204, 204, 204)"></stop></linearGradient><marker id="kity_marker_2" orient="auto" refX="6" refY="0" viewBox="-7 -7 14 14" markerWidth="7" markerHeight="7" markerUnits="userSpaceOnUse"><path id="kity_path_3" fill="rgb(115, 161, 191)" stroke="none" d="M6,0A6,6,0,1,1,-6,0A6,6,0,1,1,6,0"></path></marker></defs><g id="kity_g_8"><g id="minder1" text-rendering="optimize-speed"><g id="minder_connect_group1"><path id="kity_path_31" fill="none" stroke="rgb(115, 161, 191)" stroke-width="1" d="M932.4999782131292,433.4999924450805A176,0,0,0,1,1108.4999782131292,433.4999924450805"></path><path id="kity_path_33" fill="none" stroke="rgb(115, 161, 191)" stroke-width="1" d="M1377.4999782131292,433.4999924450805C1392.4999782131292,433.4999924450805,1392.4999782131292,298.4999924450805,1407.4999782131292,298.4999924450805L1471.4999782131292,298.4999924450805"></path><path id="kity_path_35" fill="none" stroke="rgb(115, 161, 191)" stroke-width="1" d="M1471.4999782131292,298.4999924450805C1486.4999782131292,298.4999924450805,1486.4999782131292,129.49999244508052,1501.4999782131292,129.49999244508052L1566.4999782131292,129.49999244508052"></path><path id="kity_path_37" fill="none" stroke="rgb(115, 161, 191)" stroke-width="1" d="M1566.4999782131292,129.49999244508052C1581.4999782131292,129.49999244508052,1581.4999782131292,103.49999244508052,1596.4999782131292,103.49999244508052L1696.4999782131292,103.49999244508052"></path><path id="kity_path_39" fill="none" stroke="rgb(115, 161, 191)" stroke-width="1" d="M1566.4999782131292,129.49999244508052C1581.4999782131292,129.49999244508052,1581.4999782131292,155.49999244508052,1596.4999782131292,155.49999244508052L1723.4999782131292,155.49999244508052"></path><path id="kity_path_41" fill="none" stroke="rgb(115, 161, 191)" stroke-width="1" d="M1471.4999782131292,298.4999924450805C1486.4999782131292,298.4999924450805,1486.4999782131292,233.49999244508052,1501.4999782131292,233.49999244508052L1572.4999782131292,233.49999244508052"></path><path id="kity_path_43" fill="none" stroke="rgb(115, 161, 191)" stroke-width="1" d="M1572.4999782131292,233.49999244508052C1587.4999782131292,233.49999244508052,1587.4999782131292,207.49999244508052,1602.4999782131292,207.49999244508052L1691.4999782131292,207.49999244508052"></path><path id="kity_path_45" fill="none" stroke="rgb(115, 161, 191)" stroke-width="1" d="M1572.4999782131292,233.49999244508052C1587.4999782131292,233.49999244508052,1587.4999782131292,259.4999924450805,1602.4999782131292,259.4999924450805L1727.4999782131292,259.4999924450805"></path><path id="kity_path_47" fill="none" stroke="rgb(115, 161, 191)" stroke-width="1" d="M1471.4999782131292,298.4999924450805C1486.4999782131292,298.4999924450805,1486.4999782131292,337.4999924450805,1501.4999782131292,337.4999924450805L1574.4999782131292,337.4999924450805"></path><path id="kity_path_49" fill="none" stroke="rgb(115, 161, 191)" stroke-width="1" d="M1574.4999782131292,337.4999924450805C1589.4999782131292,337.4999924450805,1589.4999782131292,311.4999924450805,1604.4999782131292,311.4999924450805L1709.4999782131292,311.4999924450805"></path><path id="kity_path_51" fill="none" stroke="rgb(115, 161, 191)" stroke-width="1" d="M1574.4999782131292,337.4999924450805C1589.4999782131292,337.4999924450805,1589.4999782131292,363.4999924450805,1604.4999782131292,363.4999924450805L1767.4999782131292,363.4999924450805"></path><path id="kity_path_53" fill="none" stroke="rgb(115, 161, 191)" stroke-width="1" d="M1471.4999782131292,298.4999924450805C1486.4999782131292,298.4999924450805,1486.4999782131292,467.4999924450805,1501.4999782131292,467.4999924450805L1567.4999782131292,467.4999924450805"></path><path id="kity_path_55" fill="none" stroke="rgb(115, 161, 191)" stroke-width="1" d="M1567.4999782131292,467.4999924450805C1582.4999782131292,467.4999924450805,1582.4999782131292,415.4999924450805,1597.4999782131292,415.4999924450805L1698.4999782131292,415.4999924450805"></path><path id="kity_path_57" fill="none" stroke="rgb(115, 161, 191)" stroke-width="1" d="M1567.4999782131292,467.4999924450805C1582.4999782131292,467.4999924450805,1582.4999782131292,467.4999924450805,1597.4999782131292,467.4999924450805L1725.4999782131292,467.4999924450805"></path><path id="kity_path_59" fill="none" stroke="rgb(115, 161, 191)" stroke-width="1" d="M1567.4999782131292,467.4999924450805C1582.4999782131292,467.4999924450805,1582.4999782131292,519.4999924450806,1597.4999782131292,519.4999924450806L1721.4999782131292,519.4999924450806"></path><path id="kity_path_61" fill="none" stroke="rgb(115, 161, 191)" stroke-width="1" d="M1377.4999782131292,433.4999924450805C1392.4999782131292,433.4999924450805,1392.4999782131292,597.4999924450806,1407.4999782131292,597.4999924450806L1491.4999782131292,597.4999924450806"></path><path id="kity_path_63" fill="none" stroke="rgb(115, 161, 191)" stroke-width="1" d="M1491.4999782131292,597.4999924450806C1506.4999782131292,597.4999924450806,1506.4999782131292,571.4999924450806,1521.4999782131292,571.4999924450806L1594.4999782131292,571.4999924450806"></path><path id="kity_path_65" fill="none" stroke="rgb(115, 161, 191)" stroke-width="1" d="M1491.4999782131292,597.4999924450806C1506.4999782131292,597.4999924450806,1506.4999782131292,623.4999924450806,1521.4999782131292,623.4999924450806L1577.4999782131292,623.4999924450806"></path><path id="kity_path_67" fill="none" stroke="rgb(115, 161, 191)" stroke-width="1" d="M932.4999782131292,433.4999924450805A176,0,0,0,1,756.4999782131292,433.4999924450805"></path><path id="kity_path_69" fill="none" stroke="rgb(115, 161, 191)" stroke-width="1" d="M666.4999782131292,433.4999924450805C651.4999782131292,433.4999924450805,651.4999782131292,285.4999924450805,636.4999782131292,285.4999924450805L567.4999782131292,285.4999924450805"></path><path id="kity_path_71" fill="none" stroke="rgb(115, 161, 191)" stroke-width="1" d="M666.4999782131292,433.4999924450805C642.9999782131292,433.4999924450805,642.9999782131292,609.4999924450806,619.4999782131292,609.4999924450806L557.4999782131292,609.4999924450806"></path><path id="kity_path_199" fill="none" stroke="rgb(115, 161, 191)" stroke-width="1" d="M567.4999782131292,285.4999924450805C525.4999782131292,285.4999924450805,525.4999782131292,153.49999244508052,483.4999782131292,153.49999244508052L139.49997821312922,153.49999244508052"></path><path id="kity_path_207" fill="none" stroke="rgb(115, 161, 191)" stroke-width="1" d="M567.4999782131292,285.4999924450805C470.4999782131292,285.4999924450805,470.4999782131292,277.4999924450805,373.4999782131292,277.4999924450805L21.499978213129225,277.4999924450805"></path><path id="kity_path_221" fill="none" stroke="rgb(115, 161, 191)" stroke-width="1" d="M567.4999782131292,285.4999924450805C445.9999782131292,285.4999924450805,445.9999782131292,358.4999924450805,324.4999782131292,358.4999924450805L151.49997821312922,358.4999924450805"></path><path id="kity_path_235" fill="none" stroke="rgb(115, 161, 191)" stroke-width="1" d="M557.4999782131292,609.4999924450806C542.4999782131292,609.4999924450806,542.4999782131292,479.4999924450805,527.4999782131292,479.4999924450805L472.4999782131292,479.4999924450805"></path><path id="kity_path_243" fill="none" stroke="rgb(115, 161, 191)" stroke-width="1" d="M557.4999782131292,609.4999924450806C542.4999782131292,609.4999924450806,542.4999782131292,531.4999924450806,527.4999782131292,531.4999924450806L412.4999782131292,531.4999924450806"></path><path id="kity_path_251" fill="none" stroke="rgb(115, 161, 191)" stroke-width="1" d="M557.4999782131292,609.4999924450806C542.4999782131292,609.4999924450806,542.4999782131292,583.4999924450806,527.4999782131292,583.4999924450806L362.4999782131292,583.4999924450806"></path><path id="kity_path_259" fill="none" stroke="rgb(115, 161, 191)" stroke-width="1" d="M557.4999782131292,609.4999924450806C542.4999782131292,609.4999924450806,542.4999782131292,635.4999924450806,527.4999782131292,635.4999924450806L457.4999782131292,635.4999924450806"></path><path id="kity_path_267" fill="none" stroke="rgb(115, 161, 191)" stroke-width="1" d="M557.4999782131292,609.4999924450806C542.4999782131292,609.4999924450806,542.4999782131292,687.4999924450806,527.4999782131292,687.4999924450806L427.4999782131292,687.4999924450806"></path><path id="kity_path_275" fill="none" stroke="rgb(115, 161, 191)" stroke-width="1" d="M557.4999782131292,609.4999924450806C542.4999782131292,609.4999924450806,542.4999782131292,739.4999924450806,527.4999782131292,739.4999924450806L446.4999782131292,739.4999924450806"></path></g><g id="minder_node1"><path id="node_outline1" fill="rgb(115, 161, 191)" stroke="rgb(115, 161, 191)" d="M879.4999782131292,413.4999924450805h106a5,5,0,0,1,5,5v30a5,5,0,0,1,-5,5h-106a5,5,0,0,1,-5,-5v-30a5,5,0,0,1,5,-5z" stroke-width="3"></path><g id="node_text1" fill="white"><text id="kity_text_22" text-rendering="inherit" font-size="16" dy=".8em" y="423.0999922582766" x="898.4999782131292">REST_api</text></g></g><g id="kity_g_14" display="none"><path id="kity_path_15" fill="rgba(0, 92, 153, 0.5)" stroke="none" d="M416.4999782131292,389.4999924450805h111v15h-111z"></path><path id="kity_path_16" fill="none" stroke="rgb(0, 76, 128)" d="M416.4999782131292,404.4999924450805L527.4999782131292,404.4999924450805" stroke-width="1"></path></g><g id="minder_node2"><g id="node_expander18" style="cursor: pointer;"><path id="kity_path_187" fill="white" stroke="gray" d="M1109.4999805472544,433.4999924450805A6,6,0,1,1,1097.4999805472544,433.4999924450805A6,6,0,1,1,1109.4999805472544,433.4999924450805"></path><path id="kity_path_188" fill="none" stroke="gray" d="M1098.9999805472544,433.4999924450805L1107.9999805472544,433.4999924450805"></path></g><path id="node_outline19" fill="rgb(238, 243, 246)" stroke="rgb(115, 161, 191)" d="M1113.4999810330692,420.4999924450805h261a3,3,0,0,1,3,3v20a3,3,0,0,1,-3,3h-261a3,3,0,0,1,-3,-3v-20a3,3,0,0,1,3,-3z" stroke-width="1"></path><g id="node_text19" fill="black"><text id="kity_text_107" text-rendering="inherit" font-size="14" dy=".8em" y="424.39999249837126" x="1130.4999810330692">Document api(CURD &amp; Multi操作)</text></g></g><g id="minder_node3"><g id="node_expander14" style="cursor: pointer;"><path id="kity_path_175" fill="white" stroke="gray" d="M1417.4999844485997,284.49999063399844A6,6,0,1,1,1405.4999844485997,284.49999063399844A6,6,0,1,1,1417.4999844485997,284.49999063399844"></path><path id="kity_path_176" fill="none" stroke="gray" d="M1406.9999844485997,284.49999063399844L1415.9999844485997,284.49999063399844"></path></g><path id="node_outline15" fill="none" stroke="none" d="M1422.4999846430783,273.49999063399844h44a5,5,0,0,1,5,5v12a5,5,0,0,1,-5,5h-44a5,5,0,0,1,-5,-5v-12a5,5,0,0,1,5,-5z"></path><g id="node_text15" fill="black"><text id="kity_text_99" text-rendering="inherit" font-size="12" dy=".8em" y="276.69999061211956" x="1427.4999846430783">CURD</text></g></g><g id="minder_node4"><g id="node_expander3" style="cursor: pointer;"><path id="kity_path_142" fill="white" stroke="gray" d="M1511.4999855911615,115.49998857981802A6,6,0,1,1,1499.4999855911615,115.49998857981802A6,6,0,1,1,1511.4999855911615,115.49998857981802"></path><path id="kity_path_143" fill="none" stroke="gray" d="M1500.9999855911615,115.49998857981802L1509.9999855911615,115.49998857981802"></path></g><path id="node_outline4" fill="none" stroke="none" d="M1516.49998578564,104.49998857981802h45a5,5,0,0,1,5,5v12a5,5,0,0,1,-5,5h-45a5,5,0,0,1,-5,-5v-12a5,5,0,0,1,5,-5z"></path><g id="node_text4" fill="black"><text id="kity_text_77" text-rendering="inherit" font-size="12" dy=".8em" y="107.69998855793918" x="1521.49998578564">create</text></g></g><g id="minder_node5"><g id="node_expander1" style="cursor: pointer;" display="none"><path id="kity_path_136" fill="white" stroke="gray" d="M1606.4999867458782,89.49998826379033A6,6,0,1,1,1594.4999867458782,89.49998826379033A6,6,0,1,1,1606.4999867458782,89.49998826379033"></path><path id="kity_path_137" fill="none" stroke="gray"></path></g><path id="node_outline2" fill="none" stroke="none" d="M1611.4999869403568,78.49998826379033h80a5,5,0,0,1,5,5v12a5,5,0,0,1,-5,5h-80a5,5,0,0,1,-5,-5v-12a5,5,0,0,1,5,-5z"></path><g id="node_text2" fill="black"><text id="kity_text_73" text-rendering="inherit" font-size="12" dy=".8em" y="81.69998824191148" x="1616.4999869403568">create index</text></g></g><g id="minder_node6"><g id="node_expander2" style="cursor: pointer;" display="none"><path id="kity_path_139" fill="white" stroke="gray" d="M1606.4999867458782,141.49998889584583A6,6,0,1,1,1594.4999867458782,141.49998889584583A6,6,0,1,1,1606.4999867458782,141.49998889584583"></path><path id="kity_path_140" fill="none" stroke="gray"></path></g><path id="node_outline3" fill="none" stroke="none" d="M1611.4999869403568,130.49998889584583h107a5,5,0,0,1,5,5v12a5,5,0,0,1,-5,5h-107a5,5,0,0,1,-5,-5v-12a5,5,0,0,1,5,-5z"></path><g id="node_text3" fill="black"><text id="kity_text_75" text-rendering="inherit" font-size="12" dy=".8em" y="133.699988873967" x="1616.4999869403568">create document</text></g></g><g id="minder_node7"><g id="node_expander6" style="cursor: pointer;"><path id="kity_path_151" fill="white" stroke="gray" d="M1511.4999855911615,219.49998984392906A6,6,0,1,1,1499.4999855911615,219.49998984392906A6,6,0,1,1,1511.4999855911615,219.49998984392906"></path><path id="kity_path_152" fill="none" stroke="gray" d="M1500.9999855911615,219.49998984392906L1509.9999855911615,219.49998984392906"></path></g><path id="node_outline7" fill="none" stroke="none" d="M1516.49998578564,208.49998984392906h51a5,5,0,0,1,5,5v12a5,5,0,0,1,-5,5h-51a5,5,0,0,1,-5,-5v-12a5,5,0,0,1,5,-5z"></path><g id="node_text7" fill="black"><text id="kity_text_83" text-rendering="inherit" font-size="12" dy=".8em" y="211.6999898220502" x="1521.49998578564">update</text></g></g><g id="minder_node8"><g id="node_expander4" style="cursor: pointer;" display="none"><path id="kity_path_145" fill="white" stroke="gray" d="M1612.4999868188079,193.4999895279013A6,6,0,1,1,1600.4999868188079,193.4999895279013A6,6,0,1,1,1612.4999868188079,193.4999895279013"></path><path id="kity_path_146" fill="none" stroke="gray"></path></g><path id="node_outline5" fill="none" stroke="none" d="M1617.4999870132865,182.4999895279013h69a5,5,0,0,1,5,5v12a5,5,0,0,1,-5,5h-69a5,5,0,0,1,-5,-5v-12a5,5,0,0,1,5,-5z"></path><g id="node_text5" fill="black"><text id="kity_text_79" text-rendering="inherit" font-size="12" dy=".8em" y="185.69998950602246" x="1622.4999870132865">document</text></g></g><g id="minder_node9"><g id="node_expander5" style="cursor: pointer;" display="none"><path id="kity_path_148" fill="white" stroke="gray" d="M1612.4999868188079,245.4999901599568A6,6,0,1,1,1600.4999868188079,245.4999901599568A6,6,0,1,1,1612.4999868188079,245.4999901599568"></path><path id="kity_path_149" fill="none" stroke="gray"></path></g><path id="node_outline6" fill="none" stroke="none" d="M1617.4999870132865,234.4999901599568h105a5,5,0,0,1,5,5v12a5,5,0,0,1,-5,5h-105a5,5,0,0,1,-5,-5v-12a5,5,0,0,1,5,-5z"></path><g id="node_text6" fill="black"><text id="kity_text_81" text-rendering="inherit" font-size="12" dy=".8em" y="237.69999013807796" x="1622.4999870132865">update by query</text></g></g><g id="minder_node10"><g id="node_expander9" style="cursor: pointer;"><path id="kity_path_160" fill="white" stroke="gray" d="M1511.4999855911615,323.49999110804004A6,6,0,1,1,1499.4999855911615,323.49999110804004A6,6,0,1,1,1511.4999855911615,323.49999110804004"></path><path id="kity_path_161" fill="none" stroke="gray" d="M1500.9999855911615,323.49999110804004L1509.9999855911615,323.49999110804004"></path></g><path id="node_outline10" fill="none" stroke="none" d="M1516.49998578564,312.49999110804004h53a5,5,0,0,1,5,5v12a5,5,0,0,1,-5,5h-53a5,5,0,0,1,-5,-5v-12a5,5,0,0,1,5,-5z"></path><g id="node_text10" fill="black"><text id="kity_text_89" text-rendering="inherit" font-size="12" dy=".8em" y="315.69999108616116" x="1521.49998578564">retrieve</text></g></g><g id="minder_node11"><g id="node_expander7" style="cursor: pointer;" display="none"><path id="kity_path_154" fill="white" stroke="gray" d="M1614.4999868431178,297.4999907920123A6,6,0,1,1,1602.4999868431178,297.4999907920123A6,6,0,1,1,1614.4999868431178,297.4999907920123"></path><path id="kity_path_155" fill="none" stroke="gray"></path></g><path id="node_outline8" fill="none" stroke="none" d="M1619.4999870375964,286.4999907920123h85a5,5,0,0,1,5,5v12a5,5,0,0,1,-5,5h-85a5,5,0,0,1,-5,-5v-12a5,5,0,0,1,5,-5z"></path><g id="node_text8" fill="black"><text id="kity_text_85" text-rendering="inherit" font-size="12" dy=".8em" y="289.6999907701334" x="1624.4999870375964">get(获取文档)</text></g></g><g id="minder_node12"><g id="node_expander8" style="cursor: pointer;" display="none"><path id="kity_path_157" fill="white" stroke="gray" d="M1614.4999868431178,349.4999914240678A6,6,0,1,1,1602.4999868431178,349.4999914240678A6,6,0,1,1,1614.4999868431178,349.4999914240678"></path><path id="kity_path_158" fill="none" stroke="gray"></path></g><path id="node_outline9" fill="none" stroke="none" d="M1619.4999870375964,338.4999914240678h143a5,5,0,0,1,5,5v12a5,5,0,0,1,-5,5h-143a5,5,0,0,1,-5,-5v-12a5,5,0,0,1,5,-5z"></path><g id="node_text9" fill="black"><text id="kity_text_87" text-rendering="inherit" font-size="12" dy=".8em" y="341.6999914021889" x="1624.4999870375964">head(判定文档是否存在)</text></g></g><g id="minder_node13"><g id="node_expander13" style="cursor: pointer;"><path id="kity_path_172" fill="white" stroke="gray" d="M1511.4999855911615,453.4999926881788A6,6,0,1,1,1499.4999855911615,453.4999926881788A6,6,0,1,1,1511.4999855911615,453.4999926881788"></path><path id="kity_path_173" fill="none" stroke="gray" d="M1500.9999855911615,453.4999926881788L1509.9999855911615,453.4999926881788"></path></g><path id="node_outline14" fill="none" stroke="none" d="M1516.49998578564,442.4999926881788h46a5,5,0,0,1,5,5v12a5,5,0,0,1,-5,5h-46a5,5,0,0,1,-5,-5v-12a5,5,0,0,1,5,-5z"></path><g id="node_text14" fill="black"><text id="kity_text_97" text-rendering="inherit" font-size="12" dy=".8em" y="445.6999926662999" x="1521.49998578564">delete</text></g></g><g id="minder_node14"><g id="node_expander10" style="cursor: pointer;" display="none"><path id="kity_path_163" fill="white" stroke="gray" d="M1607.4999867580332,401.4999920561233A6,6,0,1,1,1595.4999867580332,401.4999920561233A6,6,0,1,1,1607.4999867580332,401.4999920561233"></path><path id="kity_path_164" fill="none" stroke="gray"></path></g><path id="node_outline11" fill="none" stroke="none" d="M1612.4999869525118,390.4999920561233h81a5,5,0,0,1,5,5v12a5,5,0,0,1,-5,5h-81a5,5,0,0,1,-5,-5v-12a5,5,0,0,1,5,-5z"></path><g id="node_text11" fill="black"><text id="kity_text_91" text-rendering="inherit" font-size="12" dy=".8em" y="393.6999920342444" x="1617.4999869525118">delete index</text></g></g><g id="minder_node15"><g id="node_expander11" style="cursor: pointer;" display="none"><path id="kity_path_166" fill="white" stroke="gray" d="M1607.4999867580332,453.4999926881788A6,6,0,1,1,1595.4999867580332,453.4999926881788A6,6,0,1,1,1607.4999867580332,453.4999926881788"></path><path id="kity_path_167" fill="none" stroke="gray"></path></g><path id="node_outline12" fill="none" stroke="none" d="M1612.4999869525118,442.4999926881788h108a5,5,0,0,1,5,5v12a5,5,0,0,1,-5,5h-108a5,5,0,0,1,-5,-5v-12a5,5,0,0,1,5,-5z"></path><g id="node_text12" fill="black"><text id="kity_text_93" text-rendering="inherit" font-size="12" dy=".8em" y="445.6999926662999" x="1617.4999869525118">delete document</text></g></g><g id="minder_node16"><g id="node_expander12" style="cursor: pointer;" display="none"><path id="kity_path_169" fill="white" stroke="gray" d="M1607.4999867580332,505.4999933202343A6,6,0,1,1,1595.4999867580332,505.4999933202343A6,6,0,1,1,1607.4999867580332,505.4999933202343"></path><path id="kity_path_170" fill="none" stroke="gray"></path></g><path id="node_outline13" fill="none" stroke="none" d="M1612.4999869525118,494.4999933202343h104a5,5,0,0,1,5,5v12a5,5,0,0,1,-5,5h-104a5,5,0,0,1,-5,-5v-12a5,5,0,0,1,5,-5z"></path><g id="node_text13" fill="black"><text id="kity_text_95" text-rendering="inherit" font-size="12" dy=".8em" y="497.6999932983554" x="1617.4999869525118">delete by query&#xa0;</text></g></g><g id="minder_node17"><g id="node_expander17" style="cursor: pointer;"><path id="kity_path_184" fill="white" stroke="gray" d="M1417.4999844485997,583.4999942683176A6,6,0,1,1,1405.4999844485997,583.4999942683176A6,6,0,1,1,1417.4999844485997,583.4999942683176"></path><path id="kity_path_185" fill="none" stroke="gray" d="M1406.9999844485997,583.4999942683176L1415.9999844485997,583.4999942683176"></path></g><path id="node_outline18" fill="none" stroke="none" d="M1422.4999846430783,572.4999942683176h64a5,5,0,0,1,5,5v12a5,5,0,0,1,-5,5h-64a5,5,0,0,1,-5,-5v-12a5,5,0,0,1,5,-5z"></path><g id="node_text18" fill="black"><text id="kity_text_105" text-rendering="inherit" font-size="12" dy=".8em" y="575.6999942464387" x="1427.4999846430783">Multi操作</text></g></g><g id="minder_node18"><g id="node_expander15" style="cursor: pointer;" display="none"><path id="kity_path_178" fill="white" stroke="gray" d="M1531.4999858342599,557.4999939522897A6,6,0,1,1,1519.4999858342599,557.4999939522897A6,6,0,1,1,1531.4999858342599,557.4999939522897"></path><path id="kity_path_179" fill="none" stroke="gray"></path></g><path id="node_outline16" fill="none" stroke="none" d="M1536.4999860287385,546.4999939522897h53a5,5,0,0,1,5,5v12a5,5,0,0,1,-5,5h-53a5,5,0,0,1,-5,-5v-12a5,5,0,0,1,5,-5z"></path><g id="node_text16" fill="black"><text id="kity_text_101" text-rendering="inherit" font-size="12" dy=".8em" y="549.6999939304109" x="1541.4999860287385">reindex</text></g></g><g id="minder_node19"><g id="node_expander16" style="cursor: pointer;" display="none"><path id="kity_path_181" fill="white" stroke="gray" d="M1531.4999858342599,609.4999945843452A6,6,0,1,1,1519.4999858342599,609.4999945843452A6,6,0,1,1,1531.4999858342599,609.4999945843452"></path><path id="kity_path_182" fill="none" stroke="gray"></path></g><path id="node_outline17" fill="none" stroke="none" d="M1536.4999860287385,598.4999945843452h36a5,5,0,0,1,5,5v12a5,5,0,0,1,-5,5h-36a5,5,0,0,1,-5,-5v-12a5,5,0,0,1,5,-5z"></path><g id="node_text17" fill="black"><text id="kity_text_103" text-rendering="inherit" font-size="12" dy=".8em" y="601.6999945624664" x="1541.4999860287385">bulk</text></g></g><g id="minder_node20"><g id="node_expander21" style="cursor: pointer;"><path id="kity_path_196" fill="white" stroke="gray" d="M767.4999741834243,433.4999924450805A6,6,0,1,1,755.4999741834243,433.4999924450805A6,6,0,1,1,767.4999741834243,433.4999924450805"></path><path id="kity_path_197" fill="none" stroke="gray" d="M756.9999741834243,433.4999924450805L765.9999741834243,433.4999924450805"></path></g><path id="node_outline22" fill="rgb(238, 243, 246)" stroke="rgb(115, 161, 191)" d="M669.4999756362876,420.4999924450805h82a3,3,0,0,1,3,3v20a3,3,0,0,1,-3,3h-82a3,3,0,0,1,-3,-3v-20a3,3,0,0,1,3,-3z" stroke-width="1"></path><g id="node_text22" fill="black"><text id="kity_text_113" text-rendering="inherit" font-size="14" dy=".8em" y="424.39999249837126" x="686.4999756362876">管理api</text></g></g><g id="minder_node21"><g id="node_expander19" style="cursor: pointer;"><path id="kity_path_190" fill="white" stroke="gray" d="M638.4999732459689,271.49999047598453A6,6,0,1,1,626.4999732459689,271.49999047598453A6,6,0,1,1,638.4999732459689,271.49999047598453"></path><path id="kity_path_191" fill="none" stroke="gray" d="M627.9999732459689,271.49999047598453L636.9999732459689,271.49999047598453"></path></g><path id="node_outline20" fill="none" stroke="none" d="M572.499974311402,260.49999047598453h49a5,5,0,0,1,5,5v12a5,5,0,0,1,-5,5h-49a5,5,0,0,1,-5,-5v-12a5,5,0,0,1,5,-5z" stroke-width="3"></path><g id="node_text20" fill="black"><text id="kity_text_109" text-rendering="inherit" font-size="12" dy=".8em" y="263.69999045410566" x="577.499974311402">cluster</text></g></g><g id="minder_node22" opacity="1"><g id="node_expander20" style="cursor: pointer;"><path id="kity_path_193" fill="white" stroke="gray" d="M621.4999772954027,595.4999944141765A6,6,0,1,1,609.4999772954027,595.4999944141765A6,6,0,1,1,621.4999772954027,595.4999944141765"></path><path id="kity_path_194" fill="none" stroke="gray" d="M610.9999772954027,595.4999944141765L619.9999772954027,595.4999944141765"></path></g><path id="node_outline21" fill="none" stroke="none" d="M562.499974189853,584.4999944141765h42a5,5,0,0,1,5,5v12a5,5,0,0,1,-5,5h-42a5,5,0,0,1,-5,-5v-12a5,5,0,0,1,5,-5z" stroke-width="3"></path><g id="node_text21" fill="black"><text id="kity_text_111" text-rendering="inherit" font-size="12" dy=".8em" y="587.6999943922976" x="567.499974189853">index</text></g></g><g id="minder_node23" opacity="1"><g id="node_expander22" style="cursor: pointer;" display="none"><path id="kity_path_204" fill="white" stroke="gray" d="M485.4999828934115,85.49998821517067A6,6,0,1,1,473.4999828934115,85.49998821517067A6,6,0,1,1,485.4999828934115,85.49998821517067"></path><path id="kity_path_205" fill="none" stroke="gray"></path></g><path id="node_outline23" fill="none" stroke="none" d="M144.49996910909897,20.499988215170674h324a5,5,0,0,1,5,5v120a5,5,0,0,1,-5,5h-324a5,5,0,0,1,-5,-5v-120a5,5,0,0,1,5,-5z" stroke-width="3"></path><g id="node_text23" fill="black"><text id="kity_text_201" text-rendering="inherit" font-size="12" dy=".8em" y="23.69998819329183" x="149.49996910909897">集群信息：</text><text id="kity_text_214" text-rendering="inherit" font-size="12" dy=".8em" y="41.69998819329183" x="149.49996910909897">1.&#xa0;GET _cluster/health 查看概括信息</text><text id="kity_text_215" text-rendering="inherit" font-size="12" dy=".8em" y="59.69998819329183" x="149.49996910909897">2.&#xa0;GET _cluster/allocation/explain 查看没有分片分片原因</text><text id="kity_text_216" text-rendering="inherit" font-size="12" dy=".8em" y="77.69998819329183" x="149.49996910909897">3.&#xa0;GET _nodes/stats 查看所有节点配置及运行信息</text><text id="kity_text_218" text-rendering="inherit" font-size="12" dy=".8em" y="95.69998819329183" x="149.49996910909897">4.&#xa0;GET _nodes/hot_threads 查看节点热点线程</text><text id="kity_text_229" text-rendering="inherit" font-size="12" dy=".8em" y="113.69998819329183" x="149.49996910909897">5. GET _cluster/settings 查看集群配置</text><text id="kity_text_232" text-rendering="inherit" font-size="12" dy=".8em" y="131.69998819329183" x="149.49996910909897">6.&#xa0;GET _cluster/allocation/explain 查看分片异常原因</text></g></g><g id="minder_node24" opacity="1"><g id="node_expander23" style="cursor: pointer;" display="none"><path id="kity_path_212" fill="white" stroke="gray" d="M375.49996516263127,236.4999900505626A6,6,0,1,1,363.49996516263127,236.4999900505626A6,6,0,1,1,375.49996516263127,236.4999900505626"></path><path id="kity_path_213" fill="none" stroke="gray"></path></g><path id="node_outline24" fill="none" stroke="none" d="M26.499967674819345,198.4999900505626h332a5,5,0,0,1,5,5v66a5,5,0,0,1,-5,5h-332a5,5,0,0,1,-5,-5v-66a5,5,0,0,1,5,-5z" stroke-width="3"></path><g id="node_text24" fill="black"><text id="kity_text_209" text-rendering="inherit" font-size="12" dy=".8em" y="201.69999002868374" x="31.499967674819345">集群控制：</text><text id="kity_text_217" text-rendering="inherit" font-size="12" dy=".8em" y="219.69999002868374" x="31.499967674819345">1.&#xa0;PUT /_cluster/setting 修改集群配置</text><text id="kity_text_230" text-rendering="inherit" font-size="12" dy=".8em" y="237.69999002868374" x="31.499967674819345">2. POST /_cluster/reroute&#xa0; 控制分片路由&amp;强制分片分片</text><text id="kity_text_233" text-rendering="inherit" font-size="12" dy=".8em" y="255.69999002868374" x="31.499967674819345">3.&#xa0;POST /_cluster/reroute?retry_failed=true 重试分片分配</text></g></g><g id="kity_g_12" display="none"><path id="kity_path_13" fill="none" stroke="rgb(66, 94, 112)" d="M572.4999782131292,383.4999924450805h49a5,5,0,0,1,5,5v12a5,5,0,0,1,-5,5h-49a5,5,0,0,1,-5,-5v-12a5,5,0,0,1,5,-5z" stroke-width="5"></path></g><g id="minder_node25" opacity="1"><g id="node_expander24" style="cursor: pointer;" display="none"><path id="kity_path_226" fill="white" stroke="gray" d="M326.4999681925791,335.499991253899A6,6,0,1,1,314.4999681925791,335.499991253899A6,6,0,1,1,326.4999681925791,335.499991253899"></path><path id="kity_path_227" fill="none" stroke="gray"></path></g><path id="node_outline25" fill="none" stroke="none" d="M156.49996925495805,315.499991253899h153a5,5,0,0,1,5,5v30a5,5,0,0,1,-5,5h-153a5,5,0,0,1,-5,-5v-30a5,5,0,0,1,5,-5z" stroke-width="3"></path><g id="node_text25" fill="black"><text id="kity_text_223" text-rendering="inherit" font-size="12" dy=".8em" y="318.6999912320201" x="161.49996925495805">Index 控制：</text><text id="kity_text_228" text-rendering="inherit" font-size="12" dy=".8em" y="336.6999912320201" x="161.49996925495805">1.&#xa0;POST /_cluster/reroute</text></g></g><g id="minder_node26"><g id="node_expander25" style="cursor: pointer;" display="none"><path id="kity_path_240" fill="white" stroke="gray" d="M529.4999728668761,465.49999283403776A6,6,0,1,1,517.4999728668761,465.49999283403776A6,6,0,1,1,529.4999728668761,465.49999283403776"></path><path id="kity_path_241" fill="none" stroke="gray"></path></g><path id="node_outline26" fill="none" stroke="none" d="M477.49997315668526,454.49999283403776h35a5,5,0,0,1,5,5v12a5,5,0,0,1,-5,5h-35a5,5,0,0,1,-5,-5v-12a5,5,0,0,1,5,-5z" stroke-width="3"></path><g id="node_text26" fill="black"><text id="kity_text_237" text-rendering="inherit" font-size="12" dy=".8em" y="457.6999928121589" x="482.49997315668526">alias</text></g></g><g id="minder_node27"><g id="node_expander26" style="cursor: pointer;" display="none"><path id="kity_path_248" fill="white" stroke="gray" d="M529.4999785416322,517.4999934660932A6,6,0,1,1,517.4999785416322,517.4999934660932A6,6,0,1,1,529.4999785416322,517.4999934660932"></path><path id="kity_path_249" fill="none" stroke="gray"></path></g><path id="node_outline27" fill="none" stroke="none" d="M417.49997242739045,506.4999934660932h95a5,5,0,0,1,5,5v12a5,5,0,0,1,-5,5h-95a5,5,0,0,1,-5,-5v-12a5,5,0,0,1,5,-5z" stroke-width="3"></path><g id="node_text27" fill="black"><text id="kity_text_245" text-rendering="inherit" font-size="12" dy=".8em" y="509.69999344421433" x="422.49997242739045">flush &amp; refresh</text></g></g><g id="minder_node28"><g id="node_expander27" style="cursor: pointer;" display="none"><path id="kity_path_256" fill="white" stroke="gray" d="M529.4999769653111,569.4999940981488A6,6,0,1,1,517.4999769653111,569.4999940981488A6,6,0,1,1,529.4999769653111,569.4999940981488"></path><path id="kity_path_257" fill="none" stroke="gray"></path></g><path id="node_outline28" fill="none" stroke="none" d="M367.49997181964477,558.4999940981488h145a5,5,0,0,1,5,5v12a5,5,0,0,1,-5,5h-145a5,5,0,0,1,-5,-5v-12a5,5,0,0,1,5,-5z" stroke-width="3"></path><g id="node_text28" fill="black"><text id="kity_text_253" text-rendering="inherit" font-size="12" dy=".8em" y="561.69999407627" x="372.49997181964477">open &amp; freeze &amp; delete</text></g></g><g id="minder_node29"><g id="node_expander28" style="cursor: pointer;" display="none"><path id="kity_path_264" fill="white" stroke="gray" d="M529.4999749160936,621.4999947302042A6,6,0,1,1,517.4999749160936,621.4999947302042A6,6,0,1,1,529.4999749160936,621.4999947302042"></path><path id="kity_path_265" fill="none" stroke="gray"></path></g><path id="node_outline29" fill="none" stroke="none" d="M462.4999729743615,610.4999947302042h50a5,5,0,0,1,5,5v12a5,5,0,0,1,-5,5h-50a5,5,0,0,1,-5,-5v-12a5,5,0,0,1,5,-5z" stroke-width="3"></path><g id="node_text29" fill="black"><text id="kity_text_261" text-rendering="inherit" font-size="12" dy=".8em" y="613.6999947083253" x="467.4999729743615">setting</text></g></g><g id="minder_node30"><g id="node_expander29" style="cursor: pointer;" display="none"><path id="kity_path_272" fill="white" stroke="gray" d="M529.4999689260733,673.4999953622597A6,6,0,1,1,517.4999689260733,673.4999953622597A6,6,0,1,1,529.4999689260733,673.4999953622597"></path><path id="kity_path_273" fill="none" stroke="gray"></path></g><path id="node_outline30" fill="none" stroke="none" d="M432.4999726097141,662.4999953622597h80a5,5,0,0,1,5,5v12a5,5,0,0,1,-5,5h-80a5,5,0,0,1,-5,-5v-12a5,5,0,0,1,5,-5z" stroke-width="3"></path><g id="node_text30" fill="black"><text id="kity_text_269" text-rendering="inherit" font-size="12" dy=".8em" y="665.6999953403808" x="437.4999726097141">force merge</text></g></g><g id="minder_node31"><g id="node_expander30" style="cursor: pointer;" display="none"><path id="kity_path_280" fill="white" stroke="gray" d="M529.4999725516119,725.4999959943152A6,6,0,1,1,517.4999725516119,725.4999959943152A6,6,0,1,1,529.4999725516119,725.4999959943152"></path><path id="kity_path_281" fill="none" stroke="gray"></path></g><path id="node_outline31" fill="none" stroke="none" d="M451.4999728406575,714.4999959943152h61a5,5,0,0,1,5,5v12a5,5,0,0,1,-5,5h-61a5,5,0,0,1,-5,-5v-12a5,5,0,0,1,5,-5z" stroke-width="3"></path><g id="node_text31" fill="black"><text id="kity_text_277" text-rendering="inherit" font-size="12" dy=".8em" y="717.6999959724363" x="456.4999728406575">template</text></g></g></g></g></svg>