<svg id="kity_svg_6" xmlns="http://www.w3.org/2000/svg" xmlns:xlink="http://www.w3.org/1999/xlink" version="1.1" width="1478" height="741" style="background: rgb(251, 251, 251); visibility: visible;" viewBox="0 0 1478 741"><defs id="kity_defs_7"><linearGradient id="kity_linearGradient_17" x1="0" y1="0" x2="0" y2="1"><stop id="kity_stop_18" offset="0" stop-color="rgb(255, 255, 255)"></stop><stop id="kity_stop_19" offset="1" stop-color="rgb(204, 204, 204)"></stop></linearGradient><marker id="kity_marker_2" orient="auto" refX="6" refY="0" viewBox="-7 -7 14 14" markerWidth="7" markerHeight="7" markerUnits="userSpaceOnUse"><path id="kity_path_3" fill="rgb(115, 161, 191)" stroke="none" d="M6,0A6,6,0,1,1,-6,0A6,6,0,1,1,6,0"></path></marker></defs><g id="kity_g_8"><g id="minder1" text-rendering="optimize-speed"><g id="minder_connect_group1"><path id="kity_path_31" fill="none" stroke="rgb(115, 161, 191)" stroke-width="1" d="M1016.500012986362,368.50000194460154A153,0,0,0,1,1169.500012986362,368.50000194460154"></path><path id="kity_path_33" fill="none" stroke="rgb(115, 161, 191)" stroke-width="1" d="M1310.500012986362,368.50000194460154C1325.500012986362,368.50000194460154,1325.500012986362,252.50000194460154,1340.500012986362,252.50000194460154L1428.500012986362,252.50000194460154"></path><path id="kity_path_35" fill="none" stroke="rgb(115, 161, 191)" stroke-width="1" d="M1310.500012986362,368.50000194460154C1325.500012986362,368.50000194460154,1325.500012986362,304.50000194460154,1340.500012986362,304.50000194460154L1406.500012986362,304.50000194460154"></path><path id="kity_path_37" fill="none" stroke="rgb(115, 161, 191)" stroke-width="1" d="M1310.500012986362,368.50000194460154C1325.500012986362,368.50000194460154,1325.500012986362,356.50000194460154,1340.500012986362,356.50000194460154L1457.500012986362,356.50000194460154"></path><path id="kity_path_39" fill="none" stroke="rgb(115, 161, 191)" stroke-width="1" d="M1310.500012986362,368.50000194460154C1325.500012986362,368.50000194460154,1325.500012986362,408.50000194460154,1340.500012986362,408.50000194460154L1409.500012986362,408.50000194460154"></path><path id="kity_path_41" fill="none" stroke="rgb(115, 161, 191)" stroke-width="1" d="M1310.500012986362,368.50000194460154C1325.500012986362,368.50000194460154,1325.500012986362,460.50000194460154,1340.500012986362,460.50000194460154L1396.500012986362,460.50000194460154"></path><path id="kity_path_43" fill="none" stroke="rgb(115, 161, 191)" stroke-width="1" d="M1310.500012986362,368.50000194460154C1325.500012986362,368.50000194460154,1325.500012986362,512.5000019446015,1340.500012986362,512.5000019446015L1426.500012986362,512.5000019446015"></path><path id="kity_path_45" fill="none" stroke="rgb(115, 161, 191)" stroke-width="1" d="M1016.500012986362,368.50000194460154A153,0,0,0,1,863.500012986362,368.50000194460154"></path><path id="kity_path_47" fill="none" stroke="rgb(115, 161, 191)" stroke-width="1" d="M722.500012986362,368.50000194460154C707.500012986362,368.50000194460154,707.500012986362,44.500001944601536,692.500012986362,44.500001944601536L437.500012986362,44.500001944601536"></path><path id="kity_path_49" fill="none" stroke="rgb(115, 161, 191)" stroke-width="1" d="M722.500012986362,368.50000194460154C707.500012986362,368.50000194460154,707.500012986362,122.50000194460154,692.500012986362,122.50000194460154L633.500012986362,122.50000194460154"></path><path id="kity_path_51" fill="none" stroke="rgb(115, 161, 191)" stroke-width="1" d="M633.500012986362,122.50000194460154C618.500012986362,122.50000194460154,618.500012986362,96.50000194460154,603.500012986362,96.50000194460154L522.500012986362,96.50000194460154"></path><path id="kity_path_53" fill="none" stroke="rgb(115, 161, 191)" stroke-width="1" d="M633.500012986362,122.50000194460154C618.500012986362,122.50000194460154,618.500012986362,148.50000194460154,603.500012986362,148.50000194460154L522.500012986362,148.50000194460154"></path><path id="kity_path_55" fill="none" stroke="rgb(115, 161, 191)" stroke-width="1" d="M722.500012986362,368.50000194460154C707.500012986362,368.50000194460154,707.500012986362,200.50000194460154,692.500012986362,200.50000194460154L629.500012986362,200.50000194460154"></path><path id="kity_path_57" fill="none" stroke="rgb(115, 161, 191)" stroke-width="1" d="M722.500012986362,368.50000194460154C707.500012986362,368.50000194460154,707.500012986362,252.50000194460154,692.500012986362,252.50000194460154L592.500012986362,252.50000194460154"></path><path id="kity_path_59" fill="none" stroke="rgb(115, 161, 191)" stroke-width="1" d="M722.500012986362,368.50000194460154C707.500012986362,368.50000194460154,707.500012986362,304.50000194460154,692.500012986362,304.50000194460154L607.500012986362,304.50000194460154"></path><path id="kity_path_61" fill="none" stroke="rgb(115, 161, 191)" stroke-width="1" d="M722.500012986362,368.50000194460154C707.500012986362,368.50000194460154,707.500012986362,356.50000194460154,692.500012986362,356.50000194460154L642.500012986362,356.50000194460154"></path><path id="kity_path_63" fill="none" stroke="rgb(115, 161, 191)" stroke-width="1" d="M722.500012986362,368.50000194460154C707.500012986362,368.50000194460154,707.500012986362,460.50000194460154,692.500012986362,460.50000194460154L616.500012986362,460.50000194460154"></path><path id="kity_path_65" fill="none" stroke="rgb(115, 161, 191)" stroke-width="1" d="M722.500012986362,368.50000194460154C707.500012986362,368.50000194460154,707.500012986362,616.5000019446015,692.500012986362,616.5000019446015L576.500012986362,616.5000019446015"></path><path id="kity_path_175" fill="none" stroke="rgb(115, 161, 191)" stroke-width="1" d="M722.500012986362,368.50000194460154C707.500012986362,368.50000194460154,707.500012986362,720.5000019446015,692.500012986362,720.5000019446015L524.500012986362,720.5000019446015"></path><path id="kity_path_183" fill="none" stroke="rgb(115, 161, 191)" stroke-width="1" d="M576.500012986362,616.5000019446015C561.500012986362,616.5000019446015,561.500012986362,564.5000019446015,546.500012986362,564.5000019446015L477.500012986362,564.5000019446015"></path><path id="kity_path_191" fill="none" stroke="rgb(115, 161, 191)" stroke-width="1" d="M576.500012986362,616.5000019446015C561.500012986362,616.5000019446015,561.500012986362,616.5000019446015,546.500012986362,616.5000019446015L396.500012986362,616.5000019446015"></path><path id="kity_path_199" fill="none" stroke="rgb(115, 161, 191)" stroke-width="1" d="M576.500012986362,616.5000019446015C561.500012986362,616.5000019446015,561.500012986362,668.5000019446015,546.500012986362,668.5000019446015L426.500012986362,668.5000019446015"></path><path id="kity_path_207" fill="none" stroke="rgb(115, 161, 191)" stroke-width="1" d="M616.500012986362,460.50000194460154C601.500012986362,460.50000194460154,601.500012986362,460.50000194460154,586.500012986362,460.50000194460154L472.500012986362,460.50000194460154"></path><path id="kity_path_215" fill="none" stroke="rgb(115, 161, 191)" stroke-width="1" d="M616.500012986362,460.50000194460154C601.500012986362,460.50000194460154,601.500012986362,408.50000194460154,586.500012986362,408.50000194460154L507.500012986362,408.50000194460154"></path><path id="kity_path_223" fill="none" stroke="rgb(115, 161, 191)" stroke-width="1" d="M507.500012986362,408.50000194460154C492.500012986362,408.50000194460154,492.500012986362,408.50000194460154,477.500012986362,408.50000194460154L19.50001298636198,408.50000194460154"></path><path id="kity_path_231" fill="none" stroke="rgb(115, 161, 191)" stroke-width="1" d="M616.500012986362,460.50000194460154C601.500012986362,460.50000194460154,601.500012986362,512.5000019446015,586.500012986362,512.5000019446015L482.500012986362,512.5000019446015"></path></g><g id="minder_node1"><path id="node_outline1" fill="rgb(115, 161, 191)" stroke="rgb(57, 80, 96)" d="M986.500012986362,348.50000194460154h60a5,5,0,0,1,5,5v30a5,5,0,0,1,-5,5h-60a5,5,0,0,1,-5,-5v-30a5,5,0,0,1,5,-5z" stroke-width="3"></path><g id="node_text1" fill="white"><text id="kity_text_22" text-rendering="inherit" font-size="16" dy=".8em" y="358.10000190883875" x="1005.500012986362">sql</text></g></g><g id="kity_g_14" display="none"><path id="kity_path_15" fill="rgba(0, 92, 153, 0.5)" stroke="none" d="M507.500012986362,462.50000194460154h69v15h-69z"></path><path id="kity_path_16" fill="none" stroke="rgb(0, 76, 128)" d="M507.500012986362,462.50000194460154L576.500012986362,462.50000194460154" stroke-width="1"></path></g><g id="minder_node2"><g id="node_expander7" style="cursor: pointer;"><path id="kity_path_139" fill="white" stroke="gray" d="M1170.5000153556466,368.50000194460154A6,6,0,1,1,1158.5000153556466,368.50000194460154A6,6,0,1,1,1170.5000153556466,368.50000194460154"></path><path id="kity_path_140" fill="none" stroke="gray" d="M1160.0000153556466,368.50000194460154L1169.0000153556466,368.50000194460154"></path></g><path id="node_outline8" fill="rgb(238, 243, 246)" stroke="rgb(115, 161, 191)" d="M1174.500015757978,355.50000194460154h133a3,3,0,0,1,3,3v20a3,3,0,0,1,-3,3h-133a3,3,0,0,1,-3,-3v-20a3,3,0,0,1,3,-3z" stroke-width="1"></path><g id="node_text8" fill="black"><text id="kity_text_79" text-rendering="inherit" font-size="14" dy=".8em" y="359.4000019133091" x="1191.500015757978">select 简单语法</text></g></g><g id="minder_node3"><g id="node_expander1" style="cursor: pointer;" display="none"><path id="kity_path_121" fill="white" stroke="gray" d="M1350.5000180378556,238.50000000745058A6,6,0,1,1,1338.5000180378556,238.50000000745058A6,6,0,1,1,1350.5000180378556,238.50000000745058"></path><path id="kity_path_122" fill="none" stroke="gray"></path></g><path id="node_outline2" fill="none" stroke="none" d="M1355.5000182762742,227.50000000745058h68a5,5,0,0,1,5,5v12a5,5,0,0,1,-5,5h-68a5,5,0,0,1,-5,-5v-12a5,5,0,0,1,5,-5z"></path><g id="node_text2" fill="black"><text id="kity_text_67" text-rendering="inherit" font-size="12" dy=".8em" y="230.6999999806285" x="1360.5000182762742">distinct or</text></g></g><g id="minder_node4"><g id="node_expander2" style="cursor: pointer;" display="none"><path id="kity_path_124" fill="white" stroke="gray" d="M1350.5000180378556,290.50000078231096A6,6,0,1,1,1338.5000180378556,290.50000078231096A6,6,0,1,1,1350.5000180378556,290.50000078231096"></path><path id="kity_path_125" fill="none" stroke="gray"></path></g><path id="node_outline3" fill="none" stroke="none" d="M1355.5000182762742,279.50000078231096h46a5,5,0,0,1,5,5v12a5,5,0,0,1,-5,5h-46a5,5,0,0,1,-5,-5v-12a5,5,0,0,1,5,-5z"></path><g id="node_text3" fill="black"><text id="kity_text_69" text-rendering="inherit" font-size="12" dy=".8em" y="282.7000007554889" x="1360.5000182762742">where</text></g></g><g id="minder_node5"><g id="node_expander3" style="cursor: pointer;" display="none"><path id="kity_path_127" fill="white" stroke="gray" d="M1350.5000180378556,342.50000155717134A6,6,0,1,1,1338.5000180378556,342.50000155717134A6,6,0,1,1,1350.5000180378556,342.50000155717134"></path><path id="kity_path_128" fill="none" stroke="gray"></path></g><path id="node_outline4" fill="none" stroke="none" d="M1355.5000182762742,331.50000155717134h97a5,5,0,0,1,5,5v12a5,5,0,0,1,-5,5h-97a5,5,0,0,1,-5,-5v-12a5,5,0,0,1,5,-5z"></path><g id="node_text4" fill="black"><text id="kity_text_71" text-rendering="inherit" font-size="12" dy=".8em" y="334.70000153034925" x="1360.5000182762742">partition query</text></g></g><g id="minder_node6"><g id="node_expander4" style="cursor: pointer;" display="none"><path id="kity_path_130" fill="white" stroke="gray" d="M1350.5000180378556,394.5000023320317A6,6,0,1,1,1338.5000180378556,394.5000023320317A6,6,0,1,1,1350.5000180378556,394.5000023320317"></path><path id="kity_path_131" fill="none" stroke="gray"></path></g><path id="node_outline5" fill="none" stroke="none" d="M1355.5000182762742,383.5000023320317h49a5,5,0,0,1,5,5v12a5,5,0,0,1,-5,5h-49a5,5,0,0,1,-5,-5v-12a5,5,0,0,1,5,-5z"></path><g id="node_text5" fill="black"><text id="kity_text_73" text-rendering="inherit" font-size="12" dy=".8em" y="386.70000230520964" x="1360.5000182762742">having</text></g></g><g id="minder_node7"><g id="node_expander5" style="cursor: pointer;" display="none"><path id="kity_path_133" fill="white" stroke="gray" d="M1350.5000180378556,446.5000031068921A6,6,0,1,1,1338.5000180378556,446.5000031068921A6,6,0,1,1,1350.5000180378556,446.5000031068921"></path><path id="kity_path_134" fill="none" stroke="gray"></path></g><path id="node_outline6" fill="none" stroke="none" d="M1355.5000182762742,435.5000031068921h36a5,5,0,0,1,5,5v12a5,5,0,0,1,-5,5h-36a5,5,0,0,1,-5,-5v-12a5,5,0,0,1,5,-5z"></path><g id="node_text6" fill="black"><text id="kity_text_75" text-rendering="inherit" font-size="12" dy=".8em" y="438.70000308007" x="1360.5000182762742">limit</text></g></g><g id="minder_node8"><g id="node_expander6" style="cursor: pointer;" display="none"><path id="kity_path_136" fill="white" stroke="gray" d="M1350.5000180378556,498.5000038817525A6,6,0,1,1,1338.5000180378556,498.5000038817525A6,6,0,1,1,1350.5000180378556,498.5000038817525"></path><path id="kity_path_137" fill="none" stroke="gray"></path></g><path id="node_outline7" fill="none" stroke="none" d="M1355.5000182762742,487.5000038817525h66a5,5,0,0,1,5,5v12a5,5,0,0,1,-5,5h-66a5,5,0,0,1,-5,-5v-12a5,5,0,0,1,5,-5z"></path><g id="node_text7" fill="black"><text id="kity_text_77" text-rendering="inherit" font-size="12" dy=".8em" y="490.7000038549304" x="1360.5000182762742">group by&#xa0;</text></g></g><g id="minder_node9"><g id="node_expander18" style="cursor: pointer;"><path id="kity_path_172" fill="white" stroke="gray" d="M874.5000109449029,368.50000194460154A6,6,0,1,1,862.5000109449029,368.50000194460154A6,6,0,1,1,874.5000109449029,368.50000194460154"></path><path id="kity_path_173" fill="none" stroke="gray" d="M864.0000109449029,368.50000194460154L873.0000109449029,368.50000194460154"></path></g><path id="node_outline19" fill="rgb(238, 243, 246)" stroke="rgb(115, 161, 191)" d="M725.5000090673566,355.50000194460154h133a3,3,0,0,1,3,3v20a3,3,0,0,1,-3,3h-133a3,3,0,0,1,-3,-3v-20a3,3,0,0,1,3,-3z" stroke-width="1"></path><g id="node_text19" fill="black"><text id="kity_text_101" text-rendering="inherit" font-size="14" dy=".8em" y="359.4000019133091" x="742.5000090673566">select 复杂语法</text></g></g><g id="minder_node10"><g id="node_expander8" style="cursor: pointer;" display="none"><path id="kity_path_142" fill="white" stroke="gray" d="M694.5000082626939,30.499996908009052A6,6,0,1,1,682.5000082626939,30.499996908009052A6,6,0,1,1,694.5000082626939,30.499996908009052"></path><path id="kity_path_143" fill="none" stroke="gray"></path></g><path id="node_outline9" fill="none" stroke="none" d="M442.50000467151403,19.499996908009052h235a5,5,0,0,1,5,5v12a5,5,0,0,1,-5,5h-235a5,5,0,0,1,-5,-5v-12a5,5,0,0,1,5,-5z"></path><g id="node_text9" fill="black"><text id="kity_text_81" text-rendering="inherit" font-size="12" dy=".8em" y="22.699996881186962" x="447.50000467151403"> SORT/ORDER/CLUSTER/DISTRIBUTE BY</text></g></g><g id="minder_node11"><g id="node_expander11" style="cursor: pointer;"><path id="kity_path_151" fill="white" stroke="gray" d="M694.5000082626939,108.49999807029963A6,6,0,1,1,682.5000082626939,108.49999807029963A6,6,0,1,1,694.5000082626939,108.49999807029963"></path><path id="kity_path_152" fill="none" stroke="gray" d="M684.0000082626939,108.49999807029963L693.0000082626939,108.49999807029963"></path></g><path id="node_outline12" fill="none" stroke="none" d="M638.5000075921416,97.49999807029963h39a5,5,0,0,1,5,5v12a5,5,0,0,1,-5,5h-39a5,5,0,0,1,-5,-5v-12a5,5,0,0,1,5,-5z"></path><g id="node_text12" fill="black"><text id="kity_text_87" text-rendering="inherit" font-size="12" dy=".8em" y="100.69999804347754" x="643.5000075921416">JOIN</text></g></g><g id="minder_node12"><g id="node_expander9" style="cursor: pointer;" display="none"><path id="kity_path_145" fill="white" stroke="gray" d="M605.5000069364905,82.49999768286943A6,6,0,1,1,593.5000069364905,82.49999768286943A6,6,0,1,1,605.5000069364905,82.49999768286943"></path><path id="kity_path_146" fill="none" stroke="gray"></path></g><path id="node_outline10" fill="none" stroke="none" d="M527.5000059381127,71.49999768286943h61a5,5,0,0,1,5,5v12a5,5,0,0,1,-5,5h-61a5,5,0,0,1,-5,-5v-12a5,5,0,0,1,5,-5z"></path><g id="node_text10" fill="black"><text id="kity_text_83" text-rendering="inherit" font-size="12" dy=".8em" y="74.69999765604734" x="532.5000059381127">join 种类</text></g></g><g id="minder_node13"><g id="node_expander10" style="cursor: pointer;" display="none"><path id="kity_path_148" fill="white" stroke="gray" d="M605.5000069364905,134.49999845772982A6,6,0,1,1,593.5000069364905,134.49999845772982A6,6,0,1,1,605.5000069364905,134.49999845772982"></path><path id="kity_path_149" fill="none" stroke="gray"></path></g><path id="node_outline11" fill="none" stroke="none" d="M527.5000059381127,123.49999845772982h61a5,5,0,0,1,5,5v12a5,5,0,0,1,-5,5h-61a5,5,0,0,1,-5,-5v-12a5,5,0,0,1,5,-5z"></path><g id="node_text11" fill="black"><text id="kity_text_85" text-rendering="inherit" font-size="12" dy=".8em" y="126.69999843090773" x="532.5000059381127">join 优化</text></g></g><g id="minder_node14"><g id="node_expander12" style="cursor: pointer;" display="none"><path id="kity_path_154" fill="white" stroke="gray" d="M694.5000082626939,186.4999992325902A6,6,0,1,1,682.5000082626939,186.4999992325902A6,6,0,1,1,694.5000082626939,186.4999992325902"></path><path id="kity_path_155" fill="none" stroke="gray"></path></g><path id="node_outline13" fill="none" stroke="none" d="M634.500007532537,175.4999992325902h43a5,5,0,0,1,5,5v12a5,5,0,0,1,-5,5h-43a5,5,0,0,1,-5,-5v-12a5,5,0,0,1,5,-5z"></path><g id="node_text13" fill="black"><text id="kity_text_89" text-rendering="inherit" font-size="12" dy=".8em" y="178.6999992057681" x="639.500007532537">union</text></g></g><g id="minder_node15"><g id="node_expander13" style="cursor: pointer;" display="none"><path id="kity_path_157" fill="white" stroke="gray" d="M694.5000082626939,238.50000000745058A6,6,0,1,1,682.5000082626939,238.50000000745058A6,6,0,1,1,694.5000082626939,238.50000000745058"></path><path id="kity_path_158" fill="none" stroke="gray"></path></g><path id="node_outline14" fill="none" stroke="none" d="M597.500006981194,227.50000000745058h80a5,5,0,0,1,5,5v12a5,5,0,0,1,-5,5h-80a5,5,0,0,1,-5,-5v-12a5,5,0,0,1,5,-5z"></path><g id="node_text14" fill="black"><text id="kity_text_91" text-rendering="inherit" font-size="12" dy=".8em" y="230.6999999806285" x="602.500006981194">tablesample</text></g></g><g id="minder_node16"><g id="node_expander14" style="cursor: pointer;" display="none"><path id="kity_path_160" fill="white" stroke="gray" d="M694.5000082626939,290.50000078231096A6,6,0,1,1,682.5000082626939,290.50000078231096A6,6,0,1,1,694.5000082626939,290.50000078231096"></path><path id="kity_path_161" fill="none" stroke="gray"></path></g><path id="node_outline15" fill="none" stroke="none" d="M612.5000072047114,279.50000078231096h65a5,5,0,0,1,5,5v12a5,5,0,0,1,-5,5h-65a5,5,0,0,1,-5,-5v-12a5,5,0,0,1,5,-5z"></path><g id="node_text15" fill="black"><text id="kity_text_93" text-rendering="inherit" font-size="12" dy=".8em" y="282.7000007554889" x="617.5000072047114">subquery</text></g></g><g id="minder_node17"><g id="node_expander15" style="cursor: pointer;" display="none"><path id="kity_path_163" fill="white" stroke="gray" d="M694.5000082626939,342.50000155717134A6,6,0,1,1,682.5000082626939,342.50000155717134A6,6,0,1,1,694.5000082626939,342.50000155717134"></path><path id="kity_path_164" fill="none" stroke="gray"></path></g><path id="node_outline16" fill="none" stroke="none" d="M647.5000077262521,331.50000155717134h30a5,5,0,0,1,5,5v12a5,5,0,0,1,-5,5h-30a5,5,0,0,1,-5,-5v-12a5,5,0,0,1,5,-5z" stroke-width="3"></path><g id="node_text16" fill="black"><text id="kity_text_95" text-rendering="inherit" font-size="12" dy=".8em" y="334.70000153034925" x="652.5000077262521">udf</text></g></g><g id="minder_node18"><g id="node_expander16" style="cursor: pointer;"><path id="kity_path_166" fill="white" stroke="gray" d="M694.5000082626939,446.5000031068921A6,6,0,1,1,682.5000082626939,446.5000031068921A6,6,0,1,1,694.5000082626939,446.5000031068921"></path><path id="kity_path_167" fill="none" stroke="gray" d="M684.0000082626939,446.5000031068921L693.0000082626939,446.5000031068921"></path></g><path id="node_outline17" fill="none" stroke="none" d="M621.5000073388219,435.5000031068921h56a5,5,0,0,1,5,5v12a5,5,0,0,1,-5,5h-56a5,5,0,0,1,-5,-5v-12a5,5,0,0,1,5,-5z" stroke-width="3"></path><g id="node_text17" fill="black"><text id="kity_text_97" text-rendering="inherit" font-size="12" dy=".8em" y="438.70000308007" x="626.5000073388219">window</text></g></g><g id="minder_node19"><g id="node_expander17" style="cursor: pointer;"><path id="kity_path_169" fill="white" stroke="gray" d="M694.5000082626939,602.5000054314733A6,6,0,1,1,682.5000082626939,602.5000054314733A6,6,0,1,1,694.5000082626939,602.5000054314733"></path><path id="kity_path_170" fill="none" stroke="gray" d="M684.0000082626939,602.5000054314733L693.0000082626939,602.5000054314733"></path></g><path id="node_outline18" fill="none" stroke="none" d="M581.5000067427754,591.5000054314733h96a5,5,0,0,1,5,5v12a5,5,0,0,1,-5,5h-96a5,5,0,0,1,-5,-5v-12a5,5,0,0,1,5,-5z" stroke-width="3"></path><g id="node_text18" fill="black"><text id="kity_text_99" text-rendering="inherit" font-size="12" dy=".8em" y="594.7000054046512" x="586.5000067427754">行转类、列转行</text></g></g><g id="minder_node20"><g id="node_expander19" style="cursor: pointer;" display="none"><path id="kity_path_180" fill="white" stroke="gray" d="M694.5000082626939,706.500006981194A6,6,0,1,1,682.5000082626939,706.500006981194A6,6,0,1,1,694.5000082626939,706.500006981194"></path><path id="kity_path_181" fill="none" stroke="gray"></path></g><path id="node_outline20" fill="none" stroke="none" d="M529.5000059679151,695.500006981194h148a5,5,0,0,1,5,5v12a5,5,0,0,1,-5,5h-148a5,5,0,0,1,-5,-5v-12a5,5,0,0,1,5,-5z" stroke-width="3"></path><g id="node_text20" fill="black"><text id="kity_text_177" text-rendering="inherit" font-size="12" dy=".8em" y="698.7000069543719" x="534.5000059679151">LateralView（udtf使用）</text></g></g><g id="minder_node21"><g id="node_expander20" style="cursor: pointer;" display="none"><path id="kity_path_188" fill="white" stroke="gray" d="M548.5000060871243,550.5000046566129A6,6,0,1,1,536.5000060871243,550.5000046566129A6,6,0,1,1,548.5000060871243,550.5000046566129"></path><path id="kity_path_189" fill="none" stroke="gray"></path></g><path id="node_outline21" fill="none" stroke="none" d="M482.5000052675605,539.5000046566129h49a5,5,0,0,1,5,5v12a5,5,0,0,1,-5,5h-49a5,5,0,0,1,-5,-5v-12a5,5,0,0,1,5,-5z" stroke-width="3"></path><g id="node_text21" fill="black"><text id="kity_text_185" text-rendering="inherit" font-size="12" dy=".8em" y="542.7000046297908" x="487.5000052675605">concat</text></g></g><g id="minder_node22"><g id="node_expander21" style="cursor: pointer;" display="none"><path id="kity_path_196" fill="white" stroke="gray" d="M548.5000060871243,602.5000054314733A6,6,0,1,1,536.5000060871243,602.5000054314733A6,6,0,1,1,548.5000060871243,602.5000054314733"></path><path id="kity_path_197" fill="none" stroke="gray"></path></g><path id="node_outline22" fill="none" stroke="none" d="M401.5000040605664,591.5000054314733h130a5,5,0,0,1,5,5v12a5,5,0,0,1,-5,5h-130a5,5,0,0,1,-5,-5v-12a5,5,0,0,1,5,-5z" stroke-width="3"></path><g id="node_text22" fill="black"><text id="kity_text_193" text-rendering="inherit" font-size="12" dy=".8em" y="594.7000054046512" x="406.5000040605664">collect_set（行转列）</text></g></g><g id="minder_node23"><g id="node_expander22" style="cursor: pointer;" display="none"><path id="kity_path_204" fill="white" stroke="gray" d="M548.5000060871243,654.5000062063336A6,6,0,1,1,536.5000060871243,654.5000062063336A6,6,0,1,1,548.5000060871243,654.5000062063336"></path><path id="kity_path_205" fill="none" stroke="gray"></path></g><path id="node_outline23" fill="none" stroke="none" d="M431.50000450760126,643.5000062063336h100a5,5,0,0,1,5,5v12a5,5,0,0,1,-5,5h-100a5,5,0,0,1,-5,-5v-12a5,5,0,0,1,5,-5z" stroke-width="3"></path><g id="node_text23" fill="black"><text id="kity_text_201" text-rendering="inherit" font-size="12" dy=".8em" y="646.7000061795115" x="436.50000450760126">explode(列转行)</text></g></g><g id="minder_node24" opacity="1"><g id="node_expander23" style="cursor: pointer;" display="none"><path id="kity_path_212" fill="white" stroke="gray" d="M588.5000066831708,446.5000031068921A6,6,0,1,1,576.5000066831708,446.5000031068921A6,6,0,1,1,588.5000066831708,446.5000031068921"></path><path id="kity_path_213" fill="none" stroke="gray"></path></g><path id="node_outline24" fill="none" stroke="none" d="M477.5000051930547,435.5000031068921h94a5,5,0,0,1,5,5v12a5,5,0,0,1,-5,5h-94a5,5,0,0,1,-5,-5v-12a5,5,0,0,1,5,-5z" stroke-width="3"></path><g id="node_text24" fill="black"><text id="kity_text_209" text-rendering="inherit" font-size="12" dy=".8em" y="438.70000308007" x="482.5000051930547">row/range区别</text></g></g><g id="minder_node25"><g id="node_expander24" style="cursor: pointer;"><path id="kity_path_220" fill="white" stroke="gray" d="M588.5000066831708,394.5000023320317A6,6,0,1,1,576.5000066831708,394.5000023320317A6,6,0,1,1,588.5000066831708,394.5000023320317"></path><path id="kity_path_221" fill="none" stroke="gray" d="M578.0000066831708,394.5000023320317L587.0000066831708,394.5000023320317"></path></g><path id="node_outline25" fill="none" stroke="none" d="M512.5000057145953,383.5000023320317h59a5,5,0,0,1,5,5v12a5,5,0,0,1,-5,5h-59a5,5,0,0,1,-5,-5v-12a5,5,0,0,1,5,-5z" stroke-width="3"></path><g id="node_text25" fill="black"><text id="kity_text_217" text-rendering="inherit" font-size="12" dy=".8em" y="386.70000230520964" x="517.5000057145953">执行顺序</text></g></g><g id="minder_node26"><g id="node_expander25" style="cursor: pointer;" display="none"><path id="kity_path_228" fill="white" stroke="gray" d="M479.5000050589442,394.5000023320317A6,6,0,1,1,467.5000050589442,394.5000023320317A6,6,0,1,1,479.5000050589442,394.5000023320317"></path><path id="kity_path_229" fill="none" stroke="gray"></path></g><path id="node_outline26" fill="none" stroke="none" d="M24.499998442828655,383.5000023320317h438a5,5,0,0,1,5,5v12a5,5,0,0,1,-5,5h-438a5,5,0,0,1,-5,-5v-12a5,5,0,0,1,5,-5z" stroke-width="3"></path><g id="node_text26" fill="black"><text id="kity_text_225" text-rendering="inherit" font-size="12" dy=".8em" y="386.70000230520964" x="29.499998442828655">分区(partition)-&gt;排序(order)-&gt;开窗范围控制(row/range控制)-&gt; 执行窗口函数</text></g></g><g id="minder_node27"><g id="node_expander26" style="cursor: pointer;" display="none"><path id="kity_path_236" fill="white" stroke="gray" d="M588.5000066831708,498.5000038817525A6,6,0,1,1,576.5000066831708,498.5000038817525A6,6,0,1,1,588.5000066831708,498.5000038817525"></path><path id="kity_path_237" fill="none" stroke="gray"></path></g><path id="node_outline27" fill="none" stroke="none" d="M487.5000053420663,487.5000038817525h84a5,5,0,0,1,5,5v12a5,5,0,0,1,-5,5h-84a5,5,0,0,1,-5,-5v-12a5,5,0,0,1,5,-5z" stroke-width="3"></path><g id="node_text27" fill="black"><text id="kity_text_233" text-rendering="inherit" font-size="12" dy=".8em" y="490.7000038549304" x="492.5000053420663">窗口函数类型</text></g></g><g id="kity_g_12" display="none"><path id="kity_path_13" fill="none" stroke="rgb(66, 94, 112)" d="M487.500012986362,487.50000194460154h84a5,5,0,0,1,5,5v12a5,5,0,0,1,-5,5h-84a5,5,0,0,1,-5,-5v-12a5,5,0,0,1,5,-5z" stroke-width="5"></path></g></g></g></svg>