<svg id="kity_svg_6" xmlns="http://www.w3.org/2000/svg" xmlns:xlink="http://www.w3.org/1999/xlink" version="1.1" width="1830" height="2089" style="background: rgb(251, 251, 251); visibility: visible;" viewBox="0 0 1830 2089"><defs id="kity_defs_7"><linearGradient id="kity_linearGradient_17" x1="0" y1="0" x2="0" y2="1"><stop id="kity_stop_18" offset="0" stop-color="rgb(255, 255, 255)"></stop><stop id="kity_stop_19" offset="1" stop-color="rgb(204, 204, 204)"></stop></linearGradient><marker id="kity_marker_2" orient="auto" refX="6" refY="0" viewBox="-7 -7 14 14" markerWidth="7" markerHeight="7" markerUnits="userSpaceOnUse"><path id="kity_path_3" fill="rgb(115, 161, 191)" stroke="none" d="M6,0A6,6,0,1,1,-6,0A6,6,0,1,1,6,0"></path></marker></defs><g id="kity_g_8"><g id="minder1" text-rendering="optimize-speed"><g id="minder_connect_group1"><path id="kity_path_41" fill="none" stroke="rgb(115, 161, 191)" stroke-width="1" d="M139.00000450760126,1345.500004954636A481.5,1271,0,0,1,620.5000045076013,74.5000049546361"></path><path id="kity_path_47" fill="none" stroke="rgb(115, 161, 191)" stroke-width="1" d="M139.00000450760126,1345.500004954636A358.5,105,0,0,1,497.50000450760126,1240.500004954636"></path><path id="kity_path_49" fill="none" stroke="rgb(115, 161, 191)" stroke-width="1" d="M139.00000450760126,1345.500004954636A384.5,51,0,0,0,523.5000045076013,1396.500004954636"></path><path id="kity_path_55" fill="none" stroke="rgb(115, 161, 191)" stroke-width="1" d="M139.00000450760126,1345.500004954636A341.5,459,0,0,0,480.50000450760126,1804.500004954636"></path><path id="kity_path_71" fill="none" stroke="rgb(115, 161, 191)" stroke-width="1" d="M139.00000450760126,1345.500004954636A444.5,882,0,0,1,583.5000045076013,463.5000049546361"></path><path id="kity_path_663" fill="none" stroke="rgb(115, 161, 191)" stroke-width="1" d="M139.00000450760126,1345.500004954636A466.5,262,0,0,1,605.5000045076013,1083.500004954636"></path><path id="kity_path_686" fill="none" stroke="rgb(115, 161, 191)" stroke-width="1" d="M677.5000045076013,1083.500004954636C734.0000045076013,1083.500004954636,734.0000045076013,915.5000049546361,790.5000045076013,915.5000049546361L1007.5000045076013,915.5000049546361"></path><path id="kity_path_687" fill="none" stroke="rgb(115, 161, 191)" stroke-width="1" d="M677.5000045076013,1083.500004954636C732.0000045076013,1083.500004954636,732.0000045076013,1027.500004954636,786.5000045076013,1027.500004954636L1742.5000045076013,1027.500004954636"></path><path id="kity_path_695" fill="none" stroke="rgb(115, 161, 191)" stroke-width="1" d="M677.5000045076013,1083.500004954636C744.5000045076013,1083.500004954636,744.5000045076013,1083.500004954636,811.5000045076013,1083.500004954636L867.5000045076013,1083.500004954636"></path><path id="kity_path_703" fill="none" stroke="rgb(115, 161, 191)" stroke-width="1" d="M677.5000045076013,1083.500004954636C742.5000045076013,1083.500004954636,742.5000045076013,1141.500004954636,807.5000045076013,1141.500004954636L903.5000045076013,1141.500004954636"></path><path id="kity_path_724" fill="none" stroke="rgb(115, 161, 191)" stroke-width="1" d="M593.5000045076013,1396.500004954636C608.5000045076013,1396.500004954636,608.5000045076013,1384.500004954636,623.5000045076013,1384.500004954636L686.5000045076013,1384.500004954636"></path><path id="kity_path_725" fill="none" stroke="rgb(115, 161, 191)" stroke-width="1" d="M593.5000045076013,1396.500004954636C608.5000045076013,1396.500004954636,608.5000045076013,1436.500004954636,623.5000045076013,1436.500004954636L664.5000045076013,1436.500004954636"></path><path id="kity_path_726" fill="none" stroke="rgb(115, 161, 191)" stroke-width="1" d="M777.5000045076013,1569.500004954636C792.5000045076013,1569.500004954636,792.5000045076013,1578.500004954636,807.5000045076013,1578.500004954636L1090.5000045076013,1578.500004954636"></path><path id="kity_path_727" fill="none" stroke="rgb(115, 161, 191)" stroke-width="1" d="M580.5000045076013,1804.500004954636C595.5000045076013,1804.500004954636,595.5000045076013,1569.500004954636,610.5000045076013,1569.500004954636L777.5000045076013,1569.500004954636"></path><path id="kity_path_728" fill="none" stroke="rgb(115, 161, 191)" stroke-width="1" d="M580.5000045076013,1804.500004954636C595.5000045076013,1804.500004954636,595.5000045076013,1630.500004954636,610.5000045076013,1630.500004954636L797.5000045076013,1630.500004954636"></path><path id="kity_path_729" fill="none" stroke="rgb(115, 161, 191)" stroke-width="1" d="M847.5000045076013,1691.500004954636C862.5000045076013,1691.500004954636,862.5000045076013,1700.500004954636,877.5000045076013,1700.500004954636L1088.5000045076013,1700.500004954636"></path><path id="kity_path_730" fill="none" stroke="rgb(115, 161, 191)" stroke-width="1" d="M689.5000045076013,1827.500004954636C704.5000045076013,1827.500004954636,704.5000045076013,1691.500004954636,719.5000045076013,1691.500004954636L847.5000045076013,1691.500004954636"></path><path id="kity_path_731" fill="none" stroke="rgb(115, 161, 191)" stroke-width="1" d="M788.5000045076013,1805.500004954636C803.5000045076013,1805.500004954636,803.5000045076013,1788.500004954636,818.5000045076013,1788.500004954636L1078.5000045076013,1788.500004954636"></path><path id="kity_path_732" fill="none" stroke="rgb(115, 161, 191)" stroke-width="1" d="M788.5000045076013,1805.500004954636C803.5000045076013,1805.500004954636,803.5000045076013,1858.500004954636,818.5000045076013,1858.500004954636L921.5000045076013,1858.500004954636"></path><path id="kity_path_733" fill="none" stroke="rgb(115, 161, 191)" stroke-width="1" d="M689.5000045076013,1827.500004954636C704.5000045076013,1827.500004954636,704.5000045076013,1805.500004954636,719.5000045076013,1805.500004954636L788.5000045076013,1805.500004954636"></path><path id="kity_path_734" fill="none" stroke="rgb(115, 161, 191)" stroke-width="1" d="M844.5000045076013,1963.500004954636C859.5000045076013,1963.500004954636,859.5000045076013,1946.500004954636,874.5000045076013,1946.500004954636L1410.5000045076013,1946.500004954636"></path><path id="kity_path_735" fill="none" stroke="rgb(115, 161, 191)" stroke-width="1" d="M844.5000045076013,1963.500004954636C859.5000045076013,1963.500004954636,859.5000045076013,2016.500004954636,874.5000045076013,2016.500004954636L977.5000045076013,2016.500004954636"></path><path id="kity_path_736" fill="none" stroke="rgb(115, 161, 191)" stroke-width="1" d="M689.5000045076013,1827.500004954636C704.5000045076013,1827.500004954636,704.5000045076013,1963.500004954636,719.5000045076013,1963.500004954636L844.5000045076013,1963.500004954636"></path><path id="kity_path_737" fill="none" stroke="rgb(115, 161, 191)" stroke-width="1" d="M580.5000045076013,1804.500004954636C595.5000045076013,1804.500004954636,595.5000045076013,1827.500004954636,610.5000045076013,1827.500004954636L689.5000045076013,1827.500004954636"></path><path id="kity_path_738" fill="none" stroke="rgb(115, 161, 191)" stroke-width="1" d="M697.5000045076013,2068.500004954636C712.5000045076013,2068.500004954636,712.5000045076013,2068.500004954636,727.5000045076013,2068.500004954636L1271.5000045076013,2068.500004954636"></path><path id="kity_path_739" fill="none" stroke="rgb(115, 161, 191)" stroke-width="1" d="M580.5000045076013,1804.500004954636C595.5000045076013,1804.500004954636,595.5000045076013,2068.500004954636,610.5000045076013,2068.500004954636L697.5000045076013,2068.500004954636"></path><path id="kity_path_740" fill="none" stroke="rgb(115, 161, 191)" stroke-width="1" d="M724.5000045076013,74.5000049546361C739.5000045076013,74.5000049546361,739.5000045076013,80.5000049546361,754.5000045076013,80.5000049546361L1373.5000045076013,80.5000049546361"></path><path id="kity_path_741" fill="none" stroke="rgb(115, 161, 191)" stroke-width="1" d="M724.5000045076013,74.5000049546361C739.5000045076013,74.5000049546361,739.5000045076013,132.5000049546361,754.5000045076013,132.5000049546361L1026.5000045076013,132.5000049546361"></path><path id="kity_path_742" fill="none" stroke="rgb(115, 161, 191)" stroke-width="1" d="M773.5000045076013,315.5000049546361C788.5000045076013,315.5000049546361,788.5000045076013,264.5000049546361,803.5000045076013,264.5000049546361L1524.5000045076013,264.5000049546361"></path><path id="kity_path_743" fill="none" stroke="rgb(115, 161, 191)" stroke-width="1" d="M773.5000045076013,315.5000049546361C788.5000045076013,315.5000049546361,788.5000045076013,316.5000049546361,803.5000045076013,316.5000049546361L1062.5000045076013,316.5000049546361"></path><path id="kity_path_744" fill="none" stroke="rgb(115, 161, 191)" stroke-width="1" d="M773.5000045076013,315.5000049546361C788.5000045076013,315.5000049546361,788.5000045076013,368.5000049546361,803.5000045076013,368.5000049546361L1081.5000045076013,368.5000049546361"></path><path id="kity_path_745" fill="none" stroke="rgb(115, 161, 191)" stroke-width="1" d="M773.5000045076013,315.5000049546361C788.5000045076013,315.5000049546361,788.5000045076013,420.5000049546361,803.5000045076013,420.5000049546361L1810.5000045076013,420.5000049546361"></path><path id="kity_path_746" fill="none" stroke="rgb(115, 161, 191)" stroke-width="1" d="M664.5000045076013,463.5000049546361C679.5000045076013,463.5000049546361,679.5000045076013,315.5000049546361,694.5000045076013,315.5000049546361L773.5000045076013,315.5000049546361"></path><path id="kity_path_747" fill="none" stroke="rgb(115, 161, 191)" stroke-width="1" d="M746.5000045076013,640.5000049546361C761.5000045076013,640.5000049546361,761.5000045076013,616.5000049546361,776.5000045076013,616.5000049546361L1539.5000045076013,616.5000049546361"></path><path id="kity_path_748" fill="none" stroke="rgb(115, 161, 191)" stroke-width="1" d="M746.5000045076013,640.5000049546361C761.5000045076013,640.5000049546361,761.5000045076013,668.5000049546361,776.5000045076013,668.5000049546361L928.5000045076013,668.5000049546361"></path><path id="kity_path_749" fill="none" stroke="rgb(115, 161, 191)" stroke-width="1" d="M746.5000045076013,640.5000049546361C761.5000045076013,640.5000049546361,761.5000045076013,738.5000049546361,776.5000045076013,738.5000049546361L1553.5000045076013,738.5000049546361"></path><path id="kity_path_750" fill="none" stroke="rgb(115, 161, 191)" stroke-width="1" d="M746.5000045076013,640.5000049546361C761.5000045076013,640.5000049546361,761.5000045076013,808.5000049546361,776.5000045076013,808.5000049546361L1335.5000045076013,808.5000049546361"></path><path id="kity_path_751" fill="none" stroke="rgb(115, 161, 191)" stroke-width="1" d="M664.5000045076013,463.5000049546361C679.5000045076013,463.5000049546361,679.5000045076013,640.5000049546361,694.5000045076013,640.5000049546361L746.5000045076013,640.5000049546361"></path></g><g id="minder_node1"><path id="node_outline1" fill="rgb(115, 161, 191)" stroke="rgb(57, 80, 96)" d="M25.50000450760126,1325.500004954636h227a5,5,0,0,1,5,5v30a5,5,0,0,1,-5,5h-227a5,5,0,0,1,-5,-5v-30a5,5,0,0,1,5,-5z" stroke-width="3"></path><g id="node_text1" fill="white"><text id="kity_text_22" text-rendering="inherit" font-size="16" dy=".8em" y="1335.1000049188733" x="44.50000450760126">数据类型(Field data type)</text></g></g><g id="kity_g_14" display="none"><path id="kity_path_15" fill="rgba(0, 92, 153, 0.5)" stroke="none" d="M796.5000045076013,1029.500004954636h946v15h-946z"></path><path id="kity_path_16" fill="none" stroke="rgb(0, 76, 128)" d="M796.5000045076013,1029.500004954636L1742.5000045076013,1029.500004954636" stroke-width="1"></path></g><g id="minder_node7" opacity="1"><g id="node_expander8" style="cursor: pointer;"><path id="kity_path_222" fill="white" stroke="gray" d="M621.5000130161643,74.49998601526022A6,6,0,1,1,609.5000130161643,74.49998601526022A6,6,0,1,1,621.5000130161643,74.49998601526022"></path><path id="kity_path_223" fill="none" stroke="gray" d="M611.0000130161643,74.49998601526022L620.0000130161643,74.49998601526022"></path></g><path id="node_outline9" fill="rgb(238, 243, 246)" stroke="rgb(115, 161, 191)" d="M625.5000134184957,61.49998601526022h96a3,3,0,0,1,3,3v20a3,3,0,0,1,-3,3h-96a3,3,0,0,1,-3,-3v-20a3,3,0,0,1,3,-3z" stroke-width="1"></path><g id="node_text9" fill="black"><text id="kity_text_111" text-rendering="inherit" font-size="14" dy=".8em" y="65.39998598396778" x="642.5000134184957">Numbers</text></g></g><g id="minder_node10" opacity="1"><g id="node_expander9" style="cursor: pointer;" display="none"><path id="kity_path_225" fill="white" stroke="gray" d="M498.5000111833215,1240.5000033900142A6,6,0,1,1,486.5000111833215,1240.5000033900142A6,6,0,1,1,498.5000111833215,1240.5000033900142"></path><path id="kity_path_226" fill="none" stroke="gray"></path></g><path id="node_outline10" fill="rgb(238, 243, 246)" stroke="rgb(115, 161, 191)" d="M502.5000115856528,1227.5000033900142h176a3,3,0,0,1,3,3v20a3,3,0,0,1,-3,3h-176a3,3,0,0,1,-3,-3v-20a3,3,0,0,1,3,-3z" stroke-width="1"></path><g id="node_text10" fill="black"><text id="kity_text_113" text-rendering="inherit" font-size="14" dy=".8em" y="1231.4000033587217" x="519.5000115856528">Agg type(预聚合类型)</text></g></g><g id="minder_node11" opacity="1"><g id="node_expander12" style="cursor: pointer;"><path id="kity_path_234" fill="white" stroke="gray" d="M524.5000115707517,1396.5000057145953A6,6,0,1,1,512.5000115707517,1396.5000057145953A6,6,0,1,1,524.5000115707517,1396.5000057145953"></path><path id="kity_path_235" fill="none" stroke="gray" d="M514.0000115707517,1396.5000057145953L523.0000115707517,1396.5000057145953"></path></g><path id="node_outline13" fill="rgb(238, 243, 246)" stroke="rgb(115, 161, 191)" d="M528.500011973083,1383.5000057145953h62a3,3,0,0,1,3,3v20a3,3,0,0,1,-3,3h-62a3,3,0,0,1,-3,-3v-20a3,3,0,0,1,3,-3z" stroke-width="1"></path><g id="node_text13" fill="black"><text id="kity_text_119" text-rendering="inherit" font-size="14" dy=".8em" y="1387.4000056833029" x="545.500011973083">时空</text></g></g><g id="minder_node14" opacity="1"><g id="node_expander18" style="cursor: pointer;"><path id="kity_path_252" fill="white" stroke="gray" d="M593.5000125989318,1804.500011794269A6,6,0,1,1,581.5000125989318,1804.500011794269A6,6,0,1,1,593.5000125989318,1804.500011794269"></path><path id="kity_path_253" fill="none" stroke="gray" d="M583.0000125989318,1804.500011794269L592.0000125989318,1804.500011794269"></path></g><path id="node_outline19" fill="rgb(238, 243, 246)" stroke="rgb(115, 161, 191)" d="M485.5000113323331,1791.500011794269h92a3,3,0,0,1,3,3v20a3,3,0,0,1,-3,3h-92a3,3,0,0,1,-3,-3v-20a3,3,0,0,1,3,-3z" stroke-width="1"></path><g id="node_text19" fill="black"><text id="kity_text_133" text-rendering="inherit" font-size="14" dy=".8em" y="1795.4000117629766" x="502.5000113323331">特殊类型</text></g></g><g id="minder_node22" opacity="1"><g id="node_expander30" style="cursor: pointer;"><path id="kity_path_288" fill="white" stroke="gray" d="M677.5000138506293,463.4999918118119A6,6,0,1,1,665.5000138506293,463.4999918118119A6,6,0,1,1,677.5000138506293,463.4999918118119"></path><path id="kity_path_289" fill="none" stroke="gray" d="M667.0000138506293,463.4999918118119L676.0000138506293,463.4999918118119"></path></g><path id="node_outline31" fill="rgb(238, 243, 246)" stroke="rgb(115, 161, 191)" d="M588.5000128671527,450.4999918118119h73a3,3,0,0,1,3,3v20a3,3,0,0,1,-3,3h-73a3,3,0,0,1,-3,-3v-20a3,3,0,0,1,3,-3z" stroke-width="1"></path><g id="node_text31" fill="black"><text id="kity_text_169" text-rendering="inherit" font-size="14" dy=".8em" y="454.3999917805195" x="605.5000128671527">String</text></g></g><g id="minder_node43" opacity="1"><g id="node_expander42" style="cursor: pointer;"><path id="kity_path_668" fill="white" stroke="gray" d="M690.5000140443444,1083.5000010505319A6,6,0,1,1,678.5000140443444,1083.5000010505319A6,6,0,1,1,690.5000140443444,1083.5000010505319"></path><path id="kity_path_669" fill="none" stroke="gray" d="M680.0000140443444,1083.5000010505319L689.0000140443444,1083.5000010505319"></path></g><path id="node_outline43" fill="rgb(238, 243, 246)" stroke="rgb(115, 161, 191)" d="M610.5000131949782,1070.5000010505319h64a3,3,0,0,1,3,3v20a3,3,0,0,1,-3,3h-64a3,3,0,0,1,-3,-3v-20a3,3,0,0,1,3,-3z" stroke-width="1"></path><g id="node_text43" fill="black"><text id="kity_text_665" text-rendering="inherit" font-size="14" dy=".8em" y="1074.4000010192394" x="627.5000131949782">date</text></g></g><g id="minder_node44" opacity="1"><g id="node_expander43" style="cursor: pointer;" display="none"><path id="kity_path_676" fill="white" stroke="gray" d="M1019.5000189468265,892.4999982044101A6,6,0,1,1,1007.5000189468265,892.4999982044101A6,6,0,1,1,1019.5000189468265,892.4999982044101"></path><path id="kity_path_677" fill="none" stroke="gray"></path></g><path id="node_outline44" fill="none" stroke="none" d="M805.5000159218907,872.4999982044101h197a5,5,0,0,1,5,5v30a5,5,0,0,1,-5,5h-197a5,5,0,0,1,-5,-5v-30a5,5,0,0,1,5,-5z" stroke-width="3"></path><g id="node_text44" fill="black"><text id="kity_text_673" text-rendering="inherit" font-size="12" dy=".8em" y="875.699998177588" x="810.5000159218907">核心配置</text><text id="kity_text_688" text-rendering="inherit" font-size="12" dy=".8em" y="893.699998177588" x="810.5000159218907">1. format 时间格式，java时间格式</text></g></g><g id="minder_node45" opacity="1"><g id="node_expander44" style="cursor: pointer;" display="none"><path id="kity_path_684" fill="white" stroke="gray" d="M1754.50002989918,986.4999996051192A6,6,0,1,1,1742.50002989918,986.4999996051192A6,6,0,1,1,1754.50002989918,986.4999996051192"></path><path id="kity_path_685" fill="none" stroke="gray"></path></g><path id="node_outline45" fill="none" stroke="none" d="M801.5000158622861,948.4999996051192h936a5,5,0,0,1,5,5v66a5,5,0,0,1,-5,5h-936a5,5,0,0,1,-5,-5v-66a5,5,0,0,1,5,-5z" stroke-width="3"></path><g id="node_text45" fill="black"><text id="kity_text_681" text-rendering="inherit" font-size="12" dy=".8em" y="951.6999995782971" x="806.5000158622861">- 注意事项</text><text id="kity_text_691" text-rendering="inherit" font-size="12" dy=".8em" y="969.6999995782971" x="806.5000158622861">1. `date`日期在es内部都转化为时间戳进行存储。日期支持多种格式，但是多种格式的支持性能会变差。</text><text id="kity_text_692" text-rendering="inherit" font-size="12" dy=".8em" y="987.6999995782971" x="806.5000158622861">2. 日期的转化是利用`java`来实现，`java`日期的转化可能会带来脏数据，如：`021-01-01` 变成一个1999年的时间，该字段正常时间是`2021`，转化过程没有报错，插入成功。</text><text id="kity_text_693" text-rendering="inherit" font-size="12" dy=".8em" y="1005.6999995782971" x="806.5000158622861">3. `date`的时间精度是`ms`，`data_naos`时间精度为`ns`，带有小数点的日期格式如：{"date": 1618249875.123456}，`data_naos`可能会精度丢失。</text></g></g><g id="kity_g_12" display="none"><path id="kity_path_13" fill="none" stroke="rgb(66, 94, 112)" d="M610.5000045076013,1044.500004954636h64a3,3,0,0,1,3,3v20a3,3,0,0,1,-3,3h-64a3,3,0,0,1,-3,-3v-20a3,3,0,0,1,3,-3z" stroke-width="5"></path></g><g id="minder_node46" opacity="1"><g id="node_expander45" style="cursor: pointer;" display="none"><path id="kity_path_700" fill="white" stroke="gray" d="M879.5000168606639,1069.5000008419156A6,6,0,1,1,867.5000168606639,1069.5000008419156A6,6,0,1,1,879.5000168606639,1069.5000008419156"></path><path id="kity_path_701" fill="none" stroke="gray"></path></g><path id="node_outline46" fill="none" stroke="none" d="M826.5000162348151,1058.5000008419156h36a5,5,0,0,1,5,5v12a5,5,0,0,1,-5,5h-36a5,5,0,0,1,-5,-5v-12a5,5,0,0,1,5,-5z" stroke-width="3"></path><g id="node_text46" fill="black"><text id="kity_text_697" text-rendering="inherit" font-size="12" dy=".8em" y="1061.7000008150935" x="831.5000162348151">date</text></g></g><g id="minder_node47" opacity="1"><g id="node_expander46" style="cursor: pointer;" display="none"><path id="kity_path_708" fill="white" stroke="gray" d="M915.5000173971057,1127.500001706183A6,6,0,1,1,903.5000173971057,1127.500001706183A6,6,0,1,1,915.5000173971057,1127.500001706183"></path><path id="kity_path_709" fill="none" stroke="gray"></path></g><path id="node_outline47" fill="none" stroke="none" d="M822.5000161752105,1116.500001706183h76a5,5,0,0,1,5,5v12a5,5,0,0,1,-5,5h-76a5,5,0,0,1,-5,-5v-12a5,5,0,0,1,5,-5z" stroke-width="3"></path><g id="node_text47" fill="black"><text id="kity_text_705" text-rendering="inherit" font-size="12" dy=".8em" y="1119.7000016793609" x="827.5000161752105">date_nanos</text></g></g><g id="minder_node12"><g id="node_expander10" style="cursor: pointer;" display="none"><path id="kity_path_228" fill="white" stroke="gray" d="M633.5000131949782,1370.5000053271651A6,6,0,1,1,621.5000131949782,1370.5000053271651A6,6,0,1,1,633.5000131949782,1370.5000053271651"></path><path id="kity_path_229" fill="none" stroke="gray"></path></g><path id="node_outline11" fill="none" stroke="none" d="M638.5000134333968,1359.5000053271651h43a5,5,0,0,1,5,5v12a5,5,0,0,1,-5,5h-43a5,5,0,0,1,-5,-5v-12a5,5,0,0,1,5,-5z"></path><g id="node_text11" fill="black"><text id="kity_text_115" text-rendering="inherit" font-size="12" dy=".8em" y="1362.700005300343" x="643.5000134333968">geoip</text></g></g><g id="minder_node13"><g id="node_expander11" style="cursor: pointer;" display="none"><path id="kity_path_231" fill="white" stroke="gray" d="M633.5000131949782,1422.5000061020255A6,6,0,1,1,621.5000131949782,1422.5000061020255A6,6,0,1,1,633.5000131949782,1422.5000061020255"></path><path id="kity_path_232" fill="none" stroke="gray"></path></g><path id="node_outline12" fill="none" stroke="none" d="M638.5000134333968,1411.5000061020255h21a5,5,0,0,1,5,5v12a5,5,0,0,1,-5,5h-21a5,5,0,0,1,-5,-5v-12a5,5,0,0,1,5,-5z"></path><g id="node_text12" fill="black"><text id="kity_text_117" text-rendering="inherit" font-size="12" dy=".8em" y="1414.7000060752034" x="643.5000134333968">ip</text></g></g><g id="minder_node18" opacity="1"><g id="node_expander15" style="cursor: pointer;" display="none"><path id="kity_path_243" fill="white" stroke="gray" d="M817.5000159367919,1555.50000808388A6,6,0,1,1,805.5000159367919,1555.50000808388A6,6,0,1,1,817.5000159367919,1555.50000808388"></path><path id="kity_path_244" fill="none" stroke="gray"></path></g><path id="node_outline16" fill="none" stroke="none" d="M822.5000161752105,1535.50000808388h263a5,5,0,0,1,5,5v30a5,5,0,0,1,-5,5h-263a5,5,0,0,1,-5,-5v-30a5,5,0,0,1,5,-5z" stroke-width="3"></path><g id="node_text16" fill="black"><text id="kity_text_126" text-rendering="inherit" font-size="12" dy=".8em" y="1538.7000080570579" x="827.5000161752105">- 注意</text><text id="kity_text_127" text-rendering="inherit" font-size="12" dy=".8em" y="1556.7000080570579" x="827.5000161752105">1. 一般使用前缀搜索，新版支持中间命中搜索。</text></g></g><g id="minder_node17" opacity="1"><g id="node_expander16" style="cursor: pointer;"><path id="kity_path_246" fill="white" stroke="gray" d="M620.5000130012631,1555.50000808388A6,6,0,1,1,608.5000130012631,1555.50000808388A6,6,0,1,1,620.5000130012631,1555.50000808388"></path><path id="kity_path_247" fill="none" stroke="gray" d="M610.0000130012631,1555.50000808388L619.0000130012631,1555.50000808388"></path></g><path id="node_outline17" fill="none" stroke="none" d="M625.5000132396817,1544.50000808388h147a5,5,0,0,1,5,5v12a5,5,0,0,1,-5,5h-147a5,5,0,0,1,-5,-5v-12a5,5,0,0,1,5,-5z" stroke-width="3"></path><g id="node_text17" fill="black"><text id="kity_text_129" text-rendering="inherit" font-size="12" dy=".8em" y="1547.7000080570579" x="630.5000132396817">completion（输入提示）</text></g></g><g id="minder_node33"><g id="node_expander32" style="cursor: pointer;" display="none"><path id="kity_path_332" fill="white" stroke="gray" d="M620.5000130012631,1616.5000089928508A6,6,0,1,1,608.5000130012631,1616.5000089928508A6,6,0,1,1,620.5000130012631,1616.5000089928508"></path><path id="kity_path_333" fill="none" stroke="gray"></path></g><path id="node_outline33" fill="none" stroke="none" d="M625.5000132396817,1605.5000089928508h167a5,5,0,0,1,5,5v12a5,5,0,0,1,-5,5h-167a5,5,0,0,1,-5,-5v-12a5,5,0,0,1,5,-5z" stroke-width="3"></path><g id="node_text33" fill="black"><text id="kity_text_329" text-rendering="inherit" font-size="12" dy=".8em" y="1608.7000089660287" x="630.5000132396817">murmur3(一般用于文本聚合)</text></g></g><g id="minder_node38"><g id="node_expander37" style="cursor: pointer;" display="none"><path id="kity_path_378" fill="white" stroke="gray" d="M887.5000169798732,1677.5000099018216A6,6,0,1,1,875.5000169798732,1677.5000099018216A6,6,0,1,1,887.5000169798732,1677.5000099018216"></path><path id="kity_path_379" fill="none" stroke="gray"></path></g><path id="node_outline38" fill="none" stroke="none" d="M892.5000172182918,1657.5000099018216h191a5,5,0,0,1,5,5v30a5,5,0,0,1,-5,5h-191a5,5,0,0,1,-5,-5v-30a5,5,0,0,1,5,-5z" stroke-width="3"></path><g id="node_text38" fill="black"><text id="kity_text_375" text-rendering="inherit" font-size="12" dy=".8em" y="1660.7000098749995" x="897.5000172182918">- 缺点</text><text id="kity_text_380" text-rendering="inherit" font-size="12" dy=".8em" y="1678.7000098749995" x="897.5000172182918">数组存放没有考虑到属性间的关系</text></g></g><g id="minder_node35"><g id="node_expander34" style="cursor: pointer;"><path id="kity_path_354" fill="white" stroke="gray" d="M729.5000146254897,1677.5000099018216A6,6,0,1,1,717.5000146254897,1677.5000099018216A6,6,0,1,1,729.5000146254897,1677.5000099018216"></path><path id="kity_path_355" fill="none" stroke="gray" d="M719.0000146254897,1677.5000099018216L728.0000146254897,1677.5000099018216"></path></g><path id="node_outline35" fill="none" stroke="none" d="M734.5000148639083,1666.5000099018216h108a5,5,0,0,1,5,5v12a5,5,0,0,1,-5,5h-108a5,5,0,0,1,-5,-5v-12a5,5,0,0,1,5,-5z" stroke-width="3"></path><g id="node_text35" fill="black"><text id="kity_text_351" text-rendering="inherit" font-size="12" dy=".8em" y="1669.7000098749995" x="739.5000148639083">数组实现类型嵌套</text></g></g><g id="minder_node39"><g id="node_expander38" style="cursor: pointer;" display="none"><path id="kity_path_387" fill="white" stroke="gray" d="M828.5000161007047,1756.5000110790133A6,6,0,1,1,816.5000161007047,1756.5000110790133A6,6,0,1,1,828.5000161007047,1756.5000110790133"></path><path id="kity_path_388" fill="none" stroke="gray"></path></g><path id="node_outline39" fill="none" stroke="none" d="M833.5000163391232,1727.5000110790133h240a5,5,0,0,1,5,5v48a5,5,0,0,1,-5,5h-240a5,5,0,0,1,-5,-5v-48a5,5,0,0,1,5,-5z" stroke-width="3"></path><g id="node_text39" fill="black"><text id="kity_text_384" text-rendering="inherit" font-size="12" dy=".8em" y="1730.7000110521913" x="838.5000163391232">- 缺点</text><text id="kity_text_389" text-rendering="inherit" font-size="12" dy=".8em" y="1748.7000110521913" x="838.5000163391232">1. 查询时需要特定声明为 nested 查询</text><text id="kity_text_390" text-rendering="inherit" font-size="12" dy=".8em" y="1766.7000110521913" x="838.5000163391232">2. 更新代价大，更新时候需要更新整个文档</text></g></g><g id="minder_node40" opacity="1"><g id="node_expander39" style="cursor: pointer;" display="none"><path id="kity_path_397" fill="white" stroke="gray" d="M828.5000161007047,1835.500012256205A6,6,0,1,1,816.5000161007047,1835.500012256205A6,6,0,1,1,828.5000161007047,1835.500012256205"></path><path id="kity_path_398" fill="none" stroke="gray"></path></g><path id="node_outline40" fill="none" stroke="none" d="M833.5000163391232,1815.500012256205h83a5,5,0,0,1,5,5v30a5,5,0,0,1,-5,5h-83a5,5,0,0,1,-5,-5v-30a5,5,0,0,1,5,-5z" stroke-width="3"></path><g id="node_text40" fill="black"><text id="kity_text_394" text-rendering="inherit" font-size="12" dy=".8em" y="1818.700012229383" x="838.5000163391232">- 使用场景</text><text id="kity_text_399" text-rendering="inherit" font-size="12" dy=".8em" y="1836.700012229383" x="838.5000163391232">1. 写少，多读</text></g></g><g id="minder_node36"><g id="node_expander35" style="cursor: pointer;"><path id="kity_path_362" fill="white" stroke="gray" d="M729.5000146254897,1791.500011600554A6,6,0,1,1,717.5000146254897,1791.500011600554A6,6,0,1,1,729.5000146254897,1791.500011600554"></path><path id="kity_path_363" fill="none" stroke="gray" d="M719.0000146254897,1791.500011600554L728.0000146254897,1791.500011600554"></path></g><path id="node_outline36" fill="none" stroke="none" d="M734.5000148639083,1780.500011600554h49a5,5,0,0,1,5,5v12a5,5,0,0,1,-5,5h-49a5,5,0,0,1,-5,-5v-12a5,5,0,0,1,5,-5z" stroke-width="3"></path><g id="node_text36" fill="black"><text id="kity_text_359" text-rendering="inherit" font-size="12" dy=".8em" y="1783.700011573732" x="739.5000148639083">nested</text></g></g><g id="minder_node41"><g id="node_expander40" style="cursor: pointer;" display="none"><path id="kity_path_406" fill="white" stroke="gray" d="M884.5000169351697,1914.5000134333968A6,6,0,1,1,872.5000169351697,1914.5000134333968A6,6,0,1,1,884.5000169351697,1914.5000134333968"></path><path id="kity_path_407" fill="none" stroke="gray"></path></g><path id="node_outline41" fill="none" stroke="none" d="M889.5000171735883,1885.5000134333968h516a5,5,0,0,1,5,5v48a5,5,0,0,1,-5,5h-516a5,5,0,0,1,-5,-5v-48a5,5,0,0,1,5,-5z" stroke-width="3"></path><g id="node_text41" fill="black"><text id="kity_text_403" text-rendering="inherit" font-size="12" dy=".8em" y="1888.7000134065747" x="894.5000171735883">- 缺点</text><text id="kity_text_408" text-rendering="inherit" font-size="12" dy=".8em" y="1906.7000134065747" x="894.5000171735883">1. 查询性能差，不能嵌套过多的子文档</text><text id="kity_text_409" text-rendering="inherit" font-size="12" dy=".8em" y="1924.7000134065747" x="894.5000171735883">2. 子文档需要自己维护关系，比如一个子文档对应多个父文档，修改子文档，需要自行遍历修改</text></g></g><g id="minder_node42" opacity="1"><g id="node_expander41" style="cursor: pointer;" display="none"><path id="kity_path_427" fill="white" stroke="gray" d="M884.5000169351697,1993.5000146105886A6,6,0,1,1,872.5000169351697,1993.5000146105886A6,6,0,1,1,884.5000169351697,1993.5000146105886"></path><path id="kity_path_428" fill="none" stroke="gray"></path></g><path id="node_outline42" fill="none" stroke="none" d="M889.5000171735883,1973.5000146105886h83a5,5,0,0,1,5,5v30a5,5,0,0,1,-5,5h-83a5,5,0,0,1,-5,-5v-30a5,5,0,0,1,5,-5z" stroke-width="3"></path><g id="node_text42" fill="black"><text id="kity_text_424" text-rendering="inherit" font-size="12" dy=".8em" y="1976.7000145837665" x="894.5000171735883">- 使用场景</text><text id="kity_text_429" text-rendering="inherit" font-size="12" dy=".8em" y="1994.7000145837665" x="894.5000171735883">1. 写多，少读</text></g></g><g id="minder_node37"><g id="node_expander36" style="cursor: pointer;"><path id="kity_path_370" fill="white" stroke="gray" d="M729.5000146254897,1949.5000139549375A6,6,0,1,1,717.5000146254897,1949.5000139549375A6,6,0,1,1,729.5000146254897,1949.5000139549375"></path><path id="kity_path_371" fill="none" stroke="gray" d="M719.0000146254897,1949.5000139549375L728.0000146254897,1949.5000139549375"></path></g><path id="node_outline37" fill="none" stroke="none" d="M734.5000148639083,1938.5000139549375h105a5,5,0,0,1,5,5v12a5,5,0,0,1,-5,5h-105a5,5,0,0,1,-5,-5v-12a5,5,0,0,1,5,-5z" stroke-width="3"></path><g id="node_text37" fill="black"><text id="kity_text_367" text-rendering="inherit" font-size="12" dy=".8em" y="1941.7000139281154" x="739.5000148639083">join（父子文档）</text></g></g><g id="minder_node34"><g id="node_expander33" style="cursor: pointer;"><path id="kity_path_346" fill="white" stroke="gray" d="M620.5000130012631,1813.5000119283795A6,6,0,1,1,608.5000130012631,1813.5000119283795A6,6,0,1,1,620.5000130012631,1813.5000119283795"></path><path id="kity_path_347" fill="none" stroke="gray" d="M610.0000130012631,1813.5000119283795L619.0000130012631,1813.5000119283795"></path></g><path id="node_outline34" fill="none" stroke="none" d="M625.5000132396817,1802.5000119283795h59a5,5,0,0,1,5,5v12a5,5,0,0,1,-5,5h-59a5,5,0,0,1,-5,-5v-12a5,5,0,0,1,5,-5z" stroke-width="3"></path><g id="node_text34" fill="black"><text id="kity_text_343" text-rendering="inherit" font-size="12" dy=".8em" y="1805.7000119015574" x="630.5000132396817">嵌套类型</text></g></g><g id="minder_node21"><g id="node_expander19" style="cursor: pointer;" display="none"><path id="kity_path_255" fill="white" stroke="gray" d="M737.500014744699,2054.5000155195594A6,6,0,1,1,725.500014744699,2054.5000155195594A6,6,0,1,1,737.500014744699,2054.5000155195594"></path><path id="kity_path_256" fill="none" stroke="gray"></path></g><path id="node_outline20" fill="none" stroke="none" d="M742.5000149831176,2043.5000155195594h524a5,5,0,0,1,5,5v12a5,5,0,0,1,-5,5h-524a5,5,0,0,1,-5,-5v-12a5,5,0,0,1,5,-5z" stroke-width="3"></path><g id="node_text20" fill="black"><text id="kity_text_135" text-rendering="inherit" font-size="12" dy=".8em" y="2046.7000154927373" x="747.5000149831176">ES 中是不区分数组还是单个元素，比如：keyword 里面可以放单个字段，也可以放入同类型数组</text></g></g><g id="minder_node20" opacity="1"><g id="node_expander20" style="cursor: pointer;"><path id="kity_path_258" fill="white" stroke="gray" d="M620.5000130012631,2054.5000155195594A6,6,0,1,1,608.5000130012631,2054.5000155195594A6,6,0,1,1,620.5000130012631,2054.5000155195594"></path><path id="kity_path_259" fill="none" stroke="gray" d="M610.0000130012631,2054.5000155195594L619.0000130012631,2054.5000155195594"></path></g><path id="node_outline21" fill="none" stroke="none" d="M625.5000132396817,2043.5000155195594h67a5,5,0,0,1,5,5v12a5,5,0,0,1,-5,5h-67a5,5,0,0,1,-5,-5v-12a5,5,0,0,1,5,-5z" stroke-width="3"></path><g id="node_text21" fill="black"><text id="kity_text_137" text-rendering="inherit" font-size="12" dy=".8em" y="2046.7000154927373" x="630.5000132396817">数组(特殊)</text></g></g><g id="minder_node8" opacity="1"><g id="node_expander6" style="cursor: pointer;" display="none"><path id="kity_path_216" fill="white" stroke="gray" d="M764.5000151470304,48.49998562783003A6,6,0,1,1,752.5000151470304,48.49998562783003A6,6,0,1,1,764.5000151470304,48.49998562783003"></path><path id="kity_path_217" fill="none" stroke="gray"></path></g><path id="node_outline7" fill="none" stroke="none" d="M769.5000153854489,19.49998562783003h599a5,5,0,0,1,5,5v48a5,5,0,0,1,-5,5h-599a5,5,0,0,1,-5,-5v-48a5,5,0,0,1,5,-5z" stroke-width="3"></path><g id="node_text7" fill="black"><text id="kity_text_105" text-rendering="inherit" font-size="12" dy=".8em" y="22.69998560100794" x="774.5000153854489">- 注意</text><text id="kity_text_106" text-rendering="inherit" font-size="12" dy=".8em" y="40.69998560100794" x="774.5000153854489">1. Es 支持bigdecimal 插入，但是不保证精度。es推荐浮点数使用scaled_float保存，底层基于long 性能更好。</text><text id="kity_text_107" text-rendering="inherit" font-size="12" dy=".8em" y="58.69998560100794" x="774.5000153854489">2. Number 一般用于范围搜索，假如需要精准命中keywrod 更快。</text></g></g><g id="minder_node9" opacity="1"><g id="node_expander7" style="cursor: pointer;" display="none"><path id="kity_path_219" fill="white" stroke="gray" d="M764.5000151470304,118.49998667091131A6,6,0,1,1,752.5000151470304,118.49998667091131A6,6,0,1,1,764.5000151470304,118.49998667091131"></path><path id="kity_path_220" fill="none" stroke="gray"></path></g><path id="node_outline8" fill="none" stroke="none" d="M769.5000153854489,107.49998667091131h252a5,5,0,0,1,5,5v12a5,5,0,0,1,-5,5h-252a5,5,0,0,1,-5,-5v-12a5,5,0,0,1,5,-5z" stroke-width="3"></path><g id="node_text8" fill="black"><text id="kity_text_109" text-rendering="inherit" font-size="12" dy=".8em" y="110.69998664408922" x="774.5000153854489">byte,short,long,float,double,scaled_flota等</text></g></g><g id="minder_node24"><g id="node_expander21" style="cursor: pointer;" display="none"><path id="kity_path_261" fill="white" stroke="gray" d="M813.5000158771873,223.49998823553324A6,6,0,1,1,801.5000158771873,223.49998823553324A6,6,0,1,1,813.5000158771873,223.49998823553324"></path><path id="kity_path_262" fill="none" stroke="gray"></path></g><path id="node_outline22" fill="none" stroke="none" d="M818.5000161156058,185.49998823553324h701a5,5,0,0,1,5,5v66a5,5,0,0,1,-5,5h-701a5,5,0,0,1,-5,-5v-66a5,5,0,0,1,5,-5z" stroke-width="3"></path><g id="node_text22" fill="black"><text id="kity_text_139" text-rendering="inherit" font-size="12" dy=".8em" y="188.69998820871115" x="823.5000161156058">- 核心配置</text><text id="kity_text_140" text-rendering="inherit" font-size="12" dy=".8em" y="206.69998820871115" x="823.5000161156058">1. doc_value&#xa0; 用于聚合,建议聚合用于低基数，或者高基数先过滤后聚合(默认开启)</text><text id="kity_text_141" text-rendering="inherit" font-size="12" dy=".8em" y="224.69998820871115" x="823.5000161156058">2. ignore_above 用于控制keyword 长度，防止过长(过长的唯一匹配没有意义，信息密度原理，一般长度越长，前缀一致的越少）</text><text id="kity_text_142" text-rendering="inherit" font-size="12" dy=".8em" y="242.69998820871115" x="823.5000161156058">3. norms 默认关闭，评分不需要考虑长度，可以关闭</text></g></g><g id="minder_node25"><g id="node_expander22" style="cursor: pointer;" display="none"><path id="kity_path_264" fill="white" stroke="gray" d="M813.5000158771873,302.499989412725A6,6,0,1,1,801.5000158771873,302.499989412725A6,6,0,1,1,813.5000158771873,302.499989412725"></path><path id="kity_path_265" fill="none" stroke="gray"></path></g><path id="node_outline23" fill="none" stroke="none" d="M818.5000161156058,291.499989412725h239a5,5,0,0,1,5,5v12a5,5,0,0,1,-5,5h-239a5,5,0,0,1,-5,-5v-12a5,5,0,0,1,5,-5z" stroke-width="3"></path><g id="node_text23" fill="black"><text id="kity_text_144" text-rendering="inherit" font-size="12" dy=".8em" y="294.6999893859029" x="823.5000161156058">keyword（用于聚合，唯一精确查找场合）</text></g></g><g id="minder_node26"><g id="node_expander23" style="cursor: pointer;" display="none"><path id="kity_path_267" fill="white" stroke="gray" d="M813.5000158771873,354.49999018758535A6,6,0,1,1,801.5000158771873,354.49999018758535A6,6,0,1,1,813.5000158771873,354.49999018758535"></path><path id="kity_path_268" fill="none" stroke="gray"></path></g><path id="node_outline24" fill="none" stroke="none" d="M818.5000161156058,343.49999018758535h258a5,5,0,0,1,5,5v12a5,5,0,0,1,-5,5h-258a5,5,0,0,1,-5,-5v-12a5,5,0,0,1,5,-5z" stroke-width="3"></path><g id="node_text24" fill="black"><text id="kity_text_146" text-rendering="inherit" font-size="12" dy=".8em" y="346.69999016076326" x="823.5000161156058">constant_keyword（所有keyword类型一致）</text></g></g><g id="minder_node27"><g id="node_expander24" style="cursor: pointer;" display="none"><path id="kity_path_270" fill="white" stroke="gray" d="M813.5000158771873,406.49999096244574A6,6,0,1,1,801.5000158771873,406.49999096244574A6,6,0,1,1,813.5000158771873,406.49999096244574"></path><path id="kity_path_271" fill="none" stroke="gray"></path></g><path id="node_outline25" fill="none" stroke="none" d="M818.5000161156058,395.49999096244574h987a5,5,0,0,1,5,5v12a5,5,0,0,1,-5,5h-987a5,5,0,0,1,-5,-5v-12a5,5,0,0,1,5,-5z" stroke-width="3"></path><g id="node_text25" fill="black"><text id="kity_text_148" text-rendering="inherit" font-size="12" dy=".8em" y="398.69999093562365" x="823.5000161156058">wildcard( 用于代码，安全审计领域，利用所有字符串的每隔3个字符的ngram缩小正则匹配的代价 ，等非正常组织文本，高频出现高基数特殊优化的字段如：NoSuchFile *such* 查询 )</text></g></g><g id="minder_node23" opacity="1"><g id="node_expander25" style="cursor: pointer;"><path id="kity_path_273" fill="white" stroke="gray" d="M704.5000142529607,301.4999893978238A6,6,0,1,1,692.5000142529607,301.4999893978238A6,6,0,1,1,704.5000142529607,301.4999893978238"></path><path id="kity_path_274" fill="none" stroke="gray" d="M694.0000142529607,301.4999893978238L703.0000142529607,301.4999893978238"></path></g><path id="node_outline26" fill="none" stroke="none" d="M709.5000144913793,290.4999893978238h59a5,5,0,0,1,5,5v12a5,5,0,0,1,-5,5h-59a5,5,0,0,1,-5,-5v-12a5,5,0,0,1,5,-5z" stroke-width="3"></path><g id="node_text26" fill="black"><text id="kity_text_150" text-rendering="inherit" font-size="12" dy=".8em" y="293.6999893710017" x="714.5000144913793">keyword</text></g></g><g id="minder_node29" opacity="1"><g id="node_expander26" style="cursor: pointer;" display="none"><path id="kity_path_276" fill="white" stroke="gray" d="M786.5000154748559,530.4999928101897A6,6,0,1,1,774.5000154748559,530.4999928101897A6,6,0,1,1,786.5000154748559,530.4999928101897"></path><path id="kity_path_277" fill="none" stroke="gray"></path></g><path id="node_outline27" fill="none" stroke="none" d="M791.5000157132745,447.4999928101897h743a5,5,0,0,1,5,5v156a5,5,0,0,1,-5,5h-743a5,5,0,0,1,-5,-5v-156a5,5,0,0,1,5,-5z" stroke-width="3"></path><g id="node_text27" fill="black"><text id="kity_text_152" text-rendering="inherit" font-size="12" dy=".8em" y="450.69999278336763" x="796.5000157132745">- 核心配置</text><text id="kity_text_153" text-rendering="inherit" font-size="12" dy=".8em" y="468.69999278336763" x="796.5000157132745">1. analyzer(分词器)</text><text id="kity_text_154" text-rendering="inherit" font-size="12" dy=".8em" y="486.69999278336763" x="796.5000157132745">2. fielddata (开启后能过统计热词，但是需要占用大量内存)</text><text id="kity_text_155" text-rendering="inherit" font-size="12" dy=".8em" y="504.69999278336763" x="796.5000157132745">3. fieldata_frequency_filter 过滤掉特定词组 ，防止fielddata 内存占用过多</text><text id="kity_text_156" text-rendering="inherit" font-size="12" dy=".8em" y="522.6999927833676" x="796.5000157132745">4. index 是否需要索引，默认 true</text><text id="kity_text_157" text-rendering="inherit" font-size="12" dy=".8em" y="540.6999927833676" x="796.5000157132745">5. index_prefixes 提高 wildcard regex 前缀匹配效率</text><text id="kity_text_158" text-rendering="inherit" font-size="12" dy=".8em" y="558.6999927833676" x="796.5000157132745">6. norms 是否记录长度，用于影响打分，默认开启，日志等只命中不需要打分场合可以关闭</text><text id="kity_text_159" text-rendering="inherit" font-size="12" dy=".8em" y="576.6999927833676" x="796.5000157132745">7. index_option&#xa0; 默认是 positions 等级，假如日志，或者不需要高亮，可以是 docs(只命中性能最好) ；freqs 等级，减少存储提高性能。</text><text id="kity_text_160" text-rendering="inherit" font-size="12" dy=".8em" y="594.6999927833676" x="796.5000157132745">8.&#xa0;term_vector&#xa0; 用于统计单个文档，和单个分片的 tfidf 信息</text></g></g><g id="minder_node30"><g id="node_expander27" style="cursor: pointer;" display="none"><path id="kity_path_279" fill="white" stroke="gray" d="M786.5000154748559,654.4999946579337A6,6,0,1,1,774.5000154748559,654.4999946579337A6,6,0,1,1,786.5000154748559,654.4999946579337"></path><path id="kity_path_280" fill="none" stroke="gray"></path></g><path id="node_outline28" fill="none" stroke="none" d="M791.5000157132745,643.4999946579337h132a5,5,0,0,1,5,5v12a5,5,0,0,1,-5,5h-132a5,5,0,0,1,-5,-5v-12a5,5,0,0,1,5,-5z" stroke-width="3"></path><g id="node_text28" fill="black"><text id="kity_text_162" text-rendering="inherit" font-size="12" dy=".8em" y="646.6999946311116" x="796.5000157132745">text 用于普通文本搜索</text></g></g><g id="minder_node31"><g id="node_expander28" style="cursor: pointer;" display="none"><path id="kity_path_282" fill="white" stroke="gray" d="M786.5000154748559,715.4999955669045A6,6,0,1,1,774.5000154748559,715.4999955669045A6,6,0,1,1,786.5000154748559,715.4999955669045"></path><path id="kity_path_283" fill="none" stroke="gray"></path></g><path id="node_outline29" fill="none" stroke="none" d="M791.5000157132745,695.4999955669045h757a5,5,0,0,1,5,5v30a5,5,0,0,1,-5,5h-757a5,5,0,0,1,-5,-5v-30a5,5,0,0,1,5,-5z" stroke-width="3"></path><g id="node_text29" fill="black"><text id="kity_text_164" text-rendering="inherit" font-size="12" dy=".8em" y="698.6999955400825" x="796.5000157132745">match_only_text&#xa0;= norms=false and index_option = docs; 但是与 text 相比这个不支持自定义分词器，不如手动更改text 配置为前两项；</text><text id="kity_text_165" text-rendering="inherit" font-size="12" dy=".8em" y="716.6999955400825" x="796.5000157132745">注意！！！index__option(词距离查询) 会导致 span query 不可用，需要用interval query 替代。</text></g></g><g id="minder_node32" opacity="1"><g id="node_expander31" style="cursor: pointer;" display="none"><path id="kity_path_312" fill="white" stroke="gray" d="M786.5000154748559,785.4999966099858A6,6,0,1,1,774.5000154748559,785.4999966099858A6,6,0,1,1,786.5000154748559,785.4999966099858"></path><path id="kity_path_313" fill="none" stroke="gray"></path></g><path id="node_outline32" fill="none" stroke="none" d="M791.5000157132745,765.4999966099858h539a5,5,0,0,1,5,5v30a5,5,0,0,1,-5,5h-539a5,5,0,0,1,-5,-5v-30a5,5,0,0,1,5,-5z" stroke-width="3"></path><g id="node_text32" fill="black"><text id="kity_text_309" text-rendering="inherit" font-size="12" dy=".8em" y="768.6999965831637" x="796.5000157132745">- 原则</text><text id="kity_text_314" text-rendering="inherit" font-size="12" dy=".8em" y="786.6999965831637" x="796.5000157132745">1. 分词召回越多，时间跨度越大，性能越差。应该避免区分低，无意义查询。搜索要注意时间范围。</text></g></g><g id="minder_node28"><g id="node_expander29" style="cursor: pointer;"><path id="kity_path_285" fill="white" stroke="gray" d="M704.5000142529607,626.4999942407012A6,6,0,1,1,692.5000142529607,626.4999942407012A6,6,0,1,1,704.5000142529607,626.4999942407012"></path><path id="kity_path_286" fill="none" stroke="gray" d="M694.0000142529607,626.4999942407012L703.0000142529607,626.4999942407012"></path></g><path id="node_outline30" fill="none" stroke="none" d="M709.5000144913793,615.4999942407012h32a5,5,0,0,1,5,5v12a5,5,0,0,1,-5,5h-32a5,5,0,0,1,-5,-5v-12a5,5,0,0,1,5,-5z" stroke-width="3"></path><g id="node_text30" fill="black"><text id="kity_text_167" text-rendering="inherit" font-size="12" dy=".8em" y="618.6999942138791" x="714.5000144913793">text</text></g></g></g></g></svg>