<svg id="kity_svg_6" xmlns="http://www.w3.org/2000/svg" xmlns:xlink="http://www.w3.org/1999/xlink" version="1.1" width="2131" height="532" style="background: rgb(251, 251, 251); visibility: visible;" viewBox="0 0 2131 532"><defs id="kity_defs_7"><linearGradient id="kity_linearGradient_17" x1="0" y1="0" x2="0" y2="1"><stop id="kity_stop_18" offset="0" stop-color="rgb(255, 255, 255)"></stop><stop id="kity_stop_19" offset="1" stop-color="rgb(204, 204, 204)"></stop></linearGradient><marker id="kity_marker_2" orient="auto" refX="6" refY="0" viewBox="-7 -7 14 14" markerWidth="7" markerHeight="7" markerUnits="userSpaceOnUse"><path id="kity_path_3" fill="rgb(115, 161, 191)" stroke="none" d="M6,0A6,6,0,1,1,-6,0A6,6,0,1,1,6,0"></path></marker></defs><g id="kity_g_8"><g id="minder1" text-rendering="optimize-speed"><g id="minder_connect_group1"><path id="kity_path_31" fill="none" stroke="rgb(115, 161, 191)" stroke-width="1" d="M1096.0000114366412,338.50000428408384A263.5,238,0,0,1,1359.5000114366412,100.50000428408384"></path><path id="kity_path_33" fill="none" stroke="rgb(115, 161, 191)" stroke-width="1" d="M1457.5000114366412,100.50000428408384C1472.5000114366412,100.50000428408384,1472.5000114366412,44.50000428408384,1487.5000114366412,44.50000428408384L1593.5000114366412,44.50000428408384"></path><path id="kity_path_35" fill="none" stroke="rgb(115, 161, 191)" stroke-width="1" d="M1457.5000114366412,100.50000428408384C1474.0000114366412,100.50000428408384,1474.0000114366412,94.50000428408384,1490.5000114366412,94.50000428408384L1633.5000114366412,94.50000428408384"></path><path id="kity_path_37" fill="none" stroke="rgb(115, 161, 191)" stroke-width="1" d="M1457.5000114366412,100.50000428408384C1489.5000114366412,100.50000428408384,1489.5000114366412,141.50000428408384,1521.5000114366412,141.50000428408384L1600.5000114366412,141.50000428408384"></path><path id="kity_path_39" fill="none" stroke="rgb(115, 161, 191)" stroke-width="1" d="M1600.5000114366412,141.50000428408384C1640.5000114366412,141.50000428408384,1640.5000114366412,162.50000428408384,1680.5000114366412,162.50000428408384L1984.5000114366412,162.50000428408384"></path><path id="kity_path_41" fill="none" stroke="rgb(115, 161, 191)" stroke-width="1" d="M1096.0000114366412,338.50000428408384A261.5,31,0,0,0,1357.5000114366412,369.50000428408384"></path><path id="kity_path_43" fill="none" stroke="rgb(115, 161, 191)" stroke-width="1" d="M1461.5000114366412,369.50000428408384C1476.5000114366412,369.50000428408384,1476.5000114366412,375.50000428408384,1491.5000114366412,375.50000428408384L2110.500011436641,375.50000428408384"></path><path id="kity_path_45" fill="none" stroke="rgb(115, 161, 191)" stroke-width="1" d="M1461.5000114366412,369.50000428408384C1476.5000114366412,369.50000428408384,1476.5000114366412,427.50000428408384,1491.5000114366412,427.50000428408384L1763.5000114366412,427.50000428408384"></path><path id="kity_path_47" fill="none" stroke="rgb(115, 161, 191)" stroke-width="1" d="M1096.0000114366412,338.50000428408384A236.5,160,0,0,0,1332.5000114366412,498.50000428408384"></path><path id="kity_path_49" fill="none" stroke="rgb(115, 161, 191)" stroke-width="1" d="M1096.0000114366412,338.50000428408384A236.5,146,0,0,0,859.5000114366412,192.50000428408384"></path><path id="kity_path_51" fill="none" stroke="rgb(115, 161, 191)" stroke-width="1" d="M789.5000114366412,192.50000428408384C774.5000114366412,192.50000428408384,774.5000114366412,180.50000428408384,759.5000114366412,180.50000428408384L696.5000114366412,180.50000428408384"></path><path id="kity_path_53" fill="none" stroke="rgb(115, 161, 191)" stroke-width="1" d="M789.5000114366412,192.50000428408384C774.5000114366412,192.50000428408384,774.5000114366412,232.50000428408384,759.5000114366412,232.50000428408384L718.5000114366412,232.50000428408384"></path><path id="kity_path_55" fill="none" stroke="rgb(115, 161, 191)" stroke-width="1" d="M1096.0000114366412,338.50000428408384A236.5,17,0,0,1,859.5000114366412,355.50000428408384"></path><path id="kity_path_57" fill="none" stroke="rgb(115, 161, 191)" stroke-width="1" d="M762.5000114366412,355.50000428408384C747.5000114366412,355.50000428408384,747.5000114366412,304.50000428408384,732.5000114366412,304.50000428408384L608.5000114366412,304.50000428408384"></path><path id="kity_path_59" fill="none" stroke="rgb(115, 161, 191)" stroke-width="1" d="M608.5000114366412,304.50000428408384C593.5000114366412,304.50000428408384,593.5000114366412,313.50000428408384,578.5000114366412,313.50000428408384L19.500011436641216,313.50000428408384"></path><path id="kity_path_61" fill="none" stroke="rgb(115, 161, 191)" stroke-width="1" d="M762.5000114366412,355.50000428408384C747.5000114366412,355.50000428408384,747.5000114366412,374.50000428408384,732.5000114366412,374.50000428408384L565.5000114366412,374.50000428408384"></path><path id="kity_path_63" fill="none" stroke="rgb(115, 161, 191)" stroke-width="1" d="M565.5000114366412,374.50000428408384C550.5000114366412,374.50000428408384,550.5000114366412,383.50000428408384,535.5000114366412,383.50000428408384L252.50001143664122,383.50000428408384"></path><path id="kity_path_65" fill="none" stroke="rgb(115, 161, 191)" stroke-width="1" d="M762.5000114366412,355.50000428408384C747.5000114366412,355.50000428408384,747.5000114366412,435.50000428408384,732.5000114366412,435.50000428408384L67.50001143664122,435.50000428408384"></path><path id="kity_path_67" fill="none" stroke="rgb(115, 161, 191)" stroke-width="1" d="M1096.0000114366412,338.50000428408384A236.5,146,0,0,1,859.5000114366412,484.50000428408384"></path><path id="kity_path_69" fill="none" stroke="rgb(115, 161, 191)" stroke-width="1" d="M751.5000114366412,484.50000428408384C736.5000114366412,484.50000428408384,736.5000114366412,498.50000428408384,721.5000114366412,498.50000428408384L177.50001143664122,498.50000428408384"></path></g><g id="minder_node1"><path id="node_outline1" fill="rgb(115, 161, 191)" stroke="rgb(57, 80, 96)" d="M982.5000114366412,318.50000428408384h227a5,5,0,0,1,5,5v30a5,5,0,0,1,-5,5h-227a5,5,0,0,1,-5,-5v-30a5,5,0,0,1,5,-5z" stroke-width="3"></path><g id="node_text1" fill="white"><text id="kity_text_22" text-rendering="inherit" font-size="16" dy=".8em" y="328.10000424832106" x="1001.5000114366412">数据类型(Field data type)</text></g></g><g id="kity_g_12"><path id="kity_path_13" fill="none" stroke="none" d="M1001.5000114366412,338.50000428408384h0v0h0z"></path></g><g id="kity_g_14"><path id="kity_path_15" fill="none" stroke="none" d="M1001.5000114366412,338.50000428408384h0v0h0z"></path><path id="kity_path_16" fill="none" stroke="none"></path></g><g id="minder_node2"><g id="node_expander5" style="cursor: pointer;"><path id="kity_path_151" fill="white" stroke="gray" d="M1360.5000166967511,100.50000073760748A6,6,0,1,1,1348.5000166967511,100.50000073760748A6,6,0,1,1,1360.5000166967511,100.50000073760748"></path><path id="kity_path_152" fill="none" stroke="gray" d="M1350.0000166967511,100.50000073760748L1359.0000166967511,100.50000073760748"></path></g><path id="node_outline6" fill="rgb(238, 243, 246)" stroke="rgb(115, 161, 191)" d="M1364.5000170990825,87.50000073760748h90a3,3,0,0,1,3,3v20a3,3,0,0,1,-3,3h-90a3,3,0,0,1,-3,-3v-20a3,3,0,0,1,3,-3z" stroke-width="1"></path><g id="node_text6" fill="black"><text id="kity_text_83" text-rendering="inherit" font-size="14" dy=".8em" y="91.40000070631504" x="1381.5000170990825">常见类型</text></g></g><g id="minder_node3"><g id="node_expander1" display="none" style="cursor: pointer;"><path id="kity_path_139" fill="white" stroke="gray" d="M1497.5000187382102,30.499999694526196A6,6,0,1,1,1485.5000187382102,30.499999694526196A6,6,0,1,1,1497.5000187382102,30.499999694526196"></path><path id="kity_path_140" fill="none" stroke="gray"></path></g><path id="node_outline2" fill="none" stroke="none" d="M1502.5000189766288,19.499999694526196h86a5,5,0,0,1,5,5v12a5,5,0,0,1,-5,5h-86a5,5,0,0,1,-5,-5v-12a5,5,0,0,1,5,-5z"></path><g id="node_text2" fill="black"><text id="kity_text_71" text-rendering="inherit" font-size="12" dy=".8em" y="22.699999667704105" x="1507.5000189766288">binary 二进制</text></g></g><g id="minder_node4"><g id="node_expander2" display="none" style="cursor: pointer;"><path id="kity_path_142" fill="white" stroke="gray" d="M1500.5000187829137,80.50000043958426A6,6,0,1,1,1488.5000187829137,80.50000043958426A6,6,0,1,1,1500.5000187829137,80.50000043958426"></path><path id="kity_path_143" fill="none" stroke="gray"></path></g><path id="node_outline3" fill="none" stroke="none" d="M1505.5000190213323,69.50000043958426h123a5,5,0,0,1,5,5v12a5,5,0,0,1,-5,5h-123a5,5,0,0,1,-5,-5v-12a5,5,0,0,1,5,-5z"></path><g id="node_text3" fill="black"><text id="kity_text_73" text-rendering="inherit" font-size="12" dy=".8em" y="72.70000041276217" x="1510.5000190213323">boolean (true/false)</text></g></g><g id="minder_node5"><g id="node_expander4" style="cursor: pointer;"><path id="kity_path_148" fill="white" stroke="gray" d="M1531.5000192448497,127.50000113993883A6,6,0,1,1,1519.5000192448497,127.50000113993883A6,6,0,1,1,1531.5000192448497,127.50000113993883"></path><path id="kity_path_149" fill="none" stroke="gray" d="M1521.0000192448497,127.50000113993883L1530.0000192448497,127.50000113993883"></path></g><path id="node_outline5" fill="none" stroke="none" d="M1536.5000194832683,116.50000113993883h59a5,5,0,0,1,5,5v12a5,5,0,0,1,-5,5h-59a5,5,0,0,1,-5,-5v-12a5,5,0,0,1,5,-5z"></path><g id="node_text5" fill="black"><text id="kity_text_81" text-rendering="inherit" font-size="12" dy=".8em" y="119.70000111311674" x="1541.5000194832683">keyword</text></g></g><g id="minder_node6"><g id="node_expander3" display="none" style="cursor: pointer;"><path id="kity_path_145" fill="white" stroke="gray" d="M1690.5000216141343,112.50000091642141A6,6,0,1,1,1678.5000216141343,112.50000091642141A6,6,0,1,1,1690.5000216141343,112.50000091642141"></path><path id="kity_path_146" fill="none" stroke="gray"></path></g><path id="node_outline4" fill="none" stroke="none" d="M1695.500021852553,65.50000091642141h284a5,5,0,0,1,5,5v84a5,5,0,0,1,-5,5h-284a5,5,0,0,1,-5,-5v-84a5,5,0,0,1,5,-5z"></path><g id="node_text4" fill="black"><text id="kity_text_75" text-rendering="inherit" font-size="12" dy=".8em" y="68.70000088959932" x="1700.500021852553">- 注意</text><text id="kity_text_76" text-rendering="inherit" font-size="12" dy=".8em" y="86.70000088959932" x="1700.500021852553">1. 高基数不推荐开启doc_value，高基数必须过滤。</text><text id="kity_text_77" text-rendering="inherit" font-size="12" dy=".8em" y="104.70000088959932" x="1700.500021852553">2. 文本字段建议开启ignore_above，减少压力。</text><text id="kity_text_78" text-rendering="inherit" font-size="12" dy=".8em" y="122.70000088959932" x="1700.500021852553">3. text的聚合只统计数字可以利用murmur3</text><text id="kity_text_79" text-rendering="inherit" font-size="12" dy=".8em" y="140.70000088959932" x="1700.500021852553">&#xa0;来做，而不是text来做。</text></g></g><g id="minder_node7"><g id="node_expander8" style="cursor: pointer;"><path id="kity_path_160" fill="white" stroke="gray" d="M1358.5000166669488,369.50000474601984A6,6,0,1,1,1346.5000166669488,369.50000474601984A6,6,0,1,1,1358.5000166669488,369.50000474601984"></path><path id="kity_path_161" fill="none" stroke="gray" d="M1348.0000166669488,369.50000474601984L1357.0000166669488,369.50000474601984"></path></g><path id="node_outline9" fill="rgb(238, 243, 246)" stroke="rgb(115, 161, 191)" d="M1362.5000170692801,356.50000474601984h96a3,3,0,0,1,3,3v20a3,3,0,0,1,-3,3h-96a3,3,0,0,1,-3,-3v-20a3,3,0,0,1,3,-3z" stroke-width="1"></path><g id="node_text9" fill="black"><text id="kity_text_91" text-rendering="inherit" font-size="14" dy=".8em" y="360.4000047147274" x="1379.5000170692801">Numbers</text></g></g><g id="minder_node8"><g id="node_expander6" display="none" style="cursor: pointer;"><path id="kity_path_154" fill="white" stroke="gray" d="M1501.5000187978148,343.50000435858965A6,6,0,1,1,1489.5000187978148,343.50000435858965A6,6,0,1,1,1501.5000187978148,343.50000435858965"></path><path id="kity_path_155" fill="none" stroke="gray"></path></g><path id="node_outline7" fill="none" stroke="none" d="M1506.5000190362334,314.50000435858965h599a5,5,0,0,1,5,5v48a5,5,0,0,1,-5,5h-599a5,5,0,0,1,-5,-5v-48a5,5,0,0,1,5,-5z"></path><g id="node_text7" fill="black"><text id="kity_text_85" text-rendering="inherit" font-size="12" dy=".8em" y="317.70000433176756" x="1511.5000190362334">- 注意</text><text id="kity_text_86" text-rendering="inherit" font-size="12" dy=".8em" y="335.70000433176756" x="1511.5000190362334">1. Es 支持bigdecimal 插入，但是不保证精度。es推荐浮点数使用scaled_float保存，底层基于long 性能更好。</text><text id="kity_text_87" text-rendering="inherit" font-size="12" dy=".8em" y="353.70000433176756" x="1511.5000190362334">2. Number 一般用于范围搜索，假如需要精准命中keywrod 更快。</text></g></g><g id="minder_node9"><g id="node_expander7" display="none" style="cursor: pointer;"><path id="kity_path_157" fill="white" stroke="gray" d="M1501.5000187978148,413.50000540167093A6,6,0,1,1,1489.5000187978148,413.50000540167093A6,6,0,1,1,1501.5000187978148,413.50000540167093"></path><path id="kity_path_158" fill="none" stroke="gray"></path></g><path id="node_outline8" fill="none" stroke="none" d="M1506.5000190362334,402.50000540167093h252a5,5,0,0,1,5,5v12a5,5,0,0,1,-5,5h-252a5,5,0,0,1,-5,-5v-12a5,5,0,0,1,5,-5z"></path><g id="node_text8" fill="black"><text id="kity_text_89" text-rendering="inherit" font-size="12" dy=".8em" y="405.70000537484884" x="1511.5000190362334">byte,short,long,float,double,scaled_flota等</text></g></g><g id="minder_node10"><g id="node_expander9" display="none" style="cursor: pointer;"><path id="kity_path_163" fill="white" stroke="gray" d="M1333.5000162944198,498.50000666826963A6,6,0,1,1,1321.5000162944198,498.50000666826963A6,6,0,1,1,1333.5000162944198,498.50000666826963"></path><path id="kity_path_164" fill="none" stroke="gray"></path></g><path id="node_outline10" fill="rgb(238, 243, 246)" stroke="rgb(115, 161, 191)" d="M1337.5000166967511,485.50000666826963h176a3,3,0,0,1,3,3v20a3,3,0,0,1,-3,3h-176a3,3,0,0,1,-3,-3v-20a3,3,0,0,1,3,-3z" stroke-width="1"></path><g id="node_text10" fill="black"><text id="kity_text_93" text-rendering="inherit" font-size="14" dy=".8em" y="489.4000066369772" x="1354.5000166967511">Agg type(预聚合类型)</text></g></g><g id="minder_node11"><g id="node_expander12" style="cursor: pointer;"><path id="kity_path_172" fill="white" stroke="gray" d="M870.5000093951821,192.5000021085143A6,6,0,1,1,858.5000093951821,192.5000021085143A6,6,0,1,1,870.5000093951821,192.5000021085143"></path><path id="kity_path_173" fill="none" stroke="gray" d="M860.0000093951821,192.5000021085143L869.0000093951821,192.5000021085143"></path></g><path id="node_outline13" fill="rgb(238, 243, 246)" stroke="rgb(115, 161, 191)" d="M792.5000085756183,179.5000021085143h62a3,3,0,0,1,3,3v20a3,3,0,0,1,-3,3h-62a3,3,0,0,1,-3,-3v-20a3,3,0,0,1,3,-3z" stroke-width="1"></path><g id="node_text13" fill="black"><text id="kity_text_99" text-rendering="inherit" font-size="14" dy=".8em" y="183.40000207722187" x="809.5000085756183">时空</text></g></g><g id="minder_node12"><g id="node_expander10" display="none" style="cursor: pointer;"><path id="kity_path_166" fill="white" stroke="gray" d="M761.5000077709556,166.50000172108412A6,6,0,1,1,749.5000077709556,166.50000172108412A6,6,0,1,1,761.5000077709556,166.50000172108412"></path><path id="kity_path_167" fill="none" stroke="gray"></path></g><path id="node_outline11" fill="none" stroke="none" d="M701.5000070407987,155.50000172108412h43a5,5,0,0,1,5,5v12a5,5,0,0,1,-5,5h-43a5,5,0,0,1,-5,-5v-12a5,5,0,0,1,5,-5z"></path><g id="node_text11" fill="black"><text id="kity_text_95" text-rendering="inherit" font-size="12" dy=".8em" y="158.70000169426203" x="706.5000070407987">geoip</text></g></g><g id="minder_node13"><g id="node_expander11" display="none" style="cursor: pointer;"><path id="kity_path_169" fill="white" stroke="gray" d="M761.5000077709556,218.5000024959445A6,6,0,1,1,749.5000077709556,218.5000024959445A6,6,0,1,1,761.5000077709556,218.5000024959445"></path><path id="kity_path_170" fill="none" stroke="gray"></path></g><path id="node_outline12" fill="none" stroke="none" d="M723.5000073686242,207.5000024959445h21a5,5,0,0,1,5,5v12a5,5,0,0,1,-5,5h-21a5,5,0,0,1,-5,-5v-12a5,5,0,0,1,5,-5z"></path><g id="node_text12" fill="black"><text id="kity_text_97" text-rendering="inherit" font-size="12" dy=".8em" y="210.7000024691224" x="728.5000073686242">ip</text></g></g><g id="minder_node14"><g id="node_expander18" style="cursor: pointer;"><path id="kity_path_190" fill="white" stroke="gray" d="M870.5000093951821,355.5000045374036A6,6,0,1,1,858.5000093951821,355.5000045374036A6,6,0,1,1,870.5000093951821,355.5000045374036"></path><path id="kity_path_191" fill="none" stroke="gray" d="M860.0000093951821,355.5000045374036L869.0000093951821,355.5000045374036"></path></g><path id="node_outline19" fill="rgb(238, 243, 246)" stroke="rgb(115, 161, 191)" d="M765.5000081732869,342.5000045374036h89a3,3,0,0,1,3,3v20a3,3,0,0,1,-3,3h-89a3,3,0,0,1,-3,-3v-20a3,3,0,0,1,3,-3z" stroke-width="1"></path><g id="node_text19" fill="black"><text id="kity_text_113" text-rendering="inherit" font-size="14" dy=".8em" y="346.40000450611115" x="782.5000081732869">Text类型</text></g></g><g id="minder_node15"><g id="node_expander14" style="cursor: pointer;"><path id="kity_path_178" fill="white" stroke="gray" d="M734.5000073686242,290.5000035688281A6,6,0,1,1,722.5000073686242,290.5000035688281A6,6,0,1,1,734.5000073686242,290.5000035688281"></path><path id="kity_path_179" fill="none" stroke="gray" d="M724.0000073686242,290.5000035688281L733.0000073686242,290.5000035688281"></path></g><path id="node_outline15" fill="none" stroke="none" d="M613.5000057294965,279.5000035688281h104a5,5,0,0,1,5,5v12a5,5,0,0,1,-5,5h-104a5,5,0,0,1,-5,-5v-12a5,5,0,0,1,5,-5z"></path><g id="node_text15" fill="black"><text id="kity_text_104" text-rendering="inherit" font-size="12" dy=".8em" y="282.700003542006" x="618.5000057294965">text（分词搜索）</text></g></g><g id="minder_node16"><g id="node_expander13" display="none" style="cursor: pointer;"><path id="kity_path_175" fill="white" stroke="gray" d="M580.5000050738454,290.5000035688281A6,6,0,1,1,568.5000050738454,290.5000035688281A6,6,0,1,1,580.5000050738454,290.5000035688281"></path><path id="kity_path_176" fill="none" stroke="gray"></path></g><path id="node_outline14" fill="none" stroke="none" d="M24.499996952712536,270.5000035688281h539a5,5,0,0,1,5,5v30a5,5,0,0,1,-5,5h-539a5,5,0,0,1,-5,-5v-30a5,5,0,0,1,5,-5z"></path><g id="node_text14" fill="black"><text id="kity_text_101" text-rendering="inherit" font-size="12" dy=".8em" y="273.700003542006" x="29.499996952712536">- 注意</text><text id="kity_text_102" text-rendering="inherit" font-size="12" dy=".8em" y="291.700003542006" x="29.499996952712536">1. 分词召回越多，时间跨度越大，性能越差。应该避免区分低，无意义查询。搜索要注意时间范围。</text></g></g><g id="minder_node17"><g id="node_expander16" style="cursor: pointer;"><path id="kity_path_184" fill="white" stroke="gray" d="M734.5000073686242,360.5000046119094A6,6,0,1,1,722.5000073686242,360.5000046119094A6,6,0,1,1,734.5000073686242,360.5000046119094"></path><path id="kity_path_185" fill="none" stroke="gray" d="M724.0000073686242,360.5000046119094L733.0000073686242,360.5000046119094"></path></g><path id="node_outline17" fill="none" stroke="none" d="M570.5000050887465,349.5000046119094h147a5,5,0,0,1,5,5v12a5,5,0,0,1,-5,5h-147a5,5,0,0,1,-5,-5v-12a5,5,0,0,1,5,-5z"></path><g id="node_text17" fill="black"><text id="kity_text_109" text-rendering="inherit" font-size="12" dy=".8em" y="352.7000045850873" x="575.5000050887465">completion（输入提示）</text></g></g><g id="minder_node18"><g id="node_expander15" display="none" style="cursor: pointer;"><path id="kity_path_181" fill="white" stroke="gray" d="M537.5000044330955,360.5000046119094A6,6,0,1,1,525.5000044330955,360.5000046119094A6,6,0,1,1,537.5000044330955,360.5000046119094"></path><path id="kity_path_182" fill="none" stroke="gray"></path></g><path id="node_outline16" fill="none" stroke="none" d="M257.5000004246831,340.5000046119094h263a5,5,0,0,1,5,5v30a5,5,0,0,1,-5,5h-263a5,5,0,0,1,-5,-5v-30a5,5,0,0,1,5,-5z"></path><g id="node_text16" fill="black"><text id="kity_text_106" text-rendering="inherit" font-size="12" dy=".8em" y="343.7000045850873" x="262.5000004246831">- 注意</text><text id="kity_text_107" text-rendering="inherit" font-size="12" dy=".8em" y="361.7000045850873" x="262.5000004246831">1. 一般使用前缀搜索，新版支持中间命中搜索。</text></g></g><g id="minder_node19"><g id="node_expander17" display="none" style="cursor: pointer;"><path id="kity_path_187" fill="white" stroke="gray" d="M734.5000073686242,421.5000055208802A6,6,0,1,1,722.5000073686242,421.5000055208802A6,6,0,1,1,734.5000073686242,421.5000055208802"></path><path id="kity_path_188" fill="none" stroke="gray"></path></g><path id="node_outline18" fill="none" stroke="none" d="M72.49999766796827,410.5000055208802h645a5,5,0,0,1,5,5v12a5,5,0,0,1,-5,5h-645a5,5,0,0,1,-5,-5v-12a5,5,0,0,1,5,-5z"></path><g id="node_text18" fill="black"><text id="kity_text_111" text-rendering="inherit" font-size="12" dy=".8em" y="413.70000549405813" x="77.49999766796827">需要提供词信息需要开启&#xa0;fielddata&#xa0;,注意fielddata&#xa0;性能很差，必须通过fielddata_frequency_filter&#xa0;，确保内存不会溢出</text></g></g><g id="minder_node20"><g id="node_expander20" style="cursor: pointer;"><path id="kity_path_196" fill="white" stroke="gray" d="M870.5000093951821,484.5000064596534A6,6,0,1,1,858.5000093951821,484.5000064596534A6,6,0,1,1,870.5000093951821,484.5000064596534"></path><path id="kity_path_197" fill="none" stroke="gray" d="M860.0000093951821,484.5000064596534L869.0000093951821,484.5000064596534"></path></g><path id="node_outline21" fill="rgb(238, 243, 246)" stroke="rgb(115, 161, 191)" d="M754.5000080093741,471.5000064596534h100a3,3,0,0,1,3,3v20a3,3,0,0,1,-3,3h-100a3,3,0,0,1,-3,-3v-20a3,3,0,0,1,3,-3z" stroke-width="1"></path><g id="node_text21" fill="black"><text id="kity_text_117" text-rendering="inherit" font-size="14" dy=".8em" y="475.40000642836094" x="771.5000080093741">数组(特殊)</text></g></g><g id="minder_node21"><g id="node_expander19" display="none" style="cursor: pointer;"><path id="kity_path_193" fill="white" stroke="gray" d="M723.5000072047114,484.5000064596534A6,6,0,1,1,711.5000072047114,484.5000064596534A6,6,0,1,1,723.5000072047114,484.5000064596534"></path><path id="kity_path_194" fill="none" stroke="gray"></path></g><path id="node_outline20" fill="none" stroke="none" d="M182.499999307096,473.5000064596534h524a5,5,0,0,1,5,5v12a5,5,0,0,1,-5,5h-524a5,5,0,0,1,-5,-5v-12a5,5,0,0,1,5,-5z"></path><g id="node_text20" fill="black"><text id="kity_text_115" text-rendering="inherit" font-size="12" dy=".8em" y="476.7000064328313" x="187.499999307096">ES 中是不区分数组还是单个元素，比如：keyword 里面可以放单个字段，也可以放入同类型数组</text></g></g></g></g></svg>