<svg id="kity_svg_6" xmlns="http://www.w3.org/2000/svg" xmlns:xlink="http://www.w3.org/1999/xlink" version="1.1" width="1107" height="2339" style="background: rgb(251, 251, 251); visibility: visible;" viewBox="0 0 1107 2339"><defs id="kity_defs_7"><linearGradient id="kity_linearGradient_17" x1="0" y1="0" x2="0" y2="1"><stop id="kity_stop_18" offset="0" stop-color="rgb(255, 255, 255)"></stop><stop id="kity_stop_19" offset="1" stop-color="rgb(204, 204, 204)"></stop></linearGradient><marker id="kity_marker_2" orient="auto" refX="6" refY="0" viewBox="-7 -7 14 14" markerWidth="7" markerHeight="7" markerUnits="userSpaceOnUse"><path id="kity_path_3" fill="rgb(115, 161, 191)" stroke="none" d="M6,0A6,6,0,1,1,-6,0A6,6,0,1,1,6,0"></path></marker></defs><g id="kity_g_8"><g id="minder1" text-rendering="geometricPrecision"><g id="minder_connect_group1"><path id="kity_path_31" fill="none" stroke="rgb(115, 161, 191)" stroke-width="1" d="M76.99999707192183,1669.5000118538737A204.5,1561,0,0,1,281.4999970719218,108.50001185387373"></path><path id="kity_path_39" fill="none" stroke="rgb(115, 161, 191)" stroke-width="1" d="M76.99999707192183,1669.5000118538737A236.5,1118,0,0,1,313.4999970719218,551.5000118538737"></path><path id="kity_path_73" fill="none" stroke="rgb(115, 161, 191)" stroke-width="1" d="M76.99999707192183,1669.5000118538737A522.5,892,0,0,1,599.4999970719218,777.5000118538737"></path><path id="kity_path_81" fill="none" stroke="rgb(115, 161, 191)" stroke-width="1" d="M76.99999707192183,1669.5000118538737A251.5,1010,0,0,1,328.4999970719218,659.5000118538737"></path><path id="kity_path_129" fill="none" stroke="rgb(115, 161, 191)" stroke-width="1" d="M76.99999707192183,1669.5000118538737A660.5,193,0,0,1,737.4999970719218,1476.5000118538737"></path><path id="kity_path_145" fill="none" stroke="rgb(115, 161, 191)" stroke-width="1" d="M76.99999707192183,1669.5000118538737A202.5,299,0,0,1,279.4999970719218,1370.5000118538737"></path><path id="kity_path_251" fill="none" stroke="rgb(115, 161, 191)" stroke-width="1" d="M76.99999707192183,1669.5000118538737A347.5,626,0,0,1,424.4999970719218,1043.5000118538737"></path><path id="kity_path_280" fill="none" stroke="rgb(115, 161, 191)" stroke-width="1" d="M76.99999707192183,1669.5000118538737A206.5,1326,0,0,1,283.4999970719218,343.50001185387373"></path><path id="kity_path_356" fill="none" stroke="rgb(115, 161, 191)" stroke-width="1" d="M76.99999707192183,1669.5000118538737A174.5,91,0,0,0,251.49999707192183,1760.5000118538737"></path><path id="kity_path_524" fill="none" stroke="rgb(115, 161, 191)" stroke-width="1" d="M76.99999707192183,1669.5000118538737A357.5,108,0,0,1,434.4999970719218,1561.5000118538737"></path><path id="kity_path_532" fill="none" stroke="rgb(115, 161, 191)" stroke-width="1" d="M76.99999707192183,1669.5000118538737A282.5,317,0,0,0,359.4999970719218,1986.5000118538737"></path><path id="kity_path_733" fill="none" stroke="rgb(115, 161, 191)" stroke-width="1" d="M76.99999707192183,1669.5000118538737A221.5,583,0,0,0,298.4999970719218,2252.5000118538737"></path><path id="kity_path_789" fill="none" stroke="rgb(115, 161, 191)" stroke-width="1" d="M444.4999970719218,1370.5000118538737C459.4999970719218,1370.5000118538737,459.4999970719218,1306.5000118538737,474.4999970719218,1306.5000118538737L552.4999970719218,1306.5000118538737"></path><path id="kity_path_790" fill="none" stroke="rgb(115, 161, 191)" stroke-width="1" d="M444.4999970719218,1370.5000118538737C459.4999970719218,1370.5000118538737,459.4999970719218,1358.5000118538737,474.4999970719218,1358.5000118538737L540.4999970719218,1358.5000118538737"></path><path id="kity_path_791" fill="none" stroke="rgb(115, 161, 191)" stroke-width="1" d="M444.4999970719218,1370.5000118538737C459.4999970719218,1370.5000118538737,459.4999970719218,1410.5000118538737,474.4999970719218,1410.5000118538737L541.4999970719218,1410.5000118538737"></path><path id="kity_path_792" fill="none" stroke="rgb(115, 161, 191)" stroke-width="1" d="M444.4999970719218,1370.5000118538737C459.4999970719218,1370.5000118538737,459.4999970719218,1462.5000118538737,474.4999970719218,1462.5000118538737L541.4999970719218,1462.5000118538737"></path><path id="kity_path_822" fill="none" stroke="rgb(115, 161, 191)" stroke-width="1" d="M837.4999970719218,1476.5000118538737C852.4999970719218,1476.5000118538737,852.4999970719218,1412.5000118538737,867.4999970719218,1412.5000118538737L1005.4999970719218,1412.5000118538737"></path><path id="kity_path_823" fill="none" stroke="rgb(115, 161, 191)" stroke-width="1" d="M837.4999970719218,1476.5000118538737C852.4999970719218,1476.5000118538737,852.4999970719218,1464.5000118538737,867.4999970719218,1464.5000118538737L1005.4999970719218,1464.5000118538737"></path><path id="kity_path_825" fill="none" stroke="rgb(115, 161, 191)" stroke-width="1" d="M837.4999970719218,1476.5000118538737C852.4999970719218,1476.5000118538737,852.4999970719218,1516.5000118538737,867.4999970719218,1516.5000118538737L1087.4999970719218,1516.5000118538737"></path><path id="kity_path_833" fill="none" stroke="rgb(115, 161, 191)" stroke-width="1" d="M837.4999970719218,1476.5000118538737C852.4999970719218,1476.5000118538737,852.4999970719218,1568.5000118538737,867.4999970719218,1568.5000118538737L1045.4999970719218,1568.5000118538737"></path><path id="kity_path_856" fill="none" stroke="rgb(115, 161, 191)" stroke-width="1" d="M454.4999970719218,108.50001185387373C469.4999970719218,108.50001185387373,469.4999970719218,44.50001185387373,484.4999970719218,44.50001185387373L623.4999970719218,44.50001185387373"></path><path id="kity_path_857" fill="none" stroke="rgb(115, 161, 191)" stroke-width="1" d="M454.4999970719218,108.50001185387373C469.4999970719218,108.50001185387373,469.4999970719218,96.50001185387373,484.4999970719218,96.50001185387373L730.4999970719218,96.50001185387373"></path><path id="kity_path_858" fill="none" stroke="rgb(115, 161, 191)" stroke-width="1" d="M454.4999970719218,108.50001185387373C469.4999970719218,108.50001185387373,469.4999970719218,148.50001185387373,484.4999970719218,148.50001185387373L564.4999970719218,148.50001185387373"></path><path id="kity_path_859" fill="none" stroke="rgb(115, 161, 191)" stroke-width="1" d="M454.4999970719218,108.50001185387373C469.4999970719218,108.50001185387373,469.4999970719218,200.50001185387373,484.4999970719218,200.50001185387373L625.4999970719218,200.50001185387373"></path><path id="kity_path_917" fill="none" stroke="rgb(115, 161, 191)" stroke-width="1" d="M523.4999970719218,1043.5000118538737C538.4999970719218,1043.5000118538737,538.4999970719218,953.5000118538737,553.4999970719218,953.5000118538737L633.4999970719218,953.5000118538737"></path><path id="kity_path_918" fill="none" stroke="rgb(115, 161, 191)" stroke-width="1" d="M523.4999970719218,1043.5000118538737C538.4999970719218,1043.5000118538737,538.4999970719218,1005.5000118538737,553.4999970719218,1005.5000118538737L632.4999970719218,1005.5000118538737"></path><path id="kity_path_919" fill="none" stroke="rgb(115, 161, 191)" stroke-width="1" d="M523.4999970719218,1043.5000118538737C538.4999970719218,1043.5000118538737,538.4999970719218,1057.5000118538737,553.4999970719218,1057.5000118538737L633.4999970719218,1057.5000118538737"></path><path id="kity_path_920" fill="none" stroke="rgb(115, 161, 191)" stroke-width="1" d="M523.4999970719218,1043.5000118538737C538.4999970719218,1043.5000118538737,538.4999970719218,1109.5000118538737,553.4999970719218,1109.5000118538737L656.4999970719218,1109.5000118538737"></path><path id="kity_path_921" fill="none" stroke="rgb(115, 161, 191)" stroke-width="1" d="M523.4999970719218,1043.5000118538737C538.4999970719218,1043.5000118538737,538.4999970719218,1161.5000118538737,553.4999970719218,1161.5000118538737L714.4999970719218,1161.5000118538737"></path><path id="kity_path_925" fill="none" stroke="rgb(115, 161, 191)" stroke-width="1" d="M574.4999970719218,1561.5000118538737C589.4999970719218,1561.5000118538737,589.4999970719218,1523.5000118538737,604.4999970719218,1523.5000118538737L684.4999970719218,1523.5000118538737"></path><path id="kity_path_926" fill="none" stroke="rgb(115, 161, 191)" stroke-width="1" d="M574.4999970719218,1561.5000118538737C589.4999970719218,1561.5000118538737,589.4999970719218,1575.5000118538737,604.4999970719218,1575.5000118538737L684.4999970719218,1575.5000118538737"></path><path id="kity_path_927" fill="none" stroke="rgb(115, 161, 191)" stroke-width="1" d="M574.4999970719218,1561.5000118538737C589.4999970719218,1561.5000118538737,589.4999970719218,1627.5000118538737,604.4999970719218,1627.5000118538737L753.4999970719218,1627.5000118538737"></path><path id="kity_path_928" fill="none" stroke="rgb(115, 161, 191)" stroke-width="1" d="M350.4999970719218,1760.5000118538737C370.4999970719218,1760.5000118538737,370.4999970719218,1770.5000118538737,390.4999970719218,1770.5000118538737L525.4999970719218,1770.5000118538737"></path><path id="kity_path_929" fill="none" stroke="rgb(115, 161, 191)" stroke-width="1" d="M350.4999970719218,1760.5000118538737C370.4999970719218,1760.5000118538737,370.4999970719218,1706.5000118538737,390.4999970719218,1706.5000118538737L469.4999970719218,1706.5000118538737"></path><path id="kity_path_930" fill="none" stroke="rgb(115, 161, 191)" stroke-width="1" d="M350.4999970719218,1760.5000118538737C365.4999970719218,1760.5000118538737,365.4999970719218,1826.5000118538737,380.4999970719218,1826.5000118538737L503.4999970719218,1826.5000118538737"></path><path id="kity_path_931" fill="none" stroke="rgb(115, 161, 191)" stroke-width="1" d="M613.4999970719218,1938.5000118538737C628.4999970719218,1938.5000118538737,628.4999970719218,1834.5000118538737,643.4999970719218,1834.5000118538737L890.4999970719218,1834.5000118538737"></path><path id="kity_path_932" fill="none" stroke="rgb(115, 161, 191)" stroke-width="1" d="M613.4999970719218,1938.5000118538737C628.4999970719218,1938.5000118538737,628.4999970719218,1886.5000118538737,643.4999970719218,1886.5000118538737L863.4999970719218,1886.5000118538737"></path><path id="kity_path_933" fill="none" stroke="rgb(115, 161, 191)" stroke-width="1" d="M613.4999970719218,1938.5000118538737C628.4999970719218,1938.5000118538737,628.4999970719218,1938.5000118538737,643.4999970719218,1938.5000118538737L711.4999970719218,1938.5000118538737"></path><path id="kity_path_934" fill="none" stroke="rgb(115, 161, 191)" stroke-width="1" d="M613.4999970719218,1938.5000118538737C628.4999970719218,1938.5000118538737,628.4999970719218,1990.5000118538737,643.4999970719218,1990.5000118538737L714.4999970719218,1990.5000118538737"></path><path id="kity_path_935" fill="none" stroke="rgb(115, 161, 191)" stroke-width="1" d="M613.4999970719218,1938.5000118538737C628.4999970719218,1938.5000118538737,628.4999970719218,2042.5000118538737,643.4999970719218,2042.5000118538737L722.4999970719218,2042.5000118538737"></path><path id="kity_path_936" fill="none" stroke="rgb(115, 161, 191)" stroke-width="1" d="M459.4999970719218,1986.5000118538737C496.4999970719218,1986.5000118538737,496.4999970719218,1938.5000118538737,533.4999970719218,1938.5000118538737L613.4999970719218,1938.5000118538737"></path><path id="kity_path_937" fill="none" stroke="rgb(115, 161, 191)" stroke-width="1" d="M459.4999970719218,1986.5000118538737C500.4999970719218,1986.5000118538737,500.4999970719218,2118.5000118538737,541.4999970719218,2118.5000118538737L621.4999970719218,2118.5000118538737"></path><path id="kity_path_938" fill="none" stroke="rgb(115, 161, 191)" stroke-width="1" d="M397.4999970719218,2252.5000118538737C412.4999970719218,2252.5000118538737,412.4999970719218,2214.5000118538737,427.4999970719218,2214.5000118538737L506.4999970719218,2214.5000118538737"></path><path id="kity_path_939" fill="none" stroke="rgb(115, 161, 191)" stroke-width="1" d="M397.4999970719218,2252.5000118538737C412.4999970719218,2252.5000118538737,412.4999970719218,2266.5000118538737,427.4999970719218,2266.5000118538737L530.4999970719218,2266.5000118538737"></path><path id="kity_path_940" fill="none" stroke="rgb(115, 161, 191)" stroke-width="1" d="M397.4999970719218,2252.5000118538737C412.4999970719218,2252.5000118538737,412.4999970719218,2318.5000118538737,427.4999970719218,2318.5000118538737L507.4999970719218,2318.5000118538737"></path><path id="kity_path_941" fill="none" stroke="rgb(115, 161, 191)" stroke-width="1" d="M471.4999970719218,343.50001185387373C486.4999970719218,343.50001185387373,486.4999970719218,305.50001185387373,501.4999970719218,305.50001185387373L581.4999970719218,305.50001185387373"></path><path id="kity_path_942" fill="none" stroke="rgb(115, 161, 191)" stroke-width="1" d="M471.4999970719218,343.50001185387373C486.4999970719218,343.50001185387373,486.4999970719218,357.50001185387373,501.4999970719218,357.50001185387373L605.4999970719218,357.50001185387373"></path><path id="kity_path_943" fill="none" stroke="rgb(115, 161, 191)" stroke-width="1" d="M471.4999970719218,343.50001185387373C486.4999970719218,343.50001185387373,486.4999970719218,409.50001185387373,501.4999970719218,409.50001185387373L581.4999970719218,409.50001185387373"></path><path id="kity_path_944" fill="none" stroke="rgb(115, 161, 191)" stroke-width="1" d="M626.4999970719218,551.5000118538737C641.4999970719218,551.5000118538737,641.4999970719218,513.5000118538737,656.4999970719218,513.5000118538737L736.4999970719218,513.5000118538737"></path><path id="kity_path_945" fill="none" stroke="rgb(115, 161, 191)" stroke-width="1" d="M626.4999970719218,551.5000118538737C641.4999970719218,551.5000118538737,641.4999970719218,565.5000118538737,656.4999970719218,565.5000118538737L736.4999970719218,565.5000118538737"></path><path id="kity_path_946" fill="none" stroke="rgb(115, 161, 191)" stroke-width="1" d="M626.4999970719218,551.5000118538737C641.4999970719218,551.5000118538737,641.4999970719218,617.5000118538737,656.4999970719218,617.5000118538737L736.4999970719218,617.5000118538737"></path><path id="kity_path_947" fill="none" stroke="rgb(115, 161, 191)" stroke-width="1" d="M428.4999970719218,659.5000118538737C443.4999970719218,659.5000118538737,443.4999970719218,647.5000118538737,458.4999970719218,647.5000118538737L522.4999970719218,647.5000118538737"></path><path id="kity_path_948" fill="none" stroke="rgb(115, 161, 191)" stroke-width="1" d="M428.4999970719218,659.5000118538737C443.4999970719218,659.5000118538737,443.4999970719218,699.5000118538737,458.4999970719218,699.5000118538737L538.4999970719218,699.5000118538737"></path><path id="kity_path_976" fill="none" stroke="rgb(115, 161, 191)" stroke-width="1" d="M903.4999970719218,629.5000118538737C917.9999970719218,629.5000118538737,917.9999970719218,570.5000118538737,932.4999970719218,570.5000118538737L1012.4999970719218,570.5000118538737"></path><path id="kity_path_977" fill="none" stroke="rgb(115, 161, 191)" stroke-width="1" d="M903.4999970719218,629.5000118538737C918.4999970719218,629.5000118538737,918.4999970719218,655.5000118538737,933.4999970719218,655.5000118538737L1036.4999970719218,655.5000118538737"></path><path id="kity_path_978" fill="none" stroke="rgb(115, 161, 191)" stroke-width="1" d="M809.4999970719218,668.5000118538737C824.4999970719218,668.5000118538737,824.4999970719218,629.5000118538737,839.4999970719218,629.5000118538737L903.4999970719218,629.5000118538737"></path><path id="kity_path_979" fill="none" stroke="rgb(115, 161, 191)" stroke-width="1" d="M809.4999970719218,668.5000118538737C824.4999970719218,668.5000118538737,824.4999970719218,707.5000118538737,839.4999970719218,707.5000118538737L896.4999970719218,707.5000118538737"></path><path id="kity_path_980" fill="none" stroke="rgb(115, 161, 191)" stroke-width="1" d="M699.4999970719218,777.5000118538737C714.4999970719218,777.5000118538737,714.4999970719218,668.5000118538737,729.4999970719218,668.5000118538737L809.4999970719218,668.5000118538737"></path><path id="kity_path_981" fill="none" stroke="rgb(115, 161, 191)" stroke-width="1" d="M699.4999970719218,777.5000118538737C714.4999970719218,777.5000118538737,714.4999970719218,759.5000118538737,729.4999970719218,759.5000118538737L814.4999970719218,759.5000118538737"></path><path id="kity_path_982" fill="none" stroke="rgb(115, 161, 191)" stroke-width="1" d="M699.4999970719218,777.5000118538737C714.4999970719218,777.5000118538737,714.4999970719218,811.5000118538737,729.4999970719218,811.5000118538737L809.4999970719218,811.5000118538737"></path><path id="kity_path_983" fill="none" stroke="rgb(115, 161, 191)" stroke-width="1" d="M699.4999970719218,777.5000118538737C714.4999970719218,777.5000118538737,714.4999970719218,863.5000118538737,729.4999970719218,863.5000118538737L785.4999970719218,863.5000118538737"></path><path id="kity_path_984" fill="none" stroke="rgb(115, 161, 191)" stroke-width="1" d="M699.4999970719218,777.5000118538737C714.4999970719218,777.5000118538737,714.4999970719218,915.5000118538737,729.4999970719218,915.5000118538737L785.4999970719218,915.5000118538737"></path></g><g id="minder_node1"><path id="node_outline1" fill="rgb(115, 161, 191)" stroke="rgb(115, 161, 191)" d="M25.499997071921825,1649.5000118538737h103a5,5,0,0,1,5,5v30a5,5,0,0,1,-5,5h-103a5,5,0,0,1,-5,-5v-30a5,5,0,0,1,5,-5z" stroke-width="3"></path><g id="node_text1" fill="white"><text id="kity_text_22" text-rendering="inherit" font-size="16" dy=".8em" y="1659.100011818111" x="44.499997071921825">知识结构</text></g></g><g id="kity_g_14" display="none"><path id="kity_path_15" fill="rgba(0, 92, 153, 0.5)" stroke="none" d="M797.4999970719218,746.5000118538737h70v15h-70z"></path><path id="kity_path_16" fill="none" stroke="rgb(0, 76, 128)" d="M797.4999970719218,746.5000118538737L867.4999970719218,746.5000118538737" stroke-width="1"></path></g><g id="minder_node2" opacity="1"><g id="node_expander1" style="cursor: pointer;"><path id="kity_path_36" fill="white" stroke="gray" d="M282.5000005289912,108.4999885931611A6,6,0,1,1,270.5000005289912,108.4999885931611A6,6,0,1,1,282.5000005289912,108.4999885931611"></path><path id="kity_path_37" fill="none" stroke="gray" d="M272.0000005289912,108.4999885931611L281.0000005289912,108.4999885931611"></path></g><path id="node_outline2" fill="rgb(238, 243, 246)" stroke="rgb(115, 161, 191)" d="M286.5000009313226,95.4999885931611h165a3,3,0,0,1,3,3v20a3,3,0,0,1,-3,3h-165a3,3,0,0,1,-3,-3v-20a3,3,0,0,1,3,-3z" stroke-width="1"></path><g id="node_text2" fill="black"><text id="kity_text_33" text-rendering="inherit" font-size="14" dy=".8em" y="99.39998856186867" x="303.5000009313226">搜索引擎知识(ir知识)</text></g></g><g id="minder_node3" opacity="1"><g id="node_expander2" style="cursor: pointer;"><path id="kity_path_44" fill="white" stroke="gray" d="M314.5000010058284,551.4999951943755A6,6,0,1,1,302.5000010058284,551.4999951943755A6,6,0,1,1,314.5000010058284,551.4999951943755"></path><path id="kity_path_45" fill="none" stroke="gray" d="M304.0000010058284,551.4999951943755L313.0000010058284,551.4999951943755"></path></g><path id="node_outline3" fill="rgb(238, 243, 246)" stroke="rgb(115, 161, 191)" d="M318.50000140815973,538.4999951943755h305a3,3,0,0,1,3,3v20a3,3,0,0,1,-3,3h-305a3,3,0,0,1,-3,-3v-20a3,3,0,0,1,3,-3z" stroke-width="1"></path><g id="node_text3" fill="black"><text id="kity_text_41" text-rendering="inherit" font-size="14" dy=".8em" y="542.3999951630831" x="335.50000140815973">elasticsearch基本数据类型(field datatype)</text></g></g><g id="minder_node7" opacity="1"><g id="node_expander6" style="cursor: pointer;"><path id="kity_path_78" fill="white" stroke="gray" d="M600.5000052675605,777.499998562038A6,6,0,1,1,588.5000052675605,777.499998562038A6,6,0,1,1,600.5000052675605,777.499998562038"></path><path id="kity_path_79" fill="none" stroke="gray" d="M590.0000052675605,777.499998562038L599.0000052675605,777.499998562038"></path></g><path id="node_outline7" fill="rgb(238, 243, 246)" stroke="rgb(57, 80, 96)" d="M604.5000056698918,764.499998562038h92a3,3,0,0,1,3,3v20a3,3,0,0,1,-3,3h-92a3,3,0,0,1,-3,-3v-20a3,3,0,0,1,3,-3z" stroke-width="3"></path><g id="node_text7" fill="black"><text id="kity_text_75" text-rendering="inherit" font-size="14" dy=".8em" y="768.3999985307455" x="621.5000056698918">查询(dsl)</text></g></g><g id="minder_node8" opacity="1"><g id="node_expander7" style="cursor: pointer;"><path id="kity_path_86" fill="white" stroke="gray" d="M329.5000012293458,659.4999968037009A6,6,0,1,1,317.5000012293458,659.4999968037009A6,6,0,1,1,329.5000012293458,659.4999968037009"></path><path id="kity_path_87" fill="none" stroke="gray" d="M319.0000012293458,659.4999968037009L328.0000012293458,659.4999968037009"></path></g><path id="node_outline8" fill="rgb(238, 243, 246)" stroke="rgb(115, 161, 191)" d="M333.50000163167715,646.4999968037009h92a3,3,0,0,1,3,3v20a3,3,0,0,1,-3,3h-92a3,3,0,0,1,-3,-3v-20a3,3,0,0,1,3,-3z" stroke-width="1"></path><g id="node_text8" fill="black"><text id="kity_text_83" text-rendering="inherit" font-size="14" dy=".8em" y="650.3999967724085" x="350.50000163167715">REST api</text></g></g><g id="minder_node14" opacity="1"><g id="node_expander13" style="cursor: pointer;"><path id="kity_path_134" fill="white" stroke="gray" d="M738.5000073239207,1476.5000089779496A6,6,0,1,1,726.5000073239207,1476.5000089779496A6,6,0,1,1,738.5000073239207,1476.5000089779496"></path><path id="kity_path_135" fill="none" stroke="gray" d="M728.0000073239207,1476.5000089779496L737.0000073239207,1476.5000089779496"></path></g><path id="node_outline14" fill="rgb(238, 243, 246)" stroke="rgb(115, 161, 191)" d="M742.5000077262521,1463.5000089779496h92a3,3,0,0,1,3,3v20a3,3,0,0,1,-3,3h-92a3,3,0,0,1,-3,-3v-20a3,3,0,0,1,3,-3z" stroke-width="1"></path><g id="node_text14" fill="black"><text id="kity_text_131" text-rendering="inherit" font-size="14" dy=".8em" y="1467.4000089466572" x="759.5000077262521">集群管理</text></g></g><g id="minder_node16" opacity="1"><g id="node_expander15" style="cursor: pointer;"><path id="kity_path_150" fill="white" stroke="gray" d="M280.5000004991889,1370.5000073984265A6,6,0,1,1,268.5000004991889,1370.5000073984265A6,6,0,1,1,280.5000004991889,1370.5000073984265"></path><path id="kity_path_151" fill="none" stroke="gray" d="M270.0000004991889,1370.5000073984265L279.0000004991889,1370.5000073984265"></path></g><path id="node_outline16" fill="rgb(238, 243, 246)" stroke="rgb(115, 161, 191)" d="M284.50000090152025,1357.5000073984265h157a3,3,0,0,1,3,3v20a3,3,0,0,1,-3,3h-157a3,3,0,0,1,-3,-3v-20a3,3,0,0,1,3,-3z" stroke-width="1"></path><g id="node_text16" fill="black"><text id="kity_text_147" text-rendering="inherit" font-size="14" dy=".8em" y="1361.400007367134" x="301.50000090152025">分词器（analysis）</text></g></g><g id="minder_node24" opacity="1"><g id="node_expander23" style="cursor: pointer;"><path id="kity_path_256" fill="white" stroke="gray" d="M536.5000043138862,1043.5000025257468A6,6,0,1,1,524.5000043138862,1043.5000025257468A6,6,0,1,1,536.5000043138862,1043.5000025257468"></path><path id="kity_path_257" fill="none" stroke="gray" d="M526.0000043138862,1043.5000025257468L535.0000043138862,1043.5000025257468"></path></g><path id="node_outline24" fill="rgb(238, 243, 246)" stroke="rgb(115, 161, 191)" d="M429.5000030621886,1030.5000025257468h91a3,3,0,0,1,3,3v20a3,3,0,0,1,-3,3h-91a3,3,0,0,1,-3,-3v-20a3,3,0,0,1,3,-3z" stroke-width="1"></path><g id="node_text24" fill="black"><text id="kity_text_253" text-rendering="inherit" font-size="14" dy=".8em" y="1034.4000024944544" x="446.5000030621886">底层原理</text></g></g><g id="minder_node27" opacity="1"><g id="node_expander26" style="cursor: pointer;"><path id="kity_path_285" fill="white" stroke="gray" d="M484.5000035390258,343.499992094934A6,6,0,1,1,472.5000035390258,343.499992094934A6,6,0,1,1,484.5000035390258,343.499992094934"></path><path id="kity_path_286" fill="none" stroke="gray" d="M474.0000035390258,343.499992094934L483.0000035390258,343.499992094934"></path></g><path id="node_outline27" fill="rgb(238, 243, 246)" stroke="rgb(115, 161, 191)" d="M288.5000009611249,330.499992094934h180a3,3,0,0,1,3,3v20a3,3,0,0,1,-3,3h-180a3,3,0,0,1,-3,-3v-20a3,3,0,0,1,3,-3z" stroke-width="1"></path><g id="node_text27" fill="black"><text id="kity_text_282" text-rendering="inherit" font-size="14" dy=".8em" y="334.39999206364155" x="305.5000009611249">elasticsearch 基本概念</text></g></g><g id="minder_node33" opacity="1"><g id="node_expander32" style="cursor: pointer;"><path id="kity_path_361" fill="white" stroke="gray" d="M363.5000017359853,1760.5000132098794A6,6,0,1,1,351.5000017359853,1760.5000132098794A6,6,0,1,1,363.5000017359853,1760.5000132098794"></path><path id="kity_path_362" fill="none" stroke="gray" d="M353.0000017359853,1760.5000132098794L362.0000017359853,1760.5000132098794"></path></g><path id="node_outline33" fill="rgb(238, 243, 246)" stroke="rgb(115, 161, 191)" d="M256.50000048428774,1747.5000132098794h91a3,3,0,0,1,3,3v20a3,3,0,0,1,-3,3h-91a3,3,0,0,1,-3,-3v-20a3,3,0,0,1,3,-3z" stroke-width="1"></path><g id="node_text33" fill="black"><text id="kity_text_358" text-rendering="inherit" font-size="14" dy=".8em" y="1751.400013178587" x="273.50000048428774">业务建模</text></g></g><g id="minder_node42" opacity="1"><g id="node_expander41" style="cursor: pointer;"><path id="kity_path_529" fill="white" stroke="gray" d="M587.5000050738454,1561.5000102445483A6,6,0,1,1,575.5000050738454,1561.5000102445483A6,6,0,1,1,587.5000050738454,1561.5000102445483"></path><path id="kity_path_530" fill="none" stroke="gray" d="M577.0000050738454,1561.5000102445483L586.0000050738454,1561.5000102445483"></path></g><path id="node_outline42" fill="rgb(238, 243, 246)" stroke="rgb(115, 161, 191)" d="M439.50000321120024,1548.5000102445483h132a3,3,0,0,1,3,3v20a3,3,0,0,1,-3,3h-132a3,3,0,0,1,-3,-3v-20a3,3,0,0,1,3,-3z" stroke-width="1"></path><g id="node_text42" fill="black"><text id="kity_text_526" text-rendering="inherit" font-size="14" dy=".8em" y="1552.4000102132559" x="456.50000321120024">性能分析&amp;优化</text></g></g><g id="minder_node43" opacity="1"><g id="node_expander42" style="cursor: pointer;"><path id="kity_path_537" fill="white" stroke="gray" d="M472.50000336021185,1986.5000165775418A6,6,0,1,1,460.50000336021185,1986.5000165775418A6,6,0,1,1,472.50000336021185,1986.5000165775418"></path><path id="kity_path_538" fill="none" stroke="gray" d="M462.00000336021185,1986.5000165775418L471.00000336021185,1986.5000165775418"></path></g><path id="node_outline43" fill="rgb(238, 243, 246)" stroke="rgb(115, 161, 191)" d="M364.50000209361315,1973.5000165775418h92a3,3,0,0,1,3,3v20a3,3,0,0,1,-3,3h-92a3,3,0,0,1,-3,-3v-20a3,3,0,0,1,3,-3z" stroke-width="1"></path><g id="node_text43" fill="black"><text id="kity_text_534" text-rendering="inherit" font-size="14" dy=".8em" y="1977.4000165462494" x="381.50000209361315">部署相关</text></g></g><g id="minder_node56" opacity="1"><g id="node_expander55" style="cursor: pointer;"><path id="kity_path_738" fill="white" stroke="gray" d="M410.50000243633986,2252.5000205412507A6,6,0,1,1,398.50000243633986,2252.5000205412507A6,6,0,1,1,410.50000243633986,2252.5000205412507"></path><path id="kity_path_739" fill="none" stroke="gray" d="M400.00000243633986,2252.5000205412507L409.00000243633986,2252.5000205412507"></path></g><path id="node_outline56" fill="rgb(238, 243, 246)" stroke="rgb(115, 161, 191)" d="M303.5000011846423,2239.5000205412507h91a3,3,0,0,1,3,3v20a3,3,0,0,1,-3,3h-91a3,3,0,0,1,-3,-3v-20a3,3,0,0,1,3,-3z" stroke-width="1"></path><g id="node_text56" fill="black"><text id="kity_text_735" text-rendering="inherit" font-size="14" dy=".8em" y="2243.4000205099583" x="320.5000011846423">集群规划</text></g></g><g id="minder_node37"><g id="node_expander36" style="cursor: pointer;" display="none"><path id="kity_path_471" fill="white" stroke="gray" d="M484.5000035390258,1292.500006236136A6,6,0,1,1,472.5000035390258,1292.500006236136A6,6,0,1,1,484.5000035390258,1292.500006236136"></path><path id="kity_path_472" fill="none" stroke="gray"></path></g><path id="node_outline37" fill="none" stroke="none" d="M489.50000377744436,1281.500006236136h58a5,5,0,0,1,5,5v12a5,5,0,0,1,-5,5h-58a5,5,0,0,1,-5,-5v-12a5,5,0,0,1,5,-5z" stroke-width="3"></path><g id="node_text37" fill="black"><text id="kity_text_468" text-rendering="inherit" font-size="12" dy=".8em" y="1284.7000062093139" x="494.50000377744436">analyser</text></g></g><g id="minder_node38"><g id="node_expander37" style="cursor: pointer;" display="none"><path id="kity_path_479" fill="white" stroke="gray" d="M484.5000035390258,1344.5000070109963A6,6,0,1,1,472.5000035390258,1344.5000070109963A6,6,0,1,1,484.5000035390258,1344.5000070109963"></path><path id="kity_path_480" fill="none" stroke="gray"></path></g><path id="node_outline38" fill="none" stroke="none" d="M489.50000377744436,1333.5000070109963h46a5,5,0,0,1,5,5v12a5,5,0,0,1,-5,5h-46a5,5,0,0,1,-5,-5v-12a5,5,0,0,1,5,-5z" stroke-width="3"></path><g id="node_text38" fill="black"><text id="kity_text_476" text-rendering="inherit" font-size="12" dy=".8em" y="1336.7000069841743" x="494.50000377744436">同义词</text></g></g><g id="minder_node39"><g id="node_expander38" style="cursor: pointer;" display="none"><path id="kity_path_487" fill="white" stroke="gray" d="M484.5000035390258,1396.5000077858567A6,6,0,1,1,472.5000035390258,1396.5000077858567A6,6,0,1,1,484.5000035390258,1396.5000077858567"></path><path id="kity_path_488" fill="none" stroke="gray"></path></g><path id="node_outline39" fill="none" stroke="none" d="M489.50000377744436,1385.5000077858567h47a5,5,0,0,1,5,5v12a5,5,0,0,1,-5,5h-47a5,5,0,0,1,-5,-5v-12a5,5,0,0,1,5,-5z" stroke-width="3"></path><g id="node_text39" fill="black"><text id="kity_text_484" text-rendering="inherit" font-size="12" dy=".8em" y="1388.7000077590346" x="494.50000377744436">归一化</text></g></g><g id="minder_node40"><g id="node_expander39" style="cursor: pointer;" display="none"><path id="kity_path_495" fill="white" stroke="gray" d="M484.5000035390258,1448.500008560717A6,6,0,1,1,472.5000035390258,1448.500008560717A6,6,0,1,1,484.5000035390258,1448.500008560717"></path><path id="kity_path_496" fill="none" stroke="gray"></path></g><path id="node_outline40" fill="none" stroke="none" d="M489.50000377744436,1437.500008560717h47a5,5,0,0,1,5,5v12a5,5,0,0,1,-5,5h-47a5,5,0,0,1,-5,-5v-12a5,5,0,0,1,5,-5z" stroke-width="3"></path><g id="node_text40" fill="black"><text id="kity_text_492" text-rendering="inherit" font-size="12" dy=".8em" y="1440.700008533895" x="494.50000377744436">停用词</text></g></g><g id="minder_node22" opacity="1"><g id="node_expander21" style="cursor: pointer;" display="none"><path id="kity_path_202" fill="white" stroke="gray" d="M877.5000093951821,1398.500007815659A6,6,0,1,1,865.5000093951821,1398.500007815659A6,6,0,1,1,877.5000093951821,1398.500007815659"></path><path id="kity_path_203" fill="none" stroke="gray"></path></g><path id="node_outline22" fill="none" stroke="none" d="M882.5000096336007,1387.500007815659h118a5,5,0,0,1,5,5v12a5,5,0,0,1,-5,5h-118a5,5,0,0,1,-5,-5v-12a5,5,0,0,1,5,-5z" stroke-width="3"></path><g id="node_text22" fill="black"><text id="kity_text_199" text-rendering="inherit" font-size="12" dy=".8em" y="1390.700007788837" x="887.5000096336007">集群基本管理&amp;操作</text></g></g><g id="minder_node23" opacity="1"><g id="node_expander22" style="cursor: pointer;" display="none"><path id="kity_path_210" fill="white" stroke="gray" d="M877.5000093951821,1450.5000085905194A6,6,0,1,1,865.5000093951821,1450.5000085905194A6,6,0,1,1,877.5000093951821,1450.5000085905194"></path><path id="kity_path_211" fill="none" stroke="gray"></path></g><path id="node_outline23" fill="none" stroke="none" d="M882.5000096336007,1439.5000085905194h118a5,5,0,0,1,5,5v12a5,5,0,0,1,-5,5h-118a5,5,0,0,1,-5,-5v-12a5,5,0,0,1,5,-5z" stroke-width="3"></path><g id="node_text23" fill="black"><text id="kity_text_207" text-rendering="inherit" font-size="12" dy=".8em" y="1442.7000085636973" x="887.5000096336007">索引层面管理&amp;操作</text></g></g><g id="minder_node60"><g id="node_expander59" style="cursor: pointer;" display="none"><path id="kity_path_830" fill="white" stroke="gray" d="M877.5000093951821,1502.5000093653798A6,6,0,1,1,865.5000093951821,1502.5000093653798A6,6,0,1,1,877.5000093951821,1502.5000093653798"></path><path id="kity_path_831" fill="none" stroke="gray"></path></g><path id="node_outline60" fill="none" stroke="none" d="M882.5000096336007,1491.5000093653798h200a5,5,0,0,1,5,5v12a5,5,0,0,1,-5,5h-200a5,5,0,0,1,-5,-5v-12a5,5,0,0,1,5,-5z" stroke-width="3"></path><g id="node_text60" fill="black"><text id="kity_text_827" text-rendering="inherit" font-size="12" dy=".8em" y="1494.7000093385577" x="887.5000096336007">mapping管理(mapping template)</text></g></g><g id="minder_node61"><g id="node_expander60" style="cursor: pointer;" display="none"><path id="kity_path_838" fill="white" stroke="gray" d="M877.5000093951821,1554.5000101402402A6,6,0,1,1,865.5000093951821,1554.5000101402402A6,6,0,1,1,877.5000093951821,1554.5000101402402"></path><path id="kity_path_839" fill="none" stroke="gray"></path></g><path id="node_outline61" fill="none" stroke="none" d="M882.5000096336007,1543.5000101402402h158a5,5,0,0,1,5,5v12a5,5,0,0,1,-5,5h-158a5,5,0,0,1,-5,-5v-12a5,5,0,0,1,5,-5z" stroke-width="3"></path><g id="node_text61" fill="black"><text id="kity_text_835" text-rendering="inherit" font-size="12" dy=".8em" y="1546.700010113418" x="887.5000096336007">搜索管理(search template)</text></g></g><g id="minder_node15"><g id="node_expander14" style="cursor: pointer;" display="none"><path id="kity_path_142" fill="white" stroke="gray" d="M494.5000036880374,30.499987430870533A6,6,0,1,1,482.5000036880374,30.499987430870533A6,6,0,1,1,494.5000036880374,30.499987430870533"></path><path id="kity_path_143" fill="none" stroke="gray"></path></g><path id="node_outline15" fill="none" stroke="none" d="M499.500003926456,19.499987430870533h119a5,5,0,0,1,5,5v12a5,5,0,0,1,-5,5h-119a5,5,0,0,1,-5,-5v-12a5,5,0,0,1,5,-5z" stroke-width="3"></path><g id="node_text15" fill="black"><text id="kity_text_139" text-rendering="inherit" font-size="12" dy=".8em" y="22.699987404048443" x="504.500003926456">1. 什么是搜索引擎？</text></g></g><g id="minder_node17"><g id="node_expander16" style="cursor: pointer;" display="none"><path id="kity_path_158" fill="white" stroke="gray" d="M494.5000036880374,82.49998820573092A6,6,0,1,1,482.5000036880374,82.49998820573092A6,6,0,1,1,494.5000036880374,82.49998820573092"></path><path id="kity_path_159" fill="none" stroke="gray"></path></g><path id="node_outline17" fill="none" stroke="none" d="M499.500003926456,71.49998820573092h226a5,5,0,0,1,5,5v12a5,5,0,0,1,-5,5h-226a5,5,0,0,1,-5,-5v-12a5,5,0,0,1,5,-5z" stroke-width="3"></path><g id="node_text17" fill="black"><text id="kity_text_155" text-rendering="inherit" font-size="12" dy=".8em" y="74.69998817890882" x="504.500003926456">2. 倒排索引 vs 正排索引 &amp;&amp; 字典树联系</text></g></g><g id="minder_node18"><g id="node_expander17" style="cursor: pointer;" display="none"><path id="kity_path_166" fill="white" stroke="gray" d="M494.5000036880374,134.4999889805913A6,6,0,1,1,482.5000036880374,134.4999889805913A6,6,0,1,1,494.5000036880374,134.4999889805913"></path><path id="kity_path_167" fill="none" stroke="gray"></path></g><path id="node_outline18" fill="none" stroke="none" d="M499.500003926456,123.4999889805913h60a5,5,0,0,1,5,5v12a5,5,0,0,1,-5,5h-60a5,5,0,0,1,-5,-5v-12a5,5,0,0,1,5,-5z" stroke-width="3"></path><g id="node_text18" fill="black"><text id="kity_text_163" text-rendering="inherit" font-size="12" dy=".8em" y="126.6999889537692" x="504.500003926456">3. 分词器</text></g></g><g id="minder_node19"><g id="node_expander18" style="cursor: pointer;" display="none"><path id="kity_path_174" fill="white" stroke="gray" d="M494.5000036880374,186.49998975545168A6,6,0,1,1,482.5000036880374,186.49998975545168A6,6,0,1,1,494.5000036880374,186.49998975545168"></path><path id="kity_path_175" fill="none" stroke="gray"></path></g><path id="node_outline19" fill="none" stroke="none" d="M499.500003926456,175.49998975545168h121a5,5,0,0,1,5,5v12a5,5,0,0,1,-5,5h-121a5,5,0,0,1,-5,-5v-12a5,5,0,0,1,5,-5z" stroke-width="3"></path><g id="node_text19" fill="black"><text id="kity_text_171" text-rendering="inherit" font-size="12" dy=".8em" y="178.6999897286296" x="504.500003926456">4. 搜索质量判定标准</text></g></g><g id="kity_g_12" display="none"><path id="kity_path_13" fill="none" stroke="rgb(66, 94, 112)" d="M802.4999970719218,719.5000118538737h60a5,5,0,0,1,5,5v12a5,5,0,0,1,-5,5h-60a5,5,0,0,1,-5,-5v-12a5,5,0,0,1,5,-5z" stroke-width="5"></path></g><g id="minder_node25"><g id="node_expander24" style="cursor: pointer;" display="none"><path id="kity_path_268" fill="white" stroke="gray" d="M563.5000047162175,939.5000009760261A6,6,0,1,1,551.5000047162175,939.5000009760261A6,6,0,1,1,563.5000047162175,939.5000009760261"></path><path id="kity_path_269" fill="none" stroke="gray"></path></g><path id="node_outline25" fill="none" stroke="none" d="M568.5000049546361,928.5000009760261h60a5,5,0,0,1,5,5v12a5,5,0,0,1,-5,5h-60a5,5,0,0,1,-5,-5v-12a5,5,0,0,1,5,-5z" stroke-width="3"></path><g id="node_text25" fill="black"><text id="kity_text_265" text-rendering="inherit" font-size="12" dy=".8em" y="931.700000949204" x="573.5000049546361">选主算法</text></g></g><g id="minder_node26"><g id="node_expander25" style="cursor: pointer;" display="none"><path id="kity_path_277" fill="white" stroke="gray" d="M563.5000047162175,991.5000017508864A6,6,0,1,1,551.5000047162175,991.5000017508864A6,6,0,1,1,563.5000047162175,991.5000017508864"></path><path id="kity_path_278" fill="none" stroke="gray"></path></g><path id="node_outline26" fill="none" stroke="none" d="M568.5000049546361,980.5000017508864h59a5,5,0,0,1,5,5v12a5,5,0,0,1,-5,5h-59a5,5,0,0,1,-5,-5v-12a5,5,0,0,1,5,-5z" stroke-width="3"></path><g id="node_text26" fill="black"><text id="kity_text_274" text-rendering="inherit" font-size="12" dy=".8em" y="983.7000017240644" x="573.5000049546361">写入流程</text></g></g><g id="minder_node31"><g id="node_expander30" style="cursor: pointer;" display="none"><path id="kity_path_345" fill="white" stroke="gray" d="M563.5000047162175,1043.5000025257468A6,6,0,1,1,551.5000047162175,1043.5000025257468A6,6,0,1,1,563.5000047162175,1043.5000025257468"></path><path id="kity_path_346" fill="none" stroke="gray"></path></g><path id="node_outline31" fill="none" stroke="none" d="M568.5000049546361,1032.5000025257468h60a5,5,0,0,1,5,5v12a5,5,0,0,1,-5,5h-60a5,5,0,0,1,-5,-5v-12a5,5,0,0,1,5,-5z" stroke-width="3"></path><g id="node_text31" fill="black"><text id="kity_text_342" text-rendering="inherit" font-size="12" dy=".8em" y="1035.7000024989247" x="573.5000049546361">查询流程</text></g></g><g id="minder_node32"><g id="node_expander31" style="cursor: pointer;" display="none"><path id="kity_path_353" fill="white" stroke="gray" d="M563.5000047162175,1095.5000033006072A6,6,0,1,1,551.5000047162175,1095.5000033006072A6,6,0,1,1,563.5000047162175,1095.5000033006072"></path><path id="kity_path_354" fill="none" stroke="gray"></path></g><path id="node_outline32" fill="none" stroke="none" d="M568.5000049546361,1084.5000033006072h83a5,5,0,0,1,5,5v12a5,5,0,0,1,-5,5h-83a5,5,0,0,1,-5,-5v-12a5,5,0,0,1,5,-5z" stroke-width="3"></path><g id="node_text32" fill="black"><text id="kity_text_350" text-rendering="inherit" font-size="12" dy=".8em" y="1087.7000032737851" x="573.5000049546361">节点恢复流程</text></g></g><g id="minder_node41"><g id="node_expander40" style="cursor: pointer;" display="none"><path id="kity_path_511" fill="white" stroke="gray" d="M563.5000047162175,1147.5000040754676A6,6,0,1,1,551.5000047162175,1147.5000040754676A6,6,0,1,1,563.5000047162175,1147.5000040754676"></path><path id="kity_path_512" fill="none" stroke="gray"></path></g><path id="node_outline41" fill="none" stroke="none" d="M568.5000049546361,1136.5000040754676h141a5,5,0,0,1,5,5v12a5,5,0,0,1,-5,5h-141a5,5,0,0,1,-5,-5v-12a5,5,0,0,1,5,-5z" stroke-width="3"></path><g id="node_text41" fill="black"><text id="kity_text_508" text-rendering="inherit" font-size="12" dy=".8em" y="1139.7000040486455" x="573.5000049546361">副本复制&amp;数据迁移原理</text></g></g><g id="minder_node52"><g id="node_expander51" style="cursor: pointer;" display="none"><path id="kity_path_688" fill="white" stroke="gray" d="M614.5000054761767,1509.500009469688A6,6,0,1,1,602.5000054761767,1509.500009469688A6,6,0,1,1,614.5000054761767,1509.500009469688"></path><path id="kity_path_689" fill="none" stroke="gray"></path></g><path id="node_outline52" fill="none" stroke="none" d="M619.5000057145953,1498.500009469688h60a5,5,0,0,1,5,5v12a5,5,0,0,1,-5,5h-60a5,5,0,0,1,-5,-5v-12a5,5,0,0,1,5,-5z" stroke-width="3"></path><g id="node_text52" fill="black"><text id="kity_text_685" text-rendering="inherit" font-size="12" dy=".8em" y="1501.7000094428658" x="624.5000057145953">写入优化</text></g></g><g id="minder_node53"><g id="node_expander52" style="cursor: pointer;" display="none"><path id="kity_path_697" fill="white" stroke="gray" d="M614.5000054761767,1561.5000102445483A6,6,0,1,1,602.5000054761767,1561.5000102445483A6,6,0,1,1,614.5000054761767,1561.5000102445483"></path><path id="kity_path_698" fill="none" stroke="gray"></path></g><path id="node_outline53" fill="none" stroke="none" d="M619.5000057145953,1550.5000102445483h60a5,5,0,0,1,5,5v12a5,5,0,0,1,-5,5h-60a5,5,0,0,1,-5,-5v-12a5,5,0,0,1,5,-5z" stroke-width="3"></path><g id="node_text53" fill="black"><text id="kity_text_694" text-rendering="inherit" font-size="12" dy=".8em" y="1553.7000102177262" x="624.5000057145953">查询优化</text></g></g><g id="minder_node54"><g id="node_expander53" style="cursor: pointer;" display="none"><path id="kity_path_705" fill="white" stroke="gray" d="M614.5000054761767,1613.5000110194087A6,6,0,1,1,602.5000054761767,1613.5000110194087A6,6,0,1,1,614.5000054761767,1613.5000110194087"></path><path id="kity_path_706" fill="none" stroke="gray"></path></g><path id="node_outline54" fill="none" stroke="none" d="M619.5000057145953,1602.5000110194087h129a5,5,0,0,1,5,5v12a5,5,0,0,1,-5,5h-129a5,5,0,0,1,-5,-5v-12a5,5,0,0,1,5,-5z" stroke-width="3"></path><g id="node_text54" fill="black"><text id="kity_text_702" text-rendering="inherit" font-size="12" dy=".8em" y="1605.7000109925866" x="624.5000057145953">大集群管理&amp;稳定控制</text></g></g><g id="minder_node49" opacity="1"><g id="node_expander48" style="cursor: pointer;" display="none"><path id="kity_path_615" fill="white" stroke="gray" d="M400.50000228732824,1756.5000131502748A6,6,0,1,1,388.50000228732824,1756.5000131502748A6,6,0,1,1,400.50000228732824,1756.5000131502748"></path><path id="kity_path_616" fill="none" stroke="gray"></path></g><path id="node_outline49" fill="none" stroke="none" d="M405.5000025257468,1745.5000131502748h115a5,5,0,0,1,5,5v12a5,5,0,0,1,-5,5h-115a5,5,0,0,1,-5,-5v-12a5,5,0,0,1,5,-5z" stroke-width="3"></path><g id="node_text49" fill="black"><text id="kity_text_612" text-rendering="inherit" font-size="12" dy=".8em" y="1748.7000131234527" x="410.5000025257468">正常查询(打分建模)</text></g></g><g id="minder_node50" opacity="1"><g id="node_expander49" style="cursor: pointer;" display="none"><path id="kity_path_624" fill="white" stroke="gray" d="M400.50000228732824,1692.5000121966004A6,6,0,1,1,388.50000228732824,1692.5000121966004A6,6,0,1,1,400.50000228732824,1692.5000121966004"></path><path id="kity_path_625" fill="none" stroke="gray"></path></g><path id="node_outline50" fill="none" stroke="none" d="M405.5000025257468,1681.5000121966004h59a5,5,0,0,1,5,5v12a5,5,0,0,1,-5,5h-59a5,5,0,0,1,-5,-5v-12a5,5,0,0,1,5,-5z" stroke-width="3"></path><g id="node_text50" fill="black"><text id="kity_text_621" text-rendering="inherit" font-size="12" dy=".8em" y="1684.7000121697783" x="410.5000025257468">日志模型</text></g></g><g id="minder_node51"><g id="node_expander50" style="cursor: pointer;" display="none"><path id="kity_path_632" fill="white" stroke="gray" d="M390.50000213831663,1812.5000139847398A6,6,0,1,1,378.50000213831663,1812.5000139847398A6,6,0,1,1,390.50000213831663,1812.5000139847398"></path><path id="kity_path_633" fill="none" stroke="gray"></path></g><path id="node_outline51" fill="none" stroke="none" d="M395.5000023767352,1801.5000139847398h103a5,5,0,0,1,5,5v12a5,5,0,0,1,-5,5h-103a5,5,0,0,1,-5,-5v-12a5,5,0,0,1,5,-5z" stroke-width="3"></path><g id="node_text51" fill="black"><text id="kity_text_629" text-rendering="inherit" font-size="12" dy=".8em" y="1804.7000139579177" x="400.5000023767352">追溯建模(全链路)</text></g></g><g id="minder_node45"><g id="node_expander44" style="cursor: pointer;" display="none"><path id="kity_path_571" fill="white" stroke="gray" d="M653.500006057322,1820.500014103949A6,6,0,1,1,641.500006057322,1820.500014103949A6,6,0,1,1,653.500006057322,1820.500014103949"></path><path id="kity_path_572" fill="none" stroke="gray"></path></g><path id="node_outline45" fill="none" stroke="none" d="M658.5000062957406,1809.500014103949h227a5,5,0,0,1,5,5v12a5,5,0,0,1,-5,5h-227a5,5,0,0,1,-5,-5v-12a5,5,0,0,1,5,-5z" stroke-width="3"></path><g id="node_text45" fill="black"><text id="kity_text_568" text-rendering="inherit" font-size="12" dy=".8em" y="1812.700014077127" x="663.5000062957406">cpu：可用数&amp;numa插槽&amp;cgroup limit</text></g></g><g id="minder_node46"><g id="node_expander45" style="cursor: pointer;" display="none"><path id="kity_path_583" fill="white" stroke="gray" d="M653.500006057322,1872.5000148788095A6,6,0,1,1,641.500006057322,1872.5000148788095A6,6,0,1,1,653.500006057322,1872.5000148788095"></path><path id="kity_path_584" fill="none" stroke="gray"></path></g><path id="node_outline46" fill="none" stroke="none" d="M658.5000062957406,1861.5000148788095h200a5,5,0,0,1,5,5v12a5,5,0,0,1,-5,5h-200a5,5,0,0,1,-5,-5v-12a5,5,0,0,1,5,-5z" stroke-width="3"></path><g id="node_text46" fill="black"><text id="kity_text_580" text-rendering="inherit" font-size="12" dy=".8em" y="1864.7000148519874" x="663.5000062957406">内存 swap &amp; jvm 内存 &amp; jvm 算法</text></g></g><g id="minder_node47"><g id="node_expander46" style="cursor: pointer;" display="none"><path id="kity_path_591" fill="white" stroke="gray" d="M653.500006057322,1924.5000156536698A6,6,0,1,1,641.500006057322,1924.5000156536698A6,6,0,1,1,653.500006057322,1924.5000156536698"></path><path id="kity_path_592" fill="none" stroke="gray"></path></g><path id="node_outline47" fill="none" stroke="none" d="M658.5000062957406,1913.5000156536698h48a5,5,0,0,1,5,5v12a5,5,0,0,1,-5,5h-48a5,5,0,0,1,-5,-5v-12a5,5,0,0,1,5,-5z" stroke-width="3"></path><g id="node_text47" fill="black"><text id="kity_text_588" text-rendering="inherit" font-size="12" dy=".8em" y="1916.7000156268477" x="663.5000062957406">句柄数</text></g></g><g id="minder_node48"><g id="node_expander47" style="cursor: pointer;" display="none"><path id="kity_path_599" fill="white" stroke="gray" d="M653.500006057322,1976.5000164285302A6,6,0,1,1,641.500006057322,1976.5000164285302A6,6,0,1,1,653.500006057322,1976.5000164285302"></path><path id="kity_path_600" fill="none" stroke="gray"></path></g><path id="node_outline48" fill="none" stroke="none" d="M658.5000062957406,1965.5000164285302h51a5,5,0,0,1,5,5v12a5,5,0,0,1,-5,5h-51a5,5,0,0,1,-5,-5v-12a5,5,0,0,1,5,-5z" stroke-width="3"></path><g id="node_text48" fill="black"><text id="kity_text_596" text-rendering="inherit" font-size="12" dy=".8em" y="1968.7000164017081" x="663.5000062957406">cgroup</text></g></g><g id="minder_node63"><g id="node_expander62" style="cursor: pointer;" display="none"><path id="kity_path_854" fill="white" stroke="gray" d="M653.500006057322,2028.5000172033906A6,6,0,1,1,641.500006057322,2028.5000172033906A6,6,0,1,1,653.500006057322,2028.5000172033906"></path><path id="kity_path_855" fill="none" stroke="gray"></path></g><path id="node_outline63" fill="none" stroke="none" d="M658.5000062957406,2017.5000172033906h59a5,5,0,0,1,5,5v12a5,5,0,0,1,-5,5h-59a5,5,0,0,1,-5,-5v-12a5,5,0,0,1,5,-5z" stroke-width="3"></path><g id="node_text63" fill="black"><text id="kity_text_851" text-rendering="inherit" font-size="12" dy=".8em" y="2020.7000171765685" x="663.5000062957406">配置外挂</text></g></g><g id="minder_node44" opacity="1"><g id="node_expander43" style="cursor: pointer;"><path id="kity_path_563" fill="white" stroke="gray" d="M543.5000044181943,1924.5000156536698A6,6,0,1,1,531.5000044181943,1924.5000156536698A6,6,0,1,1,543.5000044181943,1924.5000156536698"></path><path id="kity_path_564" fill="none" stroke="gray" d="M533.0000044181943,1924.5000156536698L542.0000044181943,1924.5000156536698"></path></g><path id="node_outline44" fill="none" stroke="none" d="M548.5000046566129,1913.5000156536698h60a5,5,0,0,1,5,5v12a5,5,0,0,1,-5,5h-60a5,5,0,0,1,-5,-5v-12a5,5,0,0,1,5,-5z" stroke-width="3"></path><g id="node_text44" fill="black"><text id="kity_text_560" text-rendering="inherit" font-size="12" dy=".8em" y="1916.7000156268477" x="553.5000046566129">checklist</text></g></g><g id="minder_node62" opacity="1"><g id="node_expander61" style="cursor: pointer;" display="none"><path id="kity_path_846" fill="white" stroke="gray" d="M551.5000045374036,2104.500018335879A6,6,0,1,1,539.5000045374036,2104.500018335879A6,6,0,1,1,551.5000045374036,2104.500018335879"></path><path id="kity_path_847" fill="none" stroke="gray"></path></g><path id="node_outline62" fill="none" stroke="none" d="M556.5000047758222,2093.500018335879h60a5,5,0,0,1,5,5v12a5,5,0,0,1,-5,5h-60a5,5,0,0,1,-5,-5v-12a5,5,0,0,1,5,-5z" stroke-width="3"></path><g id="node_text62" fill="black"><text id="kity_text_843" text-rendering="inherit" font-size="12" dy=".8em" y="2096.7000183090568" x="561.5000047758222">磁盘管理</text></g></g><g id="minder_node57"><g id="node_expander56" style="cursor: pointer;" display="none"><path id="kity_path_746" fill="white" stroke="gray" d="M437.5000028386712,2200.5000197663903A6,6,0,1,1,425.5000028386712,2200.5000197663903A6,6,0,1,1,437.5000028386712,2200.5000197663903"></path><path id="kity_path_747" fill="none" stroke="gray"></path></g><path id="node_outline57" fill="none" stroke="none" d="M442.5000030770898,2189.5000197663903h59a5,5,0,0,1,5,5v12a5,5,0,0,1,-5,5h-59a5,5,0,0,1,-5,-5v-12a5,5,0,0,1,5,-5z" stroke-width="3"></path><g id="node_text57" fill="black"><text id="kity_text_743" text-rendering="inherit" font-size="12" dy=".8em" y="2192.7000197395682" x="447.5000030770898">容量规划</text></g></g><g id="minder_node58"><g id="node_expander57" style="cursor: pointer;" display="none"><path id="kity_path_755" fill="white" stroke="gray" d="M437.5000028386712,2252.5000205412507A6,6,0,1,1,425.5000028386712,2252.5000205412507A6,6,0,1,1,437.5000028386712,2252.5000205412507"></path><path id="kity_path_756" fill="none" stroke="gray"></path></g><path id="node_outline58" fill="none" stroke="none" d="M442.5000030770898,2241.5000205412507h83a5,5,0,0,1,5,5v12a5,5,0,0,1,-5,5h-83a5,5,0,0,1,-5,-5v-12a5,5,0,0,1,5,-5z" stroke-width="3"></path><g id="node_text58" fill="black"><text id="kity_text_752" text-rendering="inherit" font-size="12" dy=".8em" y="2244.7000205144286" x="447.5000030770898">生命周期规划</text></g></g><g id="minder_node59"><g id="node_expander58" style="cursor: pointer;" display="none"><path id="kity_path_820" fill="white" stroke="gray" d="M437.5000028386712,2304.500021316111A6,6,0,1,1,425.5000028386712,2304.500021316111A6,6,0,1,1,437.5000028386712,2304.500021316111"></path><path id="kity_path_821" fill="none" stroke="gray"></path></g><path id="node_outline59" fill="none" stroke="none" d="M442.5000030770898,2293.500021316111h60a5,5,0,0,1,5,5v12a5,5,0,0,1,-5,5h-60a5,5,0,0,1,-5,-5v-12a5,5,0,0,1,5,-5z" stroke-width="3"></path><g id="node_text59" fill="black"><text id="kity_text_817" text-rendering="inherit" font-size="12" dy=".8em" y="2296.700021289289" x="447.5000030770898">分支主题</text></g></g><g id="minder_node28"><g id="node_expander27" style="cursor: pointer;" display="none"><path id="kity_path_296" fill="white" stroke="gray" d="M511.50000394135714,291.4999913200736A6,6,0,1,1,499.50000394135714,291.4999913200736A6,6,0,1,1,511.50000394135714,291.4999913200736"></path><path id="kity_path_297" fill="none" stroke="gray"></path></g><path id="node_outline28" fill="none" stroke="none" d="M516.5000041797757,280.4999913200736h60a5,5,0,0,1,5,5v12a5,5,0,0,1,-5,5h-60a5,5,0,0,1,-5,-5v-12a5,5,0,0,1,5,-5z" stroke-width="3"></path><g id="node_text28" fill="black"><text id="kity_text_293" text-rendering="inherit" font-size="12" dy=".8em" y="283.6999912932515" x="521.5000041797757">集群术语</text></g></g><g id="minder_node29"><g id="node_expander28" style="cursor: pointer;" display="none"><path id="kity_path_305" fill="white" stroke="gray" d="M511.50000394135714,343.499992094934A6,6,0,1,1,499.50000394135714,343.499992094934A6,6,0,1,1,511.50000394135714,343.499992094934"></path><path id="kity_path_306" fill="none" stroke="gray"></path></g><path id="node_outline29" fill="none" stroke="none" d="M516.5000041797757,332.499992094934h84a5,5,0,0,1,5,5v12a5,5,0,0,1,-5,5h-84a5,5,0,0,1,-5,-5v-12a5,5,0,0,1,5,-5z" stroke-width="3"></path><g id="node_text29" fill="black"><text id="kity_text_302" text-rendering="inherit" font-size="12" dy=".8em" y="335.6999920681119" x="521.5000041797757">数据模型术语</text></g></g><g id="minder_node30"><g id="node_expander29" style="cursor: pointer;" display="none"><path id="kity_path_329" fill="white" stroke="gray" d="M511.50000394135714,395.49999286979437A6,6,0,1,1,499.50000394135714,395.49999286979437A6,6,0,1,1,511.50000394135714,395.49999286979437"></path><path id="kity_path_330" fill="none" stroke="gray"></path></g><path id="node_outline30" fill="none" stroke="none" d="M516.5000041797757,384.49999286979437h60a5,5,0,0,1,5,5v12a5,5,0,0,1,-5,5h-60a5,5,0,0,1,-5,-5v-12a5,5,0,0,1,5,-5z" stroke-width="3"></path><g id="node_text30" fill="black"><text id="kity_text_326" text-rendering="inherit" font-size="12" dy=".8em" y="387.6999928429723" x="521.5000041797757">其他术语</text></g></g><g id="minder_node4"><g id="node_expander3" style="cursor: pointer;" display="none"><path id="kity_path_52" fill="white" stroke="gray" d="M666.5000062510371,499.49999441951513A6,6,0,1,1,654.5000062510371,499.49999441951513A6,6,0,1,1,666.5000062510371,499.49999441951513"></path><path id="kity_path_53" fill="none" stroke="gray"></path></g><path id="node_outline4" fill="none" stroke="none" d="M671.5000064894557,488.49999441951513h60a5,5,0,0,1,5,5v12a5,5,0,0,1,-5,5h-60a5,5,0,0,1,-5,-5v-12a5,5,0,0,1,5,-5z" stroke-width="3"></path><g id="node_text4" fill="black"><text id="kity_text_49" text-rendering="inherit" font-size="12" dy=".8em" y="491.69999439269304" x="676.5000064894557">基础类型</text></g></g><g id="minder_node5"><g id="node_expander4" style="cursor: pointer;" display="none"><path id="kity_path_62" fill="white" stroke="gray" d="M666.5000062510371,551.4999951943755A6,6,0,1,1,654.5000062510371,551.4999951943755A6,6,0,1,1,666.5000062510371,551.4999951943755"></path><path id="kity_path_63" fill="none" stroke="gray"></path></g><path id="node_outline5" fill="none" stroke="none" d="M671.5000064894557,540.4999951943755h60a5,5,0,0,1,5,5v12a5,5,0,0,1,-5,5h-60a5,5,0,0,1,-5,-5v-12a5,5,0,0,1,5,-5z" stroke-width="3"></path><g id="node_text5" fill="black"><text id="kity_text_59" text-rendering="inherit" font-size="12" dy=".8em" y="543.6999951675534" x="676.5000064894557">复杂类型</text></g></g><g id="minder_node6"><g id="node_expander5" style="cursor: pointer;" display="none"><path id="kity_path_70" fill="white" stroke="gray" d="M666.5000062510371,603.4999959692359A6,6,0,1,1,654.5000062510371,603.4999959692359A6,6,0,1,1,666.5000062510371,603.4999959692359"></path><path id="kity_path_71" fill="none" stroke="gray"></path></g><path id="node_outline6" fill="none" stroke="none" d="M671.5000064894557,592.4999959692359h60a5,5,0,0,1,5,5v12a5,5,0,0,1,-5,5h-60a5,5,0,0,1,-5,-5v-12a5,5,0,0,1,5,-5z" stroke-width="3"></path><g id="node_text6" fill="black"><text id="kity_text_67" text-rendering="inherit" font-size="12" dy=".8em" y="595.6999959424138" x="676.5000064894557">特殊类型</text></g></g><g id="minder_node9"><g id="node_expander8" style="cursor: pointer;" display="none"><path id="kity_path_94" fill="white" stroke="gray" d="M468.5000033006072,633.4999964162707A6,6,0,1,1,456.5000033006072,633.4999964162707A6,6,0,1,1,468.5000033006072,633.4999964162707"></path><path id="kity_path_95" fill="none" stroke="gray"></path></g><path id="node_outline9" fill="none" stroke="none" d="M473.5000035390258,622.4999964162707h44a5,5,0,0,1,5,5v12a5,5,0,0,1,-5,5h-44a5,5,0,0,1,-5,-5v-12a5,5,0,0,1,5,-5z" stroke-width="3"></path><g id="node_text9" fill="black"><text id="kity_text_91" text-rendering="inherit" font-size="12" dy=".8em" y="625.6999963894486" x="478.5000035390258">CURD</text></g></g><g id="minder_node10"><g id="node_expander9" style="cursor: pointer;" display="none"><path id="kity_path_102" fill="white" stroke="gray" d="M468.5000033006072,685.4999971911311A6,6,0,1,1,456.5000033006072,685.4999971911311A6,6,0,1,1,468.5000033006072,685.4999971911311"></path><path id="kity_path_103" fill="none" stroke="gray"></path></g><path id="node_outline10" fill="none" stroke="none" d="M473.5000035390258,674.4999971911311h60a5,5,0,0,1,5,5v12a5,5,0,0,1,-5,5h-60a5,5,0,0,1,-5,-5v-12a5,5,0,0,1,5,-5z" stroke-width="3"></path><g id="node_text10" fill="black"><text id="kity_text_99" text-rendering="inherit" font-size="12" dy=".8em" y="677.699997164309" x="478.5000035390258">系统管理</text></g></g><g id="minder_node67" opacity="1"><g id="node_expander66" style="cursor: pointer;" display="none"><path id="kity_path_898" fill="white" stroke="gray" d="M942.5000103637576,556.4999952688813A6,6,0,1,1,930.5000103637576,556.4999952688813A6,6,0,1,1,942.5000103637576,556.4999952688813"></path><path id="kity_path_899" fill="none" stroke="gray"></path></g><path id="node_outline67" fill="none" stroke="none" d="M947.5000106021762,545.4999952688813h60a5,5,0,0,1,5,5v12a5,5,0,0,1,-5,5h-60a5,5,0,0,1,-5,-5v-12a5,5,0,0,1,5,-5z" stroke-width="3"></path><g id="node_text67" fill="black"><text id="kity_text_895" text-rendering="inherit" font-size="12" dy=".8em" y="548.6999952420592" x="952.5000106021762">逻辑嵌套</text></g></g><g id="minder_node68"><g id="node_expander67" style="cursor: pointer;" display="none"><path id="kity_path_906" fill="white" stroke="gray" d="M943.5000103786588,641.49999653548A6,6,0,1,1,931.5000103786588,641.49999653548A6,6,0,1,1,943.5000103786588,641.49999653548"></path><path id="kity_path_907" fill="none" stroke="gray"></path></g><path id="node_outline68" fill="none" stroke="none" d="M948.5000106170774,630.49999653548h83a5,5,0,0,1,5,5v12a5,5,0,0,1,-5,5h-83a5,5,0,0,1,-5,-5v-12a5,5,0,0,1,5,-5z" stroke-width="3"></path><g id="node_text68" fill="black"><text id="kity_text_903" text-rendering="inherit" font-size="12" dy=".8em" y="633.6999965086579" x="953.5000106170774">单一条件查询</text></g></g><g id="minder_node65"><g id="node_expander64" style="cursor: pointer;"><path id="kity_path_882" fill="white" stroke="gray" d="M849.5000089779496,615.4999961480498A6,6,0,1,1,837.5000089779496,615.4999961480498A6,6,0,1,1,849.5000089779496,615.4999961480498"></path><path id="kity_path_883" fill="none" stroke="gray" d="M839.0000089779496,615.4999961480498L848.0000089779496,615.4999961480498"></path></g><path id="node_outline65" fill="none" stroke="none" d="M854.5000092163682,604.4999961480498h44a5,5,0,0,1,5,5v12a5,5,0,0,1,-5,5h-44a5,5,0,0,1,-5,-5v-12a5,5,0,0,1,5,-5z" stroke-width="3"></path><g id="node_text65" fill="black"><text id="kity_text_879" text-rendering="inherit" font-size="12" dy=".8em" y="607.6999961212277" x="859.5000092163682">query</text></g></g><g id="minder_node66"><g id="node_expander65" style="cursor: pointer;" display="none"><path id="kity_path_890" fill="white" stroke="gray" d="M849.5000089779496,693.4999973103404A6,6,0,1,1,837.5000089779496,693.4999973103404A6,6,0,1,1,849.5000089779496,693.4999973103404"></path><path id="kity_path_891" fill="none" stroke="gray"></path></g><path id="node_outline66" fill="none" stroke="none" d="M854.5000092163682,682.4999973103404h37a5,5,0,0,1,5,5v12a5,5,0,0,1,-5,5h-37a5,5,0,0,1,-5,-5v-12a5,5,0,0,1,5,-5z" stroke-width="3"></path><g id="node_text66" fill="black"><text id="kity_text_887" text-rendering="inherit" font-size="12" dy=".8em" y="685.6999972835183" x="859.5000092163682">filter</text></g></g><g id="minder_node20" opacity="1"><g id="node_expander19" style="cursor: pointer;"><path id="kity_path_186" fill="white" stroke="gray" d="M739.5000073388219,654.4999967291951A6,6,0,1,1,727.5000073388219,654.4999967291951A6,6,0,1,1,739.5000073388219,654.4999967291951"></path><path id="kity_path_187" fill="none" stroke="gray" d="M729.0000073388219,654.4999967291951L738.0000073388219,654.4999967291951"></path></g><path id="node_outline20" fill="none" stroke="none" d="M744.5000075772405,643.4999967291951h60a5,5,0,0,1,5,5v12a5,5,0,0,1,-5,5h-60a5,5,0,0,1,-5,-5v-12a5,5,0,0,1,5,-5z" stroke-width="3"></path><g id="node_text20" fill="black"><text id="kity_text_183" text-rendering="inherit" font-size="12" dy=".8em" y="646.699996702373" x="749.5000075772405">基础检索</text></g></g><g id="minder_node21" opacity="1"><g id="node_expander20" style="cursor: pointer;" display="none"><path id="kity_path_194" fill="white" stroke="gray" d="M739.5000073388219,745.4999980852008A6,6,0,1,1,727.5000073388219,745.4999980852008A6,6,0,1,1,739.5000073388219,745.4999980852008"></path><path id="kity_path_195" fill="none" stroke="gray"></path></g><path id="node_outline21" fill="none" stroke="none" d="M744.5000075772405,734.4999980852008h65a5,5,0,0,1,5,5v12a5,5,0,0,1,-5,5h-65a5,5,0,0,1,-5,-5v-12a5,5,0,0,1,5,-5z" stroke-width="3"></path><g id="node_text21" fill="black"><text id="kity_text_191" text-rendering="inherit" font-size="12" dy=".8em" y="737.6999980583787" x="749.5000075772405">聚合(agg)</text></g></g><g id="minder_node34" opacity="1"><g id="node_expander33" style="cursor: pointer;" display="none"><path id="kity_path_371" fill="white" stroke="gray" d="M739.5000073388219,797.4999988600612A6,6,0,1,1,727.5000073388219,797.4999988600612A6,6,0,1,1,739.5000073388219,797.4999988600612"></path><path id="kity_path_372" fill="none" stroke="gray"></path></g><path id="node_outline34" fill="none" stroke="none" d="M744.5000075772405,786.4999988600612h60a5,5,0,0,1,5,5v12a5,5,0,0,1,-5,5h-60a5,5,0,0,1,-5,-5v-12a5,5,0,0,1,5,-5z" stroke-width="3"></path><g id="node_text34" fill="black"><text id="kity_text_368" text-rendering="inherit" font-size="12" dy=".8em" y="789.6999988332391" x="749.5000075772405">性能分析</text></g></g><g id="minder_node35"><g id="node_expander34" style="cursor: pointer;" display="none"><path id="kity_path_453" fill="white" stroke="gray" d="M739.5000073388219,849.4999996349216A6,6,0,1,1,727.5000073388219,849.4999996349216A6,6,0,1,1,739.5000073388219,849.4999996349216"></path><path id="kity_path_454" fill="none" stroke="gray"></path></g><path id="node_outline35" fill="none" stroke="none" d="M744.5000075772405,838.4999996349216h36a5,5,0,0,1,5,5v12a5,5,0,0,1,-5,5h-36a5,5,0,0,1,-5,-5v-12a5,5,0,0,1,5,-5z" stroke-width="3"></path><g id="node_text35" fill="black"><text id="kity_text_450" text-rendering="inherit" font-size="12" dy=".8em" y="841.6999996080995" x="749.5000075772405">高亮</text></g></g><g id="minder_node36"><g id="node_expander35" style="cursor: pointer;" display="none"><path id="kity_path_461" fill="white" stroke="gray" d="M739.5000073388219,901.5000004097819A6,6,0,1,1,727.5000073388219,901.5000004097819A6,6,0,1,1,739.5000073388219,901.5000004097819"></path><path id="kity_path_462" fill="none" stroke="gray"></path></g><path id="node_outline36" fill="none" stroke="none" d="M744.5000075772405,890.5000004097819h36a5,5,0,0,1,5,5v12a5,5,0,0,1,-5,5h-36a5,5,0,0,1,-5,-5v-12a5,5,0,0,1,5,-5z" stroke-width="3"></path><g id="node_text36" fill="black"><text id="kity_text_458" text-rendering="inherit" font-size="12" dy=".8em" y="893.7000003829598" x="749.5000075772405">提醒</text></g></g></g></g></svg>