<svg id="kity_svg_6" xmlns="http://www.w3.org/2000/svg" xmlns:xlink="http://www.w3.org/1999/xlink" version="1.1" width="674" height="998" style="background: rgb(251, 251, 251); visibility: visible;" viewBox="0 0 674 998"><defs id="kity_defs_7"><linearGradient id="kity_linearGradient_17" x1="0" y1="0" x2="0" y2="1"><stop id="kity_stop_18" offset="0" stop-color="rgb(255, 255, 255)"></stop><stop id="kity_stop_19" offset="1" stop-color="rgb(204, 204, 204)"></stop></linearGradient><marker id="kity_marker_2" orient="auto" refX="6" refY="0" viewBox="-7 -7 14 14" markerWidth="7" markerHeight="7" markerUnits="userSpaceOnUse"><path id="kity_path_3" fill="rgb(115, 161, 191)" stroke="none" d="M6,0A6,6,0,1,1,-6,0A6,6,0,1,1,6,0"></path></marker></defs><g id="kity_g_8"><g id="minder1" text-rendering="optimize-speed"><g id="minder_connect_group1"><path id="kity_path_31" fill="none" stroke="rgb(115, 161, 191)" stroke-width="1" d="M86.00000327080488,547.5000053569674A240.5,413,0,0,1,326.5000032708049,134.50000535696745"></path><path id="kity_path_43" fill="none" stroke="rgb(115, 161, 191)" stroke-width="1" d="M86.00000327080488,547.5000053569674A208.5,103,0,0,1,294.5000032708049,444.50000535696745"></path><path id="kity_path_143" fill="none" stroke="rgb(115, 161, 191)" stroke-width="1" d="M86.00000327080488,547.5000053569674A192.5,239,0,0,0,278.5000032708049,786.5000053569674"></path><path id="kity_path_203" fill="none" stroke="rgb(115, 161, 191)" stroke-width="1" d="M86.00000327080488,547.5000053569674A192.5,417,0,0,0,278.5000032708049,964.5000053569674"></path><path id="kity_path_230" fill="none" stroke="rgb(115, 161, 191)" stroke-width="1" d="M381.5000032708049,786.5000053569674C396.5000032708049,786.5000053569674,396.5000032708049,722.5000053569674,411.5000032708049,722.5000053569674L623.5000032708049,722.5000053569674"></path><path id="kity_path_231" fill="none" stroke="rgb(115, 161, 191)" stroke-width="1" d="M381.5000032708049,786.5000053569674C396.5000032708049,786.5000053569674,396.5000032708049,774.5000053569674,411.5000032708049,774.5000053569674L527.5000032708049,774.5000053569674"></path><path id="kity_path_232" fill="none" stroke="rgb(115, 161, 191)" stroke-width="1" d="M381.5000032708049,786.5000053569674C396.5000032708049,786.5000053569674,396.5000032708049,826.5000053569674,411.5000032708049,826.5000053569674L538.5000032708049,826.5000053569674"></path><path id="kity_path_233" fill="none" stroke="rgb(115, 161, 191)" stroke-width="1" d="M381.5000032708049,786.5000053569674C396.5000032708049,786.5000053569674,396.5000032708049,878.5000053569674,411.5000032708049,878.5000053569674L642.5000032708049,878.5000053569674"></path><path id="kity_path_234" fill="none" stroke="rgb(115, 161, 191)" stroke-width="1" d="M523.5000032708049,134.50000535696745C538.5000032708049,134.50000535696745,538.5000032708049,44.50000535696745,553.5000032708049,44.50000535696745L618.5000032708049,44.50000535696745"></path><path id="kity_path_235" fill="none" stroke="rgb(115, 161, 191)" stroke-width="1" d="M523.5000032708049,134.50000535696745C538.5000032708049,134.50000535696745,538.5000032708049,96.50000535696745,553.5000032708049,96.50000535696745L613.5000032708049,96.50000535696745"></path><path id="kity_path_236" fill="none" stroke="rgb(115, 161, 191)" stroke-width="1" d="M523.5000032708049,134.50000535696745C538.5000032708049,134.50000535696745,538.5000032708049,148.50000535696745,553.5000032708049,148.50000535696745L654.5000032708049,148.50000535696745"></path><path id="kity_path_237" fill="none" stroke="rgb(115, 161, 191)" stroke-width="1" d="M523.5000032708049,134.50000535696745C538.5000032708049,134.50000535696745,538.5000032708049,200.50000535696745,553.5000032708049,200.50000535696745L609.5000032708049,200.50000535696745"></path><path id="kity_path_238" fill="none" stroke="rgb(115, 161, 191)" stroke-width="1" d="M523.5000032708049,134.50000535696745C538.5000032708049,134.50000535696745,538.5000032708049,252.50000535696745,553.5000032708049,252.50000535696745L632.5000032708049,252.50000535696745"></path><path id="kity_path_239" fill="none" stroke="rgb(115, 161, 191)" stroke-width="1" d="M503.5000032708049,444.50000535696745C518.5000032708049,444.50000535696745,518.5000032708049,302.50000535696745,533.5000032708049,302.50000535696745L598.5000032708049,302.50000535696745"></path><path id="kity_path_240" fill="none" stroke="rgb(115, 161, 191)" stroke-width="1" d="M503.5000032708049,444.50000535696745C518.5000032708049,444.50000535696745,518.5000032708049,354.50000535696745,533.5000032708049,354.50000535696745L593.5000032708049,354.50000535696745"></path><path id="kity_path_241" fill="none" stroke="rgb(115, 161, 191)" stroke-width="1" d="M503.5000032708049,444.50000535696745C518.5000032708049,444.50000535696745,518.5000032708049,406.50000535696745,533.5000032708049,406.50000535696745L611.5000032708049,406.50000535696745"></path><path id="kity_path_242" fill="none" stroke="rgb(115, 161, 191)" stroke-width="1" d="M503.5000032708049,444.50000535696745C518.5000032708049,444.50000535696745,518.5000032708049,458.50000535696745,533.5000032708049,458.50000535696745L591.5000032708049,458.50000535696745"></path><path id="kity_path_243" fill="none" stroke="rgb(115, 161, 191)" stroke-width="1" d="M503.5000032708049,444.50000535696745C518.5000032708049,444.50000535696745,518.5000032708049,510.50000535696745,533.5000032708049,510.50000535696745L612.5000032708049,510.50000535696745"></path><path id="kity_path_244" fill="none" stroke="rgb(115, 161, 191)" stroke-width="1" d="M503.5000032708049,444.50000535696745C518.5000032708049,444.50000535696745,518.5000032708049,562.5000053569674,533.5000032708049,562.5000053569674L629.5000032708049,562.5000053569674"></path><path id="kity_path_245" fill="none" stroke="rgb(115, 161, 191)" stroke-width="1" d="M503.5000032708049,444.50000535696745C518.5000032708049,444.50000535696745,518.5000032708049,614.5000053569674,533.5000032708049,614.5000053569674L589.5000032708049,614.5000053569674"></path></g><g id="minder_node1"><path id="node_outline1" fill="rgb(115, 161, 191)" stroke="rgb(115, 161, 191)" d="M25.500003270804882,527.5000053569674h121a5,5,0,0,1,5,5v30a5,5,0,0,1,-5,5h-121a5,5,0,0,1,-5,-5v-30a5,5,0,0,1,5,-5z" stroke-width="3"></path><g id="node_text1" fill="white"><text id="kity_text_22" text-rendering="inherit" font-size="16" dy=".8em" y="537.1000053212047" x="44.50000327080488">DDL&amp;DML</text></g></g><g id="kity_g_14" display="none"><path id="kity_path_15" fill="rgba(0, 92, 153, 0.5)" stroke="none" d="M-228.49999672919512,580.5000053569674h129v20h-129z"></path><path id="kity_path_16" fill="none" stroke="rgb(0, 76, 128)" d="M-228.49999672919512,600.5000053569674L-99.49999672919512,600.5000053569674" stroke-width="1"></path></g><g id="minder_node2" opacity="1"><g id="node_expander6" style="cursor: pointer;"><path id="kity_path_116" fill="white" stroke="gray" d="M327.50000739842653,134.49999920278788A6,6,0,1,1,315.50000739842653,134.49999920278788A6,6,0,1,1,327.50000739842653,134.49999920278788"></path><path id="kity_path_117" fill="none" stroke="gray" d="M317.00000739842653,134.49999920278788L326.00000739842653,134.49999920278788"></path></g><path id="node_outline7" fill="rgb(238, 243, 246)" stroke="rgb(115, 161, 191)" d="M331.5000078007579,121.49999920278788h189a3,3,0,0,1,3,3v20a3,3,0,0,1,-3,3h-189a3,3,0,0,1,-3,-3v-20a3,3,0,0,1,3,-3z" stroke-width="1"></path><g id="node_text7" fill="black"><text id="kity_text_69" text-rendering="inherit" font-size="14" dy=".8em" y="125.39999917149544" x="348.5000078007579">DDL Database 级别操作</text></g></g><g id="minder_node8" opacity="1"><g id="node_expander14" style="cursor: pointer;"><path id="kity_path_140" fill="white" stroke="gray" d="M295.5000069215894,444.50000382214785A6,6,0,1,1,283.5000069215894,444.50000382214785A6,6,0,1,1,295.5000069215894,444.50000382214785"></path><path id="kity_path_141" fill="none" stroke="gray" d="M285.0000069215894,444.50000382214785L294.0000069215894,444.50000382214785"></path></g><path id="node_outline15" fill="rgb(238, 243, 246)" stroke="rgb(115, 161, 191)" d="M299.5000073239207,431.50000382214785h201a3,3,0,0,1,3,3v20a3,3,0,0,1,-3,3h-201a3,3,0,0,1,-3,-3v-20a3,3,0,0,1,3,-3z" stroke-width="1"></path><g id="node_text15" fill="black"><text id="kity_text_85" text-rendering="inherit" font-size="14" dy=".8em" y="435.4000037908554" x="316.5000073239207">DDL Table/View 级别操作</text></g></g><g id="minder_node16" opacity="1"><g id="node_expander15" style="cursor: pointer;"><path id="kity_path_148" fill="white" stroke="gray" d="M394.50000839680433,786.500008918345A6,6,0,1,1,382.50000839680433,786.500008918345A6,6,0,1,1,394.50000839680433,786.500008918345"></path><path id="kity_path_149" fill="none" stroke="gray" d="M384.00000839680433,786.500008918345L393.00000839680433,786.500008918345"></path></g><path id="node_outline16" fill="rgb(238, 243, 246)" stroke="rgb(115, 161, 191)" d="M283.50000708550215,773.500008918345h95a3,3,0,0,1,3,3v20a3,3,0,0,1,-3,3h-95a3,3,0,0,1,-3,-3v-20a3,3,0,0,1,3,-3z" stroke-width="1"></path><g id="node_text16" fill="black"><text id="kity_text_145" text-rendering="inherit" font-size="14" dy=".8em" y="777.4000088870525" x="300.50000708550215">DMl 操作</text></g></g><g id="kity_g_12" display="none"><path id="kity_path_13" fill="none" stroke="rgb(66, 94, 112)" d="M215.50000327080488,1030.5000053569674h95a3,3,0,0,1,3,3v20a3,3,0,0,1,-3,3h-95a3,3,0,0,1,-3,-3v-20a3,3,0,0,1,3,-3z" stroke-width="5"></path></g><g id="minder_node21" opacity="1"><g id="node_expander20" style="cursor: pointer;" display="none"><path id="kity_path_208" fill="white" stroke="gray" d="M422.50000881403685,964.5000115707517A6,6,0,1,1,410.50000881403685,964.5000115707517A6,6,0,1,1,422.50000881403685,964.5000115707517"></path><path id="kity_path_209" fill="none" stroke="gray"></path></g><path id="node_outline21" fill="rgb(238, 243, 246)" stroke="rgb(115, 161, 191)" d="M283.50000708550215,951.5000115707517h123a3,3,0,0,1,3,3v20a3,3,0,0,1,-3,3h-123a3,3,0,0,1,-3,-3v-20a3,3,0,0,1,3,-3z" stroke-width="1"></path><g id="node_text21" fill="black"><text id="kity_text_205" text-rendering="inherit" font-size="14" dy=".8em" y="955.4000115394592" x="300.50000708550215">hive 并发操作</text></g></g><g id="minder_node17" opacity="1"><g id="node_expander16" style="cursor: pointer;" display="none"><path id="kity_path_175" fill="white" stroke="gray" d="M421.5000087991357,708.5000077560544A6,6,0,1,1,409.5000087991357,708.5000077560544A6,6,0,1,1,421.5000087991357,708.5000077560544"></path><path id="kity_path_176" fill="none" stroke="gray"></path></g><path id="node_outline17" fill="none" stroke="none" d="M426.50000903755426,697.5000077560544h192a5,5,0,0,1,5,5v12a5,5,0,0,1,-5,5h-192a5,5,0,0,1,-5,-5v-12a5,5,0,0,1,5,-5z" stroke-width="3"></path><g id="node_text17" fill="black"><text id="kity_text_172" text-rendering="inherit" font-size="12" dy=".8em" y="700.7000077292323" x="431.50000903755426">从文件导入数据到表（load操作）</text></g></g><g id="minder_node18" opacity="1"><g id="node_expander17" style="cursor: pointer;" display="none"><path id="kity_path_184" fill="white" stroke="gray" d="M421.5000087991357,760.5000085309148A6,6,0,1,1,409.5000087991357,760.5000085309148A6,6,0,1,1,421.5000087991357,760.5000085309148"></path><path id="kity_path_185" fill="none" stroke="gray"></path></g><path id="node_outline18" fill="none" stroke="none" d="M426.50000903755426,749.5000085309148h96a5,5,0,0,1,5,5v12a5,5,0,0,1,-5,5h-96a5,5,0,0,1,-5,-5v-12a5,5,0,0,1,5,-5z" stroke-width="3"></path><g id="node_text18" fill="black"><text id="kity_text_181" text-rendering="inherit" font-size="12" dy=".8em" y="752.7000085040927" x="431.50000903755426">从查询插入数据</text></g></g><g id="minder_node19" opacity="1"><g id="node_expander18" style="cursor: pointer;" display="none"><path id="kity_path_192" fill="white" stroke="gray" d="M421.5000087991357,812.5000093057752A6,6,0,1,1,409.5000087991357,812.5000093057752A6,6,0,1,1,421.5000087991357,812.5000093057752"></path><path id="kity_path_193" fill="none" stroke="gray"></path></g><path id="node_outline19" fill="none" stroke="none" d="M426.50000903755426,801.5000093057752h107a5,5,0,0,1,5,5v12a5,5,0,0,1,-5,5h-107a5,5,0,0,1,-5,-5v-12a5,5,0,0,1,5,-5z" stroke-width="3"></path><g id="node_text19" fill="black"><text id="kity_text_189" text-rendering="inherit" font-size="12" dy=".8em" y="804.7000092789531" x="431.50000903755426">查询写入到文件中</text></g></g><g id="minder_node20" opacity="1"><g id="node_expander19" style="cursor: pointer;" display="none"><path id="kity_path_200" fill="white" stroke="gray" d="M421.5000087991357,864.5000100806355A6,6,0,1,1,409.5000087991357,864.5000100806355A6,6,0,1,1,421.5000087991357,864.5000100806355"></path><path id="kity_path_201" fill="none" stroke="gray"></path></g><path id="node_outline20" fill="none" stroke="none" d="M426.50000903755426,853.5000100806355h211a5,5,0,0,1,5,5v12a5,5,0,0,1,-5,5h-211a5,5,0,0,1,-5,-5v-12a5,5,0,0,1,5,-5z" stroke-width="3"></path><g id="node_text20" fill="black"><text id="kity_text_197" text-rendering="inherit" font-size="12" dy=".8em" y="856.7000100538135" x="431.50000903755426">ACID 表操作(Update Deleta Merge)</text></g></g><g id="minder_node3"><g id="node_expander1" style="cursor: pointer;" display="none"><path id="kity_path_101" fill="white" stroke="gray" d="M563.5000109151006,30.499997653067112A6,6,0,1,1,551.5000109151006,30.499997653067112A6,6,0,1,1,563.5000109151006,30.499997653067112"></path><path id="kity_path_102" fill="none" stroke="gray"></path></g><path id="node_outline2" fill="none" stroke="none" d="M568.5000111535192,19.499997653067112h45a5,5,0,0,1,5,5v12a5,5,0,0,1,-5,5h-45a5,5,0,0,1,-5,-5v-12a5,5,0,0,1,5,-5z"></path><g id="node_text2" fill="black"><text id="kity_text_59" text-rendering="inherit" font-size="12" dy=".8em" y="22.699997626245022" x="573.5000111535192">create</text></g></g><g id="minder_node4"><g id="node_expander2" style="cursor: pointer;" display="none"><path id="kity_path_104" fill="white" stroke="gray" d="M563.5000109151006,82.4999984279275A6,6,0,1,1,551.5000109151006,82.4999984279275A6,6,0,1,1,563.5000109151006,82.4999984279275"></path><path id="kity_path_105" fill="none" stroke="gray"></path></g><path id="node_outline3" fill="none" stroke="none" d="M568.5000111535192,71.4999984279275h40a5,5,0,0,1,5,5v12a5,5,0,0,1,-5,5h-40a5,5,0,0,1,-5,-5v-12a5,5,0,0,1,5,-5z"></path><g id="node_text3" fill="black"><text id="kity_text_61" text-rendering="inherit" font-size="12" dy=".8em" y="74.6999984011054" x="573.5000111535192">show</text></g></g><g id="minder_node5"><g id="node_expander3" style="cursor: pointer;" display="none"><path id="kity_path_107" fill="white" stroke="gray" d="M563.5000109151006,134.49999920278788A6,6,0,1,1,551.5000109151006,134.49999920278788A6,6,0,1,1,563.5000109151006,134.49999920278788"></path><path id="kity_path_108" fill="none" stroke="gray"></path></g><path id="node_outline4" fill="none" stroke="none" d="M568.5000111535192,123.49999920278788h81a5,5,0,0,1,5,5v12a5,5,0,0,1,-5,5h-81a5,5,0,0,1,-5,-5v-12a5,5,0,0,1,5,-5z"></path><g id="node_text4" fill="black"><text id="kity_text_63" text-rendering="inherit" font-size="12" dy=".8em" y="126.69999917596579" x="573.5000111535192">drop(delete)</text></g></g><g id="minder_node6"><g id="node_expander4" style="cursor: pointer;" display="none"><path id="kity_path_110" fill="white" stroke="gray" d="M563.5000109151006,186.49999997764826A6,6,0,1,1,551.5000109151006,186.49999997764826A6,6,0,1,1,563.5000109151006,186.49999997764826"></path><path id="kity_path_111" fill="none" stroke="gray"></path></g><path id="node_outline5" fill="none" stroke="none" d="M568.5000111535192,175.49999997764826h36a5,5,0,0,1,5,5v12a5,5,0,0,1,-5,5h-36a5,5,0,0,1,-5,-5v-12a5,5,0,0,1,5,-5z"></path><g id="node_text5" fill="black"><text id="kity_text_65" text-rendering="inherit" font-size="12" dy=".8em" y="178.69999995082617" x="573.5000111535192">alter</text></g></g><g id="minder_node7"><g id="node_expander5" style="cursor: pointer;" display="none"><path id="kity_path_113" fill="white" stroke="gray" d="M563.5000109151006,238.50000075250864A6,6,0,1,1,551.5000109151006,238.50000075250864A6,6,0,1,1,563.5000109151006,238.50000075250864"></path><path id="kity_path_114" fill="none" stroke="gray"></path></g><path id="node_outline6" fill="none" stroke="none" d="M568.5000111535192,227.50000075250864h59a5,5,0,0,1,5,5v12a5,5,0,0,1,-5,5h-59a5,5,0,0,1,-5,-5v-12a5,5,0,0,1,5,-5z"></path><g id="node_text6" fill="black"><text id="kity_text_67" text-rendering="inherit" font-size="12" dy=".8em" y="230.70000072568655" x="573.5000111535192">describe</text></g></g><g id="minder_node9"><g id="node_expander7" style="cursor: pointer;" display="none"><path id="kity_path_119" fill="white" stroke="gray" d="M543.5000106170774,288.5000014975667A6,6,0,1,1,531.5000106170774,288.5000014975667A6,6,0,1,1,543.5000106170774,288.5000014975667"></path><path id="kity_path_120" fill="none" stroke="gray"></path></g><path id="node_outline8" fill="none" stroke="none" d="M548.5000108554959,277.5000014975667h45a5,5,0,0,1,5,5v12a5,5,0,0,1,-5,5h-45a5,5,0,0,1,-5,-5v-12a5,5,0,0,1,5,-5z"></path><g id="node_text8" fill="black"><text id="kity_text_71" text-rendering="inherit" font-size="12" dy=".8em" y="280.7000014707446" x="553.5000108554959">create</text></g></g><g id="minder_node10"><g id="node_expander8" style="cursor: pointer;" display="none"><path id="kity_path_122" fill="white" stroke="gray" d="M543.5000106170774,340.5000022724271A6,6,0,1,1,531.5000106170774,340.5000022724271A6,6,0,1,1,543.5000106170774,340.5000022724271"></path><path id="kity_path_123" fill="none" stroke="gray"></path></g><path id="node_outline9" fill="none" stroke="none" d="M548.5000108554959,329.5000022724271h40a5,5,0,0,1,5,5v12a5,5,0,0,1,-5,5h-40a5,5,0,0,1,-5,-5v-12a5,5,0,0,1,5,-5z"></path><g id="node_text9" fill="black"><text id="kity_text_73" text-rendering="inherit" font-size="12" dy=".8em" y="332.700002245605" x="553.5000108554959">show</text></g></g><g id="minder_node11"><g id="node_expander9" style="cursor: pointer;" display="none"><path id="kity_path_125" fill="white" stroke="gray" d="M543.5000106170774,392.50000304728746A6,6,0,1,1,531.5000106170774,392.50000304728746A6,6,0,1,1,543.5000106170774,392.50000304728746"></path><path id="kity_path_126" fill="none" stroke="gray"></path></g><path id="node_outline10" fill="none" stroke="none" d="M548.5000108554959,381.50000304728746h58a5,5,0,0,1,5,5v12a5,5,0,0,1,-5,5h-58a5,5,0,0,1,-5,-5v-12a5,5,0,0,1,5,-5z"></path><g id="node_text10" fill="black"><text id="kity_text_75" text-rendering="inherit" font-size="12" dy=".8em" y="384.7000030204654" x="553.5000108554959">truncate</text></g></g><g id="minder_node12"><g id="node_expander10" style="cursor: pointer;" display="none"><path id="kity_path_128" fill="white" stroke="gray" d="M543.5000106170774,444.50000382214785A6,6,0,1,1,531.5000106170774,444.50000382214785A6,6,0,1,1,543.5000106170774,444.50000382214785"></path><path id="kity_path_129" fill="none" stroke="gray"></path></g><path id="node_outline11" fill="none" stroke="none" d="M548.5000108554959,433.50000382214785h38a5,5,0,0,1,5,5v12a5,5,0,0,1,-5,5h-38a5,5,0,0,1,-5,-5v-12a5,5,0,0,1,5,-5z"></path><g id="node_text11" fill="black"><text id="kity_text_77" text-rendering="inherit" font-size="12" dy=".8em" y="436.70000379532576" x="553.5000108554959">drop</text></g></g><g id="minder_node13"><g id="node_expander11" style="cursor: pointer;" display="none"><path id="kity_path_131" fill="white" stroke="gray" d="M543.5000106170774,496.5000045970082A6,6,0,1,1,531.5000106170774,496.5000045970082A6,6,0,1,1,543.5000106170774,496.5000045970082"></path><path id="kity_path_132" fill="none" stroke="gray"></path></g><path id="node_outline12" fill="none" stroke="none" d="M548.5000108554959,485.5000045970082h59a5,5,0,0,1,5,5v12a5,5,0,0,1,-5,5h-59a5,5,0,0,1,-5,-5v-12a5,5,0,0,1,5,-5z"></path><g id="node_text12" fill="black"><text id="kity_text_79" text-rendering="inherit" font-size="12" dy=".8em" y="488.70000457018614" x="553.5000108554959">describe</text></g></g><g id="minder_node14"><g id="node_expander12" style="cursor: pointer;" display="none"><path id="kity_path_134" fill="white" stroke="gray" d="M543.5000106170774,548.5000053718686A6,6,0,1,1,531.5000106170774,548.5000053718686A6,6,0,1,1,543.5000106170774,548.5000053718686"></path><path id="kity_path_135" fill="none" stroke="gray"></path></g><path id="node_outline13" fill="none" stroke="none" d="M548.5000108554959,537.5000053718686h76a5,5,0,0,1,5,5v12a5,5,0,0,1,-5,5h-76a5,5,0,0,1,-5,-5v-12a5,5,0,0,1,5,-5z"></path><g id="node_text13" fill="black"><text id="kity_text_81" text-rendering="inherit" font-size="12" dy=".8em" y="540.7000053450465" x="553.5000108554959">msck repair</text></g></g><g id="minder_node15"><g id="node_expander13" style="cursor: pointer;" display="none"><path id="kity_path_137" fill="white" stroke="gray" d="M543.5000106170774,600.500006146729A6,6,0,1,1,531.5000106170774,600.500006146729A6,6,0,1,1,543.5000106170774,600.500006146729"></path><path id="kity_path_138" fill="none" stroke="gray"></path></g><path id="node_outline14" fill="none" stroke="none" d="M548.5000108554959,589.500006146729h36a5,5,0,0,1,5,5v12a5,5,0,0,1,-5,5h-36a5,5,0,0,1,-5,-5v-12a5,5,0,0,1,5,-5z"></path><g id="node_text14" fill="black"><text id="kity_text_83" text-rendering="inherit" font-size="12" dy=".8em" y="592.7000061199069" x="553.5000108554959">alter</text></g></g></g></g></svg>