<svg id="kity_svg_6" xmlns="http://www.w3.org/2000/svg" xmlns:xlink="http://www.w3.org/1999/xlink" version="1.1" width="1017" height="1322" style="background: rgb(251, 251, 251); visibility: visible;" viewBox="0 0 1017 1322"><defs id="kity_defs_7"><linearGradient id="kity_linearGradient_17" x1="0" y1="0" x2="0" y2="1"><stop id="kity_stop_18" offset="0" stop-color="rgb(255, 255, 255)"></stop><stop id="kity_stop_19" offset="1" stop-color="rgb(204, 204, 204)"></stop></linearGradient><marker id="kity_marker_2" orient="auto" refX="6" refY="0" viewBox="-7 -7 14 14" markerWidth="7" markerHeight="7" markerUnits="userSpaceOnUse"><path id="kity_path_3" fill="rgb(115, 161, 191)" stroke="none" d="M6,0A6,6,0,1,1,-6,0A6,6,0,1,1,6,0"></path></marker></defs><g id="kity_g_8"><g id="minder1" text-rendering="optimize-speed"><g id="minder_connect_group1"><path id="kity_path_31" fill="none" stroke="rgb(115, 161, 191)" stroke-width="1" d="M92.00000642985106,541.5000106021762A189.5,458,0,0,1,281.50000642985106,83.50001060217619"></path><path id="kity_path_33" fill="none" stroke="rgb(115, 161, 191)" stroke-width="1" d="M381.50000642985106,83.50001060217619C396.50000642985106,83.50001060217619,396.50000642985106,45.50001060217619,411.50000642985106,45.50001060217619L489.50000642985106,45.50001060217619"></path><path id="kity_path_35" fill="none" stroke="rgb(115, 161, 191)" stroke-width="1" d="M381.50000642985106,83.50001060217619C396.50000642985106,83.50001060217619,396.50000642985106,97.50001060217619,411.50000642985106,97.50001060217619L491.50000642985106,97.50001060217619"></path><path id="kity_path_37" fill="none" stroke="rgb(115, 161, 191)" stroke-width="1" d="M381.50000642985106,83.50001060217619C396.50000642985106,83.50001060217619,396.50000642985106,149.5000106021762,411.50000642985106,149.5000106021762L504.50000642985106,149.5000106021762"></path><path id="kity_path_39" fill="none" stroke="rgb(115, 161, 191)" stroke-width="1" d="M92.00000642985106,541.5000106021762A189.5,40,0,0,0,281.50000642985106,581.5000106021762"></path><path id="kity_path_41" fill="none" stroke="rgb(115, 161, 191)" stroke-width="1" d="M439.50000642985106,581.5000106021762C454.50000642985106,581.5000106021762,454.50000642985106,407.5000106021762,469.50000642985106,407.5000106021762L548.500006429851,407.5000106021762"></path><path id="kity_path_43" fill="none" stroke="rgb(115, 161, 191)" stroke-width="1" d="M548.500006429851,407.5000106021762C563.500006429851,407.5000106021762,563.500006429851,238.5000106021762,578.500006429851,238.5000106021762L658.500006429851,238.5000106021762"></path><path id="kity_path_45" fill="none" stroke="rgb(115, 161, 191)" stroke-width="1" d="M658.500006429851,238.5000106021762C673.500006429851,238.5000106021762,673.500006429851,212.5000106021762,688.500006429851,212.5000106021762L997.500006429851,212.5000106021762"></path><path id="kity_path_47" fill="none" stroke="rgb(115, 161, 191)" stroke-width="1" d="M658.500006429851,238.5000106021762C673.500006429851,238.5000106021762,673.500006429851,264.5000106021762,688.500006429851,264.5000106021762L815.500006429851,264.5000106021762"></path><path id="kity_path_49" fill="none" stroke="rgb(115, 161, 191)" stroke-width="1" d="M548.500006429851,407.5000106021762C563.500006429851,407.5000106021762,563.500006429851,381.5000106021762,578.500006429851,381.5000106021762L657.500006429851,381.5000106021762"></path><path id="kity_path_51" fill="none" stroke="rgb(115, 161, 191)" stroke-width="1" d="M657.500006429851,381.5000106021762C672.500006429851,381.5000106021762,672.500006429851,342.5000106021762,687.500006429851,342.5000106021762L777.500006429851,342.5000106021762"></path><path id="kity_path_53" fill="none" stroke="rgb(115, 161, 191)" stroke-width="1" d="M777.500006429851,342.5000106021762C792.500006429851,342.5000106021762,792.500006429851,316.5000106021762,807.500006429851,316.5000106021762L862.500006429851,316.5000106021762"></path><path id="kity_path_55" fill="none" stroke="rgb(115, 161, 191)" stroke-width="1" d="M777.500006429851,342.5000106021762C792.500006429851,342.5000106021762,792.500006429851,368.5000106021762,807.500006429851,368.5000106021762L991.500006429851,368.5000106021762"></path><path id="kity_path_57" fill="none" stroke="rgb(115, 161, 191)" stroke-width="1" d="M657.500006429851,381.5000106021762C672.500006429851,381.5000106021762,672.500006429851,420.5000106021762,687.500006429851,420.5000106021762L789.500006429851,420.5000106021762"></path><path id="kity_path_59" fill="none" stroke="rgb(115, 161, 191)" stroke-width="1" d="M548.500006429851,407.5000106021762C563.500006429851,407.5000106021762,563.500006429851,472.5000106021762,578.500006429851,472.5000106021762L657.500006429851,472.5000106021762"></path><path id="kity_path_61" fill="none" stroke="rgb(115, 161, 191)" stroke-width="1" d="M548.500006429851,407.5000106021762C563.500006429851,407.5000106021762,563.500006429851,524.5000106021762,578.500006429851,524.5000106021762L701.500006429851,524.5000106021762"></path><path id="kity_path_63" fill="none" stroke="rgb(115, 161, 191)" stroke-width="1" d="M548.500006429851,407.5000106021762C563.500006429851,407.5000106021762,563.500006429851,576.5000106021762,578.500006429851,576.5000106021762L713.500006429851,576.5000106021762"></path><path id="kity_path_65" fill="none" stroke="rgb(115, 161, 191)" stroke-width="1" d="M439.50000642985106,581.5000106021762C454.50000642985106,581.5000106021762,454.50000642985106,654.5000106021762,469.50000642985106,654.5000106021762L549.500006429851,654.5000106021762"></path><path id="kity_path_67" fill="none" stroke="rgb(115, 161, 191)" stroke-width="1" d="M549.500006429851,654.5000106021762C564.500006429851,654.5000106021762,564.500006429851,628.5000106021762,579.500006429851,628.5000106021762L658.500006429851,628.5000106021762"></path><path id="kity_path_69" fill="none" stroke="rgb(115, 161, 191)" stroke-width="1" d="M549.500006429851,654.5000106021762C564.500006429851,654.5000106021762,564.500006429851,680.5000106021762,579.500006429851,680.5000106021762L658.500006429851,680.5000106021762"></path><path id="kity_path_71" fill="none" stroke="rgb(115, 161, 191)" stroke-width="1" d="M439.50000642985106,581.5000106021762C454.50000642985106,581.5000106021762,454.50000642985106,784.5000106021762,469.50000642985106,784.5000106021762L548.500006429851,784.5000106021762"></path><path id="kity_path_73" fill="none" stroke="rgb(115, 161, 191)" stroke-width="1" d="M548.500006429851,784.5000106021762C563.500006429851,784.5000106021762,563.500006429851,732.5000106021762,578.500006429851,732.5000106021762L711.500006429851,732.5000106021762"></path><path id="kity_path_75" fill="none" stroke="rgb(115, 161, 191)" stroke-width="1" d="M548.500006429851,784.5000106021762C563.500006429851,784.5000106021762,563.500006429851,784.5000106021762,578.500006429851,784.5000106021762L797.500006429851,784.5000106021762"></path><path id="kity_path_77" fill="none" stroke="rgb(115, 161, 191)" stroke-width="1" d="M548.500006429851,784.5000106021762C563.500006429851,784.5000106021762,563.500006429851,836.5000106021762,578.500006429851,836.5000106021762L963.500006429851,836.5000106021762"></path><path id="kity_path_79" fill="none" stroke="rgb(115, 161, 191)" stroke-width="1" d="M92.00000642985106,541.5000106021762A329.5,490,0,0,0,421.50000642985106,1031.5000106021762"></path><path id="kity_path_81" fill="none" stroke="rgb(115, 161, 191)" stroke-width="1" d="M564.500006429851,1031.5000106021762C579.500006429851,1031.5000106021762,579.500006429851,1019.5000106021762,594.500006429851,1019.5000106021762L681.500006429851,1019.5000106021762"></path><path id="kity_path_83" fill="none" stroke="rgb(115, 161, 191)" stroke-width="1" d="M564.500006429851,1031.5000106021762C579.500006429851,1031.5000106021762,579.500006429851,1071.5000106021762,594.500006429851,1071.5000106021762L674.500006429851,1071.5000106021762"></path><path id="kity_path_85" fill="none" stroke="rgb(115, 161, 191)" stroke-width="1" d="M92.00000642985106,541.5000106021762A193.5,596,0,0,0,285.50000642985106,1137.5000106021762"></path><path id="kity_path_87" fill="none" stroke="rgb(115, 161, 191)" stroke-width="1" d="M424.50000642985106,1137.5000106021762C439.50000642985106,1137.5000106021762,439.50000642985106,1151.5000106021762,454.50000642985106,1151.5000106021762L570.500006429851,1151.5000106021762"></path><path id="kity_path_89" fill="none" stroke="rgb(115, 161, 191)" stroke-width="1" d="M92.00000642985106,541.5000106021762A51.5,262,0,0,0,143.50000642985106,803.5000106021762"></path><path id="kity_path_91" fill="none" stroke="rgb(115, 161, 191)" stroke-width="1" d="M236.50000642985106,803.5000106021762C251.50000642985106,803.5000106021762,251.50000642985106,739.5000106021762,266.50000642985106,739.5000106021762L318.50000642985106,739.5000106021762"></path><path id="kity_path_93" fill="none" stroke="rgb(115, 161, 191)" stroke-width="1" d="M236.50000642985106,803.5000106021762C251.50000642985106,803.5000106021762,251.50000642985106,791.5000106021762,266.50000642985106,791.5000106021762L315.50000642985106,791.5000106021762"></path><path id="kity_path_95" fill="none" stroke="rgb(115, 161, 191)" stroke-width="1" d="M236.50000642985106,803.5000106021762C251.50000642985106,803.5000106021762,251.50000642985106,843.5000106021762,266.50000642985106,843.5000106021762L316.50000642985106,843.5000106021762"></path><path id="kity_path_97" fill="none" stroke="rgb(115, 161, 191)" stroke-width="1" d="M236.50000642985106,803.5000106021762C251.50000642985106,803.5000106021762,251.50000642985106,895.5000106021762,266.50000642985106,895.5000106021762L313.50000642985106,895.5000106021762"></path><path id="kity_path_99" fill="none" stroke="rgb(115, 161, 191)" stroke-width="1" d="M92.00000642985106,541.5000106021762A160.5,748,0,0,0,252.50000642985106,1289.5000106021762"></path><path id="kity_path_101" fill="none" stroke="rgb(115, 161, 191)" stroke-width="1" d="M92.00000642985106,541.5000106021762A189.5,685,0,0,0,281.50000642985106,1226.5000106021762"></path></g><g id="minder_node1"><path id="node_outline1" fill="rgb(115, 161, 191)" stroke="rgb(115, 161, 191)" d="M25.500006429851055,521.5000106021762h133a5,5,0,0,1,5,5v30a5,5,0,0,1,-5,5h-133a5,5,0,0,1,-5,-5v-30a5,5,0,0,1,5,-5z" stroke-width="3"></path><g id="node_text1" fill="white"><text id="kity_text_22" text-rendering="inherit" font-size="16" dy=".8em" y="531.1000105664134" x="44.500006429851055">hive知识结构</text></g></g><g id="kity_g_12"><path id="kity_path_13" fill="none" stroke="none" d="M44.500006429851055,541.5000106021762h0v0h0z"></path></g><g id="kity_g_14"><path id="kity_path_15" fill="none" stroke="none" d="M44.500006429851055,541.5000106021762h0v0h0z"></path><path id="kity_path_16" fill="none" stroke="none"></path></g><g id="minder_node2"><g id="node_expander4" style="cursor: pointer;"><path id="kity_path_220" fill="white" stroke="gray" d="M282.50000988692045,83.50000377744436A6,6,0,1,1,270.50000988692045,83.50000377744436A6,6,0,1,1,282.50000988692045,83.50000377744436"></path><path id="kity_path_221" fill="none" stroke="gray" d="M272.00000988692045,83.50000377744436L281.00000988692045,83.50000377744436"></path></g><path id="node_outline5" fill="rgb(238, 243, 246)" stroke="rgb(115, 161, 191)" d="M286.5000102892518,70.50000377744436h92a3,3,0,0,1,3,3v20a3,3,0,0,1,-3,3h-92a3,3,0,0,1,-3,-3v-20a3,3,0,0,1,3,-3z" stroke-width="1"></path><g id="node_text5" fill="black"><text id="kity_text_109" text-rendering="inherit" font-size="14" dy=".8em" y="74.40000374615192" x="303.5000102892518">基础概念</text></g></g><g id="minder_node3"><g id="node_expander1" style="cursor: pointer;" display="none"><path id="kity_path_211" fill="white" stroke="gray" d="M421.50001195818186,31.50000300258398A6,6,0,1,1,409.50001195818186,31.50000300258398A6,6,0,1,1,421.50001195818186,31.50000300258398"></path><path id="kity_path_212" fill="none" stroke="gray"></path></g><path id="node_outline2" fill="none" stroke="none" d="M426.50001219660044,20.50000300258398h58a5,5,0,0,1,5,5v12a5,5,0,0,1,-5,5h-58a5,5,0,0,1,-5,-5v-12a5,5,0,0,1,5,-5z"></path><g id="node_text2" fill="black"><text id="kity_text_103" text-rendering="inherit" font-size="12" dy=".8em" y="23.70000297576189" x="431.50001219660044">组件架构</text></g></g><g id="minder_node4"><g id="node_expander2" style="cursor: pointer;" display="none"><path id="kity_path_214" fill="white" stroke="gray" d="M421.50001195818186,83.50000377744436A6,6,0,1,1,409.50001195818186,83.50000377744436A6,6,0,1,1,421.50001195818186,83.50000377744436"></path><path id="kity_path_215" fill="none" stroke="gray"></path></g><path id="node_outline3" fill="none" stroke="none" d="M426.50001219660044,72.50000377744436h60a5,5,0,0,1,5,5v12a5,5,0,0,1,-5,5h-60a5,5,0,0,1,-5,-5v-12a5,5,0,0,1,5,-5z"></path><g id="node_text3" fill="black"><text id="kity_text_105" text-rendering="inherit" font-size="12" dy=".8em" y="75.70000375062227" x="431.50001219660044">数据模型</text></g></g><g id="minder_node5"><g id="node_expander3" style="cursor: pointer;" display="none"><path id="kity_path_217" fill="white" stroke="gray" d="M421.50001195818186,135.50000455230474A6,6,0,1,1,409.50001195818186,135.50000455230474A6,6,0,1,1,421.50001195818186,135.50000455230474"></path><path id="kity_path_218" fill="none" stroke="gray"></path></g><path id="node_outline4" fill="none" stroke="none" d="M426.50001219660044,124.50000455230474h73a5,5,0,0,1,5,5v12a5,5,0,0,1,-5,5h-73a5,5,0,0,1,-5,-5v-12a5,5,0,0,1,5,-5z"></path><g id="node_text4" fill="black"><text id="kity_text_107" text-rendering="inherit" font-size="12" dy=".8em" y="127.70000452548265" x="431.50001219660044">优势&amp;劣势&#xa0;</text></g></g><g id="minder_node6"><g id="node_expander24" style="cursor: pointer;"><path id="kity_path_280" fill="white" stroke="gray" d="M282.50000988692045,581.5000111982226A6,6,0,1,1,270.50000988692045,581.5000111982226A6,6,0,1,1,282.50000988692045,581.5000111982226"></path><path id="kity_path_281" fill="none" stroke="gray" d="M272.00000988692045,581.5000111982226L281.00000988692045,581.5000111982226"></path></g><path id="node_outline25" fill="rgb(238, 243, 246)" stroke="rgb(115, 161, 191)" d="M286.5000102892518,568.5000111982226h150a3,3,0,0,1,3,3v20a3,3,0,0,1,-3,3h-150a3,3,0,0,1,-3,-3v-20a3,3,0,0,1,3,-3z" stroke-width="1"></path><g id="node_text25" fill="black"><text id="kity_text_149" text-rendering="inherit" font-size="14" dy=".8em" y="572.4000111669302" x="303.5000102892518">hive 基础数据类型</text></g></g><g id="minder_node7"><g id="node_expander16" style="cursor: pointer;"><path id="kity_path_256" fill="white" stroke="gray" d="M479.5000128224492,393.50000839680433A6,6,0,1,1,467.5000128224492,393.50000839680433A6,6,0,1,1,479.5000128224492,393.50000839680433"></path><path id="kity_path_257" fill="none" stroke="gray" d="M469.0000128224492,393.50000839680433L478.0000128224492,393.50000839680433"></path></g><path id="node_outline17" fill="none" stroke="none" d="M484.5000130608678,382.50000839680433h59a5,5,0,0,1,5,5v12a5,5,0,0,1,-5,5h-59a5,5,0,0,1,-5,-5v-12a5,5,0,0,1,5,-5z"></path><g id="node_text17" fill="black"><text id="kity_text_133" text-rendering="inherit" font-size="12" dy=".8em" y="385.70000836998224" x="489.5000130608678">普通类型</text></g></g><g id="minder_node8"><g id="node_expander7" style="cursor: pointer;"><path id="kity_path_229" fill="white" stroke="gray" d="M588.5000144466758,224.5000058785081A6,6,0,1,1,576.5000144466758,224.5000058785081A6,6,0,1,1,588.5000144466758,224.5000058785081"></path><path id="kity_path_230" fill="none" stroke="gray" d="M578.0000144466758,224.5000058785081L587.0000144466758,224.5000058785081"></path></g><path id="node_outline8" fill="none" stroke="none" d="M593.5000146850944,213.5000058785081h60a5,5,0,0,1,5,5v12a5,5,0,0,1,-5,5h-60a5,5,0,0,1,-5,-5v-12a5,5,0,0,1,5,-5z"></path><g id="node_text8" fill="black"><text id="kity_text_115" text-rendering="inherit" font-size="12" dy=".8em" y="216.700005851686" x="598.5000146850944">数字类型</text></g></g><g id="minder_node9"><g id="node_expander5" style="cursor: pointer;" display="none"><path id="kity_path_223" fill="white" stroke="gray" d="M698.5000160858035,198.5000054910779A6,6,0,1,1,686.5000160858035,198.5000054910779A6,6,0,1,1,698.5000160858035,198.5000054910779"></path><path id="kity_path_224" fill="none" stroke="gray"></path></g><path id="node_outline6" fill="none" stroke="none" d="M703.5000163242221,187.5000054910779h289a5,5,0,0,1,5,5v12a5,5,0,0,1,-5,5h-289a5,5,0,0,1,-5,-5v-12a5,5,0,0,1,5,-5z"></path><g id="node_text6" fill="black"><text id="kity_text_111" text-rendering="inherit" font-size="12" dy=".8em" y="190.7000054642558" x="708.5000163242221">tinyint/smallint/int(integer)/bingint/float/double</text></g></g><g id="minder_node10"><g id="node_expander6" style="cursor: pointer;" display="none"><path id="kity_path_226" fill="white" stroke="gray" d="M698.5000160858035,250.50000626593828A6,6,0,1,1,686.5000160858035,250.50000626593828A6,6,0,1,1,698.5000160858035,250.50000626593828"></path><path id="kity_path_227" fill="none" stroke="gray"></path></g><path id="node_outline7" fill="none" stroke="none" d="M703.5000163242221,239.50000626593828h107a5,5,0,0,1,5,5v12a5,5,0,0,1,-5,5h-107a5,5,0,0,1,-5,-5v-12a5,5,0,0,1,5,-5z"></path><g id="node_text7" fill="black"><text id="kity_text_113" text-rendering="inherit" font-size="12" dy=".8em" y="242.7000062391162" x="708.5000163242221">decimal/numeric</text></g></g><g id="minder_node11"><g id="node_expander12" style="cursor: pointer;"><path id="kity_path_244" fill="white" stroke="gray" d="M588.5000144466758,367.50000800937414A6,6,0,1,1,576.5000144466758,367.50000800937414A6,6,0,1,1,588.5000144466758,367.50000800937414"></path><path id="kity_path_245" fill="none" stroke="gray" d="M578.0000144466758,367.50000800937414L587.0000144466758,367.50000800937414"></path></g><path id="node_outline13" fill="none" stroke="none" d="M593.5000146850944,356.50000800937414h59a5,5,0,0,1,5,5v12a5,5,0,0,1,-5,5h-59a5,5,0,0,1,-5,-5v-12a5,5,0,0,1,5,-5z"></path><g id="node_text13" fill="black"><text id="kity_text_125" text-rendering="inherit" font-size="12" dy=".8em" y="359.70000798255205" x="598.5000146850944">字符类型</text></g></g><g id="minder_node12"><g id="node_expander10" style="cursor: pointer;"><path id="kity_path_238" fill="white" stroke="gray" d="M697.5000160709023,328.50000742822886A6,6,0,1,1,685.5000160709023,328.50000742822886A6,6,0,1,1,697.5000160709023,328.50000742822886"></path><path id="kity_path_239" fill="none" stroke="gray" d="M687.0000160709023,328.50000742822886L696.0000160709023,328.50000742822886"></path></g><path id="node_outline11" fill="none" stroke="none" d="M702.5000163093209,317.50000742822886h70a5,5,0,0,1,5,5v12a5,5,0,0,1,-5,5h-70a5,5,0,0,1,-5,-5v-12a5,5,0,0,1,5,-5z"></path><g id="node_text11" fill="black"><text id="kity_text_121" text-rendering="inherit" font-size="12" dy=".8em" y="320.70000740140676" x="707.5000163093209">长度有限制</text></g></g><g id="minder_node13"><g id="node_expander8" style="cursor: pointer;" display="none"><path id="kity_path_232" fill="white" stroke="gray" d="M817.5000178590417,302.50000704079866A6,6,0,1,1,805.5000178590417,302.50000704079866A6,6,0,1,1,817.5000178590417,302.50000704079866"></path><path id="kity_path_233" fill="none" stroke="gray"></path></g><path id="node_outline9" fill="none" stroke="none" d="M822.5000180974603,291.50000704079866h35a5,5,0,0,1,5,5v12a5,5,0,0,1,-5,5h-35a5,5,0,0,1,-5,-5v-12a5,5,0,0,1,5,-5z"></path><g id="node_text9" fill="black"><text id="kity_text_117" text-rendering="inherit" font-size="12" dy=".8em" y="294.7000070139766" x="827.5000180974603">char</text></g></g><g id="minder_node14"><g id="node_expander9" style="cursor: pointer;" display="none"><path id="kity_path_235" fill="white" stroke="gray" d="M817.5000178590417,354.50000781565905A6,6,0,1,1,805.5000178590417,354.50000781565905A6,6,0,1,1,817.5000178590417,354.50000781565905"></path><path id="kity_path_236" fill="none" stroke="gray"></path></g><path id="node_outline10" fill="none" stroke="none" d="M822.5000180974603,343.50000781565905h164a5,5,0,0,1,5,5v12a5,5,0,0,1,-5,5h-164a5,5,0,0,1,-5,-5v-12a5,5,0,0,1,5,-5z"></path><g id="node_text10" fill="black"><text id="kity_text_119" text-rendering="inherit" font-size="12" dy=".8em" y="346.70000778883696" x="827.5000180974603">varchar(最大长度为65536）</text></g></g><g id="minder_node15"><g id="node_expander11" style="cursor: pointer;" display="none"><path id="kity_path_241" fill="white" stroke="gray" d="M697.5000160709023,406.5000085905194A6,6,0,1,1,685.5000160709023,406.5000085905194A6,6,0,1,1,697.5000160709023,406.5000085905194"></path><path id="kity_path_242" fill="none" stroke="gray"></path></g><path id="node_outline12" fill="none" stroke="none" d="M702.5000163093209,395.5000085905194h82a5,5,0,0,1,5,5v12a5,5,0,0,1,-5,5h-82a5,5,0,0,1,-5,-5v-12a5,5,0,0,1,5,-5z"></path><g id="node_text12" fill="black"><text id="kity_text_123" text-rendering="inherit" font-size="12" dy=".8em" y="398.70000856369734" x="707.5000163093209">无限长 string</text></g></g><g id="minder_node16"><g id="node_expander13" style="cursor: pointer;" display="none"><path id="kity_path_247" fill="white" stroke="gray" d="M588.5000144466758,458.5000093653798A6,6,0,1,1,576.5000144466758,458.5000093653798A6,6,0,1,1,588.5000144466758,458.5000093653798"></path><path id="kity_path_248" fill="none" stroke="gray"></path></g><path id="node_outline14" fill="none" stroke="none" d="M593.5000146850944,447.5000093653798h59a5,5,0,0,1,5,5v12a5,5,0,0,1,-5,5h-59a5,5,0,0,1,-5,-5v-12a5,5,0,0,1,5,-5z"></path><g id="node_text14" fill="black"><text id="kity_text_127" text-rendering="inherit" font-size="12" dy=".8em" y="450.7000093385577" x="598.5000146850944">时间类型</text></g></g><g id="minder_node17"><g id="node_expander14" style="cursor: pointer;" display="none"><path id="kity_path_250" fill="white" stroke="gray" d="M588.5000144466758,510.5000101402402A6,6,0,1,1,576.5000144466758,510.5000101402402A6,6,0,1,1,588.5000144466758,510.5000101402402"></path><path id="kity_path_251" fill="none" stroke="gray"></path></g><path id="node_outline15" fill="none" stroke="none" d="M593.5000146850944,499.5000101402402h103a5,5,0,0,1,5,5v12a5,5,0,0,1,-5,5h-103a5,5,0,0,1,-5,-5v-12a5,5,0,0,1,5,-5z"></path><g id="node_text15" fill="black"><text id="kity_text_129" text-rendering="inherit" font-size="12" dy=".8em" y="502.7000101134181" x="598.5000146850944">brinary/boolean</text></g></g><g id="minder_node18"><g id="node_expander15" style="cursor: pointer;" display="none"><path id="kity_path_253" fill="white" stroke="gray" d="M588.5000144466758,562.5000109151006A6,6,0,1,1,576.5000144466758,562.5000109151006A6,6,0,1,1,588.5000144466758,562.5000109151006"></path><path id="kity_path_254" fill="none" stroke="gray"></path></g><path id="node_outline16" fill="none" stroke="none" d="M593.5000146850944,551.5000109151006h115a5,5,0,0,1,5,5v12a5,5,0,0,1,-5,5h-115a5,5,0,0,1,-5,-5v-12a5,5,0,0,1,5,-5z"></path><g id="node_text16" fill="black"><text id="kity_text_131" text-rendering="inherit" font-size="12" dy=".8em" y="554.7000108882785" x="598.5000146850944">复杂类型(嵌套类型)</text></g></g><g id="minder_node19"><g id="node_expander19" style="cursor: pointer;"><path id="kity_path_265" fill="white" stroke="gray" d="M479.5000128224492,640.5000120773911A6,6,0,1,1,467.5000128224492,640.5000120773911A6,6,0,1,1,479.5000128224492,640.5000120773911"></path><path id="kity_path_266" fill="none" stroke="gray" d="M469.0000128224492,640.5000120773911L478.0000128224492,640.5000120773911"></path></g><path id="node_outline20" fill="none" stroke="none" d="M484.5000130608678,629.5000120773911h60a5,5,0,0,1,5,5v12a5,5,0,0,1,-5,5h-60a5,5,0,0,1,-5,-5v-12a5,5,0,0,1,5,-5z"></path><g id="node_text20" fill="black"><text id="kity_text_139" text-rendering="inherit" font-size="12" dy=".8em" y="632.7000120505691" x="489.5000130608678">类型转换</text></g></g><g id="minder_node20"><g id="node_expander17" style="cursor: pointer;" display="none"><path id="kity_path_259" fill="white" stroke="gray" d="M589.5000144615769,614.500011689961A6,6,0,1,1,577.5000144615769,614.500011689961A6,6,0,1,1,589.5000144615769,614.500011689961"></path><path id="kity_path_260" fill="none" stroke="gray"></path></g><path id="node_outline18" fill="none" stroke="none" d="M594.5000146999955,603.500011689961h59a5,5,0,0,1,5,5v12a5,5,0,0,1,-5,5h-59a5,5,0,0,1,-5,-5v-12a5,5,0,0,1,5,-5z"></path><g id="node_text18" fill="black"><text id="kity_text_135" text-rendering="inherit" font-size="12" dy=".8em" y="606.7000116631389" x="599.5000146999955">隐式转换</text></g></g><g id="minder_node21"><g id="node_expander18" style="cursor: pointer;" display="none"><path id="kity_path_262" fill="white" stroke="gray" d="M589.5000144615769,666.5000124648213A6,6,0,1,1,577.5000144615769,666.5000124648213A6,6,0,1,1,589.5000144615769,666.5000124648213"></path><path id="kity_path_263" fill="none" stroke="gray"></path></g><path id="node_outline19" fill="none" stroke="none" d="M594.5000146999955,655.5000124648213h59a5,5,0,0,1,5,5v12a5,5,0,0,1,-5,5h-59a5,5,0,0,1,-5,-5v-12a5,5,0,0,1,5,-5z"></path><g id="node_text19" fill="black"><text id="kity_text_137" text-rendering="inherit" font-size="12" dy=".8em" y="658.7000124379992" x="599.5000146999955">主动转换</text></g></g><g id="minder_node22"><g id="node_expander23" style="cursor: pointer;"><path id="kity_path_277" fill="white" stroke="gray" d="M479.5000128224492,770.5000140145421A6,6,0,1,1,467.5000128224492,770.5000140145421A6,6,0,1,1,479.5000128224492,770.5000140145421"></path><path id="kity_path_278" fill="none" stroke="gray" d="M469.0000128224492,770.5000140145421L478.0000128224492,770.5000140145421"></path></g><path id="node_outline24" fill="none" stroke="none" d="M484.5000130608678,759.5000140145421h59a5,5,0,0,1,5,5v12a5,5,0,0,1,-5,5h-59a5,5,0,0,1,-5,-5v-12a5,5,0,0,1,5,-5z"></path><g id="node_text24" fill="black"><text id="kity_text_147" text-rendering="inherit" font-size="12" dy=".8em" y="762.70001398772" x="489.5000130608678">嵌套类型</text></g></g><g id="minder_node23"><g id="node_expander20" style="cursor: pointer;" display="none"><path id="kity_path_268" fill="white" stroke="gray" d="M588.5000144466758,718.5000132396817A6,6,0,1,1,576.5000144466758,718.5000132396817A6,6,0,1,1,588.5000144466758,718.5000132396817"></path><path id="kity_path_269" fill="none" stroke="gray"></path></g><path id="node_outline21" fill="none" stroke="none" d="M593.5000146850944,707.5000132396817h113a5,5,0,0,1,5,5v12a5,5,0,0,1,-5,5h-113a5,5,0,0,1,-5,-5v-12a5,5,0,0,1,5,-5z"></path><g id="node_text21" fill="black"><text id="kity_text_141" text-rendering="inherit" font-size="12" dy=".8em" y="710.7000132128596" x="598.5000146850944">array&lt;data_type&gt;</text></g></g><g id="minder_node24"><g id="node_expander21" style="cursor: pointer;" display="none"><path id="kity_path_271" fill="white" stroke="gray" d="M588.5000144466758,770.5000140145421A6,6,0,1,1,576.5000144466758,770.5000140145421A6,6,0,1,1,588.5000144466758,770.5000140145421"></path><path id="kity_path_272" fill="none" stroke="gray"></path></g><path id="node_outline22" fill="none" stroke="none" d="M593.5000146850944,759.5000140145421h199a5,5,0,0,1,5,5v12a5,5,0,0,1,-5,5h-199a5,5,0,0,1,-5,-5v-12a5,5,0,0,1,5,-5z"></path><g id="node_text22" fill="black"><text id="kity_text_143" text-rendering="inherit" font-size="12" dy=".8em" y="762.70001398772" x="598.5000146850944">MAP&lt;primitive_type, data_type&gt;</text></g></g><g id="minder_node25"><g id="node_expander22" style="cursor: pointer;" display="none"><path id="kity_path_274" fill="white" stroke="gray" d="M588.5000144466758,822.5000147894025A6,6,0,1,1,576.5000144466758,822.5000147894025A6,6,0,1,1,588.5000144466758,822.5000147894025"></path><path id="kity_path_275" fill="none" stroke="gray"></path></g><path id="node_outline23" fill="none" stroke="none" d="M593.5000146850944,811.5000147894025h365a5,5,0,0,1,5,5v12a5,5,0,0,1,-5,5h-365a5,5,0,0,1,-5,-5v-12a5,5,0,0,1,5,-5z"></path><g id="node_text23" fill="black"><text id="kity_text_145" text-rendering="inherit" font-size="12" dy=".8em" y="814.7000147625804" x="598.5000146850944">STRUCT&lt;col_name : data_type [COMMENT col_comment], ...&gt;</text></g></g><g id="minder_node26"><g id="node_expander27" style="cursor: pointer;"><path id="kity_path_289" fill="white" stroke="gray" d="M422.500011973083,1031.5000179037452A6,6,0,1,1,410.500011973083,1031.5000179037452A6,6,0,1,1,422.500011973083,1031.5000179037452"></path><path id="kity_path_290" fill="none" stroke="gray" d="M412.000011973083,1031.5000179037452L421.000011973083,1031.5000179037452"></path></g><path id="node_outline28" fill="rgb(238, 243, 246)" stroke="rgb(115, 161, 191)" d="M426.50001237541437,1018.5000179037452h135a3,3,0,0,1,3,3v20a3,3,0,0,1,-3,3h-135a3,3,0,0,1,-3,-3v-20a3,3,0,0,1,3,-3z" stroke-width="1"></path><g id="node_text28" fill="black"><text id="kity_text_155" text-rendering="inherit" font-size="14" dy=".8em" y="1022.4000178724527" x="443.50001237541437">hive 底层&amp;原理</text></g></g><g id="minder_node27"><g id="node_expander25" style="cursor: pointer;" display="none"><path id="kity_path_283" fill="white" stroke="gray" d="M604.5000146850944,1005.500017516315A6,6,0,1,1,592.5000146850944,1005.500017516315A6,6,0,1,1,604.5000146850944,1005.500017516315"></path><path id="kity_path_284" fill="none" stroke="gray"></path></g><path id="node_outline26" fill="none" stroke="none" d="M609.5000149235129,994.500017516315h67a5,5,0,0,1,5,5v12a5,5,0,0,1,-5,5h-67a5,5,0,0,1,-5,-5v-12a5,5,0,0,1,5,-5z"></path><g id="node_text26" fill="black"><text id="kity_text_151" text-rendering="inherit" font-size="12" dy=".8em" y="997.7000174894929" x="614.5000149235129">sql 执行器</text></g></g><g id="minder_node28"><g id="node_expander26" style="cursor: pointer;" display="none"><path id="kity_path_286" fill="white" stroke="gray" d="M604.5000146850944,1057.5000182911754A6,6,0,1,1,592.5000146850944,1057.5000182911754A6,6,0,1,1,604.5000146850944,1057.5000182911754"></path><path id="kity_path_287" fill="none" stroke="gray"></path></g><path id="node_outline27" fill="none" stroke="none" d="M609.5000149235129,1046.5000182911754h60a5,5,0,0,1,5,5v12a5,5,0,0,1,-5,5h-60a5,5,0,0,1,-5,-5v-12a5,5,0,0,1,5,-5z"></path><g id="node_text27" fill="black"><text id="kity_text_153" text-rendering="inherit" font-size="12" dy=".8em" y="1049.7000182643533" x="614.5000149235129">压缩格式</text></g></g><g id="minder_node29"><g id="node_expander29" style="cursor: pointer;"><path id="kity_path_295" fill="white" stroke="gray" d="M286.5000099465251,1137.5000194832683A6,6,0,1,1,274.5000099465251,1137.5000194832683A6,6,0,1,1,286.5000099465251,1137.5000194832683"></path><path id="kity_path_296" fill="none" stroke="gray" d="M276.0000099465251,1137.5000194832683L285.0000099465251,1137.5000194832683"></path></g><path id="node_outline30" fill="rgb(238, 243, 246)" stroke="rgb(115, 161, 191)" d="M290.50001034885645,1124.5000194832683h131a3,3,0,0,1,3,3v20a3,3,0,0,1,-3,3h-131a3,3,0,0,1,-3,-3v-20a3,3,0,0,1,3,-3z" stroke-width="1"></path><g id="node_text30" fill="black"><text id="kity_text_159" text-rendering="inherit" font-size="14" dy=".8em" y="1128.4000194519758" x="307.50001034885645">集群管理&amp;规划</text></g></g><g id="minder_node30"><g id="node_expander28" style="cursor: pointer;" display="none"><path id="kity_path_292" fill="white" stroke="gray" d="M464.5000125989318,1137.5000194832683A6,6,0,1,1,452.5000125989318,1137.5000194832683A6,6,0,1,1,464.5000125989318,1137.5000194832683"></path><path id="kity_path_293" fill="none" stroke="gray"></path></g><path id="node_outline29" fill="none" stroke="none" d="M469.50001283735037,1126.5000194832683h96a5,5,0,0,1,5,5v12a5,5,0,0,1,-5,5h-96a5,5,0,0,1,-5,-5v-12a5,5,0,0,1,5,-5z"></path><g id="node_text29" fill="black"><text id="kity_text_157" text-rendering="inherit" font-size="12" dy=".8em" y="1129.7000194564462" x="474.50001283735037">hive metastore</text></g></g><g id="minder_node31"><g id="node_expander34" style="cursor: pointer;"><path id="kity_path_310" fill="white" stroke="gray" d="M249.50000939518213,803.5000145062804A6,6,0,1,1,237.50000939518213,803.5000145062804A6,6,0,1,1,249.50000939518213,803.5000145062804"></path><path id="kity_path_311" fill="none" stroke="gray" d="M239.00000939518213,803.5000145062804L248.00000939518213,803.5000145062804"></path></g><path id="node_outline35" fill="rgb(238, 243, 246)" stroke="rgb(115, 161, 191)" d="M148.50000823289156,790.5000145062804h85a3,3,0,0,1,3,3v20a3,3,0,0,1,-3,3h-85a3,3,0,0,1,-3,-3v-20a3,3,0,0,1,3,-3z" stroke-width="1"></path><g id="node_text35" fill="black"><text id="kity_text_169" text-rendering="inherit" font-size="14" dy=".8em" y="794.400014474988" x="165.50000823289156">hive sql</text></g></g><g id="minder_node32"><g id="node_expander30" style="cursor: pointer;" display="none"><path id="kity_path_298" fill="white" stroke="gray" d="M276.5000097975135,725.5000133439898A6,6,0,1,1,264.5000097975135,725.5000133439898A6,6,0,1,1,276.5000097975135,725.5000133439898"></path><path id="kity_path_299" fill="none" stroke="gray"></path></g><path id="node_outline31" fill="none" stroke="none" d="M281.50001003593206,714.5000133439898h32a5,5,0,0,1,5,5v12a5,5,0,0,1,-5,5h-32a5,5,0,0,1,-5,-5v-12a5,5,0,0,1,5,-5z"></path><g id="node_text31" fill="black"><text id="kity_text_161" text-rendering="inherit" font-size="12" dy=".8em" y="717.7000133171678" x="286.50001003593206">dml</text></g></g><g id="minder_node33"><g id="node_expander31" style="cursor: pointer;" display="none"><path id="kity_path_301" fill="white" stroke="gray" d="M276.5000097975135,777.5000141188502A6,6,0,1,1,264.5000097975135,777.5000141188502A6,6,0,1,1,276.5000097975135,777.5000141188502"></path><path id="kity_path_302" fill="none" stroke="gray"></path></g><path id="node_outline32" fill="none" stroke="none" d="M281.50001003593206,766.5000141188502h29a5,5,0,0,1,5,5v12a5,5,0,0,1,-5,5h-29a5,5,0,0,1,-5,-5v-12a5,5,0,0,1,5,-5z"></path><g id="node_text32" fill="black"><text id="kity_text_163" text-rendering="inherit" font-size="12" dy=".8em" y="769.7000140920281" x="286.50001003593206">ddl</text></g></g><g id="minder_node34"><g id="node_expander32" style="cursor: pointer;" display="none"><path id="kity_path_304" fill="white" stroke="gray" d="M276.5000097975135,829.5000148937106A6,6,0,1,1,264.5000097975135,829.5000148937106A6,6,0,1,1,276.5000097975135,829.5000148937106"></path><path id="kity_path_305" fill="none" stroke="gray"></path></g><path id="node_outline33" fill="none" stroke="none" d="M281.50001003593206,818.5000148937106h30a5,5,0,0,1,5,5v12a5,5,0,0,1,-5,5h-30a5,5,0,0,1,-5,-5v-12a5,5,0,0,1,5,-5z"></path><g id="node_text33" fill="black"><text id="kity_text_165" text-rendering="inherit" font-size="12" dy=".8em" y="821.7000148668885" x="286.50001003593206">udf</text></g></g><g id="minder_node35"><g id="node_expander33" style="cursor: pointer;" display="none"><path id="kity_path_307" fill="white" stroke="gray" d="M276.5000097975135,881.500015668571A6,6,0,1,1,264.5000097975135,881.500015668571A6,6,0,1,1,276.5000097975135,881.500015668571"></path><path id="kity_path_308" fill="none" stroke="gray"></path></g><path id="node_outline34" fill="none" stroke="none" d="M281.50001003593206,870.500015668571h27a5,5,0,0,1,5,5v12a5,5,0,0,1,-5,5h-27a5,5,0,0,1,-5,-5v-12a5,5,0,0,1,5,-5z"></path><g id="node_text34" fill="black"><text id="kity_text_167" text-rendering="inherit" font-size="12" dy=".8em" y="873.7000156417489" x="286.50001003593206">set</text></g></g><g id="minder_node36"><g id="node_expander35" style="cursor: pointer;" display="none"><path id="kity_path_313" fill="white" stroke="gray" d="M365.50001112371683,1289.5000217482448A6,6,0,1,1,353.50001112371683,1289.5000217482448A6,6,0,1,1,365.50001112371683,1289.5000217482448"></path><path id="kity_path_314" fill="none" stroke="gray"></path></g><path id="node_outline36" fill="rgb(238, 243, 246)" stroke="rgb(115, 161, 191)" d="M257.50000985711813,1276.5000217482448h92a3,3,0,0,1,3,3v20a3,3,0,0,1,-3,3h-92a3,3,0,0,1,-3,-3v-20a3,3,0,0,1,3,-3z" stroke-width="1"></path><g id="node_text36" fill="black"><text id="kity_text_171" text-rendering="inherit" font-size="14" dy=".8em" y="1280.4000217169523" x="274.50000985711813">性能优化</text></g></g><g id="minder_node37"><g id="node_expander36" style="cursor: pointer;" display="none"><path id="kity_path_316" fill="white" stroke="gray" d="M393.50001154094934,1226.5000208094716A6,6,0,1,1,381.50001154094934,1226.5000208094716A6,6,0,1,1,393.50001154094934,1226.5000208094716"></path><path id="kity_path_317" fill="none" stroke="gray"></path></g><path id="node_outline37" fill="rgb(238, 243, 246)" stroke="rgb(115, 161, 191)" d="M286.5000102892518,1213.5000208094716h91a3,3,0,0,1,3,3v20a3,3,0,0,1,-3,3h-91a3,3,0,0,1,-3,-3v-20a3,3,0,0,1,3,-3z" stroke-width="1"></path><g id="node_text37" fill="black"><text id="kity_text_173" text-rendering="inherit" font-size="14" dy=".8em" y="1217.4000207781792" x="303.5000102892518">问题排查</text></g></g></g></g></svg>