<svg id="kity_svg_6" xmlns="http://www.w3.org/2000/svg" xmlns:xlink="http://www.w3.org/1999/xlink" version="1.1" width="1514" height="1001" style="background: rgb(251, 251, 251); visibility: visible;" viewBox="0 0 1514 1001"><defs id="kity_defs_7"><linearGradient id="kity_linearGradient_17" x1="0" y1="0" x2="0" y2="1"><stop id="kity_stop_18" offset="0" stop-color="rgb(255, 255, 255)"></stop><stop id="kity_stop_19" offset="1" stop-color="rgb(204, 204, 204)"></stop></linearGradient><marker id="kity_marker_2" orient="auto" refX="6" refY="0" viewBox="-7 -7 14 14" markerWidth="7" markerHeight="7" markerUnits="userSpaceOnUse"><path id="kity_path_3" fill="rgb(115, 161, 191)" stroke="none" d="M6,0A6,6,0,1,1,-6,0A6,6,0,1,1,6,0"></path></marker></defs><g id="kity_g_8"><g id="minder1" text-rendering="optimize-speed"><g id="minder_connect_group1"><path id="kity_path_31" fill="none" stroke="rgb(115, 161, 191)" stroke-width="1" d="M1052.5000092759728,499.5000110194087A153,0,0,0,1,1205.5000092759728,499.5000110194087"></path><path id="kity_path_33" fill="none" stroke="rgb(115, 161, 191)" stroke-width="1" d="M1346.5000092759728,499.5000110194087C1361.5000092759728,499.5000110194087,1361.5000092759728,383.5000110194087,1376.5000092759728,383.5000110194087L1464.5000092759728,383.5000110194087"></path><path id="kity_path_35" fill="none" stroke="rgb(115, 161, 191)" stroke-width="1" d="M1346.5000092759728,499.5000110194087C1361.5000092759728,499.5000110194087,1361.5000092759728,435.5000110194087,1376.5000092759728,435.5000110194087L1442.5000092759728,435.5000110194087"></path><path id="kity_path_37" fill="none" stroke="rgb(115, 161, 191)" stroke-width="1" d="M1346.5000092759728,499.5000110194087C1361.5000092759728,499.5000110194087,1361.5000092759728,487.5000110194087,1376.5000092759728,487.5000110194087L1493.5000092759728,487.5000110194087"></path><path id="kity_path_39" fill="none" stroke="rgb(115, 161, 191)" stroke-width="1" d="M1346.5000092759728,499.5000110194087C1361.5000092759728,499.5000110194087,1361.5000092759728,539.5000110194087,1376.5000092759728,539.5000110194087L1445.5000092759728,539.5000110194087"></path><path id="kity_path_41" fill="none" stroke="rgb(115, 161, 191)" stroke-width="1" d="M1346.5000092759728,499.5000110194087C1361.5000092759728,499.5000110194087,1361.5000092759728,591.5000110194087,1376.5000092759728,591.5000110194087L1432.5000092759728,591.5000110194087"></path><path id="kity_path_43" fill="none" stroke="rgb(115, 161, 191)" stroke-width="1" d="M1346.5000092759728,499.5000110194087C1361.5000092759728,499.5000110194087,1361.5000092759728,643.5000110194087,1376.5000092759728,643.5000110194087L1462.5000092759728,643.5000110194087"></path><path id="kity_path_45" fill="none" stroke="rgb(115, 161, 191)" stroke-width="1" d="M1052.5000092759728,499.5000110194087A153,0,0,0,1,899.5000092759728,499.5000110194087"></path><path id="kity_path_47" fill="none" stroke="rgb(115, 161, 191)" stroke-width="1" d="M758.5000092759728,499.5000110194087C743.5000092759728,499.5000110194087,743.5000092759728,45.5000110194087,728.5000092759728,45.5000110194087L473.50000927597284,45.5000110194087"></path><path id="kity_path_49" fill="none" stroke="rgb(115, 161, 191)" stroke-width="1" d="M758.5000092759728,499.5000110194087C743.5000092759728,499.5000110194087,743.5000092759728,325.5000110194087,728.5000092759728,325.5000110194087L669.5000092759728,325.5000110194087"></path><path id="kity_path_51" fill="none" stroke="rgb(115, 161, 191)" stroke-width="1" d="M669.5000092759728,325.5000110194087C654.5000092759728,325.5000110194087,654.5000092759728,241.5000110194087,639.5000092759728,241.5000110194087L499.50000927597284,241.5000110194087"></path><path id="kity_path_53" fill="none" stroke="rgb(115, 161, 191)" stroke-width="1" d="M499.50000927597284,241.5000110194087C484.50000927597284,241.5000110194087,484.50000927597284,124.5000110194087,469.50000927597284,124.5000110194087L167.50000927597284,124.5000110194087"></path><path id="kity_path_55" fill="none" stroke="rgb(115, 161, 191)" stroke-width="1" d="M167.50000927597284,124.5000110194087C152.50000927597284,124.5000110194087,152.50000927597284,98.5000110194087,137.50000927597284,98.5000110194087L55.50000927597284,98.5000110194087"></path><path id="kity_path_57" fill="none" stroke="rgb(115, 161, 191)" stroke-width="1" d="M167.50000927597284,124.5000110194087C152.50000927597284,124.5000110194087,152.50000927597284,150.5000110194087,137.50000927597284,150.5000110194087L19.500009275972843,150.5000110194087"></path><path id="kity_path_59" fill="none" stroke="rgb(115, 161, 191)" stroke-width="1" d="M499.50000927597284,241.5000110194087C484.50000927597284,241.5000110194087,484.50000927597284,254.5000110194087,469.50000927597284,254.5000110194087L363.50000927597284,254.5000110194087"></path><path id="kity_path_61" fill="none" stroke="rgb(115, 161, 191)" stroke-width="1" d="M363.50000927597284,254.5000110194087C348.50000927597284,254.5000110194087,348.50000927597284,202.5000110194087,333.50000927597284,202.5000110194087L116.50000927597284,202.5000110194087"></path><path id="kity_path_63" fill="none" stroke="rgb(115, 161, 191)" stroke-width="1" d="M363.50000927597284,254.5000110194087C348.50000927597284,254.5000110194087,348.50000927597284,254.5000110194087,333.50000927597284,254.5000110194087L38.50000927597284,254.5000110194087"></path><path id="kity_path_65" fill="none" stroke="rgb(115, 161, 191)" stroke-width="1" d="M363.50000927597284,254.5000110194087C348.50000927597284,254.5000110194087,348.50000927597284,306.5000110194087,333.50000927597284,306.5000110194087L215.50000927597284,306.5000110194087"></path><path id="kity_path_67" fill="none" stroke="rgb(115, 161, 191)" stroke-width="1" d="M499.50000927597284,241.5000110194087C484.50000927597284,241.5000110194087,484.50000927597284,358.5000110194087,469.50000927597284,358.5000110194087L390.50000927597284,358.5000110194087"></path><path id="kity_path_69" fill="none" stroke="rgb(115, 161, 191)" stroke-width="1" d="M669.5000092759728,325.5000110194087C654.5000092759728,325.5000110194087,654.5000092759728,410.5000110194087,639.5000092759728,410.5000110194087L558.5000092759728,410.5000110194087"></path><path id="kity_path_71" fill="none" stroke="rgb(115, 161, 191)" stroke-width="1" d="M758.5000092759728,499.5000110194087C743.5000092759728,499.5000110194087,743.5000092759728,461.5000110194087,728.5000092759728,461.5000110194087L665.5000092759728,461.5000110194087"></path><path id="kity_path_73" fill="none" stroke="rgb(115, 161, 191)" stroke-width="1" d="M758.5000092759728,499.5000110194087C743.5000092759728,499.5000110194087,743.5000092759728,513.5000110194087,728.5000092759728,513.5000110194087L628.5000092759728,513.5000110194087"></path><path id="kity_path_75" fill="none" stroke="rgb(115, 161, 191)" stroke-width="1" d="M758.5000092759728,499.5000110194087C743.5000092759728,499.5000110194087,743.5000092759728,565.5000110194087,728.5000092759728,565.5000110194087L643.5000092759728,565.5000110194087"></path><path id="kity_path_77" fill="none" stroke="rgb(115, 161, 191)" stroke-width="1" d="M758.5000092759728,499.5000110194087C743.5000092759728,499.5000110194087,743.5000092759728,617.5000110194087,728.5000092759728,617.5000110194087L678.5000092759728,617.5000110194087"></path><path id="kity_path_79" fill="none" stroke="rgb(115, 161, 191)" stroke-width="1" d="M758.5000092759728,499.5000110194087C743.5000092759728,499.5000110194087,743.5000092759728,721.5000110194087,728.5000092759728,721.5000110194087L652.5000092759728,721.5000110194087"></path><path id="kity_path_81" fill="none" stroke="rgb(115, 161, 191)" stroke-width="1" d="M652.5000092759728,721.5000110194087C637.5000092759728,721.5000110194087,637.5000092759728,669.5000110194087,622.5000092759728,669.5000110194087L543.5000092759728,669.5000110194087"></path><path id="kity_path_83" fill="none" stroke="rgb(115, 161, 191)" stroke-width="1" d="M543.5000092759728,669.5000110194087C528.5000092759728,669.5000110194087,528.5000092759728,669.5000110194087,513.5000092759728,669.5000110194087L55.50000927597284,669.5000110194087"></path><path id="kity_path_85" fill="none" stroke="rgb(115, 161, 191)" stroke-width="1" d="M652.5000092759728,721.5000110194087C637.5000092759728,721.5000110194087,637.5000092759728,721.5000110194087,622.5000092759728,721.5000110194087L508.50000927597284,721.5000110194087"></path><path id="kity_path_87" fill="none" stroke="rgb(115, 161, 191)" stroke-width="1" d="M652.5000092759728,721.5000110194087C637.5000092759728,721.5000110194087,637.5000092759728,773.5000110194087,622.5000092759728,773.5000110194087L518.5000092759728,773.5000110194087"></path><path id="kity_path_89" fill="none" stroke="rgb(115, 161, 191)" stroke-width="1" d="M758.5000092759728,499.5000110194087C743.5000092759728,499.5000110194087,743.5000092759728,877.5000110194087,728.5000092759728,877.5000110194087L612.5000092759728,877.5000110194087"></path><path id="kity_path_91" fill="none" stroke="rgb(115, 161, 191)" stroke-width="1" d="M612.5000092759728,877.5000110194087C597.5000092759728,877.5000110194087,597.5000092759728,825.5000110194087,582.5000092759728,825.5000110194087L513.5000092759728,825.5000110194087"></path><path id="kity_path_93" fill="none" stroke="rgb(115, 161, 191)" stroke-width="1" d="M612.5000092759728,877.5000110194087C597.5000092759728,877.5000110194087,597.5000092759728,877.5000110194087,582.5000092759728,877.5000110194087L432.50000927597284,877.5000110194087"></path><path id="kity_path_95" fill="none" stroke="rgb(115, 161, 191)" stroke-width="1" d="M612.5000092759728,877.5000110194087C597.5000092759728,877.5000110194087,597.5000092759728,929.5000110194087,582.5000092759728,929.5000110194087L462.50000927597284,929.5000110194087"></path><path id="kity_path_97" fill="none" stroke="rgb(115, 161, 191)" stroke-width="1" d="M758.5000092759728,499.5000110194087C743.5000092759728,499.5000110194087,743.5000092759728,981.5000110194087,728.5000092759728,981.5000110194087L560.5000092759728,981.5000110194087"></path></g><g id="minder_node1"><path id="node_outline1" fill="rgb(115, 161, 191)" stroke="rgb(57, 80, 96)" d="M1022.5000092759728,479.5000110194087h60a5,5,0,0,1,5,5v30a5,5,0,0,1,-5,5h-60a5,5,0,0,1,-5,-5v-30a5,5,0,0,1,5,-5z" stroke-width="3"></path><g id="node_text1" fill="white"><text id="kity_text_22" text-rendering="inherit" font-size="16" dy=".8em" y="489.1000109836459" x="1041.5000092759728">sql</text></g></g><g id="kity_g_12"><path id="kity_path_13" fill="none" stroke="none" d="M1041.5000092759728,499.5000110194087h0v0h0z"></path></g><g id="kity_g_14"><path id="kity_path_15" fill="none" stroke="none" d="M1041.5000092759728,499.5000110194087h0v0h0z"></path><path id="kity_path_16" fill="none" stroke="none"></path></g><g id="minder_node2"><g id="node_expander7" style="cursor: pointer;"><path id="kity_path_219" fill="white" stroke="gray" d="M1206.5000116452575,499.5000110194087A6,6,0,1,1,1194.5000116452575,499.5000110194087A6,6,0,1,1,1206.5000116452575,499.5000110194087"></path><path id="kity_path_220" fill="none" stroke="gray" d="M1196.0000116452575,499.5000110194087L1205.0000116452575,499.5000110194087"></path></g><path id="node_outline8" fill="rgb(238, 243, 246)" stroke="rgb(115, 161, 191)" d="M1210.5000120475888,486.5000110194087h133a3,3,0,0,1,3,3v20a3,3,0,0,1,-3,3h-133a3,3,0,0,1,-3,-3v-20a3,3,0,0,1,3,-3z" stroke-width="1"></path><g id="node_text8" fill="black"><text id="kity_text_111" text-rendering="inherit" font-size="14" dy=".8em" y="490.40001098811626" x="1227.5000120475888">select 简单语法</text></g></g><g id="minder_node3"><g id="node_expander1" display="none" style="cursor: pointer;"><path id="kity_path_201" fill="white" stroke="gray" d="M1386.5000143274665,369.50000908225775A6,6,0,1,1,1374.5000143274665,369.50000908225775A6,6,0,1,1,1386.5000143274665,369.50000908225775"></path><path id="kity_path_202" fill="none" stroke="gray"></path></g><path id="node_outline2" fill="none" stroke="none" d="M1391.500014565885,358.50000908225775h68a5,5,0,0,1,5,5v12a5,5,0,0,1,-5,5h-68a5,5,0,0,1,-5,-5v-12a5,5,0,0,1,5,-5z"></path><g id="node_text2" fill="black"><text id="kity_text_99" text-rendering="inherit" font-size="12" dy=".8em" y="361.70000905543566" x="1396.500014565885">distinct or</text></g></g><g id="minder_node4"><g id="node_expander2" display="none" style="cursor: pointer;"><path id="kity_path_204" fill="white" stroke="gray" d="M1386.5000143274665,421.50000985711813A6,6,0,1,1,1374.5000143274665,421.50000985711813A6,6,0,1,1,1386.5000143274665,421.50000985711813"></path><path id="kity_path_205" fill="none" stroke="gray"></path></g><path id="node_outline3" fill="none" stroke="none" d="M1391.500014565885,410.50000985711813h46a5,5,0,0,1,5,5v12a5,5,0,0,1,-5,5h-46a5,5,0,0,1,-5,-5v-12a5,5,0,0,1,5,-5z"></path><g id="node_text3" fill="black"><text id="kity_text_101" text-rendering="inherit" font-size="12" dy=".8em" y="413.70000983029604" x="1396.500014565885">where</text></g></g><g id="minder_node5"><g id="node_expander3" display="none" style="cursor: pointer;"><path id="kity_path_207" fill="white" stroke="gray" d="M1386.5000143274665,473.5000106319785A6,6,0,1,1,1374.5000143274665,473.5000106319785A6,6,0,1,1,1386.5000143274665,473.5000106319785"></path><path id="kity_path_208" fill="none" stroke="gray"></path></g><path id="node_outline4" fill="none" stroke="none" d="M1391.500014565885,462.5000106319785h97a5,5,0,0,1,5,5v12a5,5,0,0,1,-5,5h-97a5,5,0,0,1,-5,-5v-12a5,5,0,0,1,5,-5z"></path><g id="node_text4" fill="black"><text id="kity_text_103" text-rendering="inherit" font-size="12" dy=".8em" y="465.7000106051564" x="1396.500014565885">partition query</text></g></g><g id="minder_node6"><g id="node_expander4" display="none" style="cursor: pointer;"><path id="kity_path_210" fill="white" stroke="gray" d="M1386.5000143274665,525.5000114068389A6,6,0,1,1,1374.5000143274665,525.5000114068389A6,6,0,1,1,1386.5000143274665,525.5000114068389"></path><path id="kity_path_211" fill="none" stroke="gray"></path></g><path id="node_outline5" fill="none" stroke="none" d="M1391.500014565885,514.5000114068389h49a5,5,0,0,1,5,5v12a5,5,0,0,1,-5,5h-49a5,5,0,0,1,-5,-5v-12a5,5,0,0,1,5,-5z"></path><g id="node_text5" fill="black"><text id="kity_text_105" text-rendering="inherit" font-size="12" dy=".8em" y="517.7000113800168" x="1396.500014565885">having</text></g></g><g id="minder_node7"><g id="node_expander5" display="none" style="cursor: pointer;"><path id="kity_path_213" fill="white" stroke="gray" d="M1386.5000143274665,577.5000121816993A6,6,0,1,1,1374.5000143274665,577.5000121816993A6,6,0,1,1,1386.5000143274665,577.5000121816993"></path><path id="kity_path_214" fill="none" stroke="gray"></path></g><path id="node_outline6" fill="none" stroke="none" d="M1391.500014565885,566.5000121816993h36a5,5,0,0,1,5,5v12a5,5,0,0,1,-5,5h-36a5,5,0,0,1,-5,-5v-12a5,5,0,0,1,5,-5z"></path><g id="node_text6" fill="black"><text id="kity_text_107" text-rendering="inherit" font-size="12" dy=".8em" y="569.7000121548772" x="1396.500014565885">limit</text></g></g><g id="minder_node8"><g id="node_expander6" display="none" style="cursor: pointer;"><path id="kity_path_216" fill="white" stroke="gray" d="M1386.5000143274665,629.5000129565597A6,6,0,1,1,1374.5000143274665,629.5000129565597A6,6,0,1,1,1386.5000143274665,629.5000129565597"></path><path id="kity_path_217" fill="none" stroke="gray"></path></g><path id="node_outline7" fill="none" stroke="none" d="M1391.500014565885,618.5000129565597h66a5,5,0,0,1,5,5v12a5,5,0,0,1,-5,5h-66a5,5,0,0,1,-5,-5v-12a5,5,0,0,1,5,-5z"></path><g id="node_text7" fill="black"><text id="kity_text_109" text-rendering="inherit" font-size="12" dy=".8em" y="621.7000129297376" x="1396.500014565885">group by&#xa0;</text></g></g><g id="minder_node9"><g id="node_expander34" style="cursor: pointer;"><path id="kity_path_300" fill="white" stroke="gray" d="M910.5000072345138,499.5000110194087A6,6,0,1,1,898.5000072345138,499.5000110194087A6,6,0,1,1,910.5000072345138,499.5000110194087"></path><path id="kity_path_301" fill="none" stroke="gray" d="M900.0000072345138,499.5000110194087L909.0000072345138,499.5000110194087"></path></g><path id="node_outline35" fill="rgb(238, 243, 246)" stroke="rgb(115, 161, 191)" d="M761.5000053569674,486.5000110194087h133a3,3,0,0,1,3,3v20a3,3,0,0,1,-3,3h-133a3,3,0,0,1,-3,-3v-20a3,3,0,0,1,3,-3z" stroke-width="1"></path><g id="node_text35" fill="black"><text id="kity_text_165" text-rendering="inherit" font-size="14" dy=".8em" y="490.40001098811626" x="778.5000053569674">select 复杂语法</text></g></g><g id="minder_node10"><g id="node_expander8" display="none" style="cursor: pointer;"><path id="kity_path_222" fill="white" stroke="gray" d="M730.5000045523047,31.500004045665264A6,6,0,1,1,718.5000045523047,31.500004045665264A6,6,0,1,1,730.5000045523047,31.500004045665264"></path><path id="kity_path_223" fill="none" stroke="gray"></path></g><path id="node_outline9" fill="none" stroke="none" d="M478.5000009611249,20.500004045665264h235a5,5,0,0,1,5,5v12a5,5,0,0,1,-5,5h-235a5,5,0,0,1,-5,-5v-12a5,5,0,0,1,5,-5z"></path><g id="node_text9" fill="black"><text id="kity_text_113" text-rendering="inherit" font-size="12" dy=".8em" y="23.700004018843174" x="483.5000009611249"> SORT/ORDER/CLUSTER/DISTRIBUTE BY</text></g></g><g id="minder_node11"><g id="node_expander19" style="cursor: pointer;"><path id="kity_path_255" fill="white" stroke="gray" d="M730.5000045523047,311.5000082179904A6,6,0,1,1,718.5000045523047,311.5000082179904A6,6,0,1,1,730.5000045523047,311.5000082179904"></path><path id="kity_path_256" fill="none" stroke="gray" d="M720.0000045523047,311.5000082179904L729.0000045523047,311.5000082179904"></path></g><path id="node_outline20" fill="none" stroke="none" d="M674.5000038817525,300.5000082179904h39a5,5,0,0,1,5,5v12a5,5,0,0,1,-5,5h-39a5,5,0,0,1,-5,-5v-12a5,5,0,0,1,5,-5z"></path><g id="node_text20" fill="black"><text id="kity_text_135" text-rendering="inherit" font-size="12" dy=".8em" y="303.7000081911683" x="679.5000038817525">JOIN</text></g></g><g id="minder_node12"><g id="node_expander17" style="cursor: pointer;"><path id="kity_path_249" fill="white" stroke="gray" d="M641.5000032261014,227.50000696629286A6,6,0,1,1,629.5000032261014,227.50000696629286A6,6,0,1,1,641.5000032261014,227.50000696629286"></path><path id="kity_path_250" fill="none" stroke="gray" d="M631.0000032261014,227.50000696629286L640.0000032261014,227.50000696629286"></path></g><path id="node_outline18" fill="none" stroke="none" d="M504.5000013485551,216.50000696629286h120a5,5,0,0,1,5,5v12a5,5,0,0,1,-5,5h-120a5,5,0,0,1,-5,-5v-12a5,5,0,0,1,5,-5z"></path><g id="node_text18" fill="black"><text id="kity_text_131" text-rendering="inherit" font-size="12" dy=".8em" y="219.70000693947077" x="509.5000013485551">join 实现方式&amp;优化</text></g></g><g id="minder_node13"><g id="node_expander11" style="cursor: pointer;"><path id="kity_path_231" fill="white" stroke="gray" d="M471.500000692904,110.500005222857A6,6,0,1,1,459.500000692904,110.500005222857A6,6,0,1,1,471.500000692904,110.500005222857"></path><path id="kity_path_232" fill="none" stroke="gray" d="M461.000000692904,110.500005222857L470.000000692904,110.500005222857"></path></g><path id="node_outline12" fill="none" stroke="none" d="M172.49999640136957,99.500005222857h282a5,5,0,0,1,5,5v12a5,5,0,0,1,-5,5h-282a5,5,0,0,1,-5,-5v-12a5,5,0,0,1,5,-5z"></path><g id="node_text12" fill="black"><text id="kity_text_119" text-rendering="inherit" font-size="12" dy=".8em" y="102.70000519603491" x="177.49999640136957">join 原理(不考虑分布式，基础只有这两种join方式)</text></g></g><g id="minder_node14"><g id="node_expander9" display="none" style="cursor: pointer;"><path id="kity_path_225" fill="white" stroke="gray" d="M139.49999574571848,84.50000483542681A6,6,0,1,1,127.49999574571848,84.50000483542681A6,6,0,1,1,139.49999574571848,84.50000483542681"></path><path id="kity_path_226" fill="none" stroke="gray"></path></g><path id="node_outline10" fill="none" stroke="none" d="M60.49999473243952,73.50000483542681h62a5,5,0,0,1,5,5v12a5,5,0,0,1,-5,5h-62a5,5,0,0,1,-5,-5v-12a5,5,0,0,1,5,-5z"></path><g id="node_text10" fill="black"><text id="kity_text_115" text-rendering="inherit" font-size="12" dy=".8em" y="76.70000480860472" x="65.49999473243952">hash join</text></g></g><g id="minder_node15"><g id="node_expander10" display="none" style="cursor: pointer;"><path id="kity_path_228" fill="white" stroke="gray" d="M139.49999574571848,136.5000056102872A6,6,0,1,1,127.49999574571848,136.5000056102872A6,6,0,1,1,139.49999574571848,136.5000056102872"></path><path id="kity_path_229" fill="none" stroke="gray"></path></g><path id="node_outline11" fill="none" stroke="none" d="M24.499994195997715,125.50000561028719h98a5,5,0,0,1,5,5v12a5,5,0,0,1,-5,5h-98a5,5,0,0,1,-5,-5v-12a5,5,0,0,1,5,-5z"></path><g id="node_text11" fill="black"><text id="kity_text_117" text-rendering="inherit" font-size="12" dy=".8em" y="128.7000055834651" x="29.499994195997715">sort merge join</text></g></g><g id="minder_node16"><g id="node_expander15" style="cursor: pointer;"><path id="kity_path_243" fill="white" stroke="gray" d="M471.500000692904,240.50000716000795A6,6,0,1,1,459.500000692904,240.50000716000795A6,6,0,1,1,471.500000692904,240.50000716000795"></path><path id="kity_path_244" fill="none" stroke="gray" d="M461.000000692904,240.50000716000795L470.000000692904,240.50000716000795"></path></g><path id="node_outline16" fill="none" stroke="none" d="M368.49999932199717,229.50000716000795h86a5,5,0,0,1,5,5v12a5,5,0,0,1,-5,5h-86a5,5,0,0,1,-5,-5v-12a5,5,0,0,1,5,-5z"></path><g id="node_text16" fill="black"><text id="kity_text_127" text-rendering="inherit" font-size="12" dy=".8em" y="232.70000713318586" x="373.49999932199717">hive 实现方式</text></g></g><g id="minder_node17"><g id="node_expander12" display="none" style="cursor: pointer;"><path id="kity_path_234" fill="white" stroke="gray" d="M335.4999986663461,188.50000638514757A6,6,0,1,1,323.4999986663461,188.50000638514757A6,6,0,1,1,335.4999986663461,188.50000638514757"></path><path id="kity_path_235" fill="none" stroke="gray"></path></g><path id="node_outline13" fill="none" stroke="none" d="M121.49999564141035,177.50000638514757h197a5,5,0,0,1,5,5v12a5,5,0,0,1,-5,5h-197a5,5,0,0,1,-5,-5v-12a5,5,0,0,1,5,-5z"></path><g id="node_text13" fill="black"><text id="kity_text_121" text-rendering="inherit" font-size="12" dy=".8em" y="180.70000635832548" x="126.49999564141035">map join（broadcast hash join）</text></g></g><g id="minder_node18"><g id="node_expander13" display="none" style="cursor: pointer;"><path id="kity_path_237" fill="white" stroke="gray" d="M335.4999986663461,240.50000716000795A6,6,0,1,1,323.4999986663461,240.50000716000795A6,6,0,1,1,335.4999986663461,240.50000716000795"></path><path id="kity_path_238" fill="none" stroke="gray"></path></g><path id="node_outline14" fill="none" stroke="none" d="M43.49999447911978,229.50000716000795h275a5,5,0,0,1,5,5v12a5,5,0,0,1,-5,5h-275a5,5,0,0,1,-5,-5v-12a5,5,0,0,1,5,-5z"></path><g id="node_text14" fill="black"><text id="kity_text_123" text-rendering="inherit" font-size="12" dy=".8em" y="232.70000713318586" x="48.49999447911978">reduce join（common join ;shuffle hash join）</text></g></g><g id="minder_node19"><g id="node_expander14" display="none" style="cursor: pointer;"><path id="kity_path_240" fill="white" stroke="gray" d="M335.4999986663461,292.50000793486834A6,6,0,1,1,323.4999986663461,292.50000793486834A6,6,0,1,1,335.4999986663461,292.50000793486834"></path><path id="kity_path_241" fill="none" stroke="gray"></path></g><path id="node_outline15" fill="none" stroke="none" d="M220.4999971166253,281.50000793486834h98a5,5,0,0,1,5,5v12a5,5,0,0,1,-5,5h-98a5,5,0,0,1,-5,-5v-12a5,5,0,0,1,5,-5z"></path><g id="node_text15" fill="black"><text id="kity_text_125" text-rendering="inherit" font-size="12" dy=".8em" y="284.70000790804625" x="225.4999971166253">sort merge join</text></g></g><g id="minder_node20"><g id="node_expander16" display="none" style="cursor: pointer;"><path id="kity_path_246" fill="white" stroke="gray" d="M471.500000692904,344.5000087097287A6,6,0,1,1,459.500000692904,344.5000087097287A6,6,0,1,1,471.500000692904,344.5000087097287"></path><path id="kity_path_247" fill="none" stroke="gray"></path></g><path id="node_outline17" fill="none" stroke="none" d="M395.4999997243285,333.5000087097287h59a5,5,0,0,1,5,5v12a5,5,0,0,1,-5,5h-59a5,5,0,0,1,-5,-5v-12a5,5,0,0,1,5,-5z"></path><g id="node_text17" fill="black"><text id="kity_text_129" text-rendering="inherit" font-size="12" dy=".8em" y="336.7000086829066" x="400.4999997243285">使用场景</text></g></g><g id="minder_node21"><g id="node_expander18" display="none" style="cursor: pointer;"><path id="kity_path_252" fill="white" stroke="gray" d="M641.5000032261014,396.5000094845891A6,6,0,1,1,629.5000032261014,396.5000094845891A6,6,0,1,1,641.5000032261014,396.5000094845891"></path><path id="kity_path_253" fill="none" stroke="gray"></path></g><path id="node_outline19" fill="none" stroke="none" d="M563.5000022277236,385.5000094845891h61a5,5,0,0,1,5,5v12a5,5,0,0,1,-5,5h-61a5,5,0,0,1,-5,-5v-12a5,5,0,0,1,5,-5z"></path><g id="node_text19" fill="black"><text id="kity_text_133" text-rendering="inherit" font-size="12" dy=".8em" y="388.700009457767" x="568.5000022277236">join 语法</text></g></g><g id="minder_node22"><g id="node_expander20" display="none" style="cursor: pointer;"><path id="kity_path_258" fill="white" stroke="gray" d="M730.5000045523047,447.5000102445483A6,6,0,1,1,718.5000045523047,447.5000102445483A6,6,0,1,1,730.5000045523047,447.5000102445483"></path><path id="kity_path_259" fill="none" stroke="gray"></path></g><path id="node_outline21" fill="none" stroke="none" d="M670.5000038221478,436.5000102445483h43a5,5,0,0,1,5,5v12a5,5,0,0,1,-5,5h-43a5,5,0,0,1,-5,-5v-12a5,5,0,0,1,5,-5z"></path><g id="node_text21" fill="black"><text id="kity_text_137" text-rendering="inherit" font-size="12" dy=".8em" y="439.70001021772623" x="675.5000038221478">union</text></g></g><g id="minder_node23"><g id="node_expander21" display="none" style="cursor: pointer;"><path id="kity_path_261" fill="white" stroke="gray" d="M730.5000045523047,499.5000110194087A6,6,0,1,1,718.5000045523047,499.5000110194087A6,6,0,1,1,730.5000045523047,499.5000110194087"></path><path id="kity_path_262" fill="none" stroke="gray"></path></g><path id="node_outline22" fill="none" stroke="none" d="M633.5000032708049,488.5000110194087h80a5,5,0,0,1,5,5v12a5,5,0,0,1,-5,5h-80a5,5,0,0,1,-5,-5v-12a5,5,0,0,1,5,-5z"></path><g id="node_text22" fill="black"><text id="kity_text_139" text-rendering="inherit" font-size="12" dy=".8em" y="491.7000109925866" x="638.5000032708049">tablesample</text></g></g><g id="minder_node24"><g id="node_expander22" display="none" style="cursor: pointer;"><path id="kity_path_264" fill="white" stroke="gray" d="M730.5000045523047,551.5000117942691A6,6,0,1,1,718.5000045523047,551.5000117942691A6,6,0,1,1,730.5000045523047,551.5000117942691"></path><path id="kity_path_265" fill="none" stroke="gray"></path></g><path id="node_outline23" fill="none" stroke="none" d="M648.5000034943223,540.5000117942691h65a5,5,0,0,1,5,5v12a5,5,0,0,1,-5,5h-65a5,5,0,0,1,-5,-5v-12a5,5,0,0,1,5,-5z"></path><g id="node_text23" fill="black"><text id="kity_text_141" text-rendering="inherit" font-size="12" dy=".8em" y="543.700011767447" x="653.5000034943223">subquery</text></g></g><g id="minder_node25"><g id="node_expander23" display="none" style="cursor: pointer;"><path id="kity_path_267" fill="white" stroke="gray" d="M730.5000045523047,603.5000125691295A6,6,0,1,1,718.5000045523047,603.5000125691295A6,6,0,1,1,730.5000045523047,603.5000125691295"></path><path id="kity_path_268" fill="none" stroke="gray"></path></g><path id="node_outline24" fill="none" stroke="none" d="M683.5000040158629,592.5000125691295h30a5,5,0,0,1,5,5v12a5,5,0,0,1,-5,5h-30a5,5,0,0,1,-5,-5v-12a5,5,0,0,1,5,-5z"></path><g id="node_text24" fill="black"><text id="kity_text_143" text-rendering="inherit" font-size="12" dy=".8em" y="595.7000125423074" x="688.5000040158629">udf</text></g></g><g id="minder_node26"><g id="node_expander28" style="cursor: pointer;"><path id="kity_path_282" fill="white" stroke="gray" d="M730.5000045523047,707.5000141188502A6,6,0,1,1,718.5000045523047,707.5000141188502A6,6,0,1,1,730.5000045523047,707.5000141188502"></path><path id="kity_path_283" fill="none" stroke="gray" d="M720.0000045523047,707.5000141188502L729.0000045523047,707.5000141188502"></path></g><path id="node_outline29" fill="none" stroke="none" d="M657.5000036284328,696.5000141188502h56a5,5,0,0,1,5,5v12a5,5,0,0,1,-5,5h-56a5,5,0,0,1,-5,-5v-12a5,5,0,0,1,5,-5z"></path><g id="node_text29" fill="black"><text id="kity_text_153" text-rendering="inherit" font-size="12" dy=".8em" y="699.7000140920281" x="662.5000036284328">window</text></g></g><g id="minder_node27"><g id="node_expander25" style="cursor: pointer;"><path id="kity_path_273" fill="white" stroke="gray" d="M624.5000029727817,655.5000133439898A6,6,0,1,1,612.5000029727817,655.5000133439898A6,6,0,1,1,624.5000029727817,655.5000133439898"></path><path id="kity_path_274" fill="none" stroke="gray" d="M614.0000029727817,655.5000133439898L623.0000029727817,655.5000133439898"></path></g><path id="node_outline26" fill="none" stroke="none" d="M548.5000020042062,644.5000133439898h59a5,5,0,0,1,5,5v12a5,5,0,0,1,-5,5h-59a5,5,0,0,1,-5,-5v-12a5,5,0,0,1,5,-5z"></path><g id="node_text26" fill="black"><text id="kity_text_147" text-rendering="inherit" font-size="12" dy=".8em" y="647.7000133171678" x="553.5000020042062">执行顺序</text></g></g><g id="minder_node28"><g id="node_expander24" display="none" style="cursor: pointer;"><path id="kity_path_270" fill="white" stroke="gray" d="M515.5000013485551,655.5000133439898A6,6,0,1,1,503.5000013485551,655.5000133439898A6,6,0,1,1,515.5000013485551,655.5000133439898"></path><path id="kity_path_271" fill="none" stroke="gray"></path></g><path id="node_outline25" fill="none" stroke="none" d="M60.49999473243952,644.5000133439898h438a5,5,0,0,1,5,5v12a5,5,0,0,1,-5,5h-438a5,5,0,0,1,-5,-5v-12a5,5,0,0,1,5,-5z"></path><g id="node_text25" fill="black"><text id="kity_text_145" text-rendering="inherit" font-size="12" dy=".8em" y="647.7000133171678" x="65.49999473243952">分区(partition)-&gt;排序(order)-&gt;开窗范围控制(row/range控制)-&gt; 执行窗口函数</text></g></g><g id="minder_node29"><g id="node_expander26" display="none" style="cursor: pointer;"><path id="kity_path_276" fill="white" stroke="gray" d="M624.5000029727817,707.5000141188502A6,6,0,1,1,612.5000029727817,707.5000141188502A6,6,0,1,1,624.5000029727817,707.5000141188502"></path><path id="kity_path_277" fill="none" stroke="gray"></path></g><path id="node_outline27" fill="none" stroke="none" d="M513.5000014826655,696.5000141188502h94a5,5,0,0,1,5,5v12a5,5,0,0,1,-5,5h-94a5,5,0,0,1,-5,-5v-12a5,5,0,0,1,5,-5z"></path><g id="node_text27" fill="black"><text id="kity_text_149" text-rendering="inherit" font-size="12" dy=".8em" y="699.7000140920281" x="518.5000014826655">row/range区别</text></g></g><g id="minder_node30"><g id="node_expander27" display="none" style="cursor: pointer;"><path id="kity_path_279" fill="white" stroke="gray" d="M624.5000029727817,759.5000148937106A6,6,0,1,1,612.5000029727817,759.5000148937106A6,6,0,1,1,624.5000029727817,759.5000148937106"></path><path id="kity_path_280" fill="none" stroke="gray"></path></g><path id="node_outline28" fill="none" stroke="none" d="M523.5000016316772,748.5000148937106h84a5,5,0,0,1,5,5v12a5,5,0,0,1,-5,5h-84a5,5,0,0,1,-5,-5v-12a5,5,0,0,1,5,-5z"></path><g id="node_text28" fill="black"><text id="kity_text_151" text-rendering="inherit" font-size="12" dy=".8em" y="751.7000148668885" x="528.5000016316772">窗口函数类型</text></g></g><g id="minder_node31"><g id="node_expander32" style="cursor: pointer;"><path id="kity_path_294" fill="white" stroke="gray" d="M730.5000045523047,863.5000164434314A6,6,0,1,1,718.5000045523047,863.5000164434314A6,6,0,1,1,730.5000045523047,863.5000164434314"></path><path id="kity_path_295" fill="none" stroke="gray" d="M720.0000045523047,863.5000164434314L729.0000045523047,863.5000164434314"></path></g><path id="node_outline33" fill="none" stroke="none" d="M617.5000030323863,852.5000164434314h96a5,5,0,0,1,5,5v12a5,5,0,0,1,-5,5h-96a5,5,0,0,1,-5,-5v-12a5,5,0,0,1,5,-5z"></path><g id="node_text33" fill="black"><text id="kity_text_161" text-rendering="inherit" font-size="12" dy=".8em" y="855.7000164166093" x="622.5000030323863">行转类、列转行</text></g></g><g id="minder_node32"><g id="node_expander29" display="none" style="cursor: pointer;"><path id="kity_path_285" fill="white" stroke="gray" d="M584.5000023767352,811.500015668571A6,6,0,1,1,572.5000023767352,811.500015668571A6,6,0,1,1,584.5000023767352,811.500015668571"></path><path id="kity_path_286" fill="none" stroke="gray"></path></g><path id="node_outline30" fill="none" stroke="none" d="M518.5000015571713,800.500015668571h49a5,5,0,0,1,5,5v12a5,5,0,0,1,-5,5h-49a5,5,0,0,1,-5,-5v-12a5,5,0,0,1,5,-5z"></path><g id="node_text30" fill="black"><text id="kity_text_155" text-rendering="inherit" font-size="12" dy=".8em" y="803.7000156417489" x="523.5000015571713">concat</text></g></g><g id="minder_node33"><g id="node_expander30" display="none" style="cursor: pointer;"><path id="kity_path_288" fill="white" stroke="gray" d="M584.5000023767352,863.5000164434314A6,6,0,1,1,572.5000023767352,863.5000164434314A6,6,0,1,1,584.5000023767352,863.5000164434314"></path><path id="kity_path_289" fill="none" stroke="gray"></path></g><path id="node_outline31" fill="none" stroke="none" d="M437.5000003501773,852.5000164434314h130a5,5,0,0,1,5,5v12a5,5,0,0,1,-5,5h-130a5,5,0,0,1,-5,-5v-12a5,5,0,0,1,5,-5z"></path><g id="node_text31" fill="black"><text id="kity_text_157" text-rendering="inherit" font-size="12" dy=".8em" y="855.7000164166093" x="442.5000003501773">collect_set（行转列）</text></g></g><g id="minder_node34"><g id="node_expander31" display="none" style="cursor: pointer;"><path id="kity_path_291" fill="white" stroke="gray" d="M584.5000023767352,915.5000172182918A6,6,0,1,1,572.5000023767352,915.5000172182918A6,6,0,1,1,584.5000023767352,915.5000172182918"></path><path id="kity_path_292" fill="none" stroke="gray"></path></g><path id="node_outline32" fill="none" stroke="none" d="M467.5000007972121,904.5000172182918h100a5,5,0,0,1,5,5v12a5,5,0,0,1,-5,5h-100a5,5,0,0,1,-5,-5v-12a5,5,0,0,1,5,-5z"></path><g id="node_text32" fill="black"><text id="kity_text_159" text-rendering="inherit" font-size="12" dy=".8em" y="907.7000171914697" x="472.5000007972121">explode(列转行)</text></g></g><g id="minder_node35"><g id="node_expander33" display="none" style="cursor: pointer;"><path id="kity_path_297" fill="white" stroke="gray" d="M730.5000045523047,967.5000179931521A6,6,0,1,1,718.5000045523047,967.5000179931521A6,6,0,1,1,730.5000045523047,967.5000179931521"></path><path id="kity_path_298" fill="none" stroke="gray"></path></g><path id="node_outline34" fill="none" stroke="none" d="M565.5000022575259,956.5000179931521h148a5,5,0,0,1,5,5v12a5,5,0,0,1,-5,5h-148a5,5,0,0,1,-5,-5v-12a5,5,0,0,1,5,-5z"></path><g id="node_text34" fill="black"><text id="kity_text_163" text-rendering="inherit" font-size="12" dy=".8em" y="959.70001796633" x="570.5000022575259">LateralView（udtf使用）</text></g></g></g></g></svg>