<svg id="SvgjsSvg1550" width="1155.0124816894531" height="986.0000305175781" xmlns="http://www.w3.org/2000/svg" version="1.1" xmlns:xlink="http://www.w3.org/1999/xlink" xmlns:svgjs="http://svgjs.com/svgjs"><defs id="SvgjsDefs1551"><marker id="SvgjsMarker1626" markerWidth="14" markerHeight="10" refX="4" refY="5" viewBox="0 0 14 10" orient="auto" markerUnits="userSpaceOnUse" stroke-dasharray="0,0"><path id="SvgjsPath1627" d="M14,0 L0,5 L14,10 L14,0" fill="#323232" stroke="#323232" stroke-width="1"></path></marker><marker id="SvgjsMarker1630" markerWidth="14" markerHeight="10" refX="4" refY="5" viewBox="0 0 14 10" orient="auto" markerUnits="userSpaceOnUse" stroke-dasharray="0,0"><path id="SvgjsPath1631" d="M14,0 L0,5 L14,10 L14,0" fill="#323232" stroke="#323232" stroke-width="1"></path></marker><marker id="SvgjsMarker1672" markerWidth="14" markerHeight="10" refX="10" refY="5" viewBox="0 0 14 10" orient="auto" markerUnits="userSpaceOnUse" stroke-dasharray="0,0"><path id="SvgjsPath1673" d="M0,0 L14,5 L0,10 L0,0" fill="#323232" stroke="#323232" stroke-width="1"></path></marker><marker id="SvgjsMarker1676" markerWidth="14" markerHeight="10" refX="10" refY="5" viewBox="0 0 14 10" orient="auto" markerUnits="userSpaceOnUse" stroke-dasharray="0,0"><path id="SvgjsPath1677" d="M0,0 L14,5 L0,10 L0,0" fill="#323232" stroke="#323232" stroke-width="1"></path></marker><marker id="SvgjsMarker1680" markerWidth="14" markerHeight="10" refX="10" refY="5" viewBox="0 0 14 10" orient="auto" markerUnits="userSpaceOnUse" stroke-dasharray="0,0"><path id="SvgjsPath1681" d="M0,0 L14,5 L0,10 L0,0" fill="#323232" stroke="#323232" stroke-width="1"></path></marker><marker id="SvgjsMarker1684" markerWidth="14" markerHeight="10" refX="10" refY="5" viewBox="0 0 14 10" orient="auto" markerUnits="userSpaceOnUse" stroke-dasharray="0,0"><path id="SvgjsPath1685" d="M0,0 L14,5 L0,10 L0,0" fill="#323232" stroke="#323232" stroke-width="1"></path></marker><marker id="SvgjsMarker1698" markerWidth="14" markerHeight="10" refX="10" refY="5" viewBox="0 0 14 10" orient="auto" markerUnits="userSpaceOnUse" stroke-dasharray="0,0"><path id="SvgjsPath1699" d="M0,0 L14,5 L0,10 L0,0" fill="#323232" stroke="#323232" stroke-width="1"></path></marker><marker id="SvgjsMarker1716" markerWidth="14" markerHeight="10" refX="10" refY="5" viewBox="0 0 14 10" orient="auto" markerUnits="userSpaceOnUse" stroke-dasharray="0,0"><path id="SvgjsPath1717" d="M0,0 L14,5 L0,10 L0,0" fill="#323232" stroke="#323232" stroke-width="1"></path></marker><marker id="SvgjsMarker1744" markerWidth="14" markerHeight="10" refX="10" refY="5" viewBox="0 0 14 10" orient="auto" markerUnits="userSpaceOnUse" stroke-dasharray="0,0"><path id="SvgjsPath1745" d="M0,0 L14,5 L0,10 L0,0" fill="#323232" stroke="#323232" stroke-width="1"></path></marker><marker id="SvgjsMarker1748" markerWidth="14" markerHeight="10" refX="10" refY="5" viewBox="0 0 14 10" orient="auto" markerUnits="userSpaceOnUse" stroke-dasharray="0,0"><path id="SvgjsPath1749" d="M0,0 L14,5 L0,10 L0,0" fill="#323232" stroke="#323232" stroke-width="1"></path></marker><marker id="SvgjsMarker1752" markerWidth="14" markerHeight="10" refX="10" refY="5" viewBox="0 0 14 10" orient="auto" markerUnits="userSpaceOnUse" stroke-dasharray="0,0"><path id="SvgjsPath1753" d="M0,0 L14,5 L0,10 L0,0" fill="#323232" stroke="#323232" stroke-width="1"></path></marker><marker id="SvgjsMarker1756" markerWidth="14" markerHeight="10" refX="10" refY="5" viewBox="0 0 14 10" orient="auto" markerUnits="userSpaceOnUse" stroke-dasharray="0,0"><path id="SvgjsPath1757" d="M0,0 L14,5 L0,10 L0,0" fill="#323232" stroke="#323232" stroke-width="1"></path></marker><marker id="SvgjsMarker1784" markerWidth="14" markerHeight="10" refX="10" refY="5" viewBox="0 0 14 10" orient="auto" markerUnits="userSpaceOnUse" stroke-dasharray="0,0"><path id="SvgjsPath1785" d="M0,0 L14,5 L0,10 L0,0" fill="#323232" stroke="#323232" stroke-width="1"></path></marker><marker id="SvgjsMarker1788" markerWidth="14" markerHeight="10" refX="10" refY="5" viewBox="0 0 14 10" orient="auto" markerUnits="userSpaceOnUse" stroke-dasharray="0,0"><path id="SvgjsPath1789" d="M0,0 L14,5 L0,10 L0,0" fill="#323232" stroke="#323232" stroke-width="1"></path></marker><marker id="SvgjsMarker1792" markerWidth="14" markerHeight="10" refX="10" refY="5" viewBox="0 0 14 10" orient="auto" markerUnits="userSpaceOnUse" stroke-dasharray="0,0"><path id="SvgjsPath1793" d="M0,0 L14,5 L0,10 L0,0" fill="#323232" stroke="#323232" stroke-width="1"></path></marker><marker id="SvgjsMarker1836" markerWidth="14" markerHeight="10" refX="10" refY="5" viewBox="0 0 14 10" orient="auto" markerUnits="userSpaceOnUse" stroke-dasharray="0,0"><path id="SvgjsPath1837" d="M0,0 L14,5 L0,10 L0,0" fill="#323232" stroke="#323232" stroke-width="1"></path></marker><marker id="SvgjsMarker1840" markerWidth="14" markerHeight="10" refX="10" refY="5" viewBox="0 0 14 10" orient="auto" markerUnits="userSpaceOnUse" stroke-dasharray="0,0"><path id="SvgjsPath1841" d="M0,0 L14,5 L0,10 L0,0" fill="#323232" stroke="#323232" stroke-width="1"></path></marker><marker id="SvgjsMarker1844" markerWidth="14" markerHeight="10" refX="10" refY="5" viewBox="0 0 14 10" orient="auto" markerUnits="userSpaceOnUse" stroke-dasharray="0,0"><path id="SvgjsPath1845" d="M0,0 L14,5 L0,10 L0,0" fill="#323232" stroke="#323232" stroke-width="1"></path></marker></defs><g id="SvgjsG1552" transform="translate(418.01246643066406,392.00000953674316)"><path id="SvgjsPath1553" d="M 0 0L 425 0L 425 168.99999237060547L 0 168.99999237060547Z" stroke="rgba(50,50,50,1)" stroke-width="2" fill-opacity="1" fill="#ffffff"></path><g id="SvgjsG1554"><text id="SvgjsText1555" font-family="微软雅黑" text-anchor="start" font-size="13px" width="405px" fill="#323232" font-weight="400" align="top" lineHeight="125%" anchor="start" family="微软雅黑" size="13px" weight="400" font-style="" opacity="1" y="-1.625" transform="rotate(0)"><tspan id="SvgjsTspan1556" dy="16" x="10"><tspan id="SvgjsTspan1557" style="text-decoration:;">Broker 2</tspan></tspan></text></g></g><g id="SvgjsG1558" transform="translate(238.01246643066406,401.0000057220459)"><path id="SvgjsPath1559" d="M 0 4Q 0 0 4 0L 100 0Q 104 0 104 4L 104 215Q 104 219 100 219L 4 219Q 0 219 0 215Z" stroke="rgba(50,50,50,1)" stroke-width="2" fill-opacity="1" fill="#ffffff"></path><g id="SvgjsG1560"><text id="SvgjsText1561" font-family="微软雅黑" text-anchor="middle" font-size="13px" width="84px" fill="#323232" font-weight="400" align="middle" lineHeight="125%" anchor="middle" family="微软雅黑" size="13px" weight="400" font-style="" opacity="1" y="43.875" transform="rotate(0)"><tspan id="SvgjsTspan1562" dy="16" x="52"><tspan id="SvgjsTspan1563" style="text-decoration:;">Consumer </tspan></tspan><tspan id="SvgjsTspan1564" dy="16" x="52"><tspan id="SvgjsTspan1565" style="text-decoration:;">Group</tspan></tspan><tspan id="SvgjsTspan1566" dy="16" x="52"><tspan id="SvgjsTspan1567" style="text-decoration:;"> </tspan></tspan><tspan id="SvgjsTspan1568" dy="16" x="52"><tspan id="SvgjsTspan1569" style="text-decoration:;"> </tspan></tspan><tspan id="SvgjsTspan1570" dy="16" x="52"><tspan id="SvgjsTspan1571" style="text-decoration:;">Topic:Test</tspan></tspan><tspan id="SvgjsTspan1572" dy="16" x="52"><tspan id="SvgjsTspan1573" style="text-decoration:;"> </tspan></tspan><tspan id="SvgjsTspan1574" dy="16" x="52"><tspan id="SvgjsTspan1575" style="text-decoration:;">Partition </tspan></tspan><tspan id="SvgjsTspan1576" dy="16" x="52"><tspan id="SvgjsTspan1577" style="text-decoration:;">1,2,3</tspan></tspan></text></g></g><g id="SvgjsG1578" transform="translate(25.012466430664062,401.0000057220459)"><path id="SvgjsPath1579" d="M 0 4Q 0 0 4 0L 143 0Q 147 0 147 4L 147 82Q 147 86 143 86L 4 86Q 0 86 0 82Z" stroke="rgba(50,50,50,1)" stroke-width="2" fill-opacity="1" fill="#ffffff"></path><g id="SvgjsG1580"><text id="SvgjsText1581" font-family="微软雅黑" text-anchor="middle" font-size="13px" width="127px" fill="#323232" font-weight="400" align="middle" lineHeight="125%" anchor="middle" family="微软雅黑" size="13px" weight="400" font-style="" opacity="1" y="17.375" transform="rotate(0)"><tspan id="SvgjsTspan1582" dy="16" x="73.5"><tspan id="SvgjsTspan1583" style="text-decoration:;">Client 1: </tspan></tspan><tspan id="SvgjsTspan1584" dy="16" x="73.5"><tspan id="SvgjsTspan1585" style="text-decoration:;">（Consumer Group: </tspan></tspan><tspan id="SvgjsTspan1586" dy="16" x="73.5"><tspan id="SvgjsTspan1587" style="text-decoration:;">Partition 1） </tspan></tspan></text></g></g><g id="SvgjsG1588" transform="translate(25.012466430664062,514.0000095367432)"><path id="SvgjsPath1589" d="M 0 4Q 0 0 4 0L 143 0Q 147 0 147 4L 147 82Q 147 86 143 86L 4 86Q 0 86 0 82Z" stroke="rgba(50,50,50,1)" stroke-width="2" fill-opacity="1" fill="#ffffff"></path><g id="SvgjsG1590"><text id="SvgjsText1591" font-family="微软雅黑" text-anchor="middle" font-size="13px" width="127px" fill="#323232" font-weight="400" align="middle" lineHeight="125%" anchor="middle" family="微软雅黑" size="13px" weight="400" font-style="" opacity="1" y="17.375" transform="rotate(0)"><tspan id="SvgjsTspan1592" dy="16" x="73.5"><tspan id="SvgjsTspan1593" style="text-decoration:;">Client 1: </tspan></tspan><tspan id="SvgjsTspan1594" dy="16" x="73.5"><tspan id="SvgjsTspan1595" style="text-decoration:;">（Consumer Group: </tspan></tspan><tspan id="SvgjsTspan1596" dy="16" x="73.5"><tspan id="SvgjsTspan1597" style="text-decoration:;">Partition 2,3） </tspan></tspan></text></g></g><g id="SvgjsG1598" transform="translate(947.0124664306641,25.000017166137695)"><path id="SvgjsPath1599" d="M 18.815998878479004 0L 81.58401027679443 0L 100.40000915527344 44.799997329711914L 81.58401027679443 89.59999465942383L 18.815998878479004 89.59999465942383L 0 44.799997329711914L 18.815998878479004 0Z" stroke="rgba(50,50,50,1)" stroke-width="2" fill-opacity="1" fill="#ffffff"></path><g id="SvgjsG1600"><text id="SvgjsText1601" font-family="微软雅黑" text-anchor="middle" font-size="13px" width="81px" fill="#323232" font-weight="400" align="middle" lineHeight="125%" anchor="middle" family="微软雅黑" size="13px" weight="400" font-style="" opacity="1" y="27.174997329711914" transform="rotate(0)"><tspan id="SvgjsTspan1602" dy="16" x="50.5"><tspan id="SvgjsTspan1603" style="text-decoration:;">Zookeeper(L</tspan></tspan><tspan id="SvgjsTspan1604" dy="16" x="50.5"><tspan id="SvgjsTspan1605" style="text-decoration:;">eader 选主)</tspan></tspan></text></g></g><g id="SvgjsG1606" transform="translate(232.01246643066406,654.9999866485596)"><path id="SvgjsPath1607" d="M 0 4Q 0 0 4 0L 106 0Q 110 0 110 4L 110 263.2000198364258Q 110 267.2000198364258 106 267.2000198364258L 4 267.2000198364258Q 0 267.2000198364258 0 263.2000198364258Z" stroke="rgba(50,50,50,1)" stroke-width="2" fill-opacity="1" fill="#ffffff"></path><g id="SvgjsG1608"><text id="SvgjsText1609" font-family="微软雅黑" text-anchor="middle" font-size="13px" width="90px" fill="#323232" font-weight="400" align="middle" lineHeight="125%" anchor="middle" family="微软雅黑" size="13px" weight="400" font-style="" opacity="1" y="75.97500991821289" transform="rotate(0)"><tspan id="SvgjsTspan1610" dy="16" x="55"><tspan id="SvgjsTspan1611" style="text-decoration:;">Consumer </tspan></tspan><tspan id="SvgjsTspan1612" dy="16" x="55"><tspan id="SvgjsTspan1613" style="text-decoration:;">Group</tspan></tspan><tspan id="SvgjsTspan1614" dy="16" x="55"><tspan id="SvgjsTspan1615" style="text-decoration:;"> </tspan></tspan><tspan id="SvgjsTspan1616" dy="16" x="55"><tspan id="SvgjsTspan1617" style="text-decoration:;"> </tspan></tspan><tspan id="SvgjsTspan1618" dy="16" x="55"><tspan id="SvgjsTspan1619" style="text-decoration:;">Topic:Test</tspan></tspan><tspan id="SvgjsTspan1620" dy="16" x="55"><tspan id="SvgjsTspan1621" style="text-decoration:;"> </tspan></tspan><tspan id="SvgjsTspan1622" dy="16" x="55"><tspan id="SvgjsTspan1623" style="text-decoration:;">Partition 1,2,3</tspan></tspan></text></g></g><g id="SvgjsG1624"><path id="SvgjsPath1625" d="M175.61246643066406 444.0000057220459L205.01246643066406 444.0000057220459L205.01246643066406 510.5000057220459L237.01246643066406 510.5000057220459" stroke="#323232" stroke-width="2" fill="none" marker-start="url(#SvgjsMarker1626)"></path></g><g id="SvgjsG1628"><path id="SvgjsPath1629" d="M175.61246643066406 557.0000095367432L205.01246643066406 557.0000095367432L205.01246643066406 510.5000057220459L237.01246643066406 510.5000057220459" stroke="#323232" stroke-width="2" fill="none" marker-start="url(#SvgjsMarker1630)"></path></g><g id="SvgjsG1632" transform="translate(418.01246643066406,586.0000095367432)"><path id="SvgjsPath1633" d="M 0 0L 425 0L 425 168.99999237060547L 0 168.99999237060547Z" stroke="rgba(50,50,50,1)" stroke-width="2" fill-opacity="1" fill="#ffffff"></path><g id="SvgjsG1634"><text id="SvgjsText1635" font-family="微软雅黑" text-anchor="start" font-size="13px" width="405px" fill="#323232" font-weight="400" align="top" lineHeight="125%" anchor="start" family="微软雅黑" size="13px" weight="400" font-style="" opacity="1" y="-1.625" transform="rotate(0)"><tspan id="SvgjsTspan1636" dy="16" x="10"><tspan id="SvgjsTspan1637" style="text-decoration:;">Broker 3</tspan></tspan></text></g></g><g id="SvgjsG1638" transform="translate(578.0124664306641,627.0000171661377)"><path id="SvgjsPath1639" d="M 0 4Q 0 0 4 0L 89 0Q 93 0 93 4L 93 64.99999237060547Q 93 68.99999237060547 89 68.99999237060547L 4 68.99999237060547Q 0 68.99999237060547 0 64.99999237060547Z" stroke="rgba(50,50,50,1)" stroke-width="2" fill-opacity="1" fill="#ffffff"></path><g id="SvgjsG1640"><text id="SvgjsText1641" font-family="微软雅黑" text-anchor="middle" font-size="13px" width="73px" fill="#323232" font-weight="400" align="middle" lineHeight="125%" anchor="middle" family="微软雅黑" size="13px" weight="400" font-style="" opacity="1" y="8.874996185302734" transform="rotate(0)"><tspan id="SvgjsTspan1642" dy="16" x="46.5"><tspan id="SvgjsTspan1643" style="text-decoration:;">Topic:Test</tspan></tspan><tspan id="SvgjsTspan1644" dy="16" x="46.5"><tspan id="SvgjsTspan1645" style="text-decoration:;">Leader </tspan></tspan><tspan id="SvgjsTspan1646" dy="16" x="46.5"><tspan id="SvgjsTspan1647" style="text-decoration:;">Partition 2</tspan></tspan></text></g></g><g id="SvgjsG1648" transform="translate(418.01246643066406,211.00000953674316)"><path id="SvgjsPath1649" d="M 0 0L 425 0L 425 168.99999237060547L 0 168.99999237060547Z" stroke="rgba(50,50,50,1)" stroke-width="2" fill-opacity="1" fill="#ffffff"></path><g id="SvgjsG1650"><text id="SvgjsText1651" font-family="微软雅黑" text-anchor="start" font-size="13px" width="405px" fill="#323232" font-weight="400" align="top" lineHeight="125%" anchor="start" family="微软雅黑" size="13px" weight="400" font-style="" opacity="1" y="-1.625" transform="rotate(0)"><tspan id="SvgjsTspan1652" dy="16" x="10"><tspan id="SvgjsTspan1653" style="text-decoration:;">Broker 1</tspan></tspan></text></g></g><g id="SvgjsG1654" transform="translate(452.01246643066406,277.0000171661377)"><path id="SvgjsPath1655" d="M 0 4Q 0 0 4 0L 96.40000915527344 0Q 100.40000915527344 0 100.40000915527344 4L 100.40000915527344 65.99998474121094Q 100.40000915527344 69.99998474121094 96.40000915527344 69.99998474121094L 4 69.99998474121094Q 0 69.99998474121094 0 65.99998474121094Z" stroke="rgba(50,50,50,1)" stroke-width="2" fill-opacity="1" fill="#ffffff"></path><g id="SvgjsG1656"><text id="SvgjsText1657" font-family="微软雅黑" text-anchor="middle" font-size="13px" width="81px" fill="#323232" font-weight="400" align="middle" lineHeight="125%" anchor="middle" family="微软雅黑" size="13px" weight="400" font-style="" opacity="1" y="9.374992370605469" transform="rotate(0)"><tspan id="SvgjsTspan1658" dy="16" x="50.5"><tspan id="SvgjsTspan1659" style="text-decoration:;">Topic:Test</tspan></tspan><tspan id="SvgjsTspan1660" dy="16" x="50.5"><tspan id="SvgjsTspan1661" style="text-decoration:;">Leader </tspan></tspan><tspan id="SvgjsTspan1662" dy="16" x="50.5"><tspan id="SvgjsTspan1663" style="text-decoration:;">Partition 1</tspan></tspan></text></g></g><g id="SvgjsG1664" transform="translate(418.01246643066406,792.0000095367432)"><path id="SvgjsPath1665" d="M 0 0L 425 0L 425 168.99999237060547L 0 168.99999237060547Z" stroke="rgba(50,50,50,1)" stroke-width="2" fill-opacity="1" fill="#ffffff"></path><g id="SvgjsG1666"><text id="SvgjsText1667" font-family="微软雅黑" text-anchor="start" font-size="13px" width="405px" fill="#323232" font-weight="400" align="top" lineHeight="125%" anchor="start" family="微软雅黑" size="13px" weight="400" font-style="" opacity="1" y="-1.625" transform="rotate(0)"><tspan id="SvgjsTspan1668" dy="16" x="10"><tspan id="SvgjsTspan1669" style="text-decoration:;">Broker 4</tspan></tspan></text></g></g><g id="SvgjsG1670"><path id="SvgjsPath1671" d="M844.0124664306641 295.5000057220459L895.0124664306641 295.5000057220459L895.0124664306641 69.80001449584961L943.412466430664 69.80001449584961" stroke="#323232" stroke-width="2" fill="none" marker-end="url(#SvgjsMarker1672)"></path></g><g id="SvgjsG1674"><path id="SvgjsPath1675" d="M844.0124664306641 476.5000057220459L895.0124664306641 476.5000057220459L895.0124664306641 69.80001449584961L943.412466430664 69.80001449584961" stroke="#323232" stroke-width="2" fill="none" marker-end="url(#SvgjsMarker1676)"></path></g><g id="SvgjsG1678"><path id="SvgjsPath1679" d="M843.4124755859375 681.0000114440918L894.7124710083008 681.0000114440918L894.7124710083008 69.80001449584961L943.412466430664 69.80001449584961" stroke="#323232" stroke-width="2" fill="none" marker-end="url(#SvgjsMarker1680)"></path></g><g id="SvgjsG1682"><path id="SvgjsPath1683" d="M844.0124664306641 876.5000057220459L895.0124664306641 876.5000057220459L895.0124664306641 69.80001449584961L943.412466430664 69.80001449584961" stroke="#323232" stroke-width="2" fill="none" marker-end="url(#SvgjsMarker1684)"></path></g><g id="SvgjsG1686" transform="translate(452.01246643066406,475.50001335144043)"><path id="SvgjsPath1687" d="M 0 4Q 0 0 4 0L 96.40000915527344 0Q 100.40000915527344 0 100.40000915527344 4L 100.40000915527344 65.99998474121094Q 100.40000915527344 69.99998474121094 96.40000915527344 69.99998474121094L 4 69.99998474121094Q 0 69.99998474121094 0 65.99998474121094Z" stroke="rgba(50,50,50,1)" stroke-width="2" fill-opacity="1" fill="#ffffff"></path><g id="SvgjsG1688"><text id="SvgjsText1689" font-family="微软雅黑" text-anchor="middle" font-size="13px" width="81px" fill="#323232" font-weight="400" align="middle" lineHeight="125%" anchor="middle" family="微软雅黑" size="13px" weight="400" font-style="" opacity="1" y="9.374992370605469" transform="rotate(0)"><tspan id="SvgjsTspan1690" dy="16" x="50.5"><tspan id="SvgjsTspan1691" style="text-decoration:;">Topic:Test</tspan></tspan><tspan id="SvgjsTspan1692" dy="16" x="50.5"><tspan id="SvgjsTspan1693" style="text-decoration:;">Replace </tspan></tspan><tspan id="SvgjsTspan1694" dy="16" x="50.5"><tspan id="SvgjsTspan1695" style="text-decoration:;">Partition 1</tspan></tspan></text></g></g><g id="SvgjsG1696"><path id="SvgjsPath1697" d="M502.2124710083008 348.00000190734863L502.2124710083008 411.25000762939453L502.2124710083008 411.25000762939453L502.2124710083008 471.9000133514404" stroke="#323232" stroke-width="2" fill="none" marker-end="url(#SvgjsMarker1698)"></path><rect id="SvgjsRect1700" width="39" height="16" x="482.7124710083008" y="401.9500076293945" fill="#ffffff"></rect><text id="SvgjsText1701" font-family="微软雅黑" text-anchor="middle" font-size="13px" width="39px" fill="#323232" font-weight="400" align="top" lineHeight="16px" anchor="middle" family="微软雅黑" size="13px" weight="400" font-style="" opacity="1" y="400.3250076293945" transform="rotate(0)"><tspan id="SvgjsTspan1702" dy="16" x="502.2124710083008"><tspan id="SvgjsTspan1703" style="text-decoration:;">insync</tspan></tspan></text></g><g id="SvgjsG1704" transform="translate(578.0124664306641,835.0000171661377)"><path id="SvgjsPath1705" d="M 0 4Q 0 0 4 0L 89 0Q 93 0 93 4L 93 64.99999237060547Q 93 68.99999237060547 89 68.99999237060547L 4 68.99999237060547Q 0 68.99999237060547 0 64.99999237060547Z" stroke="rgba(50,50,50,1)" stroke-width="2" fill-opacity="1" fill="#ffffff"></path><g id="SvgjsG1706"><text id="SvgjsText1707" font-family="微软雅黑" text-anchor="middle" font-size="13px" width="73px" fill="#323232" font-weight="400" align="middle" lineHeight="125%" anchor="middle" family="微软雅黑" size="13px" weight="400" font-style="" opacity="1" y="8.874996185302734" transform="rotate(0)"><tspan id="SvgjsTspan1708" dy="16" x="46.5"><tspan id="SvgjsTspan1709" style="text-decoration:;">Topic:Test</tspan></tspan><tspan id="SvgjsTspan1710" dy="16" x="46.5"><tspan id="SvgjsTspan1711" style="text-decoration:;">Replace</tspan></tspan><tspan id="SvgjsTspan1712" dy="16" x="46.5"><tspan id="SvgjsTspan1713" style="text-decoration:;">Partition 2</tspan></tspan></text></g></g><g id="SvgjsG1714"><path id="SvgjsPath1715" d="M624.5124664306641 697.0000095367432L624.5124664306641 765.5000133514404L624.5124664306641 765.5000133514404L624.5124664306641 831.4000171661377" stroke="#323232" stroke-width="2" fill="none" marker-end="url(#SvgjsMarker1716)"></path><rect id="SvgjsRect1718" width="39" height="16" x="605.0124664306641" y="756.2000133514404" fill="#ffffff"></rect><text id="SvgjsText1719" font-family="微软雅黑" text-anchor="middle" font-size="13px" width="39px" fill="#323232" font-weight="400" align="top" lineHeight="16px" anchor="middle" family="微软雅黑" size="13px" weight="400" font-style="" opacity="1" y="754.5750133514404" transform="rotate(0)"><tspan id="SvgjsTspan1720" dy="16" x="624.5124664306641"><tspan id="SvgjsTspan1721" style="text-decoration:;">insync</tspan></tspan></text></g><g id="SvgjsG1722" transform="translate(717.0124664306641,880.0000171661377)"><path id="SvgjsPath1723" d="M 0 4Q 0 0 4 0L 89 0Q 93 0 93 4L 93 64.99999237060547Q 93 68.99999237060547 89 68.99999237060547L 4 68.99999237060547Q 0 68.99999237060547 0 64.99999237060547Z" stroke="rgba(50,50,50,1)" stroke-width="2" fill-opacity="1" fill="#ffffff"></path><g id="SvgjsG1724"><text id="SvgjsText1725" font-family="微软雅黑" text-anchor="middle" font-size="13px" width="73px" fill="#323232" font-weight="400" align="middle" lineHeight="125%" anchor="middle" family="微软雅黑" size="13px" weight="400" font-style="" opacity="1" y="8.874996185302734" transform="rotate(0)"><tspan id="SvgjsTspan1726" dy="16" x="46.5"><tspan id="SvgjsTspan1727" style="text-decoration:;">Topic:Test</tspan></tspan><tspan id="SvgjsTspan1728" dy="16" x="46.5"><tspan id="SvgjsTspan1729" style="text-decoration:;">Leader</tspan></tspan><tspan id="SvgjsTspan1730" dy="16" x="46.5"><tspan id="SvgjsTspan1731" style="text-decoration:;">Partition 3</tspan></tspan></text></g></g><g id="SvgjsG1732" transform="translate(717.0124664306641,221.50001335144043)"><path id="SvgjsPath1733" d="M 0 4Q 0 0 4 0L 89 0Q 93 0 93 4L 93 64.99999237060547Q 93 68.99999237060547 89 68.99999237060547L 4 68.99999237060547Q 0 68.99999237060547 0 64.99999237060547Z" stroke="rgba(50,50,50,1)" stroke-width="2" fill-opacity="1" fill="#ffffff"></path><g id="SvgjsG1734"><text id="SvgjsText1735" font-family="微软雅黑" text-anchor="middle" font-size="13px" width="73px" fill="#323232" font-weight="400" align="middle" lineHeight="125%" anchor="middle" family="微软雅黑" size="13px" weight="400" font-style="" opacity="1" y="8.874996185302734" transform="rotate(0)"><tspan id="SvgjsTspan1736" dy="16" x="46.5"><tspan id="SvgjsTspan1737" style="text-decoration:;">Topic:Test</tspan></tspan><tspan id="SvgjsTspan1738" dy="16" x="46.5"><tspan id="SvgjsTspan1739" style="text-decoration:;">Replace</tspan></tspan><tspan id="SvgjsTspan1740" dy="16" x="46.5"><tspan id="SvgjsTspan1741" style="text-decoration:;">Partition 3</tspan></tspan></text></g></g><g id="SvgjsG1742"><path id="SvgjsPath1743" d="M763.5124664306641 879.0000171661377L763.5124664306641 585.2500114440918L763.5124664306641 585.2500114440918L763.5124664306641 294.1000057220459" stroke="#323232" stroke-width="2" fill="none" marker-end="url(#SvgjsMarker1744)"></path></g><g id="SvgjsG1746"><path id="SvgjsPath1747" d="M451.01246643066406 312.00000953674316L400.7124710083008 312.00000953674316L400.7124710083008 525.0000171661377L345.0124755859375 525.0000171661377" stroke="#323232" stroke-width="2" fill="none" marker-end="url(#SvgjsMarker1748)"></path></g><g id="SvgjsG1750"><path id="SvgjsPath1751" d="M577.0124664306641 661.5000133514404L400.01246643066406 661.5000133514404L400.01246643066406 510.5000057220459L345.6124664306641 510.5000057220459" stroke="#323232" stroke-width="2" fill="none" marker-end="url(#SvgjsMarker1752)"></path></g><g id="SvgjsG1754"><path id="SvgjsPath1755" d="M716.0124664306641 914.5000133514404L401.51246643066406 914.5000133514404L401.51246643066406 510.5000057220459L345.6124664306641 510.5000057220459" stroke="#323232" stroke-width="2" fill="none" marker-end="url(#SvgjsMarker1756)"></path></g><g id="SvgjsG1758" transform="translate(1030.0124816894531,401.0000057220459)"><path id="SvgjsPath1759" d="M 0 0L 100 0L 100 70L 0 70Z" stroke="rgba(50,50,50,1)" stroke-width="2" fill-opacity="1" fill="#ffffff"></path><g id="SvgjsG1760"><text id="SvgjsText1761" font-family="微软雅黑" text-anchor="middle" font-size="13px" width="80px" fill="#323232" font-weight="400" align="middle" lineHeight="125%" anchor="middle" family="微软雅黑" size="13px" weight="400" font-style="" opacity="1" y="17.375" transform="rotate(0)"><tspan id="SvgjsTspan1762" dy="16" x="50"><tspan id="SvgjsTspan1763" style="text-decoration:;">N 个 </tspan></tspan><tspan id="SvgjsTspan1764" dy="16" x="50"><tspan id="SvgjsTspan1765" style="text-decoration:;">Producer</tspan></tspan></text></g></g><g id="SvgjsG1766" transform="translate(1026.0124816894531,545.4999980926514)"><path id="SvgjsPath1767" d="M 0 0L 100 0L 100 70L 0 70Z" stroke="rgba(50,50,50,1)" stroke-width="2" fill-opacity="1" fill="#ffffff"></path><g id="SvgjsG1768"><text id="SvgjsText1769" font-family="微软雅黑" text-anchor="middle" font-size="13px" width="80px" fill="#323232" font-weight="400" align="middle" lineHeight="125%" anchor="middle" family="微软雅黑" size="13px" weight="400" font-style="" opacity="1" y="17.375" transform="rotate(0)"><tspan id="SvgjsTspan1770" dy="16" x="50"><tspan id="SvgjsTspan1771" style="text-decoration:;">N 个 </tspan></tspan><tspan id="SvgjsTspan1772" dy="16" x="50"><tspan id="SvgjsTspan1773" style="text-decoration:;">Producer</tspan></tspan></text></g></g><g id="SvgjsG1774" transform="translate(1026.0124816894531,654.9999866485596)"><path id="SvgjsPath1775" d="M 0 0L 100 0L 100 70L 0 70Z" stroke="rgba(50,50,50,1)" stroke-width="2" fill-opacity="1" fill="#ffffff"></path><g id="SvgjsG1776"><text id="SvgjsText1777" font-family="微软雅黑" text-anchor="middle" font-size="13px" width="80px" fill="#323232" font-weight="400" align="middle" lineHeight="125%" anchor="middle" family="微软雅黑" size="13px" weight="400" font-style="" opacity="1" y="17.375" transform="rotate(0)"><tspan id="SvgjsTspan1778" dy="16" x="50"><tspan id="SvgjsTspan1779" style="text-decoration:;">N 个 </tspan></tspan><tspan id="SvgjsTspan1780" dy="16" x="50"><tspan id="SvgjsTspan1781" style="text-decoration:;">Producer</tspan></tspan></text></g></g><g id="SvgjsG1782"><path id="SvgjsPath1783" d="M1029.0124816894531 436.0000057220459L985.2124786376953 436.0000057220459L985.2124786376953 312.00000953674316L556.0124755859375 312.00000953674316" stroke="#323232" stroke-width="2" fill="none" marker-end="url(#SvgjsMarker1784)"></path></g><g id="SvgjsG1786"><path id="SvgjsPath1787" d="M1025.0124816894531 580.4999980926514L789.2124786376953 580.4999980926514L789.2124786376953 312.00000953674316L556.0124755859375 312.00000953674316" stroke="#323232" stroke-width="2" fill="none" marker-end="url(#SvgjsMarker1788)"></path></g><g id="SvgjsG1790"><path id="SvgjsPath1791" d="M1025.0124816894531 689.9999866485596L789.2124786376953 689.9999866485596L789.2124786376953 312.00000953674316L556.0124755859375 312.00000953674316" stroke="#323232" stroke-width="2" fill="none" marker-end="url(#SvgjsMarker1792)"></path></g><g id="SvgjsG1794" transform="translate(35.01246643066406,654.9999866485596)"><path id="SvgjsPath1795" d="M 0 4Q 0 0 4 0L 142.00001525878906 0Q 146.00001525878906 0 146.00001525878906 4L 146.00001525878906 54.20001983642578Q 146.00001525878906 58.20001983642578 142.00001525878906 58.20001983642578L 4 58.20001983642578Q 0 58.20001983642578 0 54.20001983642578Z" stroke="rgba(50,50,50,1)" stroke-width="2" fill-opacity="1" fill="#ffffff"></path><g id="SvgjsG1796"><text id="SvgjsText1797" font-family="微软雅黑" text-anchor="middle" font-size="13px" width="127px" fill="#323232" font-weight="400" align="middle" lineHeight="125%" anchor="middle" family="微软雅黑" size="13px" weight="400" font-style="" opacity="1" y="3.4750099182128906" transform="rotate(0)"><tspan id="SvgjsTspan1798" dy="16" x="73.5"><tspan id="SvgjsTspan1799" style="text-decoration:;">Client 1: </tspan></tspan><tspan id="SvgjsTspan1800" dy="16" x="73.5"><tspan id="SvgjsTspan1801" style="text-decoration:;">（Consumer Group: </tspan></tspan><tspan id="SvgjsTspan1802" dy="16" x="73.5"><tspan id="SvgjsTspan1803" style="text-decoration:;">Partition 1） </tspan></tspan></text></g></g><g id="SvgjsG1804" transform="translate(35.01246643066406,733.7999897003174)"><path id="SvgjsPath1805" d="M 0 4Q 0 0 4 0L 142.00001525878906 0Q 146.00001525878906 0 146.00001525878906 4L 146.00001525878906 54.20001983642578Q 146.00001525878906 58.20001983642578 142.00001525878906 58.20001983642578L 4 58.20001983642578Q 0 58.20001983642578 0 54.20001983642578Z" stroke="rgba(50,50,50,1)" stroke-width="2" fill-opacity="1" fill="#ffffff"></path><g id="SvgjsG1806"><text id="SvgjsText1807" font-family="微软雅黑" text-anchor="middle" font-size="13px" width="127px" fill="#323232" font-weight="400" align="middle" lineHeight="125%" anchor="middle" family="微软雅黑" size="13px" weight="400" font-style="" opacity="1" y="3.4750099182128906" transform="rotate(0)"><tspan id="SvgjsTspan1808" dy="16" x="73.5"><tspan id="SvgjsTspan1809" style="text-decoration:;">Client 1: </tspan></tspan><tspan id="SvgjsTspan1810" dy="16" x="73.5"><tspan id="SvgjsTspan1811" style="text-decoration:;">（Consumer Group: </tspan></tspan><tspan id="SvgjsTspan1812" dy="16" x="73.5"><tspan id="SvgjsTspan1813" style="text-decoration:;">Partition 2） </tspan></tspan></text></g></g><g id="SvgjsG1814" transform="translate(35.01246643066406,800.9999866485596)"><path id="SvgjsPath1815" d="M 0 4Q 0 0 4 0L 142.00001525878906 0Q 146.00001525878906 0 146.00001525878906 4L 146.00001525878906 54.20001983642578Q 146.00001525878906 58.20001983642578 142.00001525878906 58.20001983642578L 4 58.20001983642578Q 0 58.20001983642578 0 54.20001983642578Z" stroke="rgba(50,50,50,1)" stroke-width="2" fill-opacity="1" fill="#ffffff"></path><g id="SvgjsG1816"><text id="SvgjsText1817" font-family="微软雅黑" text-anchor="middle" font-size="13px" width="127px" fill="#323232" font-weight="400" align="middle" lineHeight="125%" anchor="middle" family="微软雅黑" size="13px" weight="400" font-style="" opacity="1" y="3.4750099182128906" transform="rotate(0)"><tspan id="SvgjsTspan1818" dy="16" x="73.5"><tspan id="SvgjsTspan1819" style="text-decoration:;">Client 1: </tspan></tspan><tspan id="SvgjsTspan1820" dy="16" x="73.5"><tspan id="SvgjsTspan1821" style="text-decoration:;">（Consumer Group: </tspan></tspan><tspan id="SvgjsTspan1822" dy="16" x="73.5"><tspan id="SvgjsTspan1823" style="text-decoration:;">Partition 3） </tspan></tspan></text></g></g><g id="SvgjsG1824" transform="translate(35.01246643066406,868.1999835968018)"><path id="SvgjsPath1825" d="M 0 4Q 0 0 4 0L 142.00001525878906 0Q 146.00001525878906 0 146.00001525878906 4L 146.00001525878906 54.20001983642578Q 146.00001525878906 58.20001983642578 142.00001525878906 58.20001983642578L 4 58.20001983642578Q 0 58.20001983642578 0 54.20001983642578Z" stroke="rgba(50,50,50,1)" stroke-width="2" fill-opacity="1" fill="#ffffff"></path><g id="SvgjsG1826"><text id="SvgjsText1827" font-family="微软雅黑" text-anchor="middle" font-size="13px" width="127px" fill="#323232" font-weight="400" align="middle" lineHeight="125%" anchor="middle" family="微软雅黑" size="13px" weight="400" font-style="" opacity="1" y="3.4750099182128906" transform="rotate(0)"><tspan id="SvgjsTspan1828" dy="16" x="73.5"><tspan id="SvgjsTspan1829" style="text-decoration:;">Client 1: </tspan></tspan><tspan id="SvgjsTspan1830" dy="16" x="73.5"><tspan id="SvgjsTspan1831" style="text-decoration:;">（Consumer Group: </tspan></tspan><tspan id="SvgjsTspan1832" dy="16" x="73.5"><tspan id="SvgjsTspan1833" style="text-decoration:;">NoNe） 没有数据 </tspan></tspan></text></g></g><g id="SvgjsG1834"><path id="SvgjsPath1835" d="M231.01246643066406 788.5999965667725L206.5124740600586 788.5999965667725L206.5124740600586 684.0999965667725L184.61248168945312 684.0999965667725" stroke="#323232" stroke-width="2" fill="none" marker-end="url(#SvgjsMarker1836)"></path></g><g id="SvgjsG1838"><path id="SvgjsPath1839" d="M231.01246643066406 788.5999965667725L206.5124740600586 788.5999965667725L206.5124740600586 762.8999996185303L184.61248168945312 762.8999996185303" stroke="#323232" stroke-width="2" fill="none" marker-end="url(#SvgjsMarker1840)"></path></g><g id="SvgjsG1842"><path id="SvgjsPath1843" d="M231.01246643066406 788.5999965667725L206.5124740600586 788.5999965667725L206.5124740600586 837.2000064849854L184.61248168945312 837.2000064849854" stroke="#323232" stroke-width="2" fill="none" marker-end="url(#SvgjsMarker1844)"></path></g></svg>