<svg id="kity_svg_6" xmlns="http://www.w3.org/2000/svg" xmlns:xlink="http://www.w3.org/1999/xlink" version="1.1" width="1003" height="2444" style="background: rgb(251, 251, 251); visibility: visible;" viewBox="0 0 1003 2444"><defs id="kity_defs_7"><linearGradient id="kity_linearGradient_17" x1="0" y1="0" x2="0" y2="1"><stop id="kity_stop_18" offset="0" stop-color="rgb(255, 255, 255)"></stop><stop id="kity_stop_19" offset="1" stop-color="rgb(204, 204, 204)"></stop></linearGradient><marker id="kity_marker_2" orient="auto" refX="6" refY="0" viewBox="-7 -7 14 14" markerWidth="7" markerHeight="7" markerUnits="userSpaceOnUse"><path id="kity_path_3" fill="rgb(115, 161, 191)" stroke="none" d="M6,0A6,6,0,1,1,-6,0A6,6,0,1,1,6,0"></path></marker></defs><g id="kity_g_8"><g id="minder1" text-rendering="optimize-speed"><g id="minder_connect_group1"><path id="kity_path_31" fill="none" stroke="rgb(115, 161, 191)" stroke-width="1" d="M65.00000343471766,1650.5000289604068A162.5,416,0,0,1,227.50000343471766,1234.5000289604068"></path><path id="kity_path_33" fill="none" stroke="rgb(115, 161, 191)" stroke-width="1" d="M453.50000343471766,1012.5000289604068C468.50000343471766,1012.5000289604068,468.50000343471766,622.5000289604068,483.50000343471766,622.5000289604068L563.5000034347177,622.5000289604068"></path><path id="kity_path_45" fill="none" stroke="rgb(115, 161, 191)" stroke-width="1" d="M453.50000343471766,1012.5000289604068C468.50000343471766,1012.5000289604068,468.50000343471766,1097.5000289604068,483.50000343471766,1097.5000289604068L562.5000034347177,1097.5000289604068"></path><path id="kity_path_65" fill="none" stroke="rgb(115, 161, 191)" stroke-width="1" d="M453.50000343471766,1012.5000289604068C468.50000343471766,1012.5000289604068,468.50000343471766,1350.5000289604068,483.50000343471766,1350.5000289604068L562.5000034347177,1350.5000289604068"></path><path id="kity_path_67" fill="none" stroke="rgb(115, 161, 191)" stroke-width="1" d="M453.50000343471766,1012.5000289604068C468.50000343471766,1012.5000289604068,468.50000343471766,1402.5000289604068,483.50000343471766,1402.5000289604068L562.5000034347177,1402.5000289604068"></path><path id="kity_path_69" fill="none" stroke="rgb(115, 161, 191)" stroke-width="1" d="M65.00000343471766,1650.5000289604068A252.5,177,0,0,0,317.50000343471766,1827.5000289604068"></path><path id="kity_path_79" fill="none" stroke="rgb(115, 161, 191)" stroke-width="1" d="M65.00000343471766,1650.5000289604068A224.5,374,0,0,0,289.50000343471766,2024.5000289604068"></path><path id="kity_path_93" fill="none" stroke="rgb(115, 161, 191)" stroke-width="1" d="M65.00000343471766,1650.5000289604068A150.5,1456,0,0,1,215.50000343471766,194.50002896040678"></path><path id="kity_path_109" fill="none" stroke="rgb(115, 161, 191)" stroke-width="1" d="M65.00000343471766,1650.5000289604068A240.5,10,0,0,0,305.50000343471766,1660.5000289604068"></path><path id="kity_path_434" fill="none" stroke="rgb(115, 161, 191)" stroke-width="1" d="M65.00000343471766,1650.5000289604068A227.5,554,0,0,0,292.50000343471766,2204.500028960407"></path><path id="kity_path_442" fill="none" stroke="rgb(115, 161, 191)" stroke-width="1" d="M65.00000343471766,1650.5000289604068A244.5,761,0,0,0,309.50000343471766,2411.500028960407"></path><path id="kity_path_565" fill="none" stroke="rgb(115, 161, 191)" stroke-width="1" d="M392.50000343471766,2204.500028960407C407.50000343471766,2204.500028960407,407.50000343471766,2140.500028960407,422.50000343471766,2140.500028960407L524.5000034347177,2140.500028960407"></path><path id="kity_path_566" fill="none" stroke="rgb(115, 161, 191)" stroke-width="1" d="M392.50000343471766,2204.500028960407C407.50000343471766,2204.500028960407,407.50000343471766,2192.500028960407,422.50000343471766,2192.500028960407L552.5000034347177,2192.500028960407"></path><path id="kity_path_567" fill="none" stroke="rgb(115, 161, 191)" stroke-width="1" d="M392.50000343471766,2204.500028960407C407.50000343471766,2204.500028960407,407.50000343471766,2244.500028960407,422.50000343471766,2244.500028960407L581.5000034347177,2244.500028960407"></path><path id="kity_path_568" fill="none" stroke="rgb(115, 161, 191)" stroke-width="1" d="M392.50000343471766,2204.500028960407C407.50000343471766,2204.500028960407,407.50000343471766,2296.500028960407,422.50000343471766,2296.500028960407L490.50000343471766,2296.500028960407"></path><path id="kity_path_570" fill="none" stroke="rgb(115, 161, 191)" stroke-width="1" d="M367.50000343471766,1234.5000289604068C382.50000343471766,1234.5000289604068,382.50000343471766,1012.5000289604068,397.50000343471766,1012.5000289604068L453.50000343471766,1012.5000289604068"></path><path id="kity_path_577" fill="none" stroke="rgb(115, 161, 191)" stroke-width="1" d="M563.5000034347177,622.5000289604068C578.5000034347177,622.5000289604068,578.5000034347177,518.5000289604068,593.5000034347177,518.5000289604068L652.5000034347177,518.5000289604068"></path><path id="kity_path_578" fill="none" stroke="rgb(115, 161, 191)" stroke-width="1" d="M563.5000034347177,622.5000289604068C578.5000034347177,622.5000289604068,578.5000034347177,570.5000289604068,593.5000034347177,570.5000289604068L672.5000034347177,570.5000289604068"></path><path id="kity_path_579" fill="none" stroke="rgb(115, 161, 191)" stroke-width="1" d="M563.5000034347177,622.5000289604068C578.5000034347177,622.5000289604068,578.5000034347177,622.5000289604068,593.5000034347177,622.5000289604068L656.5000034347177,622.5000289604068"></path><path id="kity_path_580" fill="none" stroke="rgb(115, 161, 191)" stroke-width="1" d="M563.5000034347177,622.5000289604068C578.5000034347177,622.5000289604068,578.5000034347177,674.5000289604068,593.5000034347177,674.5000289604068L658.5000034347177,674.5000289604068"></path><path id="kity_path_581" fill="none" stroke="rgb(115, 161, 191)" stroke-width="1" d="M563.5000034347177,622.5000289604068C578.5000034347177,622.5000289604068,578.5000034347177,726.5000289604068,593.5000034347177,726.5000289604068L660.5000034347177,726.5000289604068"></path><path id="kity_path_596" fill="none" stroke="rgb(115, 161, 191)" stroke-width="1" d="M660.5000034347177,896.5000289604068C675.5000034347177,896.5000289604068,675.5000034347177,779.5000289604068,690.5000034347177,779.5000289604068L743.5000034347177,779.5000289604068"></path><path id="kity_path_597" fill="none" stroke="rgb(115, 161, 191)" stroke-width="1" d="M660.5000034347177,896.5000289604068C675.5000034347177,896.5000289604068,675.5000034347177,831.5000289604068,690.5000034347177,831.5000289604068L738.5000034347177,831.5000289604068"></path><path id="kity_path_598" fill="none" stroke="rgb(115, 161, 191)" stroke-width="1" d="M778.5000034347177,909.5000289604068C793.5000034347177,909.5000289604068,793.5000034347177,883.5000289604068,808.5000034347177,883.5000289604068L874.5000034347177,883.5000289604068"></path><path id="kity_path_599" fill="none" stroke="rgb(115, 161, 191)" stroke-width="1" d="M778.5000034347177,909.5000289604068C793.5000034347177,909.5000289604068,793.5000034347177,935.5000289604068,808.5000034347177,935.5000289604068L934.5000034347177,935.5000289604068"></path><path id="kity_path_600" fill="none" stroke="rgb(115, 161, 191)" stroke-width="1" d="M660.5000034347177,896.5000289604068C675.5000034347177,896.5000289604068,675.5000034347177,909.5000289604068,690.5000034347177,909.5000289604068L778.5000034347177,909.5000289604068"></path><path id="kity_path_601" fill="none" stroke="rgb(115, 161, 191)" stroke-width="1" d="M782.5000034347177,1013.5000289604068C797.5000034347177,1013.5000289604068,797.5000034347177,987.5000289604068,812.5000034347177,987.5000289604068L938.5000034347177,987.5000289604068"></path><path id="kity_path_602" fill="none" stroke="rgb(115, 161, 191)" stroke-width="1" d="M782.5000034347177,1013.5000289604068C797.5000034347177,1013.5000289604068,797.5000034347177,1039.5000289604068,812.5000034347177,1039.5000289604068L929.5000034347177,1039.5000289604068"></path><path id="kity_path_603" fill="none" stroke="rgb(115, 161, 191)" stroke-width="1" d="M660.5000034347177,896.5000289604068C675.5000034347177,896.5000289604068,675.5000034347177,1013.5000289604068,690.5000034347177,1013.5000289604068L782.5000034347177,1013.5000289604068"></path><path id="kity_path_604" fill="none" stroke="rgb(115, 161, 191)" stroke-width="1" d="M562.5000034347177,1097.5000289604068C577.5000034347177,1097.5000289604068,577.5000034347177,896.5000289604068,592.5000034347177,896.5000289604068L660.5000034347177,896.5000289604068"></path><path id="kity_path_605" fill="none" stroke="rgb(115, 161, 191)" stroke-width="1" d="M562.5000034347177,1097.5000289604068C577.5000034347177,1097.5000289604068,577.5000034347177,1091.5000289604068,592.5000034347177,1091.5000289604068L651.5000034347177,1091.5000289604068"></path><path id="kity_path_606" fill="none" stroke="rgb(115, 161, 191)" stroke-width="1" d="M562.5000034347177,1097.5000289604068C577.5000034347177,1097.5000289604068,577.5000034347177,1143.5000289604068,592.5000034347177,1143.5000289604068L671.5000034347177,1143.5000289604068"></path><path id="kity_path_607" fill="none" stroke="rgb(115, 161, 191)" stroke-width="1" d="M562.5000034347177,1097.5000289604068C577.5000034347177,1097.5000289604068,577.5000034347177,1195.5000289604068,592.5000034347177,1195.5000289604068L672.5000034347177,1195.5000289604068"></path><path id="kity_path_608" fill="none" stroke="rgb(115, 161, 191)" stroke-width="1" d="M562.5000034347177,1097.5000289604068C577.5000034347177,1097.5000289604068,577.5000034347177,1247.5000289604068,592.5000034347177,1247.5000289604068L674.5000034347177,1247.5000289604068"></path><path id="kity_path_609" fill="none" stroke="rgb(115, 161, 191)" stroke-width="1" d="M562.5000034347177,1097.5000289604068C577.5000034347177,1097.5000289604068,577.5000034347177,1299.5000289604068,592.5000034347177,1299.5000289604068L679.5000034347177,1299.5000289604068"></path><path id="kity_path_611" fill="none" stroke="rgb(115, 161, 191)" stroke-width="1" d="M367.50000343471766,1234.5000289604068C388.00000343471766,1234.5000289604068,388.00000343471766,1523.5000289604068,408.50000343471766,1523.5000289604068L487.50000343471766,1523.5000289604068"></path><path id="kity_path_619" fill="none" stroke="rgb(115, 161, 191)" stroke-width="1" d="M487.50000343471766,1523.5000289604068C502.50000343471766,1523.5000289604068,502.50000343471766,1493.5000289604068,517.5000034347177,1493.5000289604068L620.5000034347177,1493.5000289604068"></path><path id="kity_path_627" fill="none" stroke="rgb(115, 161, 191)" stroke-width="1" d="M487.50000343471766,1523.5000289604068C502.50000343471766,1523.5000289604068,502.50000343471766,1554.5000289604068,517.5000034347177,1554.5000289604068L643.5000034347177,1554.5000289604068"></path><path id="kity_path_635" fill="none" stroke="rgb(115, 161, 191)" stroke-width="1" d="M643.5000034347177,1554.5000289604068C658.5000034347177,1554.5000289604068,658.5000034347177,1563.5000289604068,673.5000034347177,1563.5000289604068L983.5000034347177,1563.5000289604068"></path><path id="kity_path_643" fill="none" stroke="rgb(115, 161, 191)" stroke-width="1" d="M448.50000343471766,71.50002896040678C463.50000343471766,71.50002896040678,463.50000343471766,45.50002896040678,478.50000343471766,45.50002896040678L569.5000034347177,45.50002896040678"></path><path id="kity_path_644" fill="none" stroke="rgb(115, 161, 191)" stroke-width="1" d="M448.50000343471766,71.50002896040678C463.50000343471766,71.50002896040678,463.50000343471766,97.50002896040678,478.50000343471766,97.50002896040678L586.5000034347177,97.50002896040678"></path><path id="kity_path_645" fill="none" stroke="rgb(115, 161, 191)" stroke-width="1" d="M339.50000343471766,194.50002896040678C354.50000343471766,194.50002896040678,354.50000343471766,71.50002896040678,369.50000343471766,71.50002896040678L448.50000343471766,71.50002896040678"></path><path id="kity_path_646" fill="none" stroke="rgb(115, 161, 191)" stroke-width="1" d="M513.5000034347177,158.50002896040678C528.5000034347177,158.50002896040678,528.5000034347177,167.50002896040678,543.5000034347177,167.50002896040678L855.5000034347177,167.50002896040678"></path><path id="kity_path_647" fill="none" stroke="rgb(115, 161, 191)" stroke-width="1" d="M339.50000343471766,194.50002896040678C354.50000343471766,194.50002896040678,354.50000343471766,158.50002896040678,369.50000343471766,158.50002896040678L513.5000034347177,158.50002896040678"></path><path id="kity_path_648" fill="none" stroke="rgb(115, 161, 191)" stroke-width="1" d="M454.50000343471766,345.5000289604068C469.50000343471766,345.5000289604068,469.50000343471766,471.5000289604068,484.50000343471766,471.5000289604068L745.5000034347177,471.5000289604068"></path><path id="kity_path_649" fill="none" stroke="rgb(115, 161, 191)" stroke-width="1" d="M339.50000343471766,194.50002896040678C354.50000343471766,194.50002896040678,354.50000343471766,345.5000289604068,369.50000343471766,345.5000289604068L454.50000343471766,345.5000289604068"></path><path id="kity_path_650" fill="none" stroke="rgb(115, 161, 191)" stroke-width="1" d="M418.50000343471766,1660.5000289604068C433.50000343471766,1660.5000289604068,433.50000343471766,1622.5000289604068,448.50000343471766,1622.5000289604068L504.50000343471766,1622.5000289604068"></path><path id="kity_path_651" fill="none" stroke="rgb(115, 161, 191)" stroke-width="1" d="M418.50000343471766,1660.5000289604068C433.50000343471766,1660.5000289604068,433.50000343471766,1674.5000289604068,448.50000343471766,1674.5000289604068L503.50000343471766,1674.5000289604068"></path><path id="kity_path_652" fill="none" stroke="rgb(115, 161, 191)" stroke-width="1" d="M418.50000343471766,1660.5000289604068C433.50000343471766,1660.5000289604068,433.50000343471766,1726.5000289604068,448.50000343471766,1726.5000289604068L504.50000343471766,1726.5000289604068"></path><path id="kity_path_657" fill="none" stroke="rgb(115, 161, 191)" stroke-width="1" d="M401.50000343471766,1827.5000289604068C416.50000343471766,1827.5000289604068,416.50000343471766,1763.5000289604068,431.50000343471766,1763.5000289604068L613.5000034347177,1763.5000289604068"></path><path id="kity_path_658" fill="none" stroke="rgb(115, 161, 191)" stroke-width="1" d="M401.50000343471766,1827.5000289604068C416.50000343471766,1827.5000289604068,416.50000343471766,1815.5000289604068,431.50000343471766,1815.5000289604068L514.5000034347177,1815.5000289604068"></path><path id="kity_path_659" fill="none" stroke="rgb(115, 161, 191)" stroke-width="1" d="M401.50000343471766,1827.5000289604068C416.50000343471766,1827.5000289604068,416.50000343471766,1867.5000289604068,431.50000343471766,1867.5000289604068L499.50000343471766,1867.5000289604068"></path><path id="kity_path_660" fill="none" stroke="rgb(115, 161, 191)" stroke-width="1" d="M401.50000343471766,1827.5000289604068C416.50000343471766,1827.5000289604068,416.50000343471766,1919.5000289604068,431.50000343471766,1919.5000289604068L559.5000034347177,1919.5000289604068"></path><path id="kity_path_661" fill="none" stroke="rgb(115, 161, 191)" stroke-width="1" d="M373.50000343471766,2024.5000289604068C388.50000343471766,2024.5000289604068,388.50000343471766,2012.5000289604068,403.50000343471766,2012.5000289604068L580.5000034347177,2012.5000289604068"></path><path id="kity_path_662" fill="none" stroke="rgb(115, 161, 191)" stroke-width="1" d="M373.50000343471766,2024.5000289604068C388.50000343471766,2024.5000289604068,388.50000343471766,2064.500028960407,403.50000343471766,2064.500028960407L471.50000343471766,2064.500028960407"></path></g><g id="minder_node1"><path id="node_outline1" fill="rgb(115, 161, 191)" stroke="rgb(115, 161, 191)" d="M25.500003434717655,1630.5000289604068h79a5,5,0,0,1,5,5v30a5,5,0,0,1,-5,5h-79a5,5,0,0,1,-5,-5v-30a5,5,0,0,1,5,-5z" stroke-width="3"></path><g id="node_text1" fill="white"><text id="kity_text_22" text-rendering="inherit" font-size="16" dy=".8em" y="1640.100028924644" x="44.500003434717655">kafka</text></g></g><g id="kity_g_14" display="none"><path id="kity_path_15" fill="rgba(0, 92, 153, 0.5)" stroke="none" d="M407.50000343471766,1289.5000289604068h46v15h-46z"></path><path id="kity_path_16" fill="none" stroke="rgb(0, 76, 128)" d="M407.50000343471766,1304.5000289604068L453.50000343471766,1304.5000289604068" stroke-width="1"></path></g><g id="minder_node2"><g id="node_expander19" style="cursor: pointer;"><path id="kity_path_315" fill="white" stroke="gray" d="M228.50000608712435,1234.5000227615237A6,6,0,1,1,216.50000608712435,1234.5000227615237A6,6,0,1,1,228.50000608712435,1234.5000227615237"></path><path id="kity_path_316" fill="none" stroke="gray" d="M218.00000608712435,1234.5000227615237L227.00000608712435,1234.5000227615237"></path></g><path id="node_outline20" fill="rgb(238, 243, 246)" stroke="rgb(115, 161, 191)" d="M232.5000064894557,1221.5000227615237h132a3,3,0,0,1,3,3v20a3,3,0,0,1,-3,3h-132a3,3,0,0,1,-3,-3v-20a3,3,0,0,1,3,-3z" stroke-width="1"></path><g id="node_text20" fill="black"><text id="kity_text_153" text-rendering="inherit" font-size="14" dy=".8em" y="1225.4000227302313" x="249.5000064894557">基本架构&amp;概念</text></g></g><g id="minder_node3" opacity="1"><g id="node_expander6" style="cursor: pointer;"><path id="kity_path_276" fill="white" stroke="gray" d="M493.50001003593206,608.5000134333968A6,6,0,1,1,481.50001003593206,608.5000134333968A6,6,0,1,1,493.50001003593206,608.5000134333968"></path><path id="kity_path_277" fill="none" stroke="gray" d="M483.00001003593206,608.5000134333968L492.00001003593206,608.5000134333968"></path></g><path id="node_outline7" fill="none" stroke="none" d="M498.50001027435064,597.5000134333968h60a5,5,0,0,1,5,5v12a5,5,0,0,1,-5,5h-60a5,5,0,0,1,-5,-5v-12a5,5,0,0,1,5,-5z" stroke-width="3"></path><g id="node_text7" fill="black"><text id="kity_text_127" text-rendering="inherit" font-size="12" dy=".8em" y="600.7000134065747" x="503.50001027435064">用户角度</text></g></g><g id="minder_node9" opacity="1"><g id="node_expander16" style="cursor: pointer;"><path id="kity_path_306" fill="white" stroke="gray" d="M493.50001003593206,1083.5000205114484A6,6,0,1,1,481.50001003593206,1083.5000205114484A6,6,0,1,1,493.50001003593206,1083.5000205114484"></path><path id="kity_path_307" fill="none" stroke="gray" d="M483.00001003593206,1083.5000205114484L492.00001003593206,1083.5000205114484"></path></g><path id="node_outline17" fill="none" stroke="none" d="M498.50001027435064,1072.5000205114484h59a5,5,0,0,1,5,5v12a5,5,0,0,1,-5,5h-59a5,5,0,0,1,-5,-5v-12a5,5,0,0,1,5,-5z" stroke-width="3"></path><g id="node_text17" fill="black"><text id="kity_text_147" text-rendering="inherit" font-size="12" dy=".8em" y="1075.7000204846263" x="503.50001027435064">集群角度</text></g></g><g id="minder_node19" opacity="1"><g id="node_expander17" style="cursor: pointer;" display="none"><path id="kity_path_309" fill="white" stroke="gray" d="M493.50001003593206,1336.5000242814422A6,6,0,1,1,481.50001003593206,1336.5000242814422A6,6,0,1,1,493.50001003593206,1336.5000242814422"></path><path id="kity_path_310" fill="none" stroke="gray"></path></g><path id="node_outline18" fill="none" stroke="none" d="M498.50001027435064,1325.5000242814422h59a5,5,0,0,1,5,5v12a5,5,0,0,1,-5,5h-59a5,5,0,0,1,-5,-5v-12a5,5,0,0,1,5,-5z" stroke-width="3"></path><g id="node_text18" fill="black"><text id="kity_text_149" text-rendering="inherit" font-size="12" dy=".8em" y="1328.70002425462" x="503.50001027435064">队列模型</text></g></g><g id="minder_node20" opacity="1"><g id="node_expander18" style="cursor: pointer;" display="none"><path id="kity_path_312" fill="white" stroke="gray" d="M493.50001003593206,1388.5000250563025A6,6,0,1,1,481.50001003593206,1388.5000250563025A6,6,0,1,1,493.50001003593206,1388.5000250563025"></path><path id="kity_path_313" fill="none" stroke="gray"></path></g><path id="node_outline19" fill="none" stroke="none" d="M498.50001027435064,1377.5000250563025h59a5,5,0,0,1,5,5v12a5,5,0,0,1,-5,5h-59a5,5,0,0,1,-5,-5v-12a5,5,0,0,1,5,-5z" stroke-width="3"></path><g id="node_text19" fill="black"><text id="kity_text_151" text-rendering="inherit" font-size="12" dy=".8em" y="1380.7000250294805" x="503.50001027435064">适用场景</text></g></g><g id="minder_node21" opacity="1"><g id="node_expander24" style="cursor: pointer;"><path id="kity_path_330" fill="white" stroke="gray" d="M318.50000742822886,1827.5000315979123A6,6,0,1,1,306.50000742822886,1827.5000315979123A6,6,0,1,1,318.50000742822886,1827.5000315979123"></path><path id="kity_path_331" fill="none" stroke="gray" d="M308.00000742822886,1827.5000315979123L317.00000742822886,1827.5000315979123"></path></g><path id="node_outline25" fill="rgb(238, 243, 246)" stroke="rgb(115, 161, 191)" d="M322.5000078305602,1814.5000315979123h76a3,3,0,0,1,3,3v20a3,3,0,0,1,-3,3h-76a3,3,0,0,1,-3,-3v-20a3,3,0,0,1,3,-3z" stroke-width="1"></path><g id="node_text25" fill="black"><text id="kity_text_163" text-rendering="inherit" font-size="14" dy=".8em" y="1818.4000315666199" x="339.5000078305602">生产者</text></g></g><g id="minder_node26" opacity="1"><g id="node_expander26" style="cursor: pointer;"><path id="kity_path_336" fill="white" stroke="gray" d="M290.50000701099634,2024.500034533441A6,6,0,1,1,278.50000701099634,2024.500034533441A6,6,0,1,1,290.50000701099634,2024.500034533441"></path><path id="kity_path_337" fill="none" stroke="gray" d="M280.00000701099634,2024.500034533441L289.00000701099634,2024.500034533441"></path></g><path id="node_outline27" fill="rgb(238, 243, 246)" stroke="rgb(57, 80, 96)" d="M294.5000074133277,2011.500034533441h76a3,3,0,0,1,3,3v20a3,3,0,0,1,-3,3h-76a3,3,0,0,1,-3,-3v-20a3,3,0,0,1,3,-3z" stroke-width="3"></path><g id="node_text27" fill="black"><text id="kity_text_167" text-rendering="inherit" font-size="14" dy=".8em" y="2015.4000345021486" x="311.5000074133277">消费者</text></g></g><g id="minder_node33" opacity="1"><g id="node_expander39" style="cursor: pointer;"><path id="kity_path_375" fill="white" stroke="gray" d="M216.5000059083104,194.50000726431608A6,6,0,1,1,204.5000059083104,194.50000726431608A6,6,0,1,1,216.5000059083104,194.50000726431608"></path><path id="kity_path_376" fill="none" stroke="gray" d="M206.0000059083104,194.50000726431608L215.0000059083104,194.50000726431608"></path></g><path id="node_outline40" fill="rgb(238, 243, 246)" stroke="rgb(115, 161, 191)" d="M220.50000631064177,181.50000726431608h116a3,3,0,0,1,3,3v20a3,3,0,0,1,-3,3h-116a3,3,0,0,1,-3,-3v-20a3,3,0,0,1,3,-3z" stroke-width="1"></path><g id="node_text40" fill="black"><text id="kity_text_208" text-rendering="inherit" font-size="14" dy=".8em" y="185.40000723302364" x="237.50000631064177">what &amp; why</text></g></g><g id="minder_node41" opacity="1"><g id="node_expander43" style="cursor: pointer;"><path id="kity_path_387" fill="white" stroke="gray" d="M431.50000911206007,1660.5000291094184A6,6,0,1,1,419.50000911206007,1660.5000291094184A6,6,0,1,1,431.50000911206007,1660.5000291094184"></path><path id="kity_path_388" fill="none" stroke="gray" d="M421.00000911206007,1660.5000291094184L430.00000911206007,1660.5000291094184"></path></g><path id="node_outline44" fill="rgb(238, 243, 246)" stroke="rgb(115, 161, 191)" d="M310.5000076517463,1647.5000291094184h105a3,3,0,0,1,3,3v20a3,3,0,0,1,-3,3h-105a3,3,0,0,1,-3,-3v-20a3,3,0,0,1,3,-3z" stroke-width="1"></path><g id="node_text44" fill="black"><text id="kity_text_216" text-rendering="inherit" font-size="14" dy=".8em" y="1651.400029078126" x="327.5000076517463">可靠性保障</text></g></g><g id="minder_node50" opacity="1"><g id="node_expander49" style="cursor: pointer;"><path id="kity_path_439" fill="white" stroke="gray" d="M405.5000087246299,2204.50003721565A6,6,0,1,1,393.5000087246299,2204.50003721565A6,6,0,1,1,405.5000087246299,2204.50003721565"></path><path id="kity_path_440" fill="none" stroke="gray" d="M395.0000087246299,2204.50003721565L404.0000087246299,2204.50003721565"></path></g><path id="node_outline50" fill="rgb(238, 243, 246)" stroke="rgb(115, 161, 191)" d="M297.5000074580312,2191.50003721565h92a3,3,0,0,1,3,3v20a3,3,0,0,1,-3,3h-92a3,3,0,0,1,-3,-3v-20a3,3,0,0,1,3,-3z" stroke-width="1"></path><g id="node_text50" fill="black"><text id="kity_text_436" text-rendering="inherit" font-size="14" dy=".8em" y="2195.4000371843576" x="314.5000074580312">架构原理</text></g></g><g id="minder_node51" opacity="1"><g id="node_expander50" style="cursor: pointer;" display="none"><path id="kity_path_447" fill="white" stroke="gray" d="M392.5000085309148,2411.5000403001904A6,6,0,1,1,380.5000085309148,2411.5000403001904A6,6,0,1,1,392.5000085309148,2411.5000403001904"></path><path id="kity_path_448" fill="none" stroke="gray"></path></g><path id="node_outline51" fill="rgb(238, 243, 246)" stroke="rgb(115, 161, 191)" d="M314.5000077113509,2398.5000403001904h62a3,3,0,0,1,3,3v20a3,3,0,0,1,-3,3h-62a3,3,0,0,1,-3,-3v-20a3,3,0,0,1,3,-3z" stroke-width="1"></path><g id="node_text51" fill="black"><text id="kity_text_444" text-rendering="inherit" font-size="14" dy=".8em" y="2402.400040268898" x="331.5000077113509">监控</text></g></g><g id="minder_node53"><g id="node_expander52" style="cursor: pointer;" display="none"><path id="kity_path_463" fill="white" stroke="gray" d="M432.50000912696123,2126.5000360533595A6,6,0,1,1,420.50000912696123,2126.5000360533595A6,6,0,1,1,432.50000912696123,2126.5000360533595"></path><path id="kity_path_464" fill="none" stroke="gray"></path></g><path id="node_outline53" fill="none" stroke="none" d="M437.5000093653798,2115.5000360533595h82a5,5,0,0,1,5,5v12a5,5,0,0,1,-5,5h-82a5,5,0,0,1,-5,-5v-12a5,5,0,0,1,5,-5z" stroke-width="3"></path><g id="node_text53" fill="black"><text id="kity_text_460" text-rendering="inherit" font-size="12" dy=".8em" y="2118.7000360265374" x="442.5000093653798">副本实现机制</text></g></g><g id="minder_node54"><g id="node_expander53" style="cursor: pointer;" display="none"><path id="kity_path_471" fill="white" stroke="gray" d="M432.50000912696123,2178.50003682822A6,6,0,1,1,420.50000912696123,2178.50003682822A6,6,0,1,1,432.50000912696123,2178.50003682822"></path><path id="kity_path_472" fill="none" stroke="gray"></path></g><path id="node_outline54" fill="none" stroke="none" d="M437.5000093653798,2167.50003682822h110a5,5,0,0,1,5,5v12a5,5,0,0,1,-5,5h-110a5,5,0,0,1,-5,-5v-12a5,5,0,0,1,5,-5z" stroke-width="3"></path><g id="node_text54" fill="black"><text id="kity_text_468" text-rendering="inherit" font-size="12" dy=".8em" y="2170.700036801398" x="442.5000093653798">(log)日志存储实现</text></g></g><g id="minder_node55"><g id="node_expander54" style="cursor: pointer;" display="none"><path id="kity_path_479" fill="white" stroke="gray" d="M432.50000912696123,2230.5000376030803A6,6,0,1,1,420.50000912696123,2230.5000376030803A6,6,0,1,1,432.50000912696123,2230.5000376030803"></path><path id="kity_path_480" fill="none" stroke="gray"></path></g><path id="node_outline55" fill="none" stroke="none" d="M437.5000093653798,2219.5000376030803h139a5,5,0,0,1,5,5v12a5,5,0,0,1,-5,5h-139a5,5,0,0,1,-5,-5v-12a5,5,0,0,1,5,-5z" stroke-width="3"></path><g id="node_text55" fill="black"><text id="kity_text_476" text-rendering="inherit" font-size="12" dy=".8em" y="2222.700037576258" x="442.5000093653798">高水位机制(数据可见性)</text></g></g><g id="minder_node56"><g id="node_expander55" style="cursor: pointer;" display="none"><path id="kity_path_487" fill="white" stroke="gray" d="M432.50000912696123,2282.5000383779407A6,6,0,1,1,420.50000912696123,2282.5000383779407A6,6,0,1,1,432.50000912696123,2282.5000383779407"></path><path id="kity_path_488" fill="none" stroke="gray"></path></g><path id="node_outline56" fill="none" stroke="none" d="M437.5000093653798,2271.5000383779407h48a5,5,0,0,1,5,5v12a5,5,0,0,1,-5,5h-48a5,5,0,0,1,-5,-5v-12a5,5,0,0,1,5,-5z" stroke-width="3"></path><g id="node_text56" fill="black"><text id="kity_text_484" text-rendering="inherit" font-size="12" dy=".8em" y="2274.7000383511186" x="442.5000093653798">控制器</text></g></g><g id="minder_node57"><g id="node_expander56" style="cursor: pointer;"><path id="kity_path_575" fill="white" stroke="gray" d="M407.5000087544322,998.5000192448497A6,6,0,1,1,395.5000087544322,998.5000192448497A6,6,0,1,1,407.5000087544322,998.5000192448497"></path><path id="kity_path_576" fill="none" stroke="gray" d="M397.0000087544322,998.5000192448497L406.0000087544322,998.5000192448497"></path></g><path id="node_outline57" fill="none" stroke="none" d="M412.5000089928508,987.5000192448497h36a5,5,0,0,1,5,5v12a5,5,0,0,1,-5,5h-36a5,5,0,0,1,-5,-5v-12a5,5,0,0,1,5,-5z" stroke-width="3"></path><g id="node_text57" fill="black"><text id="kity_text_572" text-rendering="inherit" font-size="12" dy=".8em" y="990.7000192180276" x="417.5000089928508">概念</text></g></g><g id="minder_node4"><g id="node_expander1" style="cursor: pointer;" display="none"><path id="kity_path_261" fill="white" stroke="gray" d="M603.5000116750598,504.50001188367605A6,6,0,1,1,591.5000116750598,504.50001188367605A6,6,0,1,1,603.5000116750598,504.50001188367605"></path><path id="kity_path_262" fill="none" stroke="gray"></path></g><path id="node_outline2" fill="none" stroke="none" d="M608.5000119134784,493.50001188367605h39a5,5,0,0,1,5,5v12a5,5,0,0,1,-5,5h-39a5,5,0,0,1,-5,-5v-12a5,5,0,0,1,5,-5z"></path><g id="node_text2" fill="black"><text id="kity_text_117" text-rendering="inherit" font-size="12" dy=".8em" y="496.70001185685396" x="613.5000119134784">topic</text></g></g><g id="minder_node5"><g id="node_expander2" style="cursor: pointer;" display="none"><path id="kity_path_264" fill="white" stroke="gray" d="M603.5000116750598,556.5000126585364A6,6,0,1,1,591.5000116750598,556.5000126585364A6,6,0,1,1,603.5000116750598,556.5000126585364"></path><path id="kity_path_265" fill="none" stroke="gray"></path></g><path id="node_outline3" fill="none" stroke="none" d="M608.5000119134784,545.5000126585364h59a5,5,0,0,1,5,5v12a5,5,0,0,1,-5,5h-59a5,5,0,0,1,-5,-5v-12a5,5,0,0,1,5,-5z"></path><g id="node_text3" fill="black"><text id="kity_text_119" text-rendering="inherit" font-size="12" dy=".8em" y="548.7000126317143" x="613.5000119134784">partition</text></g></g><g id="minder_node6"><g id="node_expander3" style="cursor: pointer;" display="none"><path id="kity_path_267" fill="white" stroke="gray" d="M603.5000116750598,608.5000134333968A6,6,0,1,1,591.5000116750598,608.5000134333968A6,6,0,1,1,603.5000116750598,608.5000134333968"></path><path id="kity_path_268" fill="none" stroke="gray"></path></g><path id="node_outline4" fill="none" stroke="none" d="M608.5000119134784,597.5000134333968h43a5,5,0,0,1,5,5v12a5,5,0,0,1,-5,5h-43a5,5,0,0,1,-5,-5v-12a5,5,0,0,1,5,-5z"></path><g id="node_text4" fill="black"><text id="kity_text_121" text-rendering="inherit" font-size="12" dy=".8em" y="600.7000134065747" x="613.5000119134784">offset</text></g></g><g id="minder_node7"><g id="node_expander4" style="cursor: pointer;" display="none"><path id="kity_path_270" fill="white" stroke="gray" d="M603.5000116750598,660.5000142082572A6,6,0,1,1,591.5000116750598,660.5000142082572A6,6,0,1,1,603.5000116750598,660.5000142082572"></path><path id="kity_path_271" fill="none" stroke="gray"></path></g><path id="node_outline5" fill="none" stroke="none" d="M608.5000119134784,649.5000142082572h45a5,5,0,0,1,5,5v12a5,5,0,0,1,-5,5h-45a5,5,0,0,1,-5,-5v-12a5,5,0,0,1,5,-5z"></path><g id="node_text5" fill="black"><text id="kity_text_123" text-rendering="inherit" font-size="12" dy=".8em" y="652.7000141814351" x="613.5000119134784">group</text></g></g><g id="minder_node8"><g id="node_expander5" style="cursor: pointer;" display="none"><path id="kity_path_273" fill="white" stroke="gray" d="M603.5000116750598,712.5000149831176A6,6,0,1,1,591.5000116750598,712.5000149831176A6,6,0,1,1,603.5000116750598,712.5000149831176"></path><path id="kity_path_274" fill="none" stroke="gray"></path></g><path id="node_outline6" fill="none" stroke="none" d="M608.5000119134784,701.5000149831176h47a5,5,0,0,1,5,5v12a5,5,0,0,1,-5,5h-47a5,5,0,0,1,-5,-5v-12a5,5,0,0,1,5,-5z"></path><g id="node_text6" fill="black"><text id="kity_text_125" text-rendering="inherit" font-size="12" dy=".8em" y="704.7000149562955" x="613.5000119134784">record</text></g></g><g id="minder_node11"><g id="node_expander7" style="cursor: pointer;" display="none"><path id="kity_path_279" fill="white" stroke="gray" d="M700.5000131204724,765.5000157728791A6,6,0,1,1,688.5000131204724,765.5000157728791A6,6,0,1,1,700.5000131204724,765.5000157728791"></path><path id="kity_path_280" fill="none" stroke="gray"></path></g><path id="node_outline8" fill="none" stroke="none" d="M705.500013358891,754.5000157728791h33a5,5,0,0,1,5,5v12a5,5,0,0,1,-5,5h-33a5,5,0,0,1,-5,-5v-12a5,5,0,0,1,5,-5z"></path><g id="node_text8" fill="black"><text id="kity_text_129" text-rendering="inherit" font-size="12" dy=".8em" y="757.700015746057" x="710.500013358891">LEO</text></g></g><g id="minder_node12"><g id="node_expander8" style="cursor: pointer;" display="none"><path id="kity_path_282" fill="white" stroke="gray" d="M700.5000131204724,817.5000165477395A6,6,0,1,1,688.5000131204724,817.5000165477395A6,6,0,1,1,700.5000131204724,817.5000165477395"></path><path id="kity_path_283" fill="none" stroke="gray"></path></g><path id="node_outline9" fill="none" stroke="none" d="M705.500013358891,806.5000165477395h28a5,5,0,0,1,5,5v12a5,5,0,0,1,-5,5h-28a5,5,0,0,1,-5,-5v-12a5,5,0,0,1,5,-5z"></path><g id="node_text9" fill="black"><text id="kity_text_131" text-rendering="inherit" font-size="12" dy=".8em" y="809.7000165209174" x="710.500013358891">ISR</text></g></g><g id="minder_node17"><g id="node_expander13" style="cursor: pointer;" display="none"><path id="kity_path_297" fill="white" stroke="gray" d="M818.5000148788095,869.5000173225999A6,6,0,1,1,806.5000148788095,869.5000173225999A6,6,0,1,1,818.5000148788095,869.5000173225999"></path><path id="kity_path_298" fill="none" stroke="gray"></path></g><path id="node_outline14" fill="none" stroke="none" d="M823.500015117228,858.5000173225999h46a5,5,0,0,1,5,5v12a5,5,0,0,1,-5,5h-46a5,5,0,0,1,-5,-5v-12a5,5,0,0,1,5,-5z" stroke-width="3"></path><g id="node_text14" fill="black"><text id="kity_text_141" text-rendering="inherit" font-size="12" dy=".8em" y="861.7000172957778" x="828.500015117228">leader</text></g></g><g id="minder_node18"><g id="node_expander14" style="cursor: pointer;" display="none"><path id="kity_path_300" fill="white" stroke="gray" d="M818.5000148788095,921.5000180974603A6,6,0,1,1,806.5000148788095,921.5000180974603A6,6,0,1,1,818.5000148788095,921.5000180974603"></path><path id="kity_path_301" fill="none" stroke="gray"></path></g><path id="node_outline15" fill="none" stroke="none" d="M823.500015117228,910.5000180974603h106a5,5,0,0,1,5,5v12a5,5,0,0,1,-5,5h-106a5,5,0,0,1,-5,-5v-12a5,5,0,0,1,5,-5z"></path><g id="node_text15" fill="black"><text id="kity_text_143" text-rendering="inherit" font-size="12" dy=".8em" y="913.7000180706382" x="828.500015117228">replace(follower)</text></g></g><g id="minder_node16" opacity="1"><g id="node_expander15" style="cursor: pointer;"><path id="kity_path_303" fill="white" stroke="gray" d="M700.5000131204724,895.5000177100301A6,6,0,1,1,688.5000131204724,895.5000177100301A6,6,0,1,1,700.5000131204724,895.5000177100301"></path><path id="kity_path_304" fill="none" stroke="gray" d="M690.0000131204724,895.5000177100301L699.0000131204724,895.5000177100301"></path></g><path id="node_outline16" fill="none" stroke="none" d="M705.500013358891,884.5000177100301h68a5,5,0,0,1,5,5v12a5,5,0,0,1,-5,5h-68a5,5,0,0,1,-5,-5v-12a5,5,0,0,1,5,-5z" stroke-width="3"></path><g id="node_text16" fill="black"><text id="kity_text_145" text-rendering="inherit" font-size="12" dy=".8em" y="887.700017683208" x="710.500013358891">Controller</text></g></g><g id="minder_node14"><g id="node_expander10" style="cursor: pointer;" display="none"><path id="kity_path_288" fill="white" stroke="gray" d="M822.5000149384141,973.5000188723207A6,6,0,1,1,810.5000149384141,973.5000188723207A6,6,0,1,1,822.5000149384141,973.5000188723207"></path><path id="kity_path_289" fill="none" stroke="gray"></path></g><path id="node_outline11" fill="none" stroke="none" d="M827.5000151768327,962.5000188723207h106a5,5,0,0,1,5,5v12a5,5,0,0,1,-5,5h-106a5,5,0,0,1,-5,-5v-12a5,5,0,0,1,5,-5z"></path><g id="node_text11" fill="black"><text id="kity_text_135" text-rendering="inherit" font-size="12" dy=".8em" y="965.7000188454986" x="832.5000151768327">HightWatermark</text></g></g><g id="minder_node15"><g id="node_expander11" style="cursor: pointer;" display="none"><path id="kity_path_291" fill="white" stroke="gray" d="M822.5000149384141,1025.500019647181A6,6,0,1,1,810.5000149384141,1025.500019647181A6,6,0,1,1,822.5000149384141,1025.500019647181"></path><path id="kity_path_292" fill="none" stroke="gray"></path></g><path id="node_outline12" fill="none" stroke="none" d="M827.5000151768327,1014.500019647181h97a5,5,0,0,1,5,5v12a5,5,0,0,1,-5,5h-97a5,5,0,0,1,-5,-5v-12a5,5,0,0,1,5,-5z"></path><g id="node_text12" fill="black"><text id="kity_text_137" text-rendering="inherit" font-size="12" dy=".8em" y="1017.700019620359" x="832.5000151768327">LowWatermark</text></g></g><g id="minder_node13" opacity="1"><g id="node_expander12" style="cursor: pointer;"><path id="kity_path_294" fill="white" stroke="gray" d="M700.5000131204724,999.5000192597508A6,6,0,1,1,688.5000131204724,999.5000192597508A6,6,0,1,1,700.5000131204724,999.5000192597508"></path><path id="kity_path_295" fill="none" stroke="gray" d="M690.0000131204724,999.5000192597508L699.0000131204724,999.5000192597508"></path></g><path id="node_outline13" fill="none" stroke="none" d="M705.500013358891,988.5000192597508h72a5,5,0,0,1,5,5v12a5,5,0,0,1,-5,5h-72a5,5,0,0,1,-5,-5v-12a5,5,0,0,1,5,-5z" stroke-width="3"></path><g id="node_text13" fill="black"><text id="kity_text_139" text-rendering="inherit" font-size="12" dy=".8em" y="991.7000192329288" x="710.500013358891">watermark</text></g></g><g id="minder_node10"><g id="node_expander9" style="cursor: pointer;"><path id="kity_path_285" fill="white" stroke="gray" d="M602.5000116601586,882.500017516315A6,6,0,1,1,590.5000116601586,882.500017516315A6,6,0,1,1,602.5000116601586,882.500017516315"></path><path id="kity_path_286" fill="none" stroke="gray" d="M592.0000116601586,882.500017516315L601.0000116601586,882.500017516315"></path></g><path id="node_outline10" fill="none" stroke="none" d="M607.5000118985772,871.500017516315h48a5,5,0,0,1,5,5v12a5,5,0,0,1,-5,5h-48a5,5,0,0,1,-5,-5v-12a5,5,0,0,1,5,-5z"></path><g id="node_text10" fill="black"><text id="kity_text_133" text-rendering="inherit" font-size="12" dy=".8em" y="874.7000174894929" x="612.5000118985772">broker</text></g></g><g id="minder_node45"><g id="node_expander44" style="cursor: pointer;" display="none"><path id="kity_path_399" fill="white" stroke="gray" d="M602.5000116601586,1077.5000204220414A6,6,0,1,1,590.5000116601586,1077.5000204220414A6,6,0,1,1,602.5000116601586,1077.5000204220414"></path><path id="kity_path_400" fill="none" stroke="gray"></path></g><path id="node_outline45" fill="none" stroke="none" d="M607.5000118985772,1066.5000204220414h39a5,5,0,0,1,5,5v12a5,5,0,0,1,-5,5h-39a5,5,0,0,1,-5,-5v-12a5,5,0,0,1,5,-5z" stroke-width="3"></path><g id="node_text45" fill="black"><text id="kity_text_396" text-rendering="inherit" font-size="12" dy=".8em" y="1069.7000203952193" x="612.5000118985772">topic</text></g></g><g id="minder_node46"><g id="node_expander45" style="cursor: pointer;" display="none"><path id="kity_path_407" fill="white" stroke="gray" d="M602.5000116601586,1129.5000211969018A6,6,0,1,1,590.5000116601586,1129.5000211969018A6,6,0,1,1,602.5000116601586,1129.5000211969018"></path><path id="kity_path_408" fill="none" stroke="gray"></path></g><path id="node_outline46" fill="none" stroke="none" d="M607.5000118985772,1118.5000211969018h59a5,5,0,0,1,5,5v12a5,5,0,0,1,-5,5h-59a5,5,0,0,1,-5,-5v-12a5,5,0,0,1,5,-5z" stroke-width="3"></path><g id="node_text46" fill="black"><text id="kity_text_404" text-rendering="inherit" font-size="12" dy=".8em" y="1121.7000211700797" x="612.5000118985772">partition</text></g></g><g id="minder_node47"><g id="node_expander46" style="cursor: pointer;" display="none"><path id="kity_path_415" fill="white" stroke="gray" d="M602.5000116601586,1181.5000219717622A6,6,0,1,1,590.5000116601586,1181.5000219717622A6,6,0,1,1,602.5000116601586,1181.5000219717622"></path><path id="kity_path_416" fill="none" stroke="gray"></path></g><path id="node_outline47" fill="none" stroke="none" d="M607.5000118985772,1170.5000219717622h60a5,5,0,0,1,5,5v12a5,5,0,0,1,-5,5h-60a5,5,0,0,1,-5,-5v-12a5,5,0,0,1,5,-5z" stroke-width="3"></path><g id="node_text47" fill="black"><text id="kity_text_412" text-rendering="inherit" font-size="12" dy=".8em" y="1173.70002194494" x="612.5000118985772">segment</text></g></g><g id="minder_node48"><g id="node_expander47" style="cursor: pointer;" display="none"><path id="kity_path_423" fill="white" stroke="gray" d="M602.5000116601586,1233.5000227466226A6,6,0,1,1,590.5000116601586,1233.5000227466226A6,6,0,1,1,602.5000116601586,1233.5000227466226"></path><path id="kity_path_424" fill="none" stroke="gray"></path></g><path id="node_outline48" fill="none" stroke="none" d="M607.5000118985772,1222.5000227466226h62a5,5,0,0,1,5,5v12a5,5,0,0,1,-5,5h-62a5,5,0,0,1,-5,-5v-12a5,5,0,0,1,5,-5z" stroke-width="3"></path><g id="node_text48" fill="black"><text id="kity_text_420" text-rendering="inherit" font-size="12" dy=".8em" y="1225.7000227198005" x="612.5000118985772">producer</text></g></g><g id="minder_node49"><g id="node_expander48" style="cursor: pointer;" display="none"><path id="kity_path_431" fill="white" stroke="gray" d="M602.5000116601586,1285.500023521483A6,6,0,1,1,590.5000116601586,1285.500023521483A6,6,0,1,1,602.5000116601586,1285.500023521483"></path><path id="kity_path_432" fill="none" stroke="gray"></path></g><path id="node_outline49" fill="none" stroke="none" d="M607.5000118985772,1274.500023521483h67a5,5,0,0,1,5,5v12a5,5,0,0,1,-5,5h-67a5,5,0,0,1,-5,-5v-12a5,5,0,0,1,5,-5z" stroke-width="3"></path><g id="node_text49" fill="black"><text id="kity_text_428" text-rendering="inherit" font-size="12" dy=".8em" y="1277.7000234946609" x="612.5000118985772">consumer</text></g></g><g id="kity_g_12" display="none"><path id="kity_path_13" fill="none" stroke="rgb(66, 94, 112)" d="M412.50000343471766,1309.5000289604068h36a5,5,0,0,1,5,5v12a5,5,0,0,1,-5,5h-36a5,5,0,0,1,-5,-5v-12a5,5,0,0,1,5,-5z" stroke-width="5"></path></g><g id="minder_node58" opacity="1"><g id="node_expander57" style="cursor: pointer;"><path id="kity_path_616" fill="white" stroke="gray" d="M418.500008918345,1509.500026859343A6,6,0,1,1,406.500008918345,1509.500026859343A6,6,0,1,1,418.500008918345,1509.500026859343"></path><path id="kity_path_617" fill="none" stroke="gray" d="M408.000008918345,1509.500026859343L417.000008918345,1509.500026859343"></path></g><path id="node_outline58" fill="none" stroke="none" d="M423.50000915676355,1498.500026859343h59a5,5,0,0,1,5,5v12a5,5,0,0,1,-5,5h-59a5,5,0,0,1,-5,-5v-12a5,5,0,0,1,5,-5z" stroke-width="3"></path><g id="node_text58" fill="black"><text id="kity_text_613" text-rendering="inherit" font-size="12" dy=".8em" y="1501.700026832521" x="428.50000915676355">集群架构</text></g></g><g id="minder_node59"><g id="node_expander58" style="cursor: pointer;" display="none"><path id="kity_path_624" fill="white" stroke="gray" d="M527.5000105425715,1479.5000264123082A6,6,0,1,1,515.5000105425715,1479.5000264123082A6,6,0,1,1,527.5000105425715,1479.5000264123082"></path><path id="kity_path_625" fill="none" stroke="gray"></path></g><path id="node_outline59" fill="none" stroke="none" d="M532.5000107809901,1468.5000264123082h83a5,5,0,0,1,5,5v12a5,5,0,0,1,-5,5h-83a5,5,0,0,1,-5,-5v-12a5,5,0,0,1,5,-5z" stroke-width="3"></path><g id="node_text59" fill="black"><text id="kity_text_621" text-rendering="inherit" font-size="12" dy=".8em" y="1471.7000263854861" x="537.5000107809901">集群总体架构</text></g></g><g id="minder_node60"><g id="node_expander59" style="cursor: pointer;"><path id="kity_path_632" fill="white" stroke="gray" d="M527.5000105425715,1540.500027321279A6,6,0,1,1,515.5000105425715,1540.500027321279A6,6,0,1,1,527.5000105425715,1540.500027321279"></path><path id="kity_path_633" fill="none" stroke="gray" d="M517.0000105425715,1540.500027321279L526.0000105425715,1540.500027321279"></path></g><path id="node_outline60" fill="none" stroke="none" d="M532.5000107809901,1529.500027321279h106a5,5,0,0,1,5,5v12a5,5,0,0,1,-5,5h-106a5,5,0,0,1,-5,-5v-12a5,5,0,0,1,5,-5z" stroke-width="3"></path><g id="node_text60" fill="black"><text id="kity_text_629" text-rendering="inherit" font-size="12" dy=".8em" y="1532.700027294457" x="537.5000107809901">主读主写优势缺点</text></g></g><g id="minder_node61"><g id="node_expander60" style="cursor: pointer;" display="none"><path id="kity_path_640" fill="white" stroke="gray" d="M683.5000128671527,1540.500027321279A6,6,0,1,1,671.5000128671527,1540.500027321279A6,6,0,1,1,683.5000128671527,1540.500027321279"></path><path id="kity_path_641" fill="none" stroke="gray"></path></g><path id="node_outline61" fill="none" stroke="none" d="M688.5000131055713,1520.500027321279h290a5,5,0,0,1,5,5v30a5,5,0,0,1,-5,5h-290a5,5,0,0,1,-5,-5v-30a5,5,0,0,1,5,-5z" stroke-width="3"></path><g id="node_text61" fill="black"><text id="kity_text_637" text-rendering="inherit" font-size="12" dy=".8em" y="1523.700027294457" x="693.5000131055713">pagecache的利用，限制了 kafka 必须是大量热数据</text><text id="kity_text_642" text-rendering="inherit" font-size="12" dy=".8em" y="1541.700027294457" x="693.5000131055713">访问，且读写都是同一份数据时候，性能最好。</text></g></g><g id="minder_node35"><g id="node_expander32" style="cursor: pointer;" display="none"><path id="kity_path_354" fill="white" stroke="gray" d="M488.50000996142626,31.500004835426807A6,6,0,1,1,476.50000996142626,31.500004835426807A6,6,0,1,1,488.50000996142626,31.500004835426807"></path><path id="kity_path_355" fill="none" stroke="gray"></path></g><path id="node_outline33" fill="none" stroke="none" d="M493.50001019984484,20.500004835426807h71a5,5,0,0,1,5,5v12a5,5,0,0,1,-5,5h-71a5,5,0,0,1,-5,-5v-12a5,5,0,0,1,5,-5z"></path><g id="node_text33" fill="black"><text id="kity_text_179" text-rendering="inherit" font-size="12" dy=".8em" y="23.700004808604717" x="498.50001019984484">点对点队列</text></g></g><g id="minder_node36"><g id="node_expander33" style="cursor: pointer;" display="none"><path id="kity_path_357" fill="white" stroke="gray" d="M488.50000996142626,83.50000561028719A6,6,0,1,1,476.50000996142626,83.50000561028719A6,6,0,1,1,488.50000996142626,83.50000561028719"></path><path id="kity_path_358" fill="none" stroke="gray"></path></g><path id="node_outline34" fill="none" stroke="none" d="M493.50001019984484,72.50000561028719h88a5,5,0,0,1,5,5v12a5,5,0,0,1,-5,5h-88a5,5,0,0,1,-5,-5v-12a5,5,0,0,1,5,-5z"></path><g id="node_text34" fill="black"><text id="kity_text_181" text-rendering="inherit" font-size="12" dy=".8em" y="75.7000055834651" x="498.50001019984484">发布/订阅队列</text></g></g><g id="minder_node34"><g id="node_expander34" style="cursor: pointer;"><path id="kity_path_360" fill="white" stroke="gray" d="M379.5000083371997,57.500005222857A6,6,0,1,1,367.5000083371997,57.500005222857A6,6,0,1,1,379.5000083371997,57.500005222857"></path><path id="kity_path_361" fill="none" stroke="gray" d="M369.0000083371997,57.500005222857L378.0000083371997,57.500005222857"></path></g><path id="node_outline35" fill="none" stroke="none" d="M384.50000857561827,46.500005222857h59a5,5,0,0,1,5,5v12a5,5,0,0,1,-5,5h-59a5,5,0,0,1,-5,-5v-12a5,5,0,0,1,5,-5z"></path><g id="node_text35" fill="black"><text id="kity_text_183" text-rendering="inherit" font-size="12" dy=".8em" y="49.70000519603491" x="389.50000857561827">队列类型</text></g></g><g id="minder_node38"><g id="node_expander35" style="cursor: pointer;" display="none"><path id="kity_path_363" fill="white" stroke="gray" d="M553.5000109300017,144.50000651925802A6,6,0,1,1,541.5000109300017,144.50000651925802A6,6,0,1,1,553.5000109300017,144.50000651925802"></path><path id="kity_path_364" fill="none" stroke="gray"></path></g><path id="node_outline36" fill="none" stroke="none" d="M558.5000111684203,124.50000651925802h292a5,5,0,0,1,5,5v30a5,5,0,0,1,-5,5h-292a5,5,0,0,1,-5,-5v-30a5,5,0,0,1,5,-5z"></path><g id="node_text36" fill="black"><text id="kity_text_185" text-rendering="inherit" font-size="12" dy=".8em" y="127.70000649243593" x="563.5000111684203">日志，流计算等场合, 请求必须有很明细的冷热访问，</text><text id="kity_text_186" text-rendering="inherit" font-size="12" dy=".8em" y="145.70000649243593" x="563.5000111684203">必须热访问占据大部分总请求</text></g></g><g id="minder_node37"><g id="node_expander36" style="cursor: pointer;"><path id="kity_path_366" fill="white" stroke="gray" d="M379.5000083371997,144.50000651925802A6,6,0,1,1,367.5000083371997,144.50000651925802A6,6,0,1,1,379.5000083371997,144.50000651925802"></path><path id="kity_path_367" fill="none" stroke="gray" d="M369.0000083371997,144.50000651925802L378.0000083371997,144.50000651925802"></path></g><path id="node_outline37" fill="none" stroke="none" d="M384.50000857561827,133.50000651925802h124a5,5,0,0,1,5,5v12a5,5,0,0,1,-5,5h-124a5,5,0,0,1,-5,-5v-12a5,5,0,0,1,5,-5z"></path><g id="node_text37" fill="black"><text id="kity_text_188" text-rendering="inherit" font-size="12" dy=".8em" y="136.70000649243593" x="389.50000857561827">kafka 特点(适用场合)</text></g></g><g id="minder_node40"><g id="node_expander37" style="cursor: pointer;" display="none"><path id="kity_path_369" fill="white" stroke="gray" d="M494.5000100508332,331.50000930577517A6,6,0,1,1,482.5000100508332,331.50000930577517A6,6,0,1,1,494.5000100508332,331.50000930577517"></path><path id="kity_path_370" fill="none" stroke="gray"></path></g><path id="node_outline38" fill="none" stroke="none" d="M499.5000102892518,194.50000930577517h241a5,5,0,0,1,5,5v264a5,5,0,0,1,-5,5h-241a5,5,0,0,1,-5,-5v-264a5,5,0,0,1,5,-5z"></path><g id="node_text38" fill="black"><text id="kity_text_190" text-rendering="inherit" font-size="12" dy=".8em" y="197.70000927895308" x="504.5000102892518">没有rocketMq等常见队列特性：</text><text id="kity_text_191" text-rendering="inherit" font-size="12" dy=".8em" y="215.70000927895308" x="504.5000102892518">1. 没有队列优先级；</text><text id="kity_text_192" text-rendering="inherit" font-size="12" dy=".8em" y="233.70000927895308" x="504.5000102892518">2. 只有限流，但是没有拒绝服务(没有熔断)</text><text id="kity_text_193" text-rendering="inherit" font-size="12" dy=".8em" y="251.70000927895308" x="504.5000102892518">3. 顺序的支持，只能使用一个 broker 实现</text><text id="kity_text_194" text-rendering="inherit" font-size="12" dy=".8em" y="269.7000092789531" x="504.5000102892518">4. 死信队列需要自己新建才能满足</text><text id="kity_text_195" text-rendering="inherit" font-size="12" dy=".8em" y="287.7000092789531" x="504.5000102892518">5. 重试需要客户端实现该功能</text><text id="kity_text_196" text-rendering="inherit" font-size="12" dy=".8em" y="305.7000092789531" x="504.5000102892518"></text><text id="kity_text_197" text-rendering="inherit" font-size="12" dy=".8em" y="323.7000092789531" x="504.5000102892518">历史数据的遍历会导致性能下降</text><text id="kity_text_198" text-rendering="inherit" font-size="12" dy=".8em" y="341.7000092789531" x="504.5000102892518">1. pagecache 被历史数据污染后性能下降</text><text id="kity_text_199" text-rendering="inherit" font-size="12" dy=".8em" y="359.7000092789531" x="504.5000102892518">2. comsumer 的消费模型注定了，消费时</text><text id="kity_text_200" text-rendering="inherit" font-size="12" dy=".8em" y="377.7000092789531" x="504.5000102892518">pull 数据的并发上限。</text><text id="kity_text_201" text-rendering="inherit" font-size="12" dy=".8em" y="395.7000092789531" x="504.5000102892518"></text><text id="kity_text_202" text-rendering="inherit" font-size="12" dy=".8em" y="413.7000092789531" x="504.5000102892518">auto commit 模式不可靠</text><text id="kity_text_203" text-rendering="inherit" font-size="12" dy=".8em" y="431.7000092789531" x="504.5000102892518">1. auto commit 在高压(心跳异常)，会导致</text><text id="kity_text_204" text-rendering="inherit" font-size="12" dy=".8em" y="449.7000092789531" x="504.5000102892518">reblance。</text></g></g><g id="minder_node39"><g id="node_expander38" style="cursor: pointer;"><path id="kity_path_372" fill="white" stroke="gray" d="M379.5000083371997,331.50000930577517A6,6,0,1,1,367.5000083371997,331.50000930577517A6,6,0,1,1,379.5000083371997,331.50000930577517"></path><path id="kity_path_373" fill="none" stroke="gray" d="M369.0000083371997,331.50000930577517L378.0000083371997,331.50000930577517"></path></g><path id="node_outline39" fill="none" stroke="none" d="M384.50000857561827,320.50000930577517h65a5,5,0,0,1,5,5v12a5,5,0,0,1,-5,5h-65a5,5,0,0,1,-5,-5v-12a5,5,0,0,1,5,-5z"></path><g id="node_text39" fill="black"><text id="kity_text_206" text-rendering="inherit" font-size="12" dy=".8em" y="323.7000092789531" x="389.50000857561827">kafka缺点</text></g></g><g id="minder_node42"><g id="node_expander40" style="cursor: pointer;" display="none"><path id="kity_path_378" fill="white" stroke="gray" d="M458.5000095143914,1608.500028334558A6,6,0,1,1,446.5000095143914,1608.500028334558A6,6,0,1,1,458.5000095143914,1608.500028334558"></path><path id="kity_path_379" fill="none" stroke="gray"></path></g><path id="node_outline41" fill="none" stroke="none" d="M463.50000975281,1597.500028334558h36a5,5,0,0,1,5,5v12a5,5,0,0,1,-5,5h-36a5,5,0,0,1,-5,-5v-12a5,5,0,0,1,5,-5z"></path><g id="node_text41" fill="black"><text id="kity_text_210" text-rendering="inherit" font-size="12" dy=".8em" y="1600.700028307736" x="468.50000975281">幂等</text></g></g><g id="minder_node43"><g id="node_expander41" style="cursor: pointer;" display="none"><path id="kity_path_381" fill="white" stroke="gray" d="M458.5000095143914,1660.5000291094184A6,6,0,1,1,446.5000095143914,1660.5000291094184A6,6,0,1,1,458.5000095143914,1660.5000291094184"></path><path id="kity_path_382" fill="none" stroke="gray"></path></g><path id="node_outline42" fill="none" stroke="none" d="M463.50000975281,1649.5000291094184h35a5,5,0,0,1,5,5v12a5,5,0,0,1,-5,5h-35a5,5,0,0,1,-5,-5v-12a5,5,0,0,1,5,-5z"></path><g id="node_text42" fill="black"><text id="kity_text_212" text-rendering="inherit" font-size="12" dy=".8em" y="1652.7000290825963" x="468.50000975281">事务</text></g></g><g id="minder_node44"><g id="node_expander42" style="cursor: pointer;" display="none"><path id="kity_path_384" fill="white" stroke="gray" d="M458.5000095143914,1712.5000298842788A6,6,0,1,1,446.5000095143914,1712.5000298842788A6,6,0,1,1,458.5000095143914,1712.5000298842788"></path><path id="kity_path_385" fill="none" stroke="gray"></path></g><path id="node_outline43" fill="none" stroke="none" d="M463.50000975281,1701.5000298842788h36a5,5,0,0,1,5,5v12a5,5,0,0,1,-5,5h-36a5,5,0,0,1,-5,-5v-12a5,5,0,0,1,5,-5z"></path><g id="node_text43" fill="black"><text id="kity_text_214" text-rendering="inherit" font-size="12" dy=".8em" y="1704.7000298574567" x="468.50000975281">语义</text></g></g><g id="minder_node22"><g id="node_expander20" style="cursor: pointer;" display="none"><path id="kity_path_318" fill="white" stroke="gray" d="M441.5000092610717,1749.5000304356217A6,6,0,1,1,429.5000092610717,1749.5000304356217A6,6,0,1,1,441.5000092610717,1749.5000304356217"></path><path id="kity_path_319" fill="none" stroke="gray"></path></g><path id="node_outline21" fill="none" stroke="none" d="M446.50000949949026,1738.5000304356217h162a5,5,0,0,1,5,5v12a5,5,0,0,1,-5,5h-162a5,5,0,0,1,-5,-5v-12a5,5,0,0,1,5,-5z"></path><g id="node_text21" fill="black"><text id="kity_text_155" text-rendering="inherit" font-size="12" dy=".8em" y="1741.7000304087996" x="451.50000949949026">生产者模型(生产者处理流程)</text></g></g><g id="minder_node23"><g id="node_expander21" style="cursor: pointer;" display="none"><path id="kity_path_321" fill="white" stroke="gray" d="M441.5000092610717,1801.5000312104821A6,6,0,1,1,429.5000092610717,1801.5000312104821A6,6,0,1,1,441.5000092610717,1801.5000312104821"></path><path id="kity_path_322" fill="none" stroke="gray"></path></g><path id="node_outline22" fill="none" stroke="none" d="M446.50000949949026,1790.5000312104821h63a5,5,0,0,1,5,5v12a5,5,0,0,1,-5,5h-63a5,5,0,0,1,-5,-5v-12a5,5,0,0,1,5,-5z"></path><g id="node_text22" fill="black"><text id="kity_text_157" text-rendering="inherit" font-size="12" dy=".8em" y="1793.70003118366" x="451.50000949949026">同步/异步</text></g></g><g id="minder_node24"><g id="node_expander22" style="cursor: pointer;" display="none"><path id="kity_path_324" fill="white" stroke="gray" d="M441.5000092610717,1853.5000319853425A6,6,0,1,1,429.5000092610717,1853.5000319853425A6,6,0,1,1,441.5000092610717,1853.5000319853425"></path><path id="kity_path_325" fill="none" stroke="gray"></path></g><path id="node_outline23" fill="none" stroke="none" d="M446.50000949949026,1842.5000319853425h48a5,5,0,0,1,5,5v12a5,5,0,0,1,-5,5h-48a5,5,0,0,1,-5,-5v-12a5,5,0,0,1,5,-5z"></path><g id="node_text23" fill="black"><text id="kity_text_159" text-rendering="inherit" font-size="12" dy=".8em" y="1845.7000319585204" x="451.50000949949026">拦截器</text></g></g><g id="minder_node25"><g id="node_expander23" style="cursor: pointer;" display="none"><path id="kity_path_327" fill="white" stroke="gray" d="M441.5000092610717,1905.5000327602029A6,6,0,1,1,429.5000092610717,1905.5000327602029A6,6,0,1,1,441.5000092610717,1905.5000327602029"></path><path id="kity_path_328" fill="none" stroke="gray"></path></g><path id="node_outline24" fill="none" stroke="none" d="M446.50000949949026,1894.5000327602029h108a5,5,0,0,1,5,5v12a5,5,0,0,1,-5,5h-108a5,5,0,0,1,-5,-5v-12a5,5,0,0,1,5,-5z" stroke-width="3"></path><g id="node_text24" fill="black"><text id="kity_text_161" text-rendering="inherit" font-size="12" dy=".8em" y="1897.7000327333808" x="451.50000949949026">幂等、事务、语义</text></g></g><g id="minder_node27"><g id="node_expander25" style="cursor: pointer;" display="none"><path id="kity_path_333" fill="white" stroke="gray" d="M413.50000884383917,1998.5000341460109A6,6,0,1,1,401.50000884383917,1998.5000341460109A6,6,0,1,1,413.50000884383917,1998.5000341460109"></path><path id="kity_path_334" fill="none" stroke="gray"></path></g><path id="node_outline26" fill="none" stroke="none" d="M418.50000908225775,1987.5000341460109h157a5,5,0,0,1,5,5v12a5,5,0,0,1,-5,5h-157a5,5,0,0,1,-5,-5v-12a5,5,0,0,1,5,-5z" stroke-width="3"></path><g id="node_text26" fill="black"><text id="kity_text_165" text-rendering="inherit" font-size="12" dy=".8em" y="1990.7000341191888" x="423.50000908225775">消费模型(pull&amp;Consumer)</text></g></g><g id="minder_node52"><g id="node_expander51" style="cursor: pointer;" display="none"><path id="kity_path_455" fill="white" stroke="gray" d="M413.50000884383917,2050.5000349208713A6,6,0,1,1,401.50000884383917,2050.5000349208713A6,6,0,1,1,413.50000884383917,2050.5000349208713"></path><path id="kity_path_456" fill="none" stroke="gray"></path></g><path id="node_outline52" fill="none" stroke="none" d="M418.50000908225775,2039.5000349208713h48a5,5,0,0,1,5,5v12a5,5,0,0,1,-5,5h-48a5,5,0,0,1,-5,-5v-12a5,5,0,0,1,5,-5z" stroke-width="3"></path><g id="node_text52" fill="black"><text id="kity_text_452" text-rendering="inherit" font-size="12" dy=".8em" y="2042.7000348940492" x="423.50000908225775">消费组</text></g></g></g></g></svg>