<svg id="kity_svg_6" xmlns="http://www.w3.org/2000/svg" xmlns:xlink="http://www.w3.org/1999/xlink" version="1.1" width="1673" height="1332" style="background: rgb(251, 251, 251); visibility: visible;" viewBox="0 0 1673 1332"><defs id="kity_defs_7"><linearGradient id="kity_linearGradient_17" x1="0" y1="0" x2="0" y2="1"><stop id="kity_stop_18" offset="0" stop-color="rgb(255, 255, 255)"></stop><stop id="kity_stop_19" offset="1" stop-color="rgb(204, 204, 204)"></stop></linearGradient><marker id="kity_marker_2" orient="auto" refX="6" refY="0" viewBox="-7 -7 14 14" markerWidth="7" markerHeight="7" markerUnits="userSpaceOnUse"><path id="kity_path_3" fill="rgb(115, 161, 191)" stroke="none" d="M6,0A6,6,0,1,1,-6,0A6,6,0,1,1,6,0"></path></marker></defs><g id="kity_g_8"><g id="minder1" text-rendering="optimize-speed"><g id="minder_connect_group1"><path id="kity_path_31" fill="none" stroke="rgb(115, 161, 191)" stroke-width="1" d="M745.000006429851,591.5000097081065A174.5,329,0,0,1,919.500006429851,262.5000097081065"></path><path id="kity_path_33" fill="none" stroke="rgb(115, 161, 191)" stroke-width="1" d="M1032.500006429851,262.5000097081065C1047.500006429851,262.5000097081065,1047.500006429851,153.50000970810652,1062.500006429851,153.50000970810652L1281.500006429851,153.50000970810652"></path><path id="kity_path_35" fill="none" stroke="rgb(115, 161, 191)" stroke-width="1" d="M1032.500006429851,262.5000097081065C1047.500006429851,262.5000097081065,1047.500006429851,285.5000097081065,1062.500006429851,285.5000097081065L1244.500006429851,285.5000097081065"></path><path id="kity_path_37" fill="none" stroke="rgb(115, 161, 191)" stroke-width="1" d="M1244.500006429851,285.5000097081065C1259.500006429851,285.5000097081065,1259.500006429851,277.5000097081065,1274.500006429851,277.5000097081065L1410.500006429851,277.5000097081065"></path><path id="kity_path_39" fill="none" stroke="rgb(115, 161, 191)" stroke-width="1" d="M1244.500006429851,285.5000097081065C1259.500006429851,285.5000097081065,1259.500006429851,365.5000097081065,1274.500006429851,365.5000097081065L1485.500006429851,365.5000097081065"></path><path id="kity_path_41" fill="none" stroke="rgb(115, 161, 191)" stroke-width="1" d="M1032.500006429851,262.5000097081065C1047.500006429851,262.5000097081065,1047.500006429851,507.5000097081065,1062.500006429851,507.5000097081065L1337.500006429851,507.5000097081065"></path><path id="kity_path_43" fill="none" stroke="rgb(115, 161, 191)" stroke-width="1" d="M745.000006429851,591.5000097081065A174.5,10,0,0,1,919.500006429851,581.5000097081065"></path><path id="kity_path_45" fill="none" stroke="rgb(115, 161, 191)" stroke-width="1" d="M1043.500006429851,581.5000097081065C1058.500006429851,581.5000097081065,1058.500006429851,569.5000097081065,1073.500006429851,569.5000097081065L1238.500006429851,569.5000097081065"></path><path id="kity_path_47" fill="none" stroke="rgb(115, 161, 191)" stroke-width="1" d="M1043.500006429851,581.5000097081065C1058.500006429851,581.5000097081065,1058.500006429851,621.5000097081065,1073.500006429851,621.5000097081065L1208.500006429851,621.5000097081065"></path><path id="kity_path_49" fill="none" stroke="rgb(115, 161, 191)" stroke-width="1" d="M745.000006429851,591.5000097081065A174.5,329,0,0,0,919.500006429851,920.5000097081065"></path><path id="kity_path_51" fill="none" stroke="rgb(115, 161, 191)" stroke-width="1" d="M1047.500006429851,920.5000097081065C1062.500006429851,920.5000097081065,1062.500006429851,755.5000097081065,1077.500006429851,755.5000097081065L1398.500006429851,755.5000097081065"></path><path id="kity_path_53" fill="none" stroke="rgb(115, 161, 191)" stroke-width="1" d="M1047.500006429851,920.5000097081065C1062.500006429851,920.5000097081065,1062.500006429851,946.5000097081065,1077.500006429851,946.5000097081065L1179.500006429851,946.5000097081065"></path><path id="kity_path_55" fill="none" stroke="rgb(115, 161, 191)" stroke-width="1" d="M1179.500006429851,946.5000097081065C1194.500006429851,946.5000097081065,1194.500006429851,859.5000097081065,1209.500006429851,859.5000097081065L1293.500006429851,859.5000097081065"></path><path id="kity_path_57" fill="none" stroke="rgb(115, 161, 191)" stroke-width="1" d="M1293.500006429851,859.5000097081065C1308.500006429851,859.5000097081065,1308.500006429851,807.5000097081065,1323.500006429851,807.5000097081065L1400.500006429851,807.5000097081065"></path><path id="kity_path_59" fill="none" stroke="rgb(115, 161, 191)" stroke-width="1" d="M1293.500006429851,859.5000097081065C1308.500006429851,859.5000097081065,1308.500006429851,859.5000097081065,1323.500006429851,859.5000097081065L1438.500006429851,859.5000097081065"></path><path id="kity_path_61" fill="none" stroke="rgb(115, 161, 191)" stroke-width="1" d="M1293.500006429851,859.5000097081065C1308.500006429851,859.5000097081065,1308.500006429851,911.5000097081065,1323.500006429851,911.5000097081065L1413.500006429851,911.5000097081065"></path><path id="kity_path_63" fill="none" stroke="rgb(115, 161, 191)" stroke-width="1" d="M1179.500006429851,946.5000097081065C1194.500006429851,946.5000097081065,1194.500006429851,963.5000097081065,1209.500006429851,963.5000097081065L1362.500006429851,963.5000097081065"></path><path id="kity_path_65" fill="none" stroke="rgb(115, 161, 191)" stroke-width="1" d="M1179.500006429851,946.5000097081065C1194.500006429851,946.5000097081065,1194.500006429851,1033.5000097081065,1209.500006429851,1033.5000097081065L1507.500006429851,1033.5000097081065"></path><path id="kity_path_67" fill="none" stroke="rgb(115, 161, 191)" stroke-width="1" d="M1047.500006429851,920.5000097081065C1062.500006429851,920.5000097081065,1062.500006429851,1185.5000097081065,1077.500006429851,1185.5000097081065L1168.500006429851,1185.5000097081065"></path><path id="kity_path_69" fill="none" stroke="rgb(115, 161, 191)" stroke-width="1" d="M1168.500006429851,1185.5000097081065C1183.500006429851,1185.5000097081065,1183.500006429851,1111.5000097081065,1198.500006429851,1111.5000097081065L1289.500006429851,1111.5000097081065"></path><path id="kity_path_71" fill="none" stroke="rgb(115, 161, 191)" stroke-width="1" d="M1289.500006429851,1111.5000097081065C1304.500006429851,1111.5000097081065,1304.500006429851,1085.5000097081065,1319.500006429851,1085.5000097081065L1531.500006429851,1085.5000097081065"></path><path id="kity_path_73" fill="none" stroke="rgb(115, 161, 191)" stroke-width="1" d="M1289.500006429851,1111.5000097081065C1304.500006429851,1111.5000097081065,1304.500006429851,1137.5000097081065,1319.500006429851,1137.5000097081065L1502.500006429851,1137.5000097081065"></path><path id="kity_path_75" fill="none" stroke="rgb(115, 161, 191)" stroke-width="1" d="M1168.500006429851,1185.5000097081065C1183.500006429851,1185.5000097081065,1183.500006429851,1259.5000097081065,1198.500006429851,1259.5000097081065L1254.500006429851,1259.5000097081065"></path><path id="kity_path_77" fill="none" stroke="rgb(115, 161, 191)" stroke-width="1" d="M1254.500006429851,1259.5000097081065C1269.500006429851,1259.5000097081065,1269.500006429851,1216.5000097081065,1284.500006429851,1216.5000097081065L1340.500006429851,1216.5000097081065"></path><path id="kity_path_79" fill="none" stroke="rgb(115, 161, 191)" stroke-width="1" d="M1340.500006429851,1216.5000097081065C1355.500006429851,1216.5000097081065,1355.500006429851,1190.5000097081065,1370.500006429851,1190.5000097081065L1564.500006429851,1190.5000097081065"></path><path id="kity_path_81" fill="none" stroke="rgb(115, 161, 191)" stroke-width="1" d="M1340.500006429851,1216.5000097081065C1355.500006429851,1216.5000097081065,1355.500006429851,1242.5000097081065,1370.500006429851,1242.5000097081065L1585.500006429851,1242.5000097081065"></path><path id="kity_path_83" fill="none" stroke="rgb(115, 161, 191)" stroke-width="1" d="M1254.500006429851,1259.5000097081065C1269.500006429851,1259.5000097081065,1269.500006429851,1303.5000097081065,1284.500006429851,1303.5000097081065L1400.500006429851,1303.5000097081065"></path><path id="kity_path_85" fill="none" stroke="rgb(115, 161, 191)" stroke-width="1" d="M1400.500006429851,1303.5000097081065C1415.500006429851,1303.5000097081065,1415.500006429851,1312.5000097081065,1430.500006429851,1312.5000097081065L1652.500006429851,1312.5000097081065"></path><path id="kity_path_87" fill="none" stroke="rgb(115, 161, 191)" stroke-width="1" d="M745.000006429851,591.5000097081065A174.5,157,0,0,0,570.500006429851,434.5000097081065"></path><path id="kity_path_89" fill="none" stroke="rgb(115, 161, 191)" stroke-width="1" d="M419.50000642985106,434.5000097081065C404.50000642985106,434.5000097081065,404.50000642985106,389.5000097081065,389.50000642985106,389.5000097081065L99.50000642985106,389.5000097081065"></path><path id="kity_path_91" fill="none" stroke="rgb(115, 161, 191)" stroke-width="1" d="M419.50000642985106,434.5000097081065C404.50000642985106,434.5000097081065,404.50000642985106,467.5000097081065,389.50000642985106,467.5000097081065L262.50000642985106,467.5000097081065"></path><path id="kity_path_93" fill="none" stroke="rgb(115, 161, 191)" stroke-width="1" d="M262.50000642985106,467.5000097081065C247.50000642985106,467.5000097081065,247.50000642985106,441.5000097081065,232.50000642985106,441.5000097081065L127.50000642985106,441.5000097081065"></path><path id="kity_path_95" fill="none" stroke="rgb(115, 161, 191)" stroke-width="1" d="M262.50000642985106,467.5000097081065C247.50000642985106,467.5000097081065,247.50000642985106,493.5000097081065,232.50000642985106,493.5000097081065L19.500006429851055,493.5000097081065"></path><path id="kity_path_97" fill="none" stroke="rgb(115, 161, 191)" stroke-width="1" d="M419.50000642985106,434.5000097081065C404.50000642985106,434.5000097081065,404.50000642985106,597.5000097081065,389.50000642985106,597.5000097081065L333.50000642985106,597.5000097081065"></path><path id="kity_path_99" fill="none" stroke="rgb(115, 161, 191)" stroke-width="1" d="M333.50000642985106,597.5000097081065C318.50000642985106,597.5000097081065,318.50000642985106,545.5000097081065,303.50000642985106,545.5000097081065L143.50000642985106,545.5000097081065"></path><path id="kity_path_101" fill="none" stroke="rgb(115, 161, 191)" stroke-width="1" d="M333.50000642985106,597.5000097081065C318.50000642985106,597.5000097081065,318.50000642985106,597.5000097081065,303.50000642985106,597.5000097081065L140.50000642985106,597.5000097081065"></path><path id="kity_path_103" fill="none" stroke="rgb(115, 161, 191)" stroke-width="1" d="M333.50000642985106,597.5000097081065C318.50000642985106,597.5000097081065,318.50000642985106,649.5000097081065,303.50000642985106,649.5000097081065L169.50000642985106,649.5000097081065"></path><path id="kity_path_105" fill="none" stroke="rgb(115, 161, 191)" stroke-width="1" d="M745.000006429851,591.5000097081065A174.5,158,0,0,1,570.500006429851,749.5000097081065"></path><path id="kity_path_107" fill="none" stroke="rgb(115, 161, 191)" stroke-width="1" d="M360.50000642985106,749.5000097081065C345.50000642985106,749.5000097081065,345.50000642985106,711.5000097081065,330.50000642985106,711.5000097081065L222.50000642985106,711.5000097081065"></path><path id="kity_path_109" fill="none" stroke="rgb(115, 161, 191)" stroke-width="1" d="M360.50000642985106,749.5000097081065C345.50000642985106,749.5000097081065,345.50000642985106,763.5000097081065,330.50000642985106,763.5000097081065L215.50000642985106,763.5000097081065"></path><path id="kity_path_111" fill="none" stroke="rgb(115, 161, 191)" stroke-width="1" d="M360.50000642985106,749.5000097081065C345.50000642985106,749.5000097081065,345.50000642985106,815.5000097081065,330.50000642985106,815.5000097081065L146.50000642985106,815.5000097081065"></path></g><g id="minder_node1"><path id="node_outline1" fill="rgb(115, 161, 191)" stroke="rgb(57, 80, 96)" d="M693.500006429851,571.5000097081065h103a5,5,0,0,1,5,5v30a5,5,0,0,1,-5,5h-103a5,5,0,0,1,-5,-5v-30a5,5,0,0,1,5,-5z" stroke-width="3"></path><g id="node_text1" fill="white"><text id="kity_text_22" text-rendering="inherit" font-size="16" dy=".8em" y="581.1000096723437" x="712.500006429851">Server端</text></g></g><g id="kity_g_12"><path id="kity_path_13" fill="none" stroke="none" d="M712.500006429851,591.5000097081065h0v0h0z"></path></g><g id="kity_g_14"><path id="kity_path_15" fill="none" stroke="none" d="M712.500006429851,591.5000097081065h0v0h0z"></path><path id="kity_path_16" fill="none" stroke="none"></path></g><g id="minder_node2"><g id="node_expander6" style="cursor: pointer;"><path id="kity_path_279" fill="white" stroke="gray" d="M920.5000094398856,262.5000048056245A6,6,0,1,1,908.5000094398856,262.5000048056245A6,6,0,1,1,920.5000094398856,262.5000048056245"></path><path id="kity_path_280" fill="none" stroke="gray" d="M910.0000094398856,262.5000048056245L919.0000094398856,262.5000048056245"></path></g><path id="node_outline7" fill="rgb(238, 243, 246)" stroke="rgb(115, 161, 191)" d="M924.500009842217,249.50000480562449h105a3,3,0,0,1,3,3v20a3,3,0,0,1,-3,3h-105a3,3,0,0,1,-3,-3v-20a3,3,0,0,1,3,-3z" stroke-width="1"></path><g id="node_text7" fill="black"><text id="kity_text_140" text-rendering="inherit" font-size="14" dy=".8em" y="253.40000477433205" x="941.500009842217">Controller&#xa0;</text></g></g><g id="minder_node3"><g id="node_expander1" display="none" style="cursor: pointer;"><path id="kity_path_264" fill="white" stroke="gray" d="M1072.5000117048621,85.50000216811895A6,6,0,1,1,1060.5000117048621,85.50000216811895A6,6,0,1,1,1072.5000117048621,85.50000216811895"></path><path id="kity_path_265" fill="none" stroke="gray"></path></g><path id="node_outline2" fill="none" stroke="none" d="M1077.5000119432807,20.500002168118954h199a5,5,0,0,1,5,5v120a5,5,0,0,1,-5,5h-199a5,5,0,0,1,-5,-5v-120a5,5,0,0,1,5,-5z"></path><g id="node_text2" fill="black"><text id="kity_text_113" text-rendering="inherit" font-size="12" dy=".8em" y="23.700002141296864" x="1082.5000119432807">作用</text><text id="kity_text_114" text-rendering="inherit" font-size="12" dy=".8em" y="41.700002141296864" x="1082.5000119432807">1.&#xa0;主题管理</text><text id="kity_text_115" text-rendering="inherit" font-size="12" dy=".8em" y="59.700002141296864" x="1082.5000119432807">2. partition leader 的选举</text><text id="kity_text_116" text-rendering="inherit" font-size="12" dy=".8em" y="77.70000214129686" x="1082.5000119432807">3. 集群 meta 信息的维护</text><text id="kity_text_117" text-rendering="inherit" font-size="12" dy=".8em" y="95.70000214129686" x="1082.5000119432807">4. broker 上下线（zk watch控制）</text><text id="kity_text_118" text-rendering="inherit" font-size="12" dy=".8em" y="113.70000214129686" x="1082.5000119432807">5. isr 信息的主动通知 broker</text><text id="kity_text_119" text-rendering="inherit" font-size="12" dy=".8em" y="131.70000214129686" x="1082.5000119432807">...</text></g></g><g id="minder_node4"><g id="node_expander4" style="cursor: pointer;"><path id="kity_path_273" fill="white" stroke="gray" d="M1072.5000117048621,271.50000493973494A6,6,0,1,1,1060.5000117048621,271.50000493973494A6,6,0,1,1,1072.5000117048621,271.50000493973494"></path><path id="kity_path_274" fill="none" stroke="gray" d="M1062.0000117048621,271.50000493973494L1071.0000117048621,271.50000493973494"></path></g><path id="node_outline5" fill="none" stroke="none" d="M1077.5000119432807,260.50000493973494h162a5,5,0,0,1,5,5v12a5,5,0,0,1,-5,5h-162a5,5,0,0,1,-5,-5v-12a5,5,0,0,1,5,-5z"></path><g id="node_text5" fill="black"><text id="kity_text_131" text-rendering="inherit" font-size="12" dy=".8em" y="263.70000491291285" x="1082.5000119432807">Topic Partition Leader 选主</text></g></g><g id="minder_node5"><g id="node_expander2" display="none" style="cursor: pointer;"><path id="kity_path_267" fill="white" stroke="gray" d="M1284.5000148639083,227.50000428408384A6,6,0,1,1,1272.5000148639083,227.50000428408384A6,6,0,1,1,1284.5000148639083,227.50000428408384"></path><path id="kity_path_268" fill="none" stroke="gray"></path></g><path id="node_outline3" fill="none" stroke="none" d="M1289.5000151023269,180.50000428408384h116a5,5,0,0,1,5,5v84a5,5,0,0,1,-5,5h-116a5,5,0,0,1,-5,-5v-84a5,5,0,0,1,5,-5z"></path><g id="node_text3" fill="black"><text id="kity_text_121" text-rendering="inherit" font-size="12" dy=".8em" y="183.70000425726175" x="1294.5000151023269">触发条件：</text><text id="kity_text_122" text-rendering="inherit" font-size="12" dy=".8em" y="201.70000425726175" x="1294.5000151023269">1. leader 异常</text><text id="kity_text_123" text-rendering="inherit" font-size="12" dy=".8em" y="219.70000425726175" x="1294.5000151023269">2. broker 下线</text><text id="kity_text_124" text-rendering="inherit" font-size="12" dy=".8em" y="237.70000425726175" x="1294.5000151023269">3.&#xa0; 副本调整时触发</text><text id="kity_text_125" text-rendering="inherit" font-size="12" dy=".8em" y="255.70000425726175" x="1294.5000151023269">4.&#xa0;最优 leader 选举</text></g></g><g id="minder_node6"><g id="node_expander3" display="none" style="cursor: pointer;"><path id="kity_path_270" fill="white" stroke="gray" d="M1284.5000148639083,333.50000586360693A6,6,0,1,1,1272.5000148639083,333.50000586360693A6,6,0,1,1,1284.5000148639083,333.50000586360693"></path><path id="kity_path_271" fill="none" stroke="gray"></path></g><path id="node_outline4" fill="none" stroke="none" d="M1289.5000151023269,304.50000586360693h191a5,5,0,0,1,5,5v48a5,5,0,0,1,-5,5h-191a5,5,0,0,1,-5,-5v-48a5,5,0,0,1,5,-5z"></path><g id="node_text4" fill="black"><text id="kity_text_127" text-rendering="inherit" font-size="12" dy=".8em" y="307.70000583678484" x="1294.5000151023269">选主方式：</text><text id="kity_text_128" text-rendering="inherit" font-size="12" dy=".8em" y="325.70000583678484" x="1294.5000151023269">1. isr 中选取第一个节点</text><text id="kity_text_129" text-rendering="inherit" font-size="12" dy=".8em" y="343.70000583678484" x="1294.5000151023269">2. 假如允许脏节点，取一个脏节点</text></g></g><g id="minder_node7"><g id="node_expander5" display="none" style="cursor: pointer;"><path id="kity_path_276" fill="white" stroke="gray" d="M1072.5000117048621,448.50000757724047A6,6,0,1,1,1060.5000117048621,448.50000757724047A6,6,0,1,1,1072.5000117048621,448.50000757724047"></path><path id="kity_path_277" fill="none" stroke="gray"></path></g><path id="node_outline6" fill="none" stroke="none" d="M1077.5000119432807,392.50000757724047h255a5,5,0,0,1,5,5v102a5,5,0,0,1,-5,5h-255a5,5,0,0,1,-5,-5v-102a5,5,0,0,1,5,-5z"></path><g id="node_text6" fill="black"><text id="kity_text_133" text-rendering="inherit" font-size="12" dy=".8em" y="395.7000075504184" x="1082.5000119432807">- 注意</text><text id="kity_text_134" text-rendering="inherit" font-size="12" dy=".8em" y="413.7000075504184" x="1082.5000119432807">1. 任何 Broker 都可以成为 Controller</text><text id="kity_text_135" text-rendering="inherit" font-size="12" dy=".8em" y="431.7000075504184" x="1082.5000119432807">2. 一个集群同时只能有一个 Controller</text><text id="kity_text_136" text-rendering="inherit" font-size="12" dy=".8em" y="449.7000075504184" x="1082.5000119432807">3. Controller选主使用 zk 实现 （争抢实现）,</text><text id="kity_text_137" text-rendering="inherit" font-size="12" dy=".8em" y="467.7000075504184" x="1082.5000119432807">controller_epoch 自增号，使旧的 Controller</text><text id="kity_text_138" text-rendering="inherit" font-size="12" dy=".8em" y="485.7000075504184" x="1082.5000119432807">交互失效</text></g></g><g id="minder_node8"><g id="node_expander9" style="cursor: pointer;"><path id="kity_path_288" fill="white" stroke="gray" d="M920.5000094398856,581.5000095590949A6,6,0,1,1,908.5000094398856,581.5000095590949A6,6,0,1,1,920.5000094398856,581.5000095590949"></path><path id="kity_path_289" fill="none" stroke="gray" d="M910.0000094398856,581.5000095590949L919.0000094398856,581.5000095590949"></path></g><path id="node_outline10" fill="rgb(238, 243, 246)" stroke="rgb(115, 161, 191)" d="M924.500009842217,568.5000095590949h116a3,3,0,0,1,3,3v20a3,3,0,0,1,-3,3h-116a3,3,0,0,1,-3,-3v-20a3,3,0,0,1,3,-3z" stroke-width="1"></path><g id="node_text10" fill="black"><text id="kity_text_146" text-rendering="inherit" font-size="14" dy=".8em" y="572.4000095278025" x="941.500009842217">Coordinator</text></g></g><g id="minder_node9"><g id="node_expander7" display="none" style="cursor: pointer;"><path id="kity_path_282" fill="white" stroke="gray" d="M1083.500011868775,555.5000091716647A6,6,0,1,1,1071.500011868775,555.5000091716647A6,6,0,1,1,1083.500011868775,555.5000091716647"></path><path id="kity_path_283" fill="none" stroke="gray"></path></g><path id="node_outline8" fill="none" stroke="none" d="M1088.5000121071935,544.5000091716647h145a5,5,0,0,1,5,5v12a5,5,0,0,1,-5,5h-145a5,5,0,0,1,-5,-5v-12a5,5,0,0,1,5,-5z"></path><g id="node_text8" fill="black"><text id="kity_text_142" text-rendering="inherit" font-size="12" dy=".8em" y="547.7000091448426" x="1093.5000121071935">TransactionCoordinator </text></g></g><g id="minder_node10"><g id="node_expander8" display="none" style="cursor: pointer;"><path id="kity_path_285" fill="white" stroke="gray" d="M1083.500011868775,607.5000099465251A6,6,0,1,1,1071.500011868775,607.5000099465251A6,6,0,1,1,1083.500011868775,607.5000099465251"></path><path id="kity_path_286" fill="none" stroke="gray"></path></g><path id="node_outline9" fill="none" stroke="none" d="M1088.5000121071935,596.5000099465251h115a5,5,0,0,1,5,5v12a5,5,0,0,1,-5,5h-115a5,5,0,0,1,-5,-5v-12a5,5,0,0,1,5,-5z"></path><g id="node_text9" fill="black"><text id="kity_text_144" text-rendering="inherit" font-size="12" dy=".8em" y="599.700009919703" x="1093.5000121071935">GroupCoordinator</text></g></g><g id="minder_node11"><g id="node_expander28" style="cursor: pointer;"><path id="kity_path_345" fill="white" stroke="gray" d="M920.5000094398856,920.5000146105886A6,6,0,1,1,908.5000094398856,920.5000146105886A6,6,0,1,1,920.5000094398856,920.5000146105886"></path><path id="kity_path_346" fill="none" stroke="gray" d="M910.0000094398856,920.5000146105886L919.0000094398856,920.5000146105886"></path></g><path id="node_outline29" fill="rgb(238, 243, 246)" stroke="rgb(115, 161, 191)" d="M924.500009842217,907.5000146105886h120a3,3,0,0,1,3,3v20a3,3,0,0,1,-3,3h-120a3,3,0,0,1,-3,-3v-20a3,3,0,0,1,3,-3z" stroke-width="1"></path><g id="node_text29" fill="black"><text id="kity_text_190" text-rendering="inherit" font-size="14" dy=".8em" y="911.4000145792961" x="941.500009842217">LogManager</text></g></g><g id="minder_node12"><g id="node_expander10" display="none" style="cursor: pointer;"><path id="kity_path_291" fill="white" stroke="gray" d="M1087.5000119283795,705.5000114068389A6,6,0,1,1,1075.5000119283795,705.5000114068389A6,6,0,1,1,1087.5000119283795,705.5000114068389"></path><path id="kity_path_292" fill="none" stroke="gray"></path></g><path id="node_outline11" fill="none" stroke="none" d="M1092.5000121667981,658.5000114068389h301a5,5,0,0,1,5,5v84a5,5,0,0,1,-5,5h-301a5,5,0,0,1,-5,-5v-84a5,5,0,0,1,5,-5z"></path><g id="node_text11" fill="black"><text id="kity_text_148" text-rendering="inherit" font-size="12" dy=".8em" y="661.7000113800168" x="1097.5000121667981">作用</text><text id="kity_text_149" text-rendering="inherit" font-size="12" dy=".8em" y="679.7000113800168" x="1097.5000121667981">负责物理存储的实现</text><text id="kity_text_150" text-rendering="inherit" font-size="12" dy=".8em" y="697.7000113800168" x="1097.5000121667981">注意</text><text id="kity_text_151" text-rendering="inherit" font-size="12" dy=".8em" y="715.7000113800168" x="1097.5000121667981">LogManager 只负责Log管理工作，不负责数据的写入</text><text id="kity_text_152" text-rendering="inherit" font-size="12" dy=".8em" y="733.7000113800168" x="1097.5000121667981">&amp;读取。。写入读取是ReplicaManager&#xa0;负责。</text></g></g><g id="minder_node13"><g id="node_expander17" style="cursor: pointer;"><path id="kity_path_312" fill="white" stroke="gray" d="M1087.5000119283795,932.5000147894025A6,6,0,1,1,1075.5000119283795,932.5000147894025A6,6,0,1,1,1087.5000119283795,932.5000147894025"></path><path id="kity_path_313" fill="none" stroke="gray" d="M1077.0000119283795,932.5000147894025L1086.0000119283795,932.5000147894025"></path></g><path id="node_outline18" fill="none" stroke="none" d="M1092.5000121667981,921.5000147894025h82a5,5,0,0,1,5,5v12a5,5,0,0,1,-5,5h-82a5,5,0,0,1,-5,-5v-12a5,5,0,0,1,5,-5z"></path><g id="node_text18" fill="black"><text id="kity_text_167" text-rendering="inherit" font-size="12" dy=".8em" y="924.7000147625804" x="1097.5000121667981">日志文件结构</text></g></g><g id="minder_node14"><g id="node_expander14" style="cursor: pointer;"><path id="kity_path_303" fill="white" stroke="gray" d="M1219.5000138953328,845.5000134930015A6,6,0,1,1,1207.5000138953328,845.5000134930015A6,6,0,1,1,1219.5000138953328,845.5000134930015"></path><path id="kity_path_304" fill="none" stroke="gray" d="M1209.0000138953328,845.5000134930015L1218.0000138953328,845.5000134930015"></path></g><path id="node_outline15" fill="none" stroke="none" d="M1224.5000141337514,834.5000134930015h64a5,5,0,0,1,5,5v12a5,5,0,0,1,-5,5h-64a5,5,0,0,1,-5,-5v-12a5,5,0,0,1,5,-5z"></path><g id="node_text15" fill="black"><text id="kity_text_160" text-rendering="inherit" font-size="12" dy=".8em" y="837.7000134661794" x="1229.5000141337514">segment&#xa0;</text></g></g><g id="minder_node15"><g id="node_expander11" display="none" style="cursor: pointer;"><path id="kity_path_294" fill="white" stroke="gray" d="M1333.5000155940652,793.5000127181411A6,6,0,1,1,1321.5000155940652,793.5000127181411A6,6,0,1,1,1333.5000155940652,793.5000127181411"></path><path id="kity_path_295" fill="none" stroke="gray"></path></g><path id="node_outline12" fill="none" stroke="none" d="M1338.5000158324838,782.5000127181411h57a5,5,0,0,1,5,5v12a5,5,0,0,1,-5,5h-57a5,5,0,0,1,-5,-5v-12a5,5,0,0,1,5,-5z"></path><g id="node_text12" fill="black"><text id="kity_text_154" text-rendering="inherit" font-size="12" dy=".8em" y="785.700012691319" x="1343.5000158324838">log 文件</text></g></g><g id="minder_node16"><g id="node_expander12" display="none" style="cursor: pointer;"><path id="kity_path_297" fill="white" stroke="gray" d="M1333.5000155940652,845.5000134930015A6,6,0,1,1,1321.5000155940652,845.5000134930015A6,6,0,1,1,1333.5000155940652,845.5000134930015"></path><path id="kity_path_298" fill="none" stroke="gray"></path></g><path id="node_outline13" fill="none" stroke="none" d="M1338.5000158324838,834.5000134930015h95a5,5,0,0,1,5,5v12a5,5,0,0,1,-5,5h-95a5,5,0,0,1,-5,-5v-12a5,5,0,0,1,5,-5z"></path><g id="node_text13" fill="black"><text id="kity_text_156" text-rendering="inherit" font-size="12" dy=".8em" y="837.7000134661794" x="1343.5000158324838">timeindex 文件</text></g></g><g id="minder_node17"><g id="node_expander13" display="none" style="cursor: pointer;"><path id="kity_path_300" fill="white" stroke="gray" d="M1333.5000155940652,897.5000142678618A6,6,0,1,1,1321.5000155940652,897.5000142678618A6,6,0,1,1,1333.5000155940652,897.5000142678618"></path><path id="kity_path_301" fill="none" stroke="gray"></path></g><path id="node_outline14" fill="none" stroke="none" d="M1338.5000158324838,886.5000142678618h70a5,5,0,0,1,5,5v12a5,5,0,0,1,-5,5h-70a5,5,0,0,1,-5,-5v-12a5,5,0,0,1,5,-5z"></path><g id="node_text14" fill="black"><text id="kity_text_158" text-rendering="inherit" font-size="12" dy=".8em" y="889.7000142410398" x="1343.5000158324838">index 文件</text></g></g><g id="minder_node18"><g id="node_expander15" display="none" style="cursor: pointer;"><path id="kity_path_306" fill="white" stroke="gray" d="M1219.5000138953328,949.5000150427222A6,6,0,1,1,1207.5000138953328,949.5000150427222A6,6,0,1,1,1219.5000138953328,949.5000150427222"></path><path id="kity_path_307" fill="none" stroke="gray"></path></g><path id="node_outline16" fill="none" stroke="none" d="M1224.5000141337514,938.5000150427222h133a5,5,0,0,1,5,5v12a5,5,0,0,1,-5,5h-133a5,5,0,0,1,-5,-5v-12a5,5,0,0,1,5,-5z"></path><g id="node_text16" fill="black"><text id="kity_text_162" text-rendering="inherit" font-size="12" dy=".8em" y="941.7000150159001" x="1229.5000141337514">abort index(txnindex)</text></g></g><g id="minder_node19"><g id="node_expander16" display="none" style="cursor: pointer;"><path id="kity_path_309" fill="white" stroke="gray" d="M1219.5000138953328,1010.5000159516931A6,6,0,1,1,1207.5000138953328,1010.5000159516931A6,6,0,1,1,1219.5000138953328,1010.5000159516931"></path><path id="kity_path_310" fill="none" stroke="gray"></path></g><path id="node_outline17" fill="none" stroke="none" d="M1224.5000141337514,990.5000159516931h278a5,5,0,0,1,5,5v30a5,5,0,0,1,-5,5h-278a5,5,0,0,1,-5,-5v-30a5,5,0,0,1,5,-5z"></path><g id="node_text17" fill="black"><text id="kity_text_164" text-rendering="inherit" font-size="12" dy=".8em" y="993.700015924871" x="1229.5000141337514">leader-epoch-checkpoint（leader 变更信息，只</text><text id="kity_text_165" text-rendering="inherit" font-size="12" dy=".8em" y="1011.700015924871" x="1229.5000141337514">有曾经成为leader 才有该信息）</text></g></g><g id="minder_node20"><g id="node_expander27" style="cursor: pointer;"><path id="kity_path_342" fill="white" stroke="gray" d="M1087.5000119283795,1171.50001835078A6,6,0,1,1,1075.5000119283795,1171.50001835078A6,6,0,1,1,1087.5000119283795,1171.50001835078"></path><path id="kity_path_343" fill="none" stroke="gray" d="M1077.0000119283795,1171.50001835078L1086.0000119283795,1171.50001835078"></path></g><path id="node_outline28" fill="none" stroke="none" d="M1092.5000121667981,1160.50001835078h71a5,5,0,0,1,5,5v12a5,5,0,0,1,-5,5h-71a5,5,0,0,1,-5,-5v-12a5,5,0,0,1,5,-5z"></path><g id="node_text28" fill="black"><text id="kity_text_188" text-rendering="inherit" font-size="12" dy=".8em" y="1163.700018323958" x="1097.5000121667981">日志的管理</text></g></g><g id="minder_node21"><g id="node_expander20" style="cursor: pointer;"><path id="kity_path_321" fill="white" stroke="gray" d="M1208.50001373142,1097.500017248094A6,6,0,1,1,1196.50001373142,1097.500017248094A6,6,0,1,1,1208.50001373142,1097.500017248094"></path><path id="kity_path_322" fill="none" stroke="gray" d="M1198.00001373142,1097.500017248094L1207.00001373142,1097.500017248094"></path></g><path id="node_outline21" fill="none" stroke="none" d="M1213.5000139698386,1086.500017248094h71a5,5,0,0,1,5,5v12a5,5,0,0,1,-5,5h-71a5,5,0,0,1,-5,-5v-12a5,5,0,0,1,5,-5z"></path><g id="node_text21" fill="black"><text id="kity_text_173" text-rendering="inherit" font-size="12" dy=".8em" y="1089.700017221272" x="1218.5000139698386">写入到磁盘</text></g></g><g id="minder_node22"><g id="node_expander18" display="none" style="cursor: pointer;"><path id="kity_path_315" fill="white" stroke="gray" d="M1329.5000155344605,1071.500016860664A6,6,0,1,1,1317.5000155344605,1071.500016860664A6,6,0,1,1,1329.5000155344605,1071.500016860664"></path><path id="kity_path_316" fill="none" stroke="gray"></path></g><path id="node_outline19" fill="none" stroke="none" d="M1334.5000157728791,1060.500016860664h192a5,5,0,0,1,5,5v12a5,5,0,0,1,-5,5h-192a5,5,0,0,1,-5,-5v-12a5,5,0,0,1,5,-5z"></path><g id="node_text19" fill="black"><text id="kity_text_169" text-rendering="inherit" font-size="12" dy=".8em" y="1063.7000168338418" x="1339.5000157728791">log.flush.interval.ms(默认无限大)</text></g></g><g id="minder_node23"><g id="node_expander19" display="none" style="cursor: pointer;"><path id="kity_path_318" fill="white" stroke="gray" d="M1329.5000155344605,1123.5000176355243A6,6,0,1,1,1317.5000155344605,1123.5000176355243A6,6,0,1,1,1329.5000155344605,1123.5000176355243"></path><path id="kity_path_319" fill="none" stroke="gray"></path></g><path id="node_outline20" fill="none" stroke="none" d="M1334.5000157728791,1112.5000176355243h163a5,5,0,0,1,5,5v12a5,5,0,0,1,-5,5h-163a5,5,0,0,1,-5,-5v-12a5,5,0,0,1,5,-5z"></path><g id="node_text20" fill="black"><text id="kity_text_171" text-rendering="inherit" font-size="12" dy=".8em" y="1115.7000176087022" x="1339.5000157728791">log.flush.interval.messages</text></g></g><g id="minder_node24"><g id="node_expander26" style="cursor: pointer;"><path id="kity_path_339" fill="white" stroke="gray" d="M1208.50001373142,1245.500019453466A6,6,0,1,1,1196.50001373142,1245.500019453466A6,6,0,1,1,1208.50001373142,1245.500019453466"></path><path id="kity_path_340" fill="none" stroke="gray" d="M1198.00001373142,1245.500019453466L1207.00001373142,1245.500019453466"></path></g><path id="node_outline27" fill="none" stroke="none" d="M1213.5000139698386,1234.500019453466h36a5,5,0,0,1,5,5v12a5,5,0,0,1,-5,5h-36a5,5,0,0,1,-5,-5v-12a5,5,0,0,1,5,-5z"></path><g id="node_text27" fill="black"><text id="kity_text_186" text-rendering="inherit" font-size="12" dy=".8em" y="1237.7000194266438" x="1218.5000139698386">清理</text></g></g><g id="minder_node25"><g id="node_expander23" style="cursor: pointer;"><path id="kity_path_330" fill="white" stroke="gray" d="M1294.50001501292,1202.500018812716A6,6,0,1,1,1282.50001501292,1202.500018812716A6,6,0,1,1,1294.50001501292,1202.500018812716"></path><path id="kity_path_331" fill="none" stroke="gray" d="M1284.00001501292,1202.500018812716L1293.00001501292,1202.500018812716"></path></g><path id="node_outline24" fill="none" stroke="none" d="M1299.5000152513385,1191.500018812716h36a5,5,0,0,1,5,5v12a5,5,0,0,1,-5,5h-36a5,5,0,0,1,-5,-5v-12a5,5,0,0,1,5,-5z"></path><g id="node_text24" fill="black"><text id="kity_text_179" text-rendering="inherit" font-size="12" dy=".8em" y="1194.700018785894" x="1304.5000152513385">删除</text></g></g><g id="minder_node26"><g id="node_expander21" display="none" style="cursor: pointer;"><path id="kity_path_324" fill="white" stroke="gray" d="M1380.5000162944198,1176.5000184252858A6,6,0,1,1,1368.5000162944198,1176.5000184252858A6,6,0,1,1,1380.5000162944198,1176.5000184252858"></path><path id="kity_path_325" fill="none" stroke="gray"></path></g><path id="node_outline22" fill="none" stroke="none" d="M1385.5000165328383,1165.5000184252858h174a5,5,0,0,1,5,5v12a5,5,0,0,1,-5,5h-174a5,5,0,0,1,-5,-5v-12a5,5,0,0,1,5,-5z"></path><g id="node_text22" fill="black"><text id="kity_text_175" text-rendering="inherit" font-size="12" dy=".8em" y="1168.7000183984637" x="1390.5000165328383">log.retention.bytes(大小策略)</text></g></g><g id="minder_node27"><g id="node_expander22" display="none" style="cursor: pointer;"><path id="kity_path_327" fill="white" stroke="gray" d="M1380.5000162944198,1228.5000192001462A6,6,0,1,1,1368.5000162944198,1228.5000192001462A6,6,0,1,1,1380.5000162944198,1228.5000192001462"></path><path id="kity_path_328" fill="none" stroke="gray"></path></g><path id="node_outline23" fill="none" stroke="none" d="M1385.5000165328383,1217.5000192001462h195a5,5,0,0,1,5,5v12a5,5,0,0,1,-5,5h-195a5,5,0,0,1,-5,-5v-12a5,5,0,0,1,5,-5z"></path><g id="node_text23" fill="black"><text id="kity_text_177" text-rendering="inherit" font-size="12" dy=".8em" y="1220.700019173324" x="1390.5000165328383">log.retention.hours （时间策略）</text></g></g><g id="minder_node28"><g id="node_expander25" style="cursor: pointer;"><path id="kity_path_336" fill="white" stroke="gray" d="M1294.50001501292,1289.500020109117A6,6,0,1,1,1282.50001501292,1289.500020109117A6,6,0,1,1,1294.50001501292,1289.500020109117"></path><path id="kity_path_337" fill="none" stroke="gray" d="M1284.00001501292,1289.500020109117L1293.00001501292,1289.500020109117"></path></g><path id="node_outline26" fill="none" stroke="none" d="M1299.5000152513385,1278.500020109117h96a5,5,0,0,1,5,5v12a5,5,0,0,1,-5,5h-96a5,5,0,0,1,-5,-5v-12a5,5,0,0,1,5,-5z"></path><g id="node_text26" fill="black"><text id="kity_text_184" text-rendering="inherit" font-size="12" dy=".8em" y="1281.700020082295" x="1304.5000152513385">合并(compact)&#xa0;</text></g></g><g id="minder_node29"><g id="node_expander24" display="none" style="cursor: pointer;"><path id="kity_path_333" fill="white" stroke="gray" d="M1440.5000171884894,1289.500020109117A6,6,0,1,1,1428.5000171884894,1289.500020109117A6,6,0,1,1,1440.5000171884894,1289.500020109117"></path><path id="kity_path_334" fill="none" stroke="gray"></path></g><path id="node_outline25" fill="none" stroke="none" d="M1445.500017426908,1269.500020109117h202a5,5,0,0,1,5,5v30a5,5,0,0,1,-5,5h-202a5,5,0,0,1,-5,-5v-30a5,5,0,0,1,5,-5z"></path><g id="node_text25" fill="black"><text id="kity_text_181" text-rendering="inherit" font-size="12" dy=".8em" y="1272.700020082295" x="1450.500017426908">!!!有人也称为压缩，但是这个并不是</text><text id="kity_text_182" text-rendering="inherit" font-size="12" dy=".8em" y="1290.700020082295" x="1450.500017426908">compress，而是基于合并的压缩!!!</text></g></g><g id="minder_node30"><g id="node_expander37" style="cursor: pointer;"><path id="kity_path_372" fill="white" stroke="gray" d="M581.500004388392,434.5000073686242A6,6,0,1,1,569.500004388392,434.5000073686242A6,6,0,1,1,581.500004388392,434.5000073686242"></path><path id="kity_path_373" fill="none" stroke="gray" d="M571.000004388392,434.5000073686242L580.000004388392,434.5000073686242"></path></g><path id="node_outline38" fill="rgb(238, 243, 246)" stroke="rgb(115, 161, 191)" d="M422.50000236183405,421.5000073686242h143a3,3,0,0,1,3,3v20a3,3,0,0,1,-3,3h-143a3,3,0,0,1,-3,-3v-20a3,3,0,0,1,3,-3z" stroke-width="1"></path><g id="node_text38" fill="black"><text id="kity_text_213" text-rendering="inherit" font-size="14" dy=".8em" y="425.4000073373318" x="439.50000236183405">ReplicaManager</text></g></g><g id="minder_node31"><g id="node_expander29" display="none" style="cursor: pointer;"><path id="kity_path_348" fill="white" stroke="gray" d="M391.50000155717134,330.50000581890345A6,6,0,1,1,379.50000155717134,330.50000581890345A6,6,0,1,1,391.50000155717134,330.50000581890345"></path><path id="kity_path_349" fill="none" stroke="gray"></path></g><path id="node_outline30" fill="none" stroke="none" d="M104.49999744445086,274.50000581890345h270a5,5,0,0,1,5,5v102a5,5,0,0,1,-5,5h-270a5,5,0,0,1,-5,-5v-102a5,5,0,0,1,5,-5z"></path><g id="node_text30" fill="black"><text id="kity_text_192" text-rendering="inherit" font-size="12" dy=".8em" y="277.70000579208136" x="109.49999744445086">作用</text><text id="kity_text_193" text-rendering="inherit" font-size="12" dy=".8em" y="295.70000579208136" x="109.49999744445086">1. 控制分区副本同步</text><text id="kity_text_194" text-rendering="inherit" font-size="12" dy=".8em" y="313.70000579208136" x="109.49999744445086">2. 对外提供 Log 的读写服务（如: 保证写入ack）</text><text id="kity_text_195" text-rendering="inherit" font-size="12" dy=".8em" y="331.70000579208136" x="109.49999744445086">3. 周期性检查 isr 是否正常工作</text><text id="kity_text_196" text-rendering="inherit" font-size="12" dy=".8em" y="349.70000579208136" x="109.49999744445086">4. 对于 partition leader ，记录所有副本的 LEO,</text><text id="kity_text_197" text-rendering="inherit" font-size="12" dy=".8em" y="367.70000579208136" x="109.49999744445086">生成 partition HW</text></g></g><g id="minder_node32"><g id="node_expander32" style="cursor: pointer;"><path id="kity_path_357" fill="white" stroke="gray" d="M391.50000155717134,453.5000076517463A6,6,0,1,1,379.50000155717134,453.5000076517463A6,6,0,1,1,391.50000155717134,453.5000076517463"></path><path id="kity_path_358" fill="none" stroke="gray" d="M381.00000155717134,453.5000076517463L390.00000155717134,453.5000076517463"></path></g><path id="node_outline33" fill="none" stroke="none" d="M267.49999987334013,442.5000076517463h107a5,5,0,0,1,5,5v12a5,5,0,0,1,-5,5h-107a5,5,0,0,1,-5,-5v-12a5,5,0,0,1,5,-5z"></path><g id="node_text33" fill="black"><text id="kity_text_203" text-rendering="inherit" font-size="12" dy=".8em" y="445.7000076249242" x="272.49999987334013">副本同步异常处理</text></g></g><g id="minder_node33"><g id="node_expander30" display="none" style="cursor: pointer;"><path id="kity_path_351" fill="white" stroke="gray" d="M234.49999921768904,427.5000072643161A6,6,0,1,1,222.49999921768904,427.5000072643161A6,6,0,1,1,234.49999921768904,427.5000072643161"></path><path id="kity_path_352" fill="none" stroke="gray"></path></g><path id="node_outline31" fill="none" stroke="none" d="M132.49999786168337,416.5000072643161h85a5,5,0,0,1,5,5v12a5,5,0,0,1,-5,5h-85a5,5,0,0,1,-5,-5v-12a5,5,0,0,1,5,-5z"></path><g id="node_text31" fill="black"><text id="kity_text_199" text-rendering="inherit" font-size="12" dy=".8em" y="419.700007237494" x="137.49999786168337">LEO 过大丢弃</text></g></g><g id="minder_node34"><g id="node_expander31" display="none" style="cursor: pointer;"><path id="kity_path_354" fill="white" stroke="gray" d="M234.49999921768904,479.50000803917646A6,6,0,1,1,222.49999921768904,479.50000803917646A6,6,0,1,1,234.49999921768904,479.50000803917646"></path><path id="kity_path_355" fill="none" stroke="gray"></path></g><path id="node_outline32" fill="none" stroke="none" d="M24.49999625235796,468.50000803917646h193a5,5,0,0,1,5,5v12a5,5,0,0,1,-5,5h-193a5,5,0,0,1,-5,-5v-12a5,5,0,0,1,5,-5z"></path><g id="node_text32" fill="black"><text id="kity_text_201" text-rendering="inherit" font-size="12" dy=".8em" y="471.7000080123544" x="29.49999625235796">LEO 不存在部分，丢弃，全量拉取</text></g></g><g id="minder_node35"><g id="node_expander36" style="cursor: pointer;"><path id="kity_path_369" fill="white" stroke="gray" d="M391.50000155717134,583.5000095888972A6,6,0,1,1,379.50000155717134,583.5000095888972A6,6,0,1,1,391.50000155717134,583.5000095888972"></path><path id="kity_path_370" fill="none" stroke="gray" d="M381.00000155717134,583.5000095888972L390.00000155717134,583.5000095888972"></path></g><path id="node_outline37" fill="none" stroke="none" d="M338.5000009313226,572.5000095888972h36a5,5,0,0,1,5,5v12a5,5,0,0,1,-5,5h-36a5,5,0,0,1,-5,-5v-12a5,5,0,0,1,5,-5z"></path><g id="node_text37" fill="black"><text id="kity_text_211" text-rendering="inherit" font-size="12" dy=".8em" y="575.7000095620751" x="343.5000009313226">读取</text></g></g><g id="minder_node36"><g id="node_expander33" display="none" style="cursor: pointer;"><path id="kity_path_360" fill="white" stroke="gray" d="M305.5000002756715,531.5000088140368A6,6,0,1,1,293.5000002756715,531.5000088140368A6,6,0,1,1,305.5000002756715,531.5000088140368"></path><path id="kity_path_361" fill="none" stroke="gray"></path></g><path id="node_outline34" fill="none" stroke="none" d="M148.49999810010195,520.5000088140368h140a5,5,0,0,1,5,5v12a5,5,0,0,1,-5,5h-140a5,5,0,0,1,-5,-5v-12a5,5,0,0,1,5,-5z"></path><g id="node_text34" fill="black"><text id="kity_text_205" text-rendering="inherit" font-size="12" dy=".8em" y="523.7000087872148" x="153.49999810010195">事务读(依赖 abort 文件)</text></g></g><g id="minder_node37"><g id="node_expander34" display="none" style="cursor: pointer;"><path id="kity_path_363" fill="white" stroke="gray" d="M305.5000002756715,583.5000095888972A6,6,0,1,1,293.5000002756715,583.5000095888972A6,6,0,1,1,305.5000002756715,583.5000095888972"></path><path id="kity_path_364" fill="none" stroke="gray"></path></g><path id="node_outline35" fill="none" stroke="none" d="M145.49999805539846,572.5000095888972h143a5,5,0,0,1,5,5v12a5,5,0,0,1,-5,5h-143a5,5,0,0,1,-5,-5v-12a5,5,0,0,1,5,-5z"></path><g id="node_text35" fill="black"><text id="kity_text_207" text-rendering="inherit" font-size="12" dy=".8em" y="575.7000095620751" x="150.49999805539846">timestamp 读(依赖索引)</text></g></g><g id="minder_node38"><g id="node_expander35" display="none" style="cursor: pointer;"><path id="kity_path_366" fill="white" stroke="gray" d="M305.5000002756715,635.5000103637576A6,6,0,1,1,293.5000002756715,635.5000103637576A6,6,0,1,1,305.5000002756715,635.5000103637576"></path><path id="kity_path_367" fill="none" stroke="gray"></path></g><path id="node_outline36" fill="none" stroke="none" d="M174.49999848753214,624.5000103637576h114a5,5,0,0,1,5,5v12a5,5,0,0,1,-5,5h-114a5,5,0,0,1,-5,-5v-12a5,5,0,0,1,5,-5z"></path><g id="node_text36" fill="black"><text id="kity_text_209" text-rendering="inherit" font-size="12" dy=".8em" y="627.7000103369355" x="179.49999848753214">offset 读(依赖索引)</text></g></g><g id="minder_node39"><g id="node_expander41" style="cursor: pointer;"><path id="kity_path_384" fill="white" stroke="gray" d="M581.500004388392,749.50001206249A6,6,0,1,1,569.500004388392,749.50001206249A6,6,0,1,1,581.500004388392,749.50001206249"></path><path id="kity_path_385" fill="none" stroke="gray" d="M571.000004388392,749.50001206249L580.000004388392,749.50001206249"></path></g><path id="node_outline42" fill="rgb(238, 243, 246)" stroke="rgb(115, 161, 191)" d="M363.50000148266554,736.50001206249h202a3,3,0,0,1,3,3v20a3,3,0,0,1,-3,3h-202a3,3,0,0,1,-3,-3v-20a3,3,0,0,1,3,-3z" stroke-width="1"></path><g id="node_text42" fill="black"><text id="kity_text_221" text-rendering="inherit" font-size="14" dy=".8em" y="740.4000120311975" x="380.50000148266554">网络&amp; 处理模型(1+N+M )</text></g></g><g id="minder_node40"><g id="node_expander38" display="none" style="cursor: pointer;"><path id="kity_path_375" fill="white" stroke="gray" d="M332.50000067800283,697.5000112876296A6,6,0,1,1,320.50000067800283,697.5000112876296A6,6,0,1,1,332.50000067800283,697.5000112876296"></path><path id="kity_path_376" fill="none" stroke="gray"></path></g><path id="node_outline39" fill="none" stroke="none" d="M227.49999927729368,686.5000112876296h88a5,5,0,0,1,5,5v12a5,5,0,0,1,-5,5h-88a5,5,0,0,1,-5,-5v-12a5,5,0,0,1,5,-5z"></path><g id="node_text39" fill="black"><text id="kity_text_215" text-rendering="inherit" font-size="12" dy=".8em" y="689.7000112608075" x="232.49999927729368">1 个 Acceptor</text></g></g><g id="minder_node41"><g id="node_expander39" display="none" style="cursor: pointer;"><path id="kity_path_378" fill="white" stroke="gray" d="M332.50000067800283,749.50001206249A6,6,0,1,1,320.50000067800283,749.50001206249A6,6,0,1,1,332.50000067800283,749.50001206249"></path><path id="kity_path_379" fill="none" stroke="gray"></path></g><path id="node_outline40" fill="none" stroke="none" d="M220.49999917298555,738.50001206249h95a5,5,0,0,1,5,5v12a5,5,0,0,1,-5,5h-95a5,5,0,0,1,-5,-5v-12a5,5,0,0,1,5,-5z"></path><g id="node_text40" fill="black"><text id="kity_text_217" text-rendering="inherit" font-size="12" dy=".8em" y="741.7000120356679" x="225.49999917298555">N 个 Processor</text></g></g><g id="minder_node42"><g id="node_expander40" display="none" style="cursor: pointer;"><path id="kity_path_381" fill="white" stroke="gray" d="M332.50000067800283,801.5000128373504A6,6,0,1,1,320.50000067800283,801.5000128373504A6,6,0,1,1,332.50000067800283,801.5000128373504"></path><path id="kity_path_382" fill="none" stroke="gray"></path></g><path id="node_outline41" fill="none" stroke="none" d="M151.49999814480543,790.5000128373504h164a5,5,0,0,1,5,5v12a5,5,0,0,1,-5,5h-164a5,5,0,0,1,-5,-5v-12a5,5,0,0,1,5,-5z"></path><g id="node_text41" fill="black"><text id="kity_text_219" text-rendering="inherit" font-size="12" dy=".8em" y="793.7000128105283" x="156.49999814480543">M 个 KafkaRequestHandler</text></g></g></g></g></svg>