<svg id="kity_svg_6" xmlns="http://www.w3.org/2000/svg" xmlns:xlink="http://www.w3.org/1999/xlink" version="1.1" width="977" height="1379" style="background: rgb(251, 251, 251); visibility: visible;" viewBox="0 0 977 1379"><defs id="kity_defs_7"><linearGradient id="kity_linearGradient_17" x1="0" y1="0" x2="0" y2="1"><stop id="kity_stop_18" offset="0" stop-color="rgb(255, 255, 255)"></stop><stop id="kity_stop_19" offset="1" stop-color="rgb(204, 204, 204)"></stop></linearGradient><marker id="kity_marker_2" orient="auto" refX="6" refY="0" viewBox="-7 -7 14 14" markerWidth="7" markerHeight="7" markerUnits="userSpaceOnUse"><path id="kity_path_3" fill="rgb(115, 161, 191)" stroke="none" d="M6,0A6,6,0,1,1,-6,0A6,6,0,1,1,6,0"></path></marker></defs><g id="kity_g_8"><g id="minder1" text-rendering="optimize-speed"><g id="minder_connect_group1"><path id="kity_path_31" fill="none" stroke="rgb(115, 161, 191)" stroke-width="1" d="M81.5000003054738,672.5000005438924A225,510,0,0,1,306.5000003054738,162.50000054389238"></path><path id="kity_path_33" fill="none" stroke="rgb(115, 161, 191)" stroke-width="1" d="M471.5000003054738,162.50000054389238C486.5000003054738,162.50000054389238,486.5000003054738,44.500000543892384,501.5000003054738,44.500000543892384L634.5000003054738,44.500000543892384"></path><path id="kity_path_35" fill="none" stroke="rgb(115, 161, 191)" stroke-width="1" d="M471.5000003054738,162.50000054389238C486.5000003054738,162.50000054389238,486.5000003054738,176.50000054389238,501.5000003054738,176.50000054389238L553.5000003054738,176.50000054389238"></path><path id="kity_path_37" fill="none" stroke="rgb(115, 161, 191)" stroke-width="1" d="M553.5000003054738,176.50000054389238C568.5000003054738,176.50000054389238,568.5000003054738,96.50000054389238,583.5000003054738,96.50000054389238L651.5000003054738,96.50000054389238"></path><path id="kity_path_39" fill="none" stroke="rgb(115, 161, 191)" stroke-width="1" d="M553.5000003054738,176.50000054389238C568.5000003054738,176.50000054389238,568.5000003054738,256.5000005438924,583.5000003054738,256.5000005438924L741.5000003054738,256.5000005438924"></path><path id="kity_path_41" fill="none" stroke="rgb(115, 161, 191)" stroke-width="1" d="M471.5000003054738,162.50000054389238C486.5000003054738,162.50000054389238,486.5000003054738,335.5000005438924,501.5000003054738,335.5000005438924L791.5000003054738,335.5000005438924"></path><path id="kity_path_43" fill="none" stroke="rgb(115, 161, 191)" stroke-width="1" d="M81.5000003054738,672.5000005438924A218,92,0,0,1,299.5000003054738,580.5000005438924"></path><path id="kity_path_45" fill="none" stroke="rgb(115, 161, 191)" stroke-width="1" d="M488.5000003054738,580.5000005438924C503.5000003054738,580.5000005438924,503.5000003054738,568.5000005438924,518.5000003054738,568.5000005438924L621.5000003054738,568.5000005438924"></path><path id="kity_path_47" fill="none" stroke="rgb(115, 161, 191)" stroke-width="1" d="M488.5000003054738,580.5000005438924C503.5000003054738,580.5000005438924,503.5000003054738,620.5000005438924,518.5000003054738,620.5000005438924L636.5000003054738,620.5000005438924"></path><path id="kity_path_49" fill="none" stroke="rgb(115, 161, 191)" stroke-width="1" d="M81.5000003054738,672.5000005438924A278,227,0,0,0,359.5000003054738,899.5000005438924"></path><path id="kity_path_51" fill="none" stroke="rgb(115, 161, 191)" stroke-width="1" d="M510.5000003054738,899.5000005438924C525.5000003054738,899.5000005438924,525.5000003054738,887.5000005438924,540.5000003054738,887.5000005438924L631.5000003054738,887.5000005438924"></path><path id="kity_path_53" fill="none" stroke="rgb(115, 161, 191)" stroke-width="1" d="M510.5000003054738,899.5000005438924C525.5000003054738,899.5000005438924,525.5000003054738,939.5000005438924,540.5000003054738,939.5000005438924L688.5000003054738,939.5000005438924"></path><path id="kity_path_55" fill="none" stroke="rgb(115, 161, 191)" stroke-width="1" d="M81.5000003054738,672.5000005438924A268,74,0,0,0,349.5000003054738,746.5000005438924"></path><path id="kity_path_57" fill="none" stroke="rgb(115, 161, 191)" stroke-width="1" d="M448.5000003054738,746.5000005438924C463.5000003054738,746.5000005438924,463.5000003054738,708.5000005438924,478.5000003054738,708.5000005438924L585.5000003054738,708.5000005438924"></path><path id="kity_path_59" fill="none" stroke="rgb(115, 161, 191)" stroke-width="1" d="M585.5000003054738,708.5000005438924C600.5000003054738,708.5000005438924,600.5000003054738,708.5000005438924,615.5000003054738,708.5000005438924L794.5000003054738,708.5000005438924"></path><path id="kity_path_61" fill="none" stroke="rgb(115, 161, 191)" stroke-width="1" d="M448.5000003054738,746.5000005438924C463.5000003054738,746.5000005438924,463.5000003054738,760.5000005438924,478.5000003054738,760.5000005438924L588.5000003054738,760.5000005438924"></path><path id="kity_path_63" fill="none" stroke="rgb(115, 161, 191)" stroke-width="1" d="M588.5000003054738,760.5000005438924C603.5000003054738,760.5000005438924,603.5000003054738,760.5000005438924,618.5000003054738,760.5000005438924L871.5000003054738,760.5000005438924"></path><path id="kity_path_65" fill="none" stroke="rgb(115, 161, 191)" stroke-width="1" d="M448.5000003054738,746.5000005438924C463.5000003054738,746.5000005438924,463.5000003054738,812.5000005438924,478.5000003054738,812.5000005438924L581.5000003054738,812.5000005438924"></path><path id="kity_path_67" fill="none" stroke="rgb(115, 161, 191)" stroke-width="1" d="M581.5000003054738,812.5000005438924C596.5000003054738,812.5000005438924,596.5000003054738,812.5000005438924,611.5000003054738,812.5000005438924L956.5000003054738,812.5000005438924"></path><path id="kity_path_69" fill="none" stroke="rgb(115, 161, 191)" stroke-width="1" d="M81.5000003054738,672.5000005438924A242,235,0,0,1,323.5000003054738,437.5000005438924"></path><path id="kity_path_71" fill="none" stroke="rgb(115, 161, 191)" stroke-width="1" d="M451.5000003054738,437.5000005438924C466.5000003054738,437.5000005438924,466.5000003054738,399.5000005438924,481.5000003054738,399.5000005438924L630.5000003054738,399.5000005438924"></path><path id="kity_path_73" fill="none" stroke="rgb(115, 161, 191)" stroke-width="1" d="M451.5000003054738,437.5000005438924C466.5000003054738,437.5000005438924,466.5000003054738,451.5000005438924,481.5000003054738,451.5000005438924L614.5000003054738,451.5000005438924"></path><path id="kity_path_75" fill="none" stroke="rgb(115, 161, 191)" stroke-width="1" d="M451.5000003054738,437.5000005438924C466.5000003054738,437.5000005438924,466.5000003054738,503.5000005438924,481.5000003054738,503.5000005438924L619.5000003054738,503.5000005438924"></path><path id="kity_path_77" fill="none" stroke="rgb(115, 161, 191)" stroke-width="1" d="M619.5000003054738,503.5000005438924C634.5000003054738,503.5000005438924,634.5000003054738,503.5000005438924,649.5000003054738,503.5000005438924L949.5000003054738,503.5000005438924"></path><path id="kity_path_79" fill="none" stroke="rgb(115, 161, 191)" stroke-width="1" d="M81.5000003054738,672.5000005438924A129,473,0,0,0,210.5000003054738,1145.5000005438924"></path><path id="kity_path_81" fill="none" stroke="rgb(115, 161, 191)" stroke-width="1" d="M295.5000003054738,1145.5000005438924C321.5000003054738,1145.5000005438924,321.5000003054738,1039.5000005438924,347.5000003054738,1039.5000005438924L427.5000003054738,1039.5000005438924"></path><path id="kity_path_83" fill="none" stroke="rgb(115, 161, 191)" stroke-width="1" d="M427.5000003054738,1039.5000005438924C442.5000003054738,1039.5000005438924,442.5000003054738,987.5000005438924,457.5000003054738,987.5000005438924L574.5000003054738,987.5000005438924"></path><path id="kity_path_85" fill="none" stroke="rgb(115, 161, 191)" stroke-width="1" d="M427.5000003054738,1039.5000005438924C442.5000003054738,1039.5000005438924,442.5000003054738,1039.5000005438924,457.5000003054738,1039.5000005438924L608.5000003054738,1039.5000005438924"></path><path id="kity_path_87" fill="none" stroke="rgb(115, 161, 191)" stroke-width="1" d="M427.5000003054738,1039.5000005438924C442.5000003054738,1039.5000005438924,442.5000003054738,1091.5000005438924,457.5000003054738,1091.5000005438924L570.5000003054738,1091.5000005438924"></path><path id="kity_path_89" fill="none" stroke="rgb(115, 161, 191)" stroke-width="1" d="M295.5000003054738,1145.5000005438924C319.5000003054738,1145.5000005438924,319.5000003054738,1215.5000005438924,343.5000003054738,1215.5000005438924L574.5000003054738,1215.5000005438924"></path><path id="kity_path_91" fill="none" stroke="rgb(115, 161, 191)" stroke-width="1" d="M295.5000003054738,1145.5000005438924C322.0000003054738,1145.5000005438924,322.0000003054738,1128.5000005438924,348.5000003054738,1128.5000005438924L430.5000003054738,1128.5000005438924"></path><path id="kity_path_93" fill="none" stroke="rgb(115, 161, 191)" stroke-width="1" d="M295.5000003054738,1145.5000005438924C320.5000003054738,1145.5000005438924,320.5000003054738,1323.5000005438924,345.5000003054738,1323.5000005438924L435.5000003054738,1323.5000005438924"></path><path id="kity_path_95" fill="none" stroke="rgb(115, 161, 191)" stroke-width="1" d="M435.5000003054738,1323.5000005438924C450.5000003054738,1323.5000005438924,450.5000003054738,1306.5000005438924,465.5000003054738,1306.5000005438924L775.5000003054738,1306.5000005438924"></path><path id="kity_path_97" fill="none" stroke="rgb(115, 161, 191)" stroke-width="1" d="M435.5000003054738,1323.5000005438924C450.5000003054738,1323.5000005438924,450.5000003054738,1358.5000005438924,465.5000003054738,1358.5000005438924L543.5000003054738,1358.5000005438924"></path></g><g id="minder_node1"><path id="node_outline1" fill="rgb(115, 161, 191)" stroke="rgb(115, 161, 191)" d="M24.500000305473804,652.5000005438924h114a5,5,0,0,1,5,5v30a5,5,0,0,1,-5,5h-114a5,5,0,0,1,-5,-5v-30a5,5,0,0,1,5,-5z" stroke-width="3"></path><g id="node_text1" fill="white"><text id="kity_text_22" text-rendering="inherit" font-size="16" dy=".8em" y="662.1000005081296" x="43.500000305473804">consumer</text></g></g><g id="kity_g_12"><path id="kity_path_13" fill="none" stroke="none" d="M43.500000305473804,672.5000005438924h0v0h0z"></path></g><g id="kity_g_14"><path id="kity_path_15" fill="none" stroke="none" d="M43.500000305473804,672.5000005438924h0v0h0z"></path><path id="kity_path_16" fill="none" stroke="none"></path></g><g id="minder_node2"><g id="node_expander6" style="cursor: pointer;"><path id="kity_path_223" fill="white" stroke="gray" d="M307.5000041499734,162.49999294430017A6,6,0,1,1,295.5000041499734,162.49999294430017A6,6,0,1,1,307.5000041499734,162.49999294430017"></path><path id="kity_path_224" fill="none" stroke="gray" d="M297.0000041499734,162.49999294430017L306.0000041499734,162.49999294430017"></path></g><path id="node_outline7" fill="rgb(238, 243, 246)" stroke="rgb(115, 161, 191)" d="M311.50000455230474,149.49999294430017h157a3,3,0,0,1,3,3v20a3,3,0,0,1,-3,3h-157a3,3,0,0,1,-3,-3v-20a3,3,0,0,1,3,-3z" stroke-width="1"></path><g id="node_text7" fill="black"><text id="kity_text_115" text-rendering="inherit" font-size="14" dy=".8em" y="153.39999291300774" x="328.50000455230474">consumer代码流程</text></g></g><g id="minder_node3"><g id="node_expander1" style="cursor: pointer;" display="none"><path id="kity_path_208" fill="white" stroke="gray" d="M511.5000071898103,30.499990977346897A6,6,0,1,1,499.5000071898103,30.499990977346897A6,6,0,1,1,511.5000071898103,30.499990977346897"></path><path id="kity_path_209" fill="none" stroke="gray"></path></g><path id="node_outline2" fill="none" stroke="none" d="M516.5000074282289,19.499990977346897h113a5,5,0,0,1,5,5v12a5,5,0,0,1,-5,5h-113a5,5,0,0,1,-5,-5v-12a5,5,0,0,1,5,-5z"></path><g id="node_text2" fill="black"><text id="kity_text_99" text-rendering="inherit" font-size="12" dy=".8em" y="22.699990950524807" x="521.5000074282289">subscribe&#xa0;/ assign</text></g></g><g id="minder_node4"><g id="node_expander4" style="cursor: pointer;"><path id="kity_path_217" fill="white" stroke="gray" d="M511.5000071898103,162.49999294430017A6,6,0,1,1,499.5000071898103,162.49999294430017A6,6,0,1,1,511.5000071898103,162.49999294430017"></path><path id="kity_path_218" fill="none" stroke="gray" d="M501.0000071898103,162.49999294430017L510.0000071898103,162.49999294430017"></path></g><path id="node_outline5" fill="none" stroke="none" d="M516.5000074282289,151.49999294430017h32a5,5,0,0,1,5,5v12a5,5,0,0,1,-5,5h-32a5,5,0,0,1,-5,-5v-12a5,5,0,0,1,5,-5z"></path><g id="node_text5" fill="black"><text id="kity_text_111" text-rendering="inherit" font-size="12" dy=".8em" y="154.69999291747808" x="521.5000074282289">poll</text></g></g><g id="minder_node5"><g id="node_expander2" style="cursor: pointer;" display="none"><path id="kity_path_211" fill="white" stroke="gray" d="M593.5000084117055,82.49999175220728A6,6,0,1,1,581.5000084117055,82.49999175220728A6,6,0,1,1,593.5000084117055,82.49999175220728"></path><path id="kity_path_212" fill="none" stroke="gray"></path></g><path id="node_outline3" fill="none" stroke="none" d="M598.5000086501241,71.49999175220728h48a5,5,0,0,1,5,5v12a5,5,0,0,1,-5,5h-48a5,5,0,0,1,-5,-5v-12a5,5,0,0,1,5,-5z"></path><g id="node_text3" fill="black"><text id="kity_text_101" text-rendering="inherit" font-size="12" dy=".8em" y="74.69999172538519" x="603.5000086501241">拦截器</text></g></g><g id="minder_node6"><g id="node_expander3" style="cursor: pointer;" display="none"><path id="kity_path_214" fill="white" stroke="gray" d="M593.5000084117055,188.49999333173037A6,6,0,1,1,581.5000084117055,188.49999333173037A6,6,0,1,1,593.5000084117055,188.49999333173037"></path><path id="kity_path_215" fill="none" stroke="gray"></path></g><path id="node_outline4" fill="none" stroke="none" d="M598.5000086501241,123.49999333173037h138a5,5,0,0,1,5,5v120a5,5,0,0,1,-5,5h-138a5,5,0,0,1,-5,-5v-120a5,5,0,0,1,5,-5z"></path><g id="node_text4" fill="black"><text id="kity_text_103" text-rendering="inherit" font-size="12" dy=".8em" y="126.69999330490828" x="603.5000086501241">- 核心参数</text><text id="kity_text_104" text-rendering="inherit" font-size="12" dy=".8em" y="144.69999330490828" x="603.5000086501241">1.&#xa0;max.poll.interval.ms</text><text id="kity_text_105" text-rendering="inherit" font-size="12" dy=".8em" y="162.69999330490828" x="603.5000086501241">2.&#xa0;max.poll.records</text><text id="kity_text_106" text-rendering="inherit" font-size="12" dy=".8em" y="180.69999330490828" x="603.5000086501241">3.&#xa0;group.id</text><text id="kity_text_107" text-rendering="inherit" font-size="12" dy=".8em" y="198.69999330490828" x="603.5000086501241">4.&#xa0;auto.offset.reset</text><text id="kity_text_108" text-rendering="inherit" font-size="12" dy=".8em" y="216.69999330490828" x="603.5000086501241">5.&#xa0;enable.auto.commit</text><text id="kity_text_109" text-rendering="inherit" font-size="12" dy=".8em" y="234.69999330490828" x="603.5000086501241">6.&#xa0;isolation.level</text></g></g><g id="minder_node7"><g id="node_expander5" style="cursor: pointer;" display="none"><path id="kity_path_220" fill="white" stroke="gray" d="M511.5000071898103,294.49999491125345A6,6,0,1,1,499.5000071898103,294.49999491125345A6,6,0,1,1,511.5000071898103,294.49999491125345"></path><path id="kity_path_221" fill="none" stroke="gray"></path></g><path id="node_outline6" fill="none" stroke="none" d="M516.5000074282289,256.49999491125345h270a5,5,0,0,1,5,5v66a5,5,0,0,1,-5,5h-270a5,5,0,0,1,-5,-5v-66a5,5,0,0,1,5,-5z" stroke-width="3"></path><g id="node_text6" fill="black"><text id="kity_text_113" text-rendering="inherit" font-size="12" dy=".8em" y="259.69999488443136" x="521.5000074282289">Consumer 和 poll 并不是线程安全，并发会报错</text><text id="kity_text_317" text-rendering="inherit" font-size="12" dy=".8em" y="277.69999488443136" x="521.5000074282289"></text><text id="kity_text_318" text-rendering="inherit" font-size="12" dy=".8em" y="295.69999488443136" x="521.5000074282289">Consumer 提供了&#xa0;consumer.wakeup() 方法，</text><text id="kity_text_319" text-rendering="inherit" font-size="12" dy=".8em" y="313.69999488443136" x="521.5000074282289">提供互斥的安全并发访问</text></g></g><g id="minder_node8"><g id="node_expander9" style="cursor: pointer;"><path id="kity_path_232" fill="white" stroke="gray" d="M300.50000404566526,580.4999991729856A6,6,0,1,1,288.50000404566526,580.4999991729856A6,6,0,1,1,300.50000404566526,580.4999991729856"></path><path id="kity_path_233" fill="none" stroke="gray" d="M290.00000404566526,580.4999991729856L299.00000404566526,580.4999991729856"></path></g><path id="node_outline10" fill="rgb(238, 243, 246)" stroke="rgb(115, 161, 191)" d="M304.5000044479966,567.4999991729856h181a3,3,0,0,1,3,3v20a3,3,0,0,1,-3,3h-181a3,3,0,0,1,-3,-3v-20a3,3,0,0,1,3,-3z" stroke-width="1"></path><g id="node_text10" fill="black"><text id="kity_text_121" text-rendering="inherit" font-size="14" dy=".8em" y="571.3999991416931" x="321.5000044479966">事务（isolation.level）</text></g></g><g id="minder_node9"><g id="node_expander7" style="cursor: pointer;" display="none"><path id="kity_path_226" fill="white" stroke="gray" d="M528.50000744313,554.4999987855554A6,6,0,1,1,516.50000744313,554.4999987855554A6,6,0,1,1,528.50000744313,554.4999987855554"></path><path id="kity_path_227" fill="none" stroke="gray"></path></g><path id="node_outline8" fill="none" stroke="none" d="M533.5000076815486,543.4999987855554h83a5,5,0,0,1,5,5v12a5,5,0,0,1,-5,5h-83a5,5,0,0,1,-5,-5v-12a5,5,0,0,1,5,-5z"></path><g id="node_text8" fill="black"><text id="kity_text_117" text-rendering="inherit" font-size="12" dy=".8em" y="546.6999987587333" x="538.5000076815486">read commit</text></g></g><g id="minder_node10"><g id="node_expander8" style="cursor: pointer;" display="none"><path id="kity_path_229" fill="white" stroke="gray" d="M528.50000744313,606.4999995604157A6,6,0,1,1,516.50000744313,606.4999995604157A6,6,0,1,1,528.50000744313,606.4999995604157"></path><path id="kity_path_230" fill="none" stroke="gray"></path></g><path id="node_outline9" fill="none" stroke="none" d="M533.5000076815486,595.4999995604157h98a5,5,0,0,1,5,5v12a5,5,0,0,1,-5,5h-98a5,5,0,0,1,-5,-5v-12a5,5,0,0,1,5,-5z"></path><g id="node_text9" fill="black"><text id="kity_text_119" text-rendering="inherit" font-size="12" dy=".8em" y="598.6999995335937" x="538.5000076815486">read uncommit</text></g></g><g id="minder_node11"><g id="node_expander12" style="cursor: pointer;"><path id="kity_path_241" fill="white" stroke="gray" d="M360.50000493973494,899.500003926456A6,6,0,1,1,348.50000493973494,899.500003926456A6,6,0,1,1,360.50000493973494,899.500003926456"></path><path id="kity_path_242" fill="none" stroke="gray" d="M350.00000493973494,899.500003926456L359.00000493973494,899.500003926456"></path></g><path id="node_outline13" fill="rgb(238, 243, 246)" stroke="rgb(115, 161, 191)" d="M364.5000053420663,886.500003926456h143a3,3,0,0,1,3,3v20a3,3,0,0,1,-3,3h-143a3,3,0,0,1,-3,-3v-20a3,3,0,0,1,3,-3z" stroke-width="1"></path><g id="node_text13" fill="black"><text id="kity_text_127" text-rendering="inherit" font-size="14" dy=".8em" y="890.4000038951635" x="381.5000053420663">心跳 &amp; Poll 间隙&#xa0;</text></g></g><g id="minder_node12"><g id="node_expander10" style="cursor: pointer;" display="none"><path id="kity_path_235" fill="white" stroke="gray" d="M550.5000077709556,873.5000035390258A6,6,0,1,1,538.5000077709556,873.5000035390258A6,6,0,1,1,550.5000077709556,873.5000035390258"></path><path id="kity_path_236" fill="none" stroke="gray"></path></g><path id="node_outline11" fill="none" stroke="none" d="M555.5000080093741,862.5000035390258h71a5,5,0,0,1,5,5v12a5,5,0,0,1,-5,5h-71a5,5,0,0,1,-5,-5v-12a5,5,0,0,1,5,-5z"></path><g id="node_text11" fill="black"><text id="kity_text_123" text-rendering="inherit" font-size="12" dy=".8em" y="865.7000035122037" x="560.5000080093741">心跳的作用</text></g></g><g id="minder_node13"><g id="node_expander11" style="cursor: pointer;" display="none"><path id="kity_path_238" fill="white" stroke="gray" d="M550.5000077709556,925.5000043138862A6,6,0,1,1,538.5000077709556,925.5000043138862A6,6,0,1,1,550.5000077709556,925.5000043138862"></path><path id="kity_path_239" fill="none" stroke="gray"></path></g><path id="node_outline12" fill="none" stroke="none" d="M555.5000080093741,914.5000043138862h128a5,5,0,0,1,5,5v12a5,5,0,0,1,-5,5h-128a5,5,0,0,1,-5,-5v-12a5,5,0,0,1,5,-5z"></path><g id="node_text12" fill="black"><text id="kity_text_125" text-rendering="inherit" font-size="12" dy=".8em" y="917.7000042870641" x="560.5000080093741">心跳与Poll间隙的作用</text></g></g><g id="minder_node14"><g id="node_expander19" style="cursor: pointer;"><path id="kity_path_262" fill="white" stroke="gray" d="M461.5000064447522,746.5000016465783A6,6,0,1,1,449.5000064447522,746.5000016465783A6,6,0,1,1,461.5000064447522,746.5000016465783"></path><path id="kity_path_263" fill="none" stroke="gray" d="M451.0000064447522,746.5000016465783L460.0000064447522,746.5000016465783"></path></g><path id="node_outline20" fill="rgb(238, 243, 246)" stroke="rgb(115, 161, 191)" d="M354.5000051930547,733.5000016465783h91a3,3,0,0,1,3,3v20a3,3,0,0,1,-3,3h-91a3,3,0,0,1,-3,-3v-20a3,3,0,0,1,3,-3z" stroke-width="1"></path><g id="node_text20" fill="black"><text id="kity_text_141" text-rendering="inherit" font-size="14" dy=".8em" y="737.4000016152859" x="371.5000051930547">消费语义</text></g></g><g id="minder_node15"><g id="node_expander14" style="cursor: pointer;"><path id="kity_path_247" fill="white" stroke="gray" d="M488.50000684708357,694.5000008717179A6,6,0,1,1,476.50000684708357,694.5000008717179A6,6,0,1,1,488.50000684708357,694.5000008717179"></path><path id="kity_path_248" fill="none" stroke="gray" d="M478.00000684708357,694.5000008717179L487.00000684708357,694.5000008717179"></path></g><path id="node_outline15" fill="none" stroke="none" d="M493.50000708550215,683.5000008717179h87a5,5,0,0,1,5,5v12a5,5,0,0,1,-5,5h-87a5,5,0,0,1,-5,-5v-12a5,5,0,0,1,5,-5z"></path><g id="node_text15" fill="black"><text id="kity_text_131" text-rendering="inherit" font-size="12" dy=".8em" y="686.7000008448958" x="498.50000708550215">At-least-once</text></g></g><g id="minder_node16"><g id="node_expander13" style="cursor: pointer;" display="none"><path id="kity_path_244" fill="white" stroke="gray" d="M625.5000088885427,694.5000008717179A6,6,0,1,1,613.5000088885427,694.5000008717179A6,6,0,1,1,625.5000088885427,694.5000008717179"></path><path id="kity_path_245" fill="none" stroke="gray"></path></g><path id="node_outline14" fill="none" stroke="none" d="M630.5000091269612,683.5000008717179h159a5,5,0,0,1,5,5v12a5,5,0,0,1,-5,5h-159a5,5,0,0,1,-5,-5v-12a5,5,0,0,1,5,-5z"></path><g id="node_text14" fill="black"><text id="kity_text_129" text-rendering="inherit" font-size="12" dy=".8em" y="686.7000008448958" x="635.5000091269612">auto_commit + subscribe&#xa0;</text></g></g><g id="minder_node17"><g id="node_expander16" style="cursor: pointer;"><path id="kity_path_253" fill="white" stroke="gray" d="M488.50000684708357,746.5000016465783A6,6,0,1,1,476.50000684708357,746.5000016465783A6,6,0,1,1,488.50000684708357,746.5000016465783"></path><path id="kity_path_254" fill="none" stroke="gray" d="M478.00000684708357,746.5000016465783L487.00000684708357,746.5000016465783"></path></g><path id="node_outline17" fill="none" stroke="none" d="M493.50000708550215,735.5000016465783h90a5,5,0,0,1,5,5v12a5,5,0,0,1,-5,5h-90a5,5,0,0,1,-5,-5v-12a5,5,0,0,1,5,-5z"></path><g id="node_text17" fill="black"><text id="kity_text_135" text-rendering="inherit" font-size="12" dy=".8em" y="738.7000016197562" x="498.50000708550215">At-most-once</text></g></g><g id="minder_node18"><g id="node_expander15" style="cursor: pointer;" display="none"><path id="kity_path_250" fill="white" stroke="gray" d="M628.5000089332461,746.5000016465783A6,6,0,1,1,616.5000089332461,746.5000016465783A6,6,0,1,1,628.5000089332461,746.5000016465783"></path><path id="kity_path_251" fill="none" stroke="gray"></path></g><path id="node_outline16" fill="none" stroke="none" d="M633.5000091716647,735.5000016465783h233a5,5,0,0,1,5,5v12a5,5,0,0,1,-5,5h-233a5,5,0,0,1,-5,-5v-12a5,5,0,0,1,5,-5z"></path><g id="node_text16" fill="black"><text id="kity_text_133" text-rendering="inherit" font-size="12" dy=".8em" y="738.7000016197562" x="638.5000091716647">manual commit (手动提交) + subscribe&#xa0;</text></g></g><g id="minder_node19"><g id="node_expander18" style="cursor: pointer;"><path id="kity_path_259" fill="white" stroke="gray" d="M488.50000684708357,798.5000024214387A6,6,0,1,1,476.50000684708357,798.5000024214387A6,6,0,1,1,488.50000684708357,798.5000024214387"></path><path id="kity_path_260" fill="none" stroke="gray" d="M478.00000684708357,798.5000024214387L487.00000684708357,798.5000024214387"></path></g><path id="node_outline19" fill="none" stroke="none" d="M493.50000708550215,787.5000024214387h83a5,5,0,0,1,5,5v12a5,5,0,0,1,-5,5h-83a5,5,0,0,1,-5,-5v-12a5,5,0,0,1,5,-5z"></path><g id="node_text19" fill="black"><text id="kity_text_139" text-rendering="inherit" font-size="12" dy=".8em" y="790.7000023946166" x="498.50000708550215">Exactly-once</text></g></g><g id="minder_node20"><g id="node_expander17" style="cursor: pointer;" display="none"><path id="kity_path_256" fill="white" stroke="gray" d="M621.500008828938,798.5000024214387A6,6,0,1,1,609.500008828938,798.5000024214387A6,6,0,1,1,621.500008828938,798.5000024214387"></path><path id="kity_path_257" fill="none" stroke="gray"></path></g><path id="node_outline18" fill="none" stroke="none" d="M626.5000090673566,787.5000024214387h325a5,5,0,0,1,5,5v12a5,5,0,0,1,-5,5h-325a5,5,0,0,1,-5,-5v-12a5,5,0,0,1,5,-5z"></path><g id="node_text18" fill="black"><text id="kity_text_137" text-rendering="inherit" font-size="12" dy=".8em" y="790.7000023946166" x="631.5000090673566">manual commit （手动提交） + asign + read commited</text></g></g><g id="minder_node21"><g id="node_expander24" style="cursor: pointer;"><path id="kity_path_277" fill="white" stroke="gray" d="M464.5000064894557,437.4999970421195A6,6,0,1,1,452.5000064894557,437.4999970421195A6,6,0,1,1,464.5000064894557,437.4999970421195"></path><path id="kity_path_278" fill="none" stroke="gray" d="M454.0000064894557,437.4999970421195L463.0000064894557,437.4999970421195"></path></g><path id="node_outline25" fill="rgb(238, 243, 246)" stroke="rgb(115, 161, 191)" d="M328.5000048056245,424.4999970421195h120a3,3,0,0,1,3,3v20a3,3,0,0,1,-3,3h-120a3,3,0,0,1,-3,-3v-20a3,3,0,0,1,3,-3z" stroke-width="1"></path><g id="node_text25" fill="black"><text id="kity_text_151" text-rendering="inherit" font-size="14" dy=".8em" y="428.39999701082706" x="345.5000048056245">分区订阅模式</text></g></g><g id="minder_node22"><g id="node_expander20" style="cursor: pointer;" display="none"><path id="kity_path_265" fill="white" stroke="gray" d="M491.50000689178705,385.4999962672591A6,6,0,1,1,479.50000689178705,385.4999962672591A6,6,0,1,1,491.50000689178705,385.4999962672591"></path><path id="kity_path_266" fill="none" stroke="gray"></path></g><path id="node_outline21" fill="none" stroke="none" d="M496.50000713020563,374.4999962672591h129a5,5,0,0,1,5,5v12a5,5,0,0,1,-5,5h-129a5,5,0,0,1,-5,-5v-12a5,5,0,0,1,5,-5z"></path><g id="node_text21" fill="black"><text id="kity_text_143" text-rendering="inherit" font-size="12" dy=".8em" y="377.69999624043703" x="501.50000713020563">auto topic(topic列表)</text></g></g><g id="minder_node23"><g id="node_expander21" style="cursor: pointer;" display="none"><path id="kity_path_268" fill="white" stroke="gray" d="M491.50000689178705,437.4999970421195A6,6,0,1,1,479.50000689178705,437.4999970421195A6,6,0,1,1,491.50000689178705,437.4999970421195"></path><path id="kity_path_269" fill="none" stroke="gray"></path></g><path id="node_outline22" fill="none" stroke="none" d="M496.50000713020563,426.4999970421195h113a5,5,0,0,1,5,5v12a5,5,0,0,1,-5,5h-113a5,5,0,0,1,-5,-5v-12a5,5,0,0,1,5,-5z"></path><g id="node_text22" fill="black"><text id="kity_text_145" text-rendering="inherit" font-size="12" dy=".8em" y="429.6999970152974" x="501.50000713020563">auto pattern(正则)</text></g></g><g id="minder_node24"><g id="node_expander23" style="cursor: pointer;"><path id="kity_path_274" fill="white" stroke="gray" d="M491.50000689178705,489.4999978169799A6,6,0,1,1,479.50000689178705,489.4999978169799A6,6,0,1,1,491.50000689178705,489.4999978169799"></path><path id="kity_path_275" fill="none" stroke="gray" d="M481.00000689178705,489.4999978169799L490.00000689178705,489.4999978169799"></path></g><path id="node_outline24" fill="none" stroke="none" d="M496.50000713020563,478.4999978169799h118a5,5,0,0,1,5,5v12a5,5,0,0,1,-5,5h-118a5,5,0,0,1,-5,-5v-12a5,5,0,0,1,5,-5z"></path><g id="node_text24" fill="black"><text id="kity_text_149" text-rendering="inherit" font-size="12" dy=".8em" y="481.6999977901578" x="501.50000713020563">用户自定义分区订阅</text></g></g><g id="minder_node25"><g id="node_expander22" style="cursor: pointer;" display="none"><path id="kity_path_271" fill="white" stroke="gray" d="M659.5000093951821,489.4999978169799A6,6,0,1,1,647.5000093951821,489.4999978169799A6,6,0,1,1,659.5000093951821,489.4999978169799"></path><path id="kity_path_272" fill="none" stroke="gray"></path></g><path id="node_outline23" fill="none" stroke="none" d="M664.5000096336007,478.4999978169799h280a5,5,0,0,1,5,5v12a5,5,0,0,1,-5,5h-280a5,5,0,0,1,-5,-5v-12a5,5,0,0,1,5,-5z"></path><g id="node_text23" fill="black"><text id="kity_text_147" text-rendering="inherit" font-size="12" dy=".8em" y="481.6999977901578" x="669.5000096336007">只有该模式才没有定期&#xa0;poll 限制和 Reblance 心跳</text></g></g><g id="minder_node26"><g id="node_expander34" style="cursor: pointer;"><path id="kity_path_307" fill="white" stroke="gray" d="M308.50000416487455,1145.5000075921416A6,6,0,1,1,296.50000416487455,1145.5000075921416A6,6,0,1,1,308.50000416487455,1145.5000075921416"></path><path id="kity_path_308" fill="none" stroke="gray" d="M298.00000416487455,1145.5000075921416L307.00000416487455,1145.5000075921416"></path></g><path id="node_outline35" fill="rgb(238, 243, 246)" stroke="rgb(115, 161, 191)" d="M215.50000312179327,1132.5000075921416h77a3,3,0,0,1,3,3v20a3,3,0,0,1,-3,3h-77a3,3,0,0,1,-3,-3v-20a3,3,0,0,1,3,-3z" stroke-width="1"></path><g id="node_text35" fill="black"><text id="kity_text_172" text-rendering="inherit" font-size="14" dy=".8em" y="1136.4000075608492" x="232.50000312179327">消费组</text></g></g><g id="minder_node27"><g id="node_expander28" style="cursor: pointer;"><path id="kity_path_289" fill="white" stroke="gray" d="M357.50000489503145,1025.5000058040023A6,6,0,1,1,345.50000489503145,1025.5000058040023A6,6,0,1,1,357.50000489503145,1025.5000058040023"></path><path id="kity_path_290" fill="none" stroke="gray" d="M347.00000489503145,1025.5000058040023L356.00000489503145,1025.5000058040023"></path></g><path id="node_outline29" fill="none" stroke="none" d="M362.50000513345003,1014.5000058040023h60a5,5,0,0,1,5,5v12a5,5,0,0,1,-5,5h-60a5,5,0,0,1,-5,-5v-12a5,5,0,0,1,5,-5z"></path><g id="node_text29" fill="black"><text id="kity_text_159" text-rendering="inherit" font-size="12" dy=".8em" y="1017.7000057771802" x="367.50000513345003">分配模式</text></g></g><g id="minder_node28"><g id="node_expander25" style="cursor: pointer;" display="none"><path id="kity_path_280" fill="white" stroke="gray" d="M467.5000065341592,973.5000050291419A6,6,0,1,1,455.5000065341592,973.5000050291419A6,6,0,1,1,467.5000065341592,973.5000050291419"></path><path id="kity_path_281" fill="none" stroke="gray"></path></g><path id="node_outline26" fill="none" stroke="none" d="M472.50000677257776,962.5000050291419h97a5,5,0,0,1,5,5v12a5,5,0,0,1,-5,5h-97a5,5,0,0,1,-5,-5v-12a5,5,0,0,1,5,-5z"></path><g id="node_text26" fill="black"><text id="kity_text_153" text-rendering="inherit" font-size="12" dy=".8em" y="965.7000050023198" x="477.50000677257776">RangeAssignor</text></g></g><g id="minder_node29"><g id="node_expander26" style="cursor: pointer;" display="none"><path id="kity_path_283" fill="white" stroke="gray" d="M467.5000065341592,1025.5000058040023A6,6,0,1,1,455.5000065341592,1025.5000058040023A6,6,0,1,1,467.5000065341592,1025.5000058040023"></path><path id="kity_path_284" fill="none" stroke="gray"></path></g><path id="node_outline27" fill="none" stroke="none" d="M472.50000677257776,1014.5000058040023h131a5,5,0,0,1,5,5v12a5,5,0,0,1,-5,5h-131a5,5,0,0,1,-5,-5v-12a5,5,0,0,1,5,-5z"></path><g id="node_text27" fill="black"><text id="kity_text_155" text-rendering="inherit" font-size="12" dy=".8em" y="1017.7000057771802" x="477.50000677257776">RoundRobinAssignor </text></g></g><g id="minder_node30"><g id="node_expander27" style="cursor: pointer;" display="none"><path id="kity_path_286" fill="white" stroke="gray" d="M467.5000065341592,1077.5000065788627A6,6,0,1,1,455.5000065341592,1077.5000065788627A6,6,0,1,1,467.5000065341592,1077.5000065788627"></path><path id="kity_path_287" fill="none" stroke="gray"></path></g><path id="node_outline28" fill="none" stroke="none" d="M472.50000677257776,1066.5000065788627h93a5,5,0,0,1,5,5v12a5,5,0,0,1,-5,5h-93a5,5,0,0,1,-5,-5v-12a5,5,0,0,1,5,-5z"></path><g id="node_text28" fill="black"><text id="kity_text_157" text-rendering="inherit" font-size="12" dy=".8em" y="1069.7000065520406" x="477.50000677257776">StickyAssignor</text></g></g><g id="minder_node31"><g id="node_expander29" style="cursor: pointer;" display="none"><path id="kity_path_292" fill="white" stroke="gray" d="M353.5000048354268,1201.5000084266067A6,6,0,1,1,341.5000048354268,1201.5000084266067A6,6,0,1,1,353.5000048354268,1201.5000084266067"></path><path id="kity_path_293" fill="none" stroke="gray"></path></g><path id="node_outline30" fill="none" stroke="none" d="M358.5000050738454,1190.5000084266067h211a5,5,0,0,1,5,5v12a5,5,0,0,1,-5,5h-211a5,5,0,0,1,-5,-5v-12a5,5,0,0,1,5,-5z"></path><g id="node_text30" fill="black"><text id="kity_text_161" text-rendering="inherit" font-size="12" dy=".8em" y="1193.7000083997846" x="363.5000050738454">kafka 2 如何存储消费组种中的 offset</text></g></g><g id="minder_node32"><g id="node_expander30" style="cursor: pointer;" display="none"><path id="kity_path_295" fill="white" stroke="gray" d="M358.5000049099326,1114.5000071302056A6,6,0,1,1,346.5000049099326,1114.5000071302056A6,6,0,1,1,358.5000049099326,1114.5000071302056"></path><path id="kity_path_296" fill="none" stroke="gray"></path></g><path id="node_outline31" fill="none" stroke="none" d="M363.5000051483512,1103.5000071302056h62a5,5,0,0,1,5,5v12a5,5,0,0,1,-5,5h-62a5,5,0,0,1,-5,-5v-12a5,5,0,0,1,5,-5z"></path><g id="node_text31" fill="black"><text id="kity_text_163" text-rendering="inherit" font-size="12" dy=".8em" y="1106.7000071033835" x="368.5000051483512">Reblance</text></g></g><g id="minder_node33"><g id="node_expander33" style="cursor: pointer;"><path id="kity_path_304" fill="white" stroke="gray" d="M355.50000486522913,1309.500010035932A6,6,0,1,1,343.50000486522913,1309.500010035932A6,6,0,1,1,355.50000486522913,1309.500010035932"></path><path id="kity_path_305" fill="none" stroke="gray" d="M345.00000486522913,1309.500010035932L354.00000486522913,1309.500010035932"></path></g><path id="node_outline34" fill="none" stroke="none" d="M360.5000051036477,1298.500010035932h70a5,5,0,0,1,5,5v12a5,5,0,0,1,-5,5h-70a5,5,0,0,1,-5,-5v-12a5,5,0,0,1,5,-5z"></path><g id="node_text34" fill="black"><text id="kity_text_170" text-rendering="inherit" font-size="12" dy=".8em" y="1301.70001000911" x="365.5000051036477">offset 提交</text></g></g><g id="minder_node34"><g id="node_expander31" style="cursor: pointer;" display="none"><path id="kity_path_298" fill="white" stroke="gray" d="M475.5000066533685,1283.5000096485019A6,6,0,1,1,463.5000066533685,1283.5000096485019A6,6,0,1,1,475.5000066533685,1283.5000096485019"></path><path id="kity_path_299" fill="none" stroke="gray"></path></g><path id="node_outline32" fill="none" stroke="none" d="M480.50000689178705,1263.5000096485019h290a5,5,0,0,1,5,5v30a5,5,0,0,1,-5,5h-290a5,5,0,0,1,-5,-5v-30a5,5,0,0,1,5,-5z"></path><g id="node_text32" fill="black"><text id="kity_text_165" text-rendering="inherit" font-size="12" dy=".8em" y="1266.7000096216798" x="485.50000689178705">异步提交(不会进行重试，因为异步可能发生提交乱序</text><text id="kity_text_166" text-rendering="inherit" font-size="12" dy=".8em" y="1284.7000096216798" x="485.50000689178705">问题)，用户必须自行解决乱序发送问题</text></g></g><g id="minder_node35"><g id="node_expander32" style="cursor: pointer;" display="none"><path id="kity_path_301" fill="white" stroke="gray" d="M475.5000066533685,1344.5000105574727A6,6,0,1,1,463.5000066533685,1344.5000105574727A6,6,0,1,1,475.5000066533685,1344.5000105574727"></path><path id="kity_path_302" fill="none" stroke="gray"></path></g><path id="node_outline33" fill="none" stroke="none" d="M480.50000689178705,1333.5000105574727h58a5,5,0,0,1,5,5v12a5,5,0,0,1,-5,5h-58a5,5,0,0,1,-5,-5v-12a5,5,0,0,1,5,-5z"></path><g id="node_text33" fill="black"><text id="kity_text_168" text-rendering="inherit" font-size="12" dy=".8em" y="1336.7000105306506" x="485.50000689178705">同步提交</text></g></g></g></g></svg>